<svg width="118" height="57" viewBox="0 0 118 57" fill="none" xmlns="http://www.w3.org/2000/svg">
<path d="M61.0761 28.8672H70.8451C70.8451 13.3948 58.4528 0.867188 43.1476 0.867188C33.1533 0.867188 24.4143 6.23616 19.554 14.2408V0.867188H9.76896L0 10.7428H9.76896V56.8672H19.5379V43.4773C16.9468 39.2147 15.434 34.2199 15.434 28.8672C15.434 23.0427 17.5906 17.7388 21.1151 13.6714C21.1956 13.5738 21.2921 13.4761 21.3887 13.3785C21.8876 12.8254 22.4026 12.3047 22.9337 11.8166C23.0464 11.719 23.159 11.6051 23.2717 11.5075C23.8672 10.9869 24.4787 10.4825 25.1225 10.027C25.1708 9.99444 25.219 9.94563 25.2673 9.91309C25.9915 9.40873 26.7319 8.93691 27.5205 8.5139C27.5526 8.49763 27.5848 8.48137 27.617 8.4651C28.3251 8.0909 29.0494 7.7655 29.7897 7.45638C30.015 7.37503 30.2403 7.29368 30.4656 7.21234C31.045 7.00083 31.6083 6.82187 32.2038 6.65917C32.4774 6.57782 32.751 6.51274 33.0245 6.44766C33.62 6.30124 34.2155 6.20362 34.8271 6.106C35.0846 6.05719 35.3421 6.00838 35.6157 5.97585C36.4847 5.87823 37.3538 5.81315 38.255 5.81315C39.5747 5.81315 40.8783 5.94331 42.1337 6.17108C42.2946 6.20362 42.4716 6.20362 42.6326 6.23616C42.8418 6.28497 43.0671 6.35005 43.2763 6.39886C45.1593 6.82187 46.9779 7.47265 48.6517 8.35121C48.6517 8.35121 48.6678 8.35121 48.6678 8.36748C49.2793 8.69287 49.8909 9.03453 50.4703 9.40873C50.5185 9.44127 50.5668 9.47381 50.6151 9.50635C51.1462 9.84801 51.6773 10.2222 52.1762 10.6127C52.2245 10.6452 52.2567 10.694 52.305 10.7266C52.8039 11.1333 53.3028 11.5401 53.7695 11.9793C53.8178 12.0119 53.85 12.0607 53.8822 12.0932C54.3489 12.5488 54.7995 12.988 55.2179 13.4761C55.2662 13.5412 55.3145 13.59 55.3628 13.6551C55.7812 14.1269 56.1675 14.5987 56.5376 15.1194C56.6986 15.3309 56.8273 15.5749 56.9883 15.7864C57.2297 16.1444 57.4872 16.486 57.7125 16.8602C57.9378 17.2344 58.147 17.6412 58.3562 18.0316C58.4689 18.2594 58.6137 18.4709 58.7264 18.715C58.9356 19.1542 59.1287 19.6098 59.3058 20.0653C59.3862 20.2606 59.4828 20.4558 59.5633 20.6673C59.8047 21.3181 60.0139 21.9689 60.207 22.6522C60.207 22.6685 60.2231 22.6847 60.2231 22.7173C60.6094 24.1165 60.8669 25.5645 60.9795 27.045C61.0439 27.6144 61.0761 28.2327 61.0761 28.8672Z" fill="white"/>
<path d="M106.589 37.0996V0.867188H104.964L60.9634 45.332H96.8204V56.8672H106.589V45.332H118V37.0996H106.589ZM96.8204 37.0996H80.5174L96.8204 20.651V37.0996Z" fill="white"/>
<path d="M60.9636 45.3314L69.783 36.4156C70.4589 34.0077 70.8291 31.4859 70.8291 28.8665H61.0601C61.0601 38.8561 53.0454 46.9909 43.1316 46.9909C33.2178 46.9909 25.2031 38.8723 25.2031 28.8665C25.2031 18.8607 33.2178 10.7422 43.1316 10.7422C52.4177 10.7422 60.0301 17.8683 60.9636 26.9955C60.0301 15.1513 50.2451 5.8125 38.2552 5.8125C25.6376 5.8125 15.4502 16.1437 15.4502 28.8665C15.4502 44.3227 27.8424 56.8665 43.1477 56.8665C52.3534 56.8665 60.4807 52.3111 65.5181 45.3314H60.9636Z" fill="#EE7800"/>
</svg>
