<svg width="31" height="58" viewBox="0 0 31 58" fill="none" xmlns="http://www.w3.org/2000/svg">
<path d="M28.388 29.4281L29.0192 30.034L29.6252 29.4028L28.994 28.7968L28.388 29.4281ZM2.72142 56.1641L2.11546 56.7953L2.74667 57.4012L3.35263 56.77L2.72142 56.1641ZM27.6666 28.7355L28.2726 28.1043L27.6414 27.4983L27.0354 28.1296L27.6666 28.7355ZM2.00003 55.4715L1.36882 54.8656L0.762854 55.4968L1.39407 56.1027L2.00003 55.4715ZM28.388 29.4278L27.7568 30.0338L28.3627 30.665L28.994 30.059L28.388 29.4278ZM2.72142 2.6918L2.11546 2.06058L1.48424 2.66655L2.09021 3.29776L2.72142 2.6918ZM29.1094 28.7353L29.7153 29.3665L30.3466 28.7605L29.7406 28.1293L29.1094 28.7353ZM3.44281 1.99926L4.07402 1.3933L3.46806 0.762085L2.83684 1.36805L3.44281 1.99926ZM27.7568 28.8221L2.09021 55.5581L3.35263 56.77L29.0192 30.034L27.7568 28.8221ZM27.0606 29.3667L27.782 30.0593L28.994 28.7968L28.2726 28.1043L27.0606 29.3667ZM2.63125 56.0775L28.2978 29.3415L27.0354 28.1296L1.36882 54.8656L2.63125 56.0775ZM3.32738 55.5328L2.606 54.8403L1.39407 56.1027L2.11546 56.7953L3.32738 55.5328ZM29.0192 28.8218L3.35263 2.08583L2.09021 3.29776L27.7568 30.0338L29.0192 28.8218ZM28.5034 28.1041L27.782 28.7966L28.994 30.059L29.7153 29.3665L28.5034 28.1041ZM2.81159 2.60523L28.4782 29.3412L29.7406 28.1293L4.07402 1.3933L2.81159 2.60523ZM3.32738 3.32301L4.04877 2.63048L2.83684 1.36805L2.11546 2.06058L3.32738 3.32301Z" fill="#FFE17C"/>
</svg>
