<svg width="239" height="61" viewBox="0 0 239 61" fill="none" xmlns="http://www.w3.org/2000/svg">
<path d="M238.483 0.757812H0.568359V60.7578H238.483V0.757812Z" fill="white"/>
<path d="M64.8953 3.41992H3.33887V58.1125H64.8953V3.41992Z" fill="white"/>
<path d="M46.5295 36.6797V37.0221C50.944 38.8396 55.5488 40.1553 60.2572 40.9443C61.658 41.1622 63.2766 41.3645 64.9264 41.5046V40.4618C62.8253 40.2439 60.7241 40.0415 59.0432 39.7614C54.8042 39.0322 50.6224 38.0024 46.5295 36.6797V36.6797Z" fill="#009944"/>
<path d="M57.0354 37.8789V38.2213C59.5782 38.9696 62.1825 39.4904 64.8175 39.7777V38.9373C62.207 38.7184 59.6095 38.3651 57.0354 37.8789V37.8789Z" fill="#009944"/>
<path d="M48.7708 39.5444V39.9023C51.6946 40.9373 54.6912 41.754 57.7358 42.3459C58.8408 42.6416 61.2222 42.984 63.1988 43.2642V43.6222C44.5218 42.9062 34.2805 36.0424 29.4401 31.2953V20.4004C26.8408 25.521 19.012 35.1086 3.40112 37.9101V58.1436H64.942V42.1436C62.4206 42.0035 59.8992 41.7078 58.0782 41.4432C54.9399 41.0004 51.8317 40.3662 48.7708 39.5444V39.5444Z" fill="#009944"/>
<path d="M28.8953 10.7662H29.3778V19.669C33.9381 27.4511 46.3272 33.6767 51.2922 35.2332C55.7178 36.6423 60.2675 37.6273 64.8797 38.1748V3.41992H3.33887V32.8985C14.3895 30.097 25.5334 18.1125 28.8953 10.7662Z" fill="#E60012"/>
<path d="M235.713 3.41992H82.0005V58.1125H235.713V3.41992Z" fill="#009944"/>
<path d="M82.2961 3.41992H64.7864V58.1125H82.2961V3.41992Z" fill="url(#paint0_linear_1051_1937)"/>
<path d="M106.872 37.0993H113.098C113.378 37.0993 113.502 37.1771 113.502 37.4417V40.9436H106.934V43.465H113.502V44.8035H116.242V34.9981C116.242 34.6401 116.039 34.5156 115.603 34.5156H106.934V37.0993H106.872ZM106.872 32.3366V29.7374H115.121V32.2744L106.872 32.3366ZM106.872 27.6674V25.1304H115.121V27.714L106.872 27.6674ZM106.872 23.4028V20.7102H117.378V23.4495L106.872 23.4028ZM106.872 19.0604V16.5856H115.121V19.107L106.872 19.0604ZM100.226 40.8502V37.4417C100.226 37.1771 100.351 37.0993 100.553 37.0993H106.872V34.5156H97.9069C97.6268 34.5156 97.4867 34.6401 97.549 34.9203V44.8035H100.226V43.465H106.872V40.9436L100.226 40.8502ZM106.872 16.4923V19.0137H98.2027V16.5856L106.872 16.4923ZM106.872 20.6168V23.3561H96.086V20.7102L106.872 20.6168ZM106.872 25.037V27.6207H98.2027V25.1304L106.872 25.037ZM106.872 29.7063V32.2744H98.2027V29.7374L106.872 29.7063ZM91.0431 28.9436V45.0837H93.7824V23.0915C94.4804 20.9092 95.0367 18.684 95.4478 16.43L92.7863 16.0098C92.0624 20.7968 90.2406 25.3514 87.4634 29.3172L90.047 30.4533C90.4206 30.0176 90.6851 29.4572 91.0431 28.9747V28.9436Z" fill="white"/>
<path d="M147.339 18.7497H151.323V21.2089H147.339V18.7497ZM147.339 22.812H149.72V25.0532H147.339V22.812ZM147.339 26.5941H152.459V29.0532H147.339V26.5941V26.5941ZM147.339 33.8003H152.008V36.2595H147.339V33.8315V33.8003ZM147.339 37.8003C147.799 37.385 148.293 37.0101 148.817 36.6797L150.28 38.703C149.351 39.4961 148.368 40.2242 147.339 40.882V37.7692V37.8003ZM147.339 41.24V44.4462C147.475 44.5842 147.648 44.6812 147.837 44.7264C148.269 45.028 148.76 45.2352 149.277 45.3344C149.795 45.4336 150.328 45.4227 150.841 45.3023C151.821 44.9287 152.522 43.1855 152.942 39.9793L150.483 39.2011C150.497 40.1161 150.408 41.0297 150.218 41.9248C150.187 42.0444 150.124 42.1535 150.036 42.241C149.949 42.3285 149.84 42.3913 149.72 42.4229C149.3 42.563 148.817 42.4229 148.164 41.8626C147.884 41.6447 147.666 41.4423 147.385 41.24H147.339ZM147.339 32.8198V30.096C148.459 30.5785 149.378 31.0766 150 31.419L148.817 33.5357C148.338 33.2705 147.844 33.0315 147.339 32.8198V32.8198ZM140.895 36.2595H133.113V38.1583C134.996 37.8781 136.459 37.6602 137.58 37.3801L138.062 39.7614C137.02 40.0416 135.417 40.3217 133.113 40.6797V42.4851C133.134 42.9758 133.02 43.4628 132.784 43.8935C132.548 44.3242 132.199 44.6822 131.775 44.9287C130.856 45.5824 128.973 45.5824 126.234 44.9287V42.4229C128.475 42.9054 129.876 43.0455 130.374 42.6408C130.477 42.5413 130.556 42.4194 130.605 42.2844C130.653 42.1494 130.67 42.0051 130.654 41.8626V40.9443C128.21 41.24 126.109 41.3645 124.428 41.4423L124.024 38.9988C125.969 38.9988 128.148 38.7809 130.669 38.5007V36.2595H124.288V33.8315H130.669V32.4307C128.631 32.5863 126.965 32.6486 125.564 32.7108L125.206 30.4073C129.084 30.42 132.953 30.0446 136.755 29.2867L137.113 31.6058C135.801 31.8934 134.469 32.0807 133.129 32.1661V33.8315H140.179C139.775 32.4307 139.417 30.8276 139.074 29.1622H123.868V26.5941H136.895V25.0377H126.607V22.812H136.895V21.2556H124.926V18.7497H132.07C131.706 18.2588 131.282 17.8145 130.81 17.4268L132.631 15.7303C133.475 16.5073 134.251 17.3562 134.95 18.2673L135.23 18.703H141.455C142.38 17.77 143.224 16.7599 143.977 15.6836L146 17.3801C145.72 17.7225 145.362 18.205 145.02 18.703H147.401V21.1622H139.619V22.7186H147.401V24.9599H139.619V26.5163H147.401V28.9754H141.736C142.016 30.5514 142.385 32.1103 142.841 33.6447H147.401V36.1038H143.697C144.193 37.1212 144.798 38.0815 145.502 38.9676C146.165 38.5716 146.8 38.1295 147.401 37.6447V40.7575C147.401 40.7575 147.261 40.7575 147.183 40.8976L147.401 41.1155V44.3217C146.432 43.7628 145.537 43.0829 144.74 42.2984C141.821 43.6442 138.731 44.5817 135.557 45.0844L134.856 42.563C137.697 42.2392 140.475 41.5052 143.105 40.384C142.18 39.1262 141.451 37.7356 140.942 36.2595H140.895ZM147.339 30.0338C146.856 29.7536 146.296 29.5357 145.782 29.2556L144.662 31.5124C145.782 31.9949 146.685 32.4151 147.385 32.7575L147.339 30.0338Z" fill="white"/>
<path d="M183.681 23.994C183.821 23.994 183.899 23.994 183.899 24.2897V26.0484C183.902 26.0771 183.898 26.106 183.888 26.1329C183.878 26.1598 183.861 26.184 183.84 26.2036C183.819 26.2232 183.794 26.2377 183.766 26.2458C183.739 26.254 183.71 26.2557 183.681 26.2508H173.673V33.3169H186.918V30.7955H175.634V28.6321H185.72C186.296 28.6321 186.56 28.3364 186.56 27.8539V22.3908C186.573 22.2775 186.56 22.1628 186.522 22.0552C186.484 21.9476 186.422 21.8499 186.342 21.7693C186.261 21.6887 186.163 21.6271 186.056 21.5892C185.948 21.5514 185.833 21.5381 185.72 21.5504H173.611V23.994H183.681ZM173.673 37.7994V35.2002H185.222C185.31 35.1718 185.404 35.17 185.492 35.1949C185.581 35.2199 185.66 35.2704 185.72 35.3403C186.062 35.4803 186.203 35.9784 186.203 36.6788C186.203 40.7255 185.86 43.1224 185.082 43.885C184.526 44.4405 183.825 44.8287 183.059 45.0056C180.267 45.457 177.409 45.2437 174.716 44.3831V41.2702C178.498 42.5154 181.222 42.7333 182.685 41.8928C182.879 41.7619 183.039 41.5859 183.15 41.3799C183.261 41.1739 183.32 40.944 183.323 40.7099C183.478 39.8243 183.478 38.9185 183.323 38.0329C183.29 37.9715 183.24 37.9203 183.18 37.8846C183.119 37.849 183.051 37.8303 182.981 37.8305L173.673 37.7994ZM173.673 19.7916V17.0056C177.378 16.7877 180.88 16.4298 184.241 15.9473L185.144 18.8266C181.44 19.2469 177.658 19.5893 173.673 19.8228V19.7916ZM173.673 26.173H163.448V23.994H173.673V21.5504H163.448V20.3675C163.448 20.0718 163.588 19.9473 163.946 19.9473C167.23 19.9473 170.514 19.9473 173.673 19.7916V17.0056C169.813 17.208 165.689 17.2858 161.487 17.1457C161.004 17.1457 160.708 17.4881 160.786 18.1885V31.6204C160.741 35.6291 159.982 39.5977 158.545 43.3403L161.206 44.8033C162.688 40.5658 163.445 36.1093 163.448 31.6204V28.6321H172.911V30.7955H164.506V33.2391H169.798C169.596 37.4414 167.292 40.8811 162.95 43.5426L165.129 45.4259C167.752 43.5836 169.888 41.1321 171.354 38.2819C171.432 38.1574 171.432 37.9395 171.572 37.7994H173.673V35.2002H172.195C172.303 34.551 172.376 33.8963 172.413 33.2391H173.673V26.173Z" fill="white"/>
<path d="M213.876 30.3759C214.584 30.894 215.26 31.4554 215.899 32.0569L210.265 32.2748V44.3837H222.032V41.8001H210.825V39.4032H219.448V36.944H210.825V34.7184L218.249 34.3759L220.351 36.6794L222.094 34.9207C220.241 32.7025 218.183 30.6649 215.946 28.8351H221.611V26.2359H210.265V28.8351H215.246L213.845 30.3915L213.876 30.3759ZM210.265 24.2903V21.551H218.047C218.093 21.5533 218.138 21.5459 218.181 21.5295C218.223 21.5131 218.262 21.488 218.294 21.4557C218.326 21.4235 218.352 21.3848 218.368 21.3423C218.384 21.2997 218.392 21.2542 218.39 21.2086V19.8234C218.39 19.481 218.249 19.3409 218.047 19.3409H210.265V16.5861H220.07C220.212 16.5651 220.357 16.5776 220.493 16.6226C220.629 16.6676 220.753 16.7438 220.854 16.8451C220.956 16.9465 221.032 17.0702 221.077 17.2063C221.122 17.3423 221.134 17.4871 221.113 17.6289V23.232C221.134 23.3743 221.121 23.5195 221.076 23.6561C221.031 23.7926 220.955 23.917 220.854 24.0194C220.753 24.1219 220.63 24.1996 220.494 24.2466C220.358 24.2936 220.213 24.3086 220.07 24.2903H210.265ZM210.265 32.2748L204.662 32.5549L206.981 28.8351H210.265V26.2359H198V24.2903H210.265V21.551H198V19.8234C198 19.481 198.156 19.3409 198.421 19.3409H210.265V16.5861H196.257C196.117 16.5742 195.977 16.5931 195.845 16.6413C195.713 16.6895 195.593 16.766 195.494 16.8653C195.394 16.9646 195.318 17.0843 195.27 17.2162C195.222 17.3481 195.203 17.4889 195.214 17.6289V29.2553C195.327 34.1963 194.421 39.1076 192.553 43.6833L195.214 44.8818C196.029 43.1436 196.595 41.2993 196.895 39.4032C197.593 36.4185 197.943 33.3632 197.938 30.2981V28.8351H203.681C202.856 30.1736 201.938 31.4188 201.035 32.6795L198.857 32.8195V35.3409L207.946 34.8584V36.944H199.339V39.3876H207.946V41.7845H197.16V44.3682H210.265V32.2748Z" fill="white"/>
<defs>
<linearGradient id="paint0_linear_1051_1937" x1="64.3195" y1="30.7662" x2="81.8292" y2="30.7662" gradientUnits="userSpaceOnUse">
<stop stop-color="white"/>
<stop offset="0.6" stop-color="#009944"/>
<stop offset="1" stop-color="#009944"/>
</linearGradient>
</defs>
</svg>
