<svg width="167" height="63" viewBox="0 0 167 63" fill="none" xmlns="http://www.w3.org/2000/svg">
<path d="M166.424 0H0.443359V63H166.424V0Z" fill="#F18C31"/>
<path d="M124.441 25.2083C123.209 24.5344 121.853 24.118 120.455 23.9845C119.058 23.8509 117.648 24.003 116.31 24.4314C114.964 24.8446 113.712 25.5203 112.628 26.4196C111.544 27.3189 110.649 28.424 109.994 29.671C109.339 30.9181 108.938 32.2825 108.813 33.6855C108.688 35.0885 108.842 36.5023 109.266 37.8454C109.903 40.0763 111.269 42.029 113.148 43.3907C115.026 44.7523 117.307 45.4441 119.625 45.3552C120.695 45.3561 121.76 45.199 122.784 44.889C125.496 44.0425 127.76 42.1544 129.081 39.6394C130.402 37.1243 130.67 34.1879 129.828 31.475C129.408 30.1167 128.713 28.8594 127.787 27.7813C126.86 26.7031 125.721 25.8273 124.441 25.2083ZM114.083 36.3434C113.854 35.6281 113.772 34.8735 113.843 34.1256C113.915 33.3777 114.137 32.6521 114.497 31.9929C114.841 31.3182 115.316 30.7188 115.894 30.2297C116.472 29.7406 117.142 29.3717 117.864 29.1444C119.33 28.7071 120.908 28.8556 122.266 29.5587C122.935 29.916 123.526 30.4019 124.006 30.9886C124.486 31.5752 124.845 32.251 125.063 32.977C125.502 34.433 125.352 36.0034 124.645 37.3499C123.938 38.6964 122.73 39.7113 121.282 40.176C119.816 40.6079 118.24 40.4595 116.88 39.7617C116.192 39.4152 115.581 38.9341 115.083 38.3469C114.585 37.7597 114.209 37.0784 113.98 36.3434H114.083Z" fill="white"/>
<path d="M66.6407 23.9632C64.5042 23.8909 62.3947 24.459 60.5834 25.5945C58.7722 26.7301 57.342 28.3812 56.4762 30.3358C55.6104 32.2904 55.3485 34.4592 55.7245 36.5636C56.1005 38.668 57.0971 40.612 58.5862 42.1458C60.0754 43.6796 61.9891 44.7332 64.0815 45.1712C66.1739 45.6093 68.3495 45.4118 70.3288 44.6041C72.3081 43.7964 74.0007 42.4154 75.1893 40.6385C76.3779 38.8616 77.0081 36.77 76.999 34.6322C76.9872 31.8596 75.9018 29.1993 73.9704 27.21C72.039 25.2206 69.4118 24.0569 66.6407 23.9632ZM72.4414 34.6322C72.5035 35.7907 72.217 36.9412 71.6185 37.9351C71.0201 38.929 70.1372 39.7206 69.0843 40.2077C68.0313 40.6947 66.8566 40.8548 65.7117 40.6674C64.5668 40.4799 63.5045 39.9534 62.6618 39.1559C61.8192 38.3585 61.2351 37.3267 60.9849 36.1938C60.7347 35.061 60.8299 33.8791 61.2583 32.801C61.6867 31.7228 62.4288 30.7979 63.3883 30.1457C64.3477 29.4935 65.4806 29.144 66.6407 29.1423C68.0907 29.1921 69.4694 29.7834 70.5049 30.7997C71.5403 31.816 72.1574 33.1834 72.2343 34.6322H72.4414Z" fill="white"/>
<path d="M92.9519 23.9632C91.5422 23.9495 90.1435 24.2153 88.8371 24.7454C87.5307 25.2754 86.3423 26.0591 85.3406 27.0512C84.3389 28.0433 83.5437 29.2241 83.0011 30.5253C82.4585 31.8265 82.1791 33.2224 82.1792 34.6322V45.3531H87.3584V34.6322C87.3584 33.1075 87.9642 31.6453 89.0423 30.5672C90.1204 29.489 91.5824 28.8834 93.1071 28.8834C94.6318 28.8834 96.0942 29.489 97.1723 30.5672C98.2504 31.6453 98.8559 33.1075 98.8559 34.6322V45.3531H104.035V34.6322C104.029 33.1977 103.735 31.7789 103.171 30.4601C102.606 29.1412 101.783 27.949 100.749 26.9541C99.7159 25.9592 98.4934 25.1819 97.154 24.6681C95.8146 24.1544 94.3857 23.9146 92.9519 23.9632Z" fill="white"/>
<path d="M53.4867 23.9636C52.7811 23.8845 52.0687 23.8845 51.3631 23.9636C48.5424 23.9773 45.8419 25.1074 43.8523 27.1068C41.8626 29.1061 40.7458 31.812 40.7458 34.6327V45.3535H45.925V34.6327C45.9308 33.2107 46.4633 31.8413 47.4199 30.7891C48.3764 29.7369 49.6891 29.0765 51.1042 28.9356L53.4867 23.9636Z" fill="white"/>
<path d="M139.927 31.9385C139.94 31.0361 140.305 30.1744 140.943 29.5362C141.581 28.898 142.442 28.5336 143.345 28.5203C143.957 28.5177 144.559 28.6798 145.088 28.9896C145.616 29.2993 146.052 29.7454 146.349 30.2812C146.567 30.6821 146.757 31.0974 146.918 31.5241H152.098C151.673 30.336 151.171 29.1768 150.596 28.0541C149.817 26.3081 148.448 24.8922 146.729 24.0552C145.011 23.2181 143.052 23.0135 141.197 23.4772C139.342 23.9408 137.71 25.0432 136.588 26.5906C135.465 28.138 134.924 30.0315 135.058 31.9385C135.059 33.2414 135.375 34.5247 135.979 35.6791C136.584 36.8334 137.458 37.8245 138.528 38.5678C138.528 38.5678 138.528 38.5678 141.014 40.0698L143.345 35.9782L141.17 34.7352C140.762 34.3951 140.439 33.9661 140.223 33.4813C140.008 32.9965 139.906 32.4687 139.927 31.9385Z" fill="white"/>
<path d="M147.178 45.5072C147.184 46.2696 146.935 47.012 146.47 47.6165C146.006 48.221 145.352 48.6528 144.614 48.8433C143.876 49.0338 143.095 48.9721 142.396 48.6679C141.697 48.3637 141.12 47.8345 140.756 47.1645C140.536 46.7824 140.346 46.3842 140.186 45.9733H135.007C135.442 47.1575 135.943 48.316 136.509 49.4434C137.288 51.1963 138.661 52.6175 140.387 53.4558C142.112 54.2941 144.078 54.4956 145.937 54.0245C147.797 53.5535 149.429 52.4403 150.547 50.8817C151.665 49.3231 152.196 47.4195 152.047 45.5072C152.046 44.2043 151.73 42.921 151.125 41.7666C150.521 40.6123 149.647 39.6212 148.577 38.8779L146.091 37.4277L143.76 41.4675L145.883 42.7105C146.303 43.0427 146.639 43.4689 146.864 43.9546C147.089 44.4404 147.196 44.9722 147.178 45.5072Z" fill="white"/>
<path d="M20.3408 23.9609H15.4724V45.3508H20.3408V23.9609Z" fill="white"/>
<path d="M20.2881 9.30859H15.4197V21.1689H20.2881V9.30859Z" fill="white"/>
<path d="M31.5794 46.1291L24.7429 39.4997C23.519 38.2675 22.832 36.6012 22.832 34.8644C22.832 33.1276 23.519 31.4613 24.7429 30.2291L31.5794 23.3926L34.8942 26.7072L28.0577 33.5437C27.7368 33.9001 27.5533 34.3591 27.5399 34.8385C27.5456 35.3349 27.7292 35.8128 28.0577 36.1851L34.8942 43.0216L31.5794 46.1291Z" fill="white"/>
</svg>
