<svg width="262" height="61" viewBox="0 0 262 61" fill="none" xmlns="http://www.w3.org/2000/svg">
<path d="M85.9128 10.4556C86.0173 10.5946 86.0674 10.767 86.0536 10.9404C86.0444 11.1141 85.9756 11.2794 85.8589 11.4085L85.7885 11.4955C85.7357 11.5508 85.6708 11.593 85.5989 11.6189C85.527 11.6448 85.4501 11.6536 85.3742 11.6447C85.3011 11.6388 85.2304 11.6159 85.1678 11.5778C85.1052 11.5397 85.0524 11.4874 85.0137 11.4251C84.3529 10.5223 83.6155 9.67818 82.8097 8.90204C82.7724 8.86889 82.7434 8.87304 82.7186 8.92275C82.1369 9.99741 81.4425 11.0071 80.6471 11.9347C80.6431 11.9416 80.641 11.9495 80.641 11.9575C80.641 11.9655 80.6431 11.9733 80.6471 11.9802C80.6512 11.9885 80.6578 11.9954 80.666 11.9998C80.6741 12.0042 80.6834 12.0061 80.6926 12.0051H84.8356C84.9125 12.0046 84.9887 12.0193 85.0598 12.0484C85.1309 12.0776 85.1955 12.1206 85.2499 12.175C85.307 12.2274 85.3521 12.2916 85.3822 12.3631C85.4122 12.4346 85.4264 12.5118 85.4239 12.5893C85.4259 12.6667 85.4114 12.7437 85.3814 12.8151C85.3514 12.8865 85.3066 12.9508 85.2499 13.0036C85.1955 13.0575 85.1308 13.1 85.0596 13.1285C84.9884 13.157 84.9122 13.1708 84.8356 13.1693H83.3566C83.3068 13.1693 83.2861 13.1983 83.2861 13.2563V14.9839C83.2861 15.046 83.3068 15.075 83.3566 15.075H85.2416C85.3183 15.0727 85.3947 15.0863 85.466 15.1148C85.5373 15.1433 85.6019 15.1862 85.6559 15.2408C85.7103 15.2949 85.753 15.3596 85.7815 15.4308C85.81 15.502 85.8237 15.5783 85.8216 15.655C85.8233 15.7317 85.8095 15.8079 85.7809 15.879C85.7524 15.9501 85.7097 16.0148 85.6555 16.069C85.6013 16.1232 85.5367 16.1658 85.4656 16.1944C85.3944 16.2229 85.3182 16.2368 85.2416 16.2351H83.3566C83.3068 16.2351 83.2861 16.2682 83.2861 16.3262V21.4925C83.2861 21.5505 83.3068 21.5753 83.3566 21.5629L85.5233 21.1735C85.5961 21.16 85.6709 21.1627 85.7424 21.1813C85.814 21.1999 85.8807 21.234 85.9376 21.2812C85.9938 21.3247 86.0391 21.3806 86.07 21.4446C86.1009 21.5086 86.1166 21.5789 86.1158 21.6499C86.1246 21.7983 86.0805 21.9451 85.9915 22.0642C85.8994 22.195 85.7595 22.2843 85.602 22.3128C84.2708 22.589 82.4023 22.948 79.9966 23.3899C79.8327 23.4122 79.6662 23.3739 79.5285 23.2822C79.3863 23.1935 79.2828 23.0544 79.2385 22.8928C79.2136 22.8166 79.2069 22.7357 79.2192 22.6565C79.2314 22.5773 79.2622 22.5021 79.3089 22.4371C79.3519 22.3699 79.4091 22.3129 79.4763 22.27C79.5435 22.2271 79.6193 22.1993 79.6983 22.1885C80.1541 22.1167 80.9357 21.9882 82.0432 21.8032C82.0659 21.7965 82.0853 21.782 82.0982 21.7623C82.1111 21.7425 82.1166 21.7189 82.1137 21.6955V16.3096C82.1137 16.2516 82.0888 16.2185 82.0432 16.2185H79.9179C79.7633 16.2202 79.6143 16.1607 79.5036 16.0528C79.4457 16.0007 79.3999 15.9367 79.3691 15.8652C79.3383 15.7936 79.3235 15.7163 79.3255 15.6385C79.324 15.5607 79.3391 15.4836 79.3698 15.4121C79.4006 15.3407 79.4462 15.2766 79.5036 15.2242C79.6143 15.1163 79.7633 15.0567 79.9179 15.0585H82.035C82.0805 15.0585 82.1054 15.0295 82.1054 14.9673V13.2397C82.1054 13.1817 82.0805 13.1527 82.035 13.1527H80.6926C80.5435 13.1516 80.4009 13.0919 80.2954 12.9865C80.19 12.881 80.1303 12.7384 80.1292 12.5893C80.1292 12.5893 80.1292 12.5644 80.0753 12.552L80.0215 12.6058C79.9702 12.6631 79.9055 12.7066 79.8332 12.7327C79.7608 12.7587 79.6832 12.7664 79.6072 12.755C79.4493 12.7387 79.3024 12.6668 79.1929 12.552C79.1376 12.4981 79.0937 12.4337 79.0638 12.3625C79.0339 12.2913 79.0186 12.2149 79.0189 12.1377C79.0176 12.0661 79.0308 11.9951 79.0579 11.9288C79.085 11.8626 79.1253 11.8025 79.1763 11.7524C80.2393 10.7058 81.1051 9.4765 81.7325 8.12316C81.8003 7.95974 81.9154 7.82033 82.0631 7.72287C82.2108 7.62542 82.3842 7.57437 82.5611 7.57629C82.7507 7.57382 82.9388 7.60919 83.1145 7.68033C83.2902 7.75147 83.45 7.85695 83.5844 7.99059C84.4218 8.75212 85.2002 9.57618 85.9128 10.4556ZM79.7936 17.9502C79.7886 17.909 79.7886 17.8672 79.7936 17.826C79.7922 17.7467 79.8107 17.6683 79.8475 17.5981C79.8793 17.5416 79.9221 17.4919 79.9733 17.4521C80.0245 17.4123 80.0831 17.383 80.1458 17.3661C80.2722 17.3428 80.4027 17.3648 80.5145 17.4282C80.6303 17.491 80.7188 17.5942 80.7631 17.7182C81.0035 18.4795 81.1863 19.2578 81.3099 20.0466C81.3334 20.1912 81.3008 20.3394 81.2188 20.4609C81.1827 20.5221 81.1348 20.5756 81.0779 20.6183C81.0211 20.661 80.9563 20.6919 80.8874 20.7094C80.8242 20.732 80.7565 20.7389 80.6902 20.7295C80.6238 20.7201 80.5606 20.6947 80.5062 20.6556C80.4538 20.6192 80.41 20.5717 80.3778 20.5166C80.3456 20.4616 80.3258 20.4001 80.3198 20.3366C80.2074 19.5285 80.0315 18.7306 79.7936 17.9502ZM84.8895 20.204C84.874 20.2614 84.8464 20.3147 84.8085 20.3605C84.7706 20.4062 84.7233 20.4433 84.6699 20.4692C84.618 20.4984 84.5604 20.5162 84.5011 20.5212C84.4418 20.5262 84.382 20.5183 84.326 20.4982C84.2687 20.4788 84.2158 20.4484 84.1703 20.4086C84.1248 20.3687 84.0876 20.3204 84.0609 20.2662C84.0031 20.1551 83.9898 20.0262 84.0236 19.9057C84.2473 19.1186 84.4365 18.3493 84.5912 17.5981C84.5991 17.5268 84.6239 17.4584 84.6635 17.3986C84.7032 17.3388 84.7565 17.2893 84.819 17.2542C84.8799 17.2152 84.9489 17.1907 85.0208 17.1828C85.0927 17.1749 85.1654 17.1837 85.2333 17.2087C85.3053 17.2281 85.3725 17.2625 85.4303 17.3096C85.4881 17.3567 85.5353 17.4155 85.5689 17.4821C85.6345 17.6097 85.6535 17.7562 85.6228 17.8964C85.2278 19.1558 84.9834 19.9251 84.8895 20.204ZM94.4182 16.7156C94.5007 16.714 94.5826 16.7293 94.6589 16.7607C94.7351 16.792 94.8041 16.8388 94.8615 16.8979C94.977 17.0195 95.0395 17.1819 95.0355 17.3495V21.3143C95.047 21.5624 95.0147 21.8107 94.9403 22.0476C94.8676 22.2274 94.7322 22.3746 94.5591 22.4619C94.1469 22.6079 93.712 22.6795 93.2748 22.6732C93.1015 22.6753 92.9329 22.6167 92.7984 22.5075C92.6608 22.4004 92.556 22.2569 92.4959 22.0932C92.4727 22.0295 92.4654 21.961 92.4748 21.8938C92.4842 21.8267 92.5099 21.7628 92.5498 21.7079C92.5874 21.6536 92.6376 21.6091 92.6959 21.5781C92.7543 21.5471 92.8193 21.5305 92.8854 21.5298H93.6104C93.6741 21.5378 93.7386 21.5231 93.7927 21.4883C93.8284 21.4393 93.8446 21.3788 93.8382 21.3185V17.9502C93.8382 17.9005 93.8092 17.8798 93.7512 17.8798H91.3525C91.2903 17.8798 91.2613 17.9005 91.2613 17.9502V23.3982C91.2632 23.4806 91.2488 23.5625 91.2189 23.6393C91.1891 23.7161 91.1444 23.7862 91.0873 23.8457C91.0307 23.9062 90.962 23.9541 90.8856 23.9862C90.8092 24.0184 90.7269 24.034 90.644 24.0321C90.5618 24.0339 90.4801 24.0183 90.4044 23.9861C90.3287 23.954 90.2607 23.9061 90.2049 23.8457C90.0885 23.726 90.0245 23.5651 90.0267 23.3982V17.9502C90.0267 17.9005 89.9977 17.8798 89.9397 17.8798H87.773C87.7232 17.8798 87.7025 17.9005 87.7025 17.9502V22.0393C87.7024 22.1176 87.6858 22.195 87.6536 22.2664C87.6215 22.3378 87.5746 22.4016 87.5161 22.4536C87.4064 22.5646 87.2578 22.6285 87.1018 22.6318C86.9425 22.6318 86.7897 22.5685 86.677 22.4558C86.5644 22.3432 86.5011 22.1904 86.5011 22.0311V17.3495C86.4995 17.2655 86.5153 17.182 86.5474 17.1044C86.5794 17.0267 86.6271 16.9564 86.6875 16.8979C86.7965 16.7855 86.9452 16.7201 87.1018 16.7156H89.9397C89.9977 16.7156 90.0267 16.6908 90.0267 16.6452V15.4272C90.028 15.4154 90.0267 15.4035 90.0228 15.3924C90.0189 15.3812 90.0125 15.3711 90.0041 15.3627C89.9958 15.3544 89.9857 15.348 89.9745 15.3441C89.9634 15.3402 89.9515 15.3389 89.9397 15.3402H87.4001C87.3167 15.3416 87.2339 15.3258 87.1569 15.2937C87.0799 15.2617 87.0103 15.214 86.9526 15.1538C86.8957 15.1005 86.8498 15.0365 86.8178 14.9653C86.7858 14.8942 86.7683 14.8174 86.7662 14.7395V9.8922C86.7647 9.80817 86.7804 9.72473 86.8125 9.64704C86.8446 9.56936 86.8923 9.4991 86.9526 9.44062C87.0105 9.38092 87.0802 9.33389 87.1572 9.30251C87.2342 9.27113 87.317 9.25609 87.4001 9.25833H89.5876C89.6104 9.25802 89.6326 9.25123 89.6516 9.23876C89.6707 9.22628 89.6859 9.20865 89.6953 9.1879C89.8113 8.77361 89.9107 8.42974 89.9936 8.11073C90.0362 7.95059 90.1365 7.81188 90.2753 7.7213C90.377 7.64499 90.5003 7.60292 90.6274 7.60115C90.6686 7.59427 90.7106 7.59427 90.7517 7.60115H90.9465C91.0197 7.6173 91.0888 7.64847 91.1494 7.69268C91.2101 7.73689 91.2608 7.79318 91.2986 7.85801C91.336 7.91974 91.3584 7.98932 91.3642 8.06124C91.3699 8.13316 91.3588 8.20543 91.3317 8.27231C91.1909 8.61203 91.0707 8.90204 90.963 9.13819C90.9382 9.18376 90.963 9.20862 90.9962 9.20862H94.0992C94.183 9.20751 94.2661 9.22312 94.3437 9.25453C94.4214 9.28595 94.492 9.33253 94.5514 9.39156C94.6108 9.45058 94.6578 9.52087 94.6897 9.59829C94.7217 9.67572 94.7378 9.75874 94.7373 9.84249V14.7229C94.7352 14.8009 94.7176 14.8776 94.6856 14.9488C94.6536 15.0199 94.6078 15.0839 94.5508 15.1372C94.4923 15.1975 94.4221 15.2452 94.3444 15.2773C94.2667 15.3094 94.1833 15.3251 94.0992 15.3236H91.3525C91.2903 15.3236 91.2613 15.3526 91.2613 15.4106V16.6286C91.2613 16.6742 91.2903 16.6991 91.3525 16.6991L94.4182 16.7156ZM88.0381 10.3148C88.0285 10.3134 88.0188 10.3143 88.0096 10.3173C88.0004 10.3204 87.9921 10.3255 87.9852 10.3323C87.9784 10.3392 87.9732 10.3475 87.9702 10.3567C87.9671 10.3659 87.9663 10.3756 87.9677 10.3852V11.7234C87.9677 11.7855 87.9884 11.8145 88.0381 11.8145H93.3618C93.4074 11.8145 93.4322 11.7855 93.4322 11.7234V10.3852C93.4336 10.3756 93.4327 10.3659 93.4297 10.3567C93.4267 10.3475 93.4215 10.3392 93.4147 10.3323C93.4078 10.3255 93.3995 10.3204 93.3903 10.3173C93.3811 10.3143 93.3714 10.3134 93.3618 10.3148H88.0381ZM88.0381 12.8006C87.9884 12.8006 87.9677 12.8213 87.9677 12.871V14.2257C87.9677 14.2879 87.9884 14.3169 88.0381 14.3169H93.3618C93.4074 14.3169 93.4322 14.2879 93.4322 14.2257V12.8544C93.4336 12.8448 93.4327 12.8351 93.4297 12.8259C93.4267 12.8167 93.4215 12.8084 93.4147 12.8015C93.4078 12.7947 93.3995 12.7896 93.3903 12.7865C93.3811 12.7835 93.3714 12.7826 93.3618 12.784L88.0381 12.8006Z" fill="#9E9E9F"/>
<path d="M103.669 18.7428C103.67 18.8265 103.654 18.9096 103.622 18.987C103.59 19.0644 103.543 19.1347 103.483 19.1937C103.424 19.2528 103.353 19.2993 103.276 19.3307C103.198 19.3622 103.115 19.3778 103.031 19.3767H99.1161C99.1066 19.3753 99.0968 19.3761 99.0876 19.3792C99.0784 19.3822 99.0701 19.3874 99.0633 19.3942C99.0564 19.4011 99.0513 19.4094 99.0482 19.4186C99.0452 19.4278 99.0443 19.4375 99.0457 19.4471V20.4C99.0475 20.4851 99.0318 20.5697 98.9995 20.6485C98.9672 20.7274 98.9191 20.7987 98.8581 20.8581C98.7971 20.9176 98.7246 20.9639 98.6449 20.9941C98.5653 21.0243 98.4803 21.0378 98.3953 21.0338C98.3175 21.033 98.2407 21.0164 98.1695 20.9851C98.0982 20.9538 98.0341 20.9083 97.981 20.8516C97.9206 20.7931 97.8729 20.7228 97.8408 20.6451C97.8088 20.5675 97.793 20.484 97.7945 20.4V9.30929C97.7933 9.22592 97.8092 9.14319 97.8413 9.06623C97.8734 8.98926 97.9209 8.9197 97.981 8.86186C98.0339 8.8045 98.0979 8.75842 98.1691 8.72639C98.2403 8.69435 98.3172 8.67702 98.3953 8.67542H103.031C103.115 8.67389 103.199 8.68965 103.276 8.72172C103.354 8.75379 103.424 8.80149 103.483 8.86186C103.542 8.92028 103.589 8.98995 103.621 9.06678C103.653 9.14362 103.669 9.22606 103.669 9.30929V18.7428ZM102.426 9.98045C102.426 9.92245 102.401 9.89345 102.356 9.89345H99.1286C99.083 9.89345 99.0581 9.92245 99.0581 9.98045V13.2244C99.0581 13.2824 99.083 13.3114 99.1286 13.3114H102.356C102.401 13.3114 102.426 13.2824 102.426 13.2244V9.98045ZM99.0581 18.0385C99.0581 18.0965 99.083 18.1255 99.1286 18.1255H102.356C102.401 18.1255 102.426 18.0965 102.426 18.0385V14.6164C102.426 14.5584 102.401 14.5294 102.356 14.5294H99.1286C99.083 14.5294 99.0581 14.5584 99.0581 14.6164V18.0385ZM112.353 8.33984C112.51 8.34492 112.659 8.41192 112.767 8.52628C112.879 8.63558 112.945 8.78409 112.949 8.94057V22.2684C112.967 22.6094 112.911 22.9501 112.784 23.2669C112.659 23.5047 112.446 23.6846 112.191 23.7682C111.38 23.9766 110.542 24.0604 109.706 24.0168C109.53 24.0153 109.359 23.9556 109.221 23.8469C109.079 23.7428 108.972 23.5984 108.914 23.4326C108.902 23.3837 108.884 23.3365 108.86 23.2918C108.836 23.2314 108.827 23.1661 108.832 23.1014C108.838 23.0366 108.859 22.9741 108.893 22.9189C108.924 22.864 108.969 22.8186 109.024 22.7879C109.079 22.7572 109.141 22.7423 109.204 22.7449H111.189C111.319 22.7486 111.446 22.7077 111.549 22.6289C111.625 22.5313 111.659 22.4077 111.644 22.285V18.3906C111.644 18.3326 111.624 18.3036 111.574 18.3036H106.416C106.404 18.3023 106.392 18.3037 106.381 18.3076C106.37 18.3115 106.36 18.3178 106.352 18.3262C106.343 18.3346 106.337 18.3447 106.333 18.3559C106.329 18.367 106.328 18.3789 106.329 18.3906C106.007 20.4592 104.993 22.3577 103.454 23.7765C103.395 23.8328 103.324 23.8759 103.247 23.903C103.17 23.9302 103.088 23.9407 103.006 23.9339C102.834 23.9254 102.672 23.8495 102.555 23.7226C102.523 23.7025 102.494 23.6789 102.468 23.6522C102.409 23.6008 102.362 23.537 102.332 23.4653C102.301 23.3936 102.286 23.3159 102.29 23.2379C102.29 23.1646 102.306 23.0922 102.336 23.0256C102.367 22.9591 102.412 22.9001 102.468 22.8526C103.408 22.0037 104.14 20.9507 104.61 19.7744C104.81 19.2197 104.961 18.6485 105.061 18.0675C105.169 17.5118 105.242 16.9501 105.281 16.3855C105.31 15.8924 105.326 15.3373 105.326 14.7283V8.953C105.328 8.87533 105.345 8.79873 105.376 8.72762C105.407 8.65651 105.452 8.59231 105.509 8.53871C105.567 8.47834 105.637 8.43064 105.715 8.39857C105.793 8.3665 105.876 8.35074 105.96 8.35227L112.353 8.33984ZM106.553 16.9986C106.553 17.0566 106.578 17.0856 106.623 17.0856H111.595C111.644 17.0856 111.665 17.0566 111.665 16.9986V13.9991C111.665 13.9411 111.644 13.9121 111.595 13.9121H106.681C106.636 13.9121 106.611 13.9411 106.611 13.9991V14.7241C106.623 15.4833 106.594 16.2426 106.524 16.9986H106.553ZM111.653 9.68216C111.653 9.63244 111.632 9.61173 111.582 9.61173H106.681C106.672 9.61034 106.662 9.6112 106.653 9.61425C106.643 9.6173 106.635 9.62245 106.628 9.62929C106.621 9.63613 106.616 9.64447 106.613 9.65365C106.61 9.66282 106.609 9.67259 106.611 9.68216V12.6071C106.611 12.6651 106.636 12.6941 106.681 12.6941H111.566C111.615 12.6941 111.636 12.6651 111.636 12.6071L111.653 9.68216Z" fill="#9E9E9F"/>
<path d="M118.547 14.9897C118.468 14.9935 118.389 14.9785 118.317 14.9461C118.245 14.9137 118.182 14.8648 118.132 14.8033C118.083 14.7474 118.046 14.6814 118.024 14.6099C118.003 14.5383 117.997 14.4629 118.008 14.389L118.112 13.4693C118.112 13.4237 118.112 13.3988 118.062 13.3988H115.945C115.81 13.3988 115.68 13.3451 115.585 13.2496C115.489 13.154 115.435 13.0244 115.435 12.8893C115.435 12.7541 115.489 12.6245 115.585 12.5289C115.68 12.4334 115.81 12.3797 115.945 12.3797H118.182C118.204 12.3809 118.225 12.374 118.242 12.3601C118.259 12.3463 118.27 12.3267 118.273 12.3051L118.377 11.4434C118.402 11.2738 118.487 11.1188 118.616 11.0057C118.745 10.8927 118.91 10.8291 119.081 10.8261H128.113C128.191 10.8251 128.269 10.8413 128.341 10.8735C128.412 10.9057 128.476 10.9531 128.527 11.0125C128.58 11.0735 128.621 11.1445 128.646 11.2213C128.672 11.2981 128.682 11.3792 128.676 11.4599L128.606 12.2885C128.606 12.3382 128.626 12.3631 128.676 12.3631H130.81C130.945 12.3631 131.075 12.4168 131.17 12.5124C131.266 12.6079 131.319 12.7375 131.319 12.8727C131.319 13.0078 131.266 13.1374 131.17 13.233C131.075 13.3286 130.945 13.3823 130.81 13.3823H128.597C128.577 13.381 128.556 13.3875 128.54 13.4006C128.524 13.4136 128.514 13.4322 128.51 13.4527L128.44 14.3393C128.429 14.5128 128.35 14.675 128.22 14.7909C128.095 14.9115 127.927 14.9783 127.752 14.9773L118.547 14.9897ZM128.581 15.7479C128.663 15.7462 128.745 15.761 128.822 15.7912C128.898 15.8214 128.968 15.8666 129.027 15.924C129.086 15.9814 129.133 16.05 129.165 16.1257C129.197 16.2015 129.214 16.2829 129.215 16.3652V20.823C129.216 20.9055 129.201 20.9874 129.17 21.0636C129.138 21.1399 129.092 21.2089 129.032 21.2663C128.911 21.3817 128.748 21.4443 128.581 21.4403H121.124C121.12 21.451 121.12 21.4627 121.124 21.4735L121.563 21.7552C121.622 21.7886 121.67 21.8376 121.703 21.8968C121.736 21.956 121.752 22.0231 121.749 22.0908C121.75 22.1558 121.733 22.2198 121.7 22.276C121.667 22.3321 121.62 22.3784 121.563 22.4098C120.008 23.1534 118.359 23.6803 116.662 23.9758C116.591 23.9808 116.521 23.9808 116.45 23.9758C116.3 23.9755 116.151 23.9401 116.017 23.8725C115.883 23.8049 115.766 23.707 115.676 23.5864C115.62 23.5234 115.589 23.4425 115.589 23.3585C115.588 23.2781 115.615 23.2 115.667 23.1384C115.719 23.0768 115.791 23.0358 115.87 23.0229C116.835 22.8472 117.788 22.6148 118.725 22.3269C119.471 22.1131 120.192 21.82 120.875 21.4527C120.875 21.4527 120.875 21.4279 120.875 21.4196C120.871 21.4174 120.867 21.4163 120.863 21.4163C120.858 21.4163 120.854 21.4174 120.85 21.4196H118.282C118.115 21.4225 117.955 21.36 117.834 21.2456C117.774 21.189 117.726 21.1203 117.693 21.0439C117.661 20.9675 117.646 20.8851 117.648 20.8023V16.3652C117.653 16.2079 117.72 16.059 117.834 15.9509C117.89 15.8876 117.959 15.8369 118.036 15.8019C118.113 15.7669 118.197 15.7485 118.282 15.7479H128.581ZM117.175 9.94776C117.126 9.94776 117.105 9.97676 117.105 10.0348V11.1119C117.104 11.1901 117.087 11.2673 117.055 11.3385C117.023 11.4098 116.976 11.4737 116.918 11.5262C116.86 11.5829 116.79 11.6275 116.714 11.6574C116.638 11.6872 116.557 11.7018 116.475 11.7002C116.396 11.7019 116.317 11.6877 116.244 11.6584C116.17 11.6291 116.103 11.5853 116.047 11.5297C115.99 11.4741 115.946 11.4077 115.915 11.3345C115.885 11.2614 115.87 11.1828 115.87 11.1036V9.50446C115.869 9.42264 115.884 9.34138 115.915 9.2658C115.947 9.19021 115.994 9.12195 116.053 9.06531C116.112 9.00683 116.183 8.96092 116.26 8.93032C116.338 8.89971 116.421 8.88504 116.504 8.88716H122.603C122.652 8.88716 122.673 8.85816 122.673 8.80016V8.18286C122.675 8.10481 122.692 8.02789 122.724 7.9567C122.756 7.88551 122.802 7.82152 122.859 7.76857C122.918 7.7082 122.988 7.6605 123.066 7.62843C123.144 7.59636 123.227 7.5806 123.311 7.58213H123.361C123.445 7.5806 123.528 7.59636 123.606 7.62843C123.684 7.6605 123.754 7.7082 123.812 7.76857C123.87 7.82152 123.916 7.88551 123.948 7.9567C123.98 8.02789 123.997 8.10481 123.999 8.18286V8.80016C123.999 8.85816 124.019 8.88716 124.069 8.88716H130.284C130.44 8.89049 130.588 8.95438 130.698 9.06531C130.758 9.1211 130.806 9.18912 130.838 9.26483C130.871 9.34054 130.886 9.42223 130.884 9.50446V11.1078C130.886 11.1906 130.871 11.273 130.839 11.3494C130.806 11.4257 130.758 11.4945 130.698 11.5511C130.587 11.6594 130.439 11.7216 130.284 11.7251H130.263C130.097 11.728 129.936 11.6655 129.815 11.5511C129.755 11.4945 129.707 11.4257 129.675 11.3494C129.643 11.273 129.627 11.1906 129.629 11.1078V10.0513C129.629 9.99333 129.608 9.96433 129.559 9.96433L117.175 9.94776ZM127.81 17.3678C127.856 17.3678 127.881 17.3388 127.881 17.2808V16.6469C127.882 16.6373 127.881 16.6276 127.878 16.6184C127.875 16.6092 127.87 16.6009 127.863 16.594C127.856 16.5872 127.848 16.5821 127.839 16.579C127.83 16.576 127.82 16.5751 127.81 16.5765H119.027C118.969 16.5765 118.94 16.5972 118.94 16.6469V17.2808C118.939 17.2925 118.94 17.3044 118.944 17.3156C118.948 17.3267 118.954 17.3369 118.963 17.3452C118.971 17.3536 118.981 17.3599 118.992 17.3639C119.004 17.3678 119.015 17.3691 119.027 17.3678H127.81ZM127.81 18.9918C127.82 18.9932 127.83 18.9924 127.839 18.9893C127.848 18.9863 127.856 18.9811 127.863 18.9743C127.87 18.9674 127.875 18.9591 127.878 18.9499C127.881 18.9407 127.882 18.931 127.881 18.9214V18.2337C127.882 18.2241 127.881 18.2143 127.878 18.2051C127.875 18.196 127.87 18.1876 127.863 18.1808C127.856 18.174 127.848 18.1688 127.839 18.1658C127.83 18.1627 127.82 18.1618 127.81 18.1632H119.027C118.969 18.1632 118.94 18.1839 118.94 18.2337V18.9214C118.94 18.967 118.969 18.9918 119.027 18.9918H127.81ZM127.81 20.6117C127.82 20.6131 127.83 20.6122 127.839 20.6092C127.848 20.6061 127.856 20.601 127.863 20.5942C127.87 20.5873 127.875 20.579 127.878 20.5698C127.881 20.5606 127.882 20.5509 127.881 20.5413V19.8743C127.881 19.8121 127.856 19.7831 127.81 19.7831H119.027C118.969 19.7831 118.94 19.8121 118.94 19.8743V20.5537C118.94 20.6034 118.969 20.6241 119.027 20.6241L127.81 20.6117ZM119.429 13.2953C119.408 13.294 119.388 13.3005 119.372 13.3136C119.356 13.3266 119.345 13.3452 119.342 13.3657L119.255 14.0907C119.255 14.1487 119.255 14.1777 119.326 14.1777H122.424C122.436 14.179 122.448 14.1777 122.459 14.1738C122.47 14.1699 122.481 14.1635 122.489 14.1551C122.497 14.1468 122.504 14.1367 122.508 14.1255C122.511 14.1143 122.513 14.1025 122.511 14.0907C122.536 13.925 122.565 13.6764 122.598 13.3657C122.598 13.3201 122.598 13.2953 122.528 13.2953H119.429ZM122.764 11.6919C122.764 11.6339 122.739 11.6049 122.694 11.6049H119.64C119.596 11.6049 119.567 11.6339 119.553 11.6919L119.466 12.3797C119.465 12.3892 119.466 12.399 119.469 12.4082C119.472 12.4174 119.477 12.4257 119.484 12.4325C119.491 12.4394 119.499 12.4445 119.508 12.4476C119.517 12.4506 119.527 12.4515 119.537 12.4501H122.623C122.633 12.4515 122.643 12.4506 122.652 12.4476C122.661 12.4445 122.669 12.4394 122.676 12.4325C122.683 12.4257 122.688 12.4174 122.691 12.4082C122.694 12.399 122.695 12.3892 122.694 12.3797C122.694 12.2968 122.714 12.1808 122.727 12.0275C122.739 11.8742 122.752 11.7624 122.764 11.6919ZM123.642 14.0907C123.642 14.1487 123.642 14.1777 123.717 14.1777H127.152C127.201 14.1777 127.23 14.1487 127.243 14.0907L127.297 13.3657C127.298 13.3561 127.297 13.3464 127.294 13.3372C127.291 13.328 127.286 13.3197 127.279 13.3128C127.272 13.306 127.264 13.3008 127.255 13.2978C127.245 13.2947 127.236 13.2939 127.226 13.2953H123.804C123.794 13.2941 123.783 13.295 123.773 13.298C123.763 13.3009 123.754 13.3058 123.746 13.3123C123.738 13.3189 123.731 13.327 123.726 13.3361C123.721 13.3453 123.718 13.3553 123.717 13.3657C123.705 13.577 123.667 13.8173 123.642 14.0907ZM127.276 12.4335C127.286 12.4347 127.297 12.4338 127.307 12.4308C127.317 12.4279 127.326 12.423 127.334 12.4165C127.342 12.4099 127.349 12.4018 127.354 12.3927C127.359 12.3835 127.362 12.3735 127.363 12.3631L127.417 11.6754C127.417 11.6174 127.396 11.5884 127.346 11.5884H123.945C123.895 11.5884 123.866 11.6174 123.858 11.6754L123.821 12.3631C123.819 12.3727 123.82 12.3824 123.823 12.3916C123.826 12.4008 123.831 12.4091 123.838 12.416C123.845 12.4228 123.853 12.428 123.863 12.431C123.872 12.4341 123.881 12.4349 123.891 12.4335H127.276ZM125.088 22.3766C125.019 22.3592 124.958 22.3175 124.916 22.259C124.874 22.2006 124.854 22.1292 124.861 22.0576C124.86 22.0122 124.872 21.9676 124.893 21.9277C124.915 21.8879 124.947 21.8542 124.985 21.8297C125.172 21.6565 125.418 21.5616 125.673 21.5646C125.779 21.5659 125.884 21.5784 125.987 21.6019C127.81 22.1156 129.415 22.6031 130.802 23.0643C130.869 23.0843 130.926 23.1272 130.965 23.1855C131.004 23.2438 131.021 23.3138 131.013 23.3834C131.014 23.4331 131.001 23.4821 130.976 23.5251C130.952 23.5682 130.915 23.6037 130.872 23.6278L130.752 23.7148C130.561 23.8522 130.332 23.9261 130.097 23.9261C129.947 23.9239 129.798 23.8944 129.658 23.8391C128.341 23.3585 126.817 22.871 125.088 22.3766Z" fill="#9E9E9F"/>
<path d="M149.122 18.8049C149.225 18.9116 149.283 19.0542 149.283 19.2026C149.283 19.3511 149.225 19.4937 149.122 19.6004C149.069 19.6567 149.004 19.7007 148.933 19.7293C148.861 19.758 148.784 19.7705 148.707 19.7661H143.375C143.366 19.7626 143.356 19.7626 143.346 19.7661C143.343 19.7718 143.341 19.7782 143.341 19.7847C143.341 19.7913 143.343 19.7977 143.346 19.8034C144.166 20.4331 145.057 20.963 146.002 21.3818C147.012 21.8439 148.061 22.2128 149.138 22.4839C149.199 22.4978 149.254 22.5285 149.298 22.5725C149.342 22.6164 149.373 22.6719 149.387 22.7324C149.394 22.7736 149.394 22.8156 149.387 22.8567C149.386 22.9407 149.355 23.0216 149.3 23.0846C149.254 23.155 149.204 23.2213 149.159 23.2793C149.053 23.4257 148.91 23.5414 148.745 23.6149C148.582 23.679 148.401 23.679 148.239 23.6149C147.077 23.2454 145.955 22.7581 144.892 22.1607C143.885 21.609 142.948 20.937 142.103 20.1597C142.103 20.1597 142.083 20.1597 142.07 20.1597C142.068 20.1632 142.066 20.1676 142.066 20.1721C142.066 20.1766 142.068 20.1809 142.07 20.1845V23.4119C142.072 23.4959 142.056 23.5794 142.024 23.657C141.992 23.7347 141.944 23.805 141.884 23.8635C141.825 23.9225 141.754 23.969 141.677 24.0004C141.599 24.0317 141.516 24.0471 141.432 24.0458H141.383C141.299 24.0471 141.216 24.0317 141.138 24.0004C141.061 23.969 140.99 23.9225 140.931 23.8635C140.871 23.805 140.823 23.7347 140.791 23.657C140.759 23.5794 140.743 23.4959 140.745 23.4119V20.2757C140.746 20.2718 140.747 20.2675 140.747 20.2632C140.747 20.2589 140.746 20.2547 140.745 20.2508C140.74 20.2467 140.734 20.2445 140.728 20.2445C140.722 20.2445 140.716 20.2467 140.711 20.2508C139.858 20.9849 138.926 21.6213 137.931 22.1483C136.873 22.7215 135.763 23.1959 134.617 23.5652C134.453 23.6272 134.272 23.6272 134.108 23.5652C133.937 23.5042 133.792 23.3892 133.693 23.2379L133.569 23.097C133.515 23.027 133.484 22.9413 133.482 22.8526C133.482 22.809 133.493 22.7662 133.515 22.7283C133.529 22.6634 133.562 22.6039 133.609 22.557C133.656 22.51 133.715 22.4774 133.78 22.4631C134.838 22.1863 135.868 21.8147 136.858 21.3528C137.783 20.9367 138.661 20.4229 139.477 19.8199C139.481 19.8144 139.483 19.8079 139.483 19.8013C139.483 19.7946 139.481 19.7882 139.477 19.7827C139.477 19.7827 139.477 19.7827 139.452 19.7827H134.17C134.02 19.7827 133.877 19.7233 133.771 19.6176C133.666 19.512 133.606 19.3686 133.606 19.2192C133.606 19.0698 133.666 18.9265 133.771 18.8208C133.877 18.7151 134.02 18.6558 134.17 18.6558H140.653C140.703 18.6558 140.724 18.6268 140.724 18.5646V17.3673C140.725 17.3577 140.724 17.348 140.721 17.3388C140.718 17.3296 140.713 17.3213 140.706 17.3144C140.699 17.3076 140.691 17.3025 140.682 17.2994C140.673 17.2964 140.663 17.2955 140.653 17.2969H135.806C135.671 17.2969 135.541 17.2432 135.446 17.1476C135.35 17.0521 135.297 16.9225 135.297 16.7873C135.296 16.6483 135.349 16.5146 135.446 16.4144C135.491 16.3645 135.547 16.3246 135.609 16.2975C135.671 16.2704 135.738 16.2566 135.806 16.257H140.653C140.703 16.257 140.724 16.2363 140.724 16.1866V15.0224C140.725 15.0128 140.724 15.0031 140.721 14.9939C140.718 14.9847 140.713 14.9764 140.706 14.9695C140.699 14.9627 140.691 14.9575 140.682 14.9545C140.673 14.9514 140.663 14.9506 140.653 14.952H134.944C134.872 14.9533 134.8 14.9392 134.734 14.9106C134.667 14.882 134.608 14.8396 134.559 14.7863C134.508 14.7352 134.468 14.6744 134.441 14.6075C134.414 14.5406 134.4 14.469 134.402 14.3968C134.401 14.3247 134.414 14.2531 134.441 14.1862C134.468 14.1194 134.508 14.0586 134.559 14.0074C134.608 13.9546 134.668 13.9126 134.734 13.8841C134.801 13.8556 134.872 13.8411 134.944 13.8417H138.259C138.321 13.8417 138.342 13.8168 138.329 13.7712C138.179 13.341 137.99 12.925 137.766 12.5283C137.732 12.472 137.712 12.4084 137.708 12.3428C137.704 12.2773 137.715 12.2116 137.741 12.1513C137.764 12.0913 137.804 12.0388 137.855 11.9994C137.906 11.96 137.967 11.9352 138.031 11.9276H134.257C134.179 11.9304 134.102 11.9163 134.03 11.8863C133.959 11.8562 133.895 11.811 133.842 11.7536C133.734 11.6429 133.675 11.4939 133.677 11.3393C133.676 11.1884 133.734 11.0432 133.84 10.9353C133.945 10.8274 134.089 10.7656 134.24 10.7634H136.461C136.523 10.7634 136.539 10.7427 136.515 10.693C136.219 9.98132 135.86 9.29773 135.442 8.65054C135.398 8.59167 135.371 8.52232 135.363 8.44954C135.355 8.37677 135.366 8.30317 135.396 8.23625C135.419 8.16968 135.458 8.10934 135.508 8.0598C135.558 8.01027 135.619 7.97284 135.686 7.95038C135.849 7.89665 136.025 7.89665 136.187 7.95038C136.358 8.00212 136.504 8.11211 136.602 8.2611C136.948 8.76907 137.261 9.29912 137.538 9.84786C137.572 9.92125 137.589 10.0011 137.589 10.0819C137.589 10.1628 137.572 10.2426 137.538 10.316C137.509 10.3923 137.462 10.461 137.403 10.5169C137.343 10.5729 137.272 10.6147 137.194 10.6392L136.929 10.7469H139C139.062 10.7469 139.091 10.7262 139.091 10.6764V8.19067C139.095 8.03389 139.161 7.88491 139.274 7.77638C139.331 7.71684 139.4 7.66961 139.476 7.63755C139.552 7.6055 139.634 7.5893 139.717 7.58995C139.799 7.58913 139.881 7.60527 139.956 7.63735C140.032 7.66943 140.1 7.71676 140.156 7.77638C140.214 7.82934 140.26 7.89332 140.292 7.96451C140.324 8.0357 140.341 8.11263 140.343 8.19067V10.6764C140.343 10.7262 140.363 10.7469 140.413 10.7469H142.406C142.415 10.7483 142.425 10.7474 142.434 10.7444C142.444 10.7413 142.452 10.7362 142.459 10.7293C142.466 10.7225 142.471 10.7141 142.474 10.705C142.477 10.6958 142.478 10.686 142.476 10.6764V8.19067C142.48 8.03389 142.545 7.88491 142.659 7.77638C142.717 7.71601 142.787 7.66832 142.865 7.63624C142.943 7.60417 143.026 7.58841 143.11 7.58995C143.272 7.59513 143.426 7.66183 143.541 7.77649C143.656 7.89115 143.722 8.04517 143.727 8.20725V10.693C143.727 10.7427 143.756 10.7634 143.814 10.7634H145.845C145.771 10.7434 145.704 10.7058 145.648 10.6538C145.593 10.6018 145.55 10.5371 145.525 10.4652C145.497 10.3935 145.485 10.3161 145.491 10.2391C145.498 10.1621 145.522 10.0877 145.563 10.0219C145.845 9.50399 146.114 8.96541 146.371 8.40196C146.44 8.23821 146.567 8.10552 146.727 8.0291C146.878 7.94803 147.055 7.92872 147.22 7.97524L147.377 8.0291C147.452 8.04181 147.522 8.07368 147.581 8.1216C147.64 8.16952 147.685 8.23185 147.713 8.30253C147.742 8.37266 147.753 8.44845 147.748 8.52394C147.742 8.59943 147.719 8.67255 147.68 8.73754C147.307 9.42519 146.891 10.0893 146.437 10.7262C146.416 10.7634 146.437 10.78 146.474 10.78H148.624C148.702 10.7775 148.778 10.7913 148.85 10.8206C148.921 10.8499 148.986 10.8939 149.039 10.9499C149.093 11.0039 149.136 11.0685 149.165 11.1398C149.193 11.2111 149.207 11.2874 149.204 11.3642C149.206 11.4409 149.193 11.5172 149.164 11.5884C149.136 11.6597 149.093 11.7243 149.039 11.7785C148.985 11.8339 148.921 11.8773 148.849 11.9059C148.778 11.9344 148.701 11.9475 148.624 11.9442H145.662C145.637 11.9456 145.613 11.9527 145.592 11.9649C145.57 11.9771 145.552 11.9941 145.538 12.0146C145.154 12.7438 144.814 13.3431 144.519 13.8127C144.481 13.8499 144.494 13.8665 144.552 13.8665H148.007C148.084 13.8642 148.16 13.8778 148.232 13.9063C148.303 13.9348 148.367 13.9777 148.421 14.0322C148.474 14.0824 148.517 14.1427 148.546 14.2096C148.575 14.2766 148.591 14.3487 148.591 14.4217C148.591 14.4948 148.576 14.567 148.547 14.634C148.517 14.701 148.475 14.7613 148.421 14.8111C148.368 14.8665 148.304 14.9099 148.232 14.9385C148.161 14.9671 148.084 14.9801 148.007 14.9768H142.124C142.115 14.9754 142.105 14.9763 142.096 14.9794C142.086 14.9824 142.078 14.9875 142.071 14.9944C142.064 15.0012 142.059 15.0096 142.056 15.0187C142.053 15.0279 142.052 15.0377 142.054 15.0473V16.2114C142.054 16.2611 142.074 16.2819 142.124 16.2819H147.183C147.25 16.2815 147.317 16.2953 147.38 16.3224C147.442 16.3495 147.497 16.3893 147.543 16.4393C147.641 16.539 147.696 16.6727 147.696 16.8122C147.694 16.9474 147.639 17.0763 147.543 17.1716C147.447 17.2668 147.318 17.3207 147.183 17.3217H142.124C142.115 17.3204 142.105 17.3212 142.096 17.3243C142.086 17.3273 142.078 17.3325 142.071 17.3393C142.064 17.3461 142.059 17.3545 142.056 17.3637C142.053 17.3728 142.052 17.3826 142.054 17.3922V18.5729C142.054 18.6351 142.074 18.6641 142.124 18.6641H148.716C148.789 18.6576 148.864 18.6669 148.934 18.6911C149.004 18.7154 149.068 18.7542 149.122 18.8049ZM144.08 11.9898C144.104 11.9442 144.08 11.9193 144.026 11.9193H138.876C138.83 11.9193 138.818 11.9193 138.843 11.9732C139.109 12.3634 139.333 12.7799 139.514 13.2161C139.545 13.275 139.561 13.3403 139.561 13.4067C139.561 13.473 139.545 13.5383 139.514 13.5972C139.483 13.6538 139.44 13.7028 139.387 13.7408C139.335 13.7787 139.275 13.8047 139.212 13.8168H143.355C143.251 13.7795 143.226 13.7174 143.284 13.6221C143.58 13.0937 143.846 12.5487 144.08 11.9898Z" fill="#9E9E9F"/>
<path d="M156.774 8.23513C156.937 8.23621 157.093 8.3016 157.209 8.41713C157.324 8.53266 157.39 8.68904 157.391 8.85243V22.462C157.404 22.7565 157.359 23.0507 157.258 23.3279C157.164 23.5471 156.991 23.7231 156.774 23.8209C156.223 24.0035 155.642 24.0808 155.063 24.0488C154.888 24.0493 154.719 23.9876 154.586 23.8748C154.449 23.7596 154.35 23.6047 154.304 23.4315L154.271 23.361C154.247 23.2976 154.24 23.2294 154.248 23.1622C154.257 23.095 154.282 23.031 154.321 22.9757C154.357 22.9196 154.407 22.8737 154.465 22.8424C154.524 22.8112 154.59 22.7958 154.657 22.7976H155.203C155.522 22.7976 155.734 22.7976 155.837 22.7976C155.936 22.7982 156.032 22.7662 156.111 22.7065C156.141 22.6737 156.163 22.6349 156.177 22.5928C156.19 22.5506 156.195 22.506 156.19 22.462V18.0001C156.19 17.9545 156.161 17.9296 156.103 17.9296H153.654C153.596 17.9296 153.563 17.9545 153.563 18.0001C153.484 19.8736 153.116 21.7238 152.473 23.4853C152.447 23.557 152.403 23.6211 152.346 23.6717C152.289 23.7224 152.22 23.758 152.146 23.7753C152.07 23.7965 151.991 23.8019 151.914 23.7912C151.836 23.7805 151.761 23.754 151.694 23.7132C151.55 23.6298 151.437 23.4998 151.375 23.3445C151.343 23.2656 151.326 23.1812 151.326 23.0959C151.328 23.0175 151.344 22.9401 151.375 22.868C151.845 21.6732 152.142 20.4178 152.258 19.1394C152.405 17.6483 152.475 16.1508 152.469 14.6526V8.85243C152.468 8.7717 152.484 8.69162 152.514 8.61691C152.545 8.5422 152.59 8.47437 152.647 8.41742C152.704 8.35835 152.772 8.31166 152.848 8.28028C152.923 8.24891 153.005 8.23353 153.086 8.23513H156.774ZM153.617 16.5915C153.617 16.637 153.65 16.6619 153.708 16.6619H156.086C156.144 16.6619 156.173 16.637 156.173 16.5915V13.7163C156.173 13.6707 156.144 13.6458 156.086 13.6458H153.741C153.683 13.6458 153.654 13.6707 153.654 13.7163V14.6691C153.654 15.4936 153.642 16.1316 153.617 16.5915ZM156.173 9.54844C156.174 9.5367 156.173 9.52481 156.169 9.51365C156.165 9.5025 156.159 9.49236 156.15 9.48401C156.142 9.47565 156.132 9.46928 156.121 9.46537C156.11 9.46147 156.098 9.46012 156.086 9.46144H153.741C153.729 9.46012 153.717 9.46147 153.706 9.46537C153.695 9.46928 153.685 9.47565 153.677 9.48401C153.668 9.49236 153.662 9.5025 153.658 9.51365C153.654 9.52481 153.653 9.5367 153.654 9.54844V12.3159C153.654 12.3615 153.683 12.3864 153.741 12.3864H156.086C156.144 12.3864 156.173 12.3615 156.173 12.3159V9.54844ZM160.813 9.42415C160.763 9.42415 160.743 9.45316 160.743 9.51116V10.3397C160.743 12.2206 160.143 13.6555 158.945 14.6443C158.811 14.7462 158.644 14.7936 158.476 14.7768C158.3 14.7573 158.135 14.6785 158.008 14.5531L157.954 14.52C157.905 14.4722 157.865 14.415 157.838 14.3516C157.811 14.2883 157.797 14.2201 157.797 14.1513C157.794 14.0769 157.808 14.0027 157.839 13.935C157.87 13.8672 157.917 13.8079 157.975 13.7618C158.469 13.3404 158.859 12.8111 159.115 12.2148C159.372 11.6186 159.488 10.9714 159.454 10.3232V8.79028C159.456 8.71223 159.473 8.63531 159.505 8.56412C159.537 8.49293 159.583 8.42894 159.641 8.37599C159.694 8.319 159.758 8.27317 159.829 8.24117C159.9 8.20916 159.977 8.19162 160.055 8.18956H164.48C164.564 8.18802 164.647 8.20378 164.725 8.23585C164.802 8.26792 164.873 8.31562 164.931 8.37599C164.988 8.42894 165.035 8.49293 165.067 8.56412C165.099 8.63531 165.116 8.71223 165.118 8.79028V12.6805C165.106 12.8083 165.123 12.9372 165.167 13.0575C165.199 13.0899 165.238 13.1142 165.282 13.1286C165.325 13.143 165.371 13.147 165.416 13.1404H166.244C166.385 13.1404 166.481 13.0534 166.526 12.8835C166.597 12.5023 166.633 12.1154 166.634 11.7276C166.637 11.6663 166.657 11.6071 166.692 11.5561C166.726 11.5051 166.773 11.4642 166.829 11.4376C166.884 11.4046 166.946 11.3847 167.01 11.3797C167.074 11.3747 167.138 11.3846 167.197 11.4086C167.369 11.4718 167.514 11.5898 167.612 11.7442C167.703 11.863 167.753 12.0086 167.752 12.1585C167.786 12.7572 167.642 13.3524 167.338 13.8695C167.235 14.0197 167.095 14.1399 166.93 14.2178C166.765 14.2957 166.583 14.3285 166.402 14.3128H165.205C165.008 14.3354 164.808 14.3173 164.619 14.2595C164.429 14.2018 164.253 14.1057 164.103 13.9773C163.876 13.5855 163.788 13.1284 163.854 12.6805V9.51944C163.854 9.46144 163.825 9.43244 163.763 9.43244L160.813 9.42415ZM165.627 15.3113C165.674 15.307 165.721 15.307 165.768 15.3113C165.859 15.3103 165.95 15.3287 166.033 15.3651L166.261 15.4521C166.381 15.5052 166.478 15.5992 166.534 15.7173C166.588 15.8343 166.597 15.9671 166.559 16.0902C165.972 17.8631 164.979 19.4745 163.659 20.7966C163.614 20.8421 163.614 20.8794 163.659 20.9001C164.739 21.7291 165.956 22.3616 167.255 22.7686C167.316 22.7879 167.371 22.8224 167.414 22.8688C167.458 22.9152 167.489 22.972 167.504 23.0338C167.509 23.075 167.509 23.1168 167.504 23.158C167.506 23.2487 167.475 23.3369 167.417 23.4066L167.276 23.5806C167.176 23.7289 167.031 23.8408 166.862 23.8996C166.778 23.9345 166.688 23.9528 166.597 23.9535C166.512 23.9533 166.429 23.9407 166.348 23.9162C165.011 23.4186 163.766 22.7017 162.665 21.795C162.615 21.7591 162.574 21.7591 162.541 21.795C161.434 22.6611 160.2 23.3502 158.882 23.8375C158.724 23.8996 158.548 23.8996 158.389 23.8375C158.221 23.7739 158.076 23.6596 157.975 23.5102L157.905 23.39C157.846 23.314 157.814 23.2209 157.814 23.1249C157.813 23.0826 157.82 23.0405 157.834 23.0006C157.852 22.9361 157.885 22.8767 157.93 22.8277C157.976 22.7786 158.032 22.7413 158.095 22.7189C159.34 22.3055 160.509 21.6911 161.555 20.9001C161.6 20.9001 161.604 20.8421 161.555 20.7966C160.63 19.8158 159.863 18.6978 159.28 17.4822C159.245 17.4105 159.227 17.3319 159.227 17.2523C159.227 17.1726 159.245 17.094 159.28 17.0223C159.312 16.9499 159.358 16.8846 159.416 16.8305C159.473 16.7763 159.541 16.7345 159.616 16.7075L160.03 16.5832C160.03 16.5832 160.03 16.5832 160.009 16.5832H158.953C158.863 16.5979 158.771 16.5929 158.683 16.5685C158.595 16.5441 158.513 16.5008 158.443 16.4417C158.374 16.3826 158.318 16.309 158.28 16.2261C158.241 16.1433 158.221 16.053 158.221 15.9617C158.221 15.8704 158.241 15.7802 158.28 15.6973C158.318 15.6145 158.374 15.5409 158.443 15.4818C158.513 15.4227 158.595 15.3794 158.683 15.355C158.771 15.3305 158.863 15.3255 158.953 15.3403H165.619L165.627 15.3113ZM164.939 16.637C164.939 16.5873 164.939 16.5666 164.886 16.5666H160.37C160.312 16.5666 160.295 16.5873 160.32 16.637C160.843 17.8658 161.603 18.9794 162.557 19.9141C162.563 19.9227 162.571 19.9296 162.581 19.9344C162.59 19.9392 162.601 19.9418 162.611 19.9418C162.622 19.9418 162.632 19.9392 162.641 19.9344C162.651 19.9296 162.659 19.9227 162.665 19.9141C163.638 18.9906 164.412 17.8783 164.939 16.6453V16.637Z" fill="#9E9E9F"/>
<path d="M173.101 8.2136C173.129 8.13436 173.173 8.06195 173.231 8.00121C173.289 7.94048 173.359 7.89282 173.437 7.86145C173.524 7.81677 173.621 7.79267 173.719 7.79102C173.784 7.7911 173.849 7.79804 173.913 7.81173H173.967C174.045 7.83273 174.118 7.87023 174.18 7.9217C174.242 7.97316 174.292 8.03739 174.328 8.11002C174.364 8.18429 174.382 8.26573 174.382 8.34824C174.382 8.43075 174.364 8.51219 174.328 8.58646C173.88 9.71076 173.352 10.8017 172.749 11.8511C172.725 11.8943 172.712 11.9427 172.712 11.992V23.3851C172.714 23.4682 172.699 23.5508 172.667 23.6278C172.636 23.7048 172.589 23.7745 172.53 23.8325C172.471 23.8929 172.401 23.9406 172.323 23.9727C172.246 24.0047 172.162 24.0205 172.078 24.019C172 24.0169 171.923 23.9994 171.852 23.9673C171.781 23.9353 171.717 23.8895 171.664 23.8325C171.604 23.7747 171.556 23.7051 171.524 23.6282C171.492 23.5512 171.476 23.4685 171.477 23.3851V13.964C171.479 13.9595 171.481 13.9545 171.481 13.9495C171.481 13.9445 171.479 13.9395 171.477 13.935C171.472 13.9317 171.465 13.93 171.459 13.93C171.452 13.93 171.446 13.9317 171.44 13.935C171.015 14.5278 170.557 15.0963 170.069 15.6378C170.023 15.692 169.963 15.7335 169.897 15.7581C169.83 15.7828 169.758 15.7899 169.688 15.7786C169.617 15.7677 169.55 15.7417 169.491 15.7024C169.431 15.6631 169.381 15.6113 169.344 15.5508C169.311 15.4698 169.271 15.3921 169.224 15.3188C169.154 15.1919 169.116 15.0494 169.116 14.9045C169.113 14.7047 169.182 14.5104 169.311 14.3576C170.101 13.4946 170.806 12.5566 171.415 11.557C172.072 10.4929 172.636 9.37435 173.101 8.2136ZM176.291 10.1359C176.359 9.97905 176.477 9.84928 176.627 9.7672C176.774 9.6827 176.947 9.6575 177.112 9.69677H177.203C177.279 9.71825 177.351 9.75502 177.413 9.80486C177.475 9.85471 177.526 9.91659 177.563 9.98678C177.6 10.0557 177.621 10.1319 177.625 10.2098C177.63 10.2878 177.617 10.3658 177.588 10.4384C176.899 12.2634 175.884 13.9479 174.593 15.4099C174.539 15.4649 174.475 15.508 174.403 15.5366C174.332 15.5651 174.255 15.5784 174.179 15.5756C174.1 15.5723 174.023 15.5533 173.952 15.5199C173.881 15.4865 173.817 15.4392 173.764 15.3809C173.707 15.3217 173.662 15.2516 173.632 15.1748C173.602 15.0979 173.588 15.0159 173.59 14.9335C173.588 14.7803 173.644 14.6319 173.748 14.5192C174.87 13.237 175.731 11.748 176.283 10.1359H176.291ZM175.608 15.7621C175.551 15.709 175.506 15.6448 175.476 15.5735C175.445 15.5022 175.429 15.4254 175.43 15.3478C175.429 15.267 175.444 15.187 175.475 15.1122C175.505 15.0375 175.551 14.9697 175.608 14.9127C175.664 14.8533 175.732 14.8063 175.808 14.7749C175.884 14.7435 175.965 14.7284 176.047 14.7305H183.152C183.236 14.7296 183.319 14.7452 183.396 14.7765C183.474 14.8078 183.544 14.8541 183.604 14.9127C183.662 14.9714 183.705 15.0427 183.731 15.121C183.757 15.1994 183.765 15.2827 183.753 15.3643C183.682 18.1484 183.595 20.0914 183.496 21.1645C183.397 22.2375 183.227 22.9542 182.995 23.2359C182.869 23.4227 182.701 23.5772 182.505 23.6866C182.308 23.7961 182.089 23.8574 181.864 23.8657C181.632 23.8657 181.338 23.8864 180.981 23.8864H180.426C180.262 23.8736 180.107 23.8049 179.987 23.6917C179.857 23.573 179.765 23.4189 179.722 23.2484C179.708 23.202 179.697 23.155 179.689 23.1075C179.665 23.0483 179.657 22.9842 179.665 22.921C179.672 22.8579 179.695 22.7975 179.732 22.7454C179.768 22.6933 179.817 22.651 179.874 22.6224C179.931 22.5938 179.994 22.5797 180.057 22.5814C180.41 22.6021 180.803 22.6145 181.238 22.6145C181.344 22.625 181.452 22.6115 181.552 22.5749C181.653 22.5383 181.743 22.4797 181.818 22.4032C181.984 22.2043 182.112 21.6326 182.199 20.6839C182.286 19.7351 182.357 18.1981 182.402 16.0396C182.402 15.9816 182.377 15.9526 182.332 15.9526H179.332C179.274 15.9526 179.245 15.9733 179.245 16.0231C179.162 16.7877 179.036 17.547 178.868 18.2975C178.702 18.9949 178.48 19.6779 178.205 20.34C177.927 21.0183 177.55 21.652 177.087 22.2209C176.609 22.7986 176.051 23.305 175.43 23.7248C175.286 23.8176 175.112 23.8504 174.945 23.816C174.779 23.7824 174.631 23.6878 174.531 23.5508C174.515 23.535 174.503 23.5168 174.493 23.4969C174.413 23.4034 174.369 23.2844 174.369 23.1614C174.367 23.0744 174.387 22.9883 174.427 22.9113C174.468 22.8344 174.528 22.7693 174.601 22.7222C175.161 22.3726 175.66 21.9346 176.08 21.4255C176.491 20.9269 176.822 20.3679 177.062 19.7683C177.294 19.1902 177.48 18.5945 177.617 17.9868C177.754 17.3293 177.848 16.6637 177.899 15.9941C177.899 15.9443 177.899 15.9236 177.828 15.9236H176.047C175.967 15.9277 175.886 15.9155 175.811 15.8877C175.735 15.8599 175.666 15.8172 175.608 15.7621ZM177.775 9.09605C177.692 9.01256 177.636 8.90666 177.612 8.79146C177.589 8.67626 177.601 8.55681 177.645 8.4479C177.689 8.33899 177.764 8.2454 177.861 8.17872C177.957 8.11204 178.071 8.07519 178.189 8.07274H181.855C182.029 8.07212 182.198 8.1322 182.332 8.2426C182.468 8.34695 182.566 8.49218 182.614 8.65689C182.87 9.7334 183.261 10.7732 183.778 11.7517C184.222 12.6188 184.82 13.398 185.543 14.051C185.602 14.1026 185.65 14.1661 185.684 14.2375C185.717 14.3089 185.736 14.3865 185.737 14.4653C185.739 14.5379 185.725 14.61 185.698 14.6771C185.67 14.7441 185.628 14.8046 185.576 14.8547C185.53 14.9127 185.476 14.9708 185.418 15.0329C185.313 15.155 185.165 15.2309 185.004 15.2442C184.986 15.2481 184.968 15.2481 184.95 15.2442C184.805 15.2418 184.667 15.1857 184.561 15.0868C183.817 14.3469 183.194 13.4956 182.713 12.5637C182.163 11.5394 181.745 10.4494 181.47 9.31976C181.47 9.26176 181.429 9.23276 181.379 9.23276H178.189C178.114 9.23866 178.039 9.2296 177.968 9.20613C177.897 9.18265 177.831 9.14523 177.775 9.09605Z" fill="#9E9E9F"/>
<path d="M203.465 10.5264C203.467 10.6933 203.403 10.8542 203.287 10.9738C203.231 11.0343 203.163 11.0822 203.087 11.1143C203.011 11.1464 202.93 11.1621 202.848 11.1603H193.837C193.814 11.1603 193.792 11.1671 193.774 11.1796C193.756 11.1922 193.741 11.21 193.733 11.2307C193.319 12.0593 192.975 12.7056 192.689 13.1903C192.668 13.2235 192.689 13.24 192.743 13.24H200.726C200.81 13.2385 200.894 13.2543 200.971 13.2863C201.049 13.3184 201.119 13.3661 201.178 13.4265C201.237 13.4857 201.283 13.5562 201.315 13.6338C201.346 13.7114 201.362 13.7944 201.36 13.8781V22.3752C201.378 22.696 201.322 23.0165 201.194 23.3116C201.063 23.5379 200.852 23.7065 200.602 23.7838C199.778 23.9853 198.93 24.069 198.083 24.0324C197.908 24.0341 197.738 23.9706 197.607 23.8543C197.467 23.7392 197.362 23.587 197.304 23.4151C197.29 23.3727 197.274 23.3312 197.255 23.2908C197.23 23.2269 197.222 23.1578 197.23 23.0899C197.239 23.0219 197.264 22.9571 197.304 22.9014C197.342 22.8479 197.393 22.8042 197.451 22.7739C197.509 22.7436 197.574 22.7277 197.64 22.7274C197.971 22.7274 198.63 22.7274 199.616 22.7274C199.735 22.7311 199.852 22.6978 199.952 22.6321C199.984 22.5949 200.009 22.5515 200.023 22.5044C200.038 22.4574 200.044 22.4078 200.039 22.3587V20.5772C200.041 20.5651 200.04 20.5528 200.036 20.5411C200.033 20.5294 200.026 20.5187 200.018 20.5099C200.009 20.501 199.999 20.4943 199.988 20.4901C199.976 20.486 199.964 20.4846 199.952 20.4861H192.585C192.54 20.4861 192.515 20.5192 192.515 20.5772V23.4151C192.517 23.4992 192.501 23.5826 192.469 23.6603C192.437 23.738 192.389 23.8082 192.329 23.8667C192.27 23.9254 192.2 23.9718 192.123 24.0031C192.046 24.0344 191.964 24.05 191.881 24.049H191.827C191.744 24.0503 191.661 24.0349 191.583 24.0036C191.505 23.9723 191.435 23.9257 191.376 23.8667C191.316 23.808 191.269 23.7376 191.237 23.6599C191.206 23.5822 191.191 23.4989 191.193 23.4151V15.4275C191.193 15.4216 191.191 15.4158 191.188 15.4113C191.184 15.4067 191.179 15.4036 191.173 15.4027C191.173 15.4027 191.152 15.4027 191.14 15.4027C190.424 16.305 189.6 17.1162 188.687 17.818C188.623 17.8683 188.55 17.9046 188.471 17.9246C188.393 17.9446 188.311 17.9478 188.231 17.934C188.07 17.9028 187.924 17.8182 187.817 17.6937C187.802 17.6684 187.783 17.6448 187.763 17.6233C187.67 17.5233 187.619 17.3911 187.622 17.2546C187.623 17.1707 187.644 17.0882 187.682 17.0135C187.72 16.9388 187.775 16.8739 187.842 16.8237C189.736 15.3331 191.252 13.417 192.266 11.2307C192.291 11.1851 192.266 11.1603 192.213 11.1603H188.389C188.306 11.1627 188.224 11.1472 188.149 11.1151C188.073 11.0829 188.005 11.0347 187.949 10.9738C187.891 10.9151 187.845 10.8452 187.815 10.7683C187.784 10.6914 187.769 10.6091 187.771 10.5264C187.769 10.443 187.784 10.3601 187.814 10.2825C187.845 10.2049 187.891 10.1343 187.949 10.0748C188.006 10.0153 188.074 9.96838 188.15 9.93698C188.225 9.90557 188.307 9.89043 188.389 9.89253H192.78C192.802 9.89247 192.824 9.88573 192.843 9.87317C192.861 9.86062 192.875 9.84284 192.884 9.8221C193.107 9.24623 193.298 8.69108 193.468 8.16492C193.524 8.00201 193.635 7.86405 193.783 7.77549C193.88 7.72497 193.989 7.70204 194.098 7.7092C194.15 7.7037 194.203 7.7037 194.255 7.7092L194.379 7.74648C194.458 7.76065 194.532 7.79269 194.596 7.84012C194.66 7.88754 194.712 7.94907 194.748 8.01992C194.789 8.08944 194.813 8.1673 194.82 8.24765C194.826 8.32801 194.815 8.40878 194.785 8.48393C194.607 9.02666 194.45 9.4741 194.309 9.82625C194.284 9.87182 194.309 9.89668 194.363 9.89668H202.843C202.925 9.89508 203.006 9.91046 203.082 9.94183C203.158 9.97321 203.226 10.0199 203.283 10.079C203.4 10.1984 203.465 10.3591 203.465 10.5264ZM199.956 16.2934C200.014 16.2934 200.043 16.2644 200.043 16.2022V14.5451C200.044 14.5333 200.043 14.5214 200.039 14.5103C200.035 14.4991 200.029 14.489 200.02 14.4806C200.012 14.4723 200.002 14.4659 199.991 14.462C199.979 14.4581 199.967 14.4567 199.956 14.4581H192.585C192.54 14.4581 192.515 14.4871 192.515 14.5451V16.2022C192.515 16.2644 192.54 16.2934 192.585 16.2934H199.956ZM192.498 19.2556C192.498 19.3136 192.523 19.3426 192.569 19.3426H199.939C199.951 19.3439 199.963 19.3426 199.974 19.3387C199.985 19.3348 199.995 19.3284 200.004 19.32C200.012 19.3117 200.018 19.3016 200.022 19.2904C200.026 19.2792 200.027 19.2674 200.026 19.2556V17.5446C200.027 17.5328 200.026 17.5209 200.022 17.5098C200.018 17.4986 200.012 17.4885 200.004 17.4801C199.995 17.4718 199.985 17.4654 199.974 17.4615C199.963 17.4576 199.951 17.4562 199.939 17.4576H192.585C192.54 17.4576 192.515 17.4866 192.515 17.5446L192.498 19.2556Z" fill="#9E9E9F"/>
<path d="M210.587 8.33897C210.649 8.32189 210.715 8.31785 210.779 8.32712C210.843 8.33638 210.904 8.35875 210.96 8.39283L211.221 8.55027C211.348 8.62684 211.445 8.74554 211.494 8.88584C211.547 9.01877 211.547 9.16721 211.494 9.30014C210.873 10.9573 210.286 12.3618 209.733 13.5135C209.718 13.5308 209.71 13.5529 209.71 13.5757C209.71 13.5985 209.718 13.6205 209.733 13.6378C210.885 14.8282 211.461 16.1042 211.461 17.4659V17.5695C211.461 18.561 211.214 19.2197 210.719 19.5457C210.413 19.7281 210.071 19.8426 209.717 19.8812C209.499 19.9069 209.281 19.918 209.062 19.9144H209.012C208.847 19.9143 208.687 19.8522 208.565 19.7404C208.427 19.6202 208.331 19.459 208.291 19.2805V19.2474C208.273 19.1859 208.269 19.121 208.28 19.0578C208.29 18.9945 208.316 18.9346 208.354 18.8828C208.388 18.8293 208.436 18.7859 208.493 18.7568C208.55 18.7277 208.613 18.714 208.677 18.7171C208.859 18.7295 209.042 18.7295 209.224 18.7171C209.443 18.6976 209.658 18.6445 209.862 18.5596C210.143 18.3691 210.276 17.9589 210.276 17.3167C210.276 16.27 209.817 15.2287 208.9 14.193C208.814 14.1111 208.745 14.0129 208.696 13.9042C208.648 13.7954 208.622 13.6781 208.619 13.5591C208.62 13.4166 208.649 13.2757 208.706 13.1448C209.07 12.2996 209.516 11.1244 210.044 9.61915C210.044 9.57357 210.044 9.54872 209.994 9.54872H207.488C207.478 9.54733 207.468 9.54819 207.459 9.55124C207.45 9.55429 207.442 9.55943 207.435 9.56627C207.428 9.57311 207.423 9.58145 207.42 9.59063C207.417 9.59981 207.416 9.60958 207.417 9.61915V23.4152C207.418 23.4986 207.402 23.5812 207.37 23.6584C207.339 23.7356 207.292 23.8056 207.233 23.8646C207.174 23.9236 207.104 23.9703 207.027 24.0019C206.949 24.0336 206.867 24.0496 206.783 24.049C206.7 24.0507 206.617 24.0355 206.539 24.0042C206.461 23.973 206.391 23.9264 206.331 23.8672C206.272 23.808 206.226 23.7374 206.194 23.6597C206.163 23.5821 206.148 23.4989 206.15 23.4152V8.95213C206.154 8.79565 206.22 8.64714 206.332 8.53784C206.39 8.47747 206.461 8.42977 206.538 8.3977C206.616 8.36563 206.699 8.34987 206.783 8.3514H210.591L210.587 8.33897ZM220.02 17.209C220.137 17.0802 220.298 17.0015 220.472 16.9895C220.557 16.9783 220.644 16.9843 220.727 17.007C220.811 17.0298 220.888 17.0689 220.956 17.122C221.022 17.1622 221.076 17.2173 221.116 17.2829C221.156 17.3485 221.179 17.4226 221.184 17.499C221.195 17.5774 221.185 17.6572 221.154 17.7301C221.124 17.8031 221.074 17.8663 221.01 17.9133C220.258 18.5987 219.462 19.2353 218.628 19.8191C218.621 19.8257 218.615 19.8337 218.611 19.8426C218.607 19.8515 218.605 19.8611 218.605 19.8709C218.605 19.8806 218.607 19.8902 218.611 19.8992C218.615 19.9081 218.621 19.9161 218.628 19.9227C219.305 21.0385 220.251 21.9671 221.379 22.6239C221.442 22.6595 221.496 22.7086 221.537 22.7676C221.578 22.8266 221.606 22.8941 221.618 22.9651C221.629 23.0361 221.625 23.1089 221.606 23.1782C221.586 23.2474 221.551 23.3114 221.503 23.3655C221.464 23.4042 221.428 23.4457 221.396 23.4897C221.295 23.6291 221.148 23.7288 220.981 23.7715C220.929 23.777 220.876 23.777 220.824 23.7715C220.712 23.7699 220.602 23.74 220.505 23.6845C218.323 22.3339 216.789 19.9061 215.902 16.4012C215.901 16.3908 215.898 16.3807 215.893 16.3716C215.888 16.3624 215.881 16.3543 215.873 16.3478C215.865 16.3412 215.856 16.3364 215.846 16.3334C215.836 16.3305 215.825 16.3296 215.815 16.3307H214.025C213.967 16.3307 213.938 16.3556 213.938 16.4012V21.7953C213.938 21.8574 213.967 21.8781 214.025 21.8657C214.931 21.6917 215.859 21.5094 216.809 21.3188C216.881 21.301 216.955 21.2999 217.027 21.3158C217.099 21.3316 217.166 21.3638 217.224 21.41C217.283 21.4524 217.333 21.5075 217.368 21.5712C217.404 21.635 217.426 21.7058 217.431 21.7787C217.437 21.9332 217.39 22.0851 217.298 22.2096C217.198 22.3438 217.049 22.4343 216.884 22.4623C216.848 22.4623 215.102 22.8559 211.647 23.643C211.479 23.6825 211.302 23.6542 211.154 23.5643C211.004 23.4831 210.891 23.3485 210.835 23.1873L210.802 23.063C210.789 23.0046 210.782 22.9448 210.781 22.8849C210.783 22.7595 210.828 22.6385 210.909 22.5426C210.99 22.4467 211.101 22.3817 211.225 22.3587L212.546 22.1101C212.604 22.1101 212.633 22.0811 212.633 22.0231V8.97285C212.637 8.81685 212.7 8.66827 212.811 8.55855C212.867 8.49811 212.935 8.45023 213.011 8.41809C213.087 8.38595 213.168 8.37028 213.251 8.37212H220.091C220.173 8.37022 220.256 8.38584 220.332 8.41797C220.409 8.4501 220.477 8.498 220.534 8.55855C220.642 8.66965 220.704 8.8177 220.708 8.97285V15.6927C220.71 15.7751 220.696 15.8572 220.666 15.934C220.636 16.0109 220.591 16.081 220.534 16.1402C220.477 16.2007 220.409 16.2486 220.332 16.2807C220.256 16.3129 220.173 16.3285 220.091 16.3266H217.112C217.066 16.3266 217.05 16.3514 217.058 16.397C217.291 17.2426 217.604 18.0639 217.994 18.8496C218.019 18.8952 218.048 18.8994 218.081 18.8496C218.757 18.3388 219.404 17.7911 220.02 17.209ZM219.403 9.62743C219.403 9.58186 219.374 9.557 219.316 9.557H214.025C213.967 9.557 213.938 9.58186 213.938 9.62743V11.6741C213.938 11.7196 213.967 11.7445 214.025 11.7445H219.316C219.374 11.7445 219.403 11.7196 219.403 11.6741V9.62743ZM214.017 12.8879C213.959 12.8879 213.93 12.9128 213.93 12.9584V15.0298C213.93 15.092 213.959 15.121 214.017 15.121H219.308C219.366 15.121 219.395 15.092 219.395 15.0298V12.9584C219.395 12.9128 219.366 12.8879 219.308 12.8879H214.017Z" fill="#9E9E9F"/>
<path d="M228.186 8.65728C228.218 8.57797 228.266 8.50592 228.326 8.44542C228.387 8.38493 228.459 8.33722 228.538 8.30513C228.63 8.25712 228.732 8.2329 228.836 8.2347C228.901 8.22906 228.966 8.22906 229.031 8.2347L229.275 8.30513C229.353 8.32558 229.424 8.36268 229.486 8.41382C229.547 8.46496 229.596 8.5289 229.63 8.60116C229.664 8.67342 229.682 8.75223 229.682 8.83207C229.682 8.9119 229.665 8.99082 229.632 9.06329C228.602 11.4339 227.148 13.5972 225.344 15.4476C225.287 15.5104 225.218 15.5609 225.141 15.5959C225.064 15.6308 224.981 15.6494 224.896 15.6506C224.724 15.6579 224.556 15.5968 224.428 15.4807C224.331 15.4153 224.237 15.3448 224.146 15.2694C224.078 15.2254 224.022 15.1638 223.985 15.091C223.947 15.0181 223.93 14.9367 223.935 14.8551C223.936 14.7889 223.951 14.7235 223.978 14.663C224.005 14.6025 224.044 14.5481 224.093 14.503C224.948 13.7105 225.711 12.8238 226.367 11.8598C227.07 10.8501 227.679 9.77811 228.186 8.65728ZM234.073 18.4802C234.026 18.4234 233.994 18.3559 233.978 18.2838C233.963 18.2116 233.966 18.1369 233.986 18.0659C233.997 17.9926 234.027 17.9236 234.074 17.8661C234.12 17.8085 234.182 17.7645 234.251 17.7386L234.355 17.6889C234.516 17.6066 234.701 17.5846 234.877 17.6268C235.053 17.6644 235.21 17.7609 235.324 17.9002C236.677 19.453 237.898 21.116 238.974 22.8717C239.019 22.9414 239.049 23.02 239.061 23.1023C239.074 23.1845 239.068 23.2684 239.044 23.3482C239.023 23.427 238.985 23.5005 238.934 23.5639C238.883 23.6274 238.819 23.6795 238.746 23.7169L238.518 23.8578C238.424 23.904 238.321 23.9281 238.216 23.9282C238.158 23.9343 238.1 23.9343 238.042 23.9282C237.963 23.9068 237.888 23.8693 237.824 23.818C237.76 23.7667 237.707 23.7026 237.669 23.6299C237.503 23.3358 237.329 23.0416 237.143 22.7475C237.129 22.7265 237.111 22.7092 237.089 22.6969C237.068 22.6846 237.043 22.6778 237.019 22.677C235.336 22.782 231.381 22.9877 225.153 23.2943C225.068 23.3007 224.983 23.2896 224.902 23.2618C224.822 23.2341 224.748 23.1901 224.685 23.1328C224.557 23.0289 224.471 22.8814 224.445 22.7185V22.5445C224.432 22.4654 224.438 22.3844 224.461 22.3077C224.483 22.231 224.523 22.1604 224.577 22.1012C224.627 22.0396 224.69 21.9901 224.762 21.9564C224.834 21.9227 224.912 21.9056 224.992 21.9064C225.909 21.8733 226.497 21.8567 226.756 21.8567C226.781 21.8589 226.806 21.8533 226.828 21.8407C226.849 21.8281 226.866 21.8091 226.877 21.7863C228.114 19.5025 229.164 17.1221 230.017 14.6687C230.083 14.5087 230.201 14.3759 230.353 14.2917C230.426 14.247 230.507 14.2184 230.592 14.2077C230.677 14.1969 230.764 14.2044 230.846 14.2295L231.181 14.3166C231.255 14.3347 231.325 14.3691 231.385 14.4171C231.444 14.4651 231.493 14.5257 231.526 14.5945C231.56 14.6633 231.578 14.7386 231.579 14.8152C231.58 14.8917 231.565 14.9676 231.533 15.0374C230.589 17.2995 229.529 19.5119 228.36 21.6661C228.335 21.7117 228.36 21.7366 228.397 21.7366C230.184 21.6675 232.782 21.5557 236.19 21.401C236.236 21.401 236.248 21.3637 236.223 21.3306C235.483 20.2976 234.766 19.3475 234.073 18.4802ZM233.808 9.18758C233.762 9.10675 233.738 9.01541 233.737 8.92243C233.736 8.86374 233.743 8.80517 233.758 8.74842C233.781 8.67201 233.822 8.60195 233.876 8.54374C233.931 8.48553 233.998 8.44073 234.073 8.41285L234.214 8.34241C234.298 8.30789 234.388 8.28961 234.479 8.28856C234.558 8.2871 234.637 8.30562 234.707 8.34241C234.79 8.36725 234.867 8.40823 234.933 8.46298C235 8.51774 235.056 8.58518 235.096 8.66142C235.703 9.7069 236.38 10.7104 237.122 11.6651C237.839 12.6057 238.617 13.4983 239.45 14.3373C239.506 14.3855 239.551 14.4453 239.582 14.5125C239.613 14.5797 239.629 14.6528 239.629 14.7267C239.629 14.8125 239.611 14.8974 239.578 14.9763C239.544 15.0553 239.495 15.1268 239.434 15.1866C239.345 15.2616 239.262 15.3433 239.185 15.431C239.133 15.4897 239.069 15.5372 238.998 15.5706C238.927 15.6041 238.85 15.6228 238.771 15.6257H238.738C238.664 15.6266 238.59 15.6111 238.523 15.5803C238.456 15.5495 238.396 15.5042 238.348 15.4476C237.503 14.4989 236.706 13.5074 235.962 12.4771C235.184 11.4138 234.465 10.3087 233.808 9.16686V9.18758Z" fill="#9E9E9F"/>
<path d="M256.076 8.72852C256.233 8.73359 256.382 8.8006 256.49 8.91495C256.549 8.97344 256.596 9.04321 256.627 9.12009C256.658 9.19697 256.674 9.27938 256.673 9.36239V22.0564C256.69 22.4264 256.631 22.796 256.499 23.1418C256.435 23.27 256.346 23.3838 256.237 23.4764C256.128 23.569 256.001 23.6384 255.865 23.6804C255.417 23.8544 254.506 23.9456 253.13 23.9456C252.955 23.9449 252.786 23.8818 252.654 23.7674C252.515 23.6552 252.416 23.5012 252.372 23.3283C252.349 23.2382 252.32 23.1496 252.285 23.0631C252.262 23.0003 252.255 22.9328 252.263 22.8664C252.272 22.8001 252.296 22.7368 252.335 22.682C252.369 22.6253 252.419 22.5795 252.479 22.5502C252.538 22.5208 252.605 22.509 252.671 22.5163C253.234 22.5163 253.706 22.5163 254.083 22.5163C254.46 22.5163 254.705 22.5163 254.891 22.5163C255.015 22.5246 255.138 22.4862 255.235 22.4085C255.303 22.3044 255.332 22.1798 255.318 22.0564V10.104C255.318 10.046 255.293 10.017 255.247 10.017H242.984C242.901 10.0182 242.818 10.0023 242.741 9.97019C242.664 9.93812 242.595 9.89059 242.537 9.83054C242.48 9.77715 242.434 9.71307 242.402 9.64197C242.37 9.57088 242.353 9.49417 242.35 9.41625V9.36653C242.349 9.28313 242.365 9.20032 242.397 9.12332C242.429 9.04632 242.477 8.97679 242.537 8.91909C242.595 8.85904 242.664 8.81151 242.741 8.77944C242.818 8.74737 242.901 8.73145 242.984 8.73266L256.076 8.72852ZM252.675 11.902C252.756 11.8998 252.837 11.9141 252.912 11.944C252.988 11.9739 253.056 12.0188 253.114 12.076C253.17 12.1315 253.215 12.1976 253.245 12.2705C253.276 12.3434 253.291 12.4217 253.291 12.5007C253.291 12.5797 253.276 12.6579 253.245 12.7308C253.215 12.8037 253.17 12.8698 253.114 12.9253C253.056 12.9825 252.988 13.0274 252.912 13.0573C252.837 13.0872 252.756 13.1015 252.675 13.0993H243.1C243.019 13.102 242.938 13.0879 242.863 13.058C242.787 13.0281 242.719 12.9829 242.661 12.9253C242.605 12.8698 242.56 12.8037 242.53 12.7308C242.499 12.6579 242.484 12.5797 242.484 12.5007C242.484 12.4217 242.499 12.3434 242.53 12.2705C242.56 12.1976 242.605 12.1315 242.661 12.076C242.719 12.0184 242.787 11.9733 242.863 11.9434C242.938 11.9134 243.019 11.8994 243.1 11.902H252.675ZM252.057 20.1382C252.059 20.2204 252.044 20.3021 252.011 20.3778C251.979 20.4536 251.931 20.5216 251.871 20.5774C251.761 20.6872 251.612 20.7509 251.457 20.7555H245.023C244.977 20.7555 244.952 20.7845 244.952 20.8425V21.4598C244.95 21.5378 244.933 21.6146 244.901 21.6857C244.869 21.7568 244.823 21.8208 244.766 21.8741C244.708 21.9341 244.638 21.9817 244.561 22.0138C244.484 22.0458 244.402 22.0617 244.318 22.0605H244.248C244.085 22.0574 243.93 21.9913 243.815 21.8762C243.7 21.7611 243.634 21.606 243.631 21.4432V15.6431C243.635 15.4866 243.701 15.3381 243.813 15.2288C243.921 15.1145 244.07 15.0474 244.227 15.0424H251.419C251.497 15.0444 251.574 15.062 251.645 15.094C251.716 15.126 251.78 15.1718 251.834 15.2288C251.89 15.2822 251.936 15.3463 251.968 15.4174C252 15.4885 252.018 15.5652 252.02 15.6431L252.057 20.1382ZM250.736 16.2935C250.736 16.2355 250.711 16.2024 250.665 16.2024H245.023C244.977 16.2024 244.952 16.2355 244.952 16.2935V19.4836C244.952 19.5416 244.977 19.5706 245.023 19.5706H250.665C250.711 19.5706 250.736 19.5416 250.736 19.4836V16.2935Z" fill="#9E9E9F"/>
<path d="M261.425 30.3203H75.7998V45.6741H261.425V30.3203Z" fill="#9E9E9F"/>
<path d="M38.8941 30.7934C38.5473 28.3046 37.2693 26.0401 35.3179 24.4571C33.3665 22.874 30.8872 22.0902 28.3804 22.264C25.8736 22.4378 23.5262 23.5562 21.8119 25.3934C20.0976 27.2306 19.1443 29.6498 19.1443 32.1626C19.1443 34.6754 20.0976 37.0946 21.8119 38.9318C23.5262 40.769 25.8736 41.8874 28.3804 42.0612C30.8872 42.235 33.3665 41.4513 35.3179 39.8682C37.2693 38.2851 38.5473 36.0206 38.8941 33.5319C38.9596 33.0748 38.9956 32.614 39.0018 32.1523C38.9951 31.6975 38.9591 31.2436 38.8941 30.7934Z" fill="#81C0E9"/>
<path d="M57.9437 26.0084V0.666016H41.6867V2.92807H41.637V32.3223C41.6328 32.8951 41.5885 33.4668 41.5045 34.0333C41.2296 36.0415 40.4678 37.952 39.2855 39.5982C38.1032 41.2445 36.5361 42.5767 34.721 43.4786C32.9058 44.3805 30.8977 44.8248 28.8715 44.7728C26.8453 44.7208 24.8625 44.174 23.0961 43.1802C21.3296 42.1863 19.833 40.7756 18.7366 39.0708C17.6403 37.366 16.9775 35.419 16.8061 33.3994C16.6346 31.3798 16.9597 29.3489 17.753 27.4837C18.5462 25.6185 19.7836 23.9756 21.3573 22.6982C21.5769 22.5201 21.8006 22.3585 22.0284 22.1969C24.1227 20.6987 26.6332 19.8932 29.2082 19.8935H39.2341V2.92807H29.0466C21.3996 2.93575 14.0681 5.97718 8.66131 11.3848C3.25448 16.7924 0.2141 24.1243 0.20752 31.7713L0.20752 31.8169C0.209092 39.1244 2.98355 46.1592 7.97061 51.5005C12.9577 56.8418 19.7858 60.0917 27.0761 60.5939C34.3663 61.0962 41.5756 58.8134 47.248 54.2064C52.9205 49.5995 56.6334 43.0117 57.6371 35.7734C57.8302 34.4646 57.9312 33.1439 57.9395 31.821C57.9395 31.821 57.9395 31.821 57.9395 31.7962C57.9395 31.7713 57.9395 31.7962 57.9395 31.763V26.0084H57.9437Z" fill="#81C0E9"/>
<path d="M29.084 33.1275L27.4973 27.7168H23.3999V36.6076H25.9561V29.8256L27.9199 36.6076H30.2275L32.1995 29.8256V36.6076H34.7516V27.7168H30.6542L29.084 33.1275Z" fill="white"/>
<path d="M99.6712 33.7305H101.059V39.3649C101.076 39.7038 101.02 40.0424 100.896 40.3581C100.772 40.6738 100.581 40.9595 100.338 41.1961C100.081 41.4288 99.7814 41.6086 99.4551 41.7252C99.1288 41.8418 98.7827 41.8929 98.4366 41.8755C97.7329 41.9209 97.0387 41.694 96.4977 41.2416C96.263 41.0142 96.08 40.7387 95.9614 40.4342C95.8427 40.1296 95.791 39.8031 95.81 39.4767H97.202C97.1891 39.6501 97.2107 39.8242 97.2655 39.9892C97.3202 40.1542 97.4071 40.3067 97.521 40.4379C97.6441 40.5505 97.7886 40.6371 97.9459 40.6926C98.1032 40.7481 98.2701 40.7714 98.4366 40.7611C98.6046 40.7686 98.7722 40.7391 98.9276 40.6747C99.083 40.6102 99.2222 40.5124 99.3356 40.3882C99.5727 40.1001 99.6926 39.7332 99.6712 39.3607V33.7305Z" fill="white"/>
<path d="M103.094 34.244C103.091 34.1494 103.107 34.0552 103.141 33.9669C103.175 33.8786 103.227 33.7982 103.292 33.7303C103.366 33.659 103.454 33.6041 103.55 33.5691C103.647 33.5342 103.75 33.5199 103.852 33.5273C103.955 33.5206 104.058 33.5352 104.155 33.5701C104.252 33.605 104.34 33.6596 104.415 33.7303C104.481 33.7982 104.533 33.8786 104.567 33.9669C104.601 34.0552 104.617 34.1494 104.614 34.244C104.617 34.3373 104.601 34.4302 104.566 34.5171C104.532 34.6039 104.481 34.683 104.415 34.7495C104.339 34.8186 104.25 34.8719 104.154 34.9061C104.057 34.9402 103.954 34.9546 103.852 34.9483C103.75 34.9555 103.648 34.9415 103.551 34.9073C103.455 34.8731 103.367 34.8193 103.292 34.7495C103.227 34.683 103.176 34.6039 103.141 34.5171C103.107 34.4302 103.091 34.3373 103.094 34.244ZM104.519 41.7676H103.176V35.7935H104.519V41.7676Z" fill="white"/>
<path d="M106.545 34.244C106.541 34.1494 106.558 34.0552 106.592 33.9669C106.626 33.8786 106.677 33.7982 106.743 33.7303C106.817 33.659 106.905 33.6041 107.001 33.5691C107.098 33.5342 107.2 33.5199 107.303 33.5273C107.406 33.5206 107.509 33.5352 107.606 33.5701C107.703 33.605 107.791 33.6596 107.866 33.7303C107.932 33.7982 107.984 33.8786 108.018 33.9669C108.052 34.0552 108.068 34.1494 108.065 34.244C108.068 34.3373 108.051 34.4302 108.017 34.5171C107.983 34.6039 107.932 34.683 107.866 34.7495C107.79 34.8186 107.701 34.8719 107.605 34.9061C107.508 34.9402 107.405 34.9546 107.303 34.9483C107.201 34.9555 107.099 34.9415 107.002 34.9073C106.906 34.8731 106.818 34.8193 106.743 34.7495C106.678 34.683 106.626 34.6039 106.592 34.5171C106.558 34.4302 106.542 34.3373 106.545 34.244ZM107.97 41.7676H106.627V35.7935H107.97V41.7676Z" fill="white"/>
<path d="M111.238 35.7944L111.28 36.4863C111.487 36.227 111.752 36.0194 112.053 35.8799C112.354 35.7404 112.684 35.6728 113.016 35.6826C114.259 35.6826 114.893 36.3951 114.917 37.8203V41.7686H113.575V37.899C113.595 37.6025 113.509 37.3085 113.331 37.0705C113.223 36.9725 113.095 36.898 112.957 36.8517C112.819 36.8053 112.672 36.7881 112.527 36.8012C112.275 36.793 112.027 36.8584 111.812 36.9894C111.597 37.1204 111.425 37.3113 111.317 37.5386V41.7686H109.996V35.7944H111.238Z" fill="white"/>
<path d="M122.168 33.7305L124.496 39.891L126.808 33.7305H128.614V41.7678H127.222V39.1163L127.359 35.5741L124.985 41.7678H123.987L121.596 35.5782L121.737 39.1163V41.7678H120.353V33.7305H122.168Z" fill="white"/>
<path d="M130.71 34.2458C130.707 34.1512 130.723 34.0569 130.757 33.9687C130.792 33.8804 130.843 33.7999 130.909 33.732C130.983 33.6612 131.071 33.6066 131.167 33.5716C131.264 33.5367 131.366 33.5222 131.468 33.529C131.571 33.5221 131.675 33.5366 131.771 33.5715C131.868 33.6064 131.957 33.6611 132.032 33.732C132.098 33.7999 132.15 33.8804 132.184 33.9687C132.218 34.0569 132.234 34.1512 132.231 34.2458C132.233 34.3391 132.217 34.432 132.183 34.5188C132.149 34.6057 132.097 34.6847 132.032 34.7512C131.956 34.8208 131.867 34.8743 131.771 34.9085C131.674 34.9427 131.571 34.9568 131.468 34.9501C131.367 34.9567 131.264 34.9425 131.168 34.9083C131.072 34.8741 130.984 34.8207 130.909 34.7512C130.844 34.6847 130.792 34.6057 130.758 34.5188C130.724 34.432 130.708 34.3391 130.71 34.2458ZM132.136 41.7694H130.797V35.7952H132.136V41.7694Z" fill="white"/>
<path d="M135.388 35.7944L135.425 36.4863C135.634 36.2269 135.899 36.0193 136.201 35.8798C136.503 35.7404 136.833 35.6728 137.165 35.6826C138.408 35.6826 139.041 36.3951 139.063 37.8203V41.7686H137.721V37.899C137.741 37.6025 137.654 37.3085 137.476 37.0705C137.368 36.9721 137.241 36.8973 137.103 36.8509C136.964 36.8046 136.818 36.7876 136.672 36.8012C136.421 36.793 136.172 36.8584 135.958 36.9894C135.743 37.1204 135.571 37.3113 135.463 37.5386V41.7686H134.125V35.7944H135.388Z" fill="white"/>
<path d="M140.757 38.7348C140.717 37.9417 140.948 37.1586 141.412 36.5142C141.614 36.2478 141.877 36.0336 142.179 35.8895C142.481 35.7454 142.813 35.6755 143.147 35.6856C143.452 35.6719 143.756 35.7291 144.035 35.8528C144.314 35.9764 144.56 36.1631 144.755 36.3982L144.817 35.7974H146.039V41.5976C146.058 41.9405 146.002 42.2833 145.876 42.6029C145.75 42.9224 145.557 43.2111 145.31 43.4495C144.766 43.9241 144.059 44.1679 143.338 44.1289C142.896 44.1281 142.458 44.0349 142.054 43.8555C141.678 43.7071 141.349 43.461 141.101 43.1429L141.735 42.3143C141.916 42.5447 142.148 42.7306 142.412 42.8577C142.676 42.9848 142.966 43.0497 143.259 43.0476C143.644 43.0685 144.021 42.9393 144.312 42.6872C144.448 42.548 144.553 42.3815 144.62 42.1987C144.687 42.0159 144.715 41.8208 144.701 41.6266V41.2123C144.506 41.4316 144.265 41.6048 143.995 41.7195C143.725 41.8341 143.432 41.8873 143.139 41.8751C142.808 41.8823 142.48 41.8109 142.182 41.6669C141.884 41.5229 141.624 41.3103 141.424 41.0466C140.944 40.375 140.708 39.559 140.757 38.7348ZM142.095 38.8508C142.067 39.3495 142.194 39.8446 142.46 40.2677C142.573 40.4324 142.725 40.5661 142.903 40.6566C143.081 40.7471 143.279 40.7914 143.479 40.7855C143.725 40.7956 143.969 40.7356 144.183 40.6124C144.396 40.4891 144.57 40.3078 144.685 40.0895V37.4629C144.571 37.2477 144.399 37.0694 144.187 36.949C143.976 36.8286 143.734 36.7712 143.491 36.7835C143.289 36.7759 143.089 36.8199 142.908 36.9112C142.728 37.0025 142.573 37.1382 142.46 37.3055C142.186 37.7725 142.059 38.3108 142.095 38.8508Z" fill="white"/>
<path d="M152.95 41.7678H151.558V33.7305H152.95V41.7678Z" fill="white"/>
<path d="M156.347 35.7944L156.384 36.4862C156.593 36.2271 156.858 36.0196 157.16 35.8802C157.462 35.7408 157.792 35.6731 158.124 35.6825C159.367 35.6825 160 36.3951 160.022 37.8203V41.7685H158.684V37.899C158.703 37.6019 158.615 37.3079 158.435 37.0704C158.327 36.9718 158.2 36.8969 158.062 36.8505C157.923 36.8041 157.777 36.7873 157.631 36.8011C157.381 36.7937 157.133 36.8595 156.919 36.9905C156.705 37.1214 156.533 37.3119 156.426 37.5385V41.7685H155.083V35.7944H156.347Z" fill="white"/>
<path d="M161.704 38.7351C161.664 37.9459 161.889 37.166 162.342 36.5186C162.541 36.2528 162.801 36.0387 163.101 35.8945C163.4 35.7503 163.729 35.6802 164.061 35.69C164.35 35.6802 164.637 35.7345 164.902 35.8492C165.167 35.9638 165.404 36.1359 165.594 36.3529V33.2871H166.937V41.7677H165.723L165.656 41.1463C165.464 41.3843 165.218 41.5742 164.939 41.7008C164.66 41.8273 164.355 41.8871 164.049 41.8755C163.72 41.882 163.395 41.8102 163.1 41.6662C162.804 41.5221 162.547 41.3098 162.35 41.0469C161.884 40.3697 161.656 39.5561 161.704 38.7351ZM163.046 38.8511C163.017 39.349 163.138 39.8441 163.394 40.2721C163.502 40.4367 163.651 40.5705 163.826 40.6605C164.001 40.7506 164.196 40.7937 164.393 40.7859C164.644 40.7957 164.892 40.7308 165.105 40.5995C165.319 40.4682 165.489 40.2764 165.594 40.0484V37.5005C165.49 37.2756 165.32 37.0872 165.107 36.9594C164.895 36.8317 164.649 36.7705 164.401 36.7838C164.204 36.7756 164.008 36.8186 163.832 36.9086C163.656 36.9986 163.507 37.1326 163.398 37.2975C163.131 37.7696 163.009 38.3099 163.046 38.8511Z" fill="white"/>
<path d="M172.517 41.1808C172.309 41.4166 172.049 41.6019 171.759 41.7225C171.468 41.8431 171.153 41.8959 170.839 41.8768C170.567 41.8962 170.295 41.8554 170.04 41.7573C169.786 41.6592 169.557 41.5062 169.368 41.3092C169.005 40.8368 168.827 40.2468 168.871 39.652V35.7949H170.214V39.6479C170.214 40.406 170.524 40.7872 171.154 40.7872C171.42 40.8167 171.688 40.7652 171.924 40.6395C172.16 40.5138 172.352 40.3198 172.476 40.0829V35.7949H173.797V41.7691H172.554L172.517 41.1808Z" fill="white"/>
<path d="M179.092 40.1446C179.097 40.0353 179.073 39.9266 179.021 39.8302C178.969 39.7338 178.892 39.6534 178.798 39.5977C178.492 39.4337 178.162 39.3217 177.82 39.2663C177.425 39.1914 177.041 39.069 176.676 38.9017C176.386 38.7973 176.135 38.6069 175.956 38.356C175.777 38.1051 175.678 37.8055 175.674 37.4973C175.672 37.2456 175.729 36.9971 175.843 36.7723C175.956 36.5475 176.121 36.3529 176.324 36.2047C176.799 35.8431 177.385 35.6585 177.981 35.6826C178.603 35.6535 179.215 35.8409 179.713 36.2129C179.923 36.3743 180.092 36.583 180.207 36.8219C180.321 37.0609 180.378 37.3235 180.372 37.5884H179.03C179.032 37.467 179.007 37.3465 178.958 37.2355C178.909 37.1245 178.835 37.0258 178.744 36.9462C178.531 36.7676 178.259 36.6759 177.981 36.6894C177.727 36.677 177.475 36.7483 177.265 36.8924C177.176 36.953 177.104 37.0347 177.055 37.1302C177.005 37.2256 176.981 37.3319 176.983 37.4393C176.98 37.5353 177.003 37.6304 177.048 37.7148C177.094 37.7993 177.162 37.87 177.244 37.9198C177.573 38.0887 177.927 38.2048 178.292 38.2637C178.723 38.3472 179.14 38.4865 179.535 38.678C179.802 38.8109 180.031 39.009 180.202 39.2539C180.355 39.5025 180.431 39.7907 180.422 40.0825C180.425 40.3379 180.366 40.5903 180.25 40.8178C180.134 41.0453 179.964 41.2409 179.755 41.3875C179.24 41.7396 178.625 41.9142 178.002 41.8846C177.553 41.8935 177.107 41.8029 176.697 41.6195C176.336 41.465 176.026 41.2123 175.802 40.8903C175.592 40.6 175.479 40.2505 175.479 39.8919H176.784C176.785 40.033 176.817 40.1722 176.879 40.2991C176.94 40.4261 177.03 40.5375 177.14 40.6252C177.396 40.8062 177.705 40.8966 178.019 40.882C178.303 40.9018 178.586 40.8307 178.827 40.679C178.912 40.6191 178.981 40.5388 179.027 40.4455C179.073 40.3521 179.095 40.2487 179.092 40.1446Z" fill="white"/>
<path d="M183.827 34.3438V35.7938H184.879V36.7881H183.827V40.1025C183.812 40.2779 183.86 40.453 183.964 40.5955C184.029 40.6532 184.105 40.6967 184.188 40.7231C184.271 40.7495 184.358 40.7582 184.444 40.7488C184.602 40.7476 184.759 40.7281 184.913 40.6908V41.7306C184.625 41.8116 184.329 41.8534 184.03 41.8549C182.997 41.8549 182.482 41.2873 182.485 40.1522V36.7881H181.503V35.7938H182.497V34.3438H183.827Z" fill="white"/>
<path d="M189.598 37.0202C189.418 36.9902 189.235 36.975 189.052 36.9746C188.797 36.9503 188.54 37.0052 188.318 37.1321C188.095 37.2589 187.918 37.4513 187.809 37.683V41.768H186.466V35.7938H187.746L187.78 36.4609C187.913 36.2215 188.108 36.0227 188.345 35.8856C188.582 35.7485 188.852 35.6781 189.126 35.682C189.288 35.6783 189.45 35.705 189.603 35.7607L189.598 37.0202Z" fill="white"/>
<path d="M193.099 39.8457L194.313 35.7939H195.755L193.381 42.6712C193.016 43.6766 192.399 44.1792 191.529 44.1792C191.31 44.1759 191.092 44.1425 190.882 44.0798V43.0358H191.135C191.403 43.0547 191.669 42.9895 191.897 42.8494C192.098 42.6934 192.243 42.4769 192.312 42.2321L192.506 41.7183L190.41 35.7773H191.856L193.099 39.8457Z" fill="white"/>
<path d="M206.721 39.1496C206.702 39.53 206.608 39.9029 206.444 40.247C206.281 40.591 206.051 40.8995 205.768 41.1548C205.15 41.6589 204.366 41.9157 203.569 41.8757C202.972 41.8892 202.384 41.731 201.874 41.4199C201.381 41.1081 200.989 40.6588 200.747 40.1273C200.471 39.5154 200.33 38.8514 200.333 38.1801V37.4261C200.324 36.737 200.466 36.0542 200.747 35.4251C200.992 34.8748 201.394 34.4092 201.903 34.0869C202.423 33.7735 203.02 33.6114 203.627 33.6187C204.406 33.5817 205.17 33.839 205.768 34.3396C206.333 34.8731 206.671 35.6026 206.713 36.378H205.321C205.302 35.9175 205.124 35.4779 204.816 35.1351C204.485 34.8564 204.058 34.7181 203.627 34.7498C203.356 34.7383 203.088 34.7931 202.844 34.9093C202.599 35.0256 202.388 35.1998 202.226 35.4168C201.862 35.9999 201.688 36.6819 201.729 37.3681V38.0766C201.684 38.7707 201.846 39.4625 202.193 40.0652C202.342 40.2881 202.547 40.4685 202.786 40.5891C203.026 40.7096 203.292 40.766 203.56 40.7529C204.007 40.7885 204.45 40.6554 204.803 40.38C205.124 40.0434 205.311 39.6016 205.329 39.1372L206.721 39.1496Z" fill="white"/>
<path d="M208.151 38.7266C208.142 38.1791 208.261 37.6372 208.499 37.1439C208.713 36.6962 209.052 36.3205 209.476 36.0626C209.914 35.8045 210.414 35.6726 210.922 35.6815C211.286 35.668 211.648 35.7303 211.986 35.8644C212.324 35.9985 212.63 36.2015 212.886 36.4604C213.411 37.0232 213.707 37.7621 213.714 38.5318V38.8467C213.723 39.3918 213.606 39.9316 213.375 40.4252C213.162 40.8703 212.824 41.2434 212.401 41.4982C211.96 41.7587 211.455 41.8908 210.943 41.8793C210.565 41.8975 210.188 41.8328 209.838 41.6896C209.488 41.5465 209.174 41.3284 208.917 41.0507C208.379 40.4208 208.104 39.6076 208.151 38.7804V38.7266ZM209.493 38.8426C209.464 39.3513 209.598 39.8561 209.874 40.2843C209.998 40.4474 210.158 40.5797 210.342 40.6707C210.525 40.7618 210.728 40.8091 210.933 40.8091C211.137 40.8091 211.34 40.7618 211.523 40.6707C211.707 40.5797 211.867 40.4474 211.991 40.2843C212.273 39.8188 212.405 39.2778 212.368 38.7348C212.396 38.2262 212.26 37.722 211.979 37.2972C211.86 37.1281 211.702 36.991 211.517 36.8984C211.333 36.8059 211.128 36.7607 210.922 36.7669C210.719 36.7618 210.517 36.8067 210.335 36.8978C210.153 36.9888 209.996 37.1231 209.878 37.2889C209.591 37.754 209.456 38.2972 209.493 38.8426Z" fill="white"/>
<path d="M216.242 40.3551C216.347 40.3483 216.453 40.3635 216.552 40.3999C216.651 40.4363 216.742 40.493 216.818 40.5664C216.886 40.6365 216.939 40.7196 216.975 40.8106C217.01 40.9017 217.027 40.999 217.025 41.0967C217.028 41.1932 217.011 41.2893 216.975 41.3791C216.939 41.4689 216.886 41.5504 216.818 41.6187C216.741 41.6916 216.651 41.7477 216.552 41.7833C216.452 41.819 216.347 41.8335 216.242 41.8259C216.138 41.8318 216.034 41.8168 215.935 41.782C215.837 41.7471 215.747 41.693 215.67 41.6228C215.601 41.5539 215.548 41.4717 215.512 41.3812C215.476 41.2907 215.46 41.1939 215.463 41.0967C215.46 40.9992 215.476 40.9022 215.511 40.8111C215.546 40.72 215.598 40.6369 215.666 40.5664C215.742 40.4932 215.832 40.4366 215.932 40.4003C216.031 40.3639 216.136 40.3485 216.242 40.3551Z" fill="white"/>
<path d="M224.035 40.6533H227.68V41.7678H222.634V33.7305H224.035V40.6533Z" fill="white"/>
<path d="M230.866 34.3438V35.7938H231.923V36.7881H230.866V40.1025C230.851 40.2779 230.9 40.453 231.003 40.5955C231.069 40.6529 231.146 40.6961 231.23 40.7225C231.313 40.7488 231.401 40.7578 231.488 40.7488C231.646 40.7476 231.803 40.7281 231.956 40.6908V41.7306C231.669 41.8108 231.372 41.8526 231.074 41.8549C230.041 41.8549 229.525 41.2873 229.528 40.1522V36.7881H228.542V35.7938H229.528V34.3438H230.866Z" fill="white"/>
<path d="M233.261 38.7351C233.221 37.9459 233.446 37.166 233.899 36.5186C234.098 36.2528 234.358 36.0387 234.657 35.8945C234.957 35.7503 235.286 35.6802 235.618 35.69C235.907 35.6808 236.194 35.7354 236.459 35.85C236.724 35.9646 236.96 36.1363 237.151 36.3529V33.2871H238.493V41.7677H237.28L237.213 41.1463C237.02 41.3843 236.775 41.5742 236.496 41.7008C236.217 41.8273 235.912 41.8871 235.606 41.8755C235.277 41.882 234.952 41.8102 234.656 41.6662C234.361 41.5221 234.104 41.3098 233.907 41.0469C233.441 40.3697 233.213 39.5561 233.261 38.7351ZM234.599 38.8511C234.571 39.3494 234.694 39.8445 234.951 40.2721C235.058 40.4367 235.206 40.5705 235.38 40.6606C235.555 40.7507 235.749 40.7938 235.946 40.7859C236.197 40.7959 236.446 40.7313 236.66 40.6C236.875 40.4687 237.046 40.2768 237.151 40.0484V37.5005C237.045 37.2729 236.873 37.0825 236.657 36.9546C236.441 36.8267 236.192 36.7671 235.941 36.7838C235.744 36.7751 235.548 36.818 235.372 36.908C235.196 36.9981 235.047 37.1323 234.939 37.2975C234.676 37.7708 234.557 38.3111 234.599 38.8511Z" fill="white"/>
<path d="M241.294 40.355C241.4 40.3486 241.506 40.364 241.606 40.4004C241.706 40.4367 241.797 40.4932 241.874 40.5663C241.942 40.6367 241.994 40.7199 242.029 40.811C242.064 40.902 242.08 40.9991 242.077 41.0966C242.081 41.1929 242.065 41.2889 242.03 41.3786C241.995 41.4684 241.942 41.5501 241.874 41.6186C241.797 41.6912 241.706 41.747 241.606 41.7826C241.506 41.8183 241.4 41.833 241.294 41.8257C241.19 41.8316 241.086 41.8167 240.988 41.7819C240.89 41.747 240.799 41.6929 240.722 41.6227C240.654 41.5538 240.6 41.4716 240.564 41.3811C240.529 41.2906 240.512 41.1938 240.515 41.0966C240.512 40.9991 240.529 40.902 240.563 40.811C240.598 40.7199 240.651 40.6367 240.718 40.5663C240.794 40.4931 240.885 40.4365 240.984 40.4002C241.083 40.3638 241.189 40.3484 241.294 40.355Z" fill="white"/>
</svg>
