<svg width="240" height="61" viewBox="0 0 240 61" fill="none" xmlns="http://www.w3.org/2000/svg">
<path d="M215.048 11.3438C196.912 11.3438 183.044 20.7923 183.044 37.251C183.044 51.1191 195.676 60.9571 212.626 60.9571C225.495 60.9571 236.18 51.644 239.228 45.7175C239.228 43.8718 237.399 43.1268 235.706 43.1268C232.742 47.6648 224.411 51.1191 220.974 50.9836C200.468 50.2386 197.15 42.0261 196.912 33.4581C196.421 24.1111 206.581 16.0172 215.166 16.6945C220.246 17.0671 221.939 25.2795 226.308 28.2258C228.463 28.8781 230.75 28.9597 232.946 28.4629C234.639 28.2258 238.821 27.2437 238.821 23.5862C238.821 20.4875 235.011 17.0671 231.337 14.8658C226.139 12.7988 220.635 11.6086 215.048 11.3438Z" fill="white"/>
<path d="M93.842 46.9201C93.842 54.5399 91.9116 58.5868 85.748 58.9424L85.8835 60.1954C96.1787 60.06 106.66 60.1954 116.667 59.9584L116.786 59.3319C112.146 59.3319 108.557 54.4213 108.557 48.2916V27.8029C108.557 22.723 114.703 19.5735 118.869 19.946C125.354 20.5386 129.028 24.7041 129.028 28.4124V48.5287C129.028 54.6753 127.183 58.4852 122.408 58.8239V59.9584H150.533V59.0271C146.351 58.536 143.421 54.7431 143.421 48.9689V27.9044C143.421 23.3834 147.35 20.3016 154.36 20.2C155.579 20.1057 156.805 20.2582 157.963 20.6484C159.122 21.0386 160.19 21.6585 161.104 22.471C162.018 23.2835 162.758 24.2719 163.281 25.3772C163.804 26.4824 164.099 27.6818 164.147 28.9035V48.0207C164.147 54.5399 162.2 58.5868 157.374 59.0779V59.9584C167.686 60.06 176.136 60.06 186.329 59.9584V59.3319C180.945 59.3319 179.099 55.759 179.099 48.2916V27.1763C179.099 20.2 175.289 11.9367 164.604 11.9367C157.374 11.9367 152.074 15.4757 149.043 16.4748C146.943 17.3214 145.47 18.3035 144.979 18.3035C144.305 18.2039 143.658 17.9697 143.076 17.6148C142.494 17.2599 141.99 16.7916 141.593 16.2377C139.019 13.4946 134.362 11.9367 129.452 11.9367C123.17 11.9367 116.921 15.4757 113.975 16.4748C113.636 16.5933 111.418 17.6939 111.147 17.6939C110.876 17.6939 108.692 17.6939 108.692 17.4569C108.692 11.5642 109.065 14.5105 108.844 10.3281H104.645C103.443 10.3281 101.259 12.5463 98.888 13.4946C95.9416 14.7476 90.049 14.6121 87.6107 15.1879V19.3364L93.9774 20.5556V28.6664L93.842 46.9201Z" fill="white"/>
<path d="M66.2412 60.0595C77.0444 59.5684 87.475 57.2486 87.475 46.8179C87.475 39.2151 79.1271 34.4231 70.3051 30.6132C64.6495 28.2764 56.454 24.856 56.454 22.1467C56.454 18.9464 62.6853 12.8167 68.6965 17.7273L79.1271 26.4477L83.9191 25.4487L81.2776 12.4611C78.8054 12.5797 77.0782 12.7151 68.1208 11.225C57.0466 9.63335 43.9406 15.1704 43.9406 25.4487C43.9406 32.3403 53.8971 37.1154 61.754 40.3157C66.0549 42.1445 73.607 44.8537 73.607 49.0192C73.607 53.1847 66.4952 54.0991 62.4482 54.0991C55.5735 54.0991 47.9537 44.8707 47.9537 44.8707H43.4326L45.8879 58.6371C47.3269 58.0273 48.9239 57.8967 50.4428 58.2646C55.5867 59.6645 60.9144 60.2697 66.2412 60.0595Z" fill="white"/>
<path d="M40.2325 18.3882V11.9537L26.8555 12.0892C25.1623 12.0892 25.2639 11.7336 25.2639 9.51539L25.3993 0.794959L18.6262 0.693359C16.5604 5.33297 13.9696 8.41475 12.5134 9.02434L0 14.5275V18.4729L4.67347 18.5914C6.77315 18.5914 7.61979 18.4729 7.61979 20.9112V46.8185C7.61979 54.6754 11.9038 60.3648 22.9779 60.6865C26.1293 60.818 29.2722 60.2707 32.1936 59.0817C35.1151 57.8926 37.7469 56.0897 39.9108 53.7949L38.9456 50.5607C37.6364 51.6675 36.0011 52.3156 34.2891 52.4064C24.8405 52.4064 25.0776 45.0236 25.0776 38.5214V20.9112C25.0776 18.3544 25.3147 18.3543 27.0418 18.3543L40.2325 18.3882Z" fill="white"/>
</svg>
