<svg width="1447" height="719" viewBox="0 0 1447 719" fill="none" xmlns="http://www.w3.org/2000/svg">
<path d="M2 2H1442V717H2V2Z" fill="#323030"/>
<path d="M188.725 621.737H1262.86M296.181 564.663H1155.41M367.796 526.636H1083.79M418.963 499.473H1032.64M904.773 479.107L1203.27 716.838M815.279 479.107L964.529 716.838M725.803 479.107V716.838M636.309 479.107L487.059 716.838M546.816 479.107L248.332 716.838M456.655 436.642L2.30021 573.558M456.655 389.914L2.58374 430.452M456.672 343.186L2.86721 287.498M456.672 296.48L3.15074 144.695M175.416 96.0621L174.716 628.165M277.435 151.816L277.051 575.615M344.964 188.739L344.747 540.855M392.979 214.971L392.846 516.16M428.853 234.58L428.77 497.72M989.746 431.253L1441.7 574.511M989.48 385.304L1441.38 431.859M989.229 339.312L1441.07 288.905M988.979 293.277L1440.77 145.647M1267.08 96.1704L1268.92 625.07M1165.38 151.361L1167.17 571.113M1098.52 187.635L1100.17 535.596M1051.2 213.304L1052.72 510.446M1015.98 232.437L1017.36 491.703M188.725 100.651H1262.86M296.181 159.824H1155.41M367.796 199.279H1083.79M418.963 227.437H1032.64M904.773 248.583L1203.27 2M815.279 248.583L964.529 2M725.803 248.583V2M636.309 248.583L487.059 2M546.816 248.583L248.332 2M457.322 479.107H994.266L1442 716.838H9.58844L457.322 479.107ZM456.689 249.795L3.45097 2.06474L2 716.859L456.639 483.392L456.689 249.795ZM988.712 247.241L1440.45 2.06491L1442 716.859L989.997 477.18L988.712 247.241ZM457.322 248.561H994.266L1442 2H9.58844L457.322 248.561Z" stroke="url(#paint0_radial_1306_913)" stroke-width="2" stroke-miterlimit="10"/>
<defs>
<radialGradient id="paint0_radial_1306_913" cx="0" cy="0" r="1" gradientUnits="userSpaceOnUse" gradientTransform="translate(722 359.43) rotate(90) scale(357.43 720)">
<stop offset="0.140625"/>
<stop offset="0.520833" stop-color="#3D2567"/>
<stop offset="0.979167" stop-color="#4C2A84"/>
</radialGradient>
</defs>
</svg>
