<svg width="411" height="725" viewBox="0 0 411 725" fill="none" xmlns="http://www.w3.org/2000/svg">
<rect width="411" height="725" fill="#323030"/>
<path d="M357.31 628.989L357.31 88.1905M324.496 574.888L324.496 142.291M302.633 538.832L302.633 178.347M287.016 513.071L287.016 204.1M275.307 268.479L411.988 118.192M275.307 313.536L411.988 238.393M275.307 358.586H411.988M275.307 403.643L411.988 478.786M275.307 448.7L411.988 598.979M250.893 494.094L329.611 722.849M224.027 494.094L247.334 722.706M197.161 494.085L165.144 722.563M170.308 494.085L83.0407 722.421M55.0799 635.69L361.006 636.042M87.1347 584.326L330.793 584.519M108.363 550.327L310.809 550.437M123.445 526.153L296.61 526.22M134.719 508.091L286.008 508.133M247.794 225.697L330.158 -1.84879M221.376 225.831L248.143 -1.68931M194.934 225.957L165.952 -1.5297M168.466 226.083L83.5882 -1.37863M55.1421 86.0661L359.227 85.1424M86.8734 137.27L328.205 136.372M107.729 170.933L307.785 170.102M122.487 194.755L293.325 193.991M133.487 212.489L282.549 211.792M57.718 628.989L57.718 88.1905M91.7388 574.888L91.7388 142.291M114.423 538.832L114.423 178.347M130.613 513.071L130.613 204.1M142.77 268.479L1 118.192M142.77 313.536L1 238.393M142.77 358.586H1M142.77 403.643L1 478.786M142.77 448.7L1 598.979M275.307 493.758L275.307 223.422L411.988 -2.00004L411.988 719.179L275.307 493.758ZM143.467 494.077L1.03722 722.269L412 723L277.771 494.102L143.467 494.077ZM141.999 226.218L1.03732 -1.21908L412 -1.99998L274.199 225.571L141.999 226.218ZM142.758 493.758L142.758 223.422L1 -2.00004L1 719.179L142.758 493.758Z" stroke="url(#paint0_radial_1359_971)" stroke-width="2" stroke-miterlimit="10"/>
<defs>
<radialGradient id="paint0_radial_1359_971" cx="0" cy="0" r="1" gradientUnits="userSpaceOnUse" gradientTransform="translate(206.5 360.5) scale(205.5 362.5)">
<stop offset="0.213542" stop-color="#2D2A2A"/>
<stop offset="0.6875" stop-color="#323030"/>
<stop offset="0.979167" stop-color="#422572"/>
</radialGradient>
</defs>
</svg>
