<svg width="315" height="251" viewBox="0 0 315 251" fill="none" xmlns="http://www.w3.org/2000/svg">
<path d="M64.6174 37.3777L39.2853 43.6858C38.167 44.0289 36.9562 43.9478 35.8971 43.4591C34.8379 42.9703 34.0093 42.1102 33.5783 41.0522L31.6759 35.028C31.55 34.5023 31.535 33.9574 31.6316 33.4259C31.7283 32.8945 31.9347 32.3874 32.2384 31.9353C32.5421 31.4831 32.9369 31.0951 33.399 30.7946C33.8612 30.4941 34.3812 30.2873 34.9278 30.1865L60.016 23.8784C61.1312 23.5359 62.3379 23.6077 63.4016 24.0798C64.4653 24.5519 65.3101 25.3907 65.7718 26.4332L67.8367 32.5205C67.9702 33.0453 67.9919 33.5909 67.9005 34.1241C67.8091 34.6573 67.6066 35.1667 67.3053 35.6214C67.0039 36.076 66.6101 36.4663 66.148 36.7683C65.6858 37.0703 65.165 37.2776 64.6174 37.3777Z" fill="url(#paint0_linear_226_1002)" stroke="url(#paint1_linear_226_1002)" stroke-width="2.5" stroke-miterlimit="10"/>
<path d="M64.6173 37.3778L64.3925 36.1482L64.3536 36.1553L64.3152 36.1649L64.6173 37.3778ZM39.2852 43.6859L38.9831 42.473L38.9506 42.4811L38.9186 42.4909L39.2852 43.6859ZM33.5781 41.0523L32.3862 41.4287L32.4014 41.477L32.4205 41.5239L33.5781 41.0523ZM31.6758 35.0281L30.4602 35.3192L30.4705 35.3622L30.4838 35.4045L31.6758 35.0281ZM34.9277 30.1866L35.1542 31.4159L35.1936 31.4086L35.2325 31.3989L34.9277 30.1866ZM60.0159 23.8785L60.3207 25.0908L60.352 25.0829L60.3829 25.0734L60.0159 23.8785ZM65.7717 26.4333L66.9554 26.0317L66.9374 25.9785L66.9146 25.9271L65.7717 26.4333ZM67.8366 32.5206L69.048 32.2125L69.036 32.1652L69.0204 32.119L67.8366 32.5206ZM70.8608 44.3956L72.1054 44.512L72.1055 44.5112L70.8608 44.3956ZM12.3109 41.4465L13.5507 41.6056L13.5509 41.6042L12.3109 41.4465ZM144.191 143.275L143.98 142.043L143.969 142.045L144.191 143.275ZM142.061 143.464L142.056 144.714H142.06L142.061 143.464ZM93.8516 143.275L93.8565 142.025L91.8641 142.017L92.724 143.814L93.8516 143.275ZM122.712 203.596L123.846 203.071L123.843 203.064L123.84 203.057L122.712 203.596ZM123.785 206.277L124.981 205.913L124.975 205.894L124.969 205.875L123.785 206.277ZM111.786 237.896L112.438 238.962L112.447 238.957L112.455 238.952L111.786 237.896ZM82.1448 231.588L83.2132 230.939L83.2069 230.929L82.1448 231.588ZM80.8116 229.049L81.9573 228.549L81.954 228.542L80.8116 229.049ZM35.3829 126.763L34.2405 127.271L34.2405 127.271L35.3829 126.763ZM46.6344 96.595L47.27 97.6714L47.2757 97.668L46.6344 96.595ZM54.0162 93.7091L54.274 94.9322L54.3568 94.9147L54.4365 94.8863L54.0162 93.7091ZM57.7395 93.0625L57.7415 94.3125L57.7456 94.3125L57.7395 93.0625ZM141.687 92.6525L141.693 93.9025L141.701 93.9024L141.687 92.6525ZM143.703 92.8102L143.916 91.5784L143.912 91.5777L143.703 92.8102ZM194.53 87.3379L194.754 88.5675L194.757 88.5671L194.53 87.3379ZM196.627 87.1487L196.624 88.3987L196.635 88.3986L196.627 87.1487ZM245.405 86.849L245.413 88.099L247.606 88.0855L246.477 86.2053L245.405 86.849ZM213.081 33.041L214.153 32.3973L214.147 32.3877L213.081 33.041ZM211.943 30.8332L213.094 30.3444L213.09 30.336L211.943 30.8332ZM249.632 8.45522L248.676 9.25974L248.684 9.26938L249.632 8.45522ZM251.112 10.458L250.055 11.1251L250.059 11.1314L251.112 10.458ZM310.134 102.777L311.194 102.115L311.187 102.104L310.134 102.777ZM302.394 134.964L301.736 133.901L301.736 133.901L302.394 134.964ZM294.427 138.118L294.178 136.893L294.098 136.909L294.021 136.936L294.427 138.118ZM290.281 138.796L290.288 137.546H290.287L290.281 138.796ZM198.611 138.339L198.617 137.089L198.615 137.089L198.611 138.339ZM196.448 138.118L196.697 136.893L196.683 136.89L196.668 136.888L196.448 138.118ZM64.3152 36.1649L38.9831 42.473L39.5872 44.8989L64.9193 38.5908L64.3152 36.1649ZM38.9186 42.4909C38.0935 42.744 37.1997 42.6837 36.4207 42.3242L35.3732 44.5942C36.7125 45.2122 38.2403 45.3139 39.6518 44.881L38.9186 42.4909ZM36.4207 42.3242C35.6426 41.9651 35.0445 41.3384 34.7358 40.5807L32.4205 41.5239C32.9739 42.8822 34.033 43.9757 35.3732 44.5942L36.4207 42.3242ZM34.7701 40.6759L32.8678 34.6517L30.4838 35.4045L32.3862 41.4287L34.7701 40.6759ZM32.8914 34.737C32.8059 34.3799 32.7958 34.0103 32.8613 33.6497L30.4017 33.2024C30.274 33.9046 30.2939 34.6249 30.4602 35.3192L32.8914 34.737ZM32.8613 33.6497C32.9269 33.289 33.0673 32.9429 33.2759 32.6323L31.2006 31.2384C30.8018 31.8322 30.5294 32.5001 30.4017 33.2024L32.8613 33.6497ZM33.2759 32.6323C33.4846 32.3217 33.7576 32.0525 34.0803 31.8426L32.7175 29.7467C32.1159 30.1379 31.5994 30.6447 31.2006 31.2384L33.2759 32.6323ZM34.0803 31.8426C34.4031 31.6327 34.7683 31.487 35.1542 31.4159L34.7011 28.9573C33.9938 29.0877 33.319 29.3556 32.7175 29.7467L34.0803 31.8426ZM35.2325 31.3989L60.3207 25.0908L59.7111 22.6662L34.6229 28.9743L35.2325 31.3989ZM60.3829 25.0734C61.2107 24.8192 62.1069 24.8729 62.8943 25.2224L63.9086 22.9374C62.5686 22.3426 61.0515 22.2528 59.6489 22.6836L60.3829 25.0734ZM62.8943 25.2224C63.681 25.5716 64.2955 26.1871 64.6288 26.9395L66.9146 25.9271C66.3244 24.5945 65.2493 23.5325 63.9086 22.9374L62.8943 25.2224ZM64.5879 26.8348L66.6529 32.9221L69.0204 32.119L66.9554 26.0317L64.5879 26.8348ZM66.6252 32.8287C66.7155 33.1839 66.7301 33.5526 66.6684 33.913L69.1324 34.3353C69.2534 33.6294 69.2246 32.9068 69.048 32.2125L66.6252 32.8287ZM66.6684 33.913C66.6066 34.2734 66.4694 34.6199 66.2632 34.9309L68.3471 36.3121C68.7436 35.7138 69.0115 35.0413 69.1324 34.3353L66.6684 33.913ZM66.2632 34.9309C66.057 35.2421 65.7857 35.5118 65.4641 35.722L66.8316 37.8148C67.4343 37.4209 67.9506 36.9102 68.3471 36.3121L66.2632 34.9309ZM65.4641 35.722C65.1424 35.9322 64.7779 36.0778 64.3925 36.1482L64.842 38.6075C65.5519 38.4777 66.229 38.2086 66.8316 37.8148L65.4641 35.722ZM69.6163 44.2791C67.926 62.3436 53.4291 76.219 37.6981 75.3189L37.5553 77.8148C54.8959 78.8071 70.3162 63.6338 72.1054 44.512L69.6163 44.2791ZM37.6981 75.3189C22.0584 74.4239 11.2782 59.3158 13.5507 41.6056L11.0711 41.2874C8.66094 60.0696 20.1236 76.8173 37.5553 77.8148L37.6981 75.3189ZM13.5509 41.6042C15.7613 24.2232 29.8569 11.1842 44.8961 11.7545L44.9908 9.25625C28.4217 8.62797 13.4131 22.8715 11.0709 41.2888L13.5509 41.6042ZM44.8961 11.7545C59.8335 12.3209 71.2556 26.6365 69.6162 44.2799L72.1055 44.5112C73.8481 25.757 61.6616 9.88838 44.9908 9.25625L44.8961 11.7545ZM143.969 142.045C143.34 142.158 142.701 142.214 142.061 142.214L142.06 144.714C142.849 144.715 143.636 144.645 144.412 144.505L143.969 142.045ZM142.065 142.214L93.8565 142.025L93.8467 144.525L142.056 144.714L142.065 142.214ZM92.724 143.814L121.584 204.136L123.84 203.057L94.9792 142.735L92.724 143.814ZM121.578 204.121C121.964 204.956 122.306 205.81 122.602 206.679L124.969 205.875C124.645 204.922 124.27 203.986 123.846 203.071L121.578 204.121ZM122.589 206.641C124.279 212.197 124.077 218.133 122.014 223.57L124.351 224.457C126.611 218.503 126.832 212 124.981 205.913L122.589 206.641ZM122.014 223.57C119.95 229.008 116.132 233.663 111.117 236.84L112.455 238.952C117.917 235.491 122.092 230.41 124.351 224.457L122.014 223.57ZM111.133 236.83C100.833 243.136 88.8915 240.286 83.2131 230.939L81.0765 232.237C87.5276 242.856 101.049 245.935 112.438 238.962L111.133 236.83ZM83.2069 230.929C82.7329 230.165 82.3153 229.37 81.9573 228.549L79.6659 229.549C80.0721 230.48 80.5456 231.382 81.0827 232.247L83.2069 230.929ZM81.954 228.542L36.5253 126.256L34.2405 127.271L79.6692 229.557L81.954 228.542ZM36.5253 126.256C32.2244 116.572 36.9567 103.761 47.27 97.6714L45.9989 95.5187C34.7848 102.14 29.3386 116.233 34.2405 127.271L36.5253 126.256ZM47.2757 97.668C49.431 96.3797 51.7973 95.4543 54.274 94.9322L53.7583 92.486C51.013 93.0647 48.3873 94.091 45.9931 95.5221L47.2757 97.668ZM54.4365 94.8863C55.4941 94.5087 56.6129 94.3143 57.7415 94.3125L57.7376 91.8125C56.3249 91.8147 54.923 92.058 53.5958 92.5319L54.4365 94.8863ZM57.7456 94.3125L141.693 93.9025L141.68 91.4025L57.7334 91.8125L57.7456 94.3125ZM141.701 93.9024C142.302 93.8954 142.902 93.9424 143.494 94.0426L143.912 91.5777C143.172 91.4525 142.422 91.3939 141.672 91.4026L141.701 93.9024ZM143.49 94.0419C147.229 94.6885 150.728 97.3837 153.352 101.609C155.968 105.822 157.643 111.46 157.753 117.733L160.253 117.689C160.135 111.016 158.355 104.928 155.476 100.29C152.603 95.6644 148.566 92.3827 143.916 91.5785L143.49 94.0419ZM157.753 117.733C157.863 124.004 156.353 129.799 153.82 134.172C151.279 138.559 147.79 141.392 143.98 142.043L144.401 144.507C149.176 143.691 153.207 140.216 155.983 135.425C158.767 130.619 160.37 124.366 160.253 117.689L157.753 117.733ZM194.757 88.5671C195.372 88.4535 195.997 88.397 196.624 88.3986L196.63 85.8987C195.849 85.8966 195.07 85.967 194.303 86.1087L194.757 88.5671ZM196.635 88.3986L245.413 88.099L245.397 85.599L196.619 85.8987L196.635 88.3986ZM246.477 86.2053L214.153 32.3973L212.01 33.6847L244.334 87.4927L246.477 86.2053ZM214.147 32.3877C213.745 31.732 213.393 31.0491 213.094 30.3444L210.793 31.3219C211.141 32.1408 211.549 32.9337 212.016 33.6943L214.147 32.3877ZM213.09 30.336C209.371 21.7573 213.055 11.1289 222.201 5.76436L220.936 3.60792C210.832 9.53482 206.516 21.4579 210.796 31.3304L213.09 30.336ZM222.201 5.76436C231.367 0.388262 242.644 2.08637 248.676 9.2597L250.589 7.65075C243.679 -0.567661 231.022 -2.30747 220.936 3.60792L222.201 5.76436ZM248.684 9.26938C249.187 9.85527 249.645 10.4755 250.055 11.1251L252.169 9.79099C251.694 9.03771 251.163 8.31921 250.581 7.64107L248.684 9.26938ZM250.059 11.1314L309.08 103.45L311.187 102.104L252.165 9.78473L250.059 11.1314ZM309.073 103.439C312.194 108.44 313.172 114.421 311.805 120.107L314.236 120.691C315.761 114.348 314.667 107.681 311.194 102.115L309.073 103.439ZM311.805 120.107C310.438 125.793 306.829 130.747 301.736 133.901L303.052 136.027C308.692 132.534 312.711 127.033 314.236 120.691L311.805 120.107ZM301.736 133.901C299.425 135.333 296.865 136.347 294.178 136.893L294.676 139.343C297.65 138.739 300.489 137.615 303.053 136.027L301.736 133.901ZM294.021 136.936C292.823 137.347 291.56 137.554 290.288 137.546L290.273 140.046C291.826 140.055 293.368 139.803 294.833 139.3L294.021 136.936ZM290.287 137.546L198.617 137.089L198.604 139.589L290.275 140.046L290.287 137.546ZM198.615 137.089C197.97 137.087 197.328 137.021 196.697 136.893L196.199 139.343C196.991 139.504 197.798 139.586 198.607 139.589L198.615 137.089ZM196.668 136.888C192.711 136.179 189.008 133.313 186.216 128.911C183.432 124.522 181.627 118.708 181.438 112.36L178.939 112.434C179.141 119.191 181.06 125.449 184.104 130.25C187.141 135.038 191.373 138.48 196.228 139.348L196.668 136.888ZM181.438 112.36C181.249 106.007 182.679 100.366 185.123 96.1607C187.571 91.9498 190.981 89.2573 194.754 88.5675L194.305 86.1083C189.624 86.964 185.668 90.2484 182.962 94.9043C180.252 99.5661 178.738 105.681 178.939 112.434L181.438 112.36Z" fill="url(#paint2_linear_226_1002)"/>
<g opacity="0.25">
<path d="M59.4033 52.3012C57.8912 70.9732 42.9814 85.6079 26.2667 84.6144C9.55212 83.6209 -1.86195 67.693 0.251771 49.3364C2.33297 31.4214 16.8363 17.5909 32.8193 18.2533C48.8022 18.9156 60.8992 34.0078 59.4033 52.3012Z" fill="#6FBFD3"/>
<path d="M134.749 151.732C134.041 151.859 133.323 151.923 132.603 151.922L83.9063 151.622L113.824 212.274C114.259 213.148 114.633 214.049 114.945 214.971C116.834 220.791 116.712 227.049 114.599 232.796C112.486 238.543 108.497 243.463 103.239 246.811C92.3612 253.498 79.4675 250.517 73.2076 240.503C72.6892 239.682 72.2275 238.829 71.8256 237.948L24.6735 135.111C19.9257 124.655 24.8035 111.14 35.616 104.753C37.9025 103.379 40.4161 102.397 43.0465 101.851C44.2454 101.427 45.51 101.203 46.7862 101.189L131.562 100.81C132.292 100.786 133.023 100.839 133.741 100.968C142.229 102.419 149.106 112.985 149.513 125.995C149.919 139.006 143.497 150.203 134.749 151.732Z" fill="#6FBFD3"/>
<path d="M184.86 95.4486C185.557 95.3218 186.265 95.2585 186.974 95.2594L236.305 94.9597L202.892 40.8836C202.444 40.1723 202.053 39.429 201.721 38.66C197.559 29.4029 201.445 18.1587 211.103 12.3868C220.761 6.61493 232.923 8.44428 239.427 16.1717C240.014 16.8092 240.557 17.4835 241.053 18.1903L301.928 110.982C305.37 116.238 306.519 122.604 305.123 128.682C303.726 134.759 299.898 140.05 294.481 143.39C292.032 144.912 289.315 145.981 286.465 146.544C285.129 147.004 283.72 147.233 282.303 147.222L189.624 146.749C188.888 146.745 188.153 146.676 187.429 146.544C178.503 144.967 171.17 133.928 170.666 120.665C170.162 107.402 176.34 96.9941 184.86 95.4486Z" fill="#6FBFD3"/>
</g>
<defs>
<linearGradient id="paint0_linear_226_1002" x1="31.5535" y1="33.1127" x2="68.0411" y2="34.571" gradientUnits="userSpaceOnUse">
<stop offset="0.12" stop-color="#F5C827"/>
<stop offset="1" stop-color="#FF9F4B"/>
</linearGradient>
<linearGradient id="paint1_linear_226_1002" x1="31.5688" y1="23.665" x2="69.1783" y2="76.4254" gradientUnits="userSpaceOnUse">
<stop stop-color="#FF62A5"/>
<stop offset="1" stop-color="#0029FF"/>
</linearGradient>
<linearGradient id="paint2_linear_226_1002" x1="218.398" y1="-60.5542" x2="59.6716" y2="301.455" gradientUnits="userSpaceOnUse">
<stop offset="0.270833" stop-color="#FF62A5"/>
<stop offset="0.854167" stop-color="#623FDC"/>
<stop offset="1" stop-color="#0029FF"/>
</linearGradient>
</defs>
</svg>
