<svg width="258" height="100" viewBox="0 0 258 100" fill="none" xmlns="http://www.w3.org/2000/svg">
<path d="M40.8867 11.9847H13.704L8.65836 7.01013L13.704 2H40.8867L45.8968 7.01013L40.8867 11.9847Z" stroke="url(#paint0_linear_226_1001)" stroke-width="2.5" stroke-linecap="round"/>
<path d="M40.8867 55.1927H13.704L8.65836 50.1825L13.704 45.1724H40.8867L45.8968 50.1825L40.8867 55.1927Z" stroke="url(#paint1_linear_226_1001)" stroke-width="2.5" stroke-linecap="round"/>
<path d="M40.8867 55.1927H13.704L8.65836 50.1825L13.704 45.1724H40.8867L45.8968 50.1825L40.8867 55.1927Z" stroke="url(#paint2_linear_226_1001)" stroke-width="2.5" stroke-linecap="round"/>
<path d="M11.3231 57.6444V86.0707L6.34851 91.3651L1.33838 86.0707V57.6444L6.34851 52.3856L11.3231 57.6444Z" stroke="url(#paint3_linear_226_1001)" stroke-width="2.5" stroke-linecap="round"/>
<path d="M52.719 14.5786V43.0049L47.7088 48.2993L42.6987 43.0049V14.5786L47.7088 9.31977L52.719 14.5786Z" stroke="url(#paint4_linear_226_1001)" stroke-width="2.5" stroke-linecap="round"/>
<path d="M40.8867 98.3651H13.704L8.65836 93.355L13.704 88.3449H40.8867L45.8968 93.355L40.8867 98.3651Z" stroke="url(#paint5_linear_226_1001)" stroke-width="2.5" stroke-linecap="round"/>
<path d="M176.515 11.9847H149.368L144.323 7.01013L149.368 2H176.515L181.561 7.01013L176.515 11.9847Z" stroke="url(#paint6_linear_226_1001)" stroke-width="2.5" stroke-linecap="round"/>
<path d="M176.515 55.1927H149.368L144.323 50.1825L149.368 45.1724H176.515L181.561 50.1825L176.515 55.1927Z" stroke="url(#paint7_linear_226_1001)" stroke-width="2.5" stroke-linecap="round"/>
<path d="M146.988 57.6444V86.0707L142.013 91.3651L137.003 86.0707V57.6444L142.013 52.3856L146.988 57.6444Z" stroke="url(#paint8_linear_226_1001)" stroke-width="2.5" stroke-linecap="round"/>
<path d="M188.348 14.5786V43.0049L183.373 48.2993L178.363 43.0049V14.5786L183.373 9.31977L188.348 14.5786Z" stroke="url(#paint9_linear_226_1001)" stroke-width="2.5" stroke-linecap="round"/>
<path d="M176.515 98.3651H149.368L144.323 93.355L149.368 88.3449H176.515L181.561 93.355L176.515 98.3651Z" stroke="url(#paint10_linear_226_1001)" stroke-width="2.5" stroke-linecap="round"/>
<path d="M244.667 11.9847H217.485L212.439 7.01013L217.485 2H244.667L249.678 7.01013L244.667 11.9847Z" stroke="url(#paint11_linear_226_1001)" stroke-width="2.5" stroke-linecap="round"/>
<path d="M244.667 55.1927H217.485L212.439 50.1825L217.485 45.1724H244.667L249.678 50.1825L244.667 55.1927Z" stroke="url(#paint12_linear_226_1001)" stroke-width="2.5" stroke-linecap="round"/>
<path d="M215.14 57.6444V86.0707L210.129 91.3651L205.119 86.0707V57.6444L210.129 52.3856L215.14 57.6444Z" stroke="url(#paint13_linear_226_1001)" stroke-width="2.5" stroke-linecap="round"/>
<path d="M256.5 14.5786V43.0049L251.49 48.2993L246.515 43.0049V14.5786L251.49 9.31977L256.5 14.5786Z" stroke="url(#paint14_linear_226_1001)" stroke-width="2.5" stroke-linecap="round"/>
<path d="M244.667 98.3651H217.485L212.439 93.355L217.485 88.3449H244.667L249.678 93.355L244.667 98.3651Z" stroke="url(#paint15_linear_226_1001)" stroke-width="2.5" stroke-linecap="round"/>
<path d="M108.008 11.9847H80.8253L75.8151 7.01013L80.8253 2H108.008L113.054 7.01013L108.008 11.9847Z" stroke="url(#paint16_linear_226_1001)" stroke-width="2.5" stroke-linecap="round"/>
<path d="M79.4751 57.6444V86.0707L74.465 91.3651L69.4548 86.0707V57.6444L74.465 52.3856L79.4751 57.6444Z" stroke="url(#paint17_linear_226_1001)" stroke-width="2.5" stroke-linecap="round"/>
<path d="M120.231 57.6444V86.0707L115.221 91.3651L110.246 86.0707V57.6444L115.221 52.3856L120.231 57.6444Z" stroke="url(#paint18_linear_226_1001)" stroke-width="2.5" stroke-linecap="round"/>
<path d="M79.4751 14.5786V43.0049L74.465 48.2993L69.4548 43.0049V14.5786L74.465 9.31977L79.4751 14.5786Z" stroke="url(#paint19_linear_226_1001)" stroke-width="2.5" stroke-linecap="round"/>
<path d="M120.231 14.5786V43.0049L115.221 48.2993L110.246 43.0049V14.5786L115.221 9.31977L120.231 14.5786Z" stroke="url(#paint20_linear_226_1001)" stroke-width="2.5" stroke-linecap="round"/>
<path d="M108.008 98.3651H80.8253L75.8151 93.355L80.8253 88.3449H108.008L113.054 93.355L108.008 98.3651Z" stroke="url(#paint21_linear_226_1001)" stroke-width="2.5" stroke-linecap="round"/>
<defs>
<linearGradient id="paint0_linear_226_1001" x1="110.5" y1="123.5" x2="234.109" y2="107.476" gradientUnits="userSpaceOnUse">
<stop offset="0.129026" stop-color="#ABF0EA"/>
</linearGradient>
<linearGradient id="paint1_linear_226_1001" x1="110.5" y1="123.5" x2="234.109" y2="107.476" gradientUnits="userSpaceOnUse">
<stop offset="0.129026" stop-color="#ABF0EA"/>
</linearGradient>
<linearGradient id="paint2_linear_226_1001" x1="110.5" y1="123.5" x2="234.109" y2="107.476" gradientUnits="userSpaceOnUse">
<stop offset="0.129026" stop-color="#ABF0EA"/>
</linearGradient>
<linearGradient id="paint3_linear_226_1001" x1="110.5" y1="123.5" x2="234.109" y2="107.476" gradientUnits="userSpaceOnUse">
<stop offset="0.129026" stop-color="#ABF0EA"/>
</linearGradient>
<linearGradient id="paint4_linear_226_1001" x1="110.5" y1="123.5" x2="234.109" y2="107.476" gradientUnits="userSpaceOnUse">
<stop offset="0.129026" stop-color="#ABF0EA"/>
</linearGradient>
<linearGradient id="paint5_linear_226_1001" x1="110.5" y1="123.5" x2="234.109" y2="107.476" gradientUnits="userSpaceOnUse">
<stop offset="0.129026" stop-color="#ABF0EA"/>
</linearGradient>
<linearGradient id="paint6_linear_226_1001" x1="110.5" y1="123.5" x2="234.109" y2="107.476" gradientUnits="userSpaceOnUse">
<stop offset="0.129026" stop-color="#ABF0EA"/>
</linearGradient>
<linearGradient id="paint7_linear_226_1001" x1="110.5" y1="123.5" x2="234.109" y2="107.476" gradientUnits="userSpaceOnUse">
<stop offset="0.129026" stop-color="#ABF0EA"/>
</linearGradient>
<linearGradient id="paint8_linear_226_1001" x1="110.5" y1="123.5" x2="234.109" y2="107.476" gradientUnits="userSpaceOnUse">
<stop offset="0.129026" stop-color="#ABF0EA"/>
</linearGradient>
<linearGradient id="paint9_linear_226_1001" x1="110.5" y1="123.5" x2="234.109" y2="107.476" gradientUnits="userSpaceOnUse">
<stop offset="0.129026" stop-color="#ABF0EA"/>
</linearGradient>
<linearGradient id="paint10_linear_226_1001" x1="110.5" y1="123.5" x2="234.109" y2="107.476" gradientUnits="userSpaceOnUse">
<stop offset="0.129026" stop-color="#ABF0EA"/>
</linearGradient>
<linearGradient id="paint11_linear_226_1001" x1="110.5" y1="123.5" x2="234.109" y2="107.476" gradientUnits="userSpaceOnUse">
<stop offset="0.129026" stop-color="#ABF0EA"/>
</linearGradient>
<linearGradient id="paint12_linear_226_1001" x1="110.5" y1="123.5" x2="234.109" y2="107.476" gradientUnits="userSpaceOnUse">
<stop offset="0.129026" stop-color="#ABF0EA"/>
</linearGradient>
<linearGradient id="paint13_linear_226_1001" x1="110.5" y1="123.5" x2="234.109" y2="107.476" gradientUnits="userSpaceOnUse">
<stop offset="0.129026" stop-color="#ABF0EA"/>
</linearGradient>
<linearGradient id="paint14_linear_226_1001" x1="110.5" y1="123.5" x2="234.109" y2="107.476" gradientUnits="userSpaceOnUse">
<stop offset="0.129026" stop-color="#ABF0EA"/>
</linearGradient>
<linearGradient id="paint15_linear_226_1001" x1="110.5" y1="123.5" x2="234.109" y2="107.476" gradientUnits="userSpaceOnUse">
<stop offset="0.129026" stop-color="#ABF0EA"/>
</linearGradient>
<linearGradient id="paint16_linear_226_1001" x1="110.5" y1="123.5" x2="234.109" y2="107.476" gradientUnits="userSpaceOnUse">
<stop offset="0.129026" stop-color="#ABF0EA"/>
</linearGradient>
<linearGradient id="paint17_linear_226_1001" x1="110.5" y1="123.5" x2="234.109" y2="107.476" gradientUnits="userSpaceOnUse">
<stop offset="0.129026" stop-color="#ABF0EA"/>
</linearGradient>
<linearGradient id="paint18_linear_226_1001" x1="110.5" y1="123.5" x2="234.109" y2="107.476" gradientUnits="userSpaceOnUse">
<stop offset="0.129026" stop-color="#ABF0EA"/>
</linearGradient>
<linearGradient id="paint19_linear_226_1001" x1="110.5" y1="123.5" x2="234.109" y2="107.476" gradientUnits="userSpaceOnUse">
<stop offset="0.129026" stop-color="#ABF0EA"/>
</linearGradient>
<linearGradient id="paint20_linear_226_1001" x1="110.5" y1="123.5" x2="234.109" y2="107.476" gradientUnits="userSpaceOnUse">
<stop offset="0.129026" stop-color="#ABF0EA"/>
</linearGradient>
<linearGradient id="paint21_linear_226_1001" x1="110.5" y1="123.5" x2="234.109" y2="107.476" gradientUnits="userSpaceOnUse">
<stop offset="0.129026" stop-color="#ABF0EA"/>
</linearGradient>
</defs>
</svg>
