<svg width="303" height="35" viewBox="0 0 303 35" fill="none" xmlns="http://www.w3.org/2000/svg">
<path d="M1.187 10.435C1.001 10.111 1.076 9.847 1.412 9.643L6.308 6.889V7.321L1.421 4.621C1.085 4.423 1.007 4.153 1.187 3.811C1.385 3.481 1.652 3.406 1.988 3.586L7.127 6.448C7.397 6.604 7.532 6.814 7.532 7.078C7.532 7.39 7.397 7.624 7.127 7.78L1.988 10.66C1.64 10.846 1.373 10.771 1.187 10.435ZM14.5569 10.435C14.3709 10.111 14.4459 9.847 14.7819 9.643L19.6779 6.889V7.321L14.7909 4.621C14.4549 4.423 14.3769 4.153 14.5569 3.811C14.7549 3.481 15.0219 3.406 15.3579 3.586L20.4969 6.448C20.7669 6.604 20.9019 6.814 20.9019 7.078C20.9019 7.39 20.7669 7.624 20.4969 7.78L15.3579 10.66C15.0099 10.846 14.7429 10.771 14.5569 10.435ZM28.2148 13C27.7708 13 27.5488 12.778 27.5488 12.334V1.66C27.5488 1.216 27.7708 0.993999 28.2148 0.993999H32.4268C33.5008 0.993999 34.3198 1.279 34.8838 1.849C35.4478 2.413 35.7298 3.232 35.7298 4.306V4.846C35.7298 5.92 35.4478 6.739 34.8838 7.303C34.3198 7.867 33.5008 8.149 32.4268 8.149H28.8718V12.334C28.8718 12.778 28.6528 13 28.2148 13ZM28.8718 6.826H32.4268C33.1348 6.826 33.6418 6.673 33.9478 6.367C34.2538 6.061 34.4068 5.554 34.4068 4.846V4.306C34.4068 3.598 34.2538 3.091 33.9478 2.785C33.6418 2.473 33.1348 2.317 32.4268 2.317H28.8718V6.826ZM39.2152 12.937C38.7952 12.769 38.6692 12.478 38.8372 12.064L43.1842 1.516C43.3342 1.168 43.5802 0.993999 43.9222 0.993999H43.9672C44.3092 1.012 44.5432 1.186 44.6692 1.516L49.0612 12.064C49.2292 12.478 49.1092 12.769 48.7012 12.937C48.2872 13.099 47.9992 12.979 47.8372 12.577L46.7842 10.057H41.0872L40.0702 12.577C39.9022 12.985 39.6172 13.105 39.2152 12.937ZM41.6092 8.734H46.2442L43.8952 3.091L41.6092 8.734ZM56.7678 12.991C55.7298 12.991 54.9318 12.775 54.3738 12.343C53.8218 11.905 53.4918 11.227 53.3838 10.309C53.3658 10.087 53.4138 9.919 53.5278 9.805C53.6478 9.685 53.8158 9.625 54.0318 9.625C54.2478 9.625 54.4068 9.679 54.5088 9.787C54.6168 9.895 54.6858 10.057 54.7158 10.273C54.7878 10.801 54.9768 11.167 55.2828 11.371C55.5948 11.569 56.0898 11.668 56.7678 11.668H59.3598C60.1638 11.668 60.7128 11.521 61.0068 11.227C61.3068 10.927 61.4568 10.384 61.4568 9.598C61.4568 8.8 61.3038 8.251 60.9978 7.951C60.6978 7.645 60.1518 7.492 59.3598 7.492H57.0558C55.9458 7.492 55.1238 7.225 54.5898 6.691C54.0618 6.157 53.7978 5.338 53.7978 4.234C53.7978 3.13 54.0588 2.314 54.5808 1.786C55.1088 1.258 55.9278 0.993999 57.0378 0.993999H59.3058C60.2778 0.993999 61.0248 1.201 61.5468 1.615C62.0748 2.023 62.3928 2.656 62.5008 3.514C62.5248 3.736 62.4768 3.907 62.3568 4.027C62.2428 4.141 62.0748 4.198 61.8528 4.198C61.6428 4.198 61.4838 4.144 61.3758 4.036C61.2678 3.922 61.2018 3.76 61.1778 3.55C61.1058 3.088 60.9258 2.767 60.6378 2.587C60.3558 2.407 59.9118 2.317 59.3058 2.317H57.0378C56.2938 2.317 55.7868 2.455 55.5168 2.731C55.2528 3.001 55.1208 3.502 55.1208 4.234C55.1208 4.966 55.2558 5.473 55.5258 5.755C55.8018 6.031 56.3118 6.169 57.0558 6.169H59.3598C60.5238 6.169 61.3848 6.448 61.9428 7.006C62.5008 7.564 62.7798 8.428 62.7798 9.598C62.7798 10.762 62.5008 11.62 61.9428 12.172C61.3848 12.718 60.5238 12.991 59.3598 12.991H56.7678ZM71.7549 12.991C70.7169 12.991 69.9189 12.775 69.3609 12.343C68.8089 11.905 68.4789 11.227 68.3709 10.309C68.3529 10.087 68.4009 9.919 68.5149 9.805C68.6349 9.685 68.8029 9.625 69.0189 9.625C69.2349 9.625 69.3939 9.679 69.4959 9.787C69.6039 9.895 69.6729 10.057 69.7029 10.273C69.7749 10.801 69.9639 11.167 70.2699 11.371C70.5819 11.569 71.0769 11.668 71.7549 11.668H74.3469C75.1509 11.668 75.6999 11.521 75.9939 11.227C76.2939 10.927 76.4439 10.384 76.4439 9.598C76.4439 8.8 76.2909 8.251 75.9849 7.951C75.6849 7.645 75.1389 7.492 74.3469 7.492H72.0429C70.9329 7.492 70.1109 7.225 69.5769 6.691C69.0489 6.157 68.7849 5.338 68.7849 4.234C68.7849 3.13 69.0459 2.314 69.5679 1.786C70.0959 1.258 70.9149 0.993999 72.0249 0.993999H74.2929C75.2649 0.993999 76.0119 1.201 76.5339 1.615C77.0619 2.023 77.3799 2.656 77.4879 3.514C77.5119 3.736 77.4639 3.907 77.3439 4.027C77.2299 4.141 77.0619 4.198 76.8399 4.198C76.6299 4.198 76.4709 4.144 76.3629 4.036C76.2549 3.922 76.1889 3.76 76.1649 3.55C76.0929 3.088 75.9129 2.767 75.6249 2.587C75.3429 2.407 74.8989 2.317 74.2929 2.317H72.0249C71.2809 2.317 70.7739 2.455 70.5039 2.731C70.2399 3.001 70.1079 3.502 70.1079 4.234C70.1079 4.966 70.2429 5.473 70.5129 5.755C70.7889 6.031 71.2989 6.169 72.0429 6.169H74.3469C75.5109 6.169 76.3719 6.448 76.9299 7.006C77.4879 7.564 77.7669 8.428 77.7669 9.598C77.7669 10.762 77.4879 11.62 76.9299 12.172C76.3719 12.718 75.5109 12.991 74.3469 12.991H71.7549ZM86.292 13C85.998 13 85.791 12.814 85.671 12.442L82.305 1.876C82.239 1.678 82.266 1.48 82.386 1.282C82.512 1.084 82.695 0.985 82.935 0.985C83.061 0.985 83.181 1.027 83.295 1.111C83.415 1.189 83.499 1.312 83.547 1.48L86.571 10.993H86.22L89.091 1.552C89.151 1.366 89.25 1.228 89.388 1.138C89.532 1.042 89.679 0.993999 89.829 0.993999C89.985 0.993999 90.138 1.042 90.288 1.138C90.438 1.228 90.537 1.366 90.585 1.552L93.456 10.993H93.105L96.129 1.48C96.189 1.312 96.27 1.189 96.372 1.111C96.48 1.033 96.6 0.993999 96.732 0.993999C96.978 0.993999 97.164 1.087 97.29 1.273C97.422 1.453 97.452 1.654 97.38 1.876L94.005 12.442C93.885 12.814 93.654 13 93.312 13H93.276C92.922 13 92.691 12.814 92.583 12.442L89.622 2.884H89.973L87.003 12.442C86.949 12.64 86.868 12.784 86.76 12.874C86.652 12.958 86.496 13 86.292 13ZM102.957 13C102.513 13 102.291 12.778 102.291 12.334V1.66C102.291 1.216 102.513 0.993999 102.957 0.993999H107.295C108.837 0.993999 109.968 1.357 110.688 2.083C111.408 2.803 111.768 3.934 111.768 5.476V8.518C111.768 10.06 111.408 11.194 110.688 11.92C109.974 12.64 108.843 13 107.295 13H102.957ZM103.614 11.677H107.295C108.075 11.677 108.696 11.578 109.158 11.38C109.62 11.182 109.95 10.852 110.148 10.39C110.346 9.928 110.445 9.304 110.445 8.518V5.476C110.445 4.696 110.346 4.075 110.148 3.613C109.95 3.151 109.62 2.821 109.158 2.623C108.696 2.419 108.075 2.317 107.295 2.317H103.614V11.677ZM118.015 13C117.577 13 117.358 12.781 117.358 12.343V11.929C117.358 11.503 117.577 11.29 118.015 11.29H118.411C118.831 11.29 119.041 11.503 119.041 11.929V12.343C119.041 12.781 118.831 13 118.411 13H118.015ZM118.015 7.06C117.577 7.06 117.358 6.841 117.358 6.403V5.989C117.358 5.563 117.577 5.35 118.015 5.35H118.411C118.831 5.35 119.041 5.563 119.041 5.989V6.403C119.041 6.841 118.831 7.06 118.411 7.06H118.015ZM133.645 13C133.465 13 133.309 12.934 133.177 12.802C133.045 12.67 132.979 12.514 132.979 12.334V1.66C132.979 1.48 133.045 1.324 133.177 1.192C133.309 1.06 133.465 0.993999 133.645 0.993999C133.825 0.993999 133.978 1.06 134.104 1.192C134.236 1.324 134.302 1.48 134.302 1.66V6.259H141.718V1.66C141.718 1.48 141.781 1.324 141.907 1.192C142.033 1.06 142.189 0.993999 142.375 0.993999C142.555 0.993999 142.711 1.06 142.843 1.192C142.975 1.324 143.041 1.48 143.041 1.66V12.334C143.041 12.514 142.975 12.67 142.843 12.802C142.711 12.934 142.555 13 142.375 13C142.189 13 142.033 12.934 141.907 12.802C141.781 12.67 141.718 12.514 141.718 12.334V7.582H134.302V12.334C134.302 12.514 134.236 12.67 134.104 12.802C133.978 12.934 133.825 13 133.645 13ZM152.073 13C151.089 13 150.36 12.763 149.886 12.289C149.412 11.815 149.175 11.086 149.175 10.102C149.175 9.118 149.409 8.389 149.877 7.915C150.351 7.441 151.083 7.204 152.073 7.204H155.97C155.946 6.52 155.778 6.049 155.466 5.791C155.154 5.533 154.623 5.404 153.873 5.404H152.829C152.175 5.404 151.689 5.458 151.371 5.566C151.059 5.674 150.849 5.863 150.741 6.133C150.657 6.349 150.564 6.502 150.462 6.592C150.366 6.676 150.216 6.718 150.012 6.718C149.79 6.718 149.616 6.658 149.49 6.538C149.37 6.412 149.334 6.247 149.382 6.043C149.526 5.365 149.88 4.87 150.444 4.558C151.008 4.24 151.803 4.081 152.829 4.081H153.873C155.043 4.081 155.907 4.36 156.465 4.918C157.023 5.476 157.302 6.34 157.302 7.51V12.334C157.302 12.778 157.083 13 156.645 13C156.201 13 155.979 12.778 155.979 12.334V11.767C155.361 12.589 154.395 13 153.081 13H152.073ZM152.073 11.677H153.081C153.567 11.677 154.014 11.629 154.422 11.533C154.83 11.437 155.172 11.269 155.448 11.029C155.724 10.789 155.901 10.453 155.979 10.021V8.527H152.073C151.455 8.527 151.038 8.638 150.822 8.86C150.606 9.076 150.498 9.49 150.498 10.102C150.498 10.72 150.606 11.137 150.822 11.353C151.038 11.569 151.455 11.677 152.073 11.677ZM166.514 13C165.344 13 164.477 12.721 163.913 12.163C163.355 11.599 163.076 10.732 163.076 9.562V7.492C163.076 6.322 163.352 5.458 163.904 4.9C164.462 4.342 165.332 4.069 166.514 4.081H167.99C168.878 4.081 169.571 4.231 170.069 4.531C170.567 4.831 170.879 5.293 171.005 5.917C171.047 6.139 171.005 6.31 170.879 6.43C170.759 6.55 170.585 6.61 170.357 6.61C170.153 6.61 170.003 6.559 169.907 6.457C169.811 6.349 169.727 6.199 169.655 6.007C169.571 5.785 169.4 5.629 169.142 5.539C168.89 5.449 168.506 5.404 167.99 5.404H166.514C165.71 5.392 165.155 5.536 164.849 5.836C164.549 6.13 164.399 6.682 164.399 7.492V9.562C164.399 10.372 164.549 10.927 164.849 11.227C165.155 11.527 165.71 11.677 166.514 11.677H167.99C168.506 11.677 168.89 11.632 169.142 11.542C169.4 11.452 169.571 11.293 169.655 11.065C169.727 10.867 169.811 10.717 169.907 10.615C170.003 10.513 170.156 10.462 170.366 10.462C170.588 10.462 170.759 10.525 170.879 10.651C171.005 10.771 171.047 10.939 171.005 11.155C170.879 11.779 170.567 12.244 170.069 12.55C169.571 12.85 168.878 13 167.99 13H166.514ZM177.446 13C177.002 13 176.78 12.778 176.78 12.334V1.048C176.78 0.61 177.002 0.391 177.446 0.391C177.884 0.391 178.103 0.61 178.103 1.048V8.05L182.486 4.288C182.816 4 183.125 4.021 183.413 4.351C183.701 4.687 183.68 4.996 183.35 5.278L180.056 8.122L183.35 11.866C183.644 12.202 183.626 12.511 183.296 12.793C182.966 13.081 182.654 13.06 182.36 12.73L179.039 8.995L178.103 9.805V12.334C178.103 12.778 177.884 13 177.446 13ZM191.163 13C190.179 13 189.45 12.763 188.976 12.289C188.502 11.815 188.265 11.086 188.265 10.102C188.265 9.118 188.499 8.389 188.967 7.915C189.441 7.441 190.173 7.204 191.163 7.204H195.06C195.036 6.52 194.868 6.049 194.556 5.791C194.244 5.533 193.713 5.404 192.963 5.404H191.919C191.265 5.404 190.779 5.458 190.461 5.566C190.149 5.674 189.939 5.863 189.831 6.133C189.747 6.349 189.654 6.502 189.552 6.592C189.456 6.676 189.306 6.718 189.102 6.718C188.88 6.718 188.706 6.658 188.58 6.538C188.46 6.412 188.424 6.247 188.472 6.043C188.616 5.365 188.97 4.87 189.534 4.558C190.098 4.24 190.893 4.081 191.919 4.081H192.963C194.133 4.081 194.997 4.36 195.555 4.918C196.113 5.476 196.392 6.34 196.392 7.51V12.334C196.392 12.778 196.173 13 195.735 13C195.291 13 195.069 12.778 195.069 12.334V11.767C194.451 12.589 193.485 13 192.171 13H191.163ZM191.163 11.677H192.171C192.657 11.677 193.104 11.629 193.512 11.533C193.92 11.437 194.262 11.269 194.538 11.029C194.814 10.789 194.991 10.453 195.069 10.021V8.527H191.163C190.545 8.527 190.128 8.638 189.912 8.86C189.696 9.076 189.588 9.49 189.588 10.102C189.588 10.72 189.696 11.137 189.912 11.353C190.128 11.569 190.545 11.677 191.163 11.677ZM206.262 13C205.104 13 204.252 12.727 203.706 12.181C203.16 11.635 202.887 10.786 202.887 9.634V5.404H201.942C201.498 5.404 201.276 5.182 201.276 4.738C201.276 4.3 201.498 4.081 201.942 4.081H202.887V2.56C202.887 2.116 203.106 1.894 203.544 1.894C203.988 1.894 204.21 2.116 204.21 2.56V4.081H206.343C206.781 4.081 207 4.3 207 4.738C207 5.182 206.781 5.404 206.343 5.404H204.21V9.634C204.21 10.426 204.354 10.966 204.642 11.254C204.936 11.536 205.476 11.677 206.262 11.677C206.478 11.677 206.643 11.731 206.757 11.839C206.871 11.941 206.928 12.106 206.928 12.334C206.928 12.778 206.706 13 206.262 13ZM213.091 13C212.647 13 212.425 12.778 212.425 12.334V1.048C212.425 0.61 212.647 0.391 213.091 0.391C213.529 0.391 213.748 0.61 213.748 1.048V5.224C214.36 4.462 215.329 4.081 216.655 4.081H217.159C218.329 4.081 219.193 4.36 219.751 4.918C220.309 5.476 220.588 6.34 220.588 7.51V12.334C220.588 12.778 220.369 13 219.931 13C219.487 13 219.265 12.778 219.265 12.334V7.51C219.265 6.7 219.112 6.148 218.806 5.854C218.506 5.554 217.957 5.404 217.159 5.404H216.655C215.863 5.404 215.2 5.509 214.666 5.719C214.132 5.923 213.826 6.247 213.748 6.691V12.334C213.748 12.778 213.529 13 213.091 13ZM229.796 13C228.626 13 227.759 12.721 227.195 12.163C226.637 11.605 226.358 10.744 226.358 9.58V7.51C226.358 6.328 226.637 5.461 227.195 4.909C227.759 4.351 228.626 4.075 229.796 4.081H231.272C232.442 4.081 233.306 4.36 233.864 4.918C234.422 5.476 234.701 6.34 234.701 7.51V9.562C234.701 10.732 234.422 11.599 233.864 12.163C233.306 12.721 232.442 13 231.272 13H229.796ZM227.681 9.58C227.681 10.378 227.831 10.927 228.131 11.227C228.431 11.527 228.986 11.677 229.796 11.677H231.272C232.082 11.677 232.634 11.527 232.928 11.227C233.228 10.927 233.378 10.372 233.378 9.562V7.51C233.378 6.7 233.228 6.148 232.928 5.854C232.634 5.554 232.082 5.404 231.272 5.404H229.796C229.256 5.404 228.833 5.467 228.527 5.593C228.221 5.719 228.002 5.935 227.87 6.241C227.744 6.547 227.681 6.97 227.681 7.51V9.58ZM241.307 13C240.863 13 240.641 12.778 240.641 12.334V4.738C240.641 4.3 240.863 4.081 241.307 4.081C241.745 4.081 241.964 4.3 241.964 4.738V5.224C242.576 4.462 243.545 4.081 244.871 4.081H245.375C246.545 4.081 247.409 4.36 247.967 4.918C248.525 5.476 248.804 6.34 248.804 7.51V12.334C248.804 12.778 248.585 13 248.147 13C247.703 13 247.481 12.778 247.481 12.334V7.51C247.481 6.7 247.328 6.148 247.022 5.854C246.722 5.554 246.173 5.404 245.375 5.404H244.871C244.079 5.404 243.416 5.509 242.882 5.719C242.348 5.923 242.042 6.247 241.964 6.691V12.334C241.964 12.778 241.745 13 241.307 13ZM261.666 13H254.853C254.403 13 254.178 12.778 254.178 12.334C254.178 11.572 254.292 10.921 254.52 10.381C254.754 9.835 255.063 9.37 255.447 8.986C255.831 8.596 256.257 8.254 256.725 7.96C257.199 7.666 257.673 7.381 258.147 7.105C258.789 6.739 259.326 6.421 259.758 6.151C260.196 5.875 260.523 5.593 260.739 5.305C260.961 5.011 261.072 4.654 261.072 4.234C261.072 3.496 260.934 2.992 260.658 2.722C260.388 2.452 259.887 2.317 259.155 2.317H257.229C256.623 2.317 256.176 2.407 255.888 2.587C255.606 2.767 255.432 3.094 255.366 3.568C255.33 3.778 255.258 3.94 255.15 4.054C255.048 4.162 254.889 4.216 254.673 4.216C254.451 4.216 254.283 4.156 254.169 4.036C254.055 3.916 254.007 3.745 254.025 3.523C254.133 2.671 254.448 2.038 254.97 1.624C255.498 1.204 256.251 0.993999 257.229 0.993999H259.155C260.259 0.993999 261.075 1.258 261.603 1.786C262.131 2.314 262.395 3.13 262.395 4.234C262.395 4.918 262.227 5.494 261.891 5.962C261.561 6.424 261.12 6.832 260.568 7.186C260.022 7.54 259.431 7.897 258.795 8.257C258.219 8.587 257.703 8.902 257.247 9.202C256.791 9.502 256.413 9.844 256.113 10.228C255.819 10.612 255.63 11.095 255.546 11.677H261.666C262.11 11.677 262.332 11.896 262.332 12.334C262.332 12.778 262.11 13 261.666 13ZM271.535 13C270.185 13 269.189 12.682 268.547 12.046C267.911 11.404 267.593 10.408 267.593 9.058V4.918C267.593 3.562 267.911 2.569 268.547 1.939C269.189 1.303 270.185 0.991 271.535 1.003H272.615C273.965 1.003 274.958 1.321 275.594 1.957C276.23 2.587 276.548 3.58 276.548 4.936V9.058C276.548 10.408 276.23 11.404 275.594 12.046C274.958 12.682 273.965 13 272.615 13H271.535ZM271.535 11.677H272.615C273.269 11.677 273.785 11.596 274.163 11.434C274.547 11.266 274.82 10.993 274.982 10.615C275.144 10.231 275.225 9.712 275.225 9.058V4.936C275.225 4.282 275.144 3.766 274.982 3.388C274.82 3.004 274.547 2.731 274.163 2.569C273.785 2.407 273.269 2.326 272.615 2.326H271.535C270.881 2.314 270.362 2.389 269.978 2.551C269.6 2.707 269.327 2.977 269.159 3.361C268.997 3.739 268.916 4.258 268.916 4.918V9.058C268.916 9.712 268.997 10.231 269.159 10.615C269.321 10.993 269.591 11.266 269.969 11.434C270.353 11.596 270.875 11.677 271.535 11.677ZM271.877 7.825C271.439 7.825 271.22 7.606 271.22 7.168V6.754C271.22 6.328 271.439 6.115 271.877 6.115H272.273C272.693 6.115 272.903 6.328 272.903 6.754V7.168C272.903 7.606 272.693 7.825 272.273 7.825H271.877ZM289.232 13H282.419C281.969 13 281.744 12.778 281.744 12.334C281.744 11.572 281.858 10.921 282.086 10.381C282.32 9.835 282.629 9.37 283.013 8.986C283.397 8.596 283.823 8.254 284.291 7.96C284.765 7.666 285.239 7.381 285.713 7.105C286.355 6.739 286.892 6.421 287.324 6.151C287.762 5.875 288.089 5.593 288.305 5.305C288.527 5.011 288.638 4.654 288.638 4.234C288.638 3.496 288.5 2.992 288.224 2.722C287.954 2.452 287.453 2.317 286.721 2.317H284.795C284.189 2.317 283.742 2.407 283.454 2.587C283.172 2.767 282.998 3.094 282.932 3.568C282.896 3.778 282.824 3.94 282.716 4.054C282.614 4.162 282.455 4.216 282.239 4.216C282.017 4.216 281.849 4.156 281.735 4.036C281.621 3.916 281.573 3.745 281.591 3.523C281.699 2.671 282.014 2.038 282.536 1.624C283.064 1.204 283.817 0.993999 284.795 0.993999H286.721C287.825 0.993999 288.641 1.258 289.169 1.786C289.697 2.314 289.961 3.13 289.961 4.234C289.961 4.918 289.793 5.494 289.457 5.962C289.127 6.424 288.686 6.832 288.134 7.186C287.588 7.54 286.997 7.897 286.361 8.257C285.785 8.587 285.269 8.902 284.813 9.202C284.357 9.502 283.979 9.844 283.679 10.228C283.385 10.612 283.196 11.095 283.112 11.677H289.232C289.676 11.677 289.898 11.896 289.898 12.334C289.898 12.778 289.676 13 289.232 13ZM302.233 13H295.42C294.97 13 294.745 12.778 294.745 12.334C294.745 11.572 294.859 10.921 295.087 10.381C295.321 9.835 295.63 9.37 296.014 8.986C296.398 8.596 296.824 8.254 297.292 7.96C297.766 7.666 298.24 7.381 298.714 7.105C299.356 6.739 299.893 6.421 300.325 6.151C300.763 5.875 301.09 5.593 301.306 5.305C301.528 5.011 301.639 4.654 301.639 4.234C301.639 3.496 301.501 2.992 301.225 2.722C300.955 2.452 300.454 2.317 299.722 2.317H297.796C297.19 2.317 296.743 2.407 296.455 2.587C296.173 2.767 295.999 3.094 295.933 3.568C295.897 3.778 295.825 3.94 295.717 4.054C295.615 4.162 295.456 4.216 295.24 4.216C295.018 4.216 294.85 4.156 294.736 4.036C294.622 3.916 294.574 3.745 294.592 3.523C294.7 2.671 295.015 2.038 295.537 1.624C296.065 1.204 296.818 0.993999 297.796 0.993999H299.722C300.826 0.993999 301.642 1.258 302.17 1.786C302.698 2.314 302.962 3.13 302.962 4.234C302.962 4.918 302.794 5.494 302.458 5.962C302.128 6.424 301.687 6.832 301.135 7.186C300.589 7.54 299.998 7.897 299.362 8.257C298.786 8.587 298.27 8.902 297.814 9.202C297.358 9.502 296.98 9.844 296.68 10.228C296.386 10.612 296.197 11.095 296.113 11.677H302.233C302.677 11.677 302.899 11.896 302.899 12.334C302.899 12.778 302.677 13 302.233 13ZM1.187 31.435C1.001 31.111 1.076 30.847 1.412 30.643L6.308 27.889V28.321L1.421 25.621C1.085 25.423 1.007 25.153 1.187 24.811C1.385 24.481 1.652 24.406 1.988 24.586L7.127 27.448C7.397 27.604 7.532 27.814 7.532 28.078C7.532 28.39 7.397 28.624 7.127 28.78L1.988 31.66C1.64 31.846 1.373 31.771 1.187 31.435ZM14.5569 31.435C14.3709 31.111 14.4459 30.847 14.7819 30.643L19.6779 27.889V28.321L14.7909 25.621C14.4549 25.423 14.3769 25.153 14.5569 24.811C14.7549 24.481 15.0219 24.406 15.3579 24.586L20.4969 27.448C20.7669 27.604 20.9019 27.814 20.9019 28.078C20.9019 28.39 20.7669 28.624 20.4969 28.78L15.3579 31.66C15.0099 31.846 14.7429 31.771 14.5569 31.435ZM28.2148 34C27.7708 34 27.5488 33.778 27.5488 33.334V22.66C27.5488 22.216 27.7708 21.994 28.2148 21.994C28.6528 21.994 28.8718 22.216 28.8718 22.66V32.677H34.0198C34.4638 32.677 34.6858 32.896 34.6858 33.334C34.6858 33.778 34.4638 34 34.0198 34H28.2148ZM42.9625 34C41.6125 34 40.6165 33.682 39.9745 33.046C39.3385 32.404 39.0205 31.408 39.0205 30.058V25.918C39.0205 24.556 39.3385 23.56 39.9745 22.93C40.6165 22.294 41.6095 21.982 42.9535 21.994H45.1225C46.4725 21.994 47.4655 22.312 48.1015 22.948C48.7375 23.584 49.0555 24.58 49.0555 25.936V30.058C49.0555 31.408 48.7375 32.404 48.1015 33.046C47.4655 33.682 46.4725 34 45.1225 34H42.9625ZM42.9625 32.677H45.1225C45.7765 32.677 46.2925 32.596 46.6705 32.434C47.0545 32.272 47.3275 32.002 47.4895 31.624C47.6515 31.24 47.7325 30.718 47.7325 30.058V25.936C47.7325 25.282 47.6515 24.766 47.4895 24.388C47.3275 24.004 47.0545 23.731 46.6705 23.569C46.2925 23.401 45.7765 23.317 45.1225 23.317H42.9535C42.2995 23.311 41.7835 23.389 41.4055 23.551C41.0275 23.707 40.7545 23.977 40.5865 24.361C40.4245 24.739 40.3435 25.258 40.3435 25.918V30.058C40.3435 30.718 40.4245 31.24 40.5865 31.624C40.7485 32.002 41.0185 32.272 41.3965 32.434C41.7805 32.596 42.3025 32.677 42.9625 32.677ZM54.1496 33.937C53.7296 33.769 53.6036 33.478 53.7716 33.064L58.1186 22.516C58.2686 22.168 58.5146 21.994 58.8566 21.994H58.9016C59.2436 22.012 59.4776 22.186 59.6036 22.516L63.9956 33.064C64.1636 33.478 64.0436 33.769 63.6356 33.937C63.2216 34.099 62.9336 33.979 62.7716 33.577L61.7186 31.057H56.0216L55.0046 33.577C54.8366 33.985 54.5516 34.105 54.1496 33.937ZM56.5436 29.734H61.1786L58.8296 24.091L56.5436 29.734ZM69.8891 34C69.4451 34 69.2231 33.778 69.2231 33.334V22.66C69.2231 22.216 69.4451 21.994 69.8891 21.994H74.2271C75.7691 21.994 76.9001 22.357 77.6201 23.083C78.3401 23.803 78.7001 24.934 78.7001 26.476V29.518C78.7001 31.06 78.3401 32.194 77.6201 32.92C76.9061 33.64 75.7751 34 74.2271 34H69.8891ZM70.5461 32.677H74.2271C75.0071 32.677 75.6281 32.578 76.0901 32.38C76.5521 32.182 76.8821 31.852 77.0801 31.39C77.2781 30.928 77.3771 30.304 77.3771 29.518V26.476C77.3771 25.696 77.2781 25.075 77.0801 24.613C76.8821 24.151 76.5521 23.821 76.0901 23.623C75.6281 23.419 75.0071 23.317 74.2271 23.317H70.5461V32.677ZM85.3156 34C85.0936 34 84.9256 33.946 84.8116 33.838C84.7036 33.724 84.6496 33.556 84.6496 33.334V22.669C84.6496 22.441 84.7036 22.273 84.8116 22.165C84.9256 22.057 85.0936 22.003 85.3156 22.003C85.5376 22.003 85.7026 22.057 85.8106 22.165C85.9186 22.273 85.9726 22.441 85.9726 22.669V33.334C85.9726 33.556 85.9186 33.724 85.8106 33.838C85.7026 33.946 85.5376 34 85.3156 34ZM92.9551 34C92.5111 34 92.2891 33.778 92.2891 33.334V22.66C92.2891 22.216 92.5111 21.994 92.9551 21.994C93.1831 21.994 93.4051 22.126 93.6211 22.39L100.983 31.867H100.659V22.66C100.659 22.216 100.881 21.994 101.325 21.994C101.763 21.994 101.982 22.216 101.982 22.66V33.334C101.982 33.778 101.763 34 101.325 34C101.085 34 100.863 33.868 100.659 33.604L93.2881 24.127H93.6121V33.334C93.6121 33.778 93.3931 34 92.9551 34ZM111.869 34C110.519 34 109.523 33.682 108.881 33.046C108.245 32.404 107.927 31.408 107.927 30.058V25.936C107.927 24.574 108.245 23.575 108.881 22.939C109.517 22.303 110.507 21.988 111.851 21.994H114.029C115.145 21.994 115.991 22.228 116.567 22.696C117.143 23.158 117.473 23.89 117.557 24.892C117.587 25.114 117.545 25.285 117.431 25.405C117.317 25.519 117.149 25.576 116.927 25.576C116.525 25.576 116.294 25.354 116.234 24.91C116.18 24.298 115.985 23.881 115.649 23.659C115.313 23.431 114.773 23.317 114.029 23.317H111.851C111.197 23.317 110.681 23.398 110.303 23.56C109.925 23.716 109.655 23.986 109.493 24.37C109.331 24.748 109.25 25.27 109.25 25.936V30.058C109.25 30.718 109.331 31.24 109.493 31.624C109.655 32.002 109.925 32.272 110.303 32.434C110.687 32.596 111.209 32.677 111.869 32.677H114.029C114.605 32.677 115.055 32.611 115.379 32.479C115.709 32.347 115.94 32.119 116.072 31.795C116.21 31.465 116.279 31.006 116.279 30.418V29.482L114.686 29.464C114.248 29.464 114.029 29.242 114.029 28.798C114.029 28.36 114.248 28.141 114.686 28.141L116.945 28.159C117.383 28.159 117.602 28.378 117.602 28.816V30.418C117.602 31.666 117.314 32.575 116.738 33.145C116.168 33.715 115.265 34 114.029 34H111.869ZM123.685 34C123.247 34 123.028 33.781 123.028 33.343V32.929C123.028 32.503 123.247 32.29 123.685 32.29H124.081C124.501 32.29 124.711 32.503 124.711 32.929V33.343C124.711 33.781 124.501 34 124.081 34H123.685ZM130.973 34C130.535 34 130.316 33.781 130.316 33.343V32.929C130.316 32.503 130.535 32.29 130.973 32.29H131.369C131.789 32.29 131.999 32.503 131.999 32.929V33.343C131.999 33.781 131.789 34 131.369 34H130.973ZM138.261 34C137.823 34 137.604 33.781 137.604 33.343V32.929C137.604 32.503 137.823 32.29 138.261 32.29H138.657C139.077 32.29 139.287 32.503 139.287 32.929V33.343C139.287 33.781 139.077 34 138.657 34H138.261Z" fill="#ABE3F0"/>
</svg>
