<svg width="146" height="115" viewBox="0 0 146 115" fill="none" xmlns="http://www.w3.org/2000/svg">
<path d="M49.6978 20.4306C80.2816 -0.510838 114.24 -5.40671 128.44 10.0737C143.878 26.9047 130.119 61.4548 97.6906 87.2041" stroke="white" stroke-width="2" stroke-miterlimit="10"/>
<path d="M53.5373 24.6799C52.2822 25.5626 50.7022 25.9455 49.1441 25.7446C47.586 25.5437 46.1772 24.7753 45.2271 23.6083C44.2793 22.441 43.8682 20.9711 44.084 19.5218C44.2999 18.0725 45.1251 16.7623 46.3782 15.8791C46.9986 15.4413 47.7057 15.1217 48.459 14.9386C49.2123 14.7555 49.997 14.7125 50.7681 14.812C51.5393 14.9115 52.2818 15.1517 52.9531 15.5187C53.6244 15.8857 54.2114 16.3723 54.6805 16.9507C55.1512 17.5279 55.495 18.1858 55.6923 18.8868C55.8896 19.5878 55.9365 20.3181 55.8303 21.036C55.7241 21.7539 55.4671 22.4452 55.0736 23.0705C54.6801 23.6957 54.158 24.2427 53.5373 24.6799Z" fill="white"/>
<path d="M78.7127 99.8724C51.3694 114.861 23.5608 117.019 11.0639 103.396C6.66439 98.6026 4.63808 92.3855 4.75635 85.3242" stroke="white" stroke-width="2" stroke-miterlimit="10"/>
<path d="M75.3379 95.2998C76.6782 94.5352 78.2892 94.296 79.8185 94.6344C81.3478 94.9728 82.6709 95.8613 83.4984 97.1055C84.3217 98.3527 84.5798 99.8531 84.2162 101.277C83.8526 102.702 82.8969 103.934 81.5588 104.703C80.2191 105.469 78.6073 105.709 77.0774 105.371C75.5475 105.032 74.2244 104.143 73.3983 102.897C72.5771 101.649 72.3201 100.149 72.6836 98.7256C73.0471 97.3019 74.0014 96.0701 75.3379 95.2998Z" fill="white"/>
<path opacity="0.1" d="M93.9299 98.5381C65.1043 115.986 34.7253 119.252 21.4952 104.829C6.05737 87.9977 19.8158 53.4475 52.2446 27.6909C84.6734 1.93429 123.449 -5.33982 138.887 11.5058C154.325 28.3515 140.567 62.887 108.138 88.6362" stroke="white" stroke-miterlimit="10"/>
<path d="M2.67969 33.0977H5.7832L5.29102 31.5254C5.07227 30.86 4.72591 29.7025 4.25195 28.0527H4.19727C3.87826 29.2103 3.53646 30.3678 3.17188 31.5254L2.67969 33.0977ZM7.08203 37.2676L6.09766 34.1367H2.35156L1.35352 37.2676H0.0410156L3.52734 27H4.97656L8.44922 37.2676H7.08203ZM11.953 37.4453C10.7773 37.4453 9.91138 36.944 9.35539 35.9414C8.99081 35.2669 8.80852 34.4421 8.80852 33.4668C8.80852 32.127 9.21867 31.0742 10.039 30.3086C10.6405 29.7526 11.3287 29.4746 12.1034 29.4746C12.7688 29.4746 13.4023 29.707 14.0038 30.1719C14.0859 30.2357 14.1679 30.2995 14.2499 30.3633L14.1679 29.0508V26.125H15.453V37.2676H14.414L14.2909 36.3652H14.2636C13.5253 37.0762 12.7551 37.4362 11.953 37.4453ZM12.2265 36.3789C12.901 36.3698 13.5481 36.0234 14.1679 35.3398V31.3477C13.5572 30.8099 12.942 30.541 12.3222 30.541C11.6021 30.541 11.0325 30.8828 10.6132 31.5664C10.2942 32.0951 10.1347 32.724 10.1347 33.4531C10.1347 34.8568 10.5312 35.7637 11.3241 36.1738C11.5976 36.3105 11.8984 36.3789 12.2265 36.3789ZM17.6034 37.2676V29.666H18.6561L18.7655 30.7734H18.8065C19.5995 29.9167 20.3879 29.4837 21.1717 29.4746C22.2381 29.4837 22.9399 29.9668 23.2772 30.9238C24.1704 29.9668 25.0044 29.4837 25.7791 29.4746C27.3104 29.4928 28.0806 30.4863 28.0897 32.4551V37.2676H26.8182V32.6191C26.8182 31.4798 26.5037 30.8236 25.8748 30.6504C25.729 30.6139 25.5741 30.5957 25.41 30.5957C24.8267 30.6048 24.1841 30.9922 23.4823 31.7578V37.2676H22.2108V32.6191C22.2108 31.4798 21.8963 30.8236 21.2674 30.6504C21.1216 30.6139 20.9666 30.5957 20.8026 30.5957C20.201 30.6048 19.5584 30.9922 18.8748 31.7578V37.2676H17.6034ZM30.1443 37.2676V29.666H31.4158V37.2676H30.1443ZM30.7869 28.0938C30.3858 28.0938 30.117 27.9297 29.9802 27.6016C29.9347 27.4922 29.9119 27.3828 29.9119 27.2734C29.9119 26.8633 30.0987 26.599 30.4724 26.4805C30.5818 26.4531 30.6866 26.4395 30.7869 26.4395C31.2061 26.4395 31.4841 26.6081 31.6209 26.9453C31.6573 27.0547 31.6755 27.1641 31.6755 27.2734C31.6755 27.638 31.5024 27.8887 31.156 28.0254C31.0375 28.071 30.9145 28.0938 30.7869 28.0938ZM33.5661 37.2676V29.666H34.6188L34.7282 30.7598H34.7692C35.5986 29.9486 36.4007 29.5202 37.1755 29.4746C37.2302 29.4746 37.2803 29.4746 37.3259 29.4746C38.8662 29.4928 39.641 30.4863 39.6501 32.4551V37.2676H38.3649V32.6191C38.3649 31.5345 38.0778 30.8874 37.5036 30.6777C37.3304 30.623 37.139 30.5957 36.9294 30.5957C36.3825 30.5957 35.8265 30.8464 35.2614 31.3477C35.1338 31.4661 34.9925 31.6029 34.8376 31.7578V37.2676H33.5661ZM41.691 37.2676V29.666H42.9625V37.2676H41.691ZM42.3336 28.0938C41.9326 28.0938 41.6637 27.9297 41.527 27.6016C41.4814 27.4922 41.4586 27.3828 41.4586 27.2734C41.4586 26.8633 41.6454 26.599 42.0191 26.4805C42.1285 26.4531 42.2333 26.4395 42.3336 26.4395C42.7529 26.4395 43.0309 26.6081 43.1676 26.9453C43.204 27.0547 43.2223 27.1641 43.2223 27.2734C43.2223 27.638 43.0491 27.8887 42.7027 28.0254C42.5842 28.071 42.4612 28.0938 42.3336 28.0938ZM47.1089 37.4453C46.0881 37.4453 45.1675 37.1217 44.3472 36.4746C44.3198 36.4473 44.2925 36.4245 44.2652 36.4062L44.8941 35.5586C45.6415 36.1602 46.3934 36.4609 47.1499 36.4609C47.9064 36.4609 48.3804 36.2012 48.5718 35.6816C48.6174 35.5449 48.6402 35.4082 48.6402 35.2715C48.6402 34.8158 48.2847 34.4238 47.5737 34.0957C47.4188 34.0319 47.1955 33.9408 46.9038 33.8223C45.9559 33.4668 45.3224 33.0931 45.0034 32.7012C44.7573 32.3822 44.6343 32.0221 44.6343 31.6211C44.6343 30.8555 44.967 30.2721 45.6323 29.8711C46.0881 29.6068 46.6304 29.4746 47.2593 29.4746C48.107 29.4837 48.8954 29.7663 49.6245 30.3223L49.0093 31.1562C48.3895 30.7005 47.8062 30.4727 47.2593 30.4727C46.5301 30.4727 46.0881 30.7233 45.9331 31.2246C45.8967 31.3431 45.8784 31.457 45.8784 31.5664C45.8784 31.9583 46.161 32.2865 46.7261 32.5508C46.8537 32.6055 47.1271 32.7148 47.5464 32.8789C48.3849 33.1979 48.9501 33.4896 49.2417 33.7539C49.661 34.1367 49.8706 34.6152 49.8706 35.1895C49.8706 35.9824 49.5334 36.5885 48.8589 37.0078C48.3758 37.2995 47.7925 37.4453 47.1089 37.4453ZM53.6342 37.4453C52.3764 37.4453 51.67 36.821 51.5151 35.5723C51.4877 35.3626 51.4741 35.1439 51.4741 34.916V30.7051H50.3393V29.7344L51.5288 29.666L51.6791 27.5332H52.7455V29.666H54.7963V30.7051H52.7455V34.9434C52.7455 35.7819 53.0099 36.2604 53.5385 36.3789C53.657 36.4062 53.7846 36.4199 53.9213 36.4199C54.1492 36.4199 54.4363 36.3516 54.7827 36.2148L55.0424 37.1719C54.4591 37.3542 53.9897 37.4453 53.6342 37.4453ZM56.099 37.2676V29.666H57.1517L57.2611 31.0469H57.3021C57.8034 30.1445 58.4232 29.6296 59.1615 29.502C59.2617 29.4837 59.362 29.4746 59.4623 29.4746C59.7995 29.4746 60.0684 29.5293 60.2689 29.6387L60.0365 30.7598C59.8177 30.6777 59.5716 30.6367 59.2982 30.6367C58.6784 30.6367 58.1452 30.9967 57.6986 31.7168C57.5801 31.9173 57.4707 32.1406 57.3705 32.3867V37.2676H56.099ZM62.8567 37.4453C61.9817 37.4453 61.3483 37.1354 60.9563 36.5156C60.7376 36.1602 60.6282 35.7546 60.6282 35.2988C60.6282 34.2871 61.2161 33.5488 62.3919 33.084C63.1028 32.8014 64.0735 32.5918 65.304 32.4551C65.2858 31.179 64.7662 30.5365 63.7454 30.5273C63.0253 30.5365 62.2643 30.8099 61.4622 31.3477L60.9563 30.459C61.9772 29.8027 62.9752 29.4746 63.9505 29.4746C65.3723 29.4746 66.22 30.1764 66.4934 31.5801C66.5572 31.89 66.5891 32.2272 66.5891 32.5918V37.2676H65.5364L65.427 36.3516H65.386C64.5019 37.0807 63.6588 37.4453 62.8567 37.4453ZM63.2259 36.4336C63.8274 36.4336 64.47 36.1374 65.1536 35.5449C65.2083 35.4993 65.2584 35.4583 65.304 35.4219V33.2891C63.4446 33.5169 62.3509 33.9544 62.0227 34.6016C61.9316 34.7839 61.886 34.9844 61.886 35.2031C61.886 35.8685 62.2005 36.265 62.8294 36.3926C62.957 36.4199 63.0891 36.4336 63.2259 36.4336ZM70.968 37.4453C69.7102 37.4453 69.0038 36.821 68.8488 35.5723C68.8215 35.3626 68.8078 35.1439 68.8078 34.916V30.7051H67.673V29.7344L68.8625 29.666L69.0129 27.5332H70.0793V29.666H72.1301V30.7051H70.0793V34.9434C70.0793 35.7819 70.3436 36.2604 70.8723 36.3789C70.9908 36.4062 71.1184 36.4199 71.2551 36.4199C71.4829 36.4199 71.7701 36.3516 72.1164 36.2148L72.3762 37.1719C71.7928 37.3542 71.3234 37.4453 70.968 37.4453ZM73.4327 37.2676V29.666H74.7042V37.2676H73.4327ZM74.0753 28.0938C73.6743 28.0938 73.4054 27.9297 73.2687 27.6016C73.2231 27.4922 73.2003 27.3828 73.2003 27.2734C73.2003 26.8633 73.3872 26.599 73.7609 26.4805C73.8702 26.4531 73.975 26.4395 74.0753 26.4395C74.4946 26.4395 74.7726 26.6081 74.9093 26.9453C74.9458 27.0547 74.964 27.1641 74.964 27.2734C74.964 27.638 74.7908 27.8887 74.4445 28.0254C74.326 28.071 74.2029 28.0938 74.0753 28.0938ZM79.8077 37.4453C78.7868 37.4453 77.9392 37.0671 77.2647 36.3105C76.6084 35.5632 76.2803 34.6152 76.2803 33.4668C76.2803 32.0814 76.7269 31.0104 77.6202 30.2539C78.2582 29.7344 78.9873 29.4746 79.8077 29.4746C80.8376 29.4746 81.6898 29.8574 82.3643 30.623C83.0114 31.3704 83.335 32.3184 83.335 33.4668C83.335 34.8431 82.8884 35.9049 81.9952 36.6523C81.3662 37.181 80.6371 37.4453 79.8077 37.4453ZM79.8077 36.3789C80.6097 36.3789 81.2159 36.0007 81.626 35.2441C81.8903 34.7428 82.0225 34.1504 82.0225 33.4668C82.0225 32.3457 81.7035 31.5163 81.0655 30.9785C80.7009 30.6777 80.2816 30.5273 79.8077 30.5273C79.0147 30.5273 78.4177 30.9102 78.0166 31.6758C77.7523 32.1771 77.6202 32.7741 77.6202 33.4668C77.6202 34.6243 77.9483 35.4583 78.6045 35.9688C78.9509 36.2422 79.3519 36.3789 79.8077 36.3789ZM84.9111 37.2676V29.666H85.9638L86.0732 30.7598H86.1142C86.9436 29.9486 87.7457 29.5202 88.5205 29.4746C88.5752 29.4746 88.6253 29.4746 88.6709 29.4746C90.2112 29.4928 90.986 30.4863 90.9951 32.4551V37.2676H89.7099V32.6191C89.7099 31.5345 89.4228 30.8874 88.8486 30.6777C88.6754 30.623 88.484 30.5957 88.2744 30.5957C87.7275 30.5957 87.1715 30.8464 86.6064 31.3477C86.4788 31.4661 86.3375 31.6029 86.1826 31.7578V37.2676H84.9111Z" fill="white"/>
<path d="M60.3281 87.4199C59.3203 87.4199 58.5781 86.9902 58.1016 86.1309C57.7891 85.5527 57.6328 84.8457 57.6328 84.0098C57.6328 82.8613 57.9844 81.959 58.6875 81.3027C59.2031 80.8262 59.793 80.5879 60.457 80.5879C61.0273 80.5879 61.5703 80.7871 62.0859 81.1855C62.1562 81.2402 62.2266 81.2949 62.2969 81.3496L62.2266 80.2246V77.7168H63.3281V87.2676H62.4375L62.332 86.4941H62.3086C61.6758 87.1035 61.0156 87.4121 60.3281 87.4199ZM60.5625 86.5059C61.1406 86.498 61.6953 86.2012 62.2266 85.6152V82.1934C61.7031 81.7324 61.1758 81.502 60.6445 81.502C60.0273 81.502 59.5391 81.7949 59.1797 82.3809C58.9062 82.834 58.7695 83.373 58.7695 83.998C58.7695 85.2012 59.1094 85.9785 59.7891 86.3301C60.0234 86.4473 60.2812 86.5059 60.5625 86.5059ZM68.8162 87.4199C67.8397 87.4199 67.0584 87.0684 66.4725 86.3652C65.9569 85.7402 65.6991 84.9551 65.6991 84.0098C65.6991 82.8848 66.0584 81.9941 66.7772 81.3379C67.3241 80.8379 67.9452 80.5879 68.6405 80.5879C69.6952 80.5879 70.4412 81.0293 70.8787 81.9121C71.1131 82.4043 71.2303 82.9824 71.2303 83.6465C71.2303 83.8574 71.2147 84.0645 71.1834 84.2676H66.7889C66.8358 85.1738 67.1717 85.8262 67.7967 86.2246C68.1327 86.4434 68.5194 86.5527 68.9569 86.5527C69.5428 86.5449 70.0858 86.373 70.5858 86.0371L70.9842 86.752C70.2967 87.1973 69.5741 87.4199 68.8162 87.4199ZM66.7772 83.4824H70.2694C70.2694 82.3965 69.9022 81.7441 69.1678 81.5254C69.0037 81.4785 68.8319 81.4551 68.6522 81.4551C68.035 81.4551 67.5467 81.7285 67.1873 82.2754C66.9608 82.6191 66.8241 83.0215 66.7772 83.4824ZM73.4958 90.0098V80.752H74.3981L74.4919 81.4902H74.527C75.2614 80.8965 75.9528 80.5957 76.6012 80.5879C77.6481 80.5879 78.3903 81.0566 78.8278 81.9941C79.0778 82.5176 79.2028 83.1543 79.2028 83.9043C79.2028 85.1465 78.8317 86.0957 78.0895 86.752C77.5895 87.1973 77.0153 87.4199 76.3669 87.4199C75.7731 87.4121 75.1716 87.1621 74.5622 86.6699L74.5856 87.8066V90.0098H73.4958ZM76.1911 86.5059C76.8552 86.5059 77.3591 86.1816 77.7028 85.5332C77.9372 85.0879 78.0544 84.5488 78.0544 83.916C78.0387 82.3145 77.4684 81.5098 76.3434 81.502C75.8122 81.5098 75.2262 81.8105 74.5856 82.4043V85.8262C75.1169 86.2793 75.652 86.5059 76.1911 86.5059ZM83.0855 87.4199C82.3355 87.4199 81.7925 87.1543 81.4566 86.623C81.2691 86.3184 81.1753 85.9707 81.1753 85.5801C81.1753 84.7129 81.6792 84.0801 82.687 83.6816C83.2964 83.4395 84.1284 83.2598 85.1831 83.1426C85.1675 82.0488 84.7222 81.498 83.8472 81.4902C83.23 81.498 82.5777 81.7324 81.8902 82.1934L81.4566 81.4316C82.3316 80.8691 83.187 80.5879 84.023 80.5879C85.2417 80.5879 85.9683 81.1895 86.2027 82.3926C86.2573 82.6582 86.2847 82.9473 86.2847 83.2598V87.2676H85.3823L85.2886 86.4824H85.2534C84.4956 87.1074 83.773 87.4199 83.0855 87.4199ZM83.4019 86.5527C83.9175 86.5527 84.4683 86.2988 85.0542 85.791C85.1011 85.752 85.1441 85.7168 85.1831 85.6855V83.8574C83.5894 84.0527 82.6519 84.4277 82.3706 84.9824C82.2925 85.1387 82.2534 85.3105 82.2534 85.498C82.2534 86.0684 82.523 86.4082 83.062 86.5176C83.1714 86.541 83.2847 86.5527 83.4019 86.5527ZM89.0072 87.2676V80.752H89.9095L90.0033 81.9355H90.0384C90.4681 81.1621 90.9994 80.7207 91.6322 80.6113C91.7181 80.5957 91.8041 80.5879 91.89 80.5879C92.1791 80.5879 92.4095 80.6348 92.5814 80.7285L92.3822 81.6895C92.1947 81.6191 91.9837 81.584 91.7494 81.584C91.2181 81.584 90.7611 81.8926 90.3783 82.5098C90.2767 82.6816 90.183 82.873 90.097 83.084V87.2676H89.0072ZM96.3703 87.4199C95.2922 87.4199 94.6867 86.8848 94.5539 85.8145C94.5305 85.6348 94.5187 85.4473 94.5187 85.252V81.6426H93.5461V80.8105L94.5656 80.752L94.6945 78.9238H95.6086V80.752H97.3664V81.6426H95.6086V85.2754C95.6086 85.9941 95.8352 86.4043 96.2883 86.5059C96.3898 86.5293 96.4992 86.541 96.6164 86.541C96.8117 86.541 97.0578 86.4824 97.3547 86.3652L97.5773 87.1855C97.0773 87.3418 96.675 87.4199 96.3703 87.4199ZM99.503 87.2676V80.752H100.405L100.499 81.7012H100.534C101.214 80.9668 101.89 80.5957 102.562 80.5879C103.476 80.5957 104.077 81.0098 104.366 81.8301C105.132 81.0098 105.847 80.5957 106.511 80.5879C107.823 80.6035 108.483 81.4551 108.491 83.1426V87.2676H107.401V83.2832C107.401 82.3066 107.132 81.7441 106.593 81.5957C106.468 81.5645 106.335 81.5488 106.194 81.5488C105.694 81.5566 105.144 81.8887 104.542 82.5449V87.2676H103.452V83.2832C103.452 82.3066 103.183 81.7441 102.644 81.5957C102.519 81.5645 102.386 81.5488 102.245 81.5488C101.73 81.5566 101.179 81.8887 100.593 82.5449V87.2676H99.503ZM113.897 87.4199C112.921 87.4199 112.14 87.0684 111.554 86.3652C111.038 85.7402 110.78 84.9551 110.78 84.0098C110.78 82.8848 111.14 81.9941 111.858 81.3379C112.405 80.8379 113.026 80.5879 113.722 80.5879C114.776 80.5879 115.522 81.0293 115.96 81.9121C116.194 82.4043 116.311 82.9824 116.311 83.6465C116.311 83.8574 116.296 84.0645 116.265 84.2676H111.87C111.917 85.1738 112.253 85.8262 112.878 86.2246C113.214 86.4434 113.6 86.5527 114.038 86.5527C114.624 86.5449 115.167 86.373 115.667 86.0371L116.065 86.752C115.378 87.1973 114.655 87.4199 113.897 87.4199ZM111.858 83.4824H115.35C115.35 82.3965 114.983 81.7441 114.249 81.5254C114.085 81.4785 113.913 81.4551 113.733 81.4551C113.116 81.4551 112.628 81.7285 112.268 82.2754C112.042 82.6191 111.905 83.0215 111.858 83.4824ZM118.577 87.2676V80.752H119.479L119.573 81.6895H119.608C120.319 80.9941 121.007 80.627 121.671 80.5879C121.717 80.5879 121.76 80.5879 121.8 80.5879C123.12 80.6035 123.784 81.4551 123.792 83.1426V87.2676H122.69V83.2832C122.69 82.3535 122.444 81.7988 121.952 81.6191C121.803 81.5723 121.639 81.5488 121.46 81.5488C120.991 81.5488 120.514 81.7637 120.03 82.1934C119.921 82.2949 119.8 82.4121 119.667 82.5449V87.2676H118.577ZM128.612 87.4199C127.534 87.4199 126.928 86.8848 126.795 85.8145C126.772 85.6348 126.76 85.4473 126.76 85.252V81.6426H125.788V80.8105L126.807 80.752L126.936 78.9238H127.85V80.752H129.608V81.6426H127.85V85.2754C127.85 85.9941 128.077 86.4043 128.53 86.5059C128.631 86.5293 128.741 86.541 128.858 86.541C129.053 86.541 129.299 86.4824 129.596 86.3652L129.819 87.1855C129.319 87.3418 128.917 87.4199 128.612 87.4199Z" fill="white"/>
<path d="M39.9204 44.4238V46.6738H24.2954V44.4238H39.9204ZM18.9517 42.4863L21.2329 43.3926C19.3579 45.9134 16.9933 48.2884 14.1392 50.5176C13.7642 50.8092 13.3996 51.0801 13.0454 51.3301C12.3579 50.3301 11.8892 49.6947 11.6392 49.4238C13.9725 47.8613 16.0558 46.0072 17.8892 43.8613C18.3058 43.3613 18.66 42.903 18.9517 42.4863ZM20.2642 49.2988L22.4829 50.1426C21.5454 51.6634 20.3683 53.2676 18.9517 54.9551V71.7988H16.6079V57.5801C15.2329 58.9759 14.0246 60.0905 12.9829 60.9238C12.3579 60.0697 11.8058 59.403 11.3267 58.9238C14.1808 56.8822 16.7329 54.3092 18.9829 51.2051C19.4621 50.5592 19.8892 49.9238 20.2642 49.2988ZM40.8579 53.1738V55.4551H36.0142V68.6738C36.0142 69.8822 35.6808 70.6738 35.0142 71.0488C34.8892 71.1113 34.7537 71.1738 34.6079 71.2363C33.7746 71.4863 31.7746 71.6113 28.6079 71.6113C28.5037 70.903 28.2433 70.1322 27.8267 69.2988C30.2642 69.3613 31.9308 69.3717 32.8267 69.3301C33.3058 69.1634 33.5662 68.9342 33.6079 68.6426V55.4551H22.9204V53.1738H40.8579ZM64.5042 50.6426L64.2854 51.1738C65.1187 55.3613 66.1917 58.7676 67.5042 61.3926C68.9833 58.5176 70.0458 54.9342 70.6917 50.6426H64.5042ZM75.2229 50.6426H73.0667C72.15 56.2051 70.7437 60.5697 68.8479 63.7363C70.6396 66.4655 72.8583 68.4551 75.5042 69.7051C74.9417 70.2259 74.4 70.903 73.8792 71.7363C71.3375 70.403 69.1917 68.4342 67.4417 65.8301C65.5875 68.2676 63.1917 70.2572 60.2542 71.7988C59.9 71.0488 59.4417 70.3509 58.8792 69.7051C61.9417 68.2259 64.3583 66.2155 66.1292 63.6738C64.8583 61.278 63.7646 58.2467 62.8479 54.5801C62.2229 55.8509 61.525 57.0176 60.7542 58.0801C60.2333 57.5384 59.6083 57.0072 58.8792 56.4863L59.0354 56.2676H55.4417V64.3926L60.9104 63.1426L61.1292 65.2988C55.4208 66.6947 50.4625 67.8717 46.2542 68.8301L45.8167 66.4551L47.6917 66.0801V51.8613H49.8792V65.5801L53.1292 64.8926V47.0488H46.3479V44.7676H60.9729V47.0488H55.4417V54.0488H59.7854V55.1426C61.7854 52.0384 63.275 47.8197 64.2542 42.4863L66.5979 42.8926C66.2646 44.5592 65.8062 46.3926 65.2229 48.3926H75.2229V50.6426ZM96.3067 46.0488V48.1113H81.1504V46.0488H87.5567V42.6113H89.8067V46.0488H96.3067ZM92.3692 54.5176L90.4629 54.0488C91.2546 52.0905 91.8483 50.2676 92.2442 48.5801L94.4942 49.1426C93.4108 52.0384 92.7025 53.8301 92.3692 54.5176ZM86.5567 53.9551L84.4942 54.4238C84.3067 52.7363 83.8379 51.0072 83.0879 49.2363L85.0879 48.8301C85.8587 50.4551 86.3483 52.1634 86.5567 53.9551ZM92.6504 61.8613H84.6504V67.7676H92.6504V61.8613ZM82.4629 71.7363V59.7676H94.9629V71.5488H92.6504V69.8301H84.6504V71.7363H82.4629ZM80.3067 56.9863V54.7988H96.7442V56.9863H80.3067ZM107.838 44.2676L109.557 45.3926C107.64 49.7467 106.161 52.9447 105.119 54.9863C107.765 57.4447 109.109 60.028 109.15 62.7363C109.13 64.7988 108.609 66.1842 107.588 66.8926C106.984 67.2884 106.286 67.528 105.494 67.6113C104.786 67.6947 103.859 67.7155 102.713 67.6738C102.671 66.7988 102.442 66.0072 102.025 65.2988C102.88 65.3822 103.723 65.403 104.557 65.3613C105.14 65.3197 105.598 65.2051 105.932 65.0176C106.515 64.6426 106.807 63.7988 106.807 62.4863C106.786 60.0697 105.411 57.6842 102.682 55.3301C103.744 53.1634 104.984 50.2572 106.4 46.6113H100.338V71.7051H98.0254V44.3613H107.432L107.838 44.2676Z" fill="white"/>
</svg>
