<svg width="50" height="43" viewBox="0 0 50 43" fill="none" xmlns="http://www.w3.org/2000/svg">
<g clip-path="url(#clip0_300_2751)">
<path d="M25.5636 36.8641L25.1088 32.4768C24.154 23.2155 23.5446 22.6029 14.1867 21.6569L9.75781 21.2065L14.1867 20.756C23.5356 19.8101 24.154 19.2065 25.1088 9.93622L25.5636 5.54883L26.0183 9.93622C26.9732 19.1975 27.5825 19.8101 36.9404 20.756L41.3693 21.2065L36.9404 21.6569C27.5916 22.6029 26.9732 23.2065 26.0183 32.4768L25.5636 36.8641ZM17.9517 21.2065C23.2536 22.0353 24.7269 23.4948 25.5636 28.747C26.4002 23.4948 27.8735 22.0353 33.1754 21.2065C27.8735 20.3777 26.4002 18.9182 25.5636 13.6659C24.7269 18.9182 23.2536 20.3777 17.9517 21.2065Z" fill="url(#paint0_linear_300_2751)"/>
<path d="M42.0916 39.8819C47.3424 34.2622 42.7661 21.6072 31.87 11.6163C20.9739 1.62536 7.8843 -1.9182 2.63346 3.70153C-2.61738 9.32126 1.95898 21.9762 12.855 31.9671C23.7511 41.9581 36.8408 45.5016 42.0916 39.8819Z" stroke="#4F9ACD" stroke-miterlimit="10"/>
<path d="M37.1444 31.3818C48.0405 21.3908 52.6168 8.73588 47.366 3.11615C42.1152 -2.50359 29.0255 1.03997 18.1295 11.0309C7.2334 21.0218 2.65704 33.6768 7.90787 39.2965C13.1587 44.9163 26.2484 41.3727 37.1444 31.3818Z" stroke="#4F9ACD" stroke-miterlimit="10"/>
</g>
<defs>
<linearGradient id="paint0_linear_300_2751" x1="9.76363" y1="21.2083" x2="41.366" y2="21.2083" gradientUnits="userSpaceOnUse">
<stop offset="0.119" stop-color="#92CAC5"/>
<stop offset="1" stop-color="#4F9ACD"/>
</linearGradient>
<clipPath id="clip0_300_2751">
<rect width="50" height="43" fill="white"/>
</clipPath>
</defs>
</svg>
