<svg width="81" height="81" viewBox="0 0 81 81" fill="none" xmlns="http://www.w3.org/2000/svg">
<g filter="url(#filter0_f_300_2532)">
<circle cx="40.5" cy="40.5" r="37.5" fill="url(#paint0_linear_300_2532)"/>
</g>
<path d="M31.8 53.964V49.716L42.672 40.068C43.488 39.348 44.064 38.67 44.4 38.034C44.736 37.398 44.904 36.804 44.904 36.252C44.904 35.46 44.742 34.758 44.418 34.146C44.094 33.522 43.638 33.036 43.05 32.688C42.462 32.328 41.772 32.148 40.98 32.148C40.152 32.148 39.42 32.34 38.784 32.724C38.16 33.096 37.674 33.594 37.326 34.218C36.978 34.83 36.816 35.496 36.84 36.216H31.8C31.8 34.44 32.19 32.904 32.97 31.608C33.75 30.312 34.836 29.31 36.228 28.602C37.62 27.894 39.24 27.54 41.088 27.54C42.78 27.54 44.292 27.912 45.624 28.656C46.968 29.388 48.024 30.414 48.792 31.734C49.56 33.054 49.944 34.584 49.944 36.324C49.944 37.608 49.764 38.676 49.404 39.528C49.044 40.368 48.51 41.148 47.802 41.868C47.094 42.576 46.224 43.38 45.192 44.28L38.172 50.436L37.776 49.356H49.944V53.964H31.8Z" fill="#3D3B3B"/>
<defs>
<filter id="filter0_f_300_2532" x="0" y="0" width="81" height="81" filterUnits="userSpaceOnUse" color-interpolation-filters="sRGB">
<feFlood flood-opacity="0" result="BackgroundImageFix"/>
<feBlend mode="normal" in="SourceGraphic" in2="BackgroundImageFix" result="shape"/>
<feGaussianBlur stdDeviation="1.5" result="effect1_foregroundBlur_300_2532"/>
</filter>
<linearGradient id="paint0_linear_300_2532" x1="-7.5" y1="16" x2="78" y2="53.5" gradientUnits="userSpaceOnUse">
<stop stop-color="#EB68A1"/>
<stop offset="1" stop-color="#97D2CC"/>
</linearGradient>
</defs>
</svg>
