<svg width="146" height="115" viewBox="0 0 146 115" fill="none" xmlns="http://www.w3.org/2000/svg">
<path d="M49.6978 20.4306C80.2816 -0.510838 114.24 -5.40671 128.44 10.0737C143.878 26.9047 130.119 61.4548 97.6906 87.2041" stroke="white" stroke-width="2" stroke-miterlimit="10"/>
<path d="M53.5373 24.6799C52.2822 25.5626 50.7022 25.9455 49.1441 25.7446C47.586 25.5437 46.1772 24.7753 45.2271 23.6083C44.2793 22.441 43.8682 20.9711 44.084 19.5218C44.2999 18.0725 45.1251 16.7623 46.3782 15.8791C46.9986 15.4413 47.7057 15.1217 48.459 14.9386C49.2123 14.7555 49.997 14.7125 50.7681 14.812C51.5393 14.9115 52.2818 15.1517 52.9531 15.5187C53.6244 15.8857 54.2114 16.3723 54.6805 16.9507C55.1512 17.5279 55.495 18.1858 55.6923 18.8868C55.8896 19.5878 55.9365 20.3181 55.8303 21.036C55.7241 21.7539 55.4671 22.4452 55.0736 23.0705C54.6801 23.6957 54.158 24.2427 53.5373 24.6799Z" fill="white"/>
<path d="M78.7127 99.8724C51.3694 114.861 23.5608 117.019 11.0639 103.396C6.66439 98.6026 4.63808 92.3855 4.75635 85.3242" stroke="white" stroke-width="2" stroke-miterlimit="10"/>
<path d="M75.3379 95.2998C76.6782 94.5352 78.2892 94.296 79.8185 94.6344C81.3478 94.9728 82.6709 95.8613 83.4984 97.1055C84.3217 98.3527 84.5798 99.8531 84.2162 101.277C83.8526 102.702 82.8969 103.934 81.5588 104.703C80.2191 105.469 78.6073 105.709 77.0774 105.371C75.5475 105.032 74.2244 104.143 73.3983 102.897C72.5771 101.649 72.3201 100.149 72.6836 98.7256C73.0471 97.3019 74.0014 96.0701 75.3379 95.2998Z" fill="white"/>
<path opacity="0.1" d="M93.9299 98.5381C65.1043 115.986 34.7253 119.252 21.4952 104.829C6.05737 87.9977 19.8158 53.4475 52.2446 27.6909C84.6734 1.93429 123.449 -5.33982 138.887 11.5058C154.325 28.3515 140.567 62.887 108.138 88.6362" stroke="white" stroke-miterlimit="10"/>
<path d="M1.39453 37V26.7324H3.97852C6.12956 26.7324 7.57422 27.5391 8.3125 29.1523C8.64974 29.9089 8.81836 30.8021 8.81836 31.832C8.81836 33.9648 8.13932 35.4551 6.78125 36.3027C6.02474 36.7676 5.10872 37 4.0332 37H1.39453ZM2.70703 35.9336H3.86914C5.67383 35.9336 6.80859 35.1315 7.27344 33.5273C7.41016 33.026 7.47852 32.4609 7.47852 31.832C7.47852 29.5625 6.61263 28.2454 4.88086 27.8809C4.57096 27.8171 4.23372 27.7852 3.86914 27.7852H2.70703V35.9336ZM14.729 37.1777C13.5897 37.1777 12.6782 36.7676 11.9946 35.9473C11.393 35.2181 11.0923 34.3021 11.0923 33.1992C11.0923 31.8867 11.5115 30.8477 12.3501 30.082C12.9881 29.4987 13.7127 29.207 14.5239 29.207C15.7544 29.207 16.6248 29.722 17.1352 30.752C17.4087 31.3262 17.5454 32.0007 17.5454 32.7754C17.5454 33.0215 17.5272 33.263 17.4907 33.5H12.3638C12.4184 34.5573 12.8104 35.3184 13.5395 35.7832C13.9315 36.0384 14.3826 36.166 14.893 36.166C15.5766 36.1569 16.2101 35.9564 16.7934 35.5645L17.2583 36.3984C16.4562 36.918 15.6131 37.1777 14.729 37.1777ZM12.3501 32.584H16.4243C16.4243 31.3171 15.9959 30.556 15.1391 30.3008C14.9477 30.2461 14.7472 30.2188 14.5376 30.2188C13.8175 30.2188 13.2479 30.5378 12.8286 31.1758C12.5643 31.5768 12.4048 32.0462 12.3501 32.584ZM22.1845 37.1777C21.1637 37.1777 20.2431 36.8542 19.4228 36.207C19.3955 36.1797 19.3681 36.1569 19.3408 36.1387L19.9697 35.291C20.7171 35.8926 21.469 36.1934 22.2255 36.1934C22.9821 36.1934 23.456 35.9336 23.6474 35.4141C23.693 35.2773 23.7158 35.1406 23.7158 35.0039C23.7158 34.5482 23.3603 34.1562 22.6494 33.8281C22.4944 33.7643 22.2711 33.6732 21.9795 33.5547C21.0315 33.1992 20.3981 32.8255 20.0791 32.4336C19.833 32.1146 19.7099 31.7546 19.7099 31.3535C19.7099 30.5879 20.0426 30.0046 20.708 29.6035C21.1637 29.3392 21.706 29.207 22.3349 29.207C23.1826 29.2161 23.971 29.4987 24.7002 30.0547L24.0849 30.8887C23.4651 30.4329 22.8818 30.2051 22.3349 30.2051C21.6058 30.2051 21.1637 30.4557 21.0088 30.957C20.9723 31.0755 20.9541 31.1895 20.9541 31.2988C20.9541 31.6908 21.2366 32.0189 21.8017 32.2832C21.9293 32.3379 22.2028 32.4473 22.622 32.6113C23.4606 32.9303 24.0257 33.222 24.3173 33.4863C24.7366 33.8691 24.9463 34.3477 24.9463 34.9219C24.9463 35.7148 24.609 36.321 23.9345 36.7402C23.4515 37.0319 22.8681 37.1777 22.1845 37.1777ZM27.5073 37V29.3984H28.7787V37H27.5073ZM28.1498 27.8262C27.7488 27.8262 27.4799 27.6621 27.3432 27.334C27.2976 27.2246 27.2748 27.1152 27.2748 27.0059C27.2748 26.5957 27.4617 26.3314 27.8354 26.2129C27.9448 26.1855 28.0496 26.1719 28.1498 26.1719C28.5691 26.1719 28.8471 26.3405 28.9838 26.6777C29.0203 26.7871 29.0385 26.8965 29.0385 27.0059C29.0385 27.3704 28.8653 27.6211 28.519 27.7578C28.4005 27.8034 28.2774 27.8262 28.1498 27.8262ZM34.6894 40.5C33.3495 40.5 32.4198 40.1719 31.9003 39.5156C31.6542 39.2057 31.5312 38.8503 31.5312 38.4492C31.5403 37.8021 31.9185 37.2324 32.6659 36.7402V36.6719C32.2102 36.3984 31.9778 35.9837 31.9687 35.4277C31.9687 34.8991 32.2376 34.4388 32.7753 34.0469C32.7935 34.0378 32.8072 34.0286 32.8163 34.0195V33.9648C32.2239 33.4909 31.9003 32.8802 31.8456 32.1328C31.8365 32.0508 31.832 31.9779 31.832 31.9141C31.832 30.9661 32.2057 30.2324 32.953 29.7129C33.4635 29.3757 34.0422 29.207 34.6894 29.207C35.0448 29.207 35.3958 29.2708 35.7421 29.3984H38.3945V30.3828H36.8359C37.246 30.7839 37.4511 31.3034 37.4511 31.9414C37.4511 32.9076 37.0774 33.6367 36.33 34.1289C35.856 34.4388 35.3092 34.5938 34.6894 34.5938C34.3066 34.5938 33.9283 34.5026 33.5546 34.3203C33.2356 34.612 33.0715 34.9173 33.0624 35.2363C33.0624 35.7194 33.3951 35.9883 34.0605 36.043C34.1698 36.0521 34.2792 36.0566 34.3886 36.0566H35.8788C37.5195 36.0566 38.3945 36.5762 38.5038 37.6152C38.5129 37.6973 38.5175 37.7793 38.5175 37.8613C38.5175 38.6361 38.1392 39.2741 37.3827 39.7754C36.6627 40.2585 35.7649 40.5 34.6894 40.5ZM34.6894 33.7188C35.2636 33.7188 35.7011 33.4727 36.0019 32.9805C36.1933 32.6706 36.289 32.3151 36.289 31.9141C36.289 31.1576 36.0155 30.6289 35.4687 30.3281C35.2317 30.2005 34.9719 30.1367 34.6894 30.1367C34.0605 30.1367 33.5956 30.401 33.2948 30.9297C33.1399 31.2122 33.0624 31.5404 33.0624 31.9141C33.0624 32.6341 33.3267 33.1582 33.8554 33.4863C34.1106 33.6413 34.3886 33.7188 34.6894 33.7188ZM34.8671 39.6387C35.7603 39.6387 36.4439 39.3926 36.9179 38.9004C37.164 38.6361 37.287 38.3581 37.287 38.0664C37.287 37.5195 36.9133 37.2096 36.1659 37.1367C36.0292 37.1276 35.8834 37.123 35.7284 37.123H34.4159C34.0969 37.123 33.7688 37.082 33.4316 37C32.9211 37.3828 32.6614 37.8112 32.6523 38.2852C32.6523 38.832 32.9895 39.224 33.664 39.4609C34.0103 39.5794 34.4114 39.6387 34.8671 39.6387ZM40.7641 37V29.3984H41.8168L41.9262 30.4922H41.9672C42.7966 29.681 43.5987 29.2526 44.3734 29.207C44.4281 29.207 44.4783 29.207 44.5238 29.207C46.0642 29.2253 46.8389 30.2188 46.848 32.1875V37H45.5629V32.3516C45.5629 31.2669 45.2758 30.6198 44.7016 30.4102C44.5284 30.3555 44.337 30.3281 44.1273 30.3281C43.5805 30.3281 43.0245 30.5788 42.4594 31.0801C42.3318 31.1986 42.1905 31.3353 42.0355 31.4902V37H40.7641Z" fill="white"/>
<path d="M60.3281 87.4199C59.3203 87.4199 58.5781 86.9902 58.1016 86.1309C57.7891 85.5527 57.6328 84.8457 57.6328 84.0098C57.6328 82.8613 57.9844 81.959 58.6875 81.3027C59.2031 80.8262 59.793 80.5879 60.457 80.5879C61.0273 80.5879 61.5703 80.7871 62.0859 81.1855C62.1562 81.2402 62.2266 81.2949 62.2969 81.3496L62.2266 80.2246V77.7168H63.3281V87.2676H62.4375L62.332 86.4941H62.3086C61.6758 87.1035 61.0156 87.4121 60.3281 87.4199ZM60.5625 86.5059C61.1406 86.498 61.6953 86.2012 62.2266 85.6152V82.1934C61.7031 81.7324 61.1758 81.502 60.6445 81.502C60.0273 81.502 59.5391 81.7949 59.1797 82.3809C58.9062 82.834 58.7695 83.373 58.7695 83.998C58.7695 85.2012 59.1094 85.9785 59.7891 86.3301C60.0234 86.4473 60.2812 86.5059 60.5625 86.5059ZM68.8162 87.4199C67.8397 87.4199 67.0584 87.0684 66.4725 86.3652C65.9569 85.7402 65.6991 84.9551 65.6991 84.0098C65.6991 82.8848 66.0584 81.9941 66.7772 81.3379C67.3241 80.8379 67.9452 80.5879 68.6405 80.5879C69.6952 80.5879 70.4412 81.0293 70.8787 81.9121C71.1131 82.4043 71.2303 82.9824 71.2303 83.6465C71.2303 83.8574 71.2147 84.0645 71.1834 84.2676H66.7889C66.8358 85.1738 67.1717 85.8262 67.7967 86.2246C68.1327 86.4434 68.5194 86.5527 68.9569 86.5527C69.5428 86.5449 70.0858 86.373 70.5858 86.0371L70.9842 86.752C70.2967 87.1973 69.5741 87.4199 68.8162 87.4199ZM66.7772 83.4824H70.2694C70.2694 82.3965 69.9022 81.7441 69.1678 81.5254C69.0037 81.4785 68.8319 81.4551 68.6522 81.4551C68.035 81.4551 67.5467 81.7285 67.1873 82.2754C66.9608 82.6191 66.8241 83.0215 66.7772 83.4824ZM73.4958 90.0098V80.752H74.3981L74.4919 81.4902H74.527C75.2614 80.8965 75.9528 80.5957 76.6012 80.5879C77.6481 80.5879 78.3903 81.0566 78.8278 81.9941C79.0778 82.5176 79.2028 83.1543 79.2028 83.9043C79.2028 85.1465 78.8317 86.0957 78.0895 86.752C77.5895 87.1973 77.0153 87.4199 76.3669 87.4199C75.7731 87.4121 75.1716 87.1621 74.5622 86.6699L74.5856 87.8066V90.0098H73.4958ZM76.1911 86.5059C76.8552 86.5059 77.3591 86.1816 77.7028 85.5332C77.9372 85.0879 78.0544 84.5488 78.0544 83.916C78.0387 82.3145 77.4684 81.5098 76.3434 81.502C75.8122 81.5098 75.2262 81.8105 74.5856 82.4043V85.8262C75.1169 86.2793 75.652 86.5059 76.1911 86.5059ZM83.0855 87.4199C82.3355 87.4199 81.7925 87.1543 81.4566 86.623C81.2691 86.3184 81.1753 85.9707 81.1753 85.5801C81.1753 84.7129 81.6792 84.0801 82.687 83.6816C83.2964 83.4395 84.1284 83.2598 85.1831 83.1426C85.1675 82.0488 84.7222 81.498 83.8472 81.4902C83.23 81.498 82.5777 81.7324 81.8902 82.1934L81.4566 81.4316C82.3316 80.8691 83.187 80.5879 84.023 80.5879C85.2417 80.5879 85.9683 81.1895 86.2027 82.3926C86.2573 82.6582 86.2847 82.9473 86.2847 83.2598V87.2676H85.3823L85.2886 86.4824H85.2534C84.4956 87.1074 83.773 87.4199 83.0855 87.4199ZM83.4019 86.5527C83.9175 86.5527 84.4683 86.2988 85.0542 85.791C85.1011 85.752 85.1441 85.7168 85.1831 85.6855V83.8574C83.5894 84.0527 82.6519 84.4277 82.3706 84.9824C82.2925 85.1387 82.2534 85.3105 82.2534 85.498C82.2534 86.0684 82.523 86.4082 83.062 86.5176C83.1714 86.541 83.2847 86.5527 83.4019 86.5527ZM89.0072 87.2676V80.752H89.9095L90.0033 81.9355H90.0384C90.4681 81.1621 90.9994 80.7207 91.6322 80.6113C91.7181 80.5957 91.8041 80.5879 91.89 80.5879C92.1791 80.5879 92.4095 80.6348 92.5814 80.7285L92.3822 81.6895C92.1947 81.6191 91.9837 81.584 91.7494 81.584C91.2181 81.584 90.7611 81.8926 90.3783 82.5098C90.2767 82.6816 90.183 82.873 90.097 83.084V87.2676H89.0072ZM96.3703 87.4199C95.2922 87.4199 94.6867 86.8848 94.5539 85.8145C94.5305 85.6348 94.5187 85.4473 94.5187 85.252V81.6426H93.5461V80.8105L94.5656 80.752L94.6945 78.9238H95.6086V80.752H97.3664V81.6426H95.6086V85.2754C95.6086 85.9941 95.8352 86.4043 96.2883 86.5059C96.3898 86.5293 96.4992 86.541 96.6164 86.541C96.8117 86.541 97.0578 86.4824 97.3547 86.3652L97.5773 87.1855C97.0773 87.3418 96.675 87.4199 96.3703 87.4199ZM99.503 87.2676V80.752H100.405L100.499 81.7012H100.534C101.214 80.9668 101.89 80.5957 102.562 80.5879C103.476 80.5957 104.077 81.0098 104.366 81.8301C105.132 81.0098 105.847 80.5957 106.511 80.5879C107.823 80.6035 108.483 81.4551 108.491 83.1426V87.2676H107.401V83.2832C107.401 82.3066 107.132 81.7441 106.593 81.5957C106.468 81.5645 106.335 81.5488 106.194 81.5488C105.694 81.5566 105.144 81.8887 104.542 82.5449V87.2676H103.452V83.2832C103.452 82.3066 103.183 81.7441 102.644 81.5957C102.519 81.5645 102.386 81.5488 102.245 81.5488C101.73 81.5566 101.179 81.8887 100.593 82.5449V87.2676H99.503ZM113.897 87.4199C112.921 87.4199 112.14 87.0684 111.554 86.3652C111.038 85.7402 110.78 84.9551 110.78 84.0098C110.78 82.8848 111.14 81.9941 111.858 81.3379C112.405 80.8379 113.026 80.5879 113.722 80.5879C114.776 80.5879 115.522 81.0293 115.96 81.9121C116.194 82.4043 116.311 82.9824 116.311 83.6465C116.311 83.8574 116.296 84.0645 116.265 84.2676H111.87C111.917 85.1738 112.253 85.8262 112.878 86.2246C113.214 86.4434 113.6 86.5527 114.038 86.5527C114.624 86.5449 115.167 86.373 115.667 86.0371L116.065 86.752C115.378 87.1973 114.655 87.4199 113.897 87.4199ZM111.858 83.4824H115.35C115.35 82.3965 114.983 81.7441 114.249 81.5254C114.085 81.4785 113.913 81.4551 113.733 81.4551C113.116 81.4551 112.628 81.7285 112.268 82.2754C112.042 82.6191 111.905 83.0215 111.858 83.4824ZM118.577 87.2676V80.752H119.479L119.573 81.6895H119.608C120.319 80.9941 121.007 80.627 121.671 80.5879C121.717 80.5879 121.76 80.5879 121.8 80.5879C123.12 80.6035 123.784 81.4551 123.792 83.1426V87.2676H122.69V83.2832C122.69 82.3535 122.444 81.7988 121.952 81.6191C121.803 81.5723 121.639 81.5488 121.46 81.5488C120.991 81.5488 120.514 81.7637 120.03 82.1934C119.921 82.2949 119.8 82.4121 119.667 82.5449V87.2676H118.577ZM128.612 87.4199C127.534 87.4199 126.928 86.8848 126.795 85.8145C126.772 85.6348 126.76 85.4473 126.76 85.252V81.6426H125.788V80.8105L126.807 80.752L126.936 78.9238H127.85V80.752H129.608V81.6426H127.85V85.2754C127.85 85.9941 128.077 86.4043 128.53 86.5059C128.631 86.5293 128.741 86.541 128.858 86.541C129.053 86.541 129.299 86.4824 129.596 86.3652L129.819 87.1855C129.319 87.3418 128.917 87.4199 128.612 87.4199Z" fill="white"/>
<path d="M22.6079 43.6113V45.5176H13.3892V43.6113H22.6079ZM23.7954 47.7988V49.7363H11.7329V47.7988H23.7954ZM20.6079 62.5801H15.2642V67.9551H20.6079V62.5801ZM22.6704 60.6426V69.8613H15.2642V71.3613H13.1704V60.6426H22.6704ZM13.2329 58.2676V56.3301H22.7017V58.2676H13.2329ZM13.2329 54.0176V52.1113H22.7017V54.0176H13.2329ZM28.5767 45.6113V47.3926C28.5558 51.1426 27.1912 53.9238 24.4829 55.7363C23.9829 55.153 23.3996 54.6322 22.7329 54.1738C25.0871 52.6113 26.2746 50.3405 26.2954 47.3613V43.5176H36.2642V51.3301C36.2642 51.8092 36.3787 52.0697 36.6079 52.1113C36.6912 52.1322 36.785 52.1426 36.8892 52.1426H38.4829C38.7746 52.1426 38.9621 51.9551 39.0454 51.5801C39.1704 51.1217 39.2433 50.153 39.2642 48.6738C39.7225 49.0488 40.3787 49.3301 41.2329 49.5176C41.1079 51.8717 40.7329 53.3092 40.1079 53.8301C39.7746 54.0801 39.3267 54.2051 38.7642 54.2051H36.5767C35.3892 54.2051 34.6496 53.8926 34.3579 53.2676C34.1496 52.8301 34.0454 52.1842 34.0454 51.3301V45.6113H28.5767ZM37.7954 56.1426L39.3267 56.7676C38.2642 60.5384 36.4621 63.6842 33.9204 66.2051C36.0454 67.7884 38.4933 68.9342 41.2642 69.6426C40.7017 70.1634 40.1912 70.8405 39.7329 71.6738C36.8371 70.7988 34.2954 69.4863 32.1079 67.7363C29.8579 69.4447 27.1808 70.7676 24.0767 71.7051C23.7433 70.8926 23.3162 70.1947 22.7954 69.6113C25.7121 68.8197 28.2329 67.653 30.3579 66.1113C28.4829 64.1738 26.9933 61.8405 25.8892 59.1113L27.9829 58.4863C28.9412 60.8405 30.3162 62.903 32.1079 64.6738C33.9412 62.9238 35.3371 60.8405 36.2954 58.4238H24.2017V56.2363H37.3579L37.7954 56.1426ZM57.4104 43.6113V45.5176H47.6292V43.6113H57.4104ZM58.5667 47.7988V49.7363H45.9729V47.7988H58.5667ZM55.1604 62.5801H49.5667V67.9551H55.1604V62.5801ZM57.3167 60.6426V69.8613H49.5667V71.3613H47.4417V60.6426H57.3167ZM47.4729 58.2676V56.3301H57.4104V58.2676H47.4729ZM47.4729 54.0176V52.1113H57.4104V54.0176H47.4729ZM75.5667 53.3613V55.7051H68.4104V71.7051H66.0354V55.7051H58.5354V53.3613H66.0354V42.5801H68.4104V53.3613H75.5667ZM96.3067 46.0488V48.1113H81.1504V46.0488H87.5567V42.6113H89.8067V46.0488H96.3067ZM92.3692 54.5176L90.4629 54.0488C91.2546 52.0905 91.8483 50.2676 92.2442 48.5801L94.4942 49.1426C93.4108 52.0384 92.7025 53.8301 92.3692 54.5176ZM86.5567 53.9551L84.4942 54.4238C84.3067 52.7363 83.8379 51.0072 83.0879 49.2363L85.0879 48.8301C85.8587 50.4551 86.3483 52.1634 86.5567 53.9551ZM92.6504 61.8613H84.6504V67.7676H92.6504V61.8613ZM82.4629 71.7363V59.7676H94.9629V71.5488H92.6504V69.8301H84.6504V71.7363H82.4629ZM80.3067 56.9863V54.7988H96.7442V56.9863H80.3067ZM107.838 44.2676L109.557 45.3926C107.64 49.7467 106.161 52.9447 105.119 54.9863C107.765 57.4447 109.109 60.028 109.15 62.7363C109.13 64.7988 108.609 66.1842 107.588 66.8926C106.984 67.2884 106.286 67.528 105.494 67.6113C104.786 67.6947 103.859 67.7155 102.713 67.6738C102.671 66.7988 102.442 66.0072 102.025 65.2988C102.88 65.3822 103.723 65.403 104.557 65.3613C105.14 65.3197 105.598 65.2051 105.932 65.0176C106.515 64.6426 106.807 63.7988 106.807 62.4863C106.786 60.0697 105.411 57.6842 102.682 55.3301C103.744 53.1634 104.984 50.2572 106.4 46.6113H100.338V71.7051H98.0254V44.3613H107.432L107.838 44.2676Z" fill="white"/>
</svg>
