<svg width="146" height="115" viewBox="0 0 146 115" fill="none" xmlns="http://www.w3.org/2000/svg">
<path d="M49.6978 20.4306C80.2816 -0.510838 114.24 -5.40671 128.44 10.0737C143.878 26.9047 130.119 61.4548 97.6906 87.2041" stroke="white" stroke-width="2" stroke-miterlimit="10"/>
<path d="M53.5373 24.6799C52.2822 25.5626 50.7022 25.9455 49.1441 25.7446C47.586 25.5437 46.1772 24.7753 45.2271 23.6083C44.2793 22.441 43.8682 20.9711 44.084 19.5218C44.2999 18.0725 45.1251 16.7623 46.3782 15.8791C46.9986 15.4413 47.7057 15.1217 48.459 14.9386C49.2123 14.7555 49.997 14.7125 50.7681 14.812C51.5393 14.9115 52.2818 15.1517 52.9531 15.5187C53.6244 15.8857 54.2114 16.3723 54.6805 16.9507C55.1512 17.5279 55.495 18.1858 55.6923 18.8868C55.8896 19.5878 55.9365 20.3181 55.8303 21.036C55.7241 21.7539 55.4671 22.4452 55.0736 23.0705C54.6801 23.6957 54.158 24.2427 53.5373 24.6799Z" fill="white"/>
<path d="M78.7127 99.8724C51.3694 114.861 23.5608 117.019 11.0639 103.396C6.66439 98.6026 4.63808 92.3855 4.75635 85.3242" stroke="white" stroke-width="2" stroke-miterlimit="10"/>
<path d="M75.3379 95.2998C76.6782 94.5352 78.2892 94.296 79.8185 94.6344C81.3478 94.9728 82.6709 95.8613 83.4984 97.1055C84.3217 98.3527 84.5798 99.8531 84.2162 101.277C83.8526 102.702 82.8969 103.934 81.5588 104.703C80.2191 105.469 78.6073 105.709 77.0774 105.371C75.5475 105.032 74.2244 104.143 73.3983 102.897C72.5771 101.649 72.3201 100.149 72.6836 98.7256C73.0471 97.3019 74.0014 96.0701 75.3379 95.2998Z" fill="white"/>
<path opacity="0.1" d="M93.9299 98.5381C65.1043 115.986 34.7253 119.252 21.4952 104.829C6.05737 87.9977 19.8158 53.4475 52.2446 27.6909C84.6734 1.93429 123.449 -5.33982 138.887 11.5058C154.325 28.3515 140.567 62.887 108.138 88.6362" stroke="white" stroke-miterlimit="10"/>
<path d="M1.39453 37V26.7324H3.97852C6.12956 26.7324 7.57422 27.5391 8.3125 29.1523C8.64974 29.9089 8.81836 30.8021 8.81836 31.832C8.81836 33.9648 8.13932 35.4551 6.78125 36.3027C6.02474 36.7676 5.10872 37 4.0332 37H1.39453ZM2.70703 35.9336H3.86914C5.67383 35.9336 6.80859 35.1315 7.27344 33.5273C7.41016 33.026 7.47852 32.4609 7.47852 31.832C7.47852 29.5625 6.61263 28.2454 4.88086 27.8809C4.57096 27.8171 4.23372 27.7852 3.86914 27.7852H2.70703V35.9336ZM14.729 37.1777C13.5897 37.1777 12.6782 36.7676 11.9946 35.9473C11.393 35.2181 11.0923 34.3021 11.0923 33.1992C11.0923 31.8867 11.5115 30.8477 12.3501 30.082C12.9881 29.4987 13.7127 29.207 14.5239 29.207C15.7544 29.207 16.6248 29.722 17.1352 30.752C17.4087 31.3262 17.5454 32.0007 17.5454 32.7754C17.5454 33.0215 17.5272 33.263 17.4907 33.5H12.3638C12.4184 34.5573 12.8104 35.3184 13.5395 35.7832C13.9315 36.0384 14.3826 36.166 14.893 36.166C15.5766 36.1569 16.2101 35.9564 16.7934 35.5645L17.2583 36.3984C16.4562 36.918 15.6131 37.1777 14.729 37.1777ZM12.3501 32.584H16.4243C16.4243 31.3171 15.9959 30.556 15.1391 30.3008C14.9477 30.2461 14.7472 30.2188 14.5376 30.2188C13.8175 30.2188 13.2479 30.5378 12.8286 31.1758C12.5643 31.5768 12.4048 32.0462 12.3501 32.584ZM21.8291 37L19.081 29.3984H20.4209L21.8427 33.7188C22.2255 34.9401 22.4625 35.6875 22.5537 35.9609H22.6084C22.6722 35.7604 22.7724 35.4414 22.9091 35.0039C23.1005 34.4206 23.2373 33.9922 23.3193 33.7188L24.7548 29.3984H26.0127L23.3193 37H21.8291ZM31.308 37.1777C30.1687 37.1777 29.2573 36.7676 28.5737 35.9473C27.9721 35.2181 27.6713 34.3021 27.6713 33.1992C27.6713 31.8867 28.0906 30.8477 28.9291 30.082C29.5672 29.4987 30.2918 29.207 31.103 29.207C32.3334 29.207 33.2039 29.722 33.7143 30.752C33.9877 31.3262 34.1245 32.0007 34.1245 32.7754C34.1245 33.0215 34.1062 33.263 34.0698 33.5H28.9428C28.9975 34.5573 29.3894 35.3184 30.1186 35.7832C30.5105 36.0384 30.9617 36.166 31.4721 36.166C32.1557 36.1569 32.7892 35.9564 33.3725 35.5645L33.8373 36.3984C33.0353 36.918 32.1922 37.1777 31.308 37.1777ZM28.9291 32.584H33.0034C33.0034 31.3171 32.575 30.556 31.7182 30.3008C31.5268 30.2461 31.3263 30.2188 31.1166 30.2188C30.3966 30.2188 29.8269 30.5378 29.4077 31.1758C29.1433 31.5768 28.9838 32.0462 28.9291 32.584ZM38.121 37.1777C37.2278 37.1595 36.7766 36.5944 36.7675 35.4824V25.8574H38.039V35.5781C38.0481 35.9245 38.1711 36.1022 38.4081 36.1113C38.4993 36.1113 38.5859 36.1022 38.6679 36.084L38.8593 37.0684C38.6588 37.1413 38.4127 37.1777 38.121 37.1777ZM44.4691 37.1777C43.4483 37.1777 42.6006 36.7995 41.9262 36.043C41.2699 35.2956 40.9418 34.3477 40.9418 33.1992C40.9418 31.8138 41.3884 30.7428 42.2816 29.9863C42.9197 29.4668 43.6488 29.207 44.4691 29.207C45.4991 29.207 46.3513 29.5898 47.0258 30.3555C47.6729 31.1029 47.9965 32.0508 47.9965 33.1992C47.9965 34.5755 47.5499 35.6374 46.6566 36.3848C46.0277 36.9134 45.2986 37.1777 44.4691 37.1777ZM44.4691 36.1113C45.2712 36.1113 45.8773 35.7331 46.2875 34.9766C46.5518 34.4753 46.684 33.8828 46.684 33.1992C46.684 32.0781 46.365 31.2487 45.727 30.7109C45.3624 30.4102 44.9431 30.2598 44.4691 30.2598C43.6762 30.2598 43.0792 30.6426 42.6781 31.4082C42.4138 31.9095 42.2816 32.5065 42.2816 33.1992C42.2816 34.3568 42.6098 35.1908 43.266 35.7012C43.6124 35.9746 44.0134 36.1113 44.4691 36.1113ZM50.7626 40.1992V29.3984H51.8153L51.9247 30.2598H51.9657C52.8225 29.5671 53.6291 29.2161 54.3856 29.207C55.607 29.207 56.4729 29.7539 56.9833 30.8477C57.2749 31.4583 57.4208 32.2012 57.4208 33.0762C57.4208 34.5254 56.9878 35.6328 56.122 36.3984C55.5386 36.918 54.8687 37.1777 54.1122 37.1777C53.4195 37.1686 52.7177 36.877 52.0067 36.3027L52.0341 37.6289V40.1992H50.7626ZM53.9071 36.1113C54.6818 36.1113 55.2697 35.7331 55.6708 34.9766C55.9442 34.457 56.0809 33.8281 56.0809 33.0898C56.0627 31.2214 55.3973 30.2826 54.0848 30.2734C53.4651 30.2826 52.7815 30.6335 52.0341 31.3262V35.3184C52.6539 35.847 53.2782 36.1113 53.9071 36.1113ZM63.263 37.1777C62.1237 37.1777 61.2123 36.7676 60.5287 35.9473C59.9271 35.2181 59.6263 34.3021 59.6263 33.1992C59.6263 31.8867 60.0456 30.8477 60.8841 30.082C61.5222 29.4987 62.2468 29.207 63.058 29.207C64.2884 29.207 65.1589 29.722 65.6693 30.752C65.9427 31.3262 66.0795 32.0007 66.0795 32.7754C66.0795 33.0215 66.0612 33.263 66.0248 33.5H60.8978C60.9525 34.5573 61.3444 35.3184 62.0736 35.7832C62.4655 36.0384 62.9167 36.166 63.4271 36.166C64.1107 36.1569 64.7442 35.9564 65.3275 35.5645L65.7923 36.3984C64.9903 36.918 64.1472 37.1777 63.263 37.1777ZM60.8841 32.584H64.9584C64.9584 31.3171 64.53 30.556 63.6732 30.3008C63.4818 30.2461 63.2813 30.2188 63.0716 30.2188C62.3516 30.2188 61.7819 30.5378 61.3627 31.1758C61.0983 31.5768 60.9388 32.0462 60.8841 32.584ZM68.7225 37V29.3984H69.7752L69.8846 30.5059H69.9256C70.7186 29.6491 71.507 29.2161 72.2909 29.207C73.3573 29.2161 74.0591 29.6992 74.3963 30.6562C75.2896 29.6992 76.1235 29.2161 76.8983 29.207C78.4295 29.2253 79.1997 30.2188 79.2088 32.1875V37H77.9373V32.3516C77.9373 31.2122 77.6229 30.556 76.994 30.3828C76.8482 30.3464 76.6932 30.3281 76.5291 30.3281C75.9458 30.3372 75.3032 30.7246 74.6014 31.4902V37H73.3299V32.3516C73.3299 31.2122 73.0155 30.556 72.3866 30.3828C72.2407 30.3464 72.0858 30.3281 71.9217 30.3281C71.3202 30.3372 70.6776 30.7246 69.994 31.4902V37H68.7225ZM85.5159 37.1777C84.3766 37.1777 83.4652 36.7676 82.7816 35.9473C82.18 35.2181 81.8792 34.3021 81.8792 33.1992C81.8792 31.8867 82.2985 30.8477 83.137 30.082C83.7751 29.4987 84.4997 29.207 85.3109 29.207C86.5413 29.207 87.4118 29.722 87.9222 30.752C88.1956 31.3262 88.3323 32.0007 88.3323 32.7754C88.3323 33.0215 88.3141 33.263 88.2777 33.5H83.1507C83.2054 34.5573 83.5973 35.3184 84.3265 35.7832C84.7184 36.0384 85.1696 36.166 85.68 36.166C86.3636 36.1569 86.9971 35.9564 87.5804 35.5645L88.0452 36.3984C87.2432 36.918 86.4001 37.1777 85.5159 37.1777ZM83.137 32.584H87.2113C87.2113 31.3171 86.7829 30.556 85.9261 30.3008C85.7347 30.2461 85.5342 30.2188 85.3245 30.2188C84.6045 30.2188 84.0348 30.5378 83.6155 31.1758C83.3512 31.5768 83.1917 32.0462 83.137 32.584ZM90.9754 37V29.3984H92.0281L92.1375 30.4922H92.1785C93.0079 29.681 93.81 29.2526 94.5848 29.207C94.6395 29.207 94.6896 29.207 94.7352 29.207C96.2755 29.2253 97.0503 30.2188 97.0594 32.1875V37H95.7742V32.3516C95.7742 31.2669 95.4871 30.6198 94.9129 30.4102C94.7397 30.3555 94.5483 30.3281 94.3387 30.3281C93.7918 30.3281 93.2358 30.5788 92.6707 31.0801C92.5431 31.1986 92.4018 31.3353 92.2469 31.4902V37H90.9754ZM102.683 37.1777C101.425 37.1777 100.719 36.5534 100.564 35.3047C100.536 35.0951 100.523 34.8763 100.523 34.6484V30.4375H99.388V29.4668L100.577 29.3984L100.728 27.2656H101.794V29.3984H103.845V30.4375H101.794V34.6758C101.794 35.5143 102.059 35.9928 102.587 36.1113C102.706 36.1387 102.833 36.1523 102.97 36.1523C103.198 36.1523 103.485 36.084 103.831 35.9473L104.091 36.9043C103.508 37.0866 103.038 37.1777 102.683 37.1777Z" fill="white"/>
<path d="M60.3281 87.4199C59.3203 87.4199 58.5781 86.9902 58.1016 86.1309C57.7891 85.5527 57.6328 84.8457 57.6328 84.0098C57.6328 82.8613 57.9844 81.959 58.6875 81.3027C59.2031 80.8262 59.793 80.5879 60.457 80.5879C61.0273 80.5879 61.5703 80.7871 62.0859 81.1855C62.1562 81.2402 62.2266 81.2949 62.2969 81.3496L62.2266 80.2246V77.7168H63.3281V87.2676H62.4375L62.332 86.4941H62.3086C61.6758 87.1035 61.0156 87.4121 60.3281 87.4199ZM60.5625 86.5059C61.1406 86.498 61.6953 86.2012 62.2266 85.6152V82.1934C61.7031 81.7324 61.1758 81.502 60.6445 81.502C60.0273 81.502 59.5391 81.7949 59.1797 82.3809C58.9062 82.834 58.7695 83.373 58.7695 83.998C58.7695 85.2012 59.1094 85.9785 59.7891 86.3301C60.0234 86.4473 60.2812 86.5059 60.5625 86.5059ZM68.8162 87.4199C67.8397 87.4199 67.0584 87.0684 66.4725 86.3652C65.9569 85.7402 65.6991 84.9551 65.6991 84.0098C65.6991 82.8848 66.0584 81.9941 66.7772 81.3379C67.3241 80.8379 67.9452 80.5879 68.6405 80.5879C69.6952 80.5879 70.4412 81.0293 70.8787 81.9121C71.1131 82.4043 71.2303 82.9824 71.2303 83.6465C71.2303 83.8574 71.2147 84.0645 71.1834 84.2676H66.7889C66.8358 85.1738 67.1717 85.8262 67.7967 86.2246C68.1327 86.4434 68.5194 86.5527 68.9569 86.5527C69.5428 86.5449 70.0858 86.373 70.5858 86.0371L70.9842 86.752C70.2967 87.1973 69.5741 87.4199 68.8162 87.4199ZM66.7772 83.4824H70.2694C70.2694 82.3965 69.9022 81.7441 69.1678 81.5254C69.0037 81.4785 68.8319 81.4551 68.6522 81.4551C68.035 81.4551 67.5467 81.7285 67.1873 82.2754C66.9608 82.6191 66.8241 83.0215 66.7772 83.4824ZM73.4958 90.0098V80.752H74.3981L74.4919 81.4902H74.527C75.2614 80.8965 75.9528 80.5957 76.6012 80.5879C77.6481 80.5879 78.3903 81.0566 78.8278 81.9941C79.0778 82.5176 79.2028 83.1543 79.2028 83.9043C79.2028 85.1465 78.8317 86.0957 78.0895 86.752C77.5895 87.1973 77.0153 87.4199 76.3669 87.4199C75.7731 87.4121 75.1716 87.1621 74.5622 86.6699L74.5856 87.8066V90.0098H73.4958ZM76.1911 86.5059C76.8552 86.5059 77.3591 86.1816 77.7028 85.5332C77.9372 85.0879 78.0544 84.5488 78.0544 83.916C78.0387 82.3145 77.4684 81.5098 76.3434 81.502C75.8122 81.5098 75.2262 81.8105 74.5856 82.4043V85.8262C75.1169 86.2793 75.652 86.5059 76.1911 86.5059ZM83.0855 87.4199C82.3355 87.4199 81.7925 87.1543 81.4566 86.623C81.2691 86.3184 81.1753 85.9707 81.1753 85.5801C81.1753 84.7129 81.6792 84.0801 82.687 83.6816C83.2964 83.4395 84.1284 83.2598 85.1831 83.1426C85.1675 82.0488 84.7222 81.498 83.8472 81.4902C83.23 81.498 82.5777 81.7324 81.8902 82.1934L81.4566 81.4316C82.3316 80.8691 83.187 80.5879 84.023 80.5879C85.2417 80.5879 85.9683 81.1895 86.2027 82.3926C86.2573 82.6582 86.2847 82.9473 86.2847 83.2598V87.2676H85.3823L85.2886 86.4824H85.2534C84.4956 87.1074 83.773 87.4199 83.0855 87.4199ZM83.4019 86.5527C83.9175 86.5527 84.4683 86.2988 85.0542 85.791C85.1011 85.752 85.1441 85.7168 85.1831 85.6855V83.8574C83.5894 84.0527 82.6519 84.4277 82.3706 84.9824C82.2925 85.1387 82.2534 85.3105 82.2534 85.498C82.2534 86.0684 82.523 86.4082 83.062 86.5176C83.1714 86.541 83.2847 86.5527 83.4019 86.5527ZM89.0072 87.2676V80.752H89.9095L90.0033 81.9355H90.0384C90.4681 81.1621 90.9994 80.7207 91.6322 80.6113C91.7181 80.5957 91.8041 80.5879 91.89 80.5879C92.1791 80.5879 92.4095 80.6348 92.5814 80.7285L92.3822 81.6895C92.1947 81.6191 91.9837 81.584 91.7494 81.584C91.2181 81.584 90.7611 81.8926 90.3783 82.5098C90.2767 82.6816 90.183 82.873 90.097 83.084V87.2676H89.0072ZM96.3703 87.4199C95.2922 87.4199 94.6867 86.8848 94.5539 85.8145C94.5305 85.6348 94.5187 85.4473 94.5187 85.252V81.6426H93.5461V80.8105L94.5656 80.752L94.6945 78.9238H95.6086V80.752H97.3664V81.6426H95.6086V85.2754C95.6086 85.9941 95.8352 86.4043 96.2883 86.5059C96.3898 86.5293 96.4992 86.541 96.6164 86.541C96.8117 86.541 97.0578 86.4824 97.3547 86.3652L97.5773 87.1855C97.0773 87.3418 96.675 87.4199 96.3703 87.4199ZM99.503 87.2676V80.752H100.405L100.499 81.7012H100.534C101.214 80.9668 101.89 80.5957 102.562 80.5879C103.476 80.5957 104.077 81.0098 104.366 81.8301C105.132 81.0098 105.847 80.5957 106.511 80.5879C107.823 80.6035 108.483 81.4551 108.491 83.1426V87.2676H107.401V83.2832C107.401 82.3066 107.132 81.7441 106.593 81.5957C106.468 81.5645 106.335 81.5488 106.194 81.5488C105.694 81.5566 105.144 81.8887 104.542 82.5449V87.2676H103.452V83.2832C103.452 82.3066 103.183 81.7441 102.644 81.5957C102.519 81.5645 102.386 81.5488 102.245 81.5488C101.73 81.5566 101.179 81.8887 100.593 82.5449V87.2676H99.503ZM113.897 87.4199C112.921 87.4199 112.14 87.0684 111.554 86.3652C111.038 85.7402 110.78 84.9551 110.78 84.0098C110.78 82.8848 111.14 81.9941 111.858 81.3379C112.405 80.8379 113.026 80.5879 113.722 80.5879C114.776 80.5879 115.522 81.0293 115.96 81.9121C116.194 82.4043 116.311 82.9824 116.311 83.6465C116.311 83.8574 116.296 84.0645 116.265 84.2676H111.87C111.917 85.1738 112.253 85.8262 112.878 86.2246C113.214 86.4434 113.6 86.5527 114.038 86.5527C114.624 86.5449 115.167 86.373 115.667 86.0371L116.065 86.752C115.378 87.1973 114.655 87.4199 113.897 87.4199ZM111.858 83.4824H115.35C115.35 82.3965 114.983 81.7441 114.249 81.5254C114.085 81.4785 113.913 81.4551 113.733 81.4551C113.116 81.4551 112.628 81.7285 112.268 82.2754C112.042 82.6191 111.905 83.0215 111.858 83.4824ZM118.577 87.2676V80.752H119.479L119.573 81.6895H119.608C120.319 80.9941 121.007 80.627 121.671 80.5879C121.717 80.5879 121.76 80.5879 121.8 80.5879C123.12 80.6035 123.784 81.4551 123.792 83.1426V87.2676H122.69V83.2832C122.69 82.3535 122.444 81.7988 121.952 81.6191C121.803 81.5723 121.639 81.5488 121.46 81.5488C120.991 81.5488 120.514 81.7637 120.03 82.1934C119.921 82.2949 119.8 82.4121 119.667 82.5449V87.2676H118.577ZM128.612 87.4199C127.534 87.4199 126.928 86.8848 126.795 85.8145C126.772 85.6348 126.76 85.4473 126.76 85.252V81.6426H125.788V80.8105L126.807 80.752L126.936 78.9238H127.85V80.752H129.608V81.6426H127.85V85.2754C127.85 85.9941 128.077 86.4043 128.53 86.5059C128.631 86.5293 128.741 86.541 128.858 86.541C129.053 86.541 129.299 86.4824 129.596 86.3652L129.819 87.1855C129.319 87.3418 128.917 87.4199 128.612 87.4199Z" fill="white"/>
<path d="M22.6704 45.6738H15.6704V48.2676H22.6704V45.6738ZM15.6704 52.7363H22.6704V49.9863H15.6704V52.7363ZM24.9204 54.5488H15.6704V71.7363H13.3267V43.8613H24.9204V54.5488ZM24.0142 61.9863H28.5142V58.5176H24.0142V61.9863ZM34.9517 63.9863H30.6079V71.1113H28.5142V63.9863H23.9517C23.7433 66.4655 22.8162 68.5592 21.1704 70.2676C20.7121 70.7467 20.2121 71.1738 19.6704 71.5488C19.1496 70.9447 18.6287 70.4759 18.1079 70.1426C20.1496 68.9134 21.3892 67.0488 21.8267 64.5488C21.8475 64.3405 21.8683 64.153 21.8892 63.9863H17.8892V61.9863H21.9517V58.5176H18.4829V56.5488H34.2642V58.5176H30.6079V61.9863H34.9517V63.9863ZM30.0142 52.7676H37.2642V49.9863H30.0142V52.7676ZM37.2642 45.6738H30.0142V48.2676H37.2642V45.6738ZM39.6079 43.8613V68.6426C39.6079 69.9134 39.2537 70.7363 38.5454 71.1113C38.4829 71.153 38.4204 71.1842 38.3579 71.2051C37.5037 71.5176 35.8475 71.6634 33.3892 71.6426C33.285 70.8092 33.035 70.0176 32.6392 69.2676C34.5558 69.3301 35.8787 69.3405 36.6079 69.2988C37.0246 69.2155 37.2433 68.9759 37.2642 68.5801V54.5801H27.7329V43.8613H39.6079ZM50.4104 62.2051H58.0042C58.0042 62.2259 57.9729 62.5384 57.9104 63.1426C57.5771 67.1009 57.1292 69.528 56.5667 70.4238C56.4625 70.5905 56.3583 70.7259 56.2542 70.8301C55.775 71.2884 55.0667 71.5488 54.1292 71.6113C52.9 71.653 51.4833 71.6322 49.8792 71.5488C49.8375 70.8197 49.5979 70.1426 49.1604 69.5176C50.5562 69.6426 51.9417 69.7051 53.3167 69.7051C53.9 69.6842 54.2854 69.5905 54.4729 69.4238C54.9521 68.9447 55.3479 67.153 55.6604 64.0488H50.0042L49.7854 64.9551L47.7854 64.5801C48.4729 61.9134 48.9937 59.5072 49.3479 57.3613H55.7542V54.0801H50.1604V53.7676C48.9937 54.3509 47.9208 54.8092 46.9417 55.1426C46.5875 54.4759 46.1604 53.8926 45.6604 53.3926C47.8271 52.7467 49.9 51.7467 51.8792 50.3926C50.9833 49.4759 49.7958 48.5592 48.3167 47.6426L49.6917 46.2988C51.275 47.278 52.5562 48.2259 53.5354 49.1426C54.7229 48.1217 55.7333 46.9967 56.5667 45.7676H49.1292V43.8301H57.8167L58.2229 43.7363L59.6917 44.4863C58.3375 47.4863 56.0979 50.0384 52.9729 52.1426H57.9104V59.7988H55.7542V59.2051H51.0042C50.9417 59.5801 50.8271 60.153 50.6604 60.9238C50.5562 61.5072 50.4729 61.9342 50.4104 62.2051ZM69.3167 62.9551H62.9104C63.6604 64.3717 64.7333 65.6009 66.1292 66.6426C67.5042 65.5801 68.5667 64.3509 69.3167 62.9551ZM70.7854 61.1426L72.0979 61.6738C71.2229 64.0697 69.8167 66.0905 67.8792 67.7363C69.8167 68.7155 72.025 69.3822 74.5042 69.7363C74.0875 70.1113 73.6187 70.7676 73.0979 71.7051C70.3896 71.2051 68.0354 70.3197 66.0354 69.0488C64.0354 70.2572 61.7021 71.153 59.0354 71.7363C58.8062 71.1322 58.4521 70.5488 57.9729 69.9863C60.4104 69.528 62.5354 68.7988 64.3479 67.7988C62.8687 66.4863 61.7333 65.0072 60.9417 63.3613L62.2542 62.9551H59.7854V61.2363H70.3792L70.7854 61.1426ZM72.6604 45.8926L74.4104 47.1113C73.0146 48.403 71.5354 49.5592 69.9729 50.5801C71.7021 51.5801 73.5146 52.3301 75.4104 52.8301C74.9104 53.3092 74.4208 53.9342 73.9417 54.7051C72.2333 54.1842 70.7125 53.528 69.3792 52.7363V57.0176C69.3792 57.4759 69.4312 57.7467 69.5354 57.8301C69.6604 57.9134 69.8375 57.9551 70.0667 57.9551H71.0042C71.2958 57.9551 71.525 57.9342 71.6917 57.8926C71.8792 57.7884 72.0146 57.6426 72.0979 57.4551C72.1396 57.2259 72.1812 56.6738 72.2229 55.7988C72.6812 56.1947 73.2542 56.4967 73.9417 56.7051C73.8583 57.8301 73.7437 58.528 73.5979 58.7988C73.4104 59.1113 73.0875 59.3613 72.6292 59.5488C72.275 59.653 71.8062 59.7051 71.2229 59.7051H69.6604C68.9104 59.6842 68.3167 59.5176 67.8792 59.2051C67.525 58.8092 67.3479 58.0176 67.3479 56.8301V53.9551H63.0042V54.5488C62.9833 57.278 61.8271 59.3092 59.5354 60.6426C59.0562 60.0384 58.5458 59.5384 58.0042 59.1426C59.9208 57.9551 60.9104 56.403 60.9729 54.4863V52.0176H68.1917C64.6917 49.7051 62.1187 46.7259 60.4729 43.0801L62.3479 42.4863C62.9729 43.8613 63.8062 45.153 64.8479 46.3613C66.2854 45.2572 67.6292 44.0384 68.8792 42.7051L70.6604 43.9551C69.4312 45.1217 67.8896 46.3509 66.0354 47.6426C66.8271 48.3926 67.6083 49.028 68.3792 49.5488C69.9 48.4655 71.3271 47.2467 72.6604 45.8926ZM96.3067 46.0488V48.1113H81.1504V46.0488H87.5567V42.6113H89.8067V46.0488H96.3067ZM92.3692 54.5176L90.4629 54.0488C91.2546 52.0905 91.8483 50.2676 92.2442 48.5801L94.4942 49.1426C93.4108 52.0384 92.7025 53.8301 92.3692 54.5176ZM86.5567 53.9551L84.4942 54.4238C84.3067 52.7363 83.8379 51.0072 83.0879 49.2363L85.0879 48.8301C85.8587 50.4551 86.3483 52.1634 86.5567 53.9551ZM92.6504 61.8613H84.6504V67.7676H92.6504V61.8613ZM82.4629 71.7363V59.7676H94.9629V71.5488H92.6504V69.8301H84.6504V71.7363H82.4629ZM80.3067 56.9863V54.7988H96.7442V56.9863H80.3067ZM107.838 44.2676L109.557 45.3926C107.64 49.7467 106.161 52.9447 105.119 54.9863C107.765 57.4447 109.109 60.028 109.15 62.7363C109.13 64.7988 108.609 66.1842 107.588 66.8926C106.984 67.2884 106.286 67.528 105.494 67.6113C104.786 67.6947 103.859 67.7155 102.713 67.6738C102.671 66.7988 102.442 66.0072 102.025 65.2988C102.88 65.3822 103.723 65.403 104.557 65.3613C105.14 65.3197 105.598 65.2051 105.932 65.0176C106.515 64.6426 106.807 63.7988 106.807 62.4863C106.786 60.0697 105.411 57.6842 102.682 55.3301C103.744 53.1634 104.984 50.2572 106.4 46.6113H100.338V71.7051H98.0254V44.3613H107.432L107.838 44.2676Z" fill="white"/>
</svg>
