<svg width="146" height="115" viewBox="0 0 146 115" fill="none" xmlns="http://www.w3.org/2000/svg">
<path d="M49.6978 20.4306C80.2816 -0.510838 114.24 -5.40671 128.44 10.0737C143.878 26.9047 130.119 61.4548 97.6906 87.2041" stroke="white" stroke-width="2" stroke-miterlimit="10"/>
<path d="M53.5373 24.6799C52.2822 25.5626 50.7022 25.9455 49.1441 25.7446C47.586 25.5437 46.1772 24.7753 45.2271 23.6083C44.2793 22.441 43.8682 20.9711 44.084 19.5218C44.2999 18.0725 45.1251 16.7623 46.3782 15.8791C46.9986 15.4413 47.7057 15.1217 48.459 14.9386C49.2123 14.7555 49.997 14.7125 50.7681 14.812C51.5393 14.9115 52.2818 15.1517 52.9531 15.5187C53.6244 15.8857 54.2114 16.3723 54.6805 16.9507C55.1512 17.5279 55.495 18.1858 55.6923 18.8868C55.8896 19.5878 55.9365 20.3181 55.8303 21.036C55.7241 21.7539 55.4671 22.4452 55.0736 23.0705C54.6801 23.6957 54.158 24.2427 53.5373 24.6799Z" fill="white"/>
<path d="M78.7127 99.8724C51.3694 114.861 23.5608 117.019 11.0639 103.396C6.66439 98.6026 4.63808 92.3855 4.75635 85.3242" stroke="white" stroke-width="2" stroke-miterlimit="10"/>
<path d="M75.3379 95.2998C76.6782 94.5352 78.2892 94.296 79.8185 94.6344C81.3478 94.9728 82.6709 95.8613 83.4984 97.1055C84.3217 98.3527 84.5798 99.8531 84.2162 101.277C83.8526 102.702 82.8969 103.934 81.5588 104.703C80.2191 105.469 78.6073 105.709 77.0774 105.371C75.5475 105.032 74.2244 104.143 73.3983 102.897C72.5771 101.649 72.3201 100.149 72.6836 98.7256C73.0471 97.3019 74.0014 96.0701 75.3379 95.2998Z" fill="white"/>
<path opacity="0.1" d="M93.9299 98.5381C65.1043 115.986 34.7253 119.252 21.4952 104.829C6.05737 87.9977 19.8158 53.4475 52.2446 27.6909C84.6734 1.93429 123.449 -5.33982 138.887 11.5058C154.325 28.3515 140.567 62.887 108.138 88.6362" stroke="white" stroke-miterlimit="10"/>
<path d="M1.39453 37V26.7324H7.32812V27.8262H2.70703V31.2988H6.61719V32.3926H2.70703V37H1.39453ZM9.77977 37V29.3984H11.0513V37H9.77977ZM10.4223 27.8262C10.0213 27.8262 9.75242 27.6621 9.6157 27.334C9.57013 27.2246 9.54734 27.1152 9.54734 27.0059C9.54734 26.5957 9.73419 26.3314 10.1079 26.2129C10.2173 26.1855 10.3221 26.1719 10.4223 26.1719C10.8416 26.1719 11.1196 26.3405 11.2563 26.6777C11.2928 26.7871 11.311 26.8965 11.311 27.0059C11.311 27.3704 11.1378 27.6211 10.7915 27.7578C10.673 27.8034 10.5499 27.8262 10.4223 27.8262ZM14.3916 37V29.3984H15.4443L15.5537 30.4922H15.5947C16.4241 29.681 17.2262 29.2526 18.0009 29.207C18.0556 29.207 18.1058 29.207 18.1513 29.207C19.6917 29.2253 20.4664 30.2188 20.4755 32.1875V37H19.1904V32.3516C19.1904 31.2669 18.9033 30.6198 18.3291 30.4102C18.1559 30.3555 17.9645 30.3281 17.7548 30.3281C17.208 30.3281 16.652 30.5788 16.0869 31.0801C15.9593 31.1986 15.818 31.3353 15.663 31.4902V37H14.3916ZM25.4565 37.1777C24.5815 37.1777 23.948 36.8678 23.5561 36.248C23.3373 35.8926 23.228 35.487 23.228 35.0312C23.228 34.0195 23.8159 33.2812 24.9916 32.8164C25.7026 32.5339 26.6733 32.3242 27.9037 32.1875C27.8855 30.9115 27.366 30.2689 26.3452 30.2598C25.6251 30.2689 24.864 30.5423 24.062 31.0801L23.5561 30.1914C24.5769 29.5352 25.575 29.207 26.5502 29.207C27.9721 29.207 28.8198 29.9089 29.0932 31.3125C29.157 31.6224 29.1889 31.9596 29.1889 32.3242V37H28.1362L28.0268 36.084H27.9858C27.1017 36.8132 26.2586 37.1777 25.4565 37.1777ZM25.8256 36.166C26.4272 36.166 27.0698 35.8698 27.7534 35.2773C27.808 35.2318 27.8582 35.1908 27.9037 35.1543V33.0215C26.0444 33.2493 24.9506 33.6868 24.6225 34.334C24.5314 34.5163 24.4858 34.7168 24.4858 34.9355C24.4858 35.6009 24.8002 35.9974 25.4291 36.125C25.5567 36.1523 25.6889 36.166 25.8256 36.166ZM32.3652 37V29.3984H33.4179L33.5273 30.4922H33.5683C34.3977 29.681 35.1998 29.2526 35.9745 29.207C36.0292 29.207 36.0793 29.207 36.1249 29.207C37.6653 29.2253 38.44 30.2188 38.4491 32.1875V37H37.164V32.3516C37.164 31.2669 36.8769 30.6198 36.3027 30.4102C36.1295 30.3555 35.9381 30.3281 35.7284 30.3281C35.1816 30.3281 34.6256 30.5788 34.0605 31.0801C33.9329 31.1986 33.7916 31.3353 33.6366 31.4902V37H32.3652ZM44.6742 37.1777C43.5167 37.1777 42.6052 36.7539 41.9398 35.9062C41.3839 35.1862 41.1059 34.2839 41.1059 33.1992C41.1059 31.832 41.5616 30.7702 42.473 30.0137C43.1384 29.4759 43.9086 29.207 44.7836 29.207C45.5857 29.2161 46.324 29.5124 46.9984 30.0957L46.3422 30.957C45.8227 30.4922 45.3168 30.2598 44.8246 30.2598C44.0225 30.2598 43.3936 30.6152 42.9379 31.3262C42.6098 31.8548 42.4457 32.4792 42.4457 33.1992C42.4457 34.3112 42.7829 35.1315 43.4574 35.6602C43.8402 35.9609 44.2868 36.1113 44.7973 36.1113C45.4444 36.1022 46.0414 35.8516 46.5883 35.3594L47.1352 36.2207C46.4333 36.8587 45.613 37.1777 44.6742 37.1777ZM52.6356 37.1777C51.4963 37.1777 50.5848 36.7676 49.9012 35.9473C49.2997 35.2181 48.9989 34.3021 48.9989 33.1992C48.9989 31.8867 49.4182 30.8477 50.2567 30.082C50.8947 29.4987 51.6193 29.207 52.4305 29.207C53.661 29.207 54.5315 29.722 55.0419 30.752C55.3153 31.3262 55.452 32.0007 55.452 32.7754C55.452 33.0215 55.4338 33.263 55.3973 33.5H50.2704C50.3251 34.5573 50.717 35.3184 51.4462 35.7832C51.8381 36.0384 52.2893 36.166 52.7997 36.166C53.4833 36.1569 54.1167 35.9564 54.7001 35.5645L55.1649 36.3984C54.3628 36.918 53.5197 37.1777 52.6356 37.1777ZM50.2567 32.584H54.3309C54.3309 31.3171 53.9026 30.556 53.0458 30.3008C52.8544 30.2461 52.6539 30.2188 52.4442 30.2188C51.7242 30.2188 51.1545 30.5378 50.7352 31.1758C50.4709 31.5768 50.3114 32.0462 50.2567 32.584Z" fill="white"/>
<path d="M60.3281 87.4199C59.3203 87.4199 58.5781 86.9902 58.1016 86.1309C57.7891 85.5527 57.6328 84.8457 57.6328 84.0098C57.6328 82.8613 57.9844 81.959 58.6875 81.3027C59.2031 80.8262 59.793 80.5879 60.457 80.5879C61.0273 80.5879 61.5703 80.7871 62.0859 81.1855C62.1562 81.2402 62.2266 81.2949 62.2969 81.3496L62.2266 80.2246V77.7168H63.3281V87.2676H62.4375L62.332 86.4941H62.3086C61.6758 87.1035 61.0156 87.4121 60.3281 87.4199ZM60.5625 86.5059C61.1406 86.498 61.6953 86.2012 62.2266 85.6152V82.1934C61.7031 81.7324 61.1758 81.502 60.6445 81.502C60.0273 81.502 59.5391 81.7949 59.1797 82.3809C58.9062 82.834 58.7695 83.373 58.7695 83.998C58.7695 85.2012 59.1094 85.9785 59.7891 86.3301C60.0234 86.4473 60.2812 86.5059 60.5625 86.5059ZM68.8162 87.4199C67.8397 87.4199 67.0584 87.0684 66.4725 86.3652C65.9569 85.7402 65.6991 84.9551 65.6991 84.0098C65.6991 82.8848 66.0584 81.9941 66.7772 81.3379C67.3241 80.8379 67.9452 80.5879 68.6405 80.5879C69.6952 80.5879 70.4412 81.0293 70.8787 81.9121C71.1131 82.4043 71.2303 82.9824 71.2303 83.6465C71.2303 83.8574 71.2147 84.0645 71.1834 84.2676H66.7889C66.8358 85.1738 67.1717 85.8262 67.7967 86.2246C68.1327 86.4434 68.5194 86.5527 68.9569 86.5527C69.5428 86.5449 70.0858 86.373 70.5858 86.0371L70.9842 86.752C70.2967 87.1973 69.5741 87.4199 68.8162 87.4199ZM66.7772 83.4824H70.2694C70.2694 82.3965 69.9022 81.7441 69.1678 81.5254C69.0037 81.4785 68.8319 81.4551 68.6522 81.4551C68.035 81.4551 67.5467 81.7285 67.1873 82.2754C66.9608 82.6191 66.8241 83.0215 66.7772 83.4824ZM73.4958 90.0098V80.752H74.3981L74.4919 81.4902H74.527C75.2614 80.8965 75.9528 80.5957 76.6012 80.5879C77.6481 80.5879 78.3903 81.0566 78.8278 81.9941C79.0778 82.5176 79.2028 83.1543 79.2028 83.9043C79.2028 85.1465 78.8317 86.0957 78.0895 86.752C77.5895 87.1973 77.0153 87.4199 76.3669 87.4199C75.7731 87.4121 75.1716 87.1621 74.5622 86.6699L74.5856 87.8066V90.0098H73.4958ZM76.1911 86.5059C76.8552 86.5059 77.3591 86.1816 77.7028 85.5332C77.9372 85.0879 78.0544 84.5488 78.0544 83.916C78.0387 82.3145 77.4684 81.5098 76.3434 81.502C75.8122 81.5098 75.2262 81.8105 74.5856 82.4043V85.8262C75.1169 86.2793 75.652 86.5059 76.1911 86.5059ZM83.0855 87.4199C82.3355 87.4199 81.7925 87.1543 81.4566 86.623C81.2691 86.3184 81.1753 85.9707 81.1753 85.5801C81.1753 84.7129 81.6792 84.0801 82.687 83.6816C83.2964 83.4395 84.1284 83.2598 85.1831 83.1426C85.1675 82.0488 84.7222 81.498 83.8472 81.4902C83.23 81.498 82.5777 81.7324 81.8902 82.1934L81.4566 81.4316C82.3316 80.8691 83.187 80.5879 84.023 80.5879C85.2417 80.5879 85.9683 81.1895 86.2027 82.3926C86.2573 82.6582 86.2847 82.9473 86.2847 83.2598V87.2676H85.3823L85.2886 86.4824H85.2534C84.4956 87.1074 83.773 87.4199 83.0855 87.4199ZM83.4019 86.5527C83.9175 86.5527 84.4683 86.2988 85.0542 85.791C85.1011 85.752 85.1441 85.7168 85.1831 85.6855V83.8574C83.5894 84.0527 82.6519 84.4277 82.3706 84.9824C82.2925 85.1387 82.2534 85.3105 82.2534 85.498C82.2534 86.0684 82.523 86.4082 83.062 86.5176C83.1714 86.541 83.2847 86.5527 83.4019 86.5527ZM89.0072 87.2676V80.752H89.9095L90.0033 81.9355H90.0384C90.4681 81.1621 90.9994 80.7207 91.6322 80.6113C91.7181 80.5957 91.8041 80.5879 91.89 80.5879C92.1791 80.5879 92.4095 80.6348 92.5814 80.7285L92.3822 81.6895C92.1947 81.6191 91.9837 81.584 91.7494 81.584C91.2181 81.584 90.7611 81.8926 90.3783 82.5098C90.2767 82.6816 90.183 82.873 90.097 83.084V87.2676H89.0072ZM96.3703 87.4199C95.2922 87.4199 94.6867 86.8848 94.5539 85.8145C94.5305 85.6348 94.5187 85.4473 94.5187 85.252V81.6426H93.5461V80.8105L94.5656 80.752L94.6945 78.9238H95.6086V80.752H97.3664V81.6426H95.6086V85.2754C95.6086 85.9941 95.8352 86.4043 96.2883 86.5059C96.3898 86.5293 96.4992 86.541 96.6164 86.541C96.8117 86.541 97.0578 86.4824 97.3547 86.3652L97.5773 87.1855C97.0773 87.3418 96.675 87.4199 96.3703 87.4199ZM99.503 87.2676V80.752H100.405L100.499 81.7012H100.534C101.214 80.9668 101.89 80.5957 102.562 80.5879C103.476 80.5957 104.077 81.0098 104.366 81.8301C105.132 81.0098 105.847 80.5957 106.511 80.5879C107.823 80.6035 108.483 81.4551 108.491 83.1426V87.2676H107.401V83.2832C107.401 82.3066 107.132 81.7441 106.593 81.5957C106.468 81.5645 106.335 81.5488 106.194 81.5488C105.694 81.5566 105.144 81.8887 104.542 82.5449V87.2676H103.452V83.2832C103.452 82.3066 103.183 81.7441 102.644 81.5957C102.519 81.5645 102.386 81.5488 102.245 81.5488C101.73 81.5566 101.179 81.8887 100.593 82.5449V87.2676H99.503ZM113.897 87.4199C112.921 87.4199 112.14 87.0684 111.554 86.3652C111.038 85.7402 110.78 84.9551 110.78 84.0098C110.78 82.8848 111.14 81.9941 111.858 81.3379C112.405 80.8379 113.026 80.5879 113.722 80.5879C114.776 80.5879 115.522 81.0293 115.96 81.9121C116.194 82.4043 116.311 82.9824 116.311 83.6465C116.311 83.8574 116.296 84.0645 116.265 84.2676H111.87C111.917 85.1738 112.253 85.8262 112.878 86.2246C113.214 86.4434 113.6 86.5527 114.038 86.5527C114.624 86.5449 115.167 86.373 115.667 86.0371L116.065 86.752C115.378 87.1973 114.655 87.4199 113.897 87.4199ZM111.858 83.4824H115.35C115.35 82.3965 114.983 81.7441 114.249 81.5254C114.085 81.4785 113.913 81.4551 113.733 81.4551C113.116 81.4551 112.628 81.7285 112.268 82.2754C112.042 82.6191 111.905 83.0215 111.858 83.4824ZM118.577 87.2676V80.752H119.479L119.573 81.6895H119.608C120.319 80.9941 121.007 80.627 121.671 80.5879C121.717 80.5879 121.76 80.5879 121.8 80.5879C123.12 80.6035 123.784 81.4551 123.792 83.1426V87.2676H122.69V83.2832C122.69 82.3535 122.444 81.7988 121.952 81.6191C121.803 81.5723 121.639 81.5488 121.46 81.5488C120.991 81.5488 120.514 81.7637 120.03 82.1934C119.921 82.2949 119.8 82.4121 119.667 82.5449V87.2676H118.577ZM128.612 87.4199C127.534 87.4199 126.928 86.8848 126.795 85.8145C126.772 85.6348 126.76 85.4473 126.76 85.252V81.6426H125.788V80.8105L126.807 80.752L126.936 78.9238H127.85V80.752H129.608V81.6426H127.85V85.2754C127.85 85.9941 128.077 86.4043 128.53 86.5059C128.631 86.5293 128.741 86.541 128.858 86.541C129.053 86.541 129.299 86.4824 129.596 86.3652L129.819 87.1855C129.319 87.3418 128.917 87.4199 128.612 87.4199Z" fill="white"/>
<path d="M22.1392 49.7363V45.7051H15.5142V49.7363H22.1392ZM22.1392 55.7051V51.6426H15.5142V55.7051H22.1392ZM22.1392 61.7363V57.5801H15.5142V61.7363H22.1392ZM24.4517 43.7363V63.6738H13.2642V43.7363H24.4517ZM15.4829 64.3613L17.7642 64.9551C16.7642 67.5384 15.41 69.7259 13.7017 71.5176C13.6183 71.6009 13.5454 71.6738 13.4829 71.7363C12.9204 71.2155 12.285 70.7467 11.5767 70.3301C13.285 68.7884 14.5871 66.7988 15.4829 64.3613ZM19.9829 65.2676L21.8892 64.3613C23.3475 66.028 24.5037 67.7259 25.3579 69.4551L23.3579 70.5176C22.5246 68.7884 21.3996 67.0384 19.9829 65.2676ZM41.0454 50.0801V52.2676H36.9517V68.7363C36.9517 69.9447 36.6079 70.7363 35.9204 71.1113C35.8371 71.153 35.7642 71.1947 35.7017 71.2363C34.8683 71.5697 33.2642 71.7363 30.8892 71.7363C30.7642 70.9238 30.4933 70.153 30.0767 69.4238C32.0975 69.4655 33.3787 69.4655 33.9204 69.4238C34.3579 69.3405 34.5871 69.1113 34.6079 68.7363V55.3613C32.5454 59.7988 30.0871 63.3197 27.2329 65.9238C26.9204 66.1947 26.6287 66.4447 26.3579 66.6738C25.7954 65.903 25.2537 65.3197 24.7329 64.9238C27.3371 63.0905 29.7329 60.1842 31.9204 56.2051C32.6079 54.8926 33.2225 53.5801 33.7642 52.2676H25.4204V50.0801H34.6079V42.6113H36.9517V50.0801H41.0454ZM69.8479 47.8613H63.1292C64.025 49.403 65.2333 50.778 66.7542 51.9863C68.0875 50.7988 69.1187 49.4238 69.8479 47.8613ZM57.0354 61.7363L55.4104 60.9238C56.0354 59.5488 56.6083 57.8301 57.1292 55.7676H54.0667V68.9551C54.0667 70.0176 53.775 70.7363 53.1917 71.1113C53.1292 71.153 53.0667 71.1842 53.0042 71.2051C52.2958 71.4551 50.9625 71.5801 49.0042 71.5801C48.8583 70.7884 48.6187 70.0592 48.2854 69.3926C49.2021 69.4134 50.2125 69.4238 51.3167 69.4238C51.6292 69.3613 51.7958 69.2051 51.8167 68.9551V58.6738C50.3583 62.2572 48.8062 64.8822 47.1604 66.5488C46.9521 65.9863 46.5354 65.2467 45.9104 64.3301C47.6187 62.7051 49.15 60.3301 50.5042 57.2051C50.7125 56.7051 50.9 56.2259 51.0667 55.7676H46.2229V53.6738H54.8167C53.1292 52.2363 50.9521 50.903 48.2854 49.6738C48.0771 49.5697 47.8792 49.4759 47.6917 49.3926L49.1604 47.8613C50.0354 48.2155 51.0771 48.7051 52.2854 49.3301C53.5146 48.3926 54.6292 47.3405 55.6292 46.1738H46.5667V44.0801H57.3479L57.7542 43.9863L59.2854 44.9551C58.0146 46.8717 56.275 48.6842 54.0667 50.3926C55.0667 50.9967 55.9625 51.6322 56.7542 52.2988L55.5354 53.6738H57.9104L58.2542 53.5488L59.6917 54.0801C59.6708 54.1426 59.5146 54.7051 59.2229 55.7676C61.4729 55.1426 63.3792 54.3197 64.9417 53.2988C63.6708 52.1322 62.5771 50.8301 61.6604 49.3926C60.6187 50.4967 59.8479 51.2572 59.3479 51.6738C58.6812 51.1113 58.0354 50.653 57.4104 50.2988C59.6604 48.6322 61.4937 46.4342 62.9104 43.7051C63.1187 43.2884 63.3062 42.8822 63.4729 42.4863L65.7542 43.0801C65.4625 43.7259 64.9729 44.6426 64.2854 45.8301H74.9104V47.8613H72.4417C71.5667 49.9655 70.2854 51.778 68.5979 53.2988C70.7229 54.6322 73.0354 55.5592 75.5354 56.0801C74.8687 56.7884 74.3687 57.4759 74.0354 58.1426C71.3479 57.3926 68.9312 56.2572 66.7854 54.7363C64.8479 56.0697 62.5146 57.1634 59.7854 58.0176C59.6187 57.6842 59.3375 57.2676 58.9417 56.7676C58.3375 58.8717 57.7021 60.528 57.0354 61.7363ZM66.7229 60.3301H74.1917C74.1917 60.3509 74.1708 60.6947 74.1292 61.3613C73.65 66.3197 73.0354 69.3301 72.2854 70.3926C72.1812 70.4967 72.0979 70.5905 72.0354 70.6738C71.5771 71.1322 70.9104 71.4134 70.0354 71.5176C68.7437 71.5592 67.5562 71.5488 66.4729 71.4863C66.3687 70.5697 66.1604 69.8301 65.8479 69.2676C66.9937 69.3717 68.0458 69.4238 69.0042 69.4238C69.5042 69.403 69.8687 69.2988 70.0979 69.1113C70.7229 68.4447 71.2437 66.1842 71.6604 62.3301H66.2854C65.2854 65.9551 63.3792 68.6322 60.5667 70.3613C59.7333 70.8822 58.8167 71.3301 57.8167 71.7051C57.4 70.9342 56.9312 70.3197 56.4104 69.8613C59.8896 68.6113 62.2333 66.4551 63.4417 63.3926C63.5875 63.0384 63.7125 62.6842 63.8167 62.3301H58.8479V60.3301H64.3479C64.5146 59.3717 64.65 58.3197 64.7542 57.1738H67.1604C67.0771 58.1322 66.9312 59.1842 66.7229 60.3301ZM96.3067 46.0488V48.1113H81.1504V46.0488H87.5567V42.6113H89.8067V46.0488H96.3067ZM92.3692 54.5176L90.4629 54.0488C91.2546 52.0905 91.8483 50.2676 92.2442 48.5801L94.4942 49.1426C93.4108 52.0384 92.7025 53.8301 92.3692 54.5176ZM86.5567 53.9551L84.4942 54.4238C84.3067 52.7363 83.8379 51.0072 83.0879 49.2363L85.0879 48.8301C85.8587 50.4551 86.3483 52.1634 86.5567 53.9551ZM92.6504 61.8613H84.6504V67.7676H92.6504V61.8613ZM82.4629 71.7363V59.7676H94.9629V71.5488H92.6504V69.8301H84.6504V71.7363H82.4629ZM80.3067 56.9863V54.7988H96.7442V56.9863H80.3067ZM107.838 44.2676L109.557 45.3926C107.64 49.7467 106.161 52.9447 105.119 54.9863C107.765 57.4447 109.109 60.028 109.15 62.7363C109.13 64.7988 108.609 66.1842 107.588 66.8926C106.984 67.2884 106.286 67.528 105.494 67.6113C104.786 67.6947 103.859 67.7155 102.713 67.6738C102.671 66.7988 102.442 66.0072 102.025 65.2988C102.88 65.3822 103.723 65.403 104.557 65.3613C105.14 65.3197 105.598 65.2051 105.932 65.0176C106.515 64.6426 106.807 63.7988 106.807 62.4863C106.786 60.0697 105.411 57.6842 102.682 55.3301C103.744 53.1634 104.984 50.2572 106.4 46.6113H100.338V71.7051H98.0254V44.3613H107.432L107.838 44.2676Z" fill="white"/>
</svg>
