<svg width="1440" height="1024" viewBox="0 0 1440 1024" fill="none" xmlns="http://www.w3.org/2000/svg">
<path d="M992.173 683.623L1440 1024H1.70014L204.238 871.275L455.117 683.623L288.06 808.578L0.699975 1023.52L1.151 0.607022L454.483 355.301L228.048 177.444L2.70035 0H1437L1232.26 160.802L986.618 351.644L1438.45 0.607266L1441 1023.52L987.902 680.865M902.661 683.623L1201.22 1024M813.148 683.623L962.43 1024M723.653 683.623V1024M634.141 683.623L484.86 1024M544.629 683.623L246.083 1024M454.45 622.824L0 818.857M454.45 555.92L0.283588 613.961M454.466 489.016L0.567115 409.283M454.466 422.143L0.850704 204.821M987.652 615.108L1439.7 820.22M987.385 549.319L1439.38 615.975M987.135 483.469L1439.07 411.297M986.885 417.556L1438.77 206.184M902.661 353.565L1201.22 0.51433M813.148 353.565L962.43 0.51433M723.653 353.565V0.51433M634.141 353.565L484.86 0.51433M544.629 353.565L246.083 0.51433M74.7154 968.887H1367.49L1364.36 58.1648H74.7154V968.887ZM134.187 924.543L1304.47 920.269V104.696H134.187V924.543ZM181.238 888.479L1255.76 883.427V141.509H181.238V888.479ZM217.545 861.321L1221.48 857.912V169.174H217.545V861.321Z" stroke="url(#paint0_linear_299_1636)" stroke-miterlimit="10"/>
<path d="M992.173 683.623L1440 1024H1.70014L204.238 871.275L455.117 683.623L288.06 808.578L0.699975 1023.52L1.151 0.607022L454.483 355.301L228.048 177.444L2.70035 0H1437L1232.26 160.802L986.618 351.644L1438.45 0.607266L1441 1023.52L987.902 680.865M902.661 683.623L1201.22 1024M813.148 683.623L962.43 1024M723.653 683.623V1024M634.141 683.623L484.86 1024M544.629 683.623L246.083 1024M454.45 622.824L0 818.857M454.45 555.92L0.283588 613.961M454.466 489.016L0.567115 409.283M454.466 422.143L0.850704 204.821M987.652 615.108L1439.7 820.22M987.385 549.319L1439.38 615.975M987.135 483.469L1439.07 411.297M986.885 417.556L1438.77 206.184M902.661 353.565L1201.22 0.51433M813.148 353.565L962.43 0.51433M723.653 353.565V0.51433M634.141 353.565L484.86 0.51433M544.629 353.565L246.083 0.51433M74.7154 968.887H1367.49L1364.36 58.1648H74.7154V968.887ZM134.187 924.543L1304.47 920.269V104.696H134.187V924.543ZM181.238 888.479L1255.76 883.427V141.509H181.238V888.479ZM217.545 861.321L1221.48 857.912V169.174H217.545V861.321Z" stroke="url(#paint1_linear_299_1636)" stroke-miterlimit="10"/>
<path d="M992.173 683.623L1440 1024H1.70014L204.238 871.275L455.117 683.623L288.06 808.578L0.699975 1023.52L1.151 0.607022L454.483 355.301L228.048 177.444L2.70035 0H1437L1232.26 160.802L986.618 351.644L1438.45 0.607266L1441 1023.52L987.902 680.865M902.661 683.623L1201.22 1024M813.148 683.623L962.43 1024M723.653 683.623V1024M634.141 683.623L484.86 1024M544.629 683.623L246.083 1024M454.45 622.824L0 818.857M454.45 555.92L0.283588 613.961M454.466 489.016L0.567115 409.283M454.466 422.143L0.850704 204.821M987.652 615.108L1439.7 820.22M987.385 549.319L1439.38 615.975M987.135 483.469L1439.07 411.297M986.885 417.556L1438.77 206.184M902.661 353.565L1201.22 0.51433M813.148 353.565L962.43 0.51433M723.653 353.565V0.51433M634.141 353.565L484.86 0.51433M544.629 353.565L246.083 0.51433M74.7154 968.887H1367.49L1364.36 58.1648H74.7154V968.887ZM134.187 924.543L1304.47 920.269V104.696H134.187V924.543ZM181.238 888.479L1255.76 883.427V141.509H181.238V888.479ZM217.545 861.321L1221.48 857.912V169.174H217.545V861.321Z" stroke="url(#paint2_linear_299_1636)" stroke-miterlimit="10"/>
<path d="M991.173 683.623L1439 1024H0.700143L203.238 871.275L454.117 683.623L287.06 808.578L-0.300025 1023.52L0.151003 0.607022L453.483 355.301L227.048 177.444L1.70035 0H1436L1231.26 160.802L985.618 351.644L1437.45 0.607266L1440 1023.52L986.902 680.865M901.661 683.623L1200.22 1024M812.148 683.623L961.43 1024M722.653 683.623V1024M633.141 683.623L483.86 1024M543.629 683.623L245.083 1024M453.45 622.824L-1 818.857M453.45 555.92L-0.716412 613.961M453.466 489.016L-0.432885 409.283M453.466 422.143L-0.149296 204.821M986.652 615.108L1438.7 820.22M986.385 549.319L1438.38 615.975M986.135 483.469L1438.07 411.297M985.885 417.556L1437.77 206.184M901.661 353.565L1200.22 0.51433M812.148 353.565L961.43 0.51433M722.653 353.565V0.51433M633.141 353.565L483.86 0.51433M543.629 353.565L245.083 0.51433M73.7154 968.887H1366.49L1363.36 58.1648H73.7154V968.887ZM133.187 924.543L1303.47 920.269V104.696H133.187V924.543ZM180.238 888.479L1254.76 883.427V141.509H180.238V888.479ZM216.545 861.321L1220.48 857.912V169.174H216.545V861.321Z" stroke="url(#paint3_linear_299_1636)" stroke-miterlimit="10"/>
<defs>
<linearGradient id="paint0_linear_299_1636" x1="1562.5" y1="563.679" x2="720.001" y2="566.291" gradientUnits="userSpaceOnUse">
<stop offset="0.142334" stop-color="#7758AC"/>
<stop offset="0.361711" stop-color="#7758AC" stop-opacity="0.31"/>
<stop offset="0.591665" stop-color="#7758AC" stop-opacity="0"/>
</linearGradient>
<linearGradient id="paint1_linear_299_1636" x1="720" y1="1051.27" x2="720" y2="594.303" gradientUnits="userSpaceOnUse">
<stop offset="0.0836753" stop-color="#7758AC"/>
<stop offset="0.364393" stop-color="#7758AC" stop-opacity="0.31"/>
<stop offset="0.584854" stop-color="#7758AC" stop-opacity="0"/>
</linearGradient>
<linearGradient id="paint2_linear_299_1636" x1="720" y1="18.6617" x2="720" y2="566.071" gradientUnits="userSpaceOnUse">
<stop offset="0.0836753" stop-color="#7758AC"/>
<stop offset="0.258278" stop-color="#7758AC" stop-opacity="0.31"/>
<stop offset="0.577163" stop-color="#7758AC" stop-opacity="0"/>
</linearGradient>
<linearGradient id="paint3_linear_299_1636" x1="-69.5" y1="568.942" x2="755.498" y2="564.24" gradientUnits="userSpaceOnUse">
<stop offset="0.0858225" stop-color="#7758AC"/>
<stop offset="0.304654" stop-color="#7758AC" stop-opacity="0.31"/>
<stop offset="0.577163" stop-color="#7758AC" stop-opacity="0"/>
</linearGradient>
</defs>
</svg>
