<svg xmlns="http://www.w3.org/2000/svg" viewBox="0 0 186.81 85.19"><defs><style>.cls-1{fill:#232323;}.cls-2{fill:#fff;}</style></defs><title>Kronos_logo-CN</title><g id="Layer_2" data-name="Layer 2"><rect class="cls-1" x="-298.84" y="-120.85" width="1228.13" height="569.01"/></g><g id="Layer_1" data-name="Layer 1"><path class="cls-2" d="M15.53,60.72a12.2,12.2,0,0,1,.86,2.08h3.05v1.57H16.87v1.68h2.38V71.2H12.19c0,2.68-.17,6.34-1.26,8.65A6.16,6.16,0,0,0,9.72,79c1-2.19,1-5.34,1-7.84V62.8H14.4c-.17-.55-.42-1.18-.63-1.68Zm-3.34,3.65v1.68h1.16V64.37Zm1.16,3.15H12.19v2.21h1.16Zm5.94,9.2a5.79,5.79,0,0,0,.12,1.36C16.77,79,16.22,79.2,16,79.43a7.06,7.06,0,0,0-.38-1,10.52,10.52,0,0,0-2.71,1v-.07a6.54,6.54,0,0,0-.56-1.3,1.12,1.12,0,0,0,.59-1.15V71.53h1.36v1.93h1.39v1.45H14.25v2.48l1.3-.33c0,.27,0,.62,0,.92a1.14,1.14,0,0,0,.51-1V71.55h1.34v1.91h1.62v1.45H17.44v2.35ZM15.68,64.37H14.52v1.68h1.16Zm-1.16,5.36h1.16V67.52H14.52Zm2.35-2.21v2.21H18V67.52Zm7,8.34a12.81,12.81,0,0,1-3,4.22,14.36,14.36,0,0,0-1.36-1.14,9.18,9.18,0,0,0,2.73-3.54Zm5.35-2.56V75H19.81V73.3h1.47v-8H19.92V63.68h1.36V60.82h1.64v2.86h3.13V60.82h1.66v2.86H29v1.64h-1.3v8Zm-6.3-8v1.57h3.13V65.32Zm0,4.74h3.13V68.43H22.92Zm0,3.24h3.13V71.6H22.92Zm3.61,2a22.72,22.72,0,0,1,2.54,3.82L27.56,80a25.32,25.32,0,0,0-2.46-3.92Z"/><path class="cls-2" d="M35,79.2a12,12,0,0,0,1.34-3.85l1.3.49a12.53,12.53,0,0,1-1.26,3.92Zm9.7-4.56H35.4V73.11h3.76V71.74H35.78V70.21h3.38V69H35.84V61.48H44.3V69H40.88v1.18h3.48v1.53H40.88v1.37h3.78Zm-7.33-7h2V62.84h-2Zm1.05-4.1a15.65,15.65,0,0,1,.67,3.05l-.94.29a14.6,14.6,0,0,0-.61-3.1Zm1.07,12.14a17.92,17.92,0,0,1,.31,3.61l-1.3.17a16.4,16.4,0,0,0-.25-3.63Zm2.08-.1a16.24,16.24,0,0,1,.9,3.36l-1.26.29a14.8,14.8,0,0,0-.84-3.42Zm1.24-12.77H40.63v4.83h2.14Zm-2,3.86a23.75,23.75,0,0,0,.86-3.19l1.07.4c-.39,1-.79,2.31-1.15,3.09Zm2.86,8.65a13.25,13.25,0,0,1,1.43,3.28l-1.28.48a13.24,13.24,0,0,0-1.37-3.31ZM50.1,67v3.61h3.48v9.3H51.73v-.82H47.07V80H45.31V70.63h2.9V60.78H50.1v4.43h4.26V67Zm1.63,5.37H47.07v4.94h4.66Z"/><path class="cls-2" d="M67.23,73.61a28.62,28.62,0,0,0-1.64-2.77V80H63.71V71.51A20.56,20.56,0,0,1,61,76.4a11.93,11.93,0,0,0-1-1.8,21,21,0,0,0,3.36-6.15H60.35V66.62h3.36V63.81c-.91.16-1.81.29-2.65.42a5.92,5.92,0,0,0-.55-1.52A30.61,30.61,0,0,0,67.19,61l1.11,1.6a19.94,19.94,0,0,1-2.71.8v3.21h2.94v1.83H65.59v.29c.63.65,2.42,2.79,2.82,3.34Zm9.85,1V80H75.15V75l-6.62,1.11-.29-1.87,6.91-1.15V60.76h1.93v12l2.29-.38.29,1.83ZM72.5,71.81A17.68,17.68,0,0,0,69,68.68l1.23-1.14a19.64,19.64,0,0,1,3.59,3ZM73,66.28a17,17,0,0,0-3.26-3l1.28-1.11a16.91,16.91,0,0,1,3.34,2.92Z"/><path class="cls-2" d="M92.56,71.57l-2.4.7v5.52c0,1-.2,1.53-.81,1.83a7.37,7.37,0,0,1-3,.33,7.4,7.4,0,0,0-.58-1.76c.92,0,1.8,0,2,0s.42-.11.42-.4v-5c-.81.23-1.57.44-2.31.63l-.5-1.87c.8-.18,1.76-.42,2.81-.67V66.68H85.67v-1.8h2.58v-4.1h1.91v4.1h2.21v1.8H90.16v3.7l2.15-.57ZM103.88,69A15.22,15.22,0,0,1,99.78,76,14.65,14.65,0,0,0,105,78.4a6.8,6.8,0,0,0-1.26,1.66,14.84,14.84,0,0,1-5.42-2.84A18.09,18.09,0,0,1,92.52,80a8.52,8.52,0,0,0-1-1.77,16.19,16.19,0,0,0,5.39-2.39,17.12,17.12,0,0,1-3.25-5.42l.27-.08H93V68.57h4.33V65.7H92.66V63.91h4.71V60.76H99.3v3.15h4.85V65.7H99.3v2.87h3l.34-.06Zm-8.36,1.35a13.44,13.44,0,0,0,2.81,4.32,12.22,12.22,0,0,0,3.07-4.32Z"/><path class="cls-2" d="M147,25.4a13.47,13.47,0,1,0-6.27,25.39h0A13.47,13.47,0,0,0,147,25.4Zm-13.2,14.07a7.25,7.25,0,0,1,4.78-9.07,7.29,7.29,0,0,1,5.53.5,7.26,7.26,0,1,1-10.31,8.57Z"/><path class="cls-2" d="M74,23.85A13.47,13.47,0,1,0,87.45,37.32,13.48,13.48,0,0,0,74,23.85Zm7.25,13.47A7.25,7.25,0,1,1,74,30.07,7.26,7.26,0,0,1,81.23,37.32Z"/><path class="cls-2" d="M107.37,23.85A13.49,13.49,0,0,0,93.9,37.32V50.79h6.22V37.32a7.26,7.26,0,0,1,14.51,0V50.79h6.21V37.32A13.48,13.48,0,0,0,107.37,23.85Z"/><path class="cls-2" d="M57.63,24.12A13,13,0,0,0,55,23.85,13.48,13.48,0,0,0,41.5,37.32V50.79h6.21V37.32a7.26,7.26,0,0,1,6.86-7.23Z"/><path class="cls-2" d="M166.52,33.91a4.33,4.33,0,0,1,8.12-2.08,14.94,14.94,0,0,1,.7,1.52h6.36A32.74,32.74,0,0,0,179.83,29a10.25,10.25,0,1,0-14.89,13.3c.12.08-.05,0,3.13,1.85L171,39c-1.32-.77-2.4-1.39-2.72-1.59A4.32,4.32,0,0,1,166.52,33.91Z"/><path class="cls-2" d="M175.67,51a4.33,4.33,0,0,1-8.12,2.08c-.13-.24-.49-1-.7-1.52h-6.36a31.91,31.91,0,0,0,1.87,4.36,10.25,10.25,0,1,0,14.89-13.3c-.11-.08.06,0-3.12-1.84l-3,5.11,2.72,1.59A4.35,4.35,0,0,1,175.67,51Z"/><rect class="cls-2" x="9.74" y="23.85" width="6.14" height="26.94"/><rect class="cls-2" x="9.7" y="5.36" width="6.14" height="14.94"/><path class="cls-2" d="M30.05,51.76l-8.62-8.61a8.26,8.26,0,0,1,0-11.66l8.62-8.61,4.18,4.18-8.61,8.62a2.32,2.32,0,0,0,0,3.28l8.61,8.62Z"/></g></svg>