<svg width="62" height="62" viewBox="0 0 62 62" fill="none" xmlns="http://www.w3.org/2000/svg">
<path d="M61.2989 0.302734H0.340576V61.2611H61.2989V0.302734Z" fill="#F18C31"/>
<path d="M44.5013 27.5991C44.0985 27.3787 43.6552 27.2426 43.1981 27.1989C42.7411 27.1553 42.2801 27.205 41.8429 27.3451C41.4027 27.4802 40.9934 27.7011 40.639 27.9951C40.2846 28.2891 39.9919 28.6504 39.7778 29.0581C39.5637 29.4658 39.4325 29.9119 39.3917 30.3706C39.3508 30.8293 39.4012 31.2916 39.54 31.7307C39.748 32.46 40.1948 33.0985 40.8089 33.5437C41.423 33.9889 42.1686 34.215 42.9265 34.1859C43.2765 34.1862 43.6246 34.1349 43.9595 34.0335C44.8461 33.7568 45.5865 33.1395 46.0183 32.3172C46.45 31.4949 46.5379 30.5349 46.2624 29.6479C46.1252 29.2039 45.898 28.7928 45.595 28.4403C45.2921 28.0878 44.9197 27.8014 44.5013 27.5991ZM41.1147 31.2396C41.0397 31.0057 41.0131 30.759 41.0364 30.5145C41.0597 30.27 41.1324 30.0328 41.2502 29.8173C41.3626 29.5967 41.5178 29.4007 41.7068 29.2408C41.8958 29.0809 42.1147 28.9603 42.3509 28.886C42.8301 28.743 43.346 28.7915 43.7901 29.0214C44.0087 29.1382 44.2021 29.2971 44.359 29.4889C44.5159 29.6807 44.6334 29.9016 44.7046 30.139C44.8482 30.615 44.7991 31.1284 44.568 31.5687C44.3368 32.0089 43.9419 32.3407 43.4684 32.4927C42.989 32.6339 42.4738 32.5854 42.0292 32.3572C41.8043 32.2439 41.6045 32.0866 41.4416 31.8946C41.2787 31.7027 41.1561 31.4799 41.0809 31.2396H41.1147Z" fill="white"/>
<path d="M25.6038 27.1915C24.9053 27.1678 24.2156 27.3536 23.6235 27.7248C23.0313 28.0961 22.5637 28.6359 22.2806 29.2749C21.9976 29.914 21.9119 30.6231 22.0349 31.3111C22.1578 31.9991 22.4836 32.6347 22.9705 33.1361C23.4573 33.6376 24.083 33.9821 24.7671 34.1253C25.4512 34.2685 26.1625 34.2039 26.8096 33.9399C27.4568 33.6758 28.0102 33.2243 28.3987 32.6433C28.7873 32.0624 28.9934 31.3786 28.9904 30.6796C28.9866 29.7731 28.6317 28.9034 28.0002 28.253C27.3688 27.6026 26.5098 27.2221 25.6038 27.1915ZM27.5003 30.6796C27.5206 31.0584 27.427 31.4345 27.2313 31.7595C27.0356 32.0844 26.747 32.3432 26.4027 32.5025C26.0585 32.6617 25.6744 32.7141 25.3001 32.6528C24.9258 32.5915 24.5785 32.4194 24.303 32.1586C24.0275 31.8979 23.8365 31.5606 23.7547 31.1902C23.6729 30.8198 23.704 30.4334 23.8441 30.0809C23.9842 29.7284 24.2268 29.426 24.5405 29.2128C24.8542 28.9996 25.2245 28.8853 25.6038 28.8847C26.0779 28.901 26.5287 29.0944 26.8672 29.4266C27.2057 29.7589 27.4075 30.206 27.4326 30.6796H27.5003Z" fill="white"/>
<path d="M34.2061 27.1915C33.7452 27.187 33.288 27.2739 32.8608 27.4472C32.4337 27.6205 32.0452 27.8767 31.7177 28.2011C31.3902 28.5254 31.1302 28.9115 30.9528 29.3369C30.7754 29.7623 30.6841 30.2187 30.6841 30.6796V34.1847H32.3774V30.6796C32.3774 30.1811 32.5754 29.7031 32.9279 29.3506C33.2804 28.9981 33.7584 28.8001 34.2569 28.8001C34.7554 28.8001 35.2335 28.9981 35.586 29.3506C35.9385 29.7031 36.1364 30.1811 36.1364 30.6796V34.1847H37.8297V30.6796C37.8277 30.2106 37.7317 29.7468 37.5471 29.3156C37.3626 28.8844 37.0934 28.4946 36.7555 28.1693C36.4176 27.8441 36.0179 27.5899 35.58 27.4219C35.1421 27.254 34.6749 27.1756 34.2061 27.1915Z" fill="white"/>
<path d="M21.3032 27.1913C21.0725 27.1654 20.8396 27.1654 20.6089 27.1913C19.6867 27.1957 18.8038 27.5652 18.1533 28.2189C17.5028 28.8726 17.1377 29.7573 17.1377 30.6794V34.1846H18.831V30.6794C18.8329 30.2145 19.007 29.7668 19.3197 29.4228C19.6325 29.0788 20.0616 28.8629 20.5243 28.8168L21.3032 27.1913Z" fill="white"/>
<path d="M49.5641 29.7989C49.5685 29.5038 49.6876 29.2221 49.8963 29.0135C50.1049 28.8048 50.3866 28.6857 50.6816 28.6813C50.8819 28.6805 51.0787 28.7335 51.2515 28.8347C51.4243 28.936 51.5667 29.0819 51.6638 29.257C51.735 29.3881 51.7972 29.5239 51.85 29.6634H53.5433C53.4045 29.2749 53.2405 28.896 53.0523 28.5289C52.7977 27.9581 52.3502 27.4951 51.7882 27.2215C51.2263 26.9478 50.5859 26.8809 49.9795 27.0325C49.3731 27.1841 48.8395 27.5445 48.4724 28.0504C48.1054 28.5563 47.9284 29.1754 47.9724 29.7989C47.9728 30.2249 48.076 30.6444 48.2736 31.0218C48.4711 31.3992 48.7571 31.7233 49.1069 31.9663C49.1069 31.9663 49.1069 31.9663 49.9196 32.4573L50.6816 31.1196L49.9705 30.7133C49.8374 30.6021 49.7315 30.4618 49.6611 30.3033C49.5906 30.1448 49.5575 29.9722 49.5641 29.7989Z" fill="white"/>
<path d="M51.935 34.2353C51.9369 34.4845 51.8555 34.7273 51.7036 34.9249C51.5517 35.1225 51.3381 35.2637 51.0967 35.326C50.8554 35.3883 50.6002 35.3681 50.3716 35.2686C50.1431 35.1692 49.9543 34.9962 49.8353 34.7771C49.7635 34.6522 49.7013 34.522 49.6491 34.3877H47.9558C48.0979 34.7748 48.2618 35.1536 48.4468 35.5222C48.7014 36.0953 49.1505 36.5599 49.7145 36.834C50.2786 37.1081 50.9213 37.174 51.5292 37.02C52.1371 36.8659 52.671 36.502 53.0365 35.9924C53.402 35.4829 53.5757 34.8605 53.5267 34.2353C53.5264 33.8093 53.4231 33.3897 53.2255 33.0123C53.028 32.6349 52.7421 32.3109 52.3922 32.0679L51.5795 31.5938L50.8175 32.9145L51.5117 33.3209C51.6489 33.4295 51.7587 33.5689 51.8323 33.7277C51.9058 33.8865 51.941 34.0604 51.935 34.2353Z" fill="white"/>
<path d="M10.4665 27.1914H8.87476V34.1847H10.4665V27.1914Z" fill="white"/>
<path d="M10.4491 22.4004H8.85742V26.278H10.4491V22.4004Z" fill="white"/>
<path d="M14.1407 34.4394L11.9055 32.272C11.5053 31.8691 11.2808 31.3243 11.2808 30.7565C11.2808 30.1887 11.5053 29.6439 11.9055 29.241L14.1407 27.0059L15.2244 28.0896L12.9892 30.3247C12.8843 30.4412 12.8244 30.5913 12.82 30.748C12.8218 30.9103 12.8819 31.0666 12.9892 31.1883L15.2244 33.4234L14.1407 34.4394Z" fill="white"/>
</svg>
