<svg width="126" height="45" viewBox="0 0 126 45" fill="none" xmlns="http://www.w3.org/2000/svg">
<path d="M124.208 10.9777C125.182 10.9897 125.988 10.1963 126 9.22252V9.21049V2.61049C125.976 1.63672 125.182 0.855303 124.208 0.867324H98.159C97.1849 0.867324 96.3911 1.66077 96.3911 2.63454V2.6706V43.064V43.0881C96.3911 44.0619 97.1728 44.8673 98.159 44.8673H124.208C125.182 44.8673 125.976 44.0739 125.976 43.1001V36.5001C125.976 35.5263 125.182 34.7329 124.208 34.7329H106.505V27.9165H124.208C125.182 27.9285 125.988 27.1351 126 26.1613V19.5613C126 18.5875 125.206 17.7941 124.232 17.7941H106.505V10.9777H124.208Z" fill="white"/>
<path d="M27.841 34.7449H10.1382V2.63454C10.1262 1.66077 9.34447 0.867322 8.35831 0.867322H1.79193C0.805765 0.8553 0.0120263 1.64874 0 2.62251V2.63454V43.064V43.0881C0 44.0619 0.781712 44.8673 1.76787 44.8673C1.7799 44.8673 1.7799 44.8673 1.79193 44.8673H27.841C28.8151 44.8673 29.6089 44.0739 29.6089 43.1001V36.5001C29.5968 35.5263 28.8031 34.7449 27.841 34.7449Z" fill="white"/>
<path d="M36.9451 0.867188H43.5235C44.4977 0.867188 45.2914 1.66063 45.2914 2.6344V43.088C45.2914 44.0617 44.4977 44.8552 43.5235 44.8552H36.9451C35.971 44.8552 35.1772 44.0617 35.1772 43.088V2.64642C35.1772 1.66063 35.971 0.867188 36.9451 0.867188Z" fill="white"/>
<path d="M88.2853 0.867188H81.7069C80.7328 0.867188 79.939 1.66063 79.939 2.6344V26.6541L61.4305 1.67265C61.3824 1.61254 61.3343 1.55243 61.2862 1.49232L61.1779 1.38413H61.1419C61.1058 1.34806 61.0817 1.32402 61.0457 1.29997L60.9976 1.26391L60.9013 1.2038L60.8532 1.16773L60.757 1.10762L60.6969 1.08358L60.5887 1.03549H60.5285L60.4203 0.999428H60.3722H60.2639H60.1918H60.0956H53.3729C52.3987 0.999428 51.605 1.79287 51.605 2.76664V43.2202C51.6771 44.1459 52.4468 44.8552 53.3729 44.8552H59.9753C60.9494 44.8552 61.7432 44.0617 61.7432 43.088V19.0803L80.2878 44.1098C80.4081 44.2901 80.5644 44.4344 80.7448 44.5546L80.8531 44.6147L80.9011 44.6388L80.9853 44.6869L81.0695 44.7229H81.1297L81.2499 44.771H81.274C81.4303 44.8071 81.5746 44.8311 81.731 44.8311H88.2733C89.2474 44.8311 90.0412 44.0377 90.0412 43.0639V2.64642C90.0532 1.67265 89.2595 0.879209 88.2853 0.867188Z" fill="white"/>
</svg>
