<svg id="圖層_1" data-name="圖層 1" xmlns="http://www.w3.org/2000/svg" xmlns:xlink="http://www.w3.org/1999/xlink" viewBox="0 0 128.76 113.48"><defs><style>.cls-1{opacity:0.84;}.cls-2,.cls-4{fill:none;stroke-miterlimit:10;}.cls-2{stroke:url(#未命名漸層_39);}.cls-3{fill:url(#未命名漸層_39-2);}.cls-4{stroke:url(#未命名漸層_39-3);}.cls-5{fill:url(#未命名漸層_39-4);}.cls-6{fill:url(#Neon_Pastel_Gradient_4);}.cls-7{fill:url(#Neon_Pastel_Gradient_4-2);}.cls-8{fill:url(#Neon_Pastel_Gradient_4-3);}</style><linearGradient id="未命名漸層_39" x1="42.35" y1="39.5" x2="117.73" y2="45.47" gradientUnits="userSpaceOnUse"><stop offset="0" stop-color="#da6597"/><stop offset="0.97" stop-color="#575c9f"/></linearGradient><linearGradient id="未命名漸層_39-2" x1="43.43" y1="25.76" x2="118.82" y2="31.72" xlink:href="#未命名漸層_39"/><linearGradient id="未命名漸層_39-3" x1="12.3" y1="96.33" x2="79.4" y2="101.64" xlink:href="#未命名漸層_39"/><linearGradient id="未命名漸層_39-4" x1="12.87" y1="89.08" x2="79.98" y2="94.39" xlink:href="#未命名漸層_39"/><linearGradient id="Neon_Pastel_Gradient_4" x1="27.09" y1="42.65" x2="44.6" y2="43.37" gradientTransform="translate(77.34 5.43) rotate(87.64)" gradientUnits="userSpaceOnUse"><stop offset="0.12" stop-color="#92cac5"/><stop offset="1" stop-color="#4f9acd"/></linearGradient><linearGradient id="Neon_Pastel_Gradient_4-2" x1="34.77" y1="73.13" x2="69.57" y2="74.57" gradientTransform="matrix(1, 0, 0, 1, 0, 0)" xlink:href="#Neon_Pastel_Gradient_4"/><linearGradient id="Neon_Pastel_Gradient_4-3" x1="76.24" y1="48.84" x2="111.04" y2="50.27" gradientTransform="matrix(1, 0, 0, 1, 0, 0)" xlink:href="#Neon_Pastel_Gradient_4"/></defs><title>大松_logo</title><g class="cls-1"><path class="cls-2" d="M46.26,26.09C70.62,5.08,99.08-1.49,112,11.69c13.85,14.17,4.48,45.79-20.92,70.63"/><path class="cls-3" d="M48.89,28.83a3.76,3.76,0,1,1,.38-5.3A3.75,3.75,0,0,1,48.89,28.83Z"/></g><g class="cls-1"><path class="cls-4" d="M76.94,94.05c-22.1,15.47-45.59,19.22-57,7.58-3.95-4-6-9.48-6.35-15.79"/><path class="cls-5" d="M74.59,91.08a3.76,3.76,0,1,1-.88,5.24A3.76,3.76,0,0,1,74.59,91.08Z"/></g><ellipse class="cls-6" cx="35.84" cy="43.01" rx="9.3" ry="8.76" transform="translate(-8.61 77.05) rotate(-87.64)"/><path class="cls-7" d="M66.09,68.89a2.76,2.76,0,0,1-.57.06l-13.09.28,8.23,14.16c.11.19.21.4.3.6a6.38,6.38,0,0,1-10.7,6.22c-.13-.18-.26-.36-.38-.56l-14-24.14c-1.53-2.63-.36-6.16,2.62-7.89a6.83,6.83,0,0,1,2.07-.8,3.42,3.42,0,0,1,1.06-.19l23.64-.51a3.64,3.64,0,0,1,.57,0c2.31.34,4.16,3,4.23,6.28S68.39,68.46,66.09,68.89Z"/><path class="cls-8" d="M79.71,54.51a5.51,5.51,0,0,1,.57-.06l13.09-.28L85.15,40a3.83,3.83,0,0,1-.3-.61A6.37,6.37,0,0,1,95.54,33.2a3.67,3.67,0,0,1,.38.56l14,24.13c1.53,2.63.35,6.17-2.62,7.9a7,7,0,0,1-2.07.8,3.81,3.81,0,0,1-1.06.19l-23.64.5a2.64,2.64,0,0,1-.57,0c-2.32-.33-4.16-3-4.23-6.27S77.41,55,79.71,54.51Z"/></svg>