<svg width="146" height="115" viewBox="0 0 146 115" fill="none" xmlns="http://www.w3.org/2000/svg">
<path d="M49.6978 20.4306C80.2816 -0.510838 114.24 -5.40671 128.44 10.0737C143.878 26.9047 130.119 61.4548 97.6906 87.2041" stroke="white" stroke-width="2" stroke-miterlimit="10"/>
<path d="M53.5373 24.6799C52.2822 25.5626 50.7022 25.9455 49.1441 25.7446C47.586 25.5437 46.1772 24.7753 45.2271 23.6083C44.2793 22.441 43.8682 20.9711 44.084 19.5218C44.2999 18.0725 45.1251 16.7623 46.3782 15.8791C46.9986 15.4413 47.7057 15.1217 48.459 14.9386C49.2123 14.7555 49.997 14.7125 50.7681 14.812C51.5393 14.9115 52.2818 15.1517 52.9531 15.5187C53.6244 15.8857 54.2114 16.3723 54.6805 16.9507C55.1512 17.5279 55.495 18.1858 55.6923 18.8868C55.8896 19.5878 55.9365 20.3181 55.8303 21.036C55.7241 21.7539 55.4671 22.4452 55.0736 23.0705C54.6801 23.6957 54.158 24.2427 53.5373 24.6799Z" fill="white"/>
<path d="M78.7127 99.8724C51.3694 114.861 23.5608 117.019 11.0639 103.396C6.66439 98.6026 4.63808 92.3855 4.75635 85.3242" stroke="white" stroke-width="2" stroke-miterlimit="10"/>
<path d="M75.3379 95.2998C76.6782 94.5352 78.2892 94.296 79.8185 94.6344C81.3478 94.9728 82.6709 95.8613 83.4984 97.1055C84.3217 98.3527 84.5798 99.8531 84.2162 101.277C83.8526 102.702 82.8969 103.934 81.5588 104.703C80.2191 105.469 78.6073 105.709 77.0774 105.371C75.5475 105.032 74.2244 104.143 73.3983 102.897C72.5771 101.649 72.3201 100.149 72.6836 98.7256C73.0471 97.3019 74.0014 96.0701 75.3379 95.2998Z" fill="white"/>
<path opacity="0.1" d="M93.9299 98.5381C65.1043 115.986 34.7253 119.252 21.4952 104.829C6.05737 87.9977 19.8158 53.4475 52.2446 27.6909C84.6734 1.93429 123.449 -5.33982 138.887 11.5058C154.325 28.3515 140.567 62.887 108.138 88.6362" stroke="white" stroke-miterlimit="10"/>
<path d="M1.39453 37.2676V27H2.9668L4.93555 32.4961C4.94466 32.5234 5.19076 33.2344 5.67383 34.6289H5.74219L6.43945 32.4961L8.39453 27H9.9668V37.2676H8.75V31.5801C8.75 30.9967 8.80469 29.9896 8.91406 28.5586H8.85938L8.05273 30.8965L6.09766 36.2285H5.23633L3.29492 30.8965L2.47461 28.5586H2.41992C2.52018 30.2174 2.57031 31.2246 2.57031 31.5801V37.2676H1.39453ZM15.1665 37.4453C14.2915 37.4453 13.658 37.1354 13.2661 36.5156C13.0473 36.1602 12.938 35.7546 12.938 35.2988C12.938 34.2871 13.5259 33.5488 14.7016 33.084C15.4126 32.8014 16.3833 32.5918 17.6138 32.4551C17.5955 31.179 17.076 30.5365 16.0552 30.5273C15.3351 30.5365 14.574 30.8099 13.772 31.3477L13.2661 30.459C14.2869 29.8027 15.285 29.4746 16.2602 29.4746C17.6821 29.4746 18.5298 30.1764 18.8032 31.5801C18.867 31.89 18.8989 32.2272 18.8989 32.5918V37.2676H17.8462L17.7368 36.3516H17.6958C16.8117 37.0807 15.9686 37.4453 15.1665 37.4453ZM15.5356 36.4336C16.1372 36.4336 16.7798 36.1374 17.4634 35.5449C17.518 35.4993 17.5682 35.4583 17.6138 35.4219V33.2891C15.7544 33.5169 14.6606 33.9544 14.3325 34.6016C14.2414 34.7839 14.1958 34.9844 14.1958 35.2031C14.1958 35.8685 14.5102 36.265 15.1391 36.3926C15.2667 36.4199 15.3989 36.4336 15.5356 36.4336ZM22.0752 37.2676V29.666H23.1279L23.2373 31.0469H23.2783C23.7796 30.1445 24.3994 29.6296 25.1377 29.502C25.2379 29.4837 25.3382 29.4746 25.4384 29.4746C25.7757 29.4746 26.0446 29.5293 26.2451 29.6387L26.0127 30.7598C25.7939 30.6777 25.5478 30.6367 25.2744 30.6367C24.6546 30.6367 24.1214 30.9967 23.6748 31.7168C23.5563 31.9173 23.4469 32.1406 23.3466 32.3867V37.2676H22.0752ZM28.2729 37.2676V26.125H29.5307V33.6855H29.558L32.8256 29.666H34.2338L31.6909 32.7148L34.5756 37.2676H33.1948L30.9662 33.6035L29.5307 35.2715V37.2676H28.2729ZM39.83 37.4453C38.6907 37.4453 37.7792 37.0352 37.0956 36.2148C36.4941 35.4857 36.1933 34.5697 36.1933 33.4668C36.1933 32.1543 36.6126 31.1152 37.4511 30.3496C38.0891 29.7663 38.8137 29.4746 39.6249 29.4746C40.8554 29.4746 41.7258 29.9896 42.2363 31.0195C42.5097 31.5938 42.6464 32.2682 42.6464 33.043C42.6464 33.2891 42.6282 33.5306 42.5917 33.7676H37.4648C37.5195 34.8249 37.9114 35.5859 38.6405 36.0508C39.0325 36.306 39.4836 36.4336 39.9941 36.4336C40.6777 36.4245 41.3111 36.224 41.8945 35.832L42.3593 36.666C41.5572 37.1855 40.7141 37.4453 39.83 37.4453ZM37.4511 32.8516H41.5253C41.5253 31.5846 41.0969 30.8236 40.2402 30.5684C40.0488 30.5137 39.8482 30.4863 39.6386 30.4863C38.9185 30.4863 38.3489 30.8053 37.9296 31.4434C37.6653 31.8444 37.5058 32.3138 37.4511 32.8516ZM47.682 37.4453C46.4242 37.4453 45.7178 36.821 45.5629 35.5723C45.5355 35.3626 45.5219 35.1439 45.5219 34.916V30.7051H44.3871V29.7344L45.5766 29.666L45.727 27.5332H46.7934V29.666H48.8441V30.7051H46.7934V34.9434C46.7934 35.7819 47.0577 36.2604 47.5863 36.3789C47.7048 36.4062 47.8324 36.4199 47.9691 36.4199C48.197 36.4199 48.4841 36.3516 48.8305 36.2148L49.0902 37.1719C48.5069 37.3542 48.0375 37.4453 47.682 37.4453ZM51.3368 37.2676V29.666H52.6083V37.2676H51.3368ZM51.9794 28.0938C51.5783 28.0938 51.3095 27.9297 51.1727 27.6016C51.1272 27.4922 51.1044 27.3828 51.1044 27.2734C51.1044 26.8633 51.2912 26.599 51.6649 26.4805C51.7743 26.4531 51.8791 26.4395 51.9794 26.4395C52.3986 26.4395 52.6766 26.6081 52.8134 26.9453C52.8498 27.0547 52.868 27.1641 52.868 27.2734C52.868 27.638 52.6949 27.8887 52.3485 28.0254C52.23 28.071 52.107 28.0938 51.9794 28.0938ZM55.9486 37.2676V29.666H57.0013L57.1107 30.7598H57.1517C57.9811 29.9486 58.7832 29.5202 59.558 29.4746C59.6127 29.4746 59.6628 29.4746 59.7084 29.4746C61.2487 29.4928 62.0235 30.4863 62.0326 32.4551V37.2676H60.7474V32.6191C60.7474 31.5345 60.4603 30.8874 59.8861 30.6777C59.7129 30.623 59.5215 30.5957 59.3119 30.5957C58.765 30.5957 58.209 30.8464 57.6439 31.3477C57.5163 31.4661 57.375 31.6029 57.2201 31.7578V37.2676H55.9486ZM67.8338 40.7676C66.494 40.7676 65.5643 40.4395 65.0448 39.7832C64.7987 39.4733 64.6756 39.1178 64.6756 38.7168C64.6847 38.0697 65.063 37.5 65.8104 37.0078V36.9395C65.3547 36.666 65.1222 36.2513 65.1131 35.6953C65.1131 35.1667 65.382 34.7064 65.9198 34.3145C65.938 34.3053 65.9517 34.2962 65.9608 34.2871V34.2324C65.3683 33.7585 65.0448 33.1478 64.9901 32.4004C64.981 32.3184 64.9764 32.2454 64.9764 32.1816C64.9764 31.2337 65.3501 30.5 66.0975 29.9805C66.6079 29.6432 67.1867 29.4746 67.8338 29.4746C68.1893 29.4746 68.5402 29.5384 68.8866 29.666H71.5389V30.6504H69.9803C70.3905 31.0514 70.5955 31.571 70.5955 32.209C70.5955 33.1751 70.2218 33.9043 69.4745 34.3965C69.0005 34.7064 68.4536 34.8613 67.8338 34.8613C67.451 34.8613 67.0728 34.7702 66.6991 34.5879C66.3801 34.8796 66.216 35.1849 66.2069 35.5039C66.2069 35.987 66.5396 36.2559 67.2049 36.3105C67.3143 36.3197 67.4237 36.3242 67.533 36.3242H69.0233C70.6639 36.3242 71.5389 36.8438 71.6483 37.8828C71.6574 37.9648 71.662 38.0469 71.662 38.1289C71.662 38.9036 71.2837 39.5417 70.5272 40.043C69.8071 40.526 68.9093 40.7676 67.8338 40.7676ZM67.8338 33.9863C68.408 33.9863 68.8455 33.7402 69.1463 33.248C69.3377 32.9382 69.4334 32.5827 69.4334 32.1816C69.4334 31.4251 69.16 30.8965 68.6131 30.5957C68.3761 30.4681 68.1164 30.4043 67.8338 30.4043C67.2049 30.4043 66.7401 30.6686 66.4393 31.1973C66.2843 31.4798 66.2069 31.8079 66.2069 32.1816C66.2069 32.9017 66.4712 33.4258 66.9998 33.7539C67.2551 33.9089 67.533 33.9863 67.8338 33.9863ZM68.0116 39.9062C68.9048 39.9062 69.5884 39.6602 70.0623 39.168C70.3084 38.9036 70.4315 38.6257 70.4315 38.334C70.4315 37.7871 70.0578 37.4772 69.3104 37.4043C69.1737 37.3952 69.0278 37.3906 68.8729 37.3906H67.5604C67.2414 37.3906 66.9133 37.3496 66.576 37.2676C66.0656 37.6504 65.8058 38.0788 65.7967 38.5527C65.7967 39.0996 66.134 39.4915 66.8084 39.7285C67.1548 39.847 67.5558 39.9062 68.0116 39.9062Z" fill="white"/>
<path d="M60.3281 87.4199C59.3203 87.4199 58.5781 86.9902 58.1016 86.1309C57.7891 85.5527 57.6328 84.8457 57.6328 84.0098C57.6328 82.8613 57.9844 81.959 58.6875 81.3027C59.2031 80.8262 59.793 80.5879 60.457 80.5879C61.0273 80.5879 61.5703 80.7871 62.0859 81.1855C62.1562 81.2402 62.2266 81.2949 62.2969 81.3496L62.2266 80.2246V77.7168H63.3281V87.2676H62.4375L62.332 86.4941H62.3086C61.6758 87.1035 61.0156 87.4121 60.3281 87.4199ZM60.5625 86.5059C61.1406 86.498 61.6953 86.2012 62.2266 85.6152V82.1934C61.7031 81.7324 61.1758 81.502 60.6445 81.502C60.0273 81.502 59.5391 81.7949 59.1797 82.3809C58.9062 82.834 58.7695 83.373 58.7695 83.998C58.7695 85.2012 59.1094 85.9785 59.7891 86.3301C60.0234 86.4473 60.2812 86.5059 60.5625 86.5059ZM68.8162 87.4199C67.8397 87.4199 67.0584 87.0684 66.4725 86.3652C65.9569 85.7402 65.6991 84.9551 65.6991 84.0098C65.6991 82.8848 66.0584 81.9941 66.7772 81.3379C67.3241 80.8379 67.9452 80.5879 68.6405 80.5879C69.6952 80.5879 70.4412 81.0293 70.8787 81.9121C71.1131 82.4043 71.2303 82.9824 71.2303 83.6465C71.2303 83.8574 71.2147 84.0645 71.1834 84.2676H66.7889C66.8358 85.1738 67.1717 85.8262 67.7967 86.2246C68.1327 86.4434 68.5194 86.5527 68.9569 86.5527C69.5428 86.5449 70.0858 86.373 70.5858 86.0371L70.9842 86.752C70.2967 87.1973 69.5741 87.4199 68.8162 87.4199ZM66.7772 83.4824H70.2694C70.2694 82.3965 69.9022 81.7441 69.1678 81.5254C69.0037 81.4785 68.8319 81.4551 68.6522 81.4551C68.035 81.4551 67.5467 81.7285 67.1873 82.2754C66.9608 82.6191 66.8241 83.0215 66.7772 83.4824ZM73.4958 90.0098V80.752H74.3981L74.4919 81.4902H74.527C75.2614 80.8965 75.9528 80.5957 76.6012 80.5879C77.6481 80.5879 78.3903 81.0566 78.8278 81.9941C79.0778 82.5176 79.2028 83.1543 79.2028 83.9043C79.2028 85.1465 78.8317 86.0957 78.0895 86.752C77.5895 87.1973 77.0153 87.4199 76.3669 87.4199C75.7731 87.4121 75.1716 87.1621 74.5622 86.6699L74.5856 87.8066V90.0098H73.4958ZM76.1911 86.5059C76.8552 86.5059 77.3591 86.1816 77.7028 85.5332C77.9372 85.0879 78.0544 84.5488 78.0544 83.916C78.0387 82.3145 77.4684 81.5098 76.3434 81.502C75.8122 81.5098 75.2262 81.8105 74.5856 82.4043V85.8262C75.1169 86.2793 75.652 86.5059 76.1911 86.5059ZM83.0855 87.4199C82.3355 87.4199 81.7925 87.1543 81.4566 86.623C81.2691 86.3184 81.1753 85.9707 81.1753 85.5801C81.1753 84.7129 81.6792 84.0801 82.687 83.6816C83.2964 83.4395 84.1284 83.2598 85.1831 83.1426C85.1675 82.0488 84.7222 81.498 83.8472 81.4902C83.23 81.498 82.5777 81.7324 81.8902 82.1934L81.4566 81.4316C82.3316 80.8691 83.187 80.5879 84.023 80.5879C85.2417 80.5879 85.9683 81.1895 86.2027 82.3926C86.2573 82.6582 86.2847 82.9473 86.2847 83.2598V87.2676H85.3823L85.2886 86.4824H85.2534C84.4956 87.1074 83.773 87.4199 83.0855 87.4199ZM83.4019 86.5527C83.9175 86.5527 84.4683 86.2988 85.0542 85.791C85.1011 85.752 85.1441 85.7168 85.1831 85.6855V83.8574C83.5894 84.0527 82.6519 84.4277 82.3706 84.9824C82.2925 85.1387 82.2534 85.3105 82.2534 85.498C82.2534 86.0684 82.523 86.4082 83.062 86.5176C83.1714 86.541 83.2847 86.5527 83.4019 86.5527ZM89.0072 87.2676V80.752H89.9095L90.0033 81.9355H90.0384C90.4681 81.1621 90.9994 80.7207 91.6322 80.6113C91.7181 80.5957 91.8041 80.5879 91.89 80.5879C92.1791 80.5879 92.4095 80.6348 92.5814 80.7285L92.3822 81.6895C92.1947 81.6191 91.9837 81.584 91.7494 81.584C91.2181 81.584 90.7611 81.8926 90.3783 82.5098C90.2767 82.6816 90.183 82.873 90.097 83.084V87.2676H89.0072ZM96.3703 87.4199C95.2922 87.4199 94.6867 86.8848 94.5539 85.8145C94.5305 85.6348 94.5187 85.4473 94.5187 85.252V81.6426H93.5461V80.8105L94.5656 80.752L94.6945 78.9238H95.6086V80.752H97.3664V81.6426H95.6086V85.2754C95.6086 85.9941 95.8352 86.4043 96.2883 86.5059C96.3898 86.5293 96.4992 86.541 96.6164 86.541C96.8117 86.541 97.0578 86.4824 97.3547 86.3652L97.5773 87.1855C97.0773 87.3418 96.675 87.4199 96.3703 87.4199ZM99.503 87.2676V80.752H100.405L100.499 81.7012H100.534C101.214 80.9668 101.89 80.5957 102.562 80.5879C103.476 80.5957 104.077 81.0098 104.366 81.8301C105.132 81.0098 105.847 80.5957 106.511 80.5879C107.823 80.6035 108.483 81.4551 108.491 83.1426V87.2676H107.401V83.2832C107.401 82.3066 107.132 81.7441 106.593 81.5957C106.468 81.5645 106.335 81.5488 106.194 81.5488C105.694 81.5566 105.144 81.8887 104.542 82.5449V87.2676H103.452V83.2832C103.452 82.3066 103.183 81.7441 102.644 81.5957C102.519 81.5645 102.386 81.5488 102.245 81.5488C101.73 81.5566 101.179 81.8887 100.593 82.5449V87.2676H99.503ZM113.897 87.4199C112.921 87.4199 112.14 87.0684 111.554 86.3652C111.038 85.7402 110.78 84.9551 110.78 84.0098C110.78 82.8848 111.14 81.9941 111.858 81.3379C112.405 80.8379 113.026 80.5879 113.722 80.5879C114.776 80.5879 115.522 81.0293 115.96 81.9121C116.194 82.4043 116.311 82.9824 116.311 83.6465C116.311 83.8574 116.296 84.0645 116.265 84.2676H111.87C111.917 85.1738 112.253 85.8262 112.878 86.2246C113.214 86.4434 113.6 86.5527 114.038 86.5527C114.624 86.5449 115.167 86.373 115.667 86.0371L116.065 86.752C115.378 87.1973 114.655 87.4199 113.897 87.4199ZM111.858 83.4824H115.35C115.35 82.3965 114.983 81.7441 114.249 81.5254C114.085 81.4785 113.913 81.4551 113.733 81.4551C113.116 81.4551 112.628 81.7285 112.268 82.2754C112.042 82.6191 111.905 83.0215 111.858 83.4824ZM118.577 87.2676V80.752H119.479L119.573 81.6895H119.608C120.319 80.9941 121.007 80.627 121.671 80.5879C121.717 80.5879 121.76 80.5879 121.8 80.5879C123.12 80.6035 123.784 81.4551 123.792 83.1426V87.2676H122.69V83.2832C122.69 82.3535 122.444 81.7988 121.952 81.6191C121.803 81.5723 121.639 81.5488 121.46 81.5488C120.991 81.5488 120.514 81.7637 120.03 82.1934C119.921 82.2949 119.8 82.4121 119.667 82.5449V87.2676H118.577ZM128.612 87.4199C127.534 87.4199 126.928 86.8848 126.795 85.8145C126.772 85.6348 126.76 85.4473 126.76 85.252V81.6426H125.788V80.8105L126.807 80.752L126.936 78.9238H127.85V80.752H129.608V81.6426H127.85V85.2754C127.85 85.9941 128.077 86.4043 128.53 86.5059C128.631 86.5293 128.741 86.541 128.858 86.541C129.053 86.541 129.299 86.4824 129.596 86.3652L129.819 87.1855C129.319 87.3418 128.917 87.4199 128.612 87.4199Z" fill="white"/>
<path d="M39.9204 44.4238V46.6738H24.2954V44.4238H39.9204ZM18.9517 42.4863L21.2329 43.3926C19.3579 45.9134 16.9933 48.2884 14.1392 50.5176C13.7642 50.8092 13.3996 51.0801 13.0454 51.3301C12.3579 50.3301 11.8892 49.6947 11.6392 49.4238C13.9725 47.8613 16.0558 46.0072 17.8892 43.8613C18.3058 43.3613 18.66 42.903 18.9517 42.4863ZM20.2642 49.2988L22.4829 50.1426C21.5454 51.6634 20.3683 53.2676 18.9517 54.9551V71.7988H16.6079V57.5801C15.2329 58.9759 14.0246 60.0905 12.9829 60.9238C12.3579 60.0697 11.8058 59.403 11.3267 58.9238C14.1808 56.8822 16.7329 54.3092 18.9829 51.2051C19.4621 50.5592 19.8892 49.9238 20.2642 49.2988ZM40.8579 53.1738V55.4551H36.0142V68.6738C36.0142 69.8822 35.6808 70.6738 35.0142 71.0488C34.8892 71.1113 34.7537 71.1738 34.6079 71.2363C33.7746 71.4863 31.7746 71.6113 28.6079 71.6113C28.5037 70.903 28.2433 70.1322 27.8267 69.2988C30.2642 69.3613 31.9308 69.3717 32.8267 69.3301C33.3058 69.1634 33.5662 68.9342 33.6079 68.6426V55.4551H22.9204V53.1738H40.8579ZM53.6604 57.8301H58.2854V55.7676H53.6604V52.3926H57.3167V50.3613H48.9104C50.3479 48.7155 51.65 46.8405 52.8167 44.7363C52.8792 44.7988 52.9625 44.8717 53.0667 44.9551C54.8375 46.6634 56.3687 48.4759 57.6604 50.3926L59.1917 48.4551C59.1292 48.3509 59.0458 48.2363 58.9417 48.1113C57.65 46.3822 55.8375 44.5176 53.5042 42.5176H51.3792C51.3375 42.6217 51.2854 42.7363 51.2229 42.8613C49.8896 45.9863 48.0042 48.6009 45.5667 50.7051C45.5875 50.7259 45.6187 50.7467 45.6604 50.7676C46.2021 51.1634 46.6708 51.653 47.0667 52.2363C47.525 51.8197 47.8687 51.4863 48.0979 51.2363V52.3926H51.5667V55.7676H46.4417V57.8301H51.5667V67.6113C50.3583 67.8405 48.5458 68.1634 46.1292 68.5801L46.6917 70.7363C50.5458 70.0072 54.6187 69.1738 58.9104 68.2363L58.7854 66.2363L53.6604 67.2051V57.8301ZM47.1604 60.0801C47.9104 62.3301 48.3375 64.3197 48.4417 66.0488L50.1917 65.5176C49.9833 63.5592 49.525 61.6113 48.8167 59.6738L47.1604 60.0801ZM56.2542 65.7051C56.6292 64.6634 57.2437 62.7155 58.0979 59.8613L56.2229 59.2988C55.9104 61.0488 55.4104 63.0176 54.7229 65.2051L56.2542 65.7051ZM74.6292 44.7363C74.3792 45.2572 74.1083 45.7988 73.8167 46.3613C73.525 46.903 73.2229 47.4447 72.9104 47.9863C72.6187 48.528 72.3167 49.0488 72.0042 49.5488C71.7125 50.028 71.4312 50.4655 71.1604 50.8613L69.5042 50.0488C69.775 49.6322 70.0562 49.1738 70.3479 48.6738C70.6396 48.153 70.9312 47.6217 71.2229 47.0801C71.5146 46.5176 71.7854 45.9655 72.0354 45.4238C72.2854 44.8613 72.5042 44.3405 72.6917 43.8613L74.6292 44.7363ZM62.2229 50.7988C62.0771 50.403 61.8896 49.9551 61.6604 49.4551C61.4521 48.9342 61.2125 48.403 60.9417 47.8613C60.6917 47.2988 60.4208 46.7363 60.1292 46.1738C59.8583 45.6113 59.5875 45.0905 59.3167 44.6113L61.0667 43.8301C61.3583 44.3301 61.65 44.8509 61.9417 45.3926C62.2333 45.9342 62.5146 46.4759 62.7854 47.0176C63.0562 47.5384 63.3062 48.0488 63.5354 48.5488C63.7854 49.028 63.9833 49.4551 64.1292 49.8301L62.2229 50.7988ZM71.2854 62.7363V59.3301H62.1292V62.7363H71.2854ZM62.1292 54.1113V57.4238H71.2854V54.1113H62.1292ZM73.6292 68.7676C73.6292 69.3717 73.5458 69.8405 73.3792 70.1738C73.2125 70.5072 72.9104 70.778 72.4729 70.9863C72.0562 71.1738 71.5146 71.2884 70.8479 71.3301C70.2021 71.3926 69.3479 71.4238 68.2854 71.4238C68.2229 71.1113 68.1083 70.7467 67.9417 70.3301C67.775 69.9134 67.6083 69.5488 67.4417 69.2363C68.1917 69.278 68.8792 69.2988 69.5042 69.2988C70.1292 69.2988 70.5458 69.2988 70.7542 69.2988C71.1083 69.278 71.2854 69.0905 71.2854 68.7363V64.7676H62.1292V71.6738H59.8167V52.0176H65.6604V42.4238H68.0042V52.0176H73.6292V68.7676ZM96.3067 46.0488V48.1113H81.1504V46.0488H87.5567V42.6113H89.8067V46.0488H96.3067ZM92.3692 54.5176L90.4629 54.0488C91.2546 52.0905 91.8483 50.2676 92.2442 48.5801L94.4942 49.1426C93.4108 52.0384 92.7025 53.8301 92.3692 54.5176ZM86.5567 53.9551L84.4942 54.4238C84.3067 52.7363 83.8379 51.0072 83.0879 49.2363L85.0879 48.8301C85.8587 50.4551 86.3483 52.1634 86.5567 53.9551ZM92.6504 61.8613H84.6504V67.7676H92.6504V61.8613ZM82.4629 71.7363V59.7676H94.9629V71.5488H92.6504V69.8301H84.6504V71.7363H82.4629ZM80.3067 56.9863V54.7988H96.7442V56.9863H80.3067ZM107.838 44.2676L109.557 45.3926C107.64 49.7467 106.161 52.9447 105.119 54.9863C107.765 57.4447 109.109 60.028 109.15 62.7363C109.13 64.7988 108.609 66.1842 107.588 66.8926C106.984 67.2884 106.286 67.528 105.494 67.6113C104.786 67.6947 103.859 67.7155 102.713 67.6738C102.671 66.7988 102.442 66.0072 102.025 65.2988C102.88 65.3822 103.723 65.403 104.557 65.3613C105.14 65.3197 105.598 65.2051 105.932 65.0176C106.515 64.6426 106.807 63.7988 106.807 62.4863C106.786 60.0697 105.411 57.6842 102.682 55.3301C103.744 53.1634 104.984 50.2572 106.4 46.6113H100.338V71.7051H98.0254V44.3613H107.432L107.838 44.2676Z" fill="white"/>
</svg>
