<svg width="638" height="341" viewBox="0 0 638 341" fill="none" xmlns="http://www.w3.org/2000/svg">
<rect width="637.79" height="340.16" fill="white"/>
<path d="M365.12 85.6602H355.6L320.48 141.98L285.36 85.6602H275.81V255.1H285.36L320.48 198.78L355.6 255.1H365.22L365.12 254.96V85.6602Z" fill="#77AEDE"/>
<path d="M275.81 85.6602H223.73L275.74 170.38L223.73 255.1H275.81V85.6602Z" fill="#94873A"/>
<path d="M417.23 85.6602H365.12V254.96L365.22 255.1L417.23 255.09L365.22 170.38L417.23 85.6602Z" fill="#6E9E38"/>
<path d="M491.48 85.6602H417.23L365.23 170.38L417.23 255.09V217.67H505.11C542.01 217.67 553.05 188.67 553.05 163.49V143.58C553.05 110.41 541.07 85.6602 491.48 85.6602ZM504.48 154.02C504.48 164.02 499.78 175.63 487.56 175.63H417.3V127.7H483.09C498.83 127.7 504.48 134.23 504.48 145.7V154.02Z" fill="#C4D700"/>
<path d="M275.74 170.38L223.73 85.6602H223.7V188.05L135.56 85.6602H83.4805V255.1L135.61 255.09L135.59 152.71L223.73 255.1L275.74 170.38Z" fill="#F9B900"/>
</svg>
