<svg id="Layer_1" data-name="Layer 1" xmlns="http://www.w3.org/2000/svg" viewBox="0 0 637.8 340.16"><defs><style>.cls-1{fill:#77aede;}.cls-2{fill:#94873a;}.cls-3{fill:#6e9e38;}.cls-4{fill:#c4d700;}.cls-5{fill:#f9b900;}.cls-6{fill:none;}</style></defs><title>NXP_logo_CMYK(彩色)</title><polygon class="cls-1" points="365.12 85.66 355.6 85.66 320.48 141.98 285.36 85.66 275.81 85.66 275.81 255.1 285.36 255.1 320.48 198.78 355.6 255.1 365.22 255.1 365.12 254.96 365.12 85.66"/><polygon class="cls-2" points="275.81 85.66 223.73 85.66 275.74 170.38 223.73 255.1 275.81 255.1 275.81 85.66"/><polygon class="cls-3" points="417.23 85.66 365.12 85.66 365.12 254.96 365.22 255.1 417.23 255.09 365.22 170.38 417.23 85.66"/><path class="cls-4" d="M491.48,85.66H417.23l-52,84.72,52,84.71h0l0-37.42h87.88c36.9,0,47.94-29,47.94-54.18V143.58C553.05,110.41,541.07,85.66,491.48,85.66Zm13,68.36c0,10-4.7,21.61-16.92,21.61H417.3V127.7h65.79c15.74,0,21.39,6.53,21.39,18Z"/><polygon class="cls-5" points="275.74 170.38 223.73 85.66 223.7 85.66 223.7 188.05 135.56 85.66 83.48 85.66 83.48 255.1 135.61 255.09 135.59 152.71 223.73 255.1 275.74 170.38"/><rect class="cls-6" width="637.79" height="340.16"/></svg>