<svg width="146" height="115" viewBox="0 0 146 115" fill="none" xmlns="http://www.w3.org/2000/svg">
<path d="M49.6978 20.4306C80.2816 -0.510838 114.24 -5.40671 128.44 10.0737C143.878 26.9047 130.119 61.4548 97.6906 87.2041" stroke="white" stroke-width="2" stroke-miterlimit="10"/>
<path d="M53.5373 24.6799C52.2822 25.5626 50.7022 25.9455 49.1441 25.7446C47.586 25.5437 46.1772 24.7753 45.2271 23.6083C44.2793 22.441 43.8682 20.9711 44.084 19.5218C44.2999 18.0725 45.1251 16.7623 46.3782 15.8791C46.9986 15.4413 47.7057 15.1217 48.459 14.9386C49.2123 14.7555 49.997 14.7125 50.7681 14.812C51.5393 14.9115 52.2818 15.1517 52.9531 15.5187C53.6244 15.8857 54.2114 16.3723 54.6805 16.9507C55.1512 17.5279 55.495 18.1858 55.6923 18.8868C55.8896 19.5878 55.9365 20.3181 55.8303 21.036C55.7241 21.7539 55.4671 22.4452 55.0736 23.0705C54.6801 23.6957 54.158 24.2427 53.5373 24.6799Z" fill="white"/>
<path d="M78.7127 99.8724C51.3694 114.861 23.5608 117.019 11.0639 103.396C6.66439 98.6026 4.63808 92.3855 4.75635 85.3242" stroke="white" stroke-width="2" stroke-miterlimit="10"/>
<path d="M75.3379 95.2998C76.6782 94.5352 78.2892 94.296 79.8185 94.6344C81.3478 94.9728 82.6709 95.8613 83.4984 97.1055C84.3217 98.3527 84.5798 99.8531 84.2162 101.277C83.8526 102.702 82.8969 103.934 81.5588 104.703C80.2191 105.469 78.6073 105.709 77.0774 105.371C75.5475 105.032 74.2244 104.143 73.3983 102.897C72.5771 101.649 72.3201 100.149 72.6836 98.7256C73.0471 97.3019 74.0014 96.0701 75.3379 95.2998Z" fill="white"/>
<path opacity="0.1" d="M93.9299 98.5381C65.1043 115.986 34.7253 119.252 21.4952 104.829C6.05737 87.9977 19.8158 53.4475 52.2446 27.6909C84.6734 1.93429 123.449 -5.33982 138.887 11.5058C154.325 28.3515 140.567 62.887 108.138 88.6362" stroke="white" stroke-miterlimit="10"/>
<path d="M1.39453 37V26.7324H4.32031C6.83594 26.7324 8.12109 27.694 8.17578 29.6172C8.17578 29.6628 8.17578 29.7083 8.17578 29.7539C8.17578 31.2305 7.51497 32.1966 6.19336 32.6523C5.67383 32.8346 5.07682 32.9258 4.40234 32.9258H2.70703V37H1.39453ZM2.70703 31.873H4.22461C5.70117 31.873 6.5625 31.4036 6.80859 30.4648C6.86328 30.2552 6.89062 30.0182 6.89062 29.7539C6.89062 28.8151 6.48958 28.2181 5.6875 27.9629C5.29557 27.8444 4.78971 27.7852 4.16992 27.7852H2.70703V31.873ZM13.1157 37.1777C11.5845 37.1595 10.8143 36.1706 10.8052 34.2109V29.3984H12.0766V34.0605C12.0766 35.1452 12.3683 35.7878 12.9516 35.9883C13.1157 36.043 13.3026 36.0703 13.5122 36.0703C14.0955 36.0703 14.6424 35.806 15.1528 35.2773C15.2804 35.1315 15.4171 34.9674 15.563 34.7852V29.3984H16.8345V37H15.7817L15.6723 35.8105H15.6313C14.9022 36.6491 14.1411 37.1003 13.3481 37.1641C13.2661 37.1732 13.1886 37.1777 13.1157 37.1777ZM23.5107 37.1777C22.7542 37.1686 22.0296 36.8496 21.3369 36.2207H21.2959L21.1865 37H20.1611V25.8574H21.4326V28.9062L21.3916 30.2734C22.2028 29.5716 22.9957 29.2161 23.7705 29.207C25.0009 29.207 25.8714 29.7539 26.3818 30.8477C26.6735 31.4674 26.8193 32.2057 26.8193 33.0625C26.8193 34.5208 26.3864 35.6328 25.5205 36.3984C24.9371 36.918 24.2672 37.1777 23.5107 37.1777ZM23.3056 36.1113C24.0804 36.1113 24.6683 35.7331 25.0693 34.9766C25.3427 34.457 25.4795 33.8281 25.4795 33.0898C25.4612 31.2214 24.7959 30.2826 23.4834 30.2734C22.8545 30.2826 22.1709 30.6335 21.4326 31.3262V35.3184C22.0341 35.847 22.6585 36.1113 23.3056 36.1113ZM30.9252 37.1777C30.032 37.1595 29.5808 36.5944 29.5717 35.4824V25.8574H30.8432V35.5781C30.8523 35.9245 30.9754 36.1022 31.2123 36.1113C31.3035 36.1113 31.3901 36.1022 31.4721 36.084L31.6635 37.0684C31.463 37.1413 31.2169 37.1777 30.9252 37.1777ZM34.3202 37V29.3984H35.5917V37H34.3202ZM34.9628 27.8262C34.5618 27.8262 34.2929 27.6621 34.1562 27.334C34.1106 27.2246 34.0878 27.1152 34.0878 27.0059C34.0878 26.5957 34.2747 26.3314 34.6484 26.2129C34.7577 26.1855 34.8626 26.1719 34.9628 26.1719C35.3821 26.1719 35.6601 26.3405 35.7968 26.6777C35.8333 26.7871 35.8515 26.8965 35.8515 27.0059C35.8515 27.3704 35.6783 27.6211 35.332 27.7578C35.2135 27.8034 35.0904 27.8262 34.9628 27.8262ZM41.9262 37.1777C40.7686 37.1777 39.8572 36.7539 39.1918 35.9062C38.6358 35.1862 38.3578 34.2839 38.3578 33.1992C38.3578 31.832 38.8135 30.7702 39.725 30.0137C40.3904 29.4759 41.1605 29.207 42.0355 29.207C42.8376 29.2161 43.5759 29.5124 44.2504 30.0957L43.5941 30.957C43.0746 30.4922 42.5687 30.2598 42.0766 30.2598C41.2745 30.2598 40.6456 30.6152 40.1898 31.3262C39.8617 31.8548 39.6977 32.4792 39.6977 33.1992C39.6977 34.3112 40.0349 35.1315 40.7094 35.6602C41.0922 35.9609 41.5388 36.1113 42.0492 36.1113C42.6964 36.1022 43.2934 35.8516 43.8402 35.3594L44.3871 36.2207C43.6853 36.8587 42.865 37.1777 41.9262 37.1777ZM50.7259 37V29.3984H51.7787L51.888 30.7793H51.9291C52.4304 29.877 53.0502 29.362 53.7884 29.2344C53.8887 29.2161 53.989 29.207 54.0892 29.207C54.4265 29.207 54.6953 29.2617 54.8959 29.3711L54.6634 30.4922C54.4447 30.4102 54.1986 30.3691 53.9252 30.3691C53.3054 30.3691 52.7722 30.7292 52.3255 31.4492C52.2071 31.6497 52.0977 31.873 51.9974 32.1191V37H50.7259ZM59.9862 37.1777C58.8468 37.1777 57.9354 36.7676 57.2518 35.9473C56.6502 35.2181 56.3495 34.3021 56.3495 33.1992C56.3495 31.8867 56.7687 30.8477 57.6073 30.082C58.2453 29.4987 58.9699 29.207 59.7811 29.207C61.0116 29.207 61.882 29.722 62.3924 30.752C62.6659 31.3262 62.8026 32.0007 62.8026 32.7754C62.8026 33.0215 62.7843 33.263 62.7479 33.5H57.6209C57.6756 34.5573 58.0676 35.3184 58.7967 35.7832C59.1886 36.0384 59.6398 36.166 60.1502 36.166C60.8338 36.1569 61.4673 35.9564 62.0506 35.5645L62.5155 36.3984C61.7134 36.918 60.8703 37.1777 59.9862 37.1777ZM57.6073 32.584H61.6815C61.6815 31.3171 61.2531 30.556 60.3963 30.3008C60.2049 30.2461 60.0044 30.2188 59.7948 30.2188C59.0747 30.2188 58.5051 30.5378 58.0858 31.1758C57.8215 31.5768 57.662 32.0462 57.6073 32.584ZM66.7991 37.1777C65.9059 37.1595 65.4547 36.5944 65.4456 35.4824V25.8574H66.7171V35.5781C66.7262 35.9245 66.8493 36.1022 67.0863 36.1113C67.1774 36.1113 67.264 36.1022 67.346 36.084L67.5374 37.0684C67.3369 37.1413 67.0908 37.1777 66.7991 37.1777ZM71.9441 37.1777C71.0691 37.1777 70.4357 36.8678 70.0437 36.248C69.825 35.8926 69.7156 35.487 69.7156 35.0312C69.7156 34.0195 70.3035 33.2812 71.4793 32.8164C72.1902 32.5339 73.1609 32.3242 74.3914 32.1875C74.3732 30.9115 73.8536 30.2689 72.8328 30.2598C72.1128 30.2689 71.3517 30.5423 70.5496 31.0801L70.0437 30.1914C71.0646 29.5352 72.0626 29.207 73.0379 29.207C74.4598 29.207 75.3074 29.9089 75.5809 31.3125C75.6447 31.6224 75.6766 31.9596 75.6766 32.3242V37H74.6238L74.5145 36.084H74.4734C73.5893 36.8132 72.7462 37.1777 71.9441 37.1777ZM72.3133 36.166C72.9148 36.166 73.5574 35.8698 74.241 35.2773C74.2957 35.2318 74.3458 35.1908 74.3914 35.1543V33.0215C72.532 33.2493 71.4383 33.6868 71.1102 34.334C71.019 34.5163 70.9734 34.7168 70.9734 34.9355C70.9734 35.6009 71.2879 35.9974 71.9168 36.125C72.0444 36.1523 72.1766 36.166 72.3133 36.166ZM81.2454 37.1777C79.9876 37.1777 79.2812 36.5534 79.1263 35.3047C79.0989 35.0951 79.0852 34.8763 79.0852 34.6484V30.4375H77.9505V29.4668L79.1399 29.3984L79.2903 27.2656H80.3567V29.3984H82.4075V30.4375H80.3567V34.6758C80.3567 35.5143 80.621 35.9928 81.1497 36.1113C81.2682 36.1387 81.3958 36.1523 81.5325 36.1523C81.7604 36.1523 82.0475 36.084 82.3938 35.9473L82.6536 36.9043C82.0703 37.0866 81.6009 37.1777 81.2454 37.1777ZM84.9002 37V29.3984H86.1716V37H84.9002ZM85.5427 27.8262C85.1417 27.8262 84.8728 27.6621 84.7361 27.334C84.6905 27.2246 84.6677 27.1152 84.6677 27.0059C84.6677 26.5957 84.8546 26.3314 85.2283 26.2129C85.3377 26.1855 85.4425 26.1719 85.5427 26.1719C85.962 26.1719 86.24 26.3405 86.3767 26.6777C86.4132 26.7871 86.4314 26.8965 86.4314 27.0059C86.4314 27.3704 86.2582 27.6211 85.9119 27.7578C85.7934 27.8034 85.6703 27.8262 85.5427 27.8262ZM92.4651 37.1777C91.4442 37.1777 90.5966 36.7995 89.9221 36.043C89.2659 35.2956 88.9377 34.3477 88.9377 33.1992C88.9377 31.8138 89.3844 30.7428 90.2776 29.9863C90.9156 29.4668 91.6448 29.207 92.4651 29.207C93.495 29.207 94.3472 29.5898 95.0217 30.3555C95.6689 31.1029 95.9924 32.0508 95.9924 33.1992C95.9924 34.5755 95.5458 35.6374 94.6526 36.3848C94.0237 36.9134 93.2945 37.1777 92.4651 37.1777ZM92.4651 36.1113C93.2672 36.1113 93.8733 35.7331 94.2834 34.9766C94.5478 34.4753 94.6799 33.8828 94.6799 33.1992C94.6799 32.0781 94.3609 31.2487 93.7229 30.7109C93.3583 30.4102 92.939 30.2598 92.4651 30.2598C91.6721 30.2598 91.0751 30.6426 90.6741 31.4082C90.4097 31.9095 90.2776 32.5065 90.2776 33.1992C90.2776 34.3568 90.6057 35.1908 91.262 35.7012C91.6083 35.9746 92.0094 36.1113 92.4651 36.1113ZM98.7585 37V29.3984H99.8112L99.9206 30.4922H99.9616C100.791 29.681 101.593 29.2526 102.368 29.207C102.423 29.207 102.473 29.207 102.518 29.207C104.059 29.2253 104.833 30.2188 104.842 32.1875V37H103.557V32.3516C103.557 31.2669 103.27 30.6198 102.696 30.4102C102.523 30.3555 102.331 30.3281 102.122 30.3281C101.575 30.3281 101.019 30.5788 100.454 31.0801C100.326 31.1986 100.185 31.3353 100.03 31.4902V37H98.7585ZM110.07 37.1777C109.049 37.1777 108.128 36.8542 107.308 36.207C107.28 36.1797 107.253 36.1569 107.226 36.1387L107.855 35.291C108.602 35.8926 109.354 36.1934 110.111 36.1934C110.867 36.1934 111.341 35.9336 111.532 35.4141C111.578 35.2773 111.601 35.1406 111.601 35.0039C111.601 34.5482 111.245 34.1562 110.534 33.8281C110.379 33.7643 110.156 33.6732 109.864 33.5547C108.917 33.1992 108.283 32.8255 107.964 32.4336C107.718 32.1146 107.595 31.7546 107.595 31.3535C107.595 30.5879 107.928 30.0046 108.593 29.6035C109.049 29.3392 109.591 29.207 110.22 29.207C111.068 29.2161 111.856 29.4987 112.585 30.0547L111.97 30.8887C111.35 30.4329 110.767 30.2051 110.22 30.2051C109.491 30.2051 109.049 30.4557 108.894 30.957C108.857 31.0755 108.839 31.1895 108.839 31.2988C108.839 31.6908 109.122 32.0189 109.687 32.2832C109.814 32.3379 110.088 32.4473 110.507 32.6113C111.346 32.9303 111.911 33.222 112.202 33.4863C112.622 33.8691 112.831 34.3477 112.831 34.9219C112.831 35.7148 112.494 36.321 111.82 36.7402C111.336 37.0319 110.753 37.1777 110.07 37.1777Z" fill="white"/>
<path d="M60.3281 87.4199C59.3203 87.4199 58.5781 86.9902 58.1016 86.1309C57.7891 85.5527 57.6328 84.8457 57.6328 84.0098C57.6328 82.8613 57.9844 81.959 58.6875 81.3027C59.2031 80.8262 59.793 80.5879 60.457 80.5879C61.0273 80.5879 61.5703 80.7871 62.0859 81.1855C62.1562 81.2402 62.2266 81.2949 62.2969 81.3496L62.2266 80.2246V77.7168H63.3281V87.2676H62.4375L62.332 86.4941H62.3086C61.6758 87.1035 61.0156 87.4121 60.3281 87.4199ZM60.5625 86.5059C61.1406 86.498 61.6953 86.2012 62.2266 85.6152V82.1934C61.7031 81.7324 61.1758 81.502 60.6445 81.502C60.0273 81.502 59.5391 81.7949 59.1797 82.3809C58.9062 82.834 58.7695 83.373 58.7695 83.998C58.7695 85.2012 59.1094 85.9785 59.7891 86.3301C60.0234 86.4473 60.2812 86.5059 60.5625 86.5059ZM68.8162 87.4199C67.8397 87.4199 67.0584 87.0684 66.4725 86.3652C65.9569 85.7402 65.6991 84.9551 65.6991 84.0098C65.6991 82.8848 66.0584 81.9941 66.7772 81.3379C67.3241 80.8379 67.9452 80.5879 68.6405 80.5879C69.6952 80.5879 70.4412 81.0293 70.8787 81.9121C71.1131 82.4043 71.2303 82.9824 71.2303 83.6465C71.2303 83.8574 71.2147 84.0645 71.1834 84.2676H66.7889C66.8358 85.1738 67.1717 85.8262 67.7967 86.2246C68.1327 86.4434 68.5194 86.5527 68.9569 86.5527C69.5428 86.5449 70.0858 86.373 70.5858 86.0371L70.9842 86.752C70.2967 87.1973 69.5741 87.4199 68.8162 87.4199ZM66.7772 83.4824H70.2694C70.2694 82.3965 69.9022 81.7441 69.1678 81.5254C69.0037 81.4785 68.8319 81.4551 68.6522 81.4551C68.035 81.4551 67.5467 81.7285 67.1873 82.2754C66.9608 82.6191 66.8241 83.0215 66.7772 83.4824ZM73.4958 90.0098V80.752H74.3981L74.4919 81.4902H74.527C75.2614 80.8965 75.9528 80.5957 76.6012 80.5879C77.6481 80.5879 78.3903 81.0566 78.8278 81.9941C79.0778 82.5176 79.2028 83.1543 79.2028 83.9043C79.2028 85.1465 78.8317 86.0957 78.0895 86.752C77.5895 87.1973 77.0153 87.4199 76.3669 87.4199C75.7731 87.4121 75.1716 87.1621 74.5622 86.6699L74.5856 87.8066V90.0098H73.4958ZM76.1911 86.5059C76.8552 86.5059 77.3591 86.1816 77.7028 85.5332C77.9372 85.0879 78.0544 84.5488 78.0544 83.916C78.0387 82.3145 77.4684 81.5098 76.3434 81.502C75.8122 81.5098 75.2262 81.8105 74.5856 82.4043V85.8262C75.1169 86.2793 75.652 86.5059 76.1911 86.5059ZM83.0855 87.4199C82.3355 87.4199 81.7925 87.1543 81.4566 86.623C81.2691 86.3184 81.1753 85.9707 81.1753 85.5801C81.1753 84.7129 81.6792 84.0801 82.687 83.6816C83.2964 83.4395 84.1284 83.2598 85.1831 83.1426C85.1675 82.0488 84.7222 81.498 83.8472 81.4902C83.23 81.498 82.5777 81.7324 81.8902 82.1934L81.4566 81.4316C82.3316 80.8691 83.187 80.5879 84.023 80.5879C85.2417 80.5879 85.9683 81.1895 86.2027 82.3926C86.2573 82.6582 86.2847 82.9473 86.2847 83.2598V87.2676H85.3823L85.2886 86.4824H85.2534C84.4956 87.1074 83.773 87.4199 83.0855 87.4199ZM83.4019 86.5527C83.9175 86.5527 84.4683 86.2988 85.0542 85.791C85.1011 85.752 85.1441 85.7168 85.1831 85.6855V83.8574C83.5894 84.0527 82.6519 84.4277 82.3706 84.9824C82.2925 85.1387 82.2534 85.3105 82.2534 85.498C82.2534 86.0684 82.523 86.4082 83.062 86.5176C83.1714 86.541 83.2847 86.5527 83.4019 86.5527ZM89.0072 87.2676V80.752H89.9095L90.0033 81.9355H90.0384C90.4681 81.1621 90.9994 80.7207 91.6322 80.6113C91.7181 80.5957 91.8041 80.5879 91.89 80.5879C92.1791 80.5879 92.4095 80.6348 92.5814 80.7285L92.3822 81.6895C92.1947 81.6191 91.9837 81.584 91.7494 81.584C91.2181 81.584 90.7611 81.8926 90.3783 82.5098C90.2767 82.6816 90.183 82.873 90.097 83.084V87.2676H89.0072ZM96.3703 87.4199C95.2922 87.4199 94.6867 86.8848 94.5539 85.8145C94.5305 85.6348 94.5187 85.4473 94.5187 85.252V81.6426H93.5461V80.8105L94.5656 80.752L94.6945 78.9238H95.6086V80.752H97.3664V81.6426H95.6086V85.2754C95.6086 85.9941 95.8352 86.4043 96.2883 86.5059C96.3898 86.5293 96.4992 86.541 96.6164 86.541C96.8117 86.541 97.0578 86.4824 97.3547 86.3652L97.5773 87.1855C97.0773 87.3418 96.675 87.4199 96.3703 87.4199ZM99.503 87.2676V80.752H100.405L100.499 81.7012H100.534C101.214 80.9668 101.89 80.5957 102.562 80.5879C103.476 80.5957 104.077 81.0098 104.366 81.8301C105.132 81.0098 105.847 80.5957 106.511 80.5879C107.823 80.6035 108.483 81.4551 108.491 83.1426V87.2676H107.401V83.2832C107.401 82.3066 107.132 81.7441 106.593 81.5957C106.468 81.5645 106.335 81.5488 106.194 81.5488C105.694 81.5566 105.144 81.8887 104.542 82.5449V87.2676H103.452V83.2832C103.452 82.3066 103.183 81.7441 102.644 81.5957C102.519 81.5645 102.386 81.5488 102.245 81.5488C101.73 81.5566 101.179 81.8887 100.593 82.5449V87.2676H99.503ZM113.897 87.4199C112.921 87.4199 112.14 87.0684 111.554 86.3652C111.038 85.7402 110.78 84.9551 110.78 84.0098C110.78 82.8848 111.14 81.9941 111.858 81.3379C112.405 80.8379 113.026 80.5879 113.722 80.5879C114.776 80.5879 115.522 81.0293 115.96 81.9121C116.194 82.4043 116.311 82.9824 116.311 83.6465C116.311 83.8574 116.296 84.0645 116.265 84.2676H111.87C111.917 85.1738 112.253 85.8262 112.878 86.2246C113.214 86.4434 113.6 86.5527 114.038 86.5527C114.624 86.5449 115.167 86.373 115.667 86.0371L116.065 86.752C115.378 87.1973 114.655 87.4199 113.897 87.4199ZM111.858 83.4824H115.35C115.35 82.3965 114.983 81.7441 114.249 81.5254C114.085 81.4785 113.913 81.4551 113.733 81.4551C113.116 81.4551 112.628 81.7285 112.268 82.2754C112.042 82.6191 111.905 83.0215 111.858 83.4824ZM118.577 87.2676V80.752H119.479L119.573 81.6895H119.608C120.319 80.9941 121.007 80.627 121.671 80.5879C121.717 80.5879 121.76 80.5879 121.8 80.5879C123.12 80.6035 123.784 81.4551 123.792 83.1426V87.2676H122.69V83.2832C122.69 82.3535 122.444 81.7988 121.952 81.6191C121.803 81.5723 121.639 81.5488 121.46 81.5488C120.991 81.5488 120.514 81.7637 120.03 82.1934C119.921 82.2949 119.8 82.4121 119.667 82.5449V87.2676H118.577ZM128.612 87.4199C127.534 87.4199 126.928 86.8848 126.795 85.8145C126.772 85.6348 126.76 85.4473 126.76 85.252V81.6426H125.788V80.8105L126.807 80.752L126.936 78.9238H127.85V80.752H129.608V81.6426H127.85V85.2754C127.85 85.9941 128.077 86.4043 128.53 86.5059C128.631 86.5293 128.741 86.541 128.858 86.541C129.053 86.541 129.299 86.4824 129.596 86.3652L129.819 87.1855C129.319 87.3418 128.917 87.4199 128.612 87.4199Z" fill="white"/>
<path d="M21.0142 43.8926H32.7329C34.1079 47.2884 36.0871 50.3822 38.6704 53.1738C39.5662 54.1322 40.4517 54.9447 41.3267 55.6113C40.5558 56.0488 39.8579 56.6113 39.2329 57.2988C36.6496 55.1322 34.2746 52.1113 32.1079 48.2363C31.7329 47.5697 31.3892 46.903 31.0767 46.2363H21.0142V43.8926ZM18.8579 47.1738L21.4204 47.9238C19.8371 51.2155 17.7642 54.0697 15.2017 56.4863C14.6808 56.9655 14.1808 57.3926 13.7017 57.7676C12.9517 57.0176 12.3267 56.4759 11.8267 56.1426C14.0558 54.4759 16.0037 52.2572 17.6704 49.4863C18.1496 48.6738 18.5454 47.903 18.8579 47.1738ZM30.2954 61.0176L32.4829 59.9863C35.3162 63.153 37.6808 66.2884 39.5767 69.3926C39.8475 69.8301 40.0871 70.2363 40.2954 70.6113L38.0142 71.8926C37.7433 71.3301 37.2433 70.4551 36.5142 69.2676C24.7433 69.8509 17.16 70.2155 13.7642 70.3613L13.4517 67.8926C14.1392 67.8717 15.6392 67.8197 17.9517 67.7363C20.0142 64.0072 21.8996 59.7155 23.6079 54.8613C23.7537 54.4655 23.8787 54.1009 23.9829 53.7676L26.7017 54.4551C24.5767 59.6426 22.5454 64.0384 20.6079 67.6426C21.1912 67.6217 25.9725 67.4134 34.9517 67.0176C33.4933 64.8926 31.9412 62.8926 30.2954 61.0176ZM59.5042 65.5176C59.5042 67.4342 58.9625 68.8926 57.8792 69.8926C57.15 70.5176 56.1812 71.0488 54.9729 71.4863C54.6396 70.9447 54.2437 70.4863 53.7854 70.1113C55.6396 69.5488 56.8375 68.7259 57.3792 67.6426H53.0979V63.1426H54.7542V66.1426H57.7542C57.775 65.9759 57.7854 65.7572 57.7854 65.4863V62.6738H59.2854C59.1812 62.2988 59.0771 61.9967 58.9729 61.7676C56.6396 61.9342 54.3375 62.0905 52.0667 62.2363L51.8479 60.7363L53.8792 60.6426C54.1917 60.3509 54.65 59.8822 55.2542 59.2363C54.3792 58.1113 53.3792 57.153 52.2542 56.3613L53.2229 55.4238C53.5771 55.653 53.8792 55.8717 54.1292 56.0801C54.9208 55.0176 55.4937 54.1947 55.8479 53.6113H49.7854V71.7363H47.5042V43.8613H59.1604V53.6113H56.7229L57.5667 53.9863C56.5042 55.3405 55.6812 56.3301 55.0979 56.9551C55.4312 57.2467 55.8167 57.653 56.2542 58.1738C57.1083 57.1738 57.7958 56.2988 58.3167 55.5488L59.7229 56.1738C58.2229 57.9447 56.8687 59.3926 55.6604 60.5176L58.2854 60.3926C57.9729 59.8301 57.7021 59.403 57.4729 59.1113L58.7542 58.7051C59.7125 59.8717 60.3375 61.0176 60.6292 62.1426L59.2854 62.6738H59.5042V65.5176ZM71.0979 69.2988C71.4312 69.2572 71.6083 69.0697 71.6292 68.7363V53.6113H64.8479L65.5354 53.8926C64.5146 55.2051 63.6604 56.2363 62.9729 56.9863C63.3687 57.3613 63.7437 57.7572 64.0979 58.1738C64.9312 57.2988 65.6396 56.4551 66.2229 55.6426L67.6604 56.2676C66.0771 57.9967 64.6604 59.4238 63.4104 60.5488C63.8271 60.528 64.4625 60.4967 65.3167 60.4551C66.0667 60.4342 66.6292 60.4134 67.0042 60.3926C66.8375 60.1009 66.5146 59.6217 66.0354 58.9551L67.3792 58.5176C68.5042 59.9134 69.2125 61.1634 69.5042 62.2676L68.1292 62.7988C68.025 62.4655 67.8792 62.1113 67.6917 61.7363C66.775 61.7988 65.4417 61.8926 63.6917 62.0176C62.3375 62.1217 61.3479 62.1947 60.7229 62.2363L60.3792 60.7363L61.5354 60.6738C61.8687 60.3822 62.3687 59.903 63.0354 59.2363C62.2854 58.2363 61.275 57.2572 60.0042 56.2988L61.0042 55.4238C61.6083 55.8405 61.9312 56.0697 61.9729 56.1113C62.9104 54.8405 63.4937 54.0072 63.7229 53.6113H62.0042V43.8613H73.9417V68.7363C73.9417 69.9238 73.6396 70.6947 73.0354 71.0488C72.9521 71.0905 72.8792 71.1322 72.8167 71.1738C72.0875 71.4863 70.7021 71.6426 68.6604 71.6426C68.4521 70.6009 68.1917 69.8092 67.8792 69.2676C69.4 69.3301 70.4729 69.3405 71.0979 69.2988ZM63.3167 67.6426V71.1113H61.5667V62.6738H63.3167V66.1426H66.4104V63.1426H68.0667V67.6426H63.3167ZM71.6292 45.5801H64.2854V47.9551H71.6292V45.5801ZM71.6292 49.5488H64.2854V51.8613H71.6292V49.5488ZM49.7854 47.9551H56.9104V45.5801H49.7854V47.9551ZM49.7854 51.8613H56.9104V49.5488H49.7854V51.8613ZM96.3067 46.0488V48.1113H81.1504V46.0488H87.5567V42.6113H89.8067V46.0488H96.3067ZM92.3692 54.5176L90.4629 54.0488C91.2546 52.0905 91.8483 50.2676 92.2442 48.5801L94.4942 49.1426C93.4108 52.0384 92.7025 53.8301 92.3692 54.5176ZM86.5567 53.9551L84.4942 54.4238C84.3067 52.7363 83.8379 51.0072 83.0879 49.2363L85.0879 48.8301C85.8587 50.4551 86.3483 52.1634 86.5567 53.9551ZM92.6504 61.8613H84.6504V67.7676H92.6504V61.8613ZM82.4629 71.7363V59.7676H94.9629V71.5488H92.6504V69.8301H84.6504V71.7363H82.4629ZM80.3067 56.9863V54.7988H96.7442V56.9863H80.3067ZM107.838 44.2676L109.557 45.3926C107.64 49.7467 106.161 52.9447 105.119 54.9863C107.765 57.4447 109.109 60.028 109.15 62.7363C109.13 64.7988 108.609 66.1842 107.588 66.8926C106.984 67.2884 106.286 67.528 105.494 67.6113C104.786 67.6947 103.859 67.7155 102.713 67.6738C102.671 66.7988 102.442 66.0072 102.025 65.2988C102.88 65.3822 103.723 65.403 104.557 65.3613C105.14 65.3197 105.598 65.2051 105.932 65.0176C106.515 64.6426 106.807 63.7988 106.807 62.4863C106.786 60.0697 105.411 57.6842 102.682 55.3301C103.744 53.1634 104.984 50.2572 106.4 46.6113H100.338V71.7051H98.0254V44.3613H107.432L107.838 44.2676Z" fill="white"/>
</svg>
