<svg width="379" height="487" viewBox="0 0 379 487" fill="none" xmlns="http://www.w3.org/2000/svg">
<path fill-rule="evenodd" clip-rule="evenodd" d="M378.228 437.281V53.8085V53.6683L378.155 53.5486L375.728 49.5603V51.4841L377.228 53.9486V438.913L378.228 437.281ZM348.747 485.378L348.134 486.378H32.633H32.353L32.2067 486.139L30.8206 483.878H31.9936L32.913 485.378H348.747ZM346.228 3H347.398L346.023 0.7401L345.877 0.5H345.596H31.0949L30.4865 1.5H345.315L346.228 3ZM1.49951 49.1398V434.128L2.99997 436.576V438.49L0.573242 434.531L0.499512 434.41V434.269V50.7833L1.49951 49.1398Z" fill="url(#paint0_linear_1393_1033)"/>
<defs>
<linearGradient id="paint0_linear_1393_1033" x1="0.499512" y1="0.5" x2="537.524" y2="406.768" gradientUnits="userSpaceOnUse">
<stop stop-color="#ABF0EA"/>
<stop offset="1" stop-color="#4F9ACD"/>
</linearGradient>
</defs>
</svg>
