<svg width="321" height="300" viewBox="0 0 321 300" fill="none" xmlns="http://www.w3.org/2000/svg">
<path d="M115.4 249.18C115.32 249.86 115.12 250.9 114.94 251.6L116.1 251.76C116.34 251.14 116.6 250.22 116.88 249.34L115.4 249.18ZM114.48 254.68H117.7V256.34H114.48V254.68ZM114.48 252H117.7V253.64H114.48V252ZM113.26 250.88V257.46H118.96V250.88H113.26ZM115.42 257.44V259.82H116.76V257.44H115.42ZM112.94 259.18V260.4H119.48V259.18H112.94ZM115.02 261.8L114.8 262.94H118.38V261.8H115.02ZM117.7 261.8V262C117.52 264.92 117.32 266.02 117.08 266.3C116.94 266.46 116.78 266.48 116.56 266.48C116.32 266.48 115.78 266.46 115.16 266.42C115.34 266.72 115.46 267.2 115.48 267.56C116.14 267.6 116.78 267.58 117.12 267.56C117.56 267.52 117.84 267.42 118.1 267.12C118.52 266.66 118.72 265.44 118.94 262.36C118.96 262.16 118.98 261.8 118.98 261.8H117.7ZM114.64 259.98C114.54 263.3 114.18 265.46 112.08 266.68C112.38 266.9 112.76 267.34 112.9 267.64C115.3 266.2 115.78 263.72 115.92 259.98H114.64ZM120.76 249.22C120.42 252.58 119.8 255.82 118.52 257.9C118.82 258.12 119.32 258.62 119.52 258.86C120.9 256.54 121.64 253.08 122.06 249.38L120.76 249.22ZM120.84 253.34L120.44 254.72H125.26V253.34H120.84ZM120.98 254.74L119.96 254.9C120.62 260.32 121.88 265.06 124.48 267.56C124.72 267.16 125.18 266.68 125.5 266.42C122.94 264.26 121.62 259.76 120.98 254.74ZM123.34 253.72C122.84 259.58 121.48 264.4 118.44 266.56C118.8 266.82 119.24 267.3 119.46 267.62C122.5 265.24 123.92 260.16 124.46 254.24L123.34 253.72ZM109.64 249.26C109.2 250.56 108.36 252.44 107.7 253.56L108.66 254C109.36 252.92 110.22 251.16 110.88 249.74L109.64 249.26ZM111.64 251.6C110.7 253.74 109 256.72 107.66 258.46L108.62 258.94C109.96 257.2 111.66 254.38 112.84 252.12L111.64 251.6ZM106.7 253.42C107.74 254.38 108.92 255.78 109.42 256.72L110.22 255.62C109.72 254.74 108.5 253.42 107.46 252.48L106.7 253.42ZM110.96 256.22C111.56 257.5 112.1 259.16 112.22 260.22L113.36 259.76C113.22 258.74 112.64 257.1 112.02 255.84L110.96 256.22ZM106.7 258.18L106.78 259.5C108.42 259.4 110.44 259.3 112.54 259.16L112.56 257.98C110.36 258.08 108.22 258.14 106.7 258.18ZM111.1 260.92C111.54 262.12 112 263.74 112.14 264.76L113.22 264.4C113.08 263.38 112.62 261.8 112.12 260.6L111.1 260.92ZM107.66 260.66C107.46 262.4 107.14 264.2 106.56 265.44C106.88 265.54 107.42 265.78 107.66 265.94C108.2 264.66 108.62 262.72 108.84 260.88L107.66 260.66ZM109.48 258.76V267.62H110.74V258.76H109.48ZM128.9 252.44V253.46H142.86V250.32H127.54V251.32H141.46V252.44H128.9ZM128.44 252.44C128.12 253.52 127.68 254.8 127.28 255.7L128.66 255.8C129.02 254.92 129.48 253.6 129.86 252.44H128.44ZM128.36 254.52L128.04 255.54H143.18V254.52H128.36ZM142.7 254.52V254.72C142.58 255.82 142.48 256.28 142.32 256.44C142.22 256.54 142.1 256.56 141.86 256.56C141.64 256.56 141.1 256.54 140.48 256.48C140.62 256.76 140.74 257.2 140.76 257.48C141.48 257.54 142.18 257.54 142.52 257.52C142.92 257.5 143.26 257.4 143.5 257.16C143.82 256.84 143.96 256.24 144.08 255.02C144.1 254.84 144.12 254.52 144.12 254.52H142.7ZM132.46 249.22V252.78C132.46 254.84 131.8 256.52 126.52 257.52C126.78 257.78 127.1 258.34 127.22 258.68C133.02 257.56 133.84 255.46 133.84 252.82V249.22H132.46ZM136.94 249.22V257.04H138.36V249.22H136.94ZM130.48 260.22H140.54V261.46H130.48V260.22ZM130.48 262.4H140.54V263.66H130.48V262.4ZM130.48 258.06H140.54V259.28H130.48V258.06ZM129.02 257.08V264.62H142.04V257.08H129.02ZM137.02 265.62C139.24 266.28 141.44 267.04 142.72 267.64L144.34 266.84C142.88 266.24 140.44 265.44 138.2 264.84L137.02 265.62ZM132.4 264.82C130.96 265.54 128.54 266.16 126.46 266.56C126.8 266.82 127.32 267.38 127.56 267.68C129.56 267.18 132.12 266.32 133.74 265.42L132.4 264.82ZM159.26 250.36C160.4 251.24 161.68 252.5 162.26 253.36L163.36 252.48C162.76 251.62 161.46 250.42 160.3 249.6L159.26 250.36ZM145.82 254.3V255.64H163.76V254.3H145.82ZM146.68 251.06V252.34H155.5V251.06H146.68ZM148.12 260.32V261.32H155.12V260.32H148.12ZM148.12 262.7V263.7H155.12V262.7H148.12ZM148.12 265.12V266.36H155.42V265.12H148.12ZM150.42 249.22V255.02H151.86V249.22H150.42ZM151.12 258.48V265.54H152.36V258.48H151.12ZM152.12 255.94C151.92 256.66 151.44 257.72 151.08 258.42L152.12 258.74C152.54 258.1 153.04 257.16 153.48 256.28L152.12 255.94ZM148.58 255.8C147.88 257.54 146.72 259.28 145.46 260.42C145.76 260.62 146.3 261.08 146.54 261.3C147.82 260.04 149.08 258.08 149.88 256.14L148.58 255.8ZM148.66 257.84H148.44L147.34 259.02V267.4H148.66V259.02H155.44V257.84H148.66ZM156.38 249.24C156.46 259.12 157.86 267.6 161.82 267.6C163.3 267.6 163.84 266.66 164.08 263.48C163.7 263.34 163.16 263.04 162.84 262.72C162.72 265.18 162.48 266.14 161.94 266.14C159.44 266.14 157.82 258.76 157.9 249.24H156.38ZM161.44 256.54C160.12 260.76 157.66 264.44 154.18 266.48C154.56 266.78 155.02 267.28 155.28 267.64C158.86 265.32 161.4 261.48 162.82 256.98L161.44 256.54ZM174.96 255.92V257.42H182.28V255.92H174.96ZM165.16 265.12V266.6H183.18V265.12H165.16ZM174.16 249.26V265.88H175.74V249.26H174.16ZM167.94 253.62V265.82H169.48V253.62H167.94Z" fill="white"/>
<path d="M107.78 142.68V144.14H124.34V142.68H107.78ZM116.44 149.48V150.96H123.54V149.48H116.44ZM107.02 157.26V158.72H125V157.26H107.02ZM115.72 143.22V157.98H117.28V143.22H115.72ZM109.76 147.82V158.04H111.3V147.82H109.76ZM135.52 143.96V145.42H142.9V143.96H135.52ZM126.24 142.46V143.86H136.02V142.46H126.24ZM128.58 146.52V147.9H133.78V146.52H128.58ZM128.58 150.68V152.04H133.78V150.68H128.58ZM142.46 143.96V144.32C141.6 151.34 138.62 156.04 134.66 158.1C135 158.38 135.42 158.94 135.66 159.32C139.94 156.84 143 152.14 143.96 144.18L143 143.92L142.72 143.96H142.46ZM137.34 145.5L135.9 145.78C137.14 152.06 139.44 156.94 143.78 159.4C144.02 159 144.5 158.44 144.84 158.14C140.72 156.02 138.4 151.28 137.34 145.5ZM127.8 143V155.98H129.24V143H127.8ZM133.16 143V159.56H134.6V143H133.16ZM125.84 155.54L126.12 157.04C128.2 156.72 131.08 156.26 133.82 155.82L133.74 154.44C130.82 154.88 127.8 155.3 125.84 155.54ZM162.7 147.38C161.84 148.38 160.34 149.78 159.3 150.6L160.12 151.44C161.2 150.64 162.62 149.42 163.7 148.34L162.7 147.38ZM153.32 141.74C153.9 142.68 154.46 143.96 154.66 144.8L155.98 144.3C155.74 143.46 155.16 142.24 154.54 141.3L153.32 141.74ZM151.8 144.58V145.92H163.6V144.58H151.8ZM154.44 148.18C158.04 151.14 158.2 156.6 157.04 157.78C156.74 158.18 156.38 158.24 155.94 158.24C155.56 158.24 155.02 158.2 154.44 158.14C154.7 158.54 154.8 159.16 154.82 159.52C155.34 159.56 155.84 159.58 156.22 159.58C157.04 159.58 157.58 159.4 158.14 158.82C159.82 157.28 159.66 150.84 155.6 147.56L154.44 148.18ZM157.04 145.08C155.68 146.72 153.36 148.26 151.22 149.2C151.5 149.46 151.96 150 152.14 150.28C154.3 149.16 156.76 147.44 158.3 145.56L157.04 145.08ZM158.86 145.34L157.66 145.56C158.48 150.72 160.06 155.1 162.96 157.38C163.2 157 163.68 156.48 164 156.22C161.22 154.26 159.62 150.06 158.86 145.34ZM156.2 149.42C155.18 150.56 153.12 151.96 151.62 152.66C151.94 152.92 152.3 153.4 152.48 153.74C154.02 152.82 156.08 151.3 157.2 150.06L156.2 149.42ZM157.4 152C155.96 153.94 152.96 156.06 150.46 157.02C150.8 157.3 151.18 157.78 151.38 158.12C153.88 156.98 156.86 154.72 158.42 152.66L157.4 152ZM160.5 141.22C160.16 142.14 159.5 143.46 158.98 144.32L160.18 144.72C160.72 143.94 161.38 142.74 161.94 141.68L160.5 141.22ZM146.2 142.08V159.62H147.56V143.44H150.92V142.08H146.2ZM150.46 142.08V142.48C150.04 143.86 149.3 146.24 148.58 148.06C150.02 149.62 150.38 150.98 150.38 152.06C150.38 152.66 150.28 153.2 149.96 153.42C149.8 153.54 149.58 153.6 149.34 153.6C149.02 153.64 148.64 153.62 148.18 153.58C148.4 153.96 148.52 154.54 148.54 154.9C149 154.92 149.5 154.92 149.9 154.88C150.3 154.82 150.66 154.7 150.94 154.52C151.5 154.12 151.72 153.28 151.72 152.2C151.72 150.96 151.4 149.56 149.92 147.9C150.6 146.3 151.34 144.24 151.92 142.6L150.96 142.02L150.72 142.08H150.46ZM170.9 142.82V144.22H182.34V142.82H170.9ZM170.92 149.08V150.48H180.48V149.08H170.92ZM175.1 143.22C174.52 147.84 173.44 154.42 172.62 158.12H174.18C174.92 154.52 175.98 148.06 176.62 143.36L175.1 143.22ZM169.96 157.36V158.76H183.22V157.36H169.96ZM179.74 149.08V158.08H181.24V149.08H179.74ZM169.18 141.32C168.06 144.42 166.2 147.46 164.22 149.44C164.48 149.8 164.9 150.56 165.04 150.92C167.22 148.66 169.26 145.2 170.58 141.74L169.18 141.32ZM167.34 146.36V159.6H168.8V144.96L168.78 144.94L167.34 146.36ZM196.28 142.46V143.8H199.98V142.46H196.28ZM191.66 143.44V144.72H195.88V143.44H191.66ZM196.48 146.16V147.42H199.94V146.16H196.48ZM196.44 149.9V151.16H199.84V149.9H196.44ZM186.58 146.16V147.42H189.98V146.16H186.58ZM186.66 149.88V151.16H190V149.88H186.66ZM185.78 142.6L186.18 154.22H187.54L187.18 143.38C187.42 143.34 187.52 143.26 187.56 143.14L185.78 142.6ZM199.16 142.46C199.18 146.14 199.02 151.24 198.8 154.18H200.22C200.42 151.3 200.54 146.22 200.56 142.46H199.16ZM189.46 141.4C188.66 141.94 187.32 142.66 186.16 143.2C186.32 143.5 186.56 143.98 186.64 144.24C187.92 143.76 189.42 143.12 190.64 142.48L189.46 141.4ZM191 148.9V154.1H192.24V148.9H191ZM191.02 141.38V148.02H194.92V146.8H192.32V141.38H191.02ZM194.18 146.8V154.08H195.48V146.8H194.18ZM184.08 153.58V154.98H202.34V153.58H184.08ZM195.06 156.26C197.2 157.32 199.48 158.68 200.82 159.66L202.22 158.64C200.76 157.64 198.34 156.3 196.12 155.26L195.06 156.26ZM189.82 155.3C188.58 156.4 186.18 157.78 184.24 158.58C184.6 158.86 185.12 159.34 185.38 159.64C187.28 158.8 189.64 157.44 191.22 156.2L189.82 155.3ZM203.72 142.32V143.7H212.34V142.32H203.72ZM213.76 148.02V149.46H221.8V148.02H213.76ZM218.1 148.96V159.62H219.58V148.96H218.1ZM213.18 143.18V148.52C213.18 151.58 212.9 155.6 210.12 158.56C210.48 158.74 211.02 159.24 211.24 159.56C214.24 156.34 214.66 151.76 214.66 148.52V143.94C214.94 143.9 215.04 143.82 215.06 143.68L213.18 143.18ZM204.46 145.78V151.18C204.46 153.48 204.32 156.56 202.92 158.72C203.24 158.9 203.86 159.36 204.1 159.64C205.64 157.28 205.88 153.74 205.88 151.18V145.78H204.46ZM220.08 141.44C218.58 142.3 215.88 143.16 213.5 143.72C213.7 144.06 213.94 144.6 214.02 144.94C216.52 144.36 219.42 143.54 221.4 142.58L220.08 141.44ZM205.28 145.78V147.16H210.38V150.66H205.28V152.02H211.84V145.78H205.28ZM224.48 142.22V148.06C224.48 151.24 224.3 155.68 222.4 158.82C222.76 158.96 223.4 159.3 223.68 159.54C225.66 156.28 225.96 151.4 225.96 148.06V142.22H224.48ZM225.44 142.22V143.28H238.18V144.56H225.44V145.62H239.64V142.22H225.44ZM232.42 145.96V148.94H233.84V145.96H232.42ZM231.3 153.22V158.22H232.62V153.22H231.3ZM227.04 146.28V147.06H231.32V146.28H227.04ZM228.88 152.66V153.62H239.1V152.66H228.88ZM227 147.82V148.62H231.34V147.82H227ZM234.92 146.28V147.06H239.36V146.28H234.92ZM234.88 147.82V148.62H239.44V147.82H234.88ZM235.64 150.16H238.28V151.18H235.64V150.16ZM231.82 150.16H234.42V151.18H231.82V150.16ZM228.1 150.16H230.62V151.18H228.1V150.16ZM226.86 149.4V151.94H239.56V149.4H226.86ZM238.62 152.66V152.88C238.44 156.62 238.2 157.98 237.92 158.32C237.8 158.5 237.66 158.52 237.42 158.52C237.16 158.52 236.64 158.52 236.04 158.44C236.22 158.76 236.32 159.24 236.34 159.58C237 159.62 237.66 159.62 238.04 159.58C238.48 159.54 238.8 159.42 239.08 159.1C239.52 158.58 239.76 157.16 239.96 153.24C239.98 153.04 239.98 152.66 239.98 152.66H238.62ZM228.88 155.14H235.1V156.06H228.88V155.14ZM227.72 154.38V156.82H236.3V154.38H227.72ZM229.3 151.54C228.56 152.68 227.24 154.02 225.42 155.02C225.74 155.18 226.18 155.6 226.4 155.88C228.34 154.7 229.72 153.26 230.68 151.78L229.3 151.54ZM226.56 157.86L226.66 158.94C229.08 158.84 232.46 158.68 235.76 158.5L235.8 157.56C232.38 157.68 228.88 157.8 226.56 157.86ZM234.14 157.18C234.86 157.74 235.66 158.56 236.02 159.1L236.98 158.6C236.6 158.02 235.76 157.26 235.04 156.72L234.14 157.18ZM251 142.66C252.82 145.36 256.32 148.46 259.46 150.28C259.74 149.84 260.12 149.34 260.48 148.96C257.3 147.36 253.78 144.3 251.68 141.16H250.16C248.6 143.92 245.26 147.24 241.76 149.2C242.1 149.52 242.52 150.06 242.72 150.4C246.14 148.36 249.4 145.24 251 142.66ZM251.14 151.3V152.66H257.78V151.3H251.14ZM242.6 157.66V159.04H259.66V157.66H242.6ZM250.42 146.6V158.38H252V146.6H250.42ZM245.14 150.22V158.32H246.6V150.22H245.14ZM261.66 153.56V154.82H279.18V153.56H261.66ZM261.74 144.78V146.06H279.1V144.78H261.74ZM262.54 148.2V149.44H278.38V148.2H262.54ZM263.56 150.9V152.06H277.4V150.9H263.56ZM269.62 148.78V159.62H271.1V148.78H269.62ZM267.78 141.2V145.38H269.2V141.2H267.78ZM271.56 141.2V145.32H273V141.2H271.56ZM269.14 154.06C267.44 155.8 264.1 157.34 261.14 158C261.46 158.32 261.9 158.9 262.12 159.28C265.1 158.44 268.48 156.7 270.34 154.62L269.14 154.06ZM271.58 154.02L270.4 154.52C272.28 156.68 275.62 158.5 278.66 159.34C278.88 158.92 279.34 158.32 279.68 158C276.64 157.36 273.28 155.82 271.58 154.02ZM276.2 141.44C275.86 142.36 275.2 143.68 274.66 144.52L275.88 144.92C276.44 144.14 277.16 142.96 277.74 141.86L276.2 141.44ZM273.52 145.68C273.28 146.4 272.76 147.44 272.36 148.14L273.62 148.52C274.06 147.88 274.58 146.96 275.08 146.06L273.52 145.68ZM263.36 141.86C264 142.8 264.72 144.08 265 144.88L266.34 144.38C266.06 143.56 265.32 142.3 264.64 141.4L263.36 141.86ZM265.96 146.2C266.4 146.86 266.84 147.8 267 148.4L268.48 148.08C268.3 147.48 267.84 146.58 267.38 145.92L265.96 146.2ZM288.04 148.46C287.1 151.28 285.36 155.18 283.94 157.64L285.32 158.08C286.8 155.66 288.54 151.92 289.8 148.9L288.04 148.46ZM281.48 157.18L281.68 158.76C285.44 158.6 291.04 158.3 296.28 158L296.32 156.56C290.96 156.82 285.14 157.06 281.48 157.18ZM291.88 152.84C293.66 154.96 295.74 157.88 296.68 159.7L298.2 158.88C297.2 157.06 295.14 154.28 293.32 152.18L291.88 152.84ZM286.02 141.8C284.86 144.76 282.88 147.64 280.68 149.44C281.1 149.68 281.8 150.22 282.12 150.52C284.24 148.54 286.34 145.48 287.68 142.26L286.02 141.8ZM293.18 141.78L291.7 142.4C293.24 145.2 295.74 148.6 297.6 150.5C297.9 150.12 298.46 149.54 298.86 149.22C297.02 147.56 294.5 144.4 293.18 141.78ZM300.2 144.28V145.72H317.82V144.28H300.2ZM309.18 146.7V159.62H310.7V146.7H309.18ZM303.44 149.38V157.74H304.92V150.82H315.86V149.38H303.44ZM315.2 149.38V155.84C315.2 156.1 315.1 156.18 314.76 156.2C314.44 156.22 313.28 156.22 312 156.18C312.22 156.58 312.44 157.14 312.52 157.54C314.22 157.56 315.28 157.54 315.9 157.32C316.54 157.08 316.72 156.64 316.72 155.86V149.38H315.2ZM306.98 141.2C305.8 145.42 303.38 149.92 299.6 152.5C299.9 152.82 300.3 153.42 300.5 153.78C304.58 150.92 307.08 146.22 308.52 141.56L306.98 141.2Z" fill="white"/>
<path d="M111.02 43.06V44.3H120.94V43.06H111.02ZM110.64 46.48V47.76H121.36V46.48H110.64ZM117.3 43.46V52.24H118.66V43.46H117.3ZM113.2 43.52V47.16C113.2 48.26 112.78 50.38 110.76 51.62C111.1 51.82 111.56 52.24 111.76 52.52C114.02 51 114.5 48.38 114.5 47.16V43.52H113.2ZM108.54 37.84V38.92H114.16V37.84H108.54ZM117.76 37.84V38.92H123.42V37.84H117.76ZM122.84 35.06V50.66C122.84 50.96 122.74 51.08 122.42 51.08C122.1 51.1 121.02 51.1 119.92 51.06C120.14 51.48 120.34 52.18 120.4 52.58C121.92 52.58 122.92 52.56 123.52 52.3C124.12 52.04 124.32 51.56 124.32 50.66V35.06H122.84ZM108.66 35.06V36.22H113.66V40.66H108.66V41.8H115.08V35.06H108.66ZM123.56 35.06H116.84V41.82H123.56V40.68H118.28V36.22H123.56V35.06ZM107.76 35.06V52.62H109.24V35.06H107.76ZM135.96 50.36V51.72H142.94V50.36H135.96ZM135.18 44.5V52.62H136.62V45.88H142.24V52.54H143.72V44.5H135.18ZM133.82 41.14L134 42.62C136.48 42.46 140.06 42.18 143.44 41.92L143.46 40.58C139.9 40.82 136.18 41.02 133.82 41.14ZM140.44 37.92C141.76 39.62 143.1 41.9 143.58 43.4L144.9 42.68C144.36 41.2 142.98 38.96 141.64 37.3L140.44 37.92ZM137.72 34.2C137.16 36.44 136.08 39.64 135.18 41.58L136.46 41.94C137.4 40.04 138.54 36.98 139.36 34.54L137.72 34.2ZM126.26 38.34V39.76H132.86V38.34H126.26ZM129.3 34.2C128.6 38 127.36 43.38 126.46 46.42L127.7 47.1C128.64 43.76 129.92 38.36 130.74 34.36L129.3 34.2ZM127.26 45.82C129.5 47.12 132.1 49.14 133.28 50.64L134.2 49.42C133 47.94 130.34 46.02 128.1 44.76L127.26 45.82ZM132.28 38.34V38.66C131.8 45.44 129.7 49.7 126.38 51.46C126.7 51.76 127.1 52.3 127.32 52.66C131 50.46 133.16 46.22 133.7 38.48L132.8 38.3L132.54 38.34H132.28ZM155.92 41.94V43.18H162.46V41.94H155.92ZM155.16 35.14V52.62H156.54V36.48H162.32V35.14H155.16ZM161.6 35.14V38.98C161.6 39.2 161.52 39.28 161.2 39.3C160.88 39.32 159.84 39.32 158.6 39.28C158.8 39.66 159 40.2 159.06 40.6C160.6 40.6 161.6 40.58 162.22 40.36C162.84 40.14 163 39.74 163 39V35.14H161.6ZM157.88 42.76L156.7 43.06C157.88 47.22 160.1 50.86 163.18 52.6C163.42 52.22 163.88 51.68 164.22 51.38C161.22 49.92 158.96 46.5 157.88 42.76ZM162 41.94V42.26C161.38 45.92 159.5 49.66 156.5 51.62C156.84 51.88 157.28 52.3 157.5 52.64C160.7 50.48 162.68 46.54 163.46 42.2L162.54 41.86L162.28 41.94H162ZM146.34 36.26V37.56H153.76V36.26H146.34ZM146.1 47.2V48.5H154.02V47.2H146.1ZM145.62 39.56V40.86H154.52V39.56H145.62ZM145.9 43.72V45.02H154.28V43.72H145.9ZM149.42 34.24V40.02H150.82V34.24H149.42ZM149.42 44.26V52.56H150.82V44.26H149.42ZM152.12 40.78C151.9 41.56 151.46 42.74 151.12 43.48L152.24 43.82C152.62 43.12 153 42.08 153.4 41.12L152.12 40.78ZM147.02 41.1C147.42 41.98 147.8 43.12 147.9 43.84L149.1 43.5C149 42.8 148.6 41.66 148.16 40.82L147.02 41.1ZM171.48 50.42V51.8H181.14V50.42H171.48ZM170.8 36.22V37.56H178.14V36.22H170.8ZM171.7 34.14C170.54 36.32 168.24 38.9 164.94 40.7C165.28 40.96 165.78 41.48 166 41.86C169.48 39.8 171.88 37.08 173.38 34.48L171.7 34.14ZM177.64 36.22V36.48C175.56 41.74 170.02 45.66 164.84 47.16C165.16 47.48 165.54 48.1 165.72 48.5C171.16 46.74 176.8 42.72 179.2 36.68L178.2 36.14L177.92 36.22H177.64ZM168.3 39.78C169.88 40.9 171.78 42.58 172.62 43.72L173.84 42.64C172.92 41.5 171 39.9 169.42 38.82L168.3 39.78ZM180.4 44.1V52.64H181.94V44.1H180.4ZM172.16 44.1H171.86L170.66 45.28V52.6H172.16V45.48H181.16V44.1H172.16Z" fill="white"/>
<line x1="42" y1="42.5371" x2="42" y2="286.537" stroke="url(#paint0_linear_1272_913)" stroke-opacity="0.29" stroke-width="4"/>
<g filter="url(#filter0_f_1272_913)">
<circle cx="43" cy="43" r="40" fill="url(#paint1_linear_1272_913)"/>
<circle cx="43" cy="43" r="39.5" stroke="white"/>
</g>
<path d="M23.684 20.7231C24.228 20.7231 24.72 20.8551 25.16 21.1191C25.604 21.3791 25.956 21.7351 26.216 22.1871C26.476 22.6351 26.606 23.1391 26.606 23.6991V26.6991C26.606 27.2751 26.476 27.7911 26.216 28.2471C25.956 28.7031 25.6 29.0631 25.148 29.3271C24.7 29.5871 24.19 29.7171 23.618 29.7171C23.126 29.7171 22.67 29.6091 22.25 29.3931C21.834 29.1731 21.49 28.8711 21.218 28.4871L21.89 27.9291C22.074 28.2131 22.318 28.4411 22.622 28.6131C22.93 28.7851 23.262 28.8711 23.618 28.8711C24.026 28.8711 24.386 28.7751 24.698 28.5831C25.014 28.3871 25.262 28.1311 25.442 27.8151C25.626 27.4951 25.718 27.1491 25.718 26.7771V24.8931L25.934 25.1451C25.686 25.5411 25.356 25.8611 24.944 26.1051C24.536 26.3491 24.088 26.4711 23.6 26.4711C23.068 26.4711 22.586 26.3431 22.154 26.0871C21.726 25.8311 21.386 25.4871 21.134 25.0551C20.886 24.6231 20.762 24.1411 20.762 23.6091C20.762 23.0771 20.894 22.5931 21.158 22.1571C21.422 21.7171 21.776 21.3691 22.22 21.1131C22.664 20.8531 23.152 20.7231 23.684 20.7231ZM23.684 21.5751C23.308 21.5751 22.966 21.6671 22.658 21.8511C22.35 22.0311 22.104 22.2751 21.92 22.5831C21.74 22.8911 21.65 23.2331 21.65 23.6091C21.65 23.9851 21.74 24.3271 21.92 24.6351C22.1 24.9431 22.344 25.1891 22.652 25.3731C22.96 25.5531 23.302 25.6431 23.678 25.6431C24.054 25.6431 24.396 25.5531 24.704 25.3731C25.016 25.1891 25.262 24.9431 25.442 24.6351C25.626 24.3271 25.718 23.9851 25.718 23.6091C25.718 23.2371 25.626 22.8971 25.442 22.5891C25.262 22.2811 25.018 22.0351 24.71 21.8511C24.402 21.6671 24.06 21.5751 23.684 21.5751ZM30.1054 20.8971H31.0114L28.7074 29.5371H27.8014L30.1054 20.8971ZM34.7637 29.7171C34.3157 29.7171 33.9017 29.6251 33.5217 29.4411C33.1417 29.2571 32.8177 29.0031 32.5497 28.6791C32.2817 28.3551 32.0897 27.9831 31.9737 27.5631L32.8197 27.3351C32.8957 27.6471 33.0337 27.9171 33.2337 28.1451C33.4337 28.3691 33.6677 28.5431 33.9357 28.6671C34.2077 28.7911 34.4917 28.8531 34.7877 28.8531C35.1717 28.8531 35.5157 28.7611 35.8198 28.5771C36.1277 28.3891 36.3717 28.1411 36.5517 27.8331C36.7318 27.5251 36.8218 27.1871 36.8218 26.8191C36.8218 26.4391 36.7278 26.0971 36.5398 25.7931C36.3517 25.4851 36.1037 25.2411 35.7958 25.0611C35.4877 24.8811 35.1517 24.7911 34.7877 24.7911C34.3797 24.7911 34.0277 24.8811 33.7317 25.0611C33.4357 25.2371 33.1997 25.4591 33.0237 25.7271L32.2197 25.3911L32.4837 20.8971H37.0978V21.7431H32.8737L33.3117 21.3291L33.0777 25.1631L32.8557 24.8691C33.1037 24.5851 33.4037 24.3631 33.7557 24.2031C34.1077 24.0431 34.4777 23.9631 34.8657 23.9631C35.3977 23.9631 35.8777 24.0911 36.3057 24.3471C36.7337 24.5991 37.0737 24.9411 37.3257 25.3731C37.5778 25.8051 37.7038 26.2871 37.7038 26.8191C37.7038 27.3471 37.5698 27.8311 37.3017 28.2711C37.0338 28.7071 36.6778 29.0571 36.2338 29.3211C35.7898 29.5851 35.2997 29.7171 34.7637 29.7171ZM46.2795 24.9771C46.2795 27.3291 47.2275 29.2251 48.6675 30.6891L49.3875 30.3171C47.9955 28.8891 47.1435 27.1251 47.1435 24.9771C47.1435 22.8411 47.9955 21.0771 49.3875 19.6491L48.6675 19.2771C47.2275 20.7411 46.2795 22.6371 46.2795 24.9771ZM50.1075 24.3651V25.3491H61.0875V24.3651H50.1075ZM62.3895 31.6911L61.7415 31.1751C62.2015 30.6391 62.5855 30.0651 62.8935 29.4531C63.2055 28.8371 63.4395 28.2031 63.5955 27.5511C63.7555 26.8951 63.8375 26.2371 63.8415 25.5771C63.8375 24.9091 63.7575 24.2511 63.6015 23.6031C63.4495 22.9551 63.2175 22.3271 62.9055 21.7191C62.5935 21.1071 62.2055 20.5231 61.7415 19.9671L62.3895 19.4631C62.8615 20.0031 63.2655 20.6051 63.6015 21.2691C63.9415 21.9331 64.2015 22.6331 64.3815 23.3691C64.5655 24.1011 64.6555 24.8371 64.6515 25.5771C64.6555 26.3171 64.5655 27.0531 64.3815 27.7851C64.2015 28.5171 63.9415 29.2151 63.6015 29.8791C63.2655 30.5471 62.8615 31.1511 62.3895 31.6911ZM45.6614 38.7411C45.4254 38.7411 45.1934 38.6931 44.9654 38.5971C44.7414 38.5011 44.5234 38.3911 44.3114 38.2671C44.1034 38.1391 43.9034 38.0271 43.7114 37.9311C43.5234 37.8311 43.3454 37.7811 43.1774 37.7811C42.9574 37.7811 42.8154 37.8691 42.7514 38.0451C42.6914 38.2171 42.6934 38.4031 42.7574 38.6031H41.8814C41.7974 38.2631 41.7914 37.9571 41.8634 37.6851C41.9394 37.4091 42.0834 37.1911 42.2954 37.0311C42.5114 36.8671 42.7834 36.7851 43.1114 36.7851C43.3554 36.7851 43.5914 36.8331 43.8194 36.9291C44.0474 37.0251 44.2654 37.1371 44.4734 37.2651C44.6854 37.3931 44.8854 37.5051 45.0734 37.6011C45.2654 37.6971 45.4454 37.7451 45.6134 37.7451C45.8094 37.7451 45.9454 37.6611 46.0214 37.4931C46.0974 37.3251 46.1014 37.1291 46.0334 36.9051H46.9094C46.9934 37.2371 46.9974 37.5431 46.9214 37.8231C46.8494 38.0991 46.7054 38.3211 46.4894 38.4891C46.2774 38.6571 46.0014 38.7411 45.6614 38.7411ZM22.346 53.5371V45.8811L20.72 46.8591V45.8691L22.346 44.8971H23.24V53.5371H22.346ZM27.9758 53.7171C27.4438 53.7171 26.9638 53.5931 26.5358 53.3451C26.1118 53.0971 25.7758 52.7611 25.5278 52.3371C25.2798 51.9091 25.1558 51.4291 25.1558 50.8971V47.5371C25.1558 47.0051 25.2798 46.5271 25.5278 46.1031C25.7758 45.6751 26.1118 45.3371 26.5358 45.0891C26.9638 44.8411 27.4438 44.7171 27.9758 44.7171C28.5078 44.7171 28.9858 44.8411 29.4098 45.0891C29.8378 45.3371 30.1758 45.6751 30.4238 46.1031C30.6718 46.5271 30.7958 47.0051 30.7958 47.5371V50.8971C30.7958 51.4291 30.6718 51.9091 30.4238 52.3371C30.1758 52.7611 29.8378 53.0971 29.4098 53.3451C28.9858 53.5931 28.5078 53.7171 27.9758 53.7171ZM27.9758 52.8651C28.3318 52.8651 28.6558 52.7791 28.9478 52.6071C29.2398 52.4311 29.4718 52.1971 29.6438 51.9051C29.8158 51.6131 29.9018 51.2911 29.9018 50.9391V47.4951C29.9018 47.1391 29.8158 46.8151 29.6438 46.5231C29.4718 46.2311 29.2398 45.9991 28.9478 45.8271C28.6558 45.6511 28.3318 45.5631 27.9758 45.5631C27.6198 45.5631 27.2958 45.6511 27.0038 45.8271C26.7118 45.9991 26.4798 46.2311 26.3078 46.5231C26.1358 46.8151 26.0498 47.1391 26.0498 47.4951V50.9391C26.0498 51.2911 26.1358 51.6131 26.3078 51.9051C26.4798 52.1971 26.7118 52.4311 27.0038 52.6071C27.2958 52.7791 27.6198 52.8651 27.9758 52.8651ZM34.304 44.8971H35.21L32.906 53.5371H32L34.304 44.8971ZM38.7343 53.7111C38.3063 53.7111 37.9123 53.6351 37.5523 53.4831C37.1923 53.3311 36.8823 53.1151 36.6223 52.8351C36.3623 52.5511 36.1723 52.2131 36.0523 51.8211L36.8923 51.5691C37.0363 51.9971 37.2723 52.3211 37.6003 52.5411C37.9323 52.7611 38.3063 52.8671 38.7223 52.8591C39.1063 52.8511 39.4363 52.7651 39.7123 52.6011C39.9923 52.4371 40.2063 52.2091 40.3543 51.9171C40.5023 51.6251 40.5763 51.2871 40.5763 50.9031C40.5763 50.3151 40.4043 49.8431 40.0603 49.4871C39.7203 49.1271 39.2703 48.9471 38.7103 48.9471C38.5543 48.9471 38.3903 48.9691 38.2183 49.0131C38.0463 49.0531 37.8863 49.1111 37.7383 49.1871L37.2943 48.4851L40.6543 45.3831L40.7983 45.7431H36.3943V44.8971H41.3863V45.7551L38.4583 48.5511L38.4463 48.2031C39.0463 48.1271 39.5743 48.1951 40.0303 48.4071C40.4863 48.6191 40.8423 48.9431 41.0983 49.3791C41.3583 49.8111 41.4883 50.3191 41.4883 50.9031C41.4883 51.4551 41.3683 51.9431 41.1283 52.3671C40.8923 52.7871 40.5663 53.1171 40.1503 53.3571C39.7343 53.5931 39.2623 53.7111 38.7343 53.7111ZM50.1852 48.9771C50.1852 51.3291 51.1332 53.2251 52.5732 54.6891L53.2932 54.3171C51.9012 52.8891 51.0492 51.1251 51.0492 48.9771C51.0492 46.8411 51.9012 45.0771 53.2932 43.6491L52.5732 43.2771C51.1332 44.7411 50.1852 46.6371 50.1852 48.9771ZM54.0132 48.3651V49.3491H64.9932V48.3651H54.0132ZM68.7732 48.9771C68.7732 46.6371 67.8252 44.7411 66.3852 43.2771L65.6652 43.6491C67.0572 45.0771 67.9092 46.8411 67.9092 48.9771C67.9092 51.1251 67.0572 52.8891 65.6652 54.3171L66.3852 54.6891C67.8252 53.2251 68.7732 51.3291 68.7732 48.9771ZM31.8294 65.7171C31.2974 65.7171 30.8174 65.5931 30.3894 65.3451C29.9654 65.0971 29.6294 64.7611 29.3814 64.3371C29.1334 63.9091 29.0094 63.4291 29.0094 62.8971V59.5371C29.0094 59.0051 29.1334 58.5271 29.3814 58.1031C29.6294 57.6751 29.9654 57.3371 30.3894 57.0891C30.8174 56.8411 31.2974 56.7171 31.8294 56.7171C32.3614 56.7171 32.8394 56.8411 33.2634 57.0891C33.6914 57.3371 34.0294 57.6751 34.2774 58.1031C34.5254 58.5271 34.6494 59.0051 34.6494 59.5371V62.8971C34.6494 63.4291 34.5254 63.9091 34.2774 64.3371C34.0294 64.7611 33.6914 65.0971 33.2634 65.3451C32.8394 65.5931 32.3614 65.7171 31.8294 65.7171ZM31.8294 64.8651C32.1854 64.8651 32.5094 64.7791 32.8014 64.6071C33.0934 64.4311 33.3254 64.1971 33.4974 63.9051C33.6694 63.6131 33.7554 63.2911 33.7554 62.9391V59.4951C33.7554 59.1391 33.6694 58.8151 33.4974 58.5231C33.3254 58.2311 33.0934 57.9991 32.8014 57.8271C32.5094 57.6511 32.1854 57.5631 31.8294 57.5631C31.4734 57.5631 31.1494 57.6511 30.8574 57.8271C30.5654 57.9991 30.3334 58.2311 30.1614 58.5231C29.9894 58.8151 29.9034 59.1391 29.9034 59.4951V62.9391C29.9034 63.2911 29.9894 63.6131 30.1614 63.9051C30.3334 64.1971 30.5654 64.4311 30.8574 64.6071C31.1494 64.7791 31.4734 64.8651 31.8294 64.8651ZM38.6076 65.7171C38.0676 65.7171 37.5896 65.6091 37.1736 65.3931C36.7616 65.1771 36.4376 64.8751 36.2016 64.4871C35.9696 64.0951 35.8536 63.6371 35.8536 63.1131C35.8536 62.5771 35.9836 62.1011 36.2436 61.6851C36.5036 61.2651 36.8996 60.9471 37.4316 60.7311L37.4196 61.0791C36.9756 60.9151 36.6376 60.6471 36.4056 60.2751C36.1736 59.9031 36.0576 59.4911 36.0576 59.0391C36.0576 58.5591 36.1676 58.1471 36.3876 57.8031C36.6076 57.4551 36.9076 57.1871 37.2876 56.9991C37.6716 56.8111 38.1116 56.7171 38.6076 56.7171C39.1036 56.7171 39.5436 56.8111 39.9276 56.9991C40.3116 57.1871 40.6136 57.4551 40.8336 57.8031C41.0536 58.1471 41.1636 58.5591 41.1636 59.0391C41.1636 59.4911 41.0516 59.9011 40.8276 60.2691C40.6076 60.6371 40.2696 60.9071 39.8136 61.0791L39.7836 60.7311C40.3156 60.9431 40.7136 61.2591 40.9776 61.6791C41.2456 62.0991 41.3796 62.5771 41.3796 63.1131C41.3796 63.6371 41.2616 64.0951 41.0256 64.4871C40.7896 64.8751 40.4636 65.1771 40.0476 65.3931C39.6316 65.6091 39.1516 65.7171 38.6076 65.7171ZM38.6076 64.8711C39.1516 64.8711 39.5936 64.7211 39.9336 64.4211C40.2736 64.1171 40.4436 63.6811 40.4436 63.1131C40.4436 62.5371 40.2756 62.1011 39.9396 61.8051C39.6036 61.5051 39.1596 61.3551 38.6076 61.3551C38.0556 61.3551 37.6136 61.5051 37.2816 61.8051C36.9496 62.1011 36.7836 62.5371 36.7836 63.1131C36.7836 63.6811 36.9516 64.1171 37.2876 64.4211C37.6236 64.7211 38.0636 64.8711 38.6076 64.8711ZM38.6076 60.5031C39.0876 60.5031 39.4776 60.3811 39.7776 60.1371C40.0776 59.8891 40.2276 59.5231 40.2276 59.0391C40.2276 58.5551 40.0776 58.1931 39.7776 57.9531C39.4776 57.7091 39.0876 57.5871 38.6076 57.5871C38.1276 57.5871 37.7376 57.7091 37.4376 57.9531C37.1416 58.1931 36.9936 58.5551 36.9936 59.0391C36.9936 59.5231 37.1416 59.8891 37.4376 60.1371C37.7376 60.3811 38.1276 60.5031 38.6076 60.5031ZM43.0545 64.5771V63.5511H44.0805V64.5771H43.0545ZM43.0605 61.0431V60.0171H44.0865V61.0431H43.0605ZM48.6205 65.7171C48.0885 65.7171 47.6085 65.5931 47.1805 65.3451C46.7565 65.0971 46.4205 64.7611 46.1725 64.3371C45.9245 63.9091 45.8005 63.4291 45.8005 62.8971V59.5371C45.8005 59.0051 45.9245 58.5271 46.1725 58.1031C46.4205 57.6751 46.7565 57.3371 47.1805 57.0891C47.6085 56.8411 48.0885 56.7171 48.6205 56.7171C49.1525 56.7171 49.6305 56.8411 50.0545 57.0891C50.4825 57.3371 50.8205 57.6751 51.0685 58.1031C51.3165 58.5271 51.4405 59.0051 51.4405 59.5371V62.8971C51.4405 63.4291 51.3165 63.9091 51.0685 64.3371C50.8205 64.7611 50.4825 65.0971 50.0545 65.3451C49.6305 65.5931 49.1525 65.7171 48.6205 65.7171ZM48.6205 64.8651C48.9765 64.8651 49.3005 64.7791 49.5925 64.6071C49.8845 64.4311 50.1165 64.1971 50.2885 63.9051C50.4605 63.6131 50.5465 63.2911 50.5465 62.9391V59.4951C50.5465 59.1391 50.4605 58.8151 50.2885 58.5231C50.1165 58.2311 49.8845 57.9991 49.5925 57.8271C49.3005 57.6511 48.9765 57.5631 48.6205 57.5631C48.2645 57.5631 47.9405 57.6511 47.6485 57.8271C47.3565 57.9991 47.1245 58.2311 46.9525 58.5231C46.7805 58.8151 46.6945 59.1391 46.6945 59.4951V62.9391C46.6945 63.2911 46.7805 63.6131 46.9525 63.9051C47.1245 64.1971 47.3565 64.4311 47.6485 64.6071C47.9405 64.7791 48.2645 64.8651 48.6205 64.8651ZM55.5847 65.7171C55.0527 65.7171 54.5727 65.5931 54.1447 65.3451C53.7207 65.0971 53.3847 64.7611 53.1367 64.3371C52.8887 63.9091 52.7647 63.4291 52.7647 62.8971V59.5371C52.7647 59.0051 52.8887 58.5271 53.1367 58.1031C53.3847 57.6751 53.7207 57.3371 54.1447 57.0891C54.5727 56.8411 55.0527 56.7171 55.5847 56.7171C56.1167 56.7171 56.5947 56.8411 57.0187 57.0891C57.4467 57.3371 57.7847 57.6751 58.0327 58.1031C58.2807 58.5271 58.4047 59.0051 58.4047 59.5371V62.8971C58.4047 63.4291 58.2807 63.9091 58.0327 64.3371C57.7847 64.7611 57.4467 65.0971 57.0187 65.3451C56.5947 65.5931 56.1167 65.7171 55.5847 65.7171ZM55.5847 64.8651C55.9407 64.8651 56.2647 64.7791 56.5567 64.6071C56.8487 64.4311 57.0807 64.1971 57.2527 63.9051C57.4247 63.6131 57.5107 63.2911 57.5107 62.9391V59.4951C57.5107 59.1391 57.4247 58.8151 57.2527 58.5231C57.0807 58.2311 56.8487 57.9991 56.5567 57.8271C56.2647 57.6511 55.9407 57.5631 55.5847 57.5631C55.2287 57.5631 54.9047 57.6511 54.6127 57.8271C54.3207 57.9991 54.0887 58.2311 53.9167 58.5231C53.7447 58.8151 53.6587 59.1391 53.6587 59.4951V62.9391C53.6587 63.2911 53.7447 63.6131 53.9167 63.9051C54.0887 64.1971 54.3207 64.4311 54.6127 64.6071C54.9047 64.7791 55.2287 64.8651 55.5847 64.8651Z" fill="#3D3B3B"/>
<g filter="url(#filter1_f_1272_913)">
<circle cx="43" cy="150" r="40" fill="url(#paint2_linear_1272_913)"/>
</g>
<path d="M23.346 145.6V137.944L21.72 138.922V137.932L23.346 136.96H24.24V145.6H23.346ZM28.9758 145.78C28.4438 145.78 27.9638 145.656 27.5358 145.408C27.1118 145.16 26.7758 144.824 26.5278 144.4C26.2798 143.972 26.1558 143.492 26.1558 142.96V139.6C26.1558 139.068 26.2798 138.59 26.5278 138.166C26.7758 137.738 27.1118 137.4 27.5358 137.152C27.9638 136.904 28.4438 136.78 28.9758 136.78C29.5078 136.78 29.9858 136.904 30.4098 137.152C30.8378 137.4 31.1758 137.738 31.4238 138.166C31.6718 138.59 31.7958 139.068 31.7958 139.6V142.96C31.7958 143.492 31.6718 143.972 31.4238 144.4C31.1758 144.824 30.8378 145.16 30.4098 145.408C29.9858 145.656 29.5078 145.78 28.9758 145.78ZM28.9758 144.928C29.3318 144.928 29.6558 144.842 29.9478 144.67C30.2398 144.494 30.4718 144.26 30.6438 143.968C30.8158 143.676 30.9018 143.354 30.9018 143.002V139.558C30.9018 139.202 30.8158 138.878 30.6438 138.586C30.4718 138.294 30.2398 138.062 29.9478 137.89C29.6558 137.714 29.3318 137.626 28.9758 137.626C28.6198 137.626 28.2958 137.714 28.0038 137.89C27.7118 138.062 27.4798 138.294 27.3078 138.586C27.1358 138.878 27.0498 139.202 27.0498 139.558V143.002C27.0498 143.354 27.1358 143.676 27.3078 143.968C27.4798 144.26 27.7118 144.494 28.0038 144.67C28.2958 144.842 28.6198 144.928 28.9758 144.928ZM35.304 136.96H36.21L33.906 145.6H33L35.304 136.96ZM39.7343 145.774C39.3063 145.774 38.9123 145.698 38.5523 145.546C38.1923 145.394 37.8823 145.178 37.6223 144.898C37.3623 144.614 37.1723 144.276 37.0523 143.884L37.8923 143.632C38.0363 144.06 38.2723 144.384 38.6003 144.604C38.9323 144.824 39.3063 144.93 39.7223 144.922C40.1063 144.914 40.4363 144.828 40.7123 144.664C40.9923 144.5 41.2063 144.272 41.3543 143.98C41.5023 143.688 41.5763 143.35 41.5763 142.966C41.5763 142.378 41.4043 141.906 41.0603 141.55C40.7203 141.19 40.2703 141.01 39.7103 141.01C39.5543 141.01 39.3903 141.032 39.2183 141.076C39.0463 141.116 38.8863 141.174 38.7383 141.25L38.2943 140.548L41.6543 137.446L41.7983 137.806H37.3943V136.96H42.3863V137.818L39.4583 140.614L39.4463 140.266C40.0463 140.19 40.5743 140.258 41.0303 140.47C41.4863 140.682 41.8423 141.006 42.0983 141.442C42.3583 141.874 42.4883 142.382 42.4883 142.966C42.4883 143.518 42.3683 144.006 42.1283 144.43C41.8923 144.85 41.5663 145.18 41.1503 145.42C40.7343 145.656 40.2623 145.774 39.7343 145.774ZM51.1852 141.04C51.1852 143.392 52.1332 145.288 53.5732 146.752L54.2932 146.38C52.9012 144.952 52.0492 143.188 52.0492 141.04C52.0492 138.904 52.9012 137.14 54.2932 135.712L53.5732 135.34C52.1332 136.804 51.1852 138.7 51.1852 141.04ZM55.0132 140.428V141.412H65.9932V140.428H55.0132ZM69.7732 141.04C69.7732 138.7 68.8252 136.804 67.3852 135.34L66.6652 135.712C68.0572 137.14 68.9092 138.904 68.9092 141.04C68.9092 143.188 68.0572 144.952 66.6652 146.38L67.3852 146.752C68.8252 145.288 69.7732 143.392 69.7732 141.04ZM21.6 163.594L21.606 162.79L25.512 159.262C25.848 158.958 26.07 158.67 26.178 158.398C26.29 158.122 26.346 157.834 26.346 157.534C26.346 157.178 26.262 156.856 26.094 156.568C25.926 156.28 25.7 156.052 25.416 155.884C25.132 155.712 24.814 155.626 24.462 155.626C24.094 155.626 23.766 155.714 23.478 155.89C23.19 156.066 22.962 156.298 22.794 156.586C22.63 156.874 22.55 157.188 22.554 157.528H21.654C21.654 157.004 21.778 156.534 22.026 156.118C22.274 155.702 22.61 155.376 23.034 155.14C23.458 154.9 23.938 154.78 24.474 154.78C24.998 154.78 25.468 154.904 25.884 155.152C26.304 155.396 26.634 155.728 26.874 156.148C27.118 156.564 27.24 157.028 27.24 157.54C27.24 157.9 27.196 158.218 27.108 158.494C27.024 158.766 26.89 159.02 26.706 159.256C26.526 159.488 26.296 159.728 26.016 159.976L22.548 163.108L22.41 162.748H27.24V163.594H21.6ZM30.6457 163.774C30.2177 163.774 29.8237 163.698 29.4637 163.546C29.1037 163.394 28.7937 163.178 28.5337 162.898C28.2737 162.614 28.0837 162.276 27.9637 161.884L28.8037 161.632C28.9477 162.06 29.1837 162.384 29.5118 162.604C29.8438 162.824 30.2178 162.93 30.6338 162.922C31.0178 162.914 31.3478 162.828 31.6238 162.664C31.9038 162.5 32.1178 162.272 32.2658 161.98C32.4138 161.688 32.4878 161.35 32.4878 160.966C32.4878 160.378 32.3158 159.906 31.9718 159.55C31.6318 159.19 31.1818 159.01 30.6217 159.01C30.4657 159.01 30.3018 159.032 30.1297 159.076C29.9578 159.116 29.7978 159.174 29.6498 159.25L29.2057 158.548L32.5658 155.446L32.7098 155.806H28.3057V154.96H33.2978V155.818L30.3698 158.614L30.3578 158.266C30.9577 158.19 31.4857 158.258 31.9418 158.47C32.3978 158.682 32.7538 159.006 33.0098 159.442C33.2698 159.874 33.3998 160.382 33.3998 160.966C33.3998 161.518 33.2798 162.006 33.0398 162.43C32.8038 162.85 32.4778 163.18 32.0617 163.42C31.6458 163.656 31.1738 163.774 30.6457 163.774ZM35.0766 162.64V161.614H36.1026V162.64H35.0766ZM35.0826 159.106V158.08H36.1086V159.106H35.0826ZM40.3725 163.78C39.9245 163.78 39.5105 163.688 39.1305 163.504C38.7505 163.32 38.4265 163.066 38.1585 162.742C37.8905 162.418 37.6985 162.046 37.5825 161.626L38.4285 161.398C38.5045 161.71 38.6425 161.98 38.8425 162.208C39.0425 162.432 39.2765 162.606 39.5445 162.73C39.8165 162.854 40.1005 162.916 40.3965 162.916C40.7805 162.916 41.1245 162.824 41.4285 162.64C41.7365 162.452 41.9805 162.204 42.1605 161.896C42.3405 161.588 42.4305 161.25 42.4305 160.882C42.4305 160.502 42.3365 160.16 42.1485 159.856C41.9605 159.548 41.7125 159.304 41.4045 159.124C41.0965 158.944 40.7605 158.854 40.3965 158.854C39.9885 158.854 39.6365 158.944 39.3405 159.124C39.0445 159.3 38.8085 159.522 38.6325 159.79L37.8285 159.454L38.0925 154.96H42.7065V155.806H38.4825L38.9205 155.392L38.6865 159.226L38.4645 158.932C38.7125 158.648 39.0125 158.426 39.3645 158.266C39.7165 158.106 40.0865 158.026 40.4745 158.026C41.0065 158.026 41.4865 158.154 41.9145 158.41C42.3425 158.662 42.6825 159.004 42.9345 159.436C43.1865 159.868 43.3125 160.35 43.3125 160.882C43.3125 161.41 43.1785 161.894 42.9105 162.334C42.6425 162.77 42.2865 163.12 41.8425 163.384C41.3985 163.648 40.9085 163.78 40.3725 163.78ZM47.2323 154.786C47.7763 154.786 48.2683 154.918 48.7083 155.182C49.1523 155.442 49.5043 155.798 49.7643 156.25C50.0243 156.698 50.1543 157.202 50.1543 157.762V160.762C50.1543 161.338 50.0243 161.854 49.7643 162.31C49.5043 162.766 49.1483 163.126 48.6963 163.39C48.2483 163.65 47.7383 163.78 47.1663 163.78C46.6743 163.78 46.2183 163.672 45.7983 163.456C45.3823 163.236 45.0383 162.934 44.7663 162.55L45.4383 161.992C45.6223 162.276 45.8663 162.504 46.1703 162.676C46.4783 162.848 46.8103 162.934 47.1663 162.934C47.5743 162.934 47.9343 162.838 48.2463 162.646C48.5623 162.45 48.8103 162.194 48.9903 161.878C49.1743 161.558 49.2663 161.212 49.2663 160.84V158.956L49.4823 159.208C49.2343 159.604 48.9043 159.924 48.4923 160.168C48.0843 160.412 47.6363 160.534 47.1483 160.534C46.6163 160.534 46.1343 160.406 45.7023 160.15C45.2743 159.894 44.9343 159.55 44.6823 159.118C44.4343 158.686 44.3103 158.204 44.3103 157.672C44.3103 157.14 44.4423 156.656 44.7063 156.22C44.9703 155.78 45.3243 155.432 45.7683 155.176C46.2123 154.916 46.7003 154.786 47.2323 154.786ZM47.2323 155.638C46.8563 155.638 46.5143 155.73 46.2063 155.914C45.8983 156.094 45.6523 156.338 45.4683 156.646C45.2883 156.954 45.1983 157.296 45.1983 157.672C45.1983 158.048 45.2883 158.39 45.4683 158.698C45.6483 159.006 45.8923 159.252 46.2003 159.436C46.5083 159.616 46.8503 159.706 47.2263 159.706C47.6023 159.706 47.9443 159.616 48.2523 159.436C48.5643 159.252 48.8103 159.006 48.9903 158.698C49.1743 158.39 49.2663 158.048 49.2663 157.672C49.2663 157.3 49.1743 156.96 48.9903 156.652C48.8103 156.344 48.5663 156.098 48.2583 155.914C47.9503 155.73 47.6083 155.638 47.2323 155.638ZM53.308 155.416V156.256H64.036V155.416H53.308ZM54.544 159.28V159.988H57.904V159.28H54.544ZM54.544 161.2V161.908H57.904V161.2H54.544ZM59.908 157.432V162.364H60.76V157.432H59.908ZM57.58 157.324V163.516C57.58 163.672 57.532 163.72 57.364 163.732C57.196 163.744 56.644 163.744 56.044 163.72C56.164 163.948 56.296 164.284 56.344 164.512C57.16 164.512 57.688 164.512 58.012 164.368C58.348 164.224 58.456 163.984 58.456 163.528V157.324H57.58ZM62.344 157.072V163.444C62.344 163.612 62.284 163.66 62.092 163.672C61.888 163.684 61.24 163.684 60.508 163.66C60.64 163.9 60.784 164.284 60.832 164.524C61.768 164.524 62.368 164.5 62.74 164.368C63.112 164.224 63.232 163.972 63.232 163.444V157.072H62.344ZM55.168 153.82C55.624 154.336 56.116 155.068 56.308 155.524L57.196 155.2C56.968 154.732 56.464 154.024 55.996 153.508L55.168 153.82ZM61.336 153.472C61.036 154.12 60.496 155.044 60.064 155.62L60.856 155.92C61.3 155.356 61.84 154.528 62.296 153.784L61.336 153.472ZM54.064 157.324V164.5H54.916V158.104H57.868V157.324H54.064Z" fill="#3D3B3B"/>
<g filter="url(#filter2_f_1272_913)">
<circle cx="43" cy="257" r="40" fill="url(#paint3_linear_1272_913)"/>
</g>
<path d="M19.346 252.199V244.741L17.72 245.725V244.531L19.346 243.559H20.432V252.199H19.346ZM25.871 252.379C25.311 252.379 24.811 252.253 24.371 252.001C23.935 251.745 23.589 251.399 23.333 250.963C23.081 250.523 22.955 250.023 22.955 249.463V246.295C22.955 245.735 23.081 245.235 23.333 244.795C23.589 244.355 23.935 244.009 24.371 243.757C24.811 243.505 25.311 243.379 25.871 243.379C26.431 243.379 26.931 243.505 27.371 243.757C27.811 244.009 28.157 244.355 28.409 244.795C28.661 245.235 28.787 245.735 28.787 246.295V249.463C28.787 250.023 28.661 250.523 28.409 250.963C28.157 251.399 27.811 251.745 27.371 252.001C26.931 252.253 26.431 252.379 25.871 252.379ZM25.871 251.353C26.211 251.353 26.519 251.271 26.795 251.107C27.071 250.943 27.291 250.723 27.455 250.447C27.619 250.167 27.701 249.859 27.701 249.523V246.229C27.701 245.889 27.619 245.581 27.455 245.305C27.291 245.029 27.071 244.809 26.795 244.645C26.519 244.481 26.211 244.399 25.871 244.399C25.535 244.399 25.227 244.481 24.947 244.645C24.671 244.809 24.451 245.029 24.287 245.305C24.123 245.581 24.041 245.889 24.041 246.229V249.523C24.041 249.859 24.123 250.167 24.287 250.447C24.451 250.723 24.671 250.943 24.947 251.107C25.227 251.271 25.535 251.353 25.871 251.353ZM32.8907 243.559H33.9767L31.6727 252.199H30.5867L32.8907 243.559ZM36.2308 252.199L39.3388 244.585H35.4148V243.559H40.4848V244.585L37.3828 252.199H36.2308ZM49.6672 247.639C49.6672 249.991 50.6152 251.887 52.0552 253.351L52.7752 252.979C51.3832 251.551 50.5312 249.787 50.5312 247.639C50.5312 245.503 51.3832 243.739 52.7752 242.311L52.0552 241.939C50.6152 243.403 49.6672 245.299 49.6672 247.639ZM54.9952 243.295V244.183H64.0672V243.295H54.9952ZM54.2392 251.611V252.511H64.9192V251.611H54.2392ZM58.5112 243.607C58.1032 246.283 57.3592 250.003 56.7952 252.163H57.8032C58.3072 250.063 59.0392 246.355 59.5072 243.607H58.5112ZM55.4632 246.823V247.711H62.0032V252.019H62.9272V246.823H55.4632ZM69.4552 247.639C69.4552 245.299 68.5072 243.403 67.0672 241.939L66.3472 242.311C67.7392 243.739 68.5912 245.503 68.5912 247.639C68.5912 249.787 67.7392 251.551 66.3472 252.979L67.0672 253.351C68.5072 251.887 69.4552 249.991 69.4552 247.639ZM17.6 270.193L17.606 269.233L21.44 265.783C21.76 265.495 21.974 265.223 22.082 264.967C22.194 264.707 22.25 264.441 22.25 264.169C22.25 263.837 22.174 263.537 22.022 263.269C21.87 263.001 21.662 262.789 21.398 262.633C21.138 262.477 20.842 262.399 20.51 262.399C20.166 262.399 19.86 262.481 19.592 262.645C19.324 262.805 19.112 263.019 18.956 263.287C18.804 263.555 18.73 263.847 18.734 264.163H17.642C17.642 263.619 17.768 263.139 18.02 262.723C18.272 262.303 18.614 261.975 19.046 261.739C19.482 261.499 19.976 261.379 20.528 261.379C21.064 261.379 21.544 261.503 21.968 261.751C22.392 261.995 22.726 262.329 22.97 262.753C23.218 263.173 23.342 263.649 23.342 264.181C23.342 264.557 23.294 264.883 23.198 265.159C23.106 265.435 22.962 265.691 22.766 265.927C22.57 266.159 22.324 266.407 22.028 266.671L18.842 269.533L18.704 269.173H23.342V270.193H17.6ZM27.3875 270.367C26.9595 270.367 26.5615 270.289 26.1935 270.133C25.8255 269.973 25.5075 269.749 25.2395 269.461C24.9755 269.169 24.7815 268.823 24.6575 268.423L25.6835 268.129C25.8155 268.529 26.0355 268.833 26.3435 269.041C26.6515 269.249 26.9975 269.351 27.3815 269.347C27.7335 269.339 28.0375 269.259 28.2935 269.107C28.5535 268.951 28.7535 268.739 28.8935 268.471C29.0375 268.203 29.1095 267.893 29.1095 267.541C29.1095 267.005 28.9495 266.571 28.6295 266.239C28.3095 265.903 27.8895 265.735 27.3695 265.735C27.2255 265.735 27.0735 265.755 26.9135 265.795C26.7575 265.835 26.6115 265.891 26.4755 265.963L25.9595 265.117L29.1635 262.219L29.3015 262.579H24.9995V261.559H30.0935V262.585L27.3635 265.201L27.3515 264.823C27.9235 264.783 28.4235 264.877 28.8515 265.105C29.2795 265.333 29.6115 265.659 29.8475 266.083C30.0875 266.507 30.2075 266.993 30.2075 267.541C30.2075 268.093 30.0835 268.581 29.8355 269.005C29.5875 269.429 29.2515 269.763 28.8275 270.007C28.4035 270.247 27.9235 270.367 27.3875 270.367ZM32.4875 269.299V268.123H33.6635V269.299H32.4875ZM32.4935 265.795V264.619H33.6695V265.795H32.4935ZM38.5652 270.379C38.1212 270.379 37.7072 270.287 37.3232 270.103C36.9432 269.919 36.6172 269.667 36.3452 269.347C36.0772 269.023 35.8852 268.651 35.7692 268.231L36.7952 267.955C36.8672 268.239 36.9952 268.485 37.1792 268.693C37.3632 268.897 37.5772 269.057 37.8212 269.173C38.0692 269.285 38.3272 269.341 38.5952 269.341C38.9472 269.341 39.2632 269.257 39.5432 269.089C39.8272 268.917 40.0512 268.691 40.2152 268.411C40.3792 268.127 40.4612 267.817 40.4612 267.481C40.4612 267.133 40.3752 266.819 40.2032 266.539C40.0352 266.255 39.8092 266.031 39.5252 265.867C39.2412 265.703 38.9312 265.621 38.5952 265.621C38.2152 265.621 37.8892 265.701 37.6172 265.861C37.3492 266.017 37.1372 266.209 36.9812 266.437L36.0332 266.077L36.2972 261.559H40.9352V262.573H36.8132L37.2872 262.129L37.0652 265.747L36.8312 265.441C37.0712 265.185 37.3572 264.987 37.6892 264.847C38.0252 264.707 38.3672 264.637 38.7152 264.637C39.2512 264.637 39.7312 264.763 40.1552 265.015C40.5792 265.263 40.9152 265.603 41.1632 266.035C41.4112 266.463 41.5352 266.945 41.5352 267.481C41.5352 268.013 41.3992 268.499 41.1272 268.939C40.8552 269.375 40.4932 269.725 40.0412 269.989C39.5932 270.249 39.1012 270.379 38.5652 270.379ZM46.0362 261.385C46.5882 261.385 47.0862 261.517 47.5302 261.781C47.9742 262.045 48.3262 262.405 48.5862 262.861C48.8502 263.317 48.9822 263.835 48.9822 264.415V267.289C48.9822 267.893 48.8522 268.427 48.5922 268.891C48.3322 269.355 47.9722 269.719 47.5122 269.983C47.0562 270.247 46.5322 270.379 45.9402 270.379C45.4682 270.379 45.0262 270.281 44.6142 270.085C44.2062 269.889 43.8602 269.611 43.5762 269.251L44.3742 268.543C44.5502 268.791 44.7762 268.991 45.0522 269.143C45.3282 269.291 45.6242 269.365 45.9402 269.365C46.3242 269.365 46.6622 269.273 46.9542 269.089C47.2502 268.905 47.4802 268.665 47.6442 268.369C47.8122 268.073 47.8962 267.753 47.8962 267.409V265.675L48.1302 265.939C47.8822 266.299 47.5642 266.587 47.1762 266.803C46.7882 267.019 46.3662 267.127 45.9102 267.127C45.3742 267.127 44.8942 267.001 44.4702 266.749C44.0462 266.497 43.7102 266.157 43.4622 265.729C43.2142 265.297 43.0902 264.813 43.0902 264.277C43.0902 263.741 43.2242 263.255 43.4922 262.819C43.7602 262.379 44.1162 262.031 44.5602 261.775C45.0082 261.515 45.5002 261.385 46.0362 261.385ZM46.0362 262.417C45.6922 262.417 45.3782 262.501 45.0942 262.669C44.8142 262.833 44.5902 263.057 44.4222 263.341C44.2542 263.621 44.1702 263.933 44.1702 264.277C44.1702 264.621 44.2522 264.935 44.4162 265.219C44.5842 265.499 44.8082 265.723 45.0882 265.891C45.3722 266.059 45.6862 266.143 46.0302 266.143C46.3742 266.143 46.6882 266.059 46.9722 265.891C47.2562 265.723 47.4802 265.499 47.6442 265.219C47.8122 264.935 47.8962 264.621 47.8962 264.277C47.8962 263.937 47.8122 263.627 47.6442 263.347C47.4802 263.063 47.2562 262.837 46.9722 262.669C46.6922 262.501 46.3802 262.417 46.0362 262.417ZM53.3416 262.015V262.855H64.0696V262.015H53.3416ZM54.5776 265.879V266.587H57.9376V265.879H54.5776ZM54.5776 267.799V268.507H57.9376V267.799H54.5776ZM59.9416 264.031V268.963H60.7936V264.031H59.9416ZM57.6136 263.923V270.115C57.6136 270.271 57.5656 270.319 57.3976 270.331C57.2296 270.343 56.6776 270.343 56.0776 270.319C56.1976 270.547 56.3296 270.883 56.3776 271.111C57.1936 271.111 57.7216 271.111 58.0456 270.967C58.3816 270.823 58.4896 270.583 58.4896 270.127V263.923H57.6136ZM62.3776 263.671V270.043C62.3776 270.211 62.3176 270.259 62.1256 270.271C61.9216 270.283 61.2736 270.283 60.5416 270.259C60.6736 270.499 60.8176 270.883 60.8656 271.123C61.8016 271.123 62.4016 271.099 62.7736 270.967C63.1456 270.823 63.2656 270.571 63.2656 270.043V263.671H62.3776ZM55.2016 260.419C55.6576 260.935 56.1496 261.667 56.3416 262.123L57.2296 261.799C57.0016 261.331 56.4976 260.623 56.0296 260.107L55.2016 260.419ZM61.3696 260.071C61.0696 260.719 60.5296 261.643 60.0976 262.219L60.8896 262.519C61.3336 261.955 61.8736 261.127 62.3296 260.383L61.3696 260.071ZM54.0976 263.923V271.099H54.9496V264.703H57.9016V263.923H54.0976Z" fill="#3D3B3B"/>
<defs>
<filter id="filter0_f_1272_913" x="0" y="0" width="86" height="86" filterUnits="userSpaceOnUse" color-interpolation-filters="sRGB">
<feFlood flood-opacity="0" result="BackgroundImageFix"/>
<feBlend mode="normal" in="SourceGraphic" in2="BackgroundImageFix" result="shape"/>
<feGaussianBlur stdDeviation="1.5" result="effect1_foregroundBlur_1272_913"/>
</filter>
<filter id="filter1_f_1272_913" x="0" y="107" width="86" height="86" filterUnits="userSpaceOnUse" color-interpolation-filters="sRGB">
<feFlood flood-opacity="0" result="BackgroundImageFix"/>
<feBlend mode="normal" in="SourceGraphic" in2="BackgroundImageFix" result="shape"/>
<feGaussianBlur stdDeviation="1.5" result="effect1_foregroundBlur_1272_913"/>
</filter>
<filter id="filter2_f_1272_913" x="0" y="214" width="86" height="86" filterUnits="userSpaceOnUse" color-interpolation-filters="sRGB">
<feFlood flood-opacity="0" result="BackgroundImageFix"/>
<feBlend mode="normal" in="SourceGraphic" in2="BackgroundImageFix" result="shape"/>
<feGaussianBlur stdDeviation="1.5" result="effect1_foregroundBlur_1272_913"/>
</filter>
<linearGradient id="paint0_linear_1272_913" x1="40" y1="42.5371" x2="36.0669" y2="42.5578" gradientUnits="userSpaceOnUse">
<stop stop-color="#FF85B9"/>
<stop offset="1" stop-color="#7880D2"/>
</linearGradient>
<linearGradient id="paint1_linear_1272_913" x1="-8.2" y1="16.8667" x2="83" y2="56.8667" gradientUnits="userSpaceOnUse">
<stop stop-color="#EB68A1"/>
<stop offset="1" stop-color="#97D2CC"/>
</linearGradient>
<linearGradient id="paint2_linear_1272_913" x1="-8.2" y1="123.867" x2="83" y2="163.867" gradientUnits="userSpaceOnUse">
<stop stop-color="#EB68A1"/>
<stop offset="1" stop-color="#97D2CC"/>
</linearGradient>
<linearGradient id="paint3_linear_1272_913" x1="-8.2" y1="230.867" x2="83" y2="270.867" gradientUnits="userSpaceOnUse">
<stop stop-color="#EB68A1"/>
<stop offset="1" stop-color="#97D2CC"/>
</linearGradient>
</defs>
</svg>
