<svg width="194" height="50" viewBox="0 0 194 50" fill="none" xmlns="http://www.w3.org/2000/svg">
<path fill-rule="evenodd" clip-rule="evenodd" d="M177.177 49H1V1H193.222V44.487L177.177 49Z" fill="#FFFDFD" fill-opacity="0.19"/>
<path d="M177.177 49L177.312 49.4813L177.245 49.5H177.177V49ZM1 49V49.5H0.5V49H1ZM1 1H0.5V0.5H1V1ZM193.222 1V0.5H193.722V1H193.222ZM193.222 44.487H193.722V44.8658L193.357 44.9683L193.222 44.487ZM177.177 49.5H1V48.5H177.177V49.5ZM0.5 49V1H1.5V49H0.5ZM1 0.5H193.222V1.5H1V0.5ZM193.722 1V44.487H192.722V1H193.722ZM193.357 44.9683L177.312 49.4813L177.041 48.5187L193.087 44.0057L193.357 44.9683Z" fill="url(#paint0_linear_1066_864)"/>
<defs>
<linearGradient id="paint0_linear_1066_864" x1="25.0277" y1="51.2527" x2="45.711" y2="-43.1769" gradientUnits="userSpaceOnUse">
<stop offset="0.148903" stop-color="#ABF0EA"/>
<stop offset="1" stop-color="#4F9ACD"/>
</linearGradient>
</defs>
</svg>
