<svg id="Logo" xmlns="http://www.w3.org/2000/svg" viewBox="0 0 235.21 165.94"><defs><style>.cls-1{fill:#03234b;}</style></defs><title>ST_邊框變小</title><path class="cls-1" d="M73.17,155a6.39,6.39,0,1,1,0-12.78,6.34,6.34,0,0,1,6.24,6.42A6.23,6.23,0,0,1,73.17,155m6.12-11.83a7.39,7.39,0,0,0-6.13-3,8.45,8.45,0,1,0,0,16.9,7.47,7.47,0,0,0,6.13-3v2.63h2.27V140.6H79.29Z"/><path class="cls-1" d="M97.85,149.11c0,2.82-.77,3.82-1.62,4.68A4.39,4.39,0,0,1,93,155a4.58,4.58,0,0,1-3.6-1.47,6.46,6.46,0,0,1-1.11-4.11V140.6H86v8.89a8.12,8.12,0,0,0,1.42,5.18,6.82,6.82,0,0,0,5.55,2.42,5.48,5.48,0,0,0,5-2.62v2.22h2.15v-16.1H97.84v8.52Z"/><path class="cls-1" d="M111.08,155a6.39,6.39,0,1,1,6.18-6.36c0,2.56-2,6.36-6.18,6.36m6.07-11.77a7.33,7.33,0,0,0-6.07-3.07,8.49,8.49,0,0,0-8.42,8.54,8.41,8.41,0,0,0,8.42,8.36c2,0,4.76-.83,6.07-3.07v1.07c0,4.28-3,5.81-5.63,5.81a6.05,6.05,0,0,1-5.84-3.93l0-.08h-2.39l0,.15c1.61,5.5,6.72,5.92,8.24,5.92.43,0,4.31-.08,6.4-3a9.16,9.16,0,0,0,1.47-5.88V140.59h-2.27v2.64Z"/><path class="cls-1" d="M140,140.18a6.21,6.21,0,0,0-5.34,2.91,6.23,6.23,0,0,0-5.35-2.91,5.29,5.29,0,0,0-4.21,2v-1.55h-2.27v16.12h2.27v-9.32a6,6,0,0,1,.71-3.25,4.19,4.19,0,0,1,7,0,6,6,0,0,1,.71,3.25v9.32h2.27v-9.32a6,6,0,0,1,.71-3.25,4.19,4.19,0,0,1,7,0,6,6,0,0,1,.71,3.25v9.32h2.27v-9.56c0-5.5-4.07-7-6.48-7"/><path class="cls-1" d="M151.5,147.43a6.13,6.13,0,0,1,12.11,0Zm6-7.26a8.54,8.54,0,0,0-8.36,8.48,8.38,8.38,0,0,0,16.31,2.77l.06-.16h-2.4l0,.08a5.89,5.89,0,0,1-5.58,3.67,6.21,6.21,0,0,1-6-5.51h14.45v-.11a8.51,8.51,0,0,0-1.23-5.09,8.38,8.38,0,0,0-7.2-4.13"/><path class="cls-1" d="M176.07,140.18a5.86,5.86,0,0,0-4.82,2.26v-1.86H169V156.7h2.27v-8.86a5.72,5.72,0,0,1,1.45-4.27,5,5,0,0,1,3.37-1.33,5,5,0,0,1,3.37,1.33,5.87,5.87,0,0,1,1.47,4.27v8.86h2.27v-8.86a7.7,7.7,0,0,0-2-5.69,6.67,6.67,0,0,0-5.1-2"/><polygon class="cls-1" points="191.28 134.97 189.01 134.97 189.01 140.59 185.69 140.59 185.69 142.66 189.01 142.66 189.01 156.71 191.28 156.71 191.28 142.66 195.09 142.66 195.09 140.59 191.28 140.59 191.28 134.97"/><path class="cls-1" d="M198.74,147.42a6.13,6.13,0,0,1,12.12,0Zm6-7.26a8.54,8.54,0,0,0-8.36,8.48,8.38,8.38,0,0,0,16.31,2.77l.06-.16h-2.4l0,.08a5.88,5.88,0,0,1-5.58,3.67,6.22,6.22,0,0,1-6-5.51h14.45v-.11a8.51,8.51,0,0,0-1.23-5.09,8.39,8.39,0,0,0-7.2-4.13"/><path class="cls-1" d="M224.09,155a6.39,6.39,0,1,1,0-12.77,6.34,6.34,0,0,1,6.24,6.42,6.23,6.23,0,0,1-6.24,6.35m6.12-20v8.17a7.72,7.72,0,0,0-6.13-3,8.45,8.45,0,1,0,0,16.9,7.62,7.62,0,0,0,6.13-3v2.62h2.27V135h-2.27Z"/><rect class="cls-1" x="15.39" y="134.42" width="2.16" height="3.24"/><polygon class="cls-1" points="8.04 134.98 3.33 134.98 3.33 137.01 5.88 137.01 5.88 154.67 3.15 154.67 3.15 156.7 10.56 156.7 10.56 154.67 8.04 154.67 8.04 134.98"/><polygon class="cls-1" points="18.07 140.59 13.36 140.59 13.36 142.63 15.91 142.63 15.91 154.67 13.29 154.67 13.29 156.7 20.61 156.7 20.61 154.67 18.07 154.67 18.07 140.59"/><path class="cls-1" d="M27,136c-1.41,1.26-1.46,2.71-1.52,4.47v.11H22.87v2.09h2.59v12H22.87v2h7.35v-2H27.61v-12h2.61v-2.09H27.61v-.35c0-1.16.05-2.17,1-2.9a3.58,3.58,0,0,1,2.05-.73h.11v-1.95h-.12A5.76,5.76,0,0,0,27,136"/><path class="cls-1" d="M35.42,147.75a6.12,6.12,0,0,1,12.09,0Zm5.9-7.16A8.23,8.23,0,1,0,49,152.21L49,152H46.69l0,.06a6.07,6.07,0,0,1-11.25-2.51H49.6v-.71a8.19,8.19,0,0,0-8.28-8.29"/><path class="cls-1" d="M57,157.13a2.79,2.79,0,1,0-2.79-2.79A2.79,2.79,0,0,0,57,157.13"/><path class="cls-1" d="M230.85,2.19H74.12A29,29,0,0,0,47.57,19.46L16.63,94a1.61,1.61,0,0,0-.13.63,1.64,1.64,0,0,0,1.64,1.62H88.91c5,0,7.22-4.84,3.3-8.71l-26-24.32c-13.66-13.39-7.8-44.44,20.57-44.44H225.34a1.64,1.64,0,0,0,1.55-1.09l5.48-13.25a1.59,1.59,0,0,0,.12-.62A1.62,1.62,0,0,0,230.85,2.19Z"/><path class="cls-1" d="M215.24,40.12l-26.61,0a4.3,4.3,0,0,0-4,2.63l-29.81,72a1.58,1.58,0,0,0-.19.75,1.63,1.63,0,0,0,1.64,1.61h9.93A29,29,0,0,0,193,99.49l0,0,23.69-57.19a1.73,1.73,0,0,0,.12-.6A1.62,1.62,0,0,0,215.24,40.12Z"/><path class="cls-1" d="M162.94,41.74a1.63,1.63,0,0,0-1.64-1.62H85.87c-4.09,0-7.67,5-3.34,9l24.92,23.19s10.09,9.3,7.93,22.61c-1.91,11.72-9.9,18.89-15.69,21.47h0a.4.4,0,0,0,.18.77h29.07a4.29,4.29,0,0,0,4-2.63l29.92-72.24A1.39,1.39,0,0,0,162.94,41.74Z"/></svg>