<svg xmlns="http://www.w3.org/2000/svg" viewBox="0 0 238.64 89.19"><defs><style>.cls-1{isolation:isolate;}.cls-2{mix-blend-mode:multiply;}.cls-3,.cls-4{fill:#fff;}.cls-3{opacity:0;}.cls-4{opacity:0;}.cls-5,.cls-6{fill:#fefefe;}.cls-5{opacity:0.01;}.cls-6{opacity:0.01;}.cls-7,.cls-8{fill:#fdfdfd;}.cls-7{opacity:0.01;}.cls-8{opacity:0.01;}.cls-9{fill:#fcfcfc;opacity:0.02;}.cls-10,.cls-11{fill:#fbfbfb;}.cls-10{opacity:0.02;}.cls-11{opacity:0.02;}.cls-12{fill:#fafafa;opacity:0.03;}.cls-13,.cls-14{fill:#f9f9f9;}.cls-13{opacity:0.03;}.cls-14{opacity:0.03;}.cls-15{fill:#f8f8f8;opacity:0.04;}.cls-16,.cls-17{fill:#f7f7f7;}.cls-16{opacity:0.04;}.cls-17{opacity:0.04;}.cls-18{fill:#f6f6f6;opacity:0.04;}.cls-19{fill:#f5f5f6;opacity:0.05;}.cls-20{fill:#f5f5f5;opacity:0.05;}.cls-21{fill:#f4f4f4;opacity:0.05;}.cls-22{fill:#f3f3f4;opacity:0.06;}.cls-23{fill:#f3f3f3;opacity:0.06;}.cls-24{fill:#f2f2f2;opacity:0.06;}.cls-25{fill:#f1f1f2;opacity:0.06;}.cls-26{fill:#f0f1f1;opacity:0.07;}.cls-27{fill:#f0f0f0;opacity:0.07;}.cls-28{fill:#efeff0;opacity:0.07;}.cls-29{fill:#eeefef;opacity:0.08;}.cls-30{fill:#eee;opacity:0.08;}.cls-31{fill:#ededee;opacity:0.08;}.cls-32{fill:#eceded;opacity:0.09;}.cls-33{fill:#ececec;opacity:0.09;}.cls-34{fill:#ebebeb;opacity:0.09;}.cls-35{fill:#eaebeb;opacity:0.09;}.cls-36{fill:#e9eaea;opacity:0.1;}.cls-37{fill:#e9e9e9;opacity:0.1;}.cls-38{fill:#e8e8e9;opacity:0.1;}.cls-39{fill:#e7e8e8;opacity:0.11;}.cls-40{fill:#e7e7e7;opacity:0.11;}.cls-41{fill:#e6e6e7;opacity:0.11;}.cls-42{fill:#e5e6e6;opacity:0.11;}.cls-43{fill:#e4e5e5;opacity:0.12;}.cls-44{fill:#e4e4e4;opacity:0.12;}.cls-45{fill:#e3e3e4;opacity:0.12;}.cls-46{fill:#e2e3e3;opacity:0.13;}.cls-47{fill:#e2e2e2;opacity:0.13;}.cls-48{fill:#e1e1e2;opacity:0.13;}.cls-49{fill:#e0e1e1;opacity:0.14;}.cls-50{fill:#dfe0e0;opacity:0.14;}.cls-51{fill:#dfdfdf;opacity:0.14;}.cls-52{fill:#dededf;opacity:0.14;}.cls-53{fill:#dddede;opacity:0.15;}.cls-54{fill:#dcdddd;opacity:0.15;}.cls-55{fill:#dcdcdd;opacity:0.15;}.cls-56{fill:#dbdbdc;opacity:0.16;}.cls-57{fill:#dadbdb;opacity:0.16;}.cls-58{fill:#d9dada;opacity:0.16;}.cls-59{fill:#d9d9da;opacity:0.16;}.cls-60{fill:#d8d8d9;opacity:0.17;}.cls-61{fill:#d7d8d8;opacity:0.17;}.cls-62{fill:#d6d7d7;opacity:0.17;}.cls-63{fill:#d6d6d7;opacity:0.18;}.cls-64{fill:#d5d5d6;opacity:0.18;}.cls-65{fill:#d4d5d5;opacity:0.18;}.cls-66{fill:#d3d4d4;opacity:0.19;}.cls-67{fill:#d3d3d4;opacity:0.19;}.cls-68{fill:#d2d2d3;opacity:0.19;}.cls-69{fill:#d1d2d2;opacity:0.19;}.cls-70{fill:#d0d1d1;opacity:0.2;}.cls-71{fill:#d0d0d1;opacity:0.2;}.cls-72{fill:#cfcfd0;opacity:0.2;}.cls-73{fill:#cecfcf;opacity:0.21;}.cls-74{fill:#cdcece;opacity:0.21;}.cls-75{fill:#cdcdce;opacity:0.21;}.cls-76{fill:#cccccd;opacity:0.21;}.cls-77{fill:#cbcccc;opacity:0.22;}.cls-78{fill:#cacbcb;opacity:0.22;}.cls-79{fill:#c9cacb;opacity:0.22;}.cls-80{fill:#c9c9ca;opacity:0.23;}.cls-81{fill:#c8c9c9;opacity:0.23;}.cls-82{fill:#c7c8c8;opacity:0.23;}.cls-83{fill:#c6c7c8;opacity:0.24;}.cls-84{fill:#c6c6c7;opacity:0.24;}.cls-85{fill:#c5c5c6;opacity:0.24;}.cls-86{fill:#c4c5c5;opacity:0.24;}.cls-87{fill:#c3c4c4;opacity:0.25;}.cls-88{fill:#c2c3c4;opacity:0.25;}.cls-89{fill:#c2c2c3;opacity:0.25;}.cls-90{fill:#c1c2c2;opacity:0.26;}.cls-91{fill:#c0c1c1;opacity:0.26;}.cls-92{fill:#bfc0c0;opacity:0.26;}.cls-93{fill:#bebfc0;opacity:0.26;}.cls-94{fill:#bebebf;opacity:0.27;}.cls-95{fill:#bdbebe;opacity:0.27;}.cls-96{fill:#bcbdbd;opacity:0.27;}.cls-97{fill:#bbbcbc;opacity:0.28;}.cls-98{fill:#babbbc;opacity:0.28;}.cls-99{fill:#bababb;opacity:0.28;}.cls-100{fill:#b9baba;opacity:0.29;}.cls-101{fill:#b8b9b9;opacity:0.29;}.cls-102{fill:#b7b8b8;opacity:0.29;}.cls-103{fill:#b6b7b8;opacity:0.29;}.cls-104{fill:#b6b6b7;opacity:0.3;}.cls-105{fill:#b5b5b6;opacity:0.3;}.cls-106{fill:#b4b5b5;opacity:0.3;}.cls-107{fill:#b3b4b4;opacity:0.31;}.cls-108{fill:#b2b3b4;opacity:0.31;}.cls-109{fill:#b2b2b3;opacity:0.31;}.cls-110{fill:#b1b1b2;opacity:0.31;}.cls-111{fill:#b0b0b1;opacity:0.32;}.cls-112{fill:#afb0b0;opacity:0.32;}.cls-113{fill:#aeafaf;opacity:0.32;}.cls-114{fill:#adaeaf;opacity:0.33;}.cls-115{fill:#adadae;opacity:0.33;}.cls-116{fill:#acacad;opacity:0.33;}.cls-117{fill:#ababac;opacity:0.34;}.cls-118{fill:#aaabab;opacity:0.34;}.cls-119{fill:#a9aaaa;opacity:0.34;}.cls-120{fill:#a8a9a9;opacity:0.34;}.cls-121{fill:#a7a8a9;opacity:0.35;}.cls-122{fill:#a7a7a8;opacity:0.35;}.cls-123{fill:#a6a6a7;opacity:0.35;}.cls-124{fill:#a5a5a6;opacity:0.36;}.cls-125{fill:#a4a5a5;opacity:0.36;}.cls-126{fill:#a3a4a4;opacity:0.36;}.cls-127{fill:#a2a3a3;opacity:0.36;}.cls-128{fill:#a1a2a2;opacity:0.37;}.cls-129{fill:#a1a1a2;opacity:0.37;}.cls-130{fill:#a0a0a1;opacity:0.37;}.cls-131{fill:#9f9fa0;opacity:0.38;}.cls-132{fill:#9e9e9f;opacity:0.38;}.cls-133{fill:#9d9d9e;opacity:0.38;}.cls-134{fill:#9c9d9d;opacity:0.39;}.cls-135{fill:#9b9c9c;opacity:0.39;}.cls-136{fill:#9a9b9b;opacity:0.39;}.cls-137{fill:#9a9a9a;opacity:0.39;}.cls-138{fill:#999;opacity:0.4;}.cls-139{fill:#989899;opacity:0.4;}.cls-140{fill:#979798;opacity:0.4;}.cls-141{fill:#969697;opacity:0.41;}.cls-142{fill:#959596;opacity:0.41;}.cls-143{fill:#949495;opacity:0.41;}.cls-144{fill:#939494;opacity:0.41;}.cls-145{fill:#939393;opacity:0.42;}.cls-146{fill:#929292;opacity:0.42;}.cls-147{fill:#919191;opacity:0.42;}.cls-148{fill:#909090;opacity:0.43;}.cls-149{fill:#8f8f8f;opacity:0.43;}.cls-150{fill:#8e8e8f;opacity:0.43;}.cls-151{fill:#8d8d8e;opacity:0.44;}.cls-152{fill:#8c8c8d;opacity:0.44;}.cls-153{fill:#8b8b8c;opacity:0.44;}.cls-154{fill:#8a8b8b;opacity:0.44;}.cls-155{fill:#8a8a8a;opacity:0.45;}.cls-156{fill:#898989;opacity:0.45;}.cls-157{fill:#888;opacity:0.45;}.cls-158{fill:#878787;opacity:0.46;}.cls-159{fill:#868686;opacity:0.46;}.cls-160{fill:#858585;opacity:0.46;}.cls-161{fill:#848484;opacity:0.46;}.cls-162{fill:#838383;opacity:0.47;}.cls-163{fill:#828283;opacity:0.47;}.cls-164{fill:#818182;opacity:0.47;}.cls-165{fill:#818081;opacity:0.48;}.cls-166{fill:#807f80;opacity:0.48;}.cls-167{fill:#7f7e7f;opacity:0.48;}.cls-168{fill:#7e7e7e;opacity:0.49;}.cls-169{fill:#7d7d7d;opacity:0.49;}.cls-170{fill:#7c7c7c;opacity:0.49;}.cls-171{fill:#7b7b7b;opacity:0.49;}.cls-172{fill:#7a7a7a;opacity:0.5;}.cls-173{fill:#797979;opacity:0.5;}.cls-174{fill:#787878;opacity:0.5;}.cls-175{fill:#787777;opacity:0.51;}.cls-176{fill:#777676;opacity:0.51;}.cls-177{fill:#767575;opacity:0.51;}.cls-178{fill:#757474;opacity:0.51;}.cls-179{fill:#747373;opacity:0.52;}.cls-180{fill:#737273;opacity:0.52;}.cls-181{fill:#727172;opacity:0.52;}.cls-182{fill:#717071;opacity:0.53;}.cls-183{fill:#706f70;opacity:0.53;}.cls-184{fill:#6f6f6f;opacity:0.53;}.cls-185{fill:#6e6e6e;opacity:0.54;}.cls-186{fill:#6d6d6d;opacity:0.54;}.cls-187{fill:#6d6c6c;opacity:0.54;}.cls-188{fill:#6c6b6b;opacity:0.54;}.cls-189{fill:#6b6a6a;opacity:0.55;}.cls-190{fill:#6a6969;opacity:0.55;}.cls-191{fill:#696868;opacity:0.55;}.cls-192{fill:#686767;opacity:0.56;}.cls-193{fill:#676666;opacity:0.56;}.cls-194{fill:#666565;opacity:0.56;}.cls-195{fill:#656464;opacity:0.56;}.cls-196{fill:#646363;opacity:0.57;}.cls-197{fill:#636262;opacity:0.57;}.cls-198{fill:#626161;opacity:0.57;}.cls-199{fill:#61605f;opacity:0.58;}.cls-200{fill:#605f5e;opacity:0.58;}.cls-201{fill:#5f5e5d;opacity:0.58;}.cls-202{fill:#5e5c5c;opacity:0.59;}.cls-203{fill:#5d5b5b;opacity:0.59;}.cls-204{fill:#5c5a5a;opacity:0.59;}.cls-205{fill:#5b5959;opacity:0.59;}.cls-206{fill:#5a5858;opacity:0.6;}.cls-207{fill:#595757;opacity:0.6;}.cls-208{fill:#585656;opacity:0.6;}.cls-209{fill:#575555;opacity:0.61;}.cls-210{fill:#565454;opacity:0.61;}.cls-211{fill:#555353;opacity:0.62;}.cls-212{fill:#545252;opacity:0.62;}.cls-213{fill:#535150;opacity:0.62;}.cls-214{fill:#52504f;opacity:0.63;}.cls-215{fill:#514f4e;opacity:0.63;}.cls-216{fill:#504d4d;opacity:0.63;}.cls-217{fill:#4f4c4c;opacity:0.64;}.cls-218{fill:#4e4b4b;opacity:0.64;}.cls-219{fill:#4d4a4a;opacity:0.65;}.cls-220{fill:#4c4948;opacity:0.65;}.cls-221{fill:#4b4847;opacity:0.65;}.cls-222{fill:#4a4746;opacity:0.66;}.cls-223{fill:#494645;opacity:0.66;}.cls-224{fill:#484444;opacity:0.67;}.cls-225{fill:#474343;opacity:0.67;}.cls-226{fill:#464242;opacity:0.67;}.cls-227{fill:#454140;opacity:0.68;}.cls-228{fill:#44403f;opacity:0.68;}.cls-229{fill:#433f3e;opacity:0.68;}.cls-230{fill:#423e3d;opacity:0.69;}.cls-231{fill:#413d3c;opacity:0.69;}.cls-232{fill:#3f3b3b;opacity:0.7;}.cls-233{fill:#3e3a39;opacity:0.7;}.cls-234{fill:#3d3938;opacity:0.7;}.cls-235{fill:#3c3837;opacity:0.71;}.cls-236{fill:#3b3735;opacity:0.71;}.cls-237{fill:#3a3534;opacity:0.72;}.cls-238{fill:#393332;opacity:0.72;}.cls-239{fill:#383230;opacity:0.72;}.cls-240{fill:#36302f;opacity:0.73;}.cls-241{fill:#352f2d;opacity:0.73;}.cls-242{fill:#342d2b;opacity:0.73;}.cls-243{fill:#332c2a;opacity:0.74;}.cls-244{fill:#312a28;opacity:0.74;}.cls-245{fill:#302926;opacity:0.75;}.cls-246{fill:#2f2725;opacity:0.75;}.cls-247{fill:#2e2523;opacity:0.75;}.cls-248{fill:#2c2422;opacity:0.76;}.cls-249{fill:#2b2220;opacity:0.76;}.cls-250{fill:#2a211e;opacity:0.77;}.cls-251{fill:#29201d;opacity:0.77;}.cls-252{fill:#281e1c;opacity:0.77;}.cls-253{fill:#271d1a;opacity:0.78;}.cls-254{fill:#261c19;opacity:0.78;}.cls-255{fill:#251b18;opacity:0.78;}.cls-256{fill:#241a17;opacity:0.79;}.cls-257{fill:#241916;opacity:0.79;}.cls-258{fill:#231916;opacity:0.8;}.cls-259,.cls-262{fill:#231815;}.cls-259{opacity:0.8;}.cls-260{fill:#e85298;}.cls-261{fill:#6b1685;}</style></defs><title>文曄科技 Logo [轉換]</title><g class="cls-1"><g id="圖層_1" data-name="圖層 1"><g class="cls-2"><path class="cls-3" d="M14.69,81.86c0,4.73,17.19,8.57,38.41,8.57s38.41-3.84,38.41-8.57-17.2-8.57-38.41-8.57S14.69,77.13,14.69,81.86Z"/><path class="cls-4" d="M91.38,81.85c0-4.72-17.16-8.54-38.32-8.54s-38.31,3.82-38.31,8.54S31.9,90.4,53.06,90.4,91.38,86.57,91.38,81.85Z"/><path class="cls-5" d="M91.25,81.85c0-4.71-17.12-8.52-38.22-8.52s-38.22,3.81-38.22,8.52S31.92,90.37,53,90.37,91.25,86.55,91.25,81.85Z"/><path class="cls-6" d="M91.12,81.84c0-4.69-17.07-8.49-38.13-8.49s-38.13,3.8-38.13,8.49,17.07,8.5,38.13,8.5S91.12,86.53,91.12,81.84Z"/><path class="cls-7" d="M91,81.84c0-4.68-17-8.47-38-8.47s-38,3.79-38,8.47,17,8.47,38,8.47S91,86.52,91,81.84Z"/><path class="cls-8" d="M90.85,81.83c0-4.66-17-8.44-37.93-8.44S15,77.17,15,81.83s17,8.45,37.94,8.45S90.85,86.5,90.85,81.83Z"/><path class="cls-9" d="M90.72,81.83c0-4.65-16.94-8.42-37.84-8.42S15,77.18,15,81.83,32,90.25,52.88,90.25,90.72,86.48,90.72,81.83Z"/><path class="cls-10" d="M90.59,81.82c0-4.63-16.89-8.39-37.74-8.39S15.1,77.19,15.1,81.82,32,90.21,52.85,90.21,90.59,86.46,90.59,81.82Z"/><path class="cls-11" d="M90.46,81.82c0-4.63-16.85-8.37-37.65-8.37s-37.65,3.74-37.65,8.37S32,90.18,52.81,90.18,90.46,86.44,90.46,81.82Z"/><path class="cls-12" d="M90.33,81.81c0-4.61-16.81-8.34-37.55-8.34S15.22,77.2,15.22,81.81,32,90.15,52.78,90.15,90.33,86.42,90.33,81.81Z"/><path class="cls-13" d="M90.2,81.8c0-4.59-16.77-8.31-37.46-8.31S15.28,77.21,15.28,81.8s16.77,8.32,37.46,8.32S90.2,86.4,90.2,81.8Z"/><path class="cls-14" d="M90.07,81.8c0-4.58-16.73-8.29-37.36-8.29S15.34,77.22,15.34,81.8s16.73,8.29,37.37,8.29S90.07,86.38,90.07,81.8Z"/><path class="cls-15" d="M89.94,81.79c0-4.56-16.68-8.26-37.27-8.26S15.4,77.23,15.4,81.79s16.68,8.27,37.27,8.27S89.94,86.36,89.94,81.79Z"/><path class="cls-16" d="M89.81,81.79c0-4.55-16.64-8.24-37.17-8.24s-37.18,3.69-37.18,8.24S32.1,90,52.64,90,89.81,86.34,89.81,81.79Z"/><path class="cls-17" d="M89.68,81.78c0-4.54-16.6-8.21-37.08-8.21s-37.09,3.67-37.09,8.21S32.12,90,52.6,90,89.68,86.32,89.68,81.78Z"/><path class="cls-18" d="M89.55,81.78c0-4.53-16.56-8.19-37-8.19s-37,3.66-37,8.19S32.13,90,52.56,90,89.55,86.3,89.55,81.78Z"/><path class="cls-19" d="M89.42,81.77c0-4.51-16.51-8.16-36.89-8.16s-36.9,3.65-36.9,8.16,16.52,8.17,36.9,8.17S89.42,86.28,89.42,81.77Z"/><path class="cls-20" d="M89.29,81.77c0-4.5-16.47-8.14-36.8-8.14s-36.8,3.64-36.8,8.14,16.48,8.14,36.8,8.14S89.29,86.26,89.29,81.77Z"/><path class="cls-21" d="M89.16,81.76c0-4.48-16.43-8.11-36.7-8.11s-36.71,3.63-36.71,8.11,16.43,8.12,36.71,8.12S89.16,86.25,89.16,81.76Z"/><path class="cls-22" d="M89,81.76c0-4.47-16.39-8.1-36.61-8.1s-36.61,3.63-36.61,8.1,16.39,8.09,36.61,8.09S89,86.23,89,81.76Z"/><path class="cls-23" d="M88.9,81.75c0-4.46-16.35-8.07-36.51-8.07s-36.52,3.61-36.52,8.07,16.35,8.07,36.52,8.07S88.9,86.21,88.9,81.75Z"/><path class="cls-24" d="M88.77,81.74c0-4.44-16.3-8-36.42-8s-36.42,3.6-36.42,8,16.31,8.05,36.42,8.05S88.77,86.19,88.77,81.74Z"/><path class="cls-25" d="M88.64,81.74c0-4.43-16.26-8-36.32-8S16,77.31,16,81.74s16.26,8,36.33,8S88.64,86.17,88.64,81.74Z"/><path class="cls-26" d="M88.51,81.73c0-4.41-16.22-8-36.23-8s-36.23,3.58-36.23,8,16.22,8,36.23,8S88.51,86.15,88.51,81.73Z"/><path class="cls-27" d="M88.38,81.73c0-4.4-16.18-8-36.14-8s-36.13,3.57-36.13,8,16.18,8,36.13,8S88.38,86.13,88.38,81.73Z"/><path class="cls-28" d="M88.25,81.72c0-4.38-16.13-7.94-36-7.94s-36,3.56-36,7.94,16.14,8,36.05,8S88.25,86.11,88.25,81.72Z"/><path class="cls-29" d="M88.12,81.72c0-4.38-16.09-7.92-35.95-7.92s-35.95,3.54-35.95,7.92,16.1,7.92,36,7.92S88.12,86.09,88.12,81.72Z"/><path class="cls-30" d="M88,81.71c0-4.36-16-7.89-35.85-7.89s-35.86,3.53-35.86,7.89,16.06,7.9,35.86,7.9S88,86.07,88,81.71Z"/><path class="cls-31" d="M87.86,81.71c0-4.35-16-7.87-35.76-7.87s-35.76,3.52-35.76,7.87,16,7.86,35.76,7.86S87.86,86.05,87.86,81.71Z"/><path class="cls-32" d="M87.73,81.7c0-4.33-16-7.84-35.66-7.84S16.4,77.37,16.4,81.7s16,7.84,35.67,7.84S87.73,86,87.73,81.7Z"/><path class="cls-33" d="M87.6,81.7c0-4.32-15.92-7.82-35.57-7.82s-35.57,3.5-35.57,7.82S32.39,89.51,52,89.51,87.6,86,87.6,81.7Z"/><path class="cls-34" d="M87.47,81.69c0-4.3-15.88-7.79-35.47-7.79s-35.48,3.49-35.48,7.79S32.4,89.48,52,89.48,87.47,86,87.47,81.69Z"/><path class="cls-35" d="M87.34,81.68c0-4.29-15.84-7.76-35.38-7.76s-35.38,3.47-35.38,7.76S32.42,89.45,52,89.45,87.34,86,87.34,81.68Z"/><path class="cls-36" d="M87.21,81.68c0-4.28-15.8-7.74-35.28-7.74S16.64,77.4,16.64,81.68s15.8,7.74,35.29,7.74S87.21,86,87.21,81.68Z"/><path class="cls-37" d="M87.08,81.67c0-4.26-15.75-7.71-35.19-7.71S16.7,77.41,16.7,81.67s15.75,7.72,35.19,7.72S87.08,85.94,87.08,81.67Z"/><path class="cls-38" d="M87,81.67C87,77.42,71.24,74,51.85,74s-35.09,3.44-35.09,7.69,15.71,7.69,35.09,7.69S87,85.92,87,81.67Z"/><path class="cls-39" d="M86.82,81.66c0-4.23-15.67-7.66-35-7.66s-35,3.43-35,7.66,15.68,7.67,35,7.67S86.82,85.9,86.82,81.66Z"/><path class="cls-40" d="M86.69,81.66c0-4.22-15.63-7.64-34.91-7.64s-34.91,3.42-34.91,7.64S32.5,89.3,51.78,89.3,86.69,85.88,86.69,81.66Z"/><path class="cls-41" d="M86.56,81.65C86.56,77.44,71,74,51.75,74s-34.82,3.4-34.82,7.61,15.59,7.62,34.82,7.62S86.56,85.86,86.56,81.65Z"/><path class="cls-42" d="M86.43,81.65c0-4.2-15.54-7.59-34.72-7.59S17,77.45,17,81.65s15.55,7.59,34.72,7.59S86.43,85.84,86.43,81.65Z"/><path class="cls-43" d="M86.3,81.64c0-4.18-15.5-7.56-34.62-7.56s-34.63,3.38-34.63,7.56,15.5,7.57,34.63,7.57S86.3,85.82,86.3,81.64Z"/><path class="cls-44" d="M86.17,81.64c0-4.17-15.46-7.54-34.53-7.54s-34.53,3.37-34.53,7.54,15.46,7.54,34.53,7.54S86.17,85.8,86.17,81.64Z"/><path class="cls-45" d="M86,81.63c0-4.15-15.42-7.52-34.43-7.52s-34.44,3.37-34.44,7.52,15.42,7.52,34.44,7.52S86,85.78,86,81.63Z"/><path class="cls-46" d="M85.91,81.62c0-4.13-15.37-7.49-34.34-7.49s-34.34,3.36-34.34,7.49,15.37,7.5,34.34,7.5S85.91,85.76,85.91,81.62Z"/><path class="cls-47" d="M85.78,81.62c0-4.12-15.33-7.47-34.25-7.47S17.29,77.5,17.29,81.62s15.33,7.47,34.24,7.47S85.78,85.74,85.78,81.62Z"/><path class="cls-48" d="M85.65,81.61c0-4.11-15.29-7.44-34.15-7.44S17.35,77.5,17.35,81.61s15.29,7.45,34.15,7.45S85.65,85.72,85.65,81.61Z"/><path class="cls-49" d="M85.52,81.61c0-4.1-15.25-7.42-34.06-7.42s-34,3.32-34,7.42S32.65,89,51.46,89,85.52,85.71,85.52,81.61Z"/><path class="cls-50" d="M85.39,81.6c0-4.08-15.21-7.39-34-7.39s-34,3.31-34,7.39,15.21,7.4,34,7.4S85.39,85.69,85.39,81.6Z"/><path class="cls-51" d="M85.26,81.6c0-4.07-15.16-7.37-33.87-7.37s-33.87,3.3-33.87,7.37S32.69,89,51.39,89,85.26,85.67,85.26,81.6Z"/><path class="cls-52" d="M85.13,81.59c0-4-15.12-7.34-33.77-7.34s-33.78,3.29-33.78,7.34,15.12,7.34,33.78,7.34S85.13,85.65,85.13,81.59Z"/><path class="cls-53" d="M85,81.59c0-4-15.08-7.32-33.68-7.32s-33.68,3.28-33.68,7.32S32.72,88.9,51.32,88.9,85,85.63,85,81.59Z"/><path class="cls-54" d="M84.87,81.58c0-4-15-7.29-33.58-7.29S17.7,77.55,17.7,81.58s15,7.29,33.59,7.29S84.87,85.61,84.87,81.58Z"/><path class="cls-55" d="M84.74,81.58c0-4-15-7.27-33.49-7.27s-33.49,3.25-33.49,7.27,15,7.26,33.49,7.26S84.74,85.59,84.74,81.58Z"/><path class="cls-56" d="M84.61,81.57c0-4-15-7.24-33.4-7.24s-33.39,3.24-33.39,7.24,15,7.24,33.39,7.24S84.61,85.57,84.61,81.57Z"/><path class="cls-57" d="M84.48,81.56c0-4-14.91-7.21-33.3-7.21s-33.3,3.23-33.3,7.21,14.91,7.22,33.3,7.22S84.48,85.55,84.48,81.56Z"/><path class="cls-58" d="M84.35,81.56c0-4-14.87-7.19-33.21-7.19s-33.2,3.22-33.2,7.19,14.86,7.19,33.2,7.19S84.35,85.53,84.35,81.56Z"/><path class="cls-59" d="M84.22,81.55c0-4-14.83-7.16-33.11-7.16S18,77.6,18,81.55s14.82,7.17,33.11,7.17S84.22,85.51,84.22,81.55Z"/><path class="cls-60" d="M84.09,81.55c0-4-14.78-7.14-33-7.14s-33,3.19-33,7.14,14.78,7.14,33,7.14S84.09,85.49,84.09,81.55Z"/><path class="cls-61" d="M84,81.54c0-3.93-14.74-7.11-32.92-7.11s-32.93,3.18-32.93,7.11S32.85,88.66,51,88.66,84,85.47,84,81.54Z"/><path class="cls-62" d="M83.83,81.54c0-3.92-14.7-7.09-32.83-7.09s-32.83,3.17-32.83,7.09S32.87,88.63,51,88.63,83.83,85.45,83.83,81.54Z"/><path class="cls-63" d="M83.7,81.53c0-3.9-14.66-7.06-32.73-7.06s-32.74,3.16-32.74,7.06S32.89,88.6,51,88.6,83.7,85.44,83.7,81.53Z"/><path class="cls-64" d="M83.57,81.53c0-3.89-14.61-7-32.64-7s-32.64,3.15-32.64,7,14.61,7,32.64,7S83.57,85.42,83.57,81.53Z"/><path class="cls-65" d="M83.44,81.52c0-3.87-14.57-7-32.55-7s-32.54,3.14-32.54,7,14.57,7,32.54,7S83.44,85.4,83.44,81.52Z"/><path class="cls-66" d="M83.31,81.52c0-3.87-14.53-7-32.45-7s-32.45,3.12-32.45,7,14.53,7,32.45,7S83.31,85.38,83.31,81.52Z"/><path class="cls-67" d="M83.18,81.51c0-3.85-14.49-7-32.36-7s-32.35,3.11-32.35,7,14.48,7,32.35,7S83.18,85.36,83.18,81.51Z"/><path class="cls-68" d="M83.05,81.5c0-3.83-14.45-6.93-32.26-6.93s-32.26,3.1-32.26,6.93,14.44,7,32.26,7S83.05,85.34,83.05,81.5Z"/><path class="cls-69" d="M82.92,81.5c0-3.82-14.4-6.92-32.17-6.92s-32.16,3.1-32.16,6.92S33,88.42,50.75,88.42,82.92,85.32,82.92,81.5Z"/><path class="cls-70" d="M82.79,81.49c0-3.8-14.36-6.89-32.07-6.89s-32.07,3.09-32.07,6.89,14.35,6.9,32.07,6.9S82.79,85.3,82.79,81.49Z"/><path class="cls-71" d="M82.66,81.49c0-3.79-14.32-6.87-32-6.87s-32,3.08-32,6.87,14.31,6.87,32,6.87S82.66,85.28,82.66,81.49Z"/><path class="cls-72" d="M82.53,81.48c0-3.78-14.28-6.84-31.88-6.84S18.76,77.7,18.76,81.48,33,88.32,50.65,88.32,82.53,85.26,82.53,81.48Z"/><path class="cls-73" d="M82.4,81.48c0-3.77-14.23-6.82-31.79-6.82s-31.79,3-31.79,6.82,14.24,6.81,31.79,6.81S82.4,85.24,82.4,81.48Z"/><path class="cls-74" d="M82.27,81.47c0-3.75-14.19-6.79-31.7-6.79s-31.69,3-31.69,6.79,14.19,6.79,31.69,6.79S82.27,85.22,82.27,81.47Z"/><path class="cls-75" d="M82.14,81.47c0-3.74-14.15-6.77-31.6-6.77s-31.6,3-31.6,6.77,14.15,6.76,31.6,6.76S82.14,85.2,82.14,81.47Z"/><path class="cls-76" d="M82,81.46c0-3.72-14.11-6.74-31.51-6.74S19,77.74,19,81.46,33.11,88.2,50.5,88.2,82,85.18,82,81.46Z"/><path class="cls-77" d="M81.87,81.46c0-3.71-14.06-6.72-31.4-6.72s-31.41,3-31.41,6.72,14.06,6.71,31.41,6.71S81.87,85.17,81.87,81.46Z"/><path class="cls-78" d="M81.74,81.45c0-3.7-14-6.69-31.31-6.69s-31.31,3-31.31,6.69,14,6.69,31.31,6.69S81.74,85.15,81.74,81.45Z"/><path class="cls-79" d="M81.61,81.44c0-3.68-14-6.66-31.21-6.66s-31.22,3-31.22,6.66,14,6.67,31.22,6.67S81.61,85.13,81.61,81.44Z"/><path class="cls-80" d="M81.48,81.44c0-3.67-13.93-6.64-31.12-6.64s-31.12,3-31.12,6.64,13.93,6.64,31.12,6.64S81.48,85.11,81.48,81.44Z"/><path class="cls-81" d="M81.35,81.43c0-3.65-13.89-6.61-31-6.61s-31,3-31,6.61,13.89,6.62,31,6.62S81.35,85.09,81.35,81.43Z"/><path class="cls-82" d="M81.22,81.43c0-3.64-13.85-6.59-30.93-6.59s-30.93,3-30.93,6.59S33.21,88,50.29,88,81.22,85.07,81.22,81.43Z"/><path class="cls-83" d="M81.09,81.42c0-3.62-13.8-6.56-30.83-6.56S19.41,77.8,19.41,81.42,33.22,88,50.26,88,81.09,85.05,81.09,81.42Z"/><path class="cls-84" d="M81,81.42c0-3.61-13.76-6.54-30.74-6.54s-30.75,2.93-30.75,6.54S33.24,88,50.22,88,81,85,81,81.42Z"/><path class="cls-85" d="M80.83,81.41c0-3.6-13.72-6.51-30.65-6.51s-30.65,2.91-30.65,6.51,13.73,6.52,30.65,6.52S80.83,85,80.83,81.41Z"/><path class="cls-86" d="M80.7,81.41c0-3.59-13.68-6.49-30.55-6.49s-30.56,2.9-30.56,6.49S33.27,87.9,50.15,87.9,80.7,85,80.7,81.41Z"/><path class="cls-87" d="M80.57,81.4c0-3.57-13.63-6.46-30.46-6.46S19.65,77.83,19.65,81.4s13.64,6.47,30.46,6.47S80.57,85,80.57,81.4Z"/><path class="cls-88" d="M80.44,81.4c0-3.56-13.59-6.44-30.36-6.44S19.71,77.84,19.71,81.4s13.6,6.44,30.37,6.44S80.44,85,80.44,81.4Z"/><path class="cls-89" d="M80.31,81.39C80.31,77.85,66.76,75,50,75s-30.27,2.87-30.27,6.41S33.32,87.81,50,87.81,80.31,84.93,80.31,81.39Z"/><path class="cls-90" d="M80.18,81.39C80.18,77.86,66.67,75,50,75s-30.18,2.86-30.18,6.39S33.34,87.78,50,87.78,80.18,84.91,80.18,81.39Z"/><path class="cls-91" d="M80.05,81.38C80.05,77.86,66.58,75,50,75s-30.08,2.84-30.08,6.36S33.36,87.75,50,87.75,80.05,84.9,80.05,81.38Z"/><path class="cls-92" d="M79.92,81.37c0-3.5-13.42-6.33-30-6.33s-30,2.83-30,6.33,13.42,6.34,30,6.34S79.92,84.88,79.92,81.37Z"/><path class="cls-93" d="M79.79,81.37c0-3.49-13.38-6.32-29.89-6.32S20,77.88,20,81.37s13.38,6.31,29.89,6.31S79.79,84.86,79.79,81.37Z"/><path class="cls-94" d="M79.66,81.36c0-3.47-13.34-6.29-29.8-6.29s-29.8,2.82-29.8,6.29,13.35,6.29,29.8,6.29S79.66,84.84,79.66,81.36Z"/><path class="cls-95" d="M79.53,81.36c0-3.46-13.3-6.27-29.7-6.27S20.12,77.9,20.12,81.36s13.3,6.26,29.71,6.26S79.53,84.82,79.53,81.36Z"/><path class="cls-96" d="M79.4,81.35c0-3.44-13.25-6.24-29.61-6.24s-29.61,2.8-29.61,6.24,13.26,6.24,29.61,6.24S79.4,84.8,79.4,81.35Z"/><path class="cls-97" d="M79.27,81.35c0-3.44-13.21-6.22-29.51-6.22s-29.52,2.78-29.52,6.22,13.22,6.21,29.52,6.21S79.27,84.78,79.27,81.35Z"/><path class="cls-98" d="M79.14,81.34c0-3.42-13.17-6.19-29.42-6.19S20.3,77.92,20.3,81.34s13.17,6.19,29.42,6.19S79.14,84.76,79.14,81.34Z"/><path class="cls-99" d="M79,81.34c0-3.41-13.13-6.17-29.32-6.17s-29.33,2.76-29.33,6.17S33.49,87.5,49.69,87.5,79,84.74,79,81.34Z"/><path class="cls-100" d="M78.88,81.33c0-3.39-13.09-6.14-29.23-6.14s-29.23,2.75-29.23,6.14,13.09,6.14,29.23,6.14S78.88,84.72,78.88,81.33Z"/><path class="cls-101" d="M78.75,81.33c0-3.38-13-6.12-29.13-6.12S20.48,78,20.48,81.33s13,6.11,29.14,6.11S78.75,84.7,78.75,81.33Z"/><path class="cls-102" d="M78.62,81.32c0-3.36-13-6.09-29-6.09s-29,2.73-29,6.09,13,6.09,29,6.09S78.62,84.68,78.62,81.32Z"/><path class="cls-103" d="M78.49,81.31c0-3.35-13-6.06-28.95-6.06S20.6,78,20.6,81.31s13,6.07,28.94,6.07S78.49,84.66,78.49,81.31Z"/><path class="cls-104" d="M78.36,81.31c0-3.34-12.92-6-28.85-6s-28.85,2.7-28.85,6,12.91,6,28.85,6S78.36,84.64,78.36,81.31Z"/><path class="cls-105" d="M78.23,81.3c0-3.32-12.87-6-28.76-6S20.71,78,20.71,81.3s12.88,6,28.76,6S78.23,84.63,78.23,81.3Z"/><path class="cls-106" d="M78.1,81.3c0-3.31-12.83-6-28.66-6S20.77,78,20.77,81.3s12.84,6,28.67,6S78.1,84.61,78.1,81.3Z"/><path class="cls-107" d="M78,81.29c0-3.29-12.79-6-28.57-6s-28.57,2.67-28.57,6,12.79,6,28.57,6S78,84.59,78,81.29Z"/><path class="cls-108" d="M77.84,81.29c0-3.28-12.75-5.94-28.47-5.94S20.89,78,20.89,81.29s12.75,5.94,28.48,5.94S77.84,84.57,77.84,81.29Z"/><path class="cls-109" d="M77.71,81.28c0-3.27-12.71-5.91-28.38-5.91S21,78,21,81.28,33.66,87.2,49.33,87.2,77.71,84.55,77.71,81.28Z"/><path class="cls-110" d="M77.58,81.28c0-3.26-12.66-5.89-28.28-5.89S21,78,21,81.28s12.66,5.89,28.29,5.89S77.58,84.53,77.58,81.28Z"/><path class="cls-111" d="M77.45,81.27c0-3.24-12.62-5.86-28.19-5.86S21.07,78,21.07,81.27s12.62,5.87,28.19,5.87S77.45,84.51,77.45,81.27Z"/><path class="cls-112" d="M77.32,81.27c0-3.23-12.58-5.84-28.1-5.84S21.13,78,21.13,81.27s12.58,5.84,28.09,5.84S77.32,84.49,77.32,81.27Z"/><path class="cls-113" d="M77.19,81.26c0-3.21-12.54-5.81-28-5.81s-28,2.6-28,5.81,12.53,5.81,28,5.81S77.19,84.47,77.19,81.26Z"/><path class="cls-114" d="M77.06,81.25c0-3.19-12.49-5.78-27.91-5.78s-27.9,2.59-27.9,5.78S33.74,87,49.15,87,77.06,84.45,77.06,81.25Z"/><path class="cls-115" d="M76.93,81.25c0-3.19-12.45-5.76-27.81-5.76s-27.81,2.57-27.81,5.76S33.76,87,49.12,87,76.93,84.43,76.93,81.25Z"/><path class="cls-116" d="M76.8,81.24c0-3.17-12.41-5.73-27.72-5.73s-27.72,2.56-27.72,5.73S33.77,87,49.08,87,76.8,84.41,76.8,81.24Z"/><path class="cls-117" d="M76.67,81.24c0-3.16-12.37-5.72-27.62-5.72s-27.63,2.56-27.63,5.72S33.79,87,49.05,87,76.67,84.39,76.67,81.24Z"/><path class="cls-118" d="M76.54,81.23c0-3.14-12.33-5.69-27.53-5.69s-27.53,2.55-27.53,5.69S33.81,86.92,49,86.92,76.54,84.37,76.54,81.23Z"/><path class="cls-119" d="M76.41,81.23c0-3.13-12.28-5.67-27.43-5.67S21.54,78.1,21.54,81.23,33.82,86.89,49,86.89,76.41,84.36,76.41,81.23Z"/><path class="cls-120" d="M76.28,81.22c0-3.11-12.24-5.64-27.34-5.64S21.6,78.11,21.6,81.22s12.24,5.64,27.34,5.64S76.28,84.34,76.28,81.22Z"/><path class="cls-121" d="M76.15,81.22c0-3.1-12.2-5.62-27.25-5.62s-27.24,2.52-27.24,5.62,12.2,5.61,27.24,5.61S76.15,84.32,76.15,81.22Z"/><path class="cls-122" d="M76,81.21c0-3.09-12.16-5.59-27.15-5.59s-27.15,2.5-27.15,5.59S33.88,86.8,48.87,86.8,76,84.3,76,81.21Z"/><path class="cls-123" d="M75.89,81.21c0-3.08-12.11-5.57-27.06-5.57s-27,2.49-27,5.57,12.11,5.56,27.05,5.56S75.89,84.28,75.89,81.21Z"/><path class="cls-124" d="M75.76,81.2c0-3.06-12.07-5.54-27-5.54s-27,2.48-27,5.54,12.07,5.54,27,5.54S75.76,84.26,75.76,81.2Z"/><path class="cls-125" d="M75.63,81.19c0-3-12-5.51-26.87-5.51S21.9,78.15,21.9,81.19s12,5.52,26.86,5.52S75.63,84.24,75.63,81.19Z"/><path class="cls-126" d="M75.5,81.19c0-3-12-5.49-26.77-5.49S22,78.16,22,81.19s12,5.49,26.77,5.49S75.5,84.22,75.5,81.19Z"/><path class="cls-127" d="M75.37,81.18c0-3-12-5.46-26.68-5.46S22,78.17,22,81.18s12,5.47,26.68,5.47S75.37,84.2,75.37,81.18Z"/><path class="cls-128" d="M75.24,81.18c0-3-11.9-5.44-26.58-5.44s-26.59,2.43-26.59,5.44S34,86.62,48.66,86.62,75.24,84.18,75.24,81.18Z"/><path class="cls-129" d="M75.11,81.17c0-3-11.86-5.41-26.49-5.41s-26.49,2.42-26.49,5.41S34,86.59,48.62,86.59,75.11,84.16,75.11,81.17Z"/><path class="cls-130" d="M75,81.17c0-3-11.82-5.39-26.39-5.39s-26.4,2.41-26.4,5.39S34,86.56,48.59,86.56,75,84.14,75,81.17Z"/><path class="cls-131" d="M74.85,81.16c0-3-11.78-5.36-26.3-5.36s-26.3,2.4-26.3,5.36S34,86.53,48.55,86.53,74.85,84.12,74.85,81.16Z"/><path class="cls-132" d="M74.72,81.16c0-3-11.73-5.34-26.21-5.34s-26.2,2.39-26.2,5.34S34,86.5,48.51,86.5,74.72,84.1,74.72,81.16Z"/><path class="cls-133" d="M74.59,81.15c0-2.93-11.69-5.31-26.11-5.31s-26.11,2.38-26.11,5.31,11.69,5.31,26.11,5.31S74.59,84.09,74.59,81.15Z"/><path class="cls-134" d="M74.46,81.15c0-2.93-11.65-5.29-26-5.29s-26,2.36-26,5.29,11.65,5.28,26,5.28S74.46,84.07,74.46,81.15Z"/><path class="cls-135" d="M74.33,81.14c0-2.91-11.61-5.26-25.92-5.26s-25.92,2.35-25.92,5.26,11.6,5.26,25.92,5.26S74.33,84.05,74.33,81.14Z"/><path class="cls-136" d="M74.2,81.13c0-2.89-11.57-5.23-25.83-5.23s-25.82,2.34-25.82,5.23,11.56,5.24,25.82,5.24S74.2,84,74.2,81.13Z"/><path class="cls-137" d="M74.07,81.13c0-2.88-11.52-5.21-25.73-5.21s-25.73,2.33-25.73,5.21,11.52,5.21,25.73,5.21S74.07,84,74.07,81.13Z"/><path class="cls-138" d="M73.94,81.12c0-2.86-11.48-5.18-25.64-5.18s-25.64,2.32-25.64,5.18,11.48,5.19,25.64,5.19S73.94,84,73.94,81.12Z"/><path class="cls-139" d="M73.81,81.12c0-2.85-11.44-5.16-25.54-5.16s-25.55,2.31-25.55,5.16,11.44,5.16,25.55,5.16S73.81,84,73.81,81.12Z"/><path class="cls-140" d="M73.68,81.11c0-2.84-11.4-5.14-25.45-5.14s-25.45,2.3-25.45,5.14,11.4,5.14,25.45,5.14S73.68,84,73.68,81.11Z"/><path class="cls-141" d="M73.55,81.11C73.55,78.28,62.2,76,48.19,76s-25.35,2.29-25.35,5.12,11.35,5.11,25.35,5.11S73.55,83.93,73.55,81.11Z"/><path class="cls-142" d="M73.42,81.1c0-2.81-11.31-5.09-25.26-5.09S22.9,78.29,22.9,81.1s11.31,5.09,25.26,5.09S73.42,83.91,73.42,81.1Z"/><path class="cls-143" d="M73.29,81.1C73.29,78.3,62,76,48.12,76S23,78.3,23,81.1s11.27,5.06,25.16,5.06S73.29,83.89,73.29,81.1Z"/><path class="cls-144" d="M73.16,81.09c0-2.78-11.23-5-25.07-5S23,78.31,23,81.09s11.22,5,25.07,5S73.16,83.87,73.16,81.09Z"/><path class="cls-145" d="M73,81.09c0-2.77-11.18-5-25-5s-25,2.25-25,5,11.18,5,25,5S73,83.85,73,81.09Z"/><path class="cls-146" d="M72.89,81.08c0-2.76-11.13-5-24.87-5s-24.88,2.23-24.88,5,11.14,5,24.88,5S72.89,83.84,72.89,81.08Z"/><path class="cls-147" d="M72.76,81.07c0-2.74-11.09-5-24.78-5s-24.78,2.22-24.78,5S34.29,86,48,86,72.76,83.82,72.76,81.07Z"/><path class="cls-148" d="M72.63,81.07c0-2.73-11-4.94-24.68-4.94s-24.69,2.21-24.69,4.94S34.31,86,48,86,72.63,83.8,72.63,81.07Z"/><path class="cls-149" d="M72.5,81.06c0-2.71-11-4.91-24.59-4.91s-24.6,2.2-24.6,4.91S34.33,86,47.91,86,72.5,83.78,72.5,81.06Z"/><path class="cls-150" d="M72.37,81.06c0-2.7-11-4.89-24.5-4.89s-24.5,2.19-24.5,4.89S34.34,86,47.87,86,72.37,83.76,72.37,81.06Z"/><path class="cls-151" d="M72.24,81.05c0-2.68-10.92-4.86-24.4-4.86s-24.41,2.18-24.41,4.86,10.93,4.87,24.41,4.87S72.24,83.74,72.24,81.05Z"/><path class="cls-152" d="M72.11,81.05c0-2.68-10.88-4.84-24.31-4.84s-24.31,2.16-24.31,4.84,10.89,4.84,24.31,4.84S72.11,83.72,72.11,81.05Z"/><path class="cls-153" d="M72,81c0-2.66-10.84-4.81-24.21-4.81S23.55,78.38,23.55,81s10.84,4.82,24.22,4.82S72,83.7,72,81Z"/><path class="cls-154" d="M71.85,81c0-2.65-10.8-4.79-24.12-4.79S23.61,78.39,23.61,81s10.8,4.78,24.12,4.78S71.85,83.68,71.85,81Z"/><path class="cls-155" d="M71.72,81c0-2.63-10.75-4.76-24-4.76s-24,2.13-24,4.76,10.76,4.76,24,4.76S71.72,83.66,71.72,81Z"/><path class="cls-156" d="M71.59,81c0-2.62-10.71-4.74-23.93-4.74S23.73,78.41,23.73,81s10.71,4.73,23.93,4.73S71.59,83.64,71.59,81Z"/><path class="cls-157" d="M71.46,81c0-2.6-10.67-4.71-23.83-4.71S23.79,78.42,23.79,81s10.67,4.71,23.84,4.71S71.46,83.62,71.46,81Z"/><path class="cls-158" d="M71.33,81c0-2.58-10.63-4.68-23.74-4.68S23.85,78.43,23.85,81,34.48,85.7,47.59,85.7,71.33,83.6,71.33,81Z"/><path class="cls-159" d="M71.2,81c0-2.58-10.58-4.66-23.65-4.66S23.91,78.43,23.91,81s10.58,4.66,23.64,4.66S71.2,83.58,71.2,81Z"/><path class="cls-160" d="M71.07,81c0-2.56-10.54-4.63-23.55-4.63S24,78.44,24,81s10.55,4.64,23.56,4.64S71.07,83.57,71.07,81Z"/><path class="cls-161" d="M70.94,81c0-2.55-10.5-4.61-23.46-4.61S24,78.45,24,81s10.51,4.61,23.46,4.61S70.94,83.55,70.94,81Z"/><path class="cls-162" d="M70.81,81c0-2.53-10.46-4.58-23.36-4.58s-23.37,2-23.37,4.58,10.46,4.59,23.37,4.59S70.81,83.53,70.81,81Z"/><path class="cls-163" d="M70.68,81c0-2.52-10.42-4.56-23.27-4.56s-23.27,2-23.27,4.56,10.42,4.56,23.27,4.56S70.68,83.51,70.68,81Z"/><path class="cls-164" d="M70.55,81c0-2.5-10.37-4.54-23.17-4.54S24.2,78.48,24.2,81s10.38,4.54,23.18,4.54S70.55,83.49,70.55,81Z"/><path class="cls-165" d="M70.42,81c0-2.5-10.33-4.52-23.08-4.52s-23.08,2-23.08,4.52,10.33,4.51,23.08,4.51S70.42,83.47,70.42,81Z"/><path class="cls-166" d="M70.29,81c0-2.48-10.29-4.49-23-4.49s-23,2-23,4.49,10.29,4.49,23,4.49S70.29,83.45,70.29,81Z"/><path class="cls-167" d="M70.16,81c0-2.47-10.25-4.47-22.89-4.47S24.38,78.5,24.38,81s10.25,4.46,22.89,4.46S70.16,83.43,70.16,81Z"/><path class="cls-168" d="M70,81c0-2.45-10.2-4.44-22.79-4.44s-22.8,2-22.8,4.44,10.21,4.44,22.8,4.44S70,83.41,70,81Z"/><path class="cls-169" d="M69.9,81c0-2.43-10.16-4.41-22.7-4.41s-22.7,2-22.7,4.41,10.16,4.42,22.7,4.42S69.9,83.39,69.9,81Z"/><path class="cls-170" d="M69.77,81c0-2.42-10.12-4.39-22.61-4.39s-22.6,2-22.6,4.39,10.12,4.39,22.6,4.39S69.77,83.37,69.77,81Z"/><path class="cls-171" d="M69.64,80.94c0-2.41-10.08-4.36-22.51-4.36s-22.52,2-22.52,4.36,10.09,4.37,22.52,4.37S69.64,83.35,69.64,80.94Z"/><path class="cls-172" d="M69.51,80.94c0-2.4-10-4.34-22.42-4.34s-22.42,1.94-22.42,4.34,10,4.34,22.42,4.34S69.51,83.33,69.51,80.94Z"/><path class="cls-173" d="M69.38,80.93c0-2.38-10-4.31-22.32-4.31s-22.33,1.93-22.33,4.31,10,4.32,22.33,4.32S69.38,83.31,69.38,80.93Z"/><path class="cls-174" d="M69.25,80.93c0-2.37-10-4.29-22.23-4.29s-22.23,1.92-22.23,4.29,10,4.28,22.23,4.28S69.25,83.3,69.25,80.93Z"/><path class="cls-175" d="M69.12,80.92c0-2.35-9.91-4.26-22.13-4.26s-22.14,1.91-22.14,4.26S34.76,85.18,47,85.18,69.12,83.28,69.12,80.92Z"/><path class="cls-176" d="M69,80.92c0-2.34-9.87-4.24-22-4.24s-22,1.9-22,4.24,9.87,4.23,22,4.23S69,83.26,69,80.92Z"/><path class="cls-177" d="M68.86,80.91c0-2.33-9.83-4.21-21.94-4.21s-22,1.88-22,4.21,9.83,4.21,22,4.21S68.86,83.24,68.86,80.91Z"/><path class="cls-178" d="M68.73,80.91c0-2.32-9.78-4.19-21.85-4.19S25,78.59,25,80.91s9.78,4.18,21.85,4.18S68.73,83.22,68.73,80.91Z"/><path class="cls-179" d="M68.6,80.9c0-2.3-9.74-4.16-21.76-4.16S25.09,78.6,25.09,80.9s9.74,4.16,21.75,4.16S68.6,83.2,68.6,80.9Z"/><path class="cls-180" d="M68.47,80.89c0-2.28-9.7-4.13-21.66-4.13s-21.66,1.85-21.66,4.13S34.85,85,46.81,85,68.47,83.18,68.47,80.89Z"/><path class="cls-181" d="M68.34,80.89c0-2.27-9.66-4.11-21.57-4.11s-21.56,1.84-21.56,4.11S34.86,85,46.77,85,68.34,83.16,68.34,80.89Z"/><path class="cls-182" d="M68.21,80.88c0-2.25-9.61-4.08-21.47-4.08s-21.48,1.83-21.48,4.08S34.88,85,46.74,85,68.21,83.14,68.21,80.88Z"/><path class="cls-183" d="M68.08,80.88c0-2.25-9.57-4.06-21.38-4.06s-21.38,1.81-21.38,4.06,9.58,4.06,21.38,4.06S68.08,83.12,68.08,80.88Z"/><path class="cls-184" d="M68,80.87c0-2.23-9.53-4-21.28-4s-21.29,1.8-21.29,4,9.53,4,21.29,4S68,83.1,68,80.87Z"/><path class="cls-185" d="M67.82,80.87c0-2.22-9.49-4-21.19-4s-21.19,1.79-21.19,4,9.49,4,21.19,4S67.82,83.08,67.82,80.87Z"/><path class="cls-186" d="M67.69,80.86c0-2.2-9.45-4-21.09-4s-21.1,1.78-21.1,4,9.45,4,21.1,4S67.69,83.06,67.69,80.86Z"/><path class="cls-187" d="M67.56,80.86c0-2.19-9.4-4-21-4s-21,1.77-21,4,9.4,4,21,4S67.56,83,67.56,80.86Z"/><path class="cls-188" d="M67.43,80.85c0-2.17-9.36-3.94-20.91-3.94s-20.9,1.77-20.9,3.94,9.36,3.94,20.9,3.94S67.43,83,67.43,80.85Z"/><path class="cls-189" d="M67.3,80.85c0-2.17-9.32-3.92-20.81-3.92s-20.81,1.75-20.81,3.92S35,84.76,46.49,84.76,67.3,83,67.3,80.85Z"/><path class="cls-190" d="M67.17,80.84c0-2.15-9.28-3.89-20.72-3.89s-20.71,1.74-20.71,3.89S35,84.73,46.45,84.73,67.17,83,67.17,80.84Z"/><path class="cls-191" d="M67,80.83C67,78.7,57.81,77,46.42,77S25.8,78.7,25.8,80.83,35,84.7,46.42,84.7,67,83,67,80.83Z"/><path class="cls-192" d="M66.91,80.83c0-2.12-9.19-3.84-20.53-3.84s-20.52,1.72-20.52,3.84,9.19,3.84,20.52,3.84S66.91,83,66.91,80.83Z"/><path class="cls-193" d="M66.78,80.82c0-2.1-9.15-3.81-20.43-3.81s-20.44,1.71-20.44,3.81,9.15,3.82,20.44,3.82S66.78,82.93,66.78,80.82Z"/><path class="cls-194" d="M66.65,80.82c0-2.09-9.11-3.79-20.34-3.79S26,78.73,26,80.82s9.11,3.78,20.34,3.78S66.65,82.91,66.65,80.82Z"/><path class="cls-195" d="M66.52,80.81c0-2.07-9.07-3.76-20.24-3.76S26,78.74,26,80.81s9.07,3.76,20.25,3.76S66.52,82.89,66.52,80.81Z"/><path class="cls-196" d="M66.39,80.81c0-2.07-9-3.74-20.15-3.74s-20.15,1.67-20.15,3.74,9,3.73,20.15,3.73S66.39,82.87,66.39,80.81Z"/><path class="cls-197" d="M66.26,80.8c0-2-9-3.71-20.06-3.71S26.15,78.75,26.15,80.8s9,3.71,20.05,3.71S66.26,82.85,66.26,80.8Z"/><path class="cls-198" d="M66.13,80.8c0-2-8.94-3.69-20-3.69s-20,1.65-20,3.69,8.94,3.68,20,3.68S66.13,82.83,66.13,80.8Z"/><path class="cls-199" d="M66,80.79c0-2-8.9-3.66-19.87-3.66s-19.86,1.64-19.86,3.66,8.89,3.66,19.86,3.66S66,82.81,66,80.79Z"/><path class="cls-200" d="M65.87,80.79c0-2-8.85-3.64-19.77-3.64s-19.77,1.63-19.77,3.64,8.85,3.63,19.77,3.63S65.87,82.79,65.87,80.79Z"/><path class="cls-201" d="M65.74,80.78c0-2-8.81-3.61-19.68-3.61s-19.67,1.62-19.67,3.61,8.81,3.61,19.67,3.61S65.74,82.77,65.74,80.78Z"/><path class="cls-202" d="M65.61,80.77c0-2-8.77-3.58-19.58-3.58s-19.58,1.6-19.58,3.58S35.21,84.36,46,84.36,65.61,82.76,65.61,80.77Z"/><path class="cls-203" d="M65.48,80.77c0-2-8.73-3.56-19.49-3.56S26.51,78.8,26.51,80.77,35.23,84.33,46,84.33,65.48,82.74,65.48,80.77Z"/><path class="cls-204" d="M65.35,80.76c0-2-8.69-3.53-19.39-3.53s-19.4,1.58-19.4,3.53S35.25,84.3,46,84.3,65.35,82.72,65.35,80.76Z"/><path class="cls-205" d="M65.22,80.76c0-1.94-8.64-3.51-19.3-3.51s-19.3,1.57-19.3,3.51,8.64,3.51,19.3,3.51S65.22,82.7,65.22,80.76Z"/><path class="cls-206" d="M65.09,80.75c0-1.92-8.6-3.48-19.21-3.48s-19.2,1.56-19.2,3.48,8.6,3.49,19.2,3.49S65.09,82.68,65.09,80.75Z"/><path class="cls-207" d="M26.74,80.75c0,1.91,8.56,3.46,19.11,3.46S65,82.66,65,80.75s-8.56-3.46-19.11-3.46S26.74,78.84,26.74,80.75Z"/><path class="cls-208" d="M64.62,80.73c0-1.89-8.46-3.42-18.89-3.42s-18.89,1.53-18.89,3.42,8.46,3.41,18.89,3.41S64.62,82.61,64.62,80.73Z"/><path class="cls-209" d="M64.29,80.71c0-1.86-8.36-3.37-18.68-3.37s-18.67,1.51-18.67,3.37,8.36,3.37,18.67,3.37S64.29,82.57,64.29,80.71Z"/><path class="cls-210" d="M64,80.69c0-1.84-8.26-3.33-18.46-3.33S27,78.85,27,80.69,35.3,84,45.49,84,64,82.52,64,80.69Z"/><path class="cls-211" d="M63.62,80.67c0-1.81-8.17-3.28-18.24-3.28s-18.24,1.47-18.24,3.28,8.16,3.27,18.24,3.27S63.62,82.47,63.62,80.67Z"/><path class="cls-212" d="M63.28,80.64c0-1.78-8.07-3.23-18-3.23s-18,1.45-18,3.23,8.07,3.24,18,3.24S63.28,82.43,63.28,80.64Z"/><path class="cls-213" d="M62.94,80.62c0-1.75-8-3.18-17.8-3.18s-17.81,1.43-17.81,3.18,8,3.19,17.81,3.19S62.94,82.38,62.94,80.62Z"/><path class="cls-214" d="M62.61,80.6c0-1.73-7.88-3.13-17.59-3.13s-17.59,1.4-17.59,3.13S35.31,83.74,45,83.74,62.61,82.34,62.61,80.6Z"/><path class="cls-215" d="M62.27,80.58c0-1.7-7.77-3.09-17.37-3.09s-17.37,1.39-17.37,3.09,7.78,3.1,17.37,3.1S62.27,82.29,62.27,80.58Z"/><path class="cls-216" d="M61.94,80.56c0-1.68-7.68-3-17.16-3s-17.15,1.36-17.15,3,7.68,3,17.15,3S61.94,82.24,61.94,80.56Z"/><path class="cls-217" d="M61.6,80.54c0-1.66-7.58-3-16.93-3s-16.94,1.34-16.94,3,7.58,3,16.94,3S61.6,82.2,61.6,80.54Z"/><path class="cls-218" d="M61.27,80.52c0-1.63-7.49-3-16.72-3s-16.72,1.32-16.72,3,7.48,3,16.72,3S61.27,82.15,61.27,80.52Z"/><path class="cls-219" d="M60.93,80.5c0-1.61-7.39-2.91-16.5-2.91s-16.5,1.3-16.5,2.91,7.39,2.91,16.5,2.91S60.93,82.11,60.93,80.5Z"/><path class="cls-220" d="M60.6,80.48c0-1.58-7.29-2.86-16.29-2.86S28,78.9,28,80.48s7.3,2.86,16.29,2.86S60.6,82.06,60.6,80.48Z"/><path class="cls-221" d="M60.26,80.46c0-1.56-7.19-2.82-16.07-2.82S28.12,78.9,28.12,80.46s7.2,2.81,16.07,2.81S60.26,82,60.26,80.46Z"/><path class="cls-222" d="M59.93,80.44c0-1.53-7.1-2.77-15.86-2.77s-15.85,1.24-15.85,2.77,7.1,2.77,15.85,2.77S59.93,82,59.93,80.44Z"/><path class="cls-223" d="M59.59,80.42c0-1.51-7-2.72-15.63-2.72s-15.64,1.21-15.64,2.72,7,2.72,15.64,2.72S59.59,81.92,59.59,80.42Z"/><path class="cls-224" d="M59.26,80.4c0-1.48-6.91-2.68-15.42-2.68s-15.42,1.2-15.42,2.68,6.9,2.67,15.42,2.67S59.26,81.88,59.26,80.4Z"/><path class="cls-225" d="M58.92,80.38c0-1.46-6.8-2.63-15.2-2.63s-15.2,1.17-15.2,2.63S35.33,83,43.72,83,58.92,81.83,58.92,80.38Z"/><path class="cls-226" d="M58.59,80.36c0-1.43-6.71-2.59-15-2.59s-15,1.16-15,2.59,6.71,2.58,15,2.58S58.59,81.78,58.59,80.36Z"/><path class="cls-227" d="M58.25,80.34c0-1.41-6.61-2.54-14.77-2.54s-14.76,1.13-14.76,2.54,6.61,2.53,14.76,2.53S58.25,81.74,58.25,80.34Z"/><path class="cls-228" d="M57.92,80.32c0-1.38-6.52-2.5-14.56-2.5s-14.55,1.12-14.55,2.5,6.52,2.49,14.55,2.49S57.92,81.69,57.92,80.32Z"/><path class="cls-229" d="M57.58,80.29c0-1.35-6.42-2.44-14.33-2.44s-14.34,1.09-14.34,2.44,6.42,2.45,14.34,2.45S57.58,81.65,57.58,80.29Z"/><path class="cls-230" d="M57.25,80.27c0-1.32-6.32-2.4-14.12-2.4S29,79,29,80.27s6.32,2.4,14.12,2.4S57.25,81.6,57.25,80.27Z"/><path class="cls-231" d="M56.91,80.25c0-1.3-6.22-2.35-13.9-2.35s-13.9,1-13.9,2.35,6.22,2.36,13.9,2.36S56.91,81.55,56.91,80.25Z"/><path class="cls-232" d="M56.58,80.23c0-1.27-6.13-2.3-13.69-2.3s-13.68,1-13.68,2.3,6.13,2.31,13.68,2.31S56.58,81.51,56.58,80.23Z"/><path class="cls-233" d="M56.24,80.21c0-1.25-6-2.26-13.47-2.26s-13.46,1-13.46,2.26,6,2.26,13.46,2.26S56.24,81.46,56.24,80.21Z"/><path class="cls-234" d="M55.9,80.19C55.9,79,50,78,42.65,78s-13.24,1-13.24,2.21,5.93,2.22,13.24,2.22S55.9,81.42,55.9,80.19Z"/><path class="cls-235" d="M55.57,80.17c0-1.2-5.83-2.17-13-2.17s-13,1-13,2.17,5.83,2.17,13,2.17S55.57,81.37,55.57,80.17Z"/><path class="cls-236" d="M55.23,80.15C55.23,79,49.5,78,42.42,78S29.6,79,29.6,80.15s5.74,2.12,12.82,2.12S55.23,81.32,55.23,80.15Z"/><path class="cls-237" d="M54.9,80.13c0-1.15-5.64-2.08-12.6-2.08S29.7,79,29.7,80.13s5.64,2.08,12.6,2.08S54.9,81.28,54.9,80.13Z"/><path class="cls-238" d="M54.56,80.11c0-1.12-5.54-2-12.38-2s-12.38.91-12.38,2,5.55,2,12.38,2S54.56,81.23,54.56,80.11Z"/><path class="cls-239" d="M54.23,80.09c0-1.1-5.45-2-12.17-2s-12.16.89-12.16,2,5.45,2,12.16,2S54.23,81.19,54.23,80.09Z"/><path class="cls-240" d="M53.89,80.07c0-1.07-5.35-1.94-11.94-1.94S30,79,30,80.07,35.35,82,42,82,53.89,81.14,53.89,80.07Z"/><path class="cls-241" d="M53.56,80.05c0-1-5.25-1.89-11.73-1.89S30.1,79,30.1,80.05s5.25,1.89,11.73,1.89S53.56,81.09,53.56,80.05Z"/><path class="cls-242" d="M53.22,80c0-1-5.15-1.85-11.51-1.85S30.2,79,30.2,80s5.15,1.84,11.51,1.84S53.22,81.05,53.22,80Z"/><path class="cls-243" d="M52.89,80c0-1-5.06-1.8-11.3-1.8s-11.3.8-11.3,1.8,5.06,1.8,11.3,1.8S52.89,81,52.89,80Z"/><path class="cls-244" d="M52.55,80c0-1-5-1.76-11.08-1.76S30.39,79,30.39,80s5,1.75,11.08,1.75S52.55,81,52.55,80Z"/><path class="cls-245" d="M52.22,80c0-.94-4.87-1.7-10.87-1.7S30.49,79,30.49,80s4.87,1.71,10.86,1.71S52.22,80.91,52.22,80Z"/><path class="cls-246" d="M51.88,79.94c0-.91-4.76-1.66-10.64-1.66S30.59,79,30.59,79.94s4.77,1.67,10.65,1.67S51.88,80.86,51.88,79.94Z"/><path class="cls-247" d="M51.55,79.92c0-.89-4.67-1.61-10.43-1.61S30.69,79,30.69,79.92s4.67,1.62,10.43,1.62S51.55,80.82,51.55,79.92Z"/><path class="cls-248" d="M51.21,79.9c0-.86-4.57-1.57-10.21-1.57S30.79,79,30.79,79.9,35.36,81.47,41,81.47,51.21,80.77,51.21,79.9Z"/><path class="cls-249" d="M50.88,79.88c0-.84-4.48-1.52-10-1.52s-10,.68-10,1.52,4.47,1.53,10,1.53S50.88,80.73,50.88,79.88Z"/><path class="cls-250" d="M50.54,79.86c0-.81-4.38-1.47-9.78-1.47S31,79.05,31,79.86s4.37,1.48,9.77,1.48S50.54,80.68,50.54,79.86Z"/><path class="cls-251" d="M50.21,79.84c0-.79-4.28-1.43-9.57-1.43s-9.56.64-9.56,1.43,4.29,1.43,9.56,1.43S50.21,80.63,50.21,79.84Z"/><path class="cls-252" d="M49.87,79.82c0-.76-4.18-1.38-9.34-1.38s-9.35.62-9.35,1.38,4.19,1.39,9.35,1.39S49.87,80.59,49.87,79.82Z"/><path class="cls-253" d="M49.54,79.8c0-.74-4.09-1.34-9.13-1.34s-9.13.6-9.13,1.34,4.09,1.34,9.13,1.34S49.54,80.54,49.54,79.8Z"/><path class="cls-254" d="M49.2,79.78c0-.71-4-1.29-8.91-1.29s-8.91.58-8.91,1.29,4,1.29,8.91,1.29S49.2,80.5,49.2,79.78Z"/><path class="cls-255" d="M48.87,79.76c0-.69-3.9-1.25-8.7-1.25s-8.69.56-8.69,1.25S35.37,81,40.17,81,48.87,80.45,48.87,79.76Z"/><path class="cls-256" d="M48.53,79.74c0-.66-3.79-1.2-8.48-1.2s-8.47.54-8.47,1.2,3.79,1.2,8.47,1.2S48.53,80.4,48.53,79.74Z"/><path class="cls-257" d="M48.19,79.72c0-.64-3.69-1.16-8.26-1.16s-8.25.52-8.25,1.16,3.69,1.15,8.25,1.15S48.19,80.36,48.19,79.72Z"/><path class="cls-258" d="M47.86,79.7c0-.61-3.6-1.11-8-1.11s-8,.5-8,1.11,3.6,1.11,8,1.11S47.86,80.31,47.86,79.7Z"/><path class="cls-259" d="M31.87,79.68c0,.59,3.51,1.06,7.83,1.06s7.82-.47,7.82-1.06S44,78.61,39.7,78.61,31.87,79.09,31.87,79.68Z"/></g><path class="cls-260" d="M74.15,26.12s3.58,8.91-1.9,10.17c-4.5,1-11.71-2.27-15.52-7.76-3-4.39-4.16-11.93,1.64-12a10.51,10.51,0,0,1,3.37.46,32.28,32.28,0,0,1,7.92,4A30.42,30.42,0,0,0,56.41,10.08c-1.23-1.61-4.67-5.53-9-5.43a14,14,0,0,0-1,2,8.05,8.05,0,0,0-2.53.25,6,6,0,0,0-4.22,4.34c-.66,2.2-.28,6.5.55,8.79,0,0,1.16-3.84,4.34-4.76-.25,6.13,1.22,14.39,7,20.64,9.09,9.72,22.63,9.53,25.26,3.17C79,33.63,74.15,26.12,74.15,26.12Z"/><path class="cls-261" d="M78.66,42.69C74.08,55.47,52.75,48,45.12,40.77c-6.48-6.11-10.68-11-12-21.44C31.75,9.12,37.15,6.18,37.15,6.13S28.42,8.82,27.56,19.7c-.67,8.42,2.35,18.81,11.23,27.49a39.35,39.35,0,0,0,23,10.69c-8.91,1.6-21.06-1-28.08-6.26-7.36-5.47-12.2-11.78-14.17-22.79-2.41-13.49,3.3-18.68,3.31-18.74s-9.19,5.74-9.59,19.08C13,38.14,15.45,49,26,58.49A44.49,44.49,0,0,0,49.31,69a36.3,36.3,0,0,1-11,0A39.77,39.77,0,0,1,10,49.94C5.22,41.59,4.92,36,4.9,36.18A37.18,37.18,0,0,0,78.26,48.31,18,18,0,0,0,78.66,42.69Z"/><path class="cls-262" d="M130,30.5H118v-3h-3.4v3H100.89v3.4H131.6Zm-3.44,8.4V34l-11.45,9.39L105.22,34v4.85l7.13,6.78-9.43,7.73v4.81L120.28,44v4.81l9.85,9.37V53.38L120.29,44Z"/><path class="cls-262" d="M191.61,42.63,183.53,37v3.84l8.08,5.63Zm-23.35,13,5.18-7.33v-5l-5.18,7.37Zm28.42-6.07h0V27.44H193.3v6.64l-7.38-5.17v3.84l7.38,5.15V49.53H181.78v3H193.3v5.6h3.38v-5.6h1.65ZM177.93,40h3.82V37h-3.82V31.9h3.82l-1.64-3H168.54v3h6V37h-6v3h6V58.11h3.38V45.81l3.85,2.69V44.69L177.93,42Z"/><path class="cls-262" d="M213.08,37.48l-1.64-3h-2.15V27.44h-3.37V34.5H201.2v3h4.72v9.85l-4.72,2.23v3.61l4.72-2.24v7.18h3.37V49.33L213,47.59V44l-3.67,1.75V37.48Zm17.69,5.93v-4H224.7V35.21h6.91l-1.64-3H224.7V27.3h-3.37v4.92h-6.91v3h6.91v4.18h-6.91V46l4.58,3.8-5.1,4.48v4l10.89-9.56V53l6.34,5.26V53.9l-6.32-5.26Zm-9.23,4.11-6.18-5.14h12Z"/><path class="cls-262" d="M153.73,30.52h-3.36l-.85-3.06h-3.17l.85,3.06h-3.12v2.62h9.65ZM140.09,41.21h-2.55V31.83h2.53l-1.64-2.62h-3.78v26h5.42l-1.64-2.62h-.89V43.83h2.55V55.22H143v-26h-2.89ZM161.5,30.52l.86-3.06h-3.17l-.86,3.06H155v2.62h9.64V30.52Zm3.12,7.13L163,35h-18.9v2.62h8.69v3.56H150l.61-2.21h-3.17l-.62,2.21h-2.71v2.62h2l-1,3.56h-1V50h8.69V52.6h-8.69v2.62h8.69v2.9h3.17v-2.9h8.68L163,52.6h-7V50h8.68V47.39h-1l-1-3.56h2V41.21h-2.71L161.29,39h-3.17l.62,2.21h-2.8V37.65Zm-11.85,9.74h-4.53l1-3.56h3.54Zm6.7-3.56,1,3.56h-4.52V43.83Z"/></g></g></svg>