<svg width="603" height="250" viewBox="0 0 603 250" fill="none" xmlns="http://www.w3.org/2000/svg">
<rect width="603" height="250" fill="white"/>
<g style="mix-blend-mode:multiply">
<path opacity="0.01" d="M230.754 212.369C230.754 201.066 189.615 191.994 139.018 191.994C88.4225 191.994 47.2832 201.066 47.2832 212.369C47.2832 223.673 88.3505 232.793 139.018 232.793C189.687 232.793 230.754 223.649 230.754 212.369Z" fill="#FEFEFE"/>
<path opacity="0.01" d="M230.417 212.345C230.417 201.09 189.47 191.994 138.946 191.994C88.422 191.994 47.4268 201.114 47.4268 212.369C47.4268 223.625 88.398 232.793 138.946 232.793C189.494 232.793 230.417 223.601 230.417 212.345Z" fill="#FEFEFE"/>
<path opacity="0.01" d="M230.129 212.322C230.129 201.114 189.326 192.019 138.922 192.019C88.5181 192.019 47.7148 201.114 47.7148 212.322C47.7148 223.53 88.5181 232.649 138.922 232.649C189.326 232.649 230.129 223.554 230.129 212.322Z" fill="#FDFDFD"/>
<path opacity="0.01" d="M229.817 212.322C229.817 201.138 189.014 192.066 138.778 192.066C88.5421 192.066 47.7148 201.138 47.7148 212.322C47.7148 223.505 88.5181 232.577 138.778 232.577C189.038 232.577 229.817 223.505 229.817 212.322Z" fill="#FDFDFD"/>
<path opacity="0.02" d="M229.506 212.298C229.506 201.138 188.847 192.114 138.683 192.114C88.5186 192.114 47.8594 201.138 47.8594 212.298C47.8594 223.457 88.5186 232.505 138.683 232.505C188.847 232.505 229.506 223.457 229.506 212.298Z" fill="#FCFCFC"/>
<path opacity="0.02" d="M229.193 212.297C229.193 201.162 188.63 192.162 138.61 192.162C88.5902 192.162 48.0029 201.162 48.0029 212.297C48.0029 223.433 88.5662 232.433 138.61 232.433C188.654 232.433 229.193 223.409 229.193 212.297Z" fill="#FBFBFB"/>
<path opacity="0.02" d="M228.882 212.273C228.882 201.186 188.415 192.21 138.515 192.21C88.6147 192.21 48.1475 201.186 48.1475 212.273C48.1475 223.361 88.5907 232.361 138.515 232.361C188.439 232.361 228.882 223.361 228.882 212.273Z" fill="#FBFBFB"/>
<path opacity="0.03" d="M228.569 212.273C228.569 201.21 188.222 192.258 138.418 192.258C88.6142 192.258 48.291 201.21 48.291 212.273C48.291 223.337 88.6382 232.289 138.418 232.289C188.198 232.289 228.569 223.337 228.569 212.273Z" fill="#FAFAFA"/>
<path opacity="0.03" d="M228.258 212.25C228.258 201.234 188.007 192.307 138.347 192.307C88.6867 192.307 48.4355 201.234 48.4355 212.25C48.4355 223.266 88.8068 232.217 138.347 232.217C187.887 232.217 228.258 223.194 228.258 212.25Z" fill="#F9F9F9"/>
<path opacity="0.03" d="M228.017 212.249C228.017 201.258 187.862 192.33 138.322 192.33C88.7822 192.33 48.627 201.258 48.627 212.249C48.627 223.241 88.8061 232.145 138.25 232.145C187.694 232.145 228.017 223.193 228.017 212.249Z" fill="#F9F9F9"/>
<path opacity="0.04" d="M227.633 212.225C227.633 201.258 187.574 192.378 138.178 192.378C88.7824 192.378 48.6992 201.258 48.6992 212.225C48.6992 223.193 88.8064 232.073 138.178 232.073C187.55 232.073 227.633 223.193 227.633 212.225Z" fill="#F8F8F8"/>
<path opacity="0.04" d="M227.322 212.201C227.322 201.281 187.383 192.426 138.083 192.426C88.7829 192.426 48.8438 201.281 48.8438 212.201C48.8438 223.121 88.8069 232.001 138.083 232.001C187.359 232.001 227.322 223.193 227.322 212.201Z" fill="#F7F7F7"/>
<path opacity="0.04" d="M227.009 212.202C227.009 201.306 187.166 192.475 138.01 192.475C88.8545 192.475 48.9873 201.306 48.9873 212.202C48.9873 223.098 88.8065 231.929 138.01 231.929C187.214 231.929 227.009 223.194 227.009 212.202Z" fill="#F7F7F7"/>
<path opacity="0.04" d="M226.697 212.178C226.697 201.33 186.95 192.522 137.89 192.522C88.8302 192.522 49.083 201.33 49.083 212.178C49.083 223.025 88.8302 231.857 137.89 231.857C186.95 231.857 226.697 223.049 226.697 212.178Z" fill="#F6F6F6"/>
<path opacity="0.05" d="M226.385 212.178C226.385 201.354 186.734 192.57 137.842 192.57C88.9506 192.57 49.2754 201.354 49.2754 212.178C49.2754 223.001 88.9266 231.785 137.842 231.785C186.758 231.785 226.385 223.001 226.385 212.178Z" fill="#F5F5F6"/>
<path opacity="0.05" d="M226.073 212.154C226.073 201.378 186.542 192.618 137.746 192.618C88.9501 192.618 49.4189 201.378 49.4189 212.154C49.4189 222.929 88.9501 231.713 137.746 231.713C186.542 231.713 226.073 222.953 226.073 212.154Z" fill="#F5F5F5"/>
<path opacity="0.05" d="M225.761 212.153C225.761 201.378 186.326 192.666 137.65 192.666C88.9746 192.666 49.5635 201.378 49.5635 212.153C49.5635 222.929 88.9986 231.641 137.65 231.641C186.302 231.641 225.761 222.905 225.761 212.153Z" fill="#F4F4F4"/>
<path opacity="0.06" d="M225.449 212.129C225.449 201.402 186.11 192.714 137.578 192.714C89.0462 192.714 49.707 201.402 49.707 212.129C49.707 222.857 89.0462 231.569 137.578 231.569C186.11 231.569 225.449 222.857 225.449 212.129Z" fill="#F3F3F4"/>
<path opacity="0.06" d="M225.138 212.129C225.138 201.425 185.894 192.762 137.483 192.762C89.0707 192.762 49.8516 201.425 49.8516 212.129C49.8516 222.833 89.0947 231.496 137.483 231.496C185.87 231.496 225.138 222.809 225.138 212.129Z" fill="#F3F3F3"/>
<path opacity="0.06" d="M224.825 212.106C224.825 201.45 185.678 192.906 137.41 192.906C89.1422 192.906 49.9951 201.546 49.9951 212.106C49.9951 222.665 89.1182 231.305 137.41 231.305C185.702 231.305 224.825 222.761 224.825 212.106Z" fill="#F2F2F2"/>
<path opacity="0.06" d="M224.513 212.106C224.513 201.474 185.486 192.906 137.314 192.906C89.1423 192.906 50.1152 201.522 50.1152 212.106C50.1152 222.689 89.1663 231.305 137.314 231.305C185.462 231.305 224.513 222.713 224.513 212.106Z" fill="#F1F1F2"/>
<path opacity="0.07" d="M224.202 212.081C224.202 201.498 185.271 192.882 137.243 192.882C89.2149 192.882 50.2598 201.474 50.2598 212.081C50.2598 222.689 89.2149 231.281 137.243 231.281C185.271 231.281 224.202 222.689 224.202 212.081Z" fill="#F0F1F1"/>
<path opacity="0.07" d="M223.889 212.058C223.889 201.498 185.054 192.858 137.146 192.858C89.2384 192.858 50.4033 201.594 50.4033 212.058C50.4033 222.521 89.2384 231.257 137.146 231.257C185.054 231.257 223.889 222.641 223.889 212.058Z" fill="#F0F0F0"/>
<path opacity="0.07" d="M223.577 212.057C223.577 201.522 184.838 193.002 137.171 193.002C89.5028 193.002 50.7637 201.522 50.7637 212.057C50.7637 222.593 89.2867 231.113 137.075 231.113C184.862 231.113 223.577 222.593 223.577 212.057Z" fill="#EFEFF0"/>
<path opacity="0.08" d="M223.217 212.033C223.217 201.546 184.598 193.05 136.93 193.05C89.2625 193.05 50.6914 201.594 50.6914 212.033C50.6914 222.473 89.3345 231.041 137.098 231.041C184.862 231.041 223.217 222.545 223.217 212.033Z" fill="#EEEFEF"/>
<path opacity="0.08" d="M222.953 212.033C222.953 201.569 184.55 193.098 136.882 193.098C89.214 193.098 50.835 201.593 50.835 212.033C50.835 222.473 89.238 230.968 136.882 230.968C184.526 230.968 222.953 222.497 222.953 212.033Z" fill="#EEEEEE"/>
<path opacity="0.08" d="M222.641 212.01C222.641 201.594 184.238 193.146 136.81 193.146C89.3826 193.146 50.9795 201.594 50.9795 212.01C50.9795 222.426 89.3826 230.897 136.81 230.897C184.238 230.897 222.641 222.45 222.641 212.01Z" fill="#EDEDEE"/>
<path opacity="0.09" d="M222.329 212.01C222.329 201.618 183.926 193.194 136.714 193.194C89.5021 193.194 51.123 201.594 51.123 212.01C51.123 222.425 89.5261 230.825 136.714 230.825C183.902 230.825 222.329 222.401 222.329 212.01Z" fill="#ECEDED"/>
<path opacity="0.09" d="M222.017 211.986C222.017 201.618 183.782 193.242 136.642 193.242C89.5026 193.242 51.2676 201.594 51.2676 211.986C51.2676 222.377 89.4786 230.753 136.642 230.753C183.806 230.753 222.017 222.353 222.017 211.986Z" fill="#ECECEC"/>
<path opacity="0.09" d="M221.705 211.985C221.705 201.642 183.59 193.29 136.546 193.29C89.5022 193.29 51.4111 201.594 51.4111 211.985C51.4111 222.377 89.5262 230.681 136.546 230.681C183.566 230.681 221.705 222.305 221.705 211.985Z" fill="#EBEBEB"/>
<path opacity="0.09" d="M221.393 211.961C221.393 201.666 183.374 193.338 136.474 193.338C89.5747 193.338 51.5557 201.594 51.5557 211.961C51.5557 222.329 89.5747 230.609 136.474 230.609C183.374 230.609 221.393 222.257 221.393 211.961Z" fill="#EAEBEB"/>
<path opacity="0.1" d="M221.081 211.961C221.081 201.689 183.158 193.386 136.379 193.386C89.5988 193.386 51.6758 201.593 51.6758 211.961C51.6758 222.329 89.5988 230.537 136.379 230.537C183.158 230.537 221.081 222.209 221.081 211.961Z" fill="#E9EAEA"/>
<path opacity="0.1" d="M220.817 211.938C220.817 201.714 182.99 193.435 136.354 193.435C89.7182 193.435 51.8672 201.714 51.8672 211.938C51.8672 222.162 89.6462 230.393 136.306 230.393C182.966 230.393 220.817 222.162 220.817 211.938Z" fill="#E9E9E9"/>
<path opacity="0.1" d="M220.457 211.913C220.457 201.738 182.726 193.458 136.211 193.458C89.6949 193.458 51.9639 201.738 51.9639 211.913C51.9639 222.089 89.6949 230.393 136.211 230.393C182.726 230.393 220.457 222.113 220.457 211.913Z" fill="#E8E8E9"/>
<path opacity="0.11" d="M220.145 211.913C220.145 201.738 182.534 193.506 136.139 193.506C89.7428 193.506 52.1318 201.738 52.1318 211.913C52.1318 222.089 89.7188 230.393 136.139 230.393C182.558 230.393 220.145 222.065 220.145 211.913Z" fill="#E7E8E8"/>
<path opacity="0.11" d="M219.833 211.889C219.833 201.761 182.318 193.554 136.043 193.554C89.7669 193.554 52.252 201.761 52.252 211.889C52.252 222.017 89.7669 230.249 136.043 230.249C182.318 230.249 219.833 222.041 219.833 211.889Z" fill="#E7E7E7"/>
<path opacity="0.11" d="M219.521 211.89C219.521 201.786 182.102 193.603 135.946 193.603C89.7905 193.603 52.3955 201.786 52.3955 211.89C52.3955 221.994 89.8145 230.177 135.946 230.177C182.078 230.177 219.521 221.994 219.521 211.89Z" fill="#E6E6E7"/>
<path opacity="0.11" d="M219.209 211.866C219.209 201.81 181.886 193.65 135.875 193.65C89.863 193.65 52.54 201.81 52.54 211.866C52.54 221.921 89.839 230.105 135.875 230.105C181.91 230.105 219.209 221.945 219.209 211.866Z" fill="#E5E6E6"/>
<path opacity="0.12" d="M218.897 211.866C218.897 201.834 181.694 193.698 135.778 193.698C89.8627 193.698 52.8037 201.834 52.8037 211.866C52.8037 221.897 90.0067 230.033 135.898 230.033C181.79 230.033 218.897 221.897 218.897 211.866Z" fill="#E4E5E5"/>
<path opacity="0.12" d="M218.585 211.841C218.585 201.858 181.478 193.746 135.706 193.746C89.9347 193.746 52.8037 201.858 52.8037 211.841C52.8037 221.825 89.9107 229.961 135.682 229.961C181.454 229.961 218.585 221.849 218.585 211.841Z" fill="#E4E4E4"/>
<path opacity="0.12" d="M218.273 211.841C218.273 201.882 181.262 193.794 135.61 193.794C89.9586 193.794 52.9717 201.882 52.9717 211.841C52.9717 221.801 89.9586 229.865 135.61 229.865C181.262 229.865 218.273 221.801 218.273 211.841Z" fill="#E3E3E4"/>
<path opacity="0.13" d="M217.96 211.817C217.96 201.882 181.045 193.842 135.538 193.842C90.0302 193.842 53.1152 201.882 53.1152 211.817C53.1152 221.753 90.0062 229.793 135.538 229.793C181.069 229.793 217.96 221.753 217.96 211.817Z" fill="#E2E3E3"/>
<path opacity="0.13" d="M217.648 211.817C217.648 201.905 180.83 193.89 135.442 193.89C90.0543 193.89 53.2354 201.905 53.2354 211.817C53.2354 221.729 90.0543 229.721 135.442 229.721C180.83 229.721 217.648 221.705 217.648 211.817Z" fill="#E2E2E2"/>
<path opacity="0.13" d="M217.337 211.794C217.337 201.93 180.638 193.938 135.37 193.938C90.1028 193.938 53.3799 201.93 53.3799 211.794C53.3799 221.658 90.0788 229.649 135.37 229.649C180.662 229.649 217.337 221.658 217.337 211.794Z" fill="#E1E1E2"/>
<path opacity="0.14" d="M217.024 211.794C217.024 201.954 180.422 193.986 135.274 193.986C90.1264 193.986 53.5234 201.954 53.5234 211.794C53.5234 221.633 90.1264 229.577 135.274 229.577C180.422 229.577 217.024 221.609 217.024 211.794Z" fill="#E0E1E1"/>
<path opacity="0.14" d="M216.713 211.77C216.713 201.978 180.206 194.034 135.106 194.034C90.0069 194.034 53.5 201.978 53.5 211.77C53.5 221.561 90.0069 229.505 135.106 229.505C180.206 229.505 216.713 221.561 216.713 211.77Z" fill="#DFE0E0"/>
<path opacity="0.14" d="M216.4 211.745C216.4 202.002 179.99 194.082 135.106 194.082C90.2224 194.082 53.8115 202.002 53.8115 211.745C53.8115 221.489 90.1984 229.433 135.106 229.433C180.014 229.433 216.4 221.513 216.4 211.745Z" fill="#DFDFDF"/>
<path opacity="0.14" d="M216.017 211.745C216.017 202.002 179.726 194.13 134.938 194.13C90.1507 194.13 53.8838 202.002 53.8838 211.745C53.8838 221.489 90.1747 229.361 134.938 229.361C179.702 229.361 216.017 221.465 216.017 211.745Z" fill="#DEDEDF"/>
<path opacity="0.15" d="M215.776 211.721C215.776 202.121 179.582 194.178 134.938 194.178C90.2945 194.178 54.0996 202.025 54.0996 211.721C54.0996 221.417 90.2945 229.289 134.938 229.289C179.582 229.289 215.776 221.417 215.776 211.721Z" fill="#DDDEDE"/>
<path opacity="0.15" d="M215.441 211.722C215.441 202.122 179.438 194.227 134.843 194.227C90.247 194.227 54.2441 202.05 54.2441 211.722C54.2441 221.394 90.247 229.217 134.843 229.217C179.438 229.217 215.441 221.394 215.441 211.722Z" fill="#DCDDDD"/>
<path opacity="0.15" d="M215.152 211.698C215.152 202.098 179.15 194.274 134.77 194.274C90.3906 194.274 54.3877 202.074 54.3877 211.698C54.3877 221.322 90.3906 229.145 134.77 229.145C179.15 229.145 215.152 221.346 215.152 211.698Z" fill="#DCDCDD"/>
<path opacity="0.16" d="M214.816 211.698C214.816 202.098 178.813 194.322 134.674 194.322C90.5341 194.322 54.5312 202.098 54.5312 211.698C54.5312 221.297 90.5341 229.073 134.674 229.073C178.813 229.073 214.816 221.297 214.816 211.698Z" fill="#DBDBDC"/>
<path opacity="0.16" d="M214.505 211.674C214.505 202.074 178.742 194.37 134.602 194.37C90.4626 194.37 54.6758 202.122 54.6758 211.674C54.6758 221.225 90.4386 229.001 134.602 229.001C178.766 229.001 214.505 221.249 214.505 211.674Z" fill="#DADBDB"/>
<path opacity="0.16" d="M214.193 211.673C214.193 202.074 178.526 194.418 134.506 194.418C90.4867 194.418 54.7959 202.122 54.7959 211.673C54.7959 221.225 90.4867 228.929 134.41 228.929C178.334 228.929 214.193 221.201 214.193 211.673Z" fill="#D9DADA"/>
<path opacity="0.16" d="M213.88 211.649C213.88 202.05 178.309 194.466 134.41 194.466C90.5103 194.466 54.9395 202.146 54.9395 211.649C54.9395 221.153 90.5343 228.857 134.41 228.857C178.285 228.857 213.88 221.153 213.88 211.649Z" fill="#D9D9DA"/>
<path opacity="0.17" d="M213.617 211.649C213.617 202.049 178.142 194.514 134.41 194.514C90.6789 194.514 55.2041 202.169 55.2041 211.649C55.2041 221.129 90.6789 228.785 134.41 228.785C178.142 228.785 213.617 221.105 213.617 211.649Z" fill="#D8D8D9"/>
<path opacity="0.17" d="M213.257 211.626C213.257 202.194 177.902 194.538 134.242 194.538C90.5829 194.538 55.2041 202.194 55.2041 211.626C55.2041 221.057 90.6069 228.713 134.242 228.713C177.878 228.713 213.257 221.057 213.257 211.626Z" fill="#D7D8D8"/>
<path opacity="0.17" d="M212.945 211.601C212.945 202.218 177.686 194.586 134.17 194.586C90.6549 194.586 55.3721 202.218 55.3721 211.601C55.3721 220.985 90.6549 228.641 134.17 228.641C177.686 228.641 212.945 221.009 212.945 211.601Z" fill="#D6D7D7"/>
<path opacity="0.18" d="M212.632 211.601C212.632 202.242 177.469 194.634 134.074 194.634C90.6784 194.634 55.5156 202.242 55.5156 211.601C55.5156 220.961 90.6784 228.569 134.074 228.569C177.469 228.569 212.632 220.961 212.632 211.601Z" fill="#D6D6D7"/>
<path opacity="0.18" d="M212.321 211.578C212.321 202.242 177.254 194.778 134.002 194.778C90.7509 194.778 55.6602 202.338 55.6602 211.578C55.6602 220.817 90.7269 228.377 134.002 228.377C177.278 228.377 212.321 220.913 212.321 211.578Z" fill="#D5D5D6"/>
<path opacity="0.18" d="M212.008 211.578C212.008 202.266 177.037 194.778 133.906 194.778C90.7745 194.778 55.8037 202.314 55.8037 211.578C55.8037 220.841 90.7745 228.377 133.906 228.377C177.037 228.377 212.008 220.793 212.008 211.578Z" fill="#D4D5D5"/>
<path opacity="0.19" d="M211.697 211.553C211.697 202.29 176.846 194.754 133.834 194.754C90.823 194.754 55.9482 202.266 55.9482 211.553C55.9482 220.841 90.799 228.353 133.834 228.353C176.87 228.353 211.697 220.793 211.697 211.553Z" fill="#D3D4D4"/>
<path opacity="0.19" d="M211.384 211.553C211.384 202.314 176.629 194.754 133.738 194.754C90.8466 194.754 56.0918 202.242 56.0918 211.553C56.0918 220.865 90.8466 228.353 133.738 228.353C176.629 228.353 211.384 220.793 211.384 211.553Z" fill="#D3D3D4"/>
<path opacity="0.19" d="M211.073 211.529C211.073 202.338 176.414 194.874 133.642 194.874C90.8711 194.874 56.2363 202.338 56.2363 211.529C56.2363 220.721 90.8951 228.185 133.642 228.185C176.39 228.185 211.073 220.793 211.073 211.529Z" fill="#D2D2D3"/>
<path opacity="0.19" d="M210.76 211.529C210.76 202.362 176.197 194.922 133.57 194.922C90.9422 194.922 56.3555 202.362 56.3555 211.529C56.3555 220.697 90.9422 228.113 133.57 228.113C176.197 228.113 210.76 220.793 210.76 211.529Z" fill="#D1D2D2"/>
<path opacity="0.2" d="M210.448 211.505C210.448 202.361 175.982 194.97 133.474 194.97C90.9667 194.97 56.5 202.361 56.5 211.505C56.5 220.649 90.9667 227.993 133.474 227.993C175.982 227.993 210.448 220.649 210.448 211.505Z" fill="#D0D1D1"/>
<path opacity="0.2" d="M210.136 211.506C210.136 202.386 175.789 195.019 133.33 195.019C90.8702 195.019 56.5234 202.386 56.5234 211.506C56.5234 220.626 91.0142 227.993 133.402 227.993C175.789 227.993 210.136 220.602 210.136 211.506Z" fill="#D0D0D1"/>
<path opacity="0.2" d="M209.824 211.482C209.824 202.41 175.574 195.066 133.306 195.066C91.0388 195.066 56.7881 202.41 56.7881 211.482C56.7881 220.554 91.0628 227.993 133.306 227.993C175.55 227.993 209.824 220.554 209.824 211.482Z" fill="#CFCFD0"/>
<path opacity="0.21" d="M209.512 211.458C209.512 202.434 175.357 195.114 133.234 195.114C91.1104 195.114 56.9316 202.314 56.9316 211.458C56.9316 220.601 91.2064 227.825 133.234 227.825C175.261 227.825 209.512 220.505 209.512 211.458Z" fill="#CECFCF"/>
<path opacity="0.21" d="M209.2 211.458C209.2 202.458 175.142 195.162 133.138 195.162C91.1349 195.162 57.0762 202.362 57.0762 211.458C57.0762 220.553 91.2069 227.753 133.138 227.753C175.07 227.753 209.2 220.457 209.2 211.458Z" fill="#CDCECE"/>
<path opacity="0.21" d="M208.816 211.433C208.816 202.482 174.877 195.21 132.993 195.21C91.1102 195.21 57.1475 202.41 57.1475 211.433C57.1475 220.457 91.2062 227.681 133.066 227.681C174.925 227.681 208.816 220.409 208.816 211.433Z" fill="#CDCDCE"/>
<path opacity="0.21" d="M208.576 211.433C208.576 202.506 174.734 195.258 132.97 195.258C91.207 195.258 57.3643 202.458 57.3643 211.433C57.3643 220.409 91.207 227.609 132.97 227.609C174.734 227.609 208.576 220.361 208.576 211.433Z" fill="#CCCCCD"/>
<path opacity="0.22" d="M208.264 211.409C208.264 202.505 174.517 195.306 132.898 195.306C91.2782 195.306 57.6035 202.505 57.6035 211.409C57.6035 220.313 91.2062 227.537 132.898 227.537C174.589 227.537 208.264 220.313 208.264 211.409Z" fill="#CBCCCC"/>
<path opacity="0.22" d="M207.951 211.41C207.951 202.53 174.349 195.354 132.802 195.354C91.2542 195.354 57.6035 202.53 57.6035 211.41C57.6035 220.29 91.2062 227.465 132.754 227.465C174.301 227.465 207.951 220.266 207.951 211.41Z" fill="#CACBCB"/>
<path opacity="0.22" d="M207.64 211.386C207.64 202.554 174.038 195.402 132.706 195.402C91.3751 195.402 57.7725 202.602 57.7725 211.386C57.7725 220.17 91.3751 227.393 132.706 227.393C174.038 227.393 207.64 220.218 207.64 211.386Z" fill="#C9CACB"/>
<path opacity="0.23" d="M207.328 211.386C207.328 202.578 173.893 195.45 132.634 195.45C91.3747 195.45 57.916 202.65 57.916 211.386C57.916 220.121 91.3747 227.321 132.634 227.321C173.893 227.321 207.328 220.169 207.328 211.386Z" fill="#C9C9CA"/>
<path opacity="0.23" d="M207.016 211.362C207.016 202.602 173.677 195.498 132.61 195.498C91.5428 195.498 58.2041 202.698 58.2041 211.362C58.2041 220.025 91.5668 227.249 132.61 227.249C173.653 227.249 207.016 220.145 207.016 211.362Z" fill="#C8C9C9"/>
<path opacity="0.23" d="M206.704 211.361C206.704 202.602 173.461 195.546 132.466 195.546C91.4707 195.546 58.2041 202.602 58.2041 211.361C58.2041 220.121 91.4467 227.177 132.466 227.177C173.485 227.177 206.704 220.097 206.704 211.361Z" fill="#C7C8C8"/>
<path opacity="0.24" d="M206.416 211.337C206.416 202.626 173.269 195.594 132.394 195.594C91.5187 195.594 58.3721 202.626 58.3721 211.337C58.3721 220.049 91.5187 227.105 132.394 227.105C173.269 227.105 206.416 220.049 206.416 211.337Z" fill="#C6C7C8"/>
<path opacity="0.24" d="M206.08 211.313C206.08 202.649 173.053 195.642 132.298 195.642C91.5428 195.642 58.4922 202.649 58.4922 211.313C58.4922 219.977 91.5428 227.033 132.298 227.033C173.053 227.033 206.08 220.001 206.08 211.313Z" fill="#C6C6C7"/>
<path opacity="0.24" d="M205.767 211.314C205.767 202.674 172.837 195.666 132.202 195.666C91.5664 195.666 58.6357 202.674 58.6357 211.314C58.6357 219.953 91.5664 226.937 132.202 226.937C172.837 226.937 205.767 219.953 205.767 211.314Z" fill="#C5C5C6"/>
<path opacity="0.24" d="M205.456 211.194C205.456 202.602 172.621 195.618 132.13 195.618C91.6389 195.618 58.7803 202.698 58.7803 211.194C58.7803 219.689 91.6149 226.769 132.13 226.769C172.645 226.769 205.456 219.905 205.456 211.194Z" fill="#C4C5C5"/>
<path opacity="0.25" d="M205.143 211.194C205.143 202.626 172.405 195.666 132.034 195.666C91.6624 195.666 58.9238 202.722 58.9238 211.194C58.9238 219.665 91.6624 226.793 132.01 226.793C172.357 226.793 205.143 219.857 205.143 211.194Z" fill="#C3C4C4"/>
<path opacity="0.25" d="M204.832 211.194C204.832 202.674 172.213 195.738 131.938 195.738C91.663 195.738 59.0684 202.746 59.0684 211.194C59.0684 219.642 91.687 226.721 132.01 226.721C172.333 226.721 204.832 219.81 204.832 211.194Z" fill="#C2C3C4"/>
<path opacity="0.25" d="M204.519 211.194C204.519 202.674 171.997 195.786 131.866 195.786C91.7345 195.786 59.2119 202.746 59.2119 211.194C59.2119 219.641 91.7345 226.577 131.866 226.577C171.997 226.577 204.519 219.761 204.519 211.194Z" fill="#C2C2C3"/>
<path opacity="0.26" d="M204.208 211.194C204.208 202.722 171.781 195.858 131.77 195.858C91.7586 195.858 59.332 202.77 59.332 211.194C59.332 219.618 91.7826 226.529 131.77 226.529C171.757 226.529 204.208 219.714 204.208 211.194Z" fill="#C1C2C2"/>
<path opacity="0.26" d="M204.016 211.194C204.016 202.746 171.685 195.906 131.818 195.906C91.9511 195.906 59.4766 202.794 59.4766 211.194C59.4766 219.593 91.8071 226.457 131.698 226.457C171.589 226.457 204.016 219.665 204.016 211.194Z" fill="#C0C1C1"/>
<path opacity="0.26" d="M203.584 211.194C203.584 202.794 171.349 195.979 131.578 195.979C91.8068 195.979 59.5723 202.794 59.5723 211.194C59.5723 219.594 91.8068 226.41 131.578 226.41C171.349 226.41 203.584 219.618 203.584 211.194Z" fill="#BFC0C0"/>
<path opacity="0.26" d="M203.271 211.194C203.271 202.818 171.157 196.026 131.529 196.026C91.9022 196.026 59.7637 202.842 59.7637 211.194C59.7637 219.546 91.9022 226.337 131.529 226.337C171.157 226.337 203.271 219.57 203.271 211.194Z" fill="#BEBFC0"/>
<path opacity="0.27" d="M202.959 211.193C202.959 202.865 170.941 196.098 131.434 196.098C91.9264 196.098 60.0039 202.865 60.0039 211.193C60.0039 219.521 92.0225 226.289 131.53 226.289C171.037 226.289 202.959 219.521 202.959 211.193Z" fill="#BEBEBF"/>
<path opacity="0.27" d="M202.647 211.193C202.647 202.89 170.725 196.17 131.362 196.17C91.9985 196.17 60.0039 202.866 60.0039 211.193C60.0039 219.521 91.9264 226.241 131.314 226.241C170.701 226.241 202.647 219.497 202.647 211.193Z" fill="#BDBEBE"/>
<path opacity="0.27" d="M202.336 211.193C202.336 202.914 170.509 196.218 131.266 196.218C92.0228 196.218 60.1963 202.89 60.1963 211.193C60.1963 219.497 92.0228 226.169 131.266 226.169C170.509 226.169 202.336 219.449 202.336 211.193Z" fill="#BCBDBD"/>
<path opacity="0.28" d="M202.023 211.194C202.023 202.962 170.293 196.29 131.169 196.29C92.0464 196.29 60.3398 202.914 60.3398 211.194C60.3398 219.473 92.0464 226.073 131.169 226.073C170.293 226.073 202.023 219.401 202.023 211.194Z" fill="#BBBCBC"/>
<path opacity="0.28" d="M201.616 211.193C201.616 202.986 170.005 196.338 131.002 196.338C91.9989 196.338 60.4844 202.938 60.4844 211.193C60.4844 219.449 92.0949 226.049 131.098 226.049C170.101 226.049 201.616 219.353 201.616 211.193Z" fill="#BABBBC"/>
<path opacity="0.28" d="M201.399 211.194C201.399 203.034 169.885 196.41 131.002 196.41C92.1184 196.41 60.6279 202.962 60.6279 211.194C60.6279 219.425 92.1424 226.001 131.002 226.001C169.861 226.001 201.399 219.305 201.399 211.194Z" fill="#BABABB"/>
<path opacity="0.29" d="M201.088 211.194C201.088 203.058 169.669 196.458 130.93 196.458C92.191 196.458 60.7725 202.986 60.7725 211.194C60.7725 219.401 92.167 225.929 130.93 225.929C169.693 225.929 201.088 219.257 201.088 211.194Z" fill="#B9BABA"/>
<path opacity="0.29" d="M200.775 211.194C200.775 203.082 169.453 196.53 130.834 196.53C92.2145 196.53 60.916 202.986 60.916 211.194C60.916 219.402 92.1185 225.881 130.834 225.881C169.549 225.881 200.775 219.21 200.775 211.194Z" fill="#B8B9B9"/>
<path opacity="0.29" d="M200.463 211.194C200.463 203.106 169.261 196.578 130.857 196.578C92.4544 196.578 61.252 203.106 61.252 211.194C61.252 219.281 92.4544 225.809 130.978 225.809C169.501 225.809 200.463 219.161 200.463 211.194Z" fill="#B7B8B8"/>
<path opacity="0.29" d="M200.152 211.194C200.152 203.154 168.949 196.65 130.666 196.65C92.3831 196.65 61.1807 203.034 61.1807 211.194C61.1807 219.354 92.3832 225.761 130.786 225.761C169.189 225.761 200.152 219.114 200.152 211.194Z" fill="#B6B7B8"/>
<path opacity="0.3" d="M199.839 211.193C199.839 203.178 168.829 196.794 130.594 196.794C92.3587 196.794 61.3242 203.274 61.3242 211.193C61.3242 219.113 92.3347 225.593 130.594 225.593C168.853 225.593 199.839 219.065 199.839 211.193Z" fill="#B6B6B7"/>
<path opacity="0.3" d="M199.528 211.05C199.528 203.082 168.613 196.65 130.498 196.65C92.3832 196.65 61.4688 203.106 61.4688 211.05C61.4688 218.994 92.3832 225.449 130.498 225.449C168.613 225.449 199.528 219.018 199.528 211.05Z" fill="#B5B5B6"/>
<path opacity="0.3" d="M199.215 211.026C199.215 203.106 168.397 196.626 130.402 196.626C92.4068 196.626 61.6123 203.058 61.6123 211.026C61.6123 218.993 92.4068 225.425 130.402 225.425C168.397 225.425 199.215 218.969 199.215 211.026Z" fill="#B4B5B5"/>
<path opacity="0.31" d="M198.903 211.026C198.903 203.106 168.204 196.626 130.329 196.626C92.4543 196.626 61.7559 203.01 61.7559 211.026C61.7559 219.041 92.4543 225.425 130.329 225.425C168.204 225.425 198.903 218.921 198.903 211.026Z" fill="#B3B4B4"/>
<path opacity="0.31" d="M198.591 211.001C198.591 203.13 168.013 196.794 130.234 196.794C92.4548 196.794 61.9004 203.154 61.9004 211.025C61.9004 218.897 92.5028 225.281 130.234 225.281C167.965 225.281 198.591 218.873 198.591 211.001Z" fill="#B2B3B4"/>
<path opacity="0.31" d="M198.279 211.001C198.279 203.154 167.772 196.794 130.161 196.794C92.5504 196.794 62.0439 203.154 62.0439 211.001C62.0439 218.849 92.5264 225.185 130.161 225.185C167.796 225.185 198.279 218.849 198.279 211.001Z" fill="#B2B2B3"/>
<path opacity="0.31" d="M197.967 210.977C197.967 203.178 167.557 196.842 130.066 196.842C92.5749 196.842 62.1885 203.178 62.1885 210.977C62.1885 218.777 92.5749 225.113 130.066 225.113C167.557 225.113 197.967 218.801 197.967 210.977Z" fill="#B1B1B2"/>
<path opacity="0.32" d="M197.655 210.977C197.655 203.201 167.365 196.89 129.994 196.89C92.6227 196.89 62.4043 203.201 62.4043 210.977C62.4043 218.753 92.6947 225.041 130.066 225.041C167.437 225.041 197.655 218.753 197.655 210.977Z" fill="#B0B0B1"/>
<path opacity="0.32" d="M197.343 210.954C197.343 203.226 167.149 196.938 129.898 196.938C92.6467 196.938 62.4043 203.226 62.4043 210.954C62.4043 218.682 92.5747 224.97 129.826 224.97C167.077 224.97 197.343 218.706 197.343 210.954Z" fill="#AFB0B0"/>
<path opacity="0.32" d="M197.031 210.954C197.031 203.226 166.932 196.986 129.825 196.986C92.7185 196.986 62.6201 203.226 62.6201 210.954C62.6201 218.682 92.7185 224.897 129.825 224.897C166.932 224.897 197.031 218.658 197.031 210.954Z" fill="#AEAFAF"/>
<path opacity="0.33" d="M196.815 210.93C196.815 203.25 166.812 197.034 129.825 197.034C92.8383 197.034 62.8359 203.25 62.8359 210.93C62.8359 218.609 92.8383 224.825 129.825 224.825C166.812 224.825 196.815 218.609 196.815 210.93Z" fill="#ADAEAF"/>
<path opacity="0.33" d="M196.407 210.93C196.407 203.274 166.501 197.082 129.634 197.082C92.7671 197.082 62.8848 203.274 62.8848 210.93C62.8848 218.585 92.7911 224.753 129.61 224.753C166.429 224.753 196.407 218.561 196.407 210.93Z" fill="#ADADAE"/>
<path opacity="0.33" d="M196.095 210.905C196.095 203.298 166.309 197.13 129.562 197.13C92.8147 197.13 63.0283 203.298 63.0283 210.905C63.0283 218.513 92.8147 224.681 129.61 224.681C166.405 224.681 196.095 218.513 196.095 210.905Z" fill="#ACACAD"/>
<path opacity="0.34" d="M195.783 210.881C195.783 203.322 166.093 197.178 129.466 197.178C92.8392 197.178 63.1729 203.322 63.1729 210.881C63.1729 218.441 92.8632 224.609 129.466 224.609C166.069 224.609 195.783 218.393 195.783 210.881Z" fill="#ABABAC"/>
<path opacity="0.34" d="M195.471 210.881C195.471 203.345 165.877 197.226 129.394 197.226C92.9108 197.226 63.3164 203.345 63.3164 210.881C63.3164 218.417 92.9108 224.537 129.394 224.537C165.877 224.537 195.471 218.393 195.471 210.881Z" fill="#AAABAB"/>
<path opacity="0.34" d="M195.158 210.858C195.158 203.37 165.66 197.274 129.297 197.274C92.9343 197.274 63.46 203.37 63.46 210.858C63.46 218.346 92.9343 224.466 129.297 224.466C165.66 224.466 195.158 218.394 195.158 210.858Z" fill="#A9AAAA"/>
<path opacity="0.34" d="M194.847 210.858C194.847 203.37 165.469 197.322 129.226 197.322C92.9828 197.322 63.6045 203.37 63.6045 210.858C63.6045 218.346 92.9828 224.393 129.226 224.393C165.469 224.393 194.847 218.394 194.847 210.858Z" fill="#A8A9A9"/>
<path opacity="0.35" d="M194.534 210.834C194.534 203.394 165.252 197.37 129.129 197.37C93.0064 197.37 63.748 203.394 63.748 210.834C63.748 218.273 93.0304 224.321 129.129 224.321C165.228 224.321 194.534 218.393 194.534 210.834Z" fill="#A8A8A9"/>
<path opacity="0.35" d="M194.223 210.834C194.223 203.418 165.037 197.418 129.058 197.418C93.0789 197.418 63.8926 203.418 63.8926 210.834C63.8926 218.249 93.0549 224.249 129.058 224.249C165.061 224.249 194.223 218.225 194.223 210.834Z" fill="#A7A7A8"/>
<path opacity="0.35" d="M193.887 210.809C193.887 203.442 164.82 197.466 128.961 197.466C93.1026 197.466 64.1562 203.442 64.1562 210.809C64.1562 218.177 93.2226 224.177 129.081 224.177C164.94 224.177 193.887 218.201 193.887 210.809Z" fill="#A6A6A7"/>
<path opacity="0.36" d="M193.599 210.809C193.599 203.465 164.604 197.514 128.793 197.514C92.9826 197.514 63.9883 203.465 63.9883 210.809C63.9883 218.153 92.9826 224.105 128.793 224.105C164.604 224.105 193.599 218.153 193.599 210.809Z" fill="#A5A5A6"/>
<path opacity="0.36" d="M193.263 210.785C193.263 203.585 164.461 197.562 128.794 197.562C93.1271 197.562 64.3008 203.489 64.3008 210.785C64.3008 218.081 93.1031 224.033 128.794 224.033C164.485 224.033 193.263 218.105 193.263 210.785Z" fill="#A4A5A5"/>
<path opacity="0.36" d="M192.951 210.786C192.951 203.586 164.148 197.61 128.697 197.61C93.2466 197.61 64.4443 203.49 64.4443 210.786C64.4443 218.082 93.2466 223.962 128.697 223.962C164.148 223.962 192.951 218.058 192.951 210.786Z" fill="#A3A4A4"/>
<path opacity="0.36" d="M192.639 210.762C192.639 203.562 163.981 197.658 128.626 197.658C93.2712 197.658 64.5889 203.514 64.5889 210.762C64.5889 218.01 93.3912 223.865 128.626 223.865C163.861 223.865 192.639 218.01 192.639 210.762Z" fill="#A2A3A3"/>
<path opacity="0.37" d="M192.327 210.738C192.327 203.538 163.765 197.706 128.53 197.706C93.295 197.706 64.8047 203.538 64.8047 210.738C64.8047 217.937 93.367 223.793 128.602 223.793C163.837 223.793 192.327 217.961 192.327 210.738Z" fill="#A1A2A2"/>
<path opacity="0.37" d="M192.015 210.737C192.015 203.538 163.573 197.754 128.458 197.754C93.343 197.754 64.8047 203.562 64.8047 210.737C64.8047 217.913 93.271 223.721 128.386 223.721C163.501 223.721 192.015 217.913 192.015 210.737Z" fill="#A1A1A2"/>
<path opacity="0.37" d="M191.703 210.713C191.703 203.514 163.356 197.802 128.362 197.802C93.3668 197.802 65.0205 203.586 65.0205 210.713C65.0205 217.841 93.3908 223.649 128.362 223.649C163.332 223.649 191.703 217.865 191.703 210.713Z" fill="#A0A0A1"/>
<path opacity="0.38" d="M191.391 210.713C191.391 203.513 163.141 197.85 128.29 197.85C93.4393 197.85 65.165 203.609 65.165 210.713C65.165 217.817 93.4153 223.577 128.29 223.577C163.165 223.577 191.391 217.817 191.391 210.713Z" fill="#9F9FA0"/>
<path opacity="0.38" d="M191.079 210.69C191.079 203.49 162.924 197.898 128.194 197.898C93.4628 197.898 65.3086 203.61 65.3086 210.69C65.3086 217.77 93.4628 223.506 128.194 223.506C162.924 223.506 191.079 217.77 191.079 210.69Z" fill="#9E9E9F"/>
<path opacity="0.38" d="M190.766 210.689C190.766 203.634 162.708 197.922 128.121 197.922C93.5344 197.922 65.4521 203.634 65.4521 210.689C65.4521 217.745 93.6064 223.433 128.121 223.433C162.636 223.433 190.766 217.721 190.766 210.689Z" fill="#9D9D9E"/>
<path opacity="0.39" d="M190.454 210.665C190.454 203.658 162.516 197.97 128.049 197.97C93.5828 197.97 65.6445 203.658 65.6445 210.665C65.6445 217.673 93.5828 223.361 128.049 223.361C162.516 223.361 190.454 217.673 190.454 210.665Z" fill="#9C9D9D"/>
<path opacity="0.39" d="M190.143 210.665C190.143 203.681 162.3 198.018 127.93 198.018C93.559 198.018 65.7168 203.681 65.7168 210.665C65.7168 217.649 93.607 223.193 127.93 223.193C162.252 223.193 190.143 217.625 190.143 210.665Z" fill="#9B9C9C"/>
<path opacity="0.39" d="M189.83 210.642C189.83 203.706 162.084 198.066 127.857 198.066C93.6306 198.066 65.8604 203.706 65.8604 210.642C65.8604 217.578 93.6066 223.194 127.857 223.194C162.108 223.194 189.83 217.578 189.83 210.642Z" fill="#9A9B9B"/>
<path opacity="0.39" d="M189.615 210.642C189.615 203.73 161.965 198.114 127.858 198.114C93.7511 198.114 66.0049 203.73 66.0049 210.642C66.0049 217.554 93.6071 223.193 127.762 223.193C161.917 223.193 189.615 217.554 189.615 210.642Z" fill="#9A9A9A"/>
<path opacity="0.4" d="M189.206 210.618C189.206 203.73 161.676 198.162 127.689 198.162C93.7026 198.162 66.1484 203.73 66.1484 210.618C66.1484 217.505 93.6066 223.193 127.689 223.193C161.772 223.193 189.206 217.505 189.206 210.618Z" fill="#999999"/>
<path opacity="0.4" d="M188.895 210.594C188.895 203.754 161.461 198.21 127.594 198.21C93.7272 198.21 66.293 203.754 66.293 210.594C66.293 217.433 93.7512 223.001 127.594 223.001C161.437 223.001 188.895 217.457 188.895 210.594Z" fill="#989899"/>
<path opacity="0.4" d="M188.582 210.593C188.582 203.778 161.244 198.258 127.521 198.258C93.7987 198.258 66.4365 203.778 66.4365 210.593C66.4365 217.409 93.7747 222.929 127.521 222.929C161.268 222.929 188.582 217.409 188.582 210.593Z" fill="#979798"/>
<path opacity="0.41" d="M188.271 210.569C188.271 203.801 161.029 198.306 127.426 198.306C93.8232 198.306 66.5811 203.801 66.5811 210.569C66.5811 217.337 93.8232 222.857 127.426 222.857C161.029 222.857 188.271 217.361 188.271 210.569Z" fill="#969697"/>
<path opacity="0.41" d="M187.958 210.569C187.958 203.825 160.812 198.354 127.353 198.354C93.8948 198.354 66.7246 203.825 66.7246 210.569C66.7246 217.313 93.8708 222.785 127.353 222.785C160.836 222.785 187.958 217.313 187.958 210.569Z" fill="#959596"/>
<path opacity="0.41" d="M187.647 210.546C187.647 203.85 160.621 198.402 127.258 198.402C93.8953 198.402 66.8691 203.85 66.8691 210.546C66.8691 217.242 93.8953 222.714 127.21 222.714C160.525 222.714 187.647 217.266 187.647 210.546Z" fill="#949595"/>
<path opacity="0.41" d="M187.334 210.546C187.334 203.85 160.404 198.546 127.161 198.546C93.9188 198.546 67.0127 203.946 67.0127 210.546C67.0127 217.145 93.9428 222.545 127.161 222.545C160.38 222.545 187.334 217.217 187.334 210.546Z" fill="#939494"/>
<path opacity="0.42" d="M187.022 210.521C187.022 203.873 160.188 198.521 127.017 198.521C93.8468 198.521 67.0127 203.897 67.0127 210.521C67.0127 217.145 93.8468 222.521 127.017 222.521C160.188 222.521 187.022 217.169 187.022 210.521Z" fill="#939393"/>
<path opacity="0.42" d="M186.711 210.521C186.711 203.897 159.972 198.521 126.994 198.521C94.0152 198.521 67.2051 203.993 67.2051 210.521C67.2051 217.049 93.9432 222.521 126.922 222.521C159.9 222.521 186.711 217.121 186.711 210.521Z" fill="#929292"/>
<path opacity="0.42" d="M186.398 210.498C186.398 203.922 159.78 198.498 126.922 198.498C94.063 198.498 67.4209 203.826 67.4209 210.498C67.4209 217.169 94.063 222.497 126.922 222.497C159.78 222.497 186.398 217.073 186.398 210.498Z" fill="#919191"/>
<path opacity="0.43" d="M186.086 210.497C186.086 203.945 159.684 198.642 126.825 198.642C93.9666 198.642 67.5645 203.993 67.5645 210.497C67.5645 217.001 94.1106 222.329 126.825 222.329C159.54 222.329 186.086 217.025 186.086 210.497Z" fill="#909090"/>
<path opacity="0.43" d="M185.774 210.474C185.774 203.97 159.372 198.69 126.754 198.69C94.1351 198.69 67.709 203.994 67.709 210.474C67.709 216.954 94.1111 222.258 126.754 222.258C159.396 222.258 185.774 216.978 185.774 210.474Z" fill="#8F8F90"/>
<path opacity="0.43" d="M185.462 210.45C185.462 203.97 159.06 198.738 126.657 198.738C94.2546 198.738 67.8525 203.994 67.8525 210.45C67.8525 216.906 94.2546 222.186 126.657 222.186C159.06 222.186 185.462 216.93 185.462 210.45Z" fill="#8E8E8F"/>
<path opacity="0.44" d="M185.15 210.45C185.15 203.994 158.916 198.786 126.586 198.786C94.2552 198.786 67.9971 203.994 67.9971 210.45C67.9971 216.906 94.2312 222.113 126.586 222.113C158.94 222.113 185.15 216.906 185.15 210.45Z" fill="#8D8D8E"/>
<path opacity="0.44" d="M184.814 210.426C184.814 203.994 158.724 198.834 126.489 198.834C94.2547 198.834 68.1406 203.994 68.1406 210.426C68.1406 216.857 94.2547 222.041 126.489 222.041C158.724 222.041 184.814 216.857 184.814 210.426Z" fill="#8C8C8D"/>
<path opacity="0.44" d="M184.526 210.425C184.526 204.042 158.508 198.882 126.394 198.882C94.2792 198.882 68.2852 203.994 68.2852 210.425C68.2852 216.857 94.3032 221.969 126.394 221.969C158.484 221.969 184.526 216.809 184.526 210.425Z" fill="#8B8B8C"/>
<path opacity="0.44" d="M184.214 210.401C184.214 204.066 158.292 198.93 126.321 198.93C94.3508 198.93 68.4287 203.994 68.4287 210.401C68.4287 216.809 94.3508 221.897 126.321 221.897C158.292 221.897 184.214 216.761 184.214 210.401Z" fill="#8A8A8B"/>
<path opacity="0.45" d="M183.902 210.401C183.902 204.089 158.075 198.978 126.297 198.978C94.5184 198.978 68.6924 204.089 68.6924 210.401C68.6924 216.713 94.4944 221.825 126.297 221.825C158.099 221.825 183.902 216.713 183.902 210.401Z" fill="#8A8A8A"/>
<path opacity="0.45" d="M183.59 210.378C183.59 204.114 157.884 199.002 126.153 199.002C94.4228 199.002 68.7168 204.114 68.7168 210.378C68.7168 216.641 94.4228 221.753 126.153 221.753C157.884 221.753 183.59 216.665 183.59 210.378Z" fill="#898989"/>
<path opacity="0.45" d="M183.278 210.377C183.278 204.114 157.668 199.05 126.057 199.05C94.447 199.05 68.8369 204.114 68.8369 210.377C68.8369 216.641 94.471 221.681 126.057 221.681C157.644 221.681 183.278 216.617 183.278 210.377Z" fill="#888888"/>
<path opacity="0.46" d="M182.966 210.354C182.966 204.138 157.452 199.194 125.985 199.194C94.5185 199.194 68.9805 204.234 68.9805 210.45C68.9805 216.666 94.4945 221.706 125.985 221.706C157.476 221.706 182.966 216.57 182.966 210.354Z" fill="#878787"/>
<path opacity="0.46" d="M182.654 210.354C182.654 204.162 157.236 199.194 125.89 199.194C94.543 199.194 69.125 204.162 69.125 210.354C69.125 216.546 94.543 221.538 125.89 221.538C157.236 221.538 182.654 216.522 182.654 210.354Z" fill="#868686"/>
<path opacity="0.46" d="M182.414 210.33C182.414 204.186 157.02 199.194 125.817 199.194C94.6146 199.194 69.2686 204.186 69.2686 210.33C69.2686 216.474 94.5906 221.466 125.817 221.466C157.044 221.466 182.414 216.474 182.414 210.33Z" fill="#858585"/>
<path opacity="0.46" d="M182.03 210.306C182.03 204.21 156.828 199.242 125.722 199.242C94.6151 199.242 69.4131 204.21 69.4131 210.306C69.4131 216.402 94.6151 221.393 125.722 221.393C156.828 221.393 182.03 216.426 182.03 210.306Z" fill="#848484"/>
<path opacity="0.47" d="M181.717 210.306C181.717 204.234 156.611 199.194 125.649 199.194C94.6865 199.194 69.6045 204.234 69.6045 210.306C69.6045 216.378 94.7105 221.322 125.697 221.322C156.683 221.322 181.717 216.378 181.717 210.306Z" fill="#838383"/>
<path opacity="0.47" d="M181.405 210.282C181.405 204.234 156.395 199.338 125.553 199.338C94.7105 199.338 69.6045 204.234 69.6045 210.282C69.6045 216.329 94.6145 221.249 125.457 221.249C156.299 221.249 181.405 216.329 181.405 210.282Z" fill="#828282"/>
<path opacity="0.47" d="M181.094 210.281C181.094 204.258 156.18 199.386 125.457 199.386C94.7347 199.386 69.8447 204.186 69.8447 210.281C69.8447 216.377 94.7347 221.177 125.457 221.177C156.18 221.177 181.094 216.281 181.094 210.281Z" fill="#818182"/>
<path opacity="0.48" d="M180.782 210.257C180.782 204.281 155.988 199.434 125.386 199.434C94.7832 199.434 69.9893 204.233 69.9893 210.257C69.9893 216.281 94.7832 221.105 125.386 221.105C155.988 221.105 180.782 216.257 180.782 210.257Z" fill="#818081"/>
<path opacity="0.48" d="M180.469 210.258C180.469 204.306 155.771 199.482 125.265 199.482C94.7585 199.482 70.0605 204.282 70.0605 210.258C70.0605 216.234 94.7585 221.034 125.265 221.034C155.771 221.034 180.469 216.21 180.469 210.258Z" fill="#807F80"/>
<path opacity="0.48" d="M180.158 210.234C180.158 204.33 155.556 199.53 125.218 199.53C94.8793 199.53 70.2773 204.33 70.2773 210.234C70.2773 216.138 94.8793 220.962 125.218 220.962C155.556 220.962 180.158 216.162 180.158 210.234Z" fill="#7F7E7F"/>
<path opacity="0.49" d="M179.846 210.234C179.846 204.354 155.34 199.578 125.122 199.578C94.9034 199.578 70.3975 204.378 70.3975 210.234C70.3975 216.09 94.9034 220.793 125.122 220.793C155.34 220.793 179.846 216.114 179.846 210.234Z" fill="#7E7E7E"/>
<path opacity="0.49" d="M179.534 210.21C179.534 204.354 155.124 199.626 125.049 199.626C94.975 199.626 70.541 204.426 70.541 210.21C70.541 215.993 94.951 220.793 125.049 220.793C155.148 220.793 179.534 215.993 179.534 210.21Z" fill="#7D7D7D"/>
<path opacity="0.49" d="M179.221 210.209C179.221 204.378 154.931 199.674 124.953 199.674C94.9745 199.674 70.6846 204.474 70.6846 210.209C70.6846 215.945 94.9985 220.793 124.953 220.793C154.907 220.793 179.221 215.993 179.221 210.209Z" fill="#7C7C7C"/>
<path opacity="0.49" d="M178.91 210.185C178.91 204.402 154.716 199.722 124.881 199.722C95.047 199.722 70.8291 204.522 70.8291 210.185C70.8291 215.849 95.023 220.649 124.809 220.649C154.596 220.649 178.91 215.993 178.91 210.185Z" fill="#7B7B7B"/>
<path opacity="0.5" d="M178.597 210.161C178.597 204.425 154.595 199.77 124.785 199.77C94.9746 199.77 70.9727 204.425 70.9727 210.161C70.9727 215.897 94.9746 220.577 124.785 220.577C154.595 220.577 178.597 215.993 178.597 210.161Z" fill="#7A7A7A"/>
<path opacity="0.5" d="M178.286 210.162C178.286 204.45 154.284 199.818 124.689 199.818C95.0951 199.818 71.1172 204.45 71.1172 210.162C71.1172 215.874 95.1191 220.506 124.689 220.506C154.26 220.506 178.286 215.994 178.286 210.162Z" fill="#797979"/>
<path opacity="0.5" d="M177.973 210.138C177.973 204.474 153.971 199.866 124.617 199.866C95.2626 199.866 71.2607 204.474 71.2607 210.138C71.2607 215.802 95.2626 220.434 124.617 220.434C153.971 220.434 177.973 215.826 177.973 210.138Z" fill="#787878"/>
<path opacity="0.51" d="M177.614 210.138C177.614 204.474 153.828 199.914 124.474 199.914C95.1193 199.914 71.3574 204.474 71.3574 210.138C71.3574 215.802 95.1433 220.361 124.474 220.361C153.804 220.361 177.614 215.778 177.614 210.138Z" fill="#787777"/>
<path opacity="0.51" d="M177.35 210.114C177.35 204.498 153.66 199.962 124.545 199.962C95.4311 199.962 71.7412 204.498 71.7412 210.114C71.7412 215.729 95.4311 220.289 124.545 220.289C153.66 220.289 177.35 215.729 177.35 210.114Z" fill="#777676"/>
<path opacity="0.51" d="M177.038 210.113C177.038 204.522 153.444 200.01 124.233 200.01C95.0231 200.01 71.5732 204.522 71.5732 210.113C71.5732 215.705 95.1431 220.217 124.233 220.217C153.324 220.217 177.038 215.681 177.038 210.113Z" fill="#767575"/>
<path opacity="0.51" d="M176.725 210.089C176.725 204.545 153.227 200.058 124.281 200.058C95.3348 200.058 71.8369 204.545 71.8369 210.089C71.8369 215.633 95.3108 220.145 124.281 220.145C153.251 220.145 176.725 215.633 176.725 210.089Z" fill="#757474"/>
<path opacity="0.52" d="M176.413 210.089C176.413 204.569 153.035 200.105 124.185 200.105C95.3347 200.105 72.0049 204.569 72.0049 210.089C72.0049 215.609 95.4067 220.073 124.233 220.073C153.059 220.073 176.413 215.609 176.413 210.089Z" fill="#747373"/>
<path opacity="0.52" d="M176.101 210.066C176.101 204.594 152.819 200.13 124.113 200.13C95.4067 200.13 72.0049 204.594 72.0049 210.066C72.0049 215.537 95.2867 220.001 124.017 220.001C152.747 220.001 176.101 215.561 176.101 210.066Z" fill="#737273"/>
<path opacity="0.52" d="M175.789 210.065C175.789 204.594 152.604 200.178 124.017 200.178C95.431 200.178 72.2451 204.594 72.2451 210.065C72.2451 215.537 95.431 219.929 124.017 219.929C152.604 219.929 175.789 215.513 175.789 210.065Z" fill="#727172"/>
<path opacity="0.53" d="M175.477 210.041C175.477 204.617 152.387 200.226 123.921 200.226C95.4545 200.226 72.3887 204.617 72.3887 210.041C72.3887 215.465 95.4785 219.857 123.921 219.857C152.363 219.857 175.477 215.465 175.477 210.041Z" fill="#717071"/>
<path opacity="0.53" d="M175.213 210.041C175.213 204.641 152.243 200.273 123.897 200.273C95.5509 200.273 72.5811 204.641 72.5811 210.041C72.5811 215.441 95.5509 219.785 123.897 219.785C152.243 219.785 175.213 215.417 175.213 210.041Z" fill="#706F70"/>
<path opacity="0.53" d="M174.853 210.018C174.853 204.666 151.979 200.418 123.753 200.418C95.5266 200.418 72.6768 204.762 72.6768 210.018C72.6768 215.273 95.5506 219.617 123.753 219.617C151.955 219.617 174.853 215.369 174.853 210.018Z" fill="#6F6F6F"/>
<path opacity="0.54" d="M174.541 209.993C174.541 204.689 151.764 200.394 123.681 200.394C95.5991 200.394 72.8213 204.713 72.8213 209.993C72.8213 215.273 95.5991 219.593 123.681 219.593C151.764 219.593 174.541 215.321 174.541 209.993Z" fill="#6E6E6E"/>
<path opacity="0.54" d="M174.229 209.993C174.229 204.713 151.547 200.394 123.585 200.394C95.6227 200.394 72.9648 204.713 72.9648 209.993C72.9648 215.273 95.6227 219.593 123.585 219.593C151.547 219.593 174.229 215.273 174.229 209.993Z" fill="#6D6D6D"/>
<path opacity="0.54" d="M173.917 209.97C173.917 204.714 151.332 200.37 123.513 200.37C95.6952 200.37 73.1094 204.618 73.1094 209.97C73.1094 215.322 95.6712 219.57 123.513 219.57C151.356 219.57 173.917 215.226 173.917 209.97Z" fill="#6C6C6C"/>
<path opacity="0.54" d="M173.605 209.969C173.605 204.738 151.139 200.514 123.417 200.514C95.6947 200.514 73.2529 204.738 73.2529 209.969C73.2529 215.201 95.7187 219.401 123.417 219.401C151.115 219.401 173.605 215.177 173.605 209.969Z" fill="#6C6B6B"/>
<path opacity="0.55" d="M173.293 209.945C173.293 204.761 150.924 200.562 123.345 200.562C95.7672 200.562 73.3975 204.761 73.3975 209.945C73.3975 215.129 95.7432 219.329 123.345 219.329C150.948 219.329 173.293 215.129 173.293 209.945Z" fill="#6B6A6A"/>
<path opacity="0.55" d="M172.982 209.946C172.982 204.786 150.708 200.61 123.25 200.61C95.7914 200.61 73.5176 204.786 73.5176 209.946C73.5176 215.106 95.7914 219.258 123.25 219.258C150.708 219.258 172.982 215.082 172.982 209.946Z" fill="#6A6969"/>
<path opacity="0.55" d="M172.669 209.922C172.669 204.81 150.491 200.658 123.153 200.658C95.8149 200.658 73.6611 204.81 73.6611 209.922C73.6611 215.034 95.8389 219.186 123.153 219.186C150.467 219.186 172.669 215.034 172.669 209.922Z" fill="#696868"/>
<path opacity="0.56" d="M172.334 209.922C172.334 204.834 150.3 200.706 123.082 200.706C95.8634 200.706 73.8057 204.834 73.8057 209.922C73.8057 215.01 95.8634 219.113 123.082 219.113C150.3 219.113 172.334 214.986 172.334 209.922Z" fill="#686767"/>
<path opacity="0.56" d="M172.045 209.898C172.045 204.858 150.083 200.754 122.985 200.754C95.887 200.754 73.9492 204.858 73.9492 209.898C73.9492 214.937 96.007 219.041 122.985 219.041C149.963 219.041 172.045 214.961 172.045 209.898Z" fill="#676666"/>
<path opacity="0.56" d="M171.71 209.897C171.71 204.858 149.868 200.802 122.914 200.802C95.9595 200.802 74.0938 204.858 74.0938 209.897C74.0938 214.937 96.0075 218.969 122.914 218.969C149.82 218.969 171.71 214.913 171.71 209.897Z" fill="#666565"/>
<path opacity="0.56" d="M171.397 209.873C171.397 204.881 149.651 200.85 122.817 200.85C95.983 200.85 74.2373 204.881 74.2373 209.873C74.2373 214.865 96.007 218.897 122.817 218.897C149.627 218.897 171.397 214.865 171.397 209.873Z" fill="#656464"/>
<path opacity="0.57" d="M171.085 209.849C171.085 204.905 149.483 200.897 122.745 200.897C96.007 200.897 74.4053 204.905 74.4053 209.849C74.4053 214.793 96.007 218.825 122.769 218.825C149.531 218.825 171.085 214.817 171.085 209.849Z" fill="#646363"/>
<path opacity="0.57" d="M170.773 209.85C170.773 205.05 149.171 200.946 122.649 200.946C96.1272 200.946 74.6455 204.93 74.6455 209.85C74.6455 214.77 96.2472 218.754 122.769 218.754C149.291 218.754 170.773 214.77 170.773 209.85Z" fill="#636262"/>
<path opacity="0.57" d="M170.413 209.826C170.413 205.026 148.979 200.994 122.529 200.994C96.0791 200.994 74.5254 204.954 74.5254 209.826C74.5254 214.698 95.9591 218.682 122.529 218.682C149.099 218.682 170.413 214.722 170.413 209.826Z" fill="#626161"/>
<path opacity="0.58" d="M170.149 209.826C170.149 205.026 148.811 201.042 122.481 201.042C96.1512 201.042 74.8135 204.978 74.8135 209.826C74.8135 214.674 96.1512 218.609 122.409 218.609C148.667 218.609 170.149 214.674 170.149 209.826Z" fill="#61605F"/>
<path opacity="0.58" d="M169.837 209.802C169.837 205.002 148.595 201.09 122.385 201.09C96.1747 201.09 74.957 204.978 74.957 209.802C74.957 214.625 96.1987 218.537 122.409 218.537C148.619 218.537 169.837 214.625 169.837 209.802Z" fill="#605F5E"/>
<path opacity="0.58" d="M169.525 209.801C169.525 205.002 148.379 201.138 122.313 201.138C96.2468 201.138 75.0771 205.002 75.0771 209.801C75.0771 214.601 96.2228 218.393 122.409 218.393C148.595 218.393 169.525 214.577 169.525 209.801Z" fill="#5F5D5D"/>
<path opacity="0.59" d="M169.213 209.777C169.213 204.977 148.187 201.186 122.217 201.186C96.2473 201.186 75.2217 205.025 75.2217 209.777C75.2217 214.529 96.2713 218.393 122.217 218.393C148.163 218.393 169.213 214.529 169.213 209.777Z" fill="#5E5C5C"/>
<path opacity="0.59" d="M168.901 209.777C168.901 204.977 147.971 201.233 122.145 201.233C96.3189 201.233 75.3652 205.049 75.3652 209.777C75.3652 214.505 96.3189 218.393 122.145 218.393C147.971 218.393 168.901 214.481 168.901 209.777Z" fill="#5D5B5B"/>
<path opacity="0.59" d="M168.589 209.754C168.589 204.954 147.756 201.258 122.049 201.258C96.3434 201.258 75.5098 205.074 75.5098 209.754C75.5098 214.433 96.3434 218.249 122.049 218.249C147.756 218.249 168.589 214.433 168.589 209.754Z" fill="#5C5A5A"/>
<path opacity="0.59" d="M168.277 209.753C168.277 205.098 147.539 201.306 121.977 201.306C96.415 201.306 75.6533 205.098 75.6533 209.753C75.6533 214.409 96.391 218.177 121.977 218.177C147.563 218.177 168.277 214.385 168.277 209.753Z" fill="#5B5959"/>
<path opacity="0.6" d="M168.013 209.729C168.013 205.097 147.395 201.354 121.929 201.354C96.4633 201.354 75.8457 205.097 75.8457 209.729C75.8457 214.361 96.4873 218.105 121.929 218.105C147.371 218.105 168.013 214.337 168.013 209.729Z" fill="#5A5858"/>
<path opacity="0.6" d="M75.9414 209.706C75.9414 214.314 96.463 218.034 121.809 218.034C147.155 218.034 167.653 214.314 167.653 209.706C167.653 205.098 147.131 201.402 121.809 201.402C96.487 201.402 75.9414 205.122 75.9414 209.706Z" fill="#595757"/>
<path opacity="0.6" d="M166.861 209.657C166.861 205.146 146.555 201.474 121.521 201.474C96.4873 201.474 76.1816 205.146 76.1816 209.657C76.1816 214.169 96.4873 217.865 121.521 217.865C146.555 217.865 166.861 214.193 166.861 209.657Z" fill="#585656"/>
<path opacity="0.61" d="M166.045 209.609C166.045 205.145 145.979 201.521 121.233 201.521C96.4875 201.521 76.4219 205.145 76.4219 209.609C76.4219 214.073 96.4875 217.697 121.233 217.697C145.979 217.697 166.045 214.073 166.045 209.609Z" fill="#575555"/>
<path opacity="0.61" d="M165.253 209.561C165.253 205.17 145.403 201.594 120.945 201.594C96.4873 201.594 76.6377 205.17 76.6377 209.561C76.6377 213.953 96.4873 217.553 120.945 217.553C145.403 217.553 165.253 213.977 165.253 209.561Z" fill="#565454"/>
<path opacity="0.62" d="M164.437 209.514C164.437 205.17 144.851 201.666 120.657 201.666C96.4632 201.666 76.8057 205.17 76.8057 209.514C76.8057 213.858 96.4152 217.386 120.585 217.386C144.755 217.386 164.437 213.858 164.437 209.514Z" fill="#555353"/>
<path opacity="0.62" d="M163.644 209.466C163.644 205.194 144.275 201.714 120.441 201.714C96.6068 201.714 77.2373 205.194 77.2373 209.466C77.2373 213.737 96.6068 217.217 120.441 217.217C144.275 217.217 163.644 213.761 163.644 209.466Z" fill="#545252"/>
<path opacity="0.62" d="M162.828 209.418C162.828 205.194 143.627 201.786 120.105 201.786C96.583 201.786 77.3574 205.194 77.3574 209.418C77.3574 213.642 96.559 217.074 120.105 217.074C143.651 217.074 162.828 213.594 162.828 209.418Z" fill="#535150"/>
<path opacity="0.63" d="M162.036 209.37C162.036 205.218 143.123 201.834 119.817 201.834C96.5112 201.834 77.5977 205.218 77.5977 209.37C77.5977 213.522 96.5112 216.905 119.817 216.905C143.123 216.905 162.036 213.594 162.036 209.37Z" fill="#52504F"/>
<path opacity="0.63" d="M161.221 209.322C161.221 205.218 142.547 201.906 119.529 201.906C96.5114 201.906 77.8379 205.218 77.8379 209.322C77.8379 213.426 96.5114 216.738 119.529 216.738C142.547 216.738 161.221 213.426 161.221 209.322Z" fill="#514F4E"/>
<path opacity="0.63" d="M160.428 209.274C160.428 205.242 141.994 202.074 119.24 202.074C96.4866 202.074 78.0771 205.362 78.0771 209.274C78.0771 213.186 96.5106 216.474 119.24 216.474C141.97 216.474 160.428 213.306 160.428 209.274Z" fill="#504D4D"/>
<path opacity="0.64" d="M159.612 209.225C159.612 205.241 141.418 202.025 118.953 202.025C96.4868 202.025 78.3174 205.241 78.3174 209.225C78.3174 213.209 96.5108 216.425 118.953 216.425C141.394 216.425 159.612 213.209 159.612 209.225Z" fill="#4F4C4C"/>
<path opacity="0.64" d="M158.82 209.177C158.82 205.265 140.842 201.978 118.688 201.978C96.5346 201.978 78.5332 205.169 78.5332 209.177C78.5332 213.185 96.5106 216.377 118.688 216.377C140.866 216.377 158.82 213.089 158.82 209.177Z" fill="#4E4B4B"/>
<path opacity="0.65" d="M158.004 209.129C158.004 205.265 140.266 202.146 118.401 202.146C96.5349 202.146 78.7734 205.265 78.7734 209.129C78.7734 212.993 96.5109 216.113 118.401 216.113C140.29 216.113 158.004 212.969 158.004 209.129Z" fill="#4D4A4A"/>
<path opacity="0.65" d="M157.188 209.082C157.188 205.29 139.691 202.218 118.113 202.218C96.5351 202.218 79.0137 205.29 79.0137 209.082C79.0137 212.873 96.5111 215.993 118.113 215.993C139.715 215.993 157.188 212.873 157.188 209.082Z" fill="#4C4948"/>
<path opacity="0.65" d="M156.396 209.033C156.396 205.29 139.139 202.266 117.825 202.266C96.5114 202.266 79.2061 205.29 79.2061 209.033C79.2061 212.777 96.4874 215.777 117.777 215.777C139.067 215.777 156.396 212.753 156.396 209.033Z" fill="#4B4847"/>
<path opacity="0.66" d="M155.58 208.986C155.58 205.314 138.563 202.338 117.537 202.338C96.5115 202.338 79.4941 205.314 79.4941 208.986C79.4941 212.658 96.5355 215.609 117.537 215.609C138.539 215.609 155.58 212.658 155.58 208.986Z" fill="#4A4746"/>
<path opacity="0.66" d="M154.787 208.914C154.787 205.314 137.986 202.386 117.248 202.386C96.5107 202.386 79.7334 205.314 79.7334 208.914C79.7334 212.513 96.5347 215.465 117.248 215.465C137.962 215.465 154.787 212.537 154.787 208.914Z" fill="#494645"/>
<path opacity="0.67" d="M153.972 208.794C153.972 205.266 137.41 202.386 116.961 202.386C96.5109 202.386 79.9736 205.338 79.9736 208.794C79.9736 212.249 96.535 215.225 116.961 215.225C137.386 215.225 153.972 212.417 153.972 208.794Z" fill="#484444"/>
<path opacity="0.67" d="M153.18 208.793C153.18 205.313 136.834 202.481 116.697 202.481C96.5592 202.481 80.2139 205.337 80.2139 208.793C80.2139 212.249 96.5352 215.129 116.697 215.129C136.858 215.129 153.18 212.321 153.18 208.793Z" fill="#474343"/>
<path opacity="0.67" d="M152.363 208.793C152.363 205.385 136.258 202.602 116.36 202.602C96.4627 202.602 80.3574 205.385 80.3574 208.793C80.3574 212.201 96.4627 215.009 116.36 215.009C136.258 215.009 152.363 212.201 152.363 208.793Z" fill="#464242"/>
<path opacity="0.68" d="M151.572 208.794C151.572 205.434 135.706 202.698 116.121 202.698C96.5352 202.698 80.6699 205.362 80.6699 208.794C80.6699 212.226 96.5592 214.89 116.121 214.89C135.682 214.89 151.572 212.106 151.572 208.794Z" fill="#454140"/>
<path opacity="0.68" d="M150.756 208.793C150.756 205.505 135.13 202.817 115.833 202.817C96.5354 202.817 80.9102 205.385 80.9102 208.793C80.9102 212.201 96.5594 214.769 115.833 214.769C135.106 214.769 150.756 211.985 150.756 208.793Z" fill="#44403F"/>
<path opacity="0.68" d="M149.963 208.625C149.963 205.385 134.554 202.77 115.544 202.77C96.5346 202.77 81.1494 205.385 81.1494 208.625C81.1494 211.865 96.5586 214.505 115.544 214.505C134.53 214.505 149.963 211.865 149.963 208.625Z" fill="#433F3E"/>
<path opacity="0.69" d="M149.147 208.577C149.147 205.409 133.978 202.817 115.28 202.817C96.5829 202.817 81.3896 205.409 81.3896 208.577C81.3896 211.745 96.5589 214.337 115.28 214.337C134.002 214.337 149.147 211.769 149.147 208.577Z" fill="#423E3D"/>
<path opacity="0.69" d="M148.355 208.529C148.355 205.41 133.402 202.89 114.992 202.89C96.5827 202.89 81.6055 205.41 81.6055 208.529C81.6055 211.649 96.5347 214.169 114.968 214.169C133.402 214.169 148.355 211.649 148.355 208.529Z" fill="#413D3C"/>
<path opacity="0.7" d="M147.539 208.481C147.539 205.433 132.85 202.938 114.705 202.938C96.5593 202.938 81.8701 205.337 81.8701 208.481C81.8701 211.625 96.5593 214.025 114.705 214.025C132.85 214.025 147.539 211.529 147.539 208.481Z" fill="#3F3B3B"/>
<path opacity="0.7" d="M146.747 208.434C146.747 205.434 132.346 203.01 114.417 203.01C96.4871 203.01 82.0859 205.41 82.0859 208.434C82.0859 211.457 96.4871 213.857 114.417 213.857C132.346 213.857 146.747 211.434 146.747 208.434Z" fill="#3E3A39"/>
<path opacity="0.7" d="M145.931 208.385C145.931 205.458 131.698 203.058 114.129 203.058C96.5593 203.058 82.3262 205.458 82.3262 208.385C82.3262 211.313 96.5833 213.593 114.129 213.593C131.674 213.593 145.931 211.313 145.931 208.385Z" fill="#3D3938"/>
<path opacity="0.71" d="M145.139 208.338C145.139 205.458 131.122 203.13 113.937 203.13C96.7515 203.13 82.7344 205.53 82.7344 208.338C82.7344 211.146 96.5835 213.594 113.841 213.594C131.098 213.594 145.139 211.194 145.139 208.338Z" fill="#3C3837"/>
<path opacity="0.71" d="M144.323 208.29C144.323 205.482 130.545 203.178 113.576 203.178C96.6068 203.178 82.8057 205.578 82.8057 208.29C82.8057 211.001 96.5828 213.377 113.576 213.377C130.569 213.377 144.323 211.193 144.323 208.29Z" fill="#3B3735"/>
<path opacity="0.72" d="M143.531 208.242C143.531 205.482 129.994 203.25 113.288 203.25C96.583 203.25 83.0459 205.482 83.0459 208.242C83.0459 211.002 96.583 213.21 113.288 213.21C129.994 213.21 143.531 210.978 143.531 208.242Z" fill="#3A3534"/>
<path opacity="0.72" d="M142.715 208.193C142.715 205.505 129.418 203.394 113.001 203.394C96.5832 203.394 83.2861 205.601 83.2861 208.193C83.2861 210.785 96.5832 212.993 113.001 212.993C129.418 212.993 142.715 210.881 142.715 208.193Z" fill="#393332"/>
<path opacity="0.72" d="M141.923 208.146C141.923 205.506 128.842 203.346 112.713 203.346C96.5834 203.346 83.5264 205.482 83.5264 208.146C83.5264 210.809 96.5834 212.945 112.713 212.945C128.842 212.945 141.923 210.761 141.923 208.146Z" fill="#383230"/>
<path opacity="0.73" d="M141.106 208.073C141.106 205.529 128.265 203.441 112.424 203.441C96.5826 203.441 83.7656 205.529 83.7656 208.073C83.7656 210.617 96.6066 212.729 112.424 212.729C128.241 212.729 141.106 210.665 141.106 208.073Z" fill="#36302F"/>
<path opacity="0.73" d="M140.314 208.026C140.314 205.626 127.689 203.49 112.136 203.49C96.5829 203.49 84.0059 205.53 84.0059 208.026C84.0059 210.522 96.6309 212.586 112.16 212.586C127.689 212.586 140.314 210.546 140.314 208.026Z" fill="#352F2D"/>
<path opacity="0.73" d="M139.498 207.977C139.498 205.577 127.137 203.562 111.872 203.562C96.6067 203.562 84.2217 205.553 84.2217 207.977C84.2217 210.401 96.6067 212.417 111.872 212.417C127.137 212.417 139.498 210.425 139.498 207.977Z" fill="#342D2B"/>
<path opacity="0.74" d="M138.682 207.929C138.682 205.529 126.561 203.609 111.584 203.609C96.6069 203.609 84.4619 205.553 84.4619 207.929C84.4619 210.305 96.6069 212.249 111.584 212.249C126.561 212.249 138.682 210.329 138.682 207.929Z" fill="#332C2A"/>
<path opacity="0.74" d="M137.89 207.882C137.89 205.482 125.889 203.682 111.296 203.682C96.7031 203.682 84.7021 205.554 84.7021 207.882C84.7021 210.209 96.7031 212.105 111.296 212.105C125.889 212.105 137.89 210.209 137.89 207.882Z" fill="#312A28"/>
<path opacity="0.75" d="M137.075 207.833C137.075 205.577 125.41 203.729 111.008 203.729C96.6073 203.729 84.9424 205.577 84.9424 207.833C84.9424 210.089 96.6073 211.937 111.008 211.937C125.41 211.937 137.075 210.113 137.075 207.833Z" fill="#302826"/>
<path opacity="0.75" d="M136.283 207.786C136.283 205.602 124.834 203.802 110.721 203.802C96.6075 203.802 85.1826 205.602 85.1826 207.786C85.1826 209.97 96.6075 211.77 110.721 211.77C124.834 211.77 136.283 209.994 136.283 207.786Z" fill="#2F2725"/>
<path opacity="0.75" d="M135.466 207.737C135.466 205.602 124.281 203.85 110.432 203.85C96.5828 203.85 85.4219 205.602 85.4219 207.737C85.4219 209.873 96.6308 211.625 110.408 211.625C124.185 211.625 135.466 209.873 135.466 207.737Z" fill="#2E2523"/>
<path opacity="0.76" d="M134.674 207.69C134.674 205.602 123.705 203.922 110.168 203.922C96.631 203.922 85.6621 205.602 85.6621 207.69C85.6621 209.778 96.631 211.458 110.168 211.458C123.705 211.458 134.674 209.778 134.674 207.69Z" fill="#2C2422"/>
<path opacity="0.76" d="M133.858 207.642C133.858 205.626 123.129 203.994 109.856 203.994C96.5833 203.994 85.8545 205.626 85.8545 207.642C85.8545 209.658 96.6313 211.194 109.88 211.194C123.129 211.194 133.858 209.658 133.858 207.642Z" fill="#2B2220"/>
<path opacity="0.77" d="M133.066 207.594C133.066 205.626 122.553 204.042 109.592 204.042C96.631 204.042 86.1182 205.626 86.1182 207.594C86.1182 209.562 96.631 211.194 109.592 211.194C122.553 211.194 133.066 209.562 133.066 207.594Z" fill="#2A211E"/>
<path opacity="0.77" d="M132.25 207.546C132.25 205.65 121.977 204.114 109.304 204.114C96.6311 204.114 86.4062 205.65 86.4062 207.546C86.4062 209.442 96.6791 210.978 109.352 210.978C122.025 210.978 132.25 209.442 132.25 207.546Z" fill="#29201D"/>
<path opacity="0.77" d="M131.458 207.498C131.458 205.65 121.401 204.162 109.016 204.162C96.6314 204.162 86.5986 205.65 86.5986 207.498C86.5986 209.346 96.6314 210.81 109.016 210.81C121.401 210.81 131.458 209.322 131.458 207.498Z" fill="#281E1C"/>
<path opacity="0.78" d="M130.641 207.449C130.641 205.673 120.849 204.233 108.728 204.233C96.6067 204.233 86.8379 205.673 86.8379 207.449C86.8379 209.225 96.6547 210.665 108.728 210.665C120.801 210.665 130.641 209.225 130.641 207.449Z" fill="#271D1A"/>
<path opacity="0.78" d="M129.85 207.402C129.85 205.674 120.249 204.282 108.464 204.282C96.6789 204.282 87.0781 205.674 87.0781 207.402C87.0781 209.13 96.6789 210.498 108.464 210.498C120.249 210.498 129.85 209.106 129.85 207.402Z" fill="#261C19"/>
<path opacity="0.78" d="M129.034 207.353C129.034 205.697 119.697 204.354 108.176 204.354C96.6551 204.354 87.3184 205.697 87.3184 207.353C87.3184 209.009 96.6551 210.329 108.176 210.329C119.697 210.329 129.034 209.009 129.034 207.353Z" fill="#251B18"/>
<path opacity="0.79" d="M128.241 207.305C128.241 205.697 119.121 204.401 107.888 204.401C96.6549 204.401 87.5342 205.697 87.5342 207.305C87.5342 208.913 96.6549 210.185 107.888 210.185C119.121 210.185 128.241 208.793 128.241 207.305Z" fill="#241A17"/>
<path opacity="0.79" d="M127.426 207.234C127.426 205.722 118.545 204.474 107.6 204.474C96.6551 204.474 87.7744 205.722 87.7744 207.234C87.7744 208.745 96.6551 210.017 107.6 210.017C118.545 210.017 127.426 208.793 127.426 207.234Z" fill="#241916"/>
<path opacity="0.8" d="M126.634 207.186C126.634 205.722 117.993 204.546 107.432 204.546C96.8712 204.546 88.2305 205.722 88.2305 207.186C88.2305 208.65 96.8712 209.85 107.432 209.85C117.993 209.85 126.634 208.794 126.634 207.186Z" fill="#231916"/>
<path opacity="0.8" d="M88.2549 207.138C88.2549 208.554 96.6556 209.706 107.024 209.706C117.393 209.706 125.818 208.554 125.818 207.138C125.818 205.722 117.417 204.594 107.024 204.594C96.6315 204.594 88.2549 205.746 88.2549 207.138Z" fill="#231815"/>
</g>
<path d="M189.735 78.5977C189.735 78.5977 198.328 100.005 185.175 103.029C174.374 105.429 157.068 97.5811 147.924 84.4055C140.603 73.8458 137.915 55.7744 151.836 55.6064C154.583 55.521 157.324 55.8941 159.949 56.7104C166.699 59.015 173.097 62.2457 178.958 66.3101C171.083 54.7175 160.045 45.6296 147.156 40.1269C144.203 36.239 135.947 26.8553 125.41 27.0953C124.478 28.6262 123.676 30.2317 123.01 31.8952C120.966 31.7723 118.917 31.9748 116.937 32.4952C114.475 33.172 112.238 34.491 110.454 36.317C108.67 38.143 107.404 40.4103 106.784 42.8868C105.2 48.1907 106.136 58.4863 108.128 64.0062C108.128 64.0062 110.913 54.7904 118.545 52.5585C117.945 67.294 121.473 87.1174 135.347 102.093C157.164 125.444 189.639 124.988 195.951 109.725C201.4 96.6451 189.735 78.5977 189.735 78.5977Z" fill="#E85298"/>
<path d="M200.56 118.364C189.615 149.059 138.347 131.012 120.009 113.78C104.48 99.0929 94.3992 87.3573 91.207 62.3981C87.9667 37.7989 100.808 30.7671 100.928 30.6471C101.048 30.5271 79.9741 37.0789 77.9099 63.1901C76.3018 83.4214 83.5503 108.333 104.864 129.188C119.935 143.588 139.342 152.607 160.068 154.843C138.683 158.683 109.52 152.443 92.6471 139.82C74.9817 126.668 63.3647 111.549 58.6604 85.1014C52.8039 52.7984 66.605 40.2708 66.629 40.1508C66.653 40.0308 44.5712 53.9024 43.6112 85.9173C42.9391 107.517 48.8436 133.508 74.1656 156.307C89.9442 169.99 109.387 178.751 130.09 181.506C121.341 182.85 112.437 182.85 103.688 181.506C89.6639 179.422 76.282 174.234 64.5183 166.32C52.7547 158.407 42.9059 147.967 35.6905 135.764C24.2656 115.748 23.5456 102.429 23.4976 102.765C19.6209 126.112 25.1784 150.042 38.9477 169.292C52.717 188.541 73.57 201.533 96.9194 205.409C120.269 209.286 144.202 203.729 163.454 189.961C182.705 176.193 195.699 155.343 199.576 131.996C200.629 127.534 200.961 122.932 200.56 118.364V118.364Z" fill="#6B1685"/>
<path d="M323.69 89.1089H294.887V81.9092H286.727V89.1089H253.916V97.2687H327.626L323.69 89.1089ZM315.433 109.292V97.5807L288.023 120.116L264.381 97.5807V109.22L281.494 125.468L258.788 143.995V155.563L300.432 121.508V133.076L324.026 155.587V143.995L300.408 121.484L315.433 109.292Z" fill="#231815"/>
<path d="M471.637 118.221L452.268 104.661V113.877L471.637 127.365V118.221ZM415.593 149.42L428.05 131.804V119.805L415.593 137.468V149.42ZM483.83 134.828V81.79H475.718V97.7255L458.004 85.3179V94.5336L475.718 106.893V134.78H448.067V141.98H475.718V155.42H483.83V141.98H487.767L483.83 134.828ZM438.803 111.861H447.995V104.661H438.803V92.4937H447.995L444.059 85.2939H416.289V92.4937H430.69V104.661H416.289V111.861H430.69V155.396H438.779V125.877L448.043 132.332V123.165L438.779 116.685L438.803 111.861Z" fill="#231815"/>
<path d="M523.241 105.884L519.305 98.6846H514.168V81.7891H506.056V98.7086H494.679V105.908H505.984V129.596L494.679 134.875V143.539L505.984 138.163V155.395H514.096V134.395L522.905 130.196V121.556L514.096 125.732V105.884H523.241ZM565.7 120.116V110.396H551.083V100.437H567.668L563.732 93.2367H551.083V81.4531H542.971V93.2608H526.409V100.461H542.971V110.396H526.409V126.236L537.402 135.331L525.161 146.107V155.707L551.299 132.787V143.107L566.444 155.611V145.291L551.275 132.667L565.7 120.116ZM543.571 129.98L528.665 117.596H557.468L543.571 129.98Z" fill="#231815"/>
<path d="M380.742 89.1817H372.677L370.613 81.8379H363.004L365.069 89.1817H357.628V95.4695H380.79L380.742 89.1817ZM348.027 114.837H341.883V92.3256H348.027L344.091 86.0378H334.994V148.436H348.027L344.091 142.124H341.931V121.125H348.027V148.46H354.964V86.0618H348.027V114.837ZM399.391 89.1817L401.455 81.8379H393.823L391.783 89.1817H383.718V95.4695H406.88V89.1817H399.391ZM406.88 106.269L402.92 99.9813H357.628V106.269H378.462V114.813H371.741L373.229 109.533H365.621L364.132 114.813H357.628V121.101H362.428L360.028 129.596H357.628V135.884H378.462V142.076H357.628V148.388H378.462V155.324H386.094V148.46H406.928L402.968 142.148H386.166V135.956H407V129.596H404.6L402.199 121.029H407V114.813H400.495L399.007 109.533H391.231L392.719 114.813H385.998V106.269H406.88ZM378.414 129.596H367.565L369.965 121.029H378.438L378.414 129.596ZM394.519 121.029L396.919 129.596H386.07V121.101L394.519 121.029Z" fill="#231815"/>
</svg>
