<svg width="506" height="187" viewBox="0 0 506 187" fill="none" xmlns="http://www.w3.org/2000/svg">
<g filter="url(#filter0_dd_226_1068)">
<path d="M498.39 5H36L5 35.5V179.2H466.5L498.39 148.5V5Z" stroke="#8DD9EC" stroke-opacity="0.9" stroke-width="2" stroke-miterlimit="10" shape-rendering="crispEdges"/>
</g>
<path d="M16 40.0949L15.6476 39.7402L15.2906 40.0949L15.6476 40.4496L16 40.0949ZM16.0001 40.0948L16.3525 40.4496L16.5001 40.3029V40.0948H16.0001ZM16.0001 40.095H16.5001V39.887L16.3525 39.7403L16.0001 40.095ZM16.0001 147H15.5001V147.5H16.0001V147ZM17.0001 147V147.5H17.5001V147H17.0001ZM17.0001 40.2853L16.6465 39.9317L16.5001 40.0782V40.2853H17.0001ZM42.6902 14.5952L43.0437 14.9488L43.3973 14.5952L43.0437 14.2417L42.6902 14.5952ZM42.0949 14L42.4485 13.6464L42.0949 13.2929L41.7414 13.6464L42.0949 14ZM16.0949 40V40.5H16.302L16.4485 40.3536L16.0949 40ZM16.0001 40V39.5H15.5001V40H16.0001ZM16.3524 40.4496L16.3525 40.4496L15.6477 39.7401L15.6476 39.7402L16.3524 40.4496ZM16.3525 39.7403L16.3524 39.7402L15.6476 40.4496L15.6477 40.4497L16.3525 39.7403ZM16.5001 147V40.095H15.5001V147H16.5001ZM17.0001 146.5H16.0001V147.5H17.0001V146.5ZM16.5001 40.2853V147H17.5001V40.2853H16.5001ZM42.3366 14.2417L16.6465 39.9317L17.3537 40.6388L43.0437 14.9488L42.3366 14.2417ZM41.7414 14.3536L42.3366 14.9488L43.0437 14.2417L42.4485 13.6464L41.7414 14.3536ZM16.4485 40.3536L42.4485 14.3536L41.7414 13.6464L15.7414 39.6465L16.4485 40.3536ZM16.0001 40.5H16.0949V39.5H16.0001V40.5ZM16.5001 40.0948V40H15.5001V40.0948H16.5001Z" fill="url(#paint0_linear_226_1068)"/>
<path d="M487.69 140.905L488.043 141.26L488.4 140.905L488.043 140.55L487.69 140.905ZM487.69 140.905L487.338 140.55L487.19 140.697V140.905H487.69ZM487.69 140.905H487.19V141.113L487.338 141.26L487.69 140.905ZM487.69 34H488.19V33.5H487.69V34ZM486.69 34V33.5H486.19V34H486.69ZM486.69 140.715L487.044 141.068L487.19 140.922V140.715H486.69ZM461 166.405L460.647 166.051L460.293 166.405L460.647 166.758L461 166.405ZM461.595 167L461.242 167.354L461.595 167.707L461.949 167.354L461.595 167ZM487.595 141V140.5H487.388L487.242 140.646L487.595 141ZM487.69 141V141.5H488.19V141H487.69ZM487.338 140.55L487.338 140.55L488.043 141.26L488.043 141.26L487.338 140.55ZM487.338 141.26L487.338 141.26L488.043 140.55L488.043 140.55L487.338 141.26ZM487.19 34V140.905H488.19V34H487.19ZM486.69 34.5H487.69V33.5H486.69V34.5ZM487.19 140.715V34H486.19V140.715H487.19ZM461.354 166.758L487.044 141.068L486.337 140.361L460.647 166.051L461.354 166.758ZM461.949 166.646L461.354 166.051L460.647 166.758L461.242 167.354L461.949 166.646ZM487.242 140.646L461.242 166.646L461.949 167.354L487.949 141.354L487.242 140.646ZM487.69 140.5H487.595V141.5H487.69V140.5ZM487.19 140.905V141H488.19V140.905H487.19Z" fill="url(#paint1_linear_226_1068)"/>
<defs>
<filter id="filter0_dd_226_1068" x="0" y="0" width="505.39" height="186.2" filterUnits="userSpaceOnUse" color-interpolation-filters="sRGB">
<feFlood flood-opacity="0" result="BackgroundImageFix"/>
<feColorMatrix in="SourceAlpha" type="matrix" values="0 0 0 0 0 0 0 0 0 0 0 0 0 0 0 0 0 0 127 0" result="hardAlpha"/>
<feOffset dy="2"/>
<feGaussianBlur stdDeviation="2"/>
<feComposite in2="hardAlpha" operator="out"/>
<feColorMatrix type="matrix" values="0 0 0 0 0 0 0 0 0 0 0 0 0 0 0 0 0 0 0.5 0"/>
<feBlend mode="normal" in2="BackgroundImageFix" result="effect1_dropShadow_226_1068"/>
<feColorMatrix in="SourceAlpha" type="matrix" values="0 0 0 0 0 0 0 0 0 0 0 0 0 0 0 0 0 0 127 0" result="hardAlpha"/>
<feOffset dx="2"/>
<feGaussianBlur stdDeviation="2"/>
<feComposite in2="hardAlpha" operator="out"/>
<feColorMatrix type="matrix" values="0 0 0 0 1 0 0 0 0 1 0 0 0 0 1 0 0 0 0.5 0"/>
<feBlend mode="normal" in2="effect1_dropShadow_226_1068" result="effect2_dropShadow_226_1068"/>
<feBlend mode="normal" in="SourceGraphic" in2="effect2_dropShadow_226_1068" result="shape"/>
</filter>
<linearGradient id="paint0_linear_226_1068" x1="29" y1="171.5" x2="-21.9609" y2="141.813" gradientUnits="userSpaceOnUse">
<stop stop-color="#ABF0EA"/>
<stop offset="1" stop-color="#4F9ACD"/>
</linearGradient>
<linearGradient id="paint1_linear_226_1068" x1="487.69" y1="167" x2="430.219" y2="155.777" gradientUnits="userSpaceOnUse">
<stop stop-color="#ABF0EA"/>
<stop offset="0.228609" stop-color="#4F9ACD"/>
</linearGradient>
</defs>
</svg>
