<svg width="378" height="310" viewBox="0 0 378 310" fill="none" xmlns="http://www.w3.org/2000/svg">
<path d="M64.6171 96.0203L39.2851 102.328C38.1668 102.671 36.9559 102.59 35.8968 102.102C34.8377 101.613 34.0091 100.753 33.578 99.6948L31.6757 93.6706C31.5498 93.1449 31.5347 92.6 31.6314 92.0685C31.728 91.537 31.9344 91.03 32.2381 90.5778C32.5418 90.1257 32.9366 89.7377 33.3988 89.4372C33.8609 89.1367 34.3809 88.9298 34.9276 88.8291L60.0157 82.521C61.131 82.1785 62.3376 82.2503 63.4013 82.7224C64.465 83.1945 65.3098 84.0333 65.7716 85.0758L67.8365 91.1631C67.97 91.6878 67.9917 92.2335 67.9003 92.7667C67.8089 93.2998 67.6064 93.8093 67.305 94.264C67.0037 94.7186 66.6099 95.1089 66.1477 95.4109C65.6856 95.7128 65.1648 95.9202 64.6171 96.0203V96.0203Z" fill="url(#paint0_linear_1339_927)" stroke="url(#paint1_linear_1339_927)" stroke-width="2.5" stroke-miterlimit="10"/>
<path d="M64.6173 96.0204L64.3925 94.7908L64.3536 94.7979L64.3152 94.8074L64.6173 96.0204ZM39.2852 102.328L38.9831 101.116L38.9506 101.124L38.9186 101.133L39.2852 102.328ZM33.5781 99.6949L32.3862 100.071L32.4014 100.12L32.4205 100.166L33.5781 99.6949ZM31.6758 93.6706L30.4602 93.9617L30.4705 94.0048L30.4838 94.047L31.6758 93.6706ZM34.9277 88.8292L35.1542 90.0585L35.1936 90.0512L35.2325 90.0415L34.9277 88.8292ZM60.0159 82.5211L60.3207 83.7334L60.352 83.7255L60.3829 83.716L60.0159 82.5211ZM65.7717 85.0759L66.9554 84.6743L66.9374 84.6211L66.9146 84.5696L65.7717 85.0759ZM67.8366 91.1632L69.048 90.855L69.036 90.8078L69.0204 90.7616L67.8366 91.1632ZM70.8608 103.038L72.1054 103.155L72.1055 103.154L70.8608 103.038ZM12.3109 100.089L13.5507 100.248L13.5509 100.247L12.3109 100.089ZM144.191 201.917L143.98 200.685L143.969 200.687L144.191 201.917ZM142.061 202.107L142.056 203.357L142.06 203.357L142.061 202.107ZM93.8516 201.917L93.8565 200.667L91.8641 200.66L92.724 202.457L93.8516 201.917ZM122.712 262.239L123.846 261.713L123.843 261.706L123.84 261.699L122.712 262.239ZM123.785 264.92L124.981 264.556L124.975 264.537L124.969 264.517L123.785 264.92ZM111.786 296.539L112.438 297.605L112.447 297.6L112.455 297.595L111.786 296.539ZM82.1448 290.231L83.2132 289.582L83.2069 289.572L82.1448 290.231ZM80.8116 287.692L81.9573 287.192L81.954 287.184L80.8116 287.692ZM35.3829 185.406L34.2405 185.913L34.2405 185.913L35.3829 185.406ZM46.6344 155.238L47.27 156.314L47.2757 156.311L46.6344 155.238ZM54.0162 152.352L54.274 153.575L54.3568 153.557L54.4365 153.529L54.0162 152.352ZM57.7395 151.705L57.7415 152.955L57.7456 152.955L57.7395 151.705ZM141.687 151.295L141.693 152.545L141.701 152.545L141.687 151.295ZM143.703 151.453L143.916 150.221L143.912 150.22L143.703 151.453ZM194.53 145.98L194.754 147.21L194.757 147.21L194.53 145.98ZM196.627 145.791L196.624 147.041L196.635 147.041L196.627 145.791ZM245.405 145.492L245.413 146.742L247.606 146.728L246.477 144.848L245.405 145.492ZM213.081 91.6836L214.153 91.0399L214.147 91.0303L213.081 91.6836ZM211.943 89.4758L213.094 88.987L213.09 88.9785L211.943 89.4758ZM249.632 67.0978L248.676 67.9023L248.684 67.912L249.632 67.0978ZM251.112 69.1006L250.055 69.7677L250.059 69.7739L251.112 69.1006ZM310.134 161.42L311.194 160.758L311.187 160.746L310.134 161.42ZM302.394 193.607L301.736 192.544L301.736 192.544L302.394 193.607ZM294.427 196.761L294.178 195.536L294.098 195.552L294.021 195.578L294.427 196.761ZM290.281 197.439L290.288 196.189L290.287 196.189L290.281 197.439ZM198.611 196.981L198.617 195.731L198.615 195.731L198.611 196.981ZM196.448 196.761L196.697 195.536L196.683 195.533L196.668 195.53L196.448 196.761ZM64.3152 94.8074L38.9831 101.116L39.5872 103.541L64.9193 97.2334L64.3152 94.8074ZM38.9186 101.133C38.0935 101.387 37.1997 101.326 36.4207 100.967L35.3732 103.237C36.7125 103.855 38.2403 103.957 39.6518 103.524L38.9186 101.133ZM36.4207 100.967C35.6426 100.608 35.0445 99.981 34.7358 99.2233L32.4205 100.166C32.9739 101.525 34.033 102.618 35.3732 103.237L36.4207 100.967ZM34.7701 99.3185L32.8678 93.2942L30.4838 94.047L32.3862 100.071L34.7701 99.3185ZM32.8914 93.3795C32.8059 93.0225 32.7958 92.6529 32.8613 92.2923L30.4017 91.8449C30.274 92.5472 30.2939 93.2674 30.4602 93.9617L32.8914 93.3795ZM32.8613 92.2923C32.9269 91.9316 33.0673 91.5854 33.2759 91.2749L31.2006 89.881C30.8018 90.4748 30.5294 91.1427 30.4017 91.8449L32.8613 92.2923ZM33.2759 91.2749C33.4846 90.9642 33.7576 90.6951 34.0803 90.4852L32.7175 88.3893C32.1159 88.7805 31.5994 89.2873 31.2006 89.881L33.2759 91.2749ZM34.0803 90.4852C34.4031 90.2753 34.7683 90.1296 35.1542 90.0585L34.7011 87.5999C33.9938 87.7302 33.319 87.9982 32.7175 88.3893L34.0803 90.4852ZM35.2325 90.0415L60.3207 83.7334L59.7111 81.3088L34.6229 87.6169L35.2325 90.0415ZM60.3829 83.716C61.2107 83.4617 62.1069 83.5155 62.8943 83.865L63.9086 81.58C62.5686 80.9852 61.0515 80.8954 59.6489 81.3262L60.3829 83.716ZM62.8943 83.865C63.681 84.2142 64.2955 84.8297 64.6288 85.5821L66.9146 84.5696C66.3244 83.2371 65.2493 82.1751 63.9086 81.58L62.8943 83.865ZM64.5879 85.4774L66.6529 91.5647L69.0204 90.7616L66.9554 84.6743L64.5879 85.4774ZM66.6252 91.4713C66.7155 91.8265 66.7301 92.1952 66.6684 92.5556L69.1324 92.9779C69.2534 92.272 69.2246 91.5494 69.048 90.855L66.6252 91.4713ZM66.6684 92.5556C66.6066 92.916 66.4694 93.2624 66.2632 93.5735L68.3471 94.9546C68.7436 94.3564 69.0115 93.6838 69.1324 92.9779L66.6684 92.5556ZM66.2632 93.5735C66.057 93.8846 65.7857 94.1544 65.4641 94.3645L66.8316 96.4574C67.4343 96.0635 67.9506 95.5528 68.3471 94.9546L66.2632 93.5735ZM65.4641 94.3645C65.1424 94.5747 64.7779 94.7203 64.3925 94.7908L64.842 97.25C65.5519 97.1203 66.229 96.8511 66.8316 96.4574L65.4641 94.3645ZM69.6163 102.922C67.926 120.986 53.4291 134.862 37.6981 133.961L37.5553 136.457C54.8959 137.45 70.3162 122.276 72.1054 103.155L69.6163 102.922ZM37.6981 133.961C22.0584 133.067 11.2782 117.958 13.5507 100.248L11.0711 99.93C8.66094 118.712 20.1236 135.46 37.5553 136.457L37.6981 133.961ZM13.5509 100.247C15.7613 82.8657 29.8569 69.8268 44.8961 70.397L44.9908 67.8988C28.4217 67.2706 13.4131 81.5141 11.0709 99.9314L13.5509 100.247ZM44.8961 70.397C59.8335 70.9634 71.2556 85.2791 69.6162 102.922L72.1055 103.154C73.8481 84.3995 61.6616 68.531 44.9908 67.8988L44.8961 70.397ZM143.969 200.687C143.34 200.8 142.701 200.857 142.061 200.857L142.06 203.357C142.849 203.357 143.636 203.287 144.412 203.148L143.969 200.687ZM142.065 200.857L93.8565 200.667L93.8467 203.167L142.056 203.357L142.065 200.857ZM92.724 202.457L121.584 262.778L123.84 261.699L94.9792 201.378L92.724 202.457ZM121.578 262.764C121.964 263.599 122.306 264.453 122.602 265.322L124.969 264.517C124.645 263.564 124.27 262.628 123.846 261.713L121.578 262.764ZM122.589 265.283C124.279 270.839 124.077 276.775 122.014 282.212L124.351 283.099C126.611 277.146 126.832 270.642 124.981 264.556L122.589 265.283ZM122.014 282.212C119.95 287.65 116.132 292.306 111.117 295.483L112.455 297.595C117.917 294.134 122.092 289.053 124.351 283.099L122.014 282.212ZM111.133 295.473C100.833 301.779 88.8915 298.928 83.2131 289.582L81.0765 290.88C87.5276 301.498 101.049 304.578 112.438 297.605L111.133 295.473ZM83.2069 289.572C82.7329 288.808 82.3153 288.012 81.9573 287.192L79.6659 288.192C80.0721 289.123 80.5456 290.024 81.0827 290.89L83.2069 289.572ZM81.954 287.184L36.5253 184.899L34.2405 185.913L79.6692 288.199L81.954 287.184ZM36.5253 184.899C32.2244 175.214 36.9567 162.403 47.27 156.314L45.9989 154.161C34.7848 160.783 29.3386 174.876 34.2405 185.913L36.5253 184.899ZM47.2757 156.311C49.431 155.022 51.7973 154.097 54.274 153.575L53.7583 151.129C51.013 151.707 48.3873 152.734 45.9931 154.165L47.2757 156.311ZM54.4365 153.529C55.4941 153.151 56.6129 152.957 57.7415 152.955L57.7376 150.455C56.3249 150.457 54.923 150.701 53.5958 151.174L54.4365 153.529ZM57.7456 152.955L141.693 152.545L141.68 150.045L57.7334 150.455L57.7456 152.955ZM141.701 152.545C142.302 152.538 142.902 152.585 143.494 152.685L143.912 150.22C143.172 150.095 142.422 150.036 141.672 150.045L141.701 152.545ZM143.49 152.684C147.229 153.331 150.728 156.026 153.352 160.252C155.968 164.465 157.643 170.102 157.753 176.376L160.253 176.332C160.135 169.658 158.355 163.57 155.476 158.933C152.603 154.307 148.566 151.025 143.916 150.221L143.49 152.684ZM157.753 176.376C157.863 182.646 156.353 188.442 153.82 192.814C151.279 197.201 147.79 200.034 143.98 200.685L144.401 203.15C149.176 202.334 153.207 198.859 155.983 194.068C158.767 189.262 160.37 183.009 160.253 176.332L157.753 176.376ZM194.757 147.21C195.372 147.096 195.997 147.04 196.624 147.041L196.63 144.541C195.849 144.539 195.07 144.61 194.303 144.751L194.757 147.21ZM196.635 147.041L245.413 146.742L245.397 144.242L196.619 144.541L196.635 147.041ZM246.477 144.848L214.153 91.0399L212.01 92.3273L244.334 146.135L246.477 144.848ZM214.147 91.0303C213.745 90.3746 213.393 89.6917 213.094 88.987L210.793 89.9645C211.141 90.7833 211.549 91.5762 212.016 92.3369L214.147 91.0303ZM213.09 88.9785C209.371 80.3999 213.055 69.7715 222.201 64.4069L220.936 62.2505C210.832 68.1774 206.516 80.1005 210.796 89.973L213.09 88.9785ZM222.201 64.4069C231.367 59.0308 242.644 60.7289 248.676 67.9023L250.589 66.2933C243.679 58.0749 231.022 56.3351 220.936 62.2505L222.201 64.4069ZM248.684 67.912C249.187 68.4979 249.645 69.1181 250.055 69.7677L252.169 68.4336C251.694 67.6803 251.163 66.9618 250.581 66.2836L248.684 67.912ZM250.059 69.7739L309.08 162.093L311.187 160.746L252.165 68.4273L250.059 69.7739ZM309.073 162.081C312.194 167.082 313.172 173.063 311.805 178.749L314.236 179.334C315.761 172.991 314.667 166.323 311.194 160.758L309.073 162.081ZM311.805 178.749C310.438 184.436 306.829 189.39 301.736 192.544L303.052 194.669C308.692 191.176 312.711 185.675 314.236 179.334L311.805 178.749ZM301.736 192.544C299.425 193.976 296.865 194.99 294.178 195.536L294.676 197.986C297.65 197.381 300.489 196.258 303.053 194.669L301.736 192.544ZM294.021 195.578C292.823 195.99 291.56 196.196 290.288 196.189L290.273 198.689C291.826 198.698 293.368 198.446 294.833 197.943L294.021 195.578ZM290.287 196.189L198.617 195.731L198.604 198.231L290.275 198.689L290.287 196.189ZM198.615 195.731C197.97 195.729 197.328 195.664 196.697 195.536L196.199 197.986C196.991 198.146 197.798 198.229 198.607 198.231L198.615 195.731ZM196.668 195.53C192.711 194.822 189.008 191.956 186.216 187.553C183.432 183.164 181.627 177.35 181.438 171.002L178.939 171.077C179.141 177.834 181.06 184.092 184.104 188.893C187.141 193.68 191.373 197.122 196.228 197.991L196.668 195.53ZM181.438 171.002C181.249 164.65 182.679 159.008 185.123 154.803C187.571 150.592 190.981 147.9 194.754 147.21L194.305 144.751C189.624 145.607 185.668 148.891 182.962 153.547C180.252 158.209 178.738 164.324 178.939 171.077L181.438 171.002Z" fill="url(#paint2_linear_1339_927)"/>
<g opacity="0.25">
<path d="M59.4033 110.944C57.8912 129.616 42.9814 144.251 26.2667 143.257C9.55212 142.263 -1.86195 126.336 0.251771 107.979C2.33297 90.064 16.8363 76.2335 32.8193 76.8959C48.8022 77.5582 60.8992 92.6503 59.4033 110.944Z" fill="#6FBFD3"/>
<path d="M134.749 210.375C134.041 210.502 133.323 210.565 132.603 210.564L83.9061 210.265L113.823 270.917C114.258 271.791 114.633 272.692 114.945 273.614C116.833 279.433 116.712 285.692 114.599 291.439C112.486 297.185 108.497 302.106 103.238 305.454C92.3609 312.14 79.4673 309.16 73.2074 299.146C72.6889 298.325 72.2272 297.471 71.8254 296.591L24.6732 193.753C19.9255 183.298 24.8033 169.782 35.6158 163.396C37.9022 162.021 40.4159 161.04 43.0463 160.494C44.2452 160.069 45.5097 159.845 46.786 159.831L131.562 159.453C132.292 159.429 133.023 159.482 133.741 159.611C142.228 161.062 149.106 171.628 149.513 184.638C149.919 197.648 143.497 208.845 134.749 210.375Z" fill="#6FBFD3"/>
<path d="M184.86 154.091C185.557 153.964 186.265 153.901 186.974 153.902L236.305 153.602L202.892 99.5262C202.444 98.8149 202.053 98.0716 201.721 97.3026C197.559 88.0455 201.445 76.8013 211.103 71.0294C220.761 65.2575 232.923 67.0869 239.427 74.8143C240.014 75.4518 240.557 76.1261 241.053 76.8329L301.928 169.625C305.37 174.88 306.519 181.247 305.123 187.324C303.726 193.402 299.898 198.692 294.481 202.033C292.032 203.555 289.315 204.624 286.465 205.187C285.129 205.646 283.72 205.876 282.303 205.865L189.624 205.392C188.888 205.388 188.153 205.319 187.429 205.187C178.503 203.61 171.17 192.571 170.666 179.308C170.162 166.045 176.34 155.637 184.86 154.091Z" fill="#6FBFD3"/>
</g>
<defs>
<linearGradient id="paint0_linear_1339_927" x1="31.5532" y1="91.7553" x2="68.0409" y2="93.2136" gradientUnits="userSpaceOnUse">
<stop offset="0.12" stop-color="#F5C827"/>
<stop offset="1" stop-color="#FF9F4B"/>
</linearGradient>
<linearGradient id="paint1_linear_1339_927" x1="31.5686" y1="82.3076" x2="69.1781" y2="135.068" gradientUnits="userSpaceOnUse">
<stop stop-color="#FF62A5"/>
<stop offset="1" stop-color="#0029FF"/>
</linearGradient>
<linearGradient id="paint2_linear_1339_927" x1="218.398" y1="-1.91158" x2="59.6716" y2="360.098" gradientUnits="userSpaceOnUse">
<stop offset="0.270833" stop-color="#FF62A5"/>
<stop offset="0.854167" stop-color="#623FDC"/>
<stop offset="1" stop-color="#0029FF"/>
</linearGradient>
</defs>
</svg>
