<svg width="282" height="119" viewBox="0 0 282 119" fill="none" xmlns="http://www.w3.org/2000/svg">
<path d="M62.5483 15.9847H35.3656L30.32 11.0101L35.3656 6H62.5483L67.5584 11.0101L62.5483 15.9847Z" stroke="url(#paint0_linear_1339_935)" stroke-width="2.5" stroke-linecap="round"/>
<path d="M62.5483 59.1927H35.3656L30.32 54.1825L35.3656 49.1724H62.5483L67.5584 54.1825L62.5483 59.1927Z" stroke="url(#paint1_linear_1339_935)" stroke-width="2.5" stroke-linecap="round"/>
<path d="M62.5483 59.1927H35.3656L30.32 54.1825L35.3656 49.1724H62.5483L67.5584 54.1825L62.5483 59.1927Z" stroke="url(#paint2_linear_1339_935)" stroke-width="2.5" stroke-linecap="round"/>
<path d="M32.9847 61.6444V90.0707L28.0101 95.3651L23 90.0707V61.6444L28.0101 56.3856L32.9847 61.6444Z" stroke="url(#paint3_linear_1339_935)" stroke-width="2.5" stroke-linecap="round"/>
<path d="M74.3806 18.5786V47.0049L69.3705 52.2993L64.3603 47.0049V18.5786L69.3705 13.3198L74.3806 18.5786Z" stroke="url(#paint4_linear_1339_935)" stroke-width="2.5" stroke-linecap="round"/>
<path d="M62.5483 102.365H35.3656L30.32 97.355L35.3656 92.3449H62.5483L67.5584 97.355L62.5483 102.365Z" stroke="url(#paint5_linear_1339_935)" stroke-width="2.5" stroke-linecap="round"/>
<path d="M198.177 15.9847H171.03L165.984 11.0101L171.03 6H198.177L203.223 11.0101L198.177 15.9847Z" stroke="url(#paint6_linear_1339_935)" stroke-width="2.5" stroke-linecap="round"/>
<path d="M198.177 59.1927H171.03L165.984 54.1825L171.03 49.1724H198.177L203.223 54.1825L198.177 59.1927Z" stroke="url(#paint7_linear_1339_935)" stroke-width="2.5" stroke-linecap="round"/>
<path d="M168.649 61.6444V90.0707L163.675 95.3651L158.665 90.0707V61.6444L163.675 56.3856L168.649 61.6444Z" stroke="url(#paint8_linear_1339_935)" stroke-width="2.5" stroke-linecap="round"/>
<path d="M210.01 18.5786V47.0049L205.035 52.2993L200.025 47.0049V18.5786L205.035 13.3198L210.01 18.5786Z" stroke="url(#paint9_linear_1339_935)" stroke-width="2.5" stroke-linecap="round"/>
<path d="M198.177 102.365H171.03L165.984 97.355L171.03 92.3449H198.177L203.223 97.355L198.177 102.365Z" stroke="url(#paint10_linear_1339_935)" stroke-width="2.5" stroke-linecap="round"/>
<path d="M266.329 15.9847H239.146L234.101 11.0101L239.146 6H266.329L271.339 11.0101L266.329 15.9847Z" stroke="url(#paint11_linear_1339_935)" stroke-width="2.5" stroke-linecap="round"/>
<path d="M266.329 59.1927H239.146L234.101 54.1825L239.146 49.1724H266.329L271.339 54.1825L266.329 59.1927Z" stroke="url(#paint12_linear_1339_935)" stroke-width="2.5" stroke-linecap="round"/>
<path d="M236.801 61.6444V90.0707L231.791 95.3651L226.781 90.0707V61.6444L231.791 56.3856L236.801 61.6444Z" stroke="url(#paint13_linear_1339_935)" stroke-width="2.5" stroke-linecap="round"/>
<path d="M278.161 18.5786V47.0049L273.151 52.2993L268.177 47.0049V18.5786L273.151 13.3198L278.161 18.5786Z" stroke="url(#paint14_linear_1339_935)" stroke-width="2.5" stroke-linecap="round"/>
<path d="M266.329 102.365H239.146L234.101 97.355L239.146 92.3449H266.329L271.339 97.355L266.329 102.365Z" stroke="url(#paint15_linear_1339_935)" stroke-width="2.5" stroke-linecap="round"/>
<path d="M129.67 15.9847H102.487L97.4768 11.0101L102.487 6H129.67L134.715 11.0101L129.67 15.9847Z" stroke="url(#paint16_linear_1339_935)" stroke-width="2.5" stroke-linecap="round"/>
<path d="M101.137 61.6444V90.0707L96.1266 95.3651L91.1164 90.0707V61.6444L96.1266 56.3856L101.137 61.6444Z" stroke="url(#paint17_linear_1339_935)" stroke-width="2.5" stroke-linecap="round"/>
<path d="M141.893 61.6444V90.0707L136.883 95.3651L131.908 90.0707V61.6444L136.883 56.3856L141.893 61.6444Z" stroke="url(#paint18_linear_1339_935)" stroke-width="2.5" stroke-linecap="round"/>
<path d="M101.137 18.5786V47.0049L96.1266 52.2993L91.1164 47.0049V18.5786L96.1266 13.3198L101.137 18.5786Z" stroke="url(#paint19_linear_1339_935)" stroke-width="2.5" stroke-linecap="round"/>
<path d="M141.893 18.5786V47.0049L136.883 52.2993L131.908 47.0049V18.5786L136.883 13.3198L141.893 18.5786Z" stroke="url(#paint20_linear_1339_935)" stroke-width="2.5" stroke-linecap="round"/>
<path d="M129.67 102.365H102.487L97.4768 97.355L102.487 92.3449H129.67L134.715 97.355L129.67 102.365Z" stroke="url(#paint21_linear_1339_935)" stroke-width="2.5" stroke-linecap="round"/>
<defs>
<linearGradient id="paint0_linear_1339_935" x1="132.162" y1="127.5" x2="255.771" y2="111.476" gradientUnits="userSpaceOnUse">
<stop offset="0.129026" stop-color="#ABF0EA"/>
</linearGradient>
<linearGradient id="paint1_linear_1339_935" x1="132.162" y1="127.5" x2="255.771" y2="111.476" gradientUnits="userSpaceOnUse">
<stop offset="0.129026" stop-color="#ABF0EA"/>
</linearGradient>
<linearGradient id="paint2_linear_1339_935" x1="132.162" y1="127.5" x2="255.771" y2="111.476" gradientUnits="userSpaceOnUse">
<stop offset="0.129026" stop-color="#ABF0EA"/>
</linearGradient>
<linearGradient id="paint3_linear_1339_935" x1="132.162" y1="127.5" x2="255.771" y2="111.476" gradientUnits="userSpaceOnUse">
<stop offset="0.129026" stop-color="#ABF0EA"/>
</linearGradient>
<linearGradient id="paint4_linear_1339_935" x1="132.162" y1="127.5" x2="255.771" y2="111.476" gradientUnits="userSpaceOnUse">
<stop offset="0.129026" stop-color="#ABF0EA"/>
</linearGradient>
<linearGradient id="paint5_linear_1339_935" x1="132.162" y1="127.5" x2="255.771" y2="111.476" gradientUnits="userSpaceOnUse">
<stop offset="0.129026" stop-color="#ABF0EA"/>
</linearGradient>
<linearGradient id="paint6_linear_1339_935" x1="132.162" y1="127.5" x2="255.771" y2="111.476" gradientUnits="userSpaceOnUse">
<stop offset="0.129026" stop-color="#ABF0EA"/>
</linearGradient>
<linearGradient id="paint7_linear_1339_935" x1="132.162" y1="127.5" x2="255.771" y2="111.476" gradientUnits="userSpaceOnUse">
<stop offset="0.129026" stop-color="#ABF0EA"/>
</linearGradient>
<linearGradient id="paint8_linear_1339_935" x1="132.162" y1="127.5" x2="255.771" y2="111.476" gradientUnits="userSpaceOnUse">
<stop offset="0.129026" stop-color="#ABF0EA"/>
</linearGradient>
<linearGradient id="paint9_linear_1339_935" x1="132.162" y1="127.5" x2="255.771" y2="111.476" gradientUnits="userSpaceOnUse">
<stop offset="0.129026" stop-color="#ABF0EA"/>
</linearGradient>
<linearGradient id="paint10_linear_1339_935" x1="132.162" y1="127.5" x2="255.771" y2="111.476" gradientUnits="userSpaceOnUse">
<stop offset="0.129026" stop-color="#ABF0EA"/>
</linearGradient>
<linearGradient id="paint11_linear_1339_935" x1="132.162" y1="127.5" x2="255.771" y2="111.476" gradientUnits="userSpaceOnUse">
<stop offset="0.129026" stop-color="#ABF0EA"/>
</linearGradient>
<linearGradient id="paint12_linear_1339_935" x1="132.162" y1="127.5" x2="255.771" y2="111.476" gradientUnits="userSpaceOnUse">
<stop offset="0.129026" stop-color="#ABF0EA"/>
</linearGradient>
<linearGradient id="paint13_linear_1339_935" x1="132.162" y1="127.5" x2="255.771" y2="111.476" gradientUnits="userSpaceOnUse">
<stop offset="0.129026" stop-color="#ABF0EA"/>
</linearGradient>
<linearGradient id="paint14_linear_1339_935" x1="132.162" y1="127.5" x2="255.771" y2="111.476" gradientUnits="userSpaceOnUse">
<stop offset="0.129026" stop-color="#ABF0EA"/>
</linearGradient>
<linearGradient id="paint15_linear_1339_935" x1="132.162" y1="127.5" x2="255.771" y2="111.476" gradientUnits="userSpaceOnUse">
<stop offset="0.129026" stop-color="#ABF0EA"/>
</linearGradient>
<linearGradient id="paint16_linear_1339_935" x1="132.162" y1="127.5" x2="255.771" y2="111.476" gradientUnits="userSpaceOnUse">
<stop offset="0.129026" stop-color="#ABF0EA"/>
</linearGradient>
<linearGradient id="paint17_linear_1339_935" x1="132.162" y1="127.5" x2="255.771" y2="111.476" gradientUnits="userSpaceOnUse">
<stop offset="0.129026" stop-color="#ABF0EA"/>
</linearGradient>
<linearGradient id="paint18_linear_1339_935" x1="132.162" y1="127.5" x2="255.771" y2="111.476" gradientUnits="userSpaceOnUse">
<stop offset="0.129026" stop-color="#ABF0EA"/>
</linearGradient>
<linearGradient id="paint19_linear_1339_935" x1="132.162" y1="127.5" x2="255.771" y2="111.476" gradientUnits="userSpaceOnUse">
<stop offset="0.129026" stop-color="#ABF0EA"/>
</linearGradient>
<linearGradient id="paint20_linear_1339_935" x1="132.162" y1="127.5" x2="255.771" y2="111.476" gradientUnits="userSpaceOnUse">
<stop offset="0.129026" stop-color="#ABF0EA"/>
</linearGradient>
<linearGradient id="paint21_linear_1339_935" x1="132.162" y1="127.5" x2="255.771" y2="111.476" gradientUnits="userSpaceOnUse">
<stop offset="0.129026" stop-color="#ABF0EA"/>
</linearGradient>
</defs>
</svg>
