<svg width="175" height="142" viewBox="0 0 175 142" fill="none" xmlns="http://www.w3.org/2000/svg">
<path d="M137.56 115.23H11V7H174.57V115.23H152.86" fill="#FFDC61" fill-opacity="0.05"/>
<path d="M154.39 115.23C154.39 117.55 154.55 120 154.78 122.57C155.11 126.26 155.29 128.15 156 130.21C158.5 137.48 164.28 140.21 163.64 141.21C163 142.21 155.03 140.21 149.27 134.48C146.9 132.11 145.27 129.48 142.85 125.61C140.903 122.399 139.141 119.08 137.57 115.67C137.2 114.83 137.87 116.01 137.57 115.22" fill="#FFDC61" fill-opacity="0.05"/>
<path d="M142.62 85.5596H136.7" stroke="#6CBDD1" stroke-width="2.5" stroke-miterlimit="10"/>
<path d="M152.57 85.5596H146.26" stroke="#6CBDD1" stroke-width="2.5" stroke-miterlimit="10"/>
<path d="M144.36 87.1504V94.5404" stroke="#6CBDD1" stroke-width="2.5" stroke-miterlimit="10"/>
<path d="M144.36 77.1904V83.9704" stroke="#6CBDD1" stroke-width="2.5" stroke-miterlimit="10"/>
<path d="M29.7699 52.4102H23.8599" stroke="#6CBDD1" stroke-width="2.5" stroke-miterlimit="10"/>
<path d="M39.7202 52.4102H33.4102" stroke="#6CBDD1" stroke-width="2.5" stroke-miterlimit="10"/>
<path d="M31.5098 53.9902V61.3902" stroke="#6CBDD1" stroke-width="2.5" stroke-miterlimit="10"/>
<path d="M31.5098 44.04V50.82" stroke="#6CBDD1" stroke-width="2.5" stroke-miterlimit="10"/>
<path d="M128.56 110.23H2V2H165.57V110.23H143.86" fill="#FFDC61" fill-opacity="0.05"/>
<path d="M145.39 110.23C145.39 112.55 145.55 115 145.78 117.57C146.11 121.26 146.29 123.15 147 125.21C149.5 132.48 155.28 135.21 154.64 136.21C154 137.21 146.03 135.21 140.27 129.48C137.9 127.11 136.27 124.48 133.85 120.61C131.904 117.399 130.141 114.08 128.57 110.67C128.2 109.83 128.87 111.01 128.57 110.22" fill="#FFDC61" fill-opacity="0.05"/>
<path d="M128.56 110.23H2V2H165.57V110.23H143.86M145.39 110.23C145.39 112.55 145.55 115 145.78 117.57C146.11 121.26 146.29 123.15 147 125.21C149.5 132.48 155.28 135.21 154.64 136.21C154 137.21 146.03 135.21 140.27 129.48C137.9 127.11 136.27 124.48 133.85 120.61C131.904 117.399 130.141 114.08 128.57 110.67C128.2 109.83 128.87 111.01 128.57 110.22" stroke="url(#paint0_linear_226_946)" stroke-width="2.5" stroke-miterlimit="10"/>
<path d="M81.27 96.5205C98.8161 96.5205 113.04 82.2966 113.04 64.7505C113.04 47.2044 98.8161 32.9805 81.27 32.9805C63.7239 32.9805 49.5 47.2044 49.5 64.7505C49.5 82.2966 63.7239 96.5205 81.27 96.5205Z" fill="#FFDC61" fill-opacity="0.05" stroke="#A1EBE4" stroke-width="2.5" stroke-miterlimit="10"/>
<path d="M68.0399 64.2895C67.4208 62.4146 67.5025 60.3788 68.2699 58.5595C68.6399 57.7095 69.6699 55.3695 71.9399 54.8895C74.7499 54.2995 76.9399 57.1195 77.2099 57.4095C78.1911 58.7318 78.6792 60.3554 78.5899 61.9995" fill="#FFDC61" fill-opacity="0.05"/>
<path d="M68.0399 64.2895C67.4208 62.4146 67.5025 60.3788 68.2699 58.5595C68.6399 57.7095 69.6699 55.3695 71.9399 54.8895C74.7499 54.2995 76.9399 57.1195 77.2099 57.4095C78.1911 58.7318 78.6792 60.3554 78.5899 61.9995" stroke="#A1EBE4" stroke-width="2.5" stroke-miterlimit="10"/>
<path d="M89.6799 60.9403C89.1026 58.8745 89.1795 56.6806 89.8999 54.6603C90.1899 54.0503 90.2599 51.6603 92.5699 51.2203C95.1199 50.7003 97.1999 52.8403 97.8499 53.5203C99.2004 54.9588 100.01 56.8214 100.14 58.7903" fill="#FFDC61" fill-opacity="0.05"/>
<path d="M89.6799 60.9403C89.1026 58.8745 89.1795 56.6806 89.8999 54.6603C90.1899 54.0503 90.2599 51.6603 92.5699 51.2203C95.1199 50.7003 97.1999 52.8403 97.8499 53.5203C99.2004 54.9588 100.01 56.8214 100.14 58.7903" stroke="#A1EBE4" stroke-width="2.5" stroke-miterlimit="10"/>
<path d="M90.0498 71.6303C117.35 69.4703 109.11 70.2603 123.8 68.7303C126.489 68.4798 129.16 68.0691 131.8 67.5003C132.689 67.1034 133.491 66.5352 134.16 65.8283C134.829 65.1214 135.352 64.2895 135.7 63.3803C136.11 62.4403 137.37 59.5703 135.93 56.7303C135.401 55.8014 134.683 54.9944 133.821 54.362C132.96 53.7296 131.974 53.2861 130.93 53.0603C129.93 52.7903 126.48 52.0603 123.82 54.2003C123.37 54.5703 121.15 56.3703 121.52 58.7903C121.675 59.4802 121.983 60.1266 122.421 60.682C122.859 61.2374 123.415 61.6879 124.05 62.0003C124.885 62.3781 125.797 62.5542 126.712 62.5142C127.628 62.4743 128.521 62.2194 129.32 61.7703" fill="#FFDC61" fill-opacity="0.05"/>
<path d="M90.0498 71.6303C117.35 69.4703 109.11 70.2603 123.8 68.7303C126.489 68.4798 129.16 68.0691 131.8 67.5003C132.689 67.1034 133.491 66.5352 134.16 65.8283C134.829 65.1214 135.352 64.2895 135.7 63.3803C136.11 62.4403 137.37 59.5703 135.93 56.7303C135.401 55.8014 134.683 54.9944 133.821 54.362C132.96 53.7296 131.974 53.2861 130.93 53.0603C129.93 52.7903 126.48 52.0603 123.82 54.2003C123.37 54.5703 121.15 56.3703 121.52 58.7903C121.675 59.4802 121.983 60.1266 122.421 60.682C122.859 61.2374 123.415 61.6879 124.05 62.0003C124.885 62.3781 125.797 62.5542 126.712 62.5142C127.628 62.4743 128.521 62.2194 129.32 61.7703" stroke="url(#paint1_linear_226_946)" stroke-width="2.5" stroke-miterlimit="10"/>
<path d="M50.3799 52.7097L46.4799 37.3797L41.6699 18.4297L54.5299 25.5497L69.4099 33.7997" fill="#FFDC61" fill-opacity="0.05"/>
<path d="M50.3799 52.7097L46.4799 37.3797L41.6699 18.4297L54.5299 25.5497L69.4099 33.7997" stroke="#FCD140" stroke-width="2.5" stroke-miterlimit="10"/>
<path d="M47.3999 35.5698L54.5299 25.5498L60.6099 28.9198L49.0699 47.5398" fill="#FFDC61" fill-opacity="0.05"/>
<path d="M47.3999 35.5698L54.5299 25.5498L60.6099 28.9198L49.0699 47.5398" stroke="#FCD140" stroke-width="2.5" stroke-miterlimit="10"/>
<path d="M32.27 10.1797L38.46 15.2197" stroke="url(#paint2_linear_226_946)" stroke-width="2.5" stroke-miterlimit="10"/>
<path d="M43.5 7.88965V13.3896" stroke="url(#paint3_linear_226_946)" stroke-width="2.5" stroke-miterlimit="10"/>
<path d="M29.9702 19.5801H37.3102" stroke="url(#paint4_linear_226_946)" stroke-width="2.5" stroke-miterlimit="10"/>
<path d="M121 25.5496C126.91 25.5496 131.7 18.0096 131.7 12.0996C131.7 18.0096 136.5 25.5496 142.41 25.5496C136.5 25.5496 131.7 33.0896 131.7 39.0096" fill="#FFDC61" fill-opacity="0.05"/>
<path d="M121 25.5496C126.91 25.5496 131.7 18.0096 131.7 12.0996C131.7 18.0096 136.5 25.5496 142.41 25.5496C136.5 25.5496 131.7 33.0896 131.7 39.0096" stroke="#A1EBE4" stroke-width="2.5" stroke-miterlimit="10"/>
<path d="M121 25.5C126.91 25.5 131.7 33.04 131.7 38.95L121 25.5Z" fill="#FFDC61" fill-opacity="0.05"/>
<path d="M121 25.5C126.91 25.5 131.7 33.04 131.7 38.95" stroke="#A1EBE4" stroke-width="2.5" stroke-miterlimit="10"/>
<path d="M14.0498 84.5603C19.9598 84.5603 24.7498 77.0204 24.7498 71.1104C24.7498 77.0204 29.5498 84.5603 35.4598 84.5603C29.5498 84.5603 24.7498 92.1003 24.7498 98.0203" fill="#FFDC61" fill-opacity="0.05"/>
<path d="M14.0498 84.5603C19.9598 84.5603 24.7498 77.0204 24.7498 71.1104C24.7498 77.0204 29.5498 84.5603 35.4598 84.5603C29.5498 84.5603 24.7498 92.1003 24.7498 98.0203" stroke="#A1EBE4" stroke-width="2.5" stroke-miterlimit="10"/>
<path d="M14.0498 84.5C19.9598 84.5 24.7498 92.04 24.7498 97.95L14.0498 84.5Z" fill="#FFDC61" fill-opacity="0.05"/>
<path d="M14.0498 84.5C19.9598 84.5 24.7498 92.04 24.7498 97.95" stroke="#A1EBE4" stroke-width="2.5" stroke-miterlimit="10"/>
<defs>
<linearGradient id="paint0_linear_226_946" x1="-8" y1="50" x2="211.935" y2="230.367" gradientUnits="userSpaceOnUse">
<stop stop-color="#4F9ACD"/>
<stop offset="1" stop-color="#ABF0EA"/>
</linearGradient>
<linearGradient id="paint1_linear_226_946" x1="90.0498" y1="52.7197" x2="120.523" y2="111.228" gradientUnits="userSpaceOnUse">
<stop stop-color="#FF62A5"/>
<stop offset="1" stop-color="#0029FF"/>
</linearGradient>
<linearGradient id="paint2_linear_226_946" x1="32.27" y1="10.1797" x2="42.1726" y2="19.6654" gradientUnits="userSpaceOnUse">
<stop stop-color="#FCD140" stop-opacity="0.83"/>
<stop offset="0.659892" stop-color="#FE9138"/>
</linearGradient>
<linearGradient id="paint3_linear_226_946" x1="43.5" y1="7.88965" x2="46.5072" y2="8.31609" gradientUnits="userSpaceOnUse">
<stop stop-color="#FCD140" stop-opacity="0.83"/>
<stop offset="0.659892" stop-color="#FE9138"/>
</linearGradient>
<linearGradient id="paint4_linear_226_946" x1="29.9702" y1="19.5801" x2="30.6369" y2="23.3969" gradientUnits="userSpaceOnUse">
<stop stop-color="#FCD140" stop-opacity="0.83"/>
<stop offset="0.659892" stop-color="#FE9138"/>
</linearGradient>
</defs>
</svg>
