<svg width="138" height="17" viewBox="0 0 138 17" fill="none" xmlns="http://www.w3.org/2000/svg">
<path d="M0.640007 13.6155C0.440007 13.2795 0.516007 13.0075 0.868007 12.7995L7.63601 8.98347V9.35547L0.868007 5.61147C0.524007 5.40347 0.448007 5.12747 0.640007 4.78347C0.840007 4.43947 1.11201 4.36347 1.45601 4.55547L8.47601 8.46747C8.75601 8.62747 8.89601 8.85547 8.89601 9.15147C8.89601 9.49547 8.75601 9.74347 8.47601 9.89547L1.45601 13.8435C1.11201 14.0435 0.840007 13.9675 0.640007 13.6155Z" fill="white"/>
<path d="M16.4931 13.6155C16.2931 13.2795 16.3691 13.0075 16.7211 12.7995L23.4891 8.98347V9.35547L16.7211 5.61147C16.3771 5.40347 16.3011 5.12747 16.4931 4.78347C16.6931 4.43947 16.9651 4.36347 17.3091 4.55547L24.3291 8.46747C24.6091 8.62747 24.7491 8.85547 24.7491 9.15147C24.7491 9.49547 24.6091 9.74347 24.3291 9.89547L17.3091 13.8435C16.9651 14.0435 16.6931 13.9675 16.4931 13.6155Z" fill="white"/>
<path d="M32.3463 13.6155C32.1463 13.2795 32.2223 13.0075 32.5743 12.7995L39.3423 8.98347V9.35547L32.5743 5.61147C32.2303 5.40347 32.1543 5.12747 32.3463 4.78347C32.5463 4.43947 32.8183 4.36347 33.1623 4.55547L40.1823 8.46747C40.4623 8.62747 40.6023 8.85547 40.6023 9.15147C40.6023 9.49547 40.4623 9.74347 40.1823 9.89547L33.1623 13.8435C32.8183 14.0435 32.5463 13.9675 32.3463 13.6155Z" fill="white"/>
<path d="M48.4394 16.9995C48.0154 16.9995 47.8034 16.7875 47.8034 16.3635V2.16747C47.8034 1.74347 48.0154 1.53147 48.4394 1.53147C48.7434 1.53147 48.9834 1.67147 49.1594 1.95147L55.1354 11.0835L54.8474 11.1195L60.8234 1.95147C60.9914 1.67147 61.2434 1.53147 61.5794 1.53147C61.9554 1.53147 62.1434 1.74347 62.1434 2.16747V16.3635C62.1434 16.7875 61.9354 16.9995 61.5194 16.9995C61.0954 16.9995 60.8834 16.7875 60.8834 16.3635V3.42747L61.2554 3.54747L55.7114 11.9955C55.5354 12.2675 55.2834 12.4035 54.9554 12.4035C54.6674 12.4035 54.4354 12.2675 54.2594 11.9955L48.7154 3.54747L49.0634 3.67947V16.3635C49.0634 16.7875 48.8554 16.9995 48.4394 16.9995Z" fill="white"/>
<path d="M69.9597 11.8155V12.6915C69.9597 13.8195 70.1837 14.6115 70.6317 15.0675C71.0877 15.5155 71.8877 15.7395 73.0317 15.7395H74.9997C76.0077 15.7395 76.7397 15.6115 77.1957 15.3555C77.6597 15.0915 77.9357 14.6395 78.0237 13.9995C78.0557 13.7995 78.1197 13.6475 78.2157 13.5435C78.3197 13.4395 78.4757 13.3875 78.6837 13.3875C78.8917 13.3875 79.0477 13.4475 79.1517 13.5675C79.2637 13.6795 79.3077 13.8395 79.2837 14.0475C79.1797 15.0555 78.7757 15.7995 78.0717 16.2795C77.3677 16.7595 76.3437 16.9995 74.9997 16.9995H73.0317C71.5357 16.9995 70.4397 16.6555 69.7437 15.9675C69.0477 15.2715 68.6997 14.1795 68.6997 12.6915V9.97947C68.6997 8.46747 69.0477 7.36747 69.7437 6.67947C70.4397 5.98347 71.5357 5.64347 73.0317 5.65947H74.9997C76.4957 5.65947 77.5877 6.00747 78.2757 6.70347C78.9717 7.39147 79.3197 8.48347 79.3197 9.97947V11.1795C79.3197 11.6035 79.1117 11.8155 78.6957 11.8155H69.9597ZM73.0317 6.91947C71.8877 6.90347 71.0877 7.12347 70.6317 7.57947C70.1837 8.02747 69.9597 8.82747 69.9597 9.97947V10.5555H78.0597V9.97947C78.0597 8.83547 77.8357 8.03947 77.3877 7.59147C76.9397 7.14347 76.1437 6.91947 74.9997 6.91947H73.0317Z" fill="white"/>
<path d="M86.2446 3.47547C85.6926 3.47547 85.4166 3.19147 85.4166 2.62347V2.08347C85.4166 1.53147 85.6926 1.25547 86.2446 1.25547H86.7846C87.3206 1.25547 87.5886 1.53147 87.5886 2.08347V2.62347C87.5886 3.19147 87.3206 3.47547 86.7846 3.47547H86.2446ZM86.5206 16.9995C86.0966 16.9995 85.8846 16.7875 85.8846 16.3635V6.28347C85.8846 5.86747 86.0966 5.65947 86.5206 5.65947C86.9366 5.65947 87.1446 5.86747 87.1446 6.28347V16.3635C87.1446 16.7875 86.9366 16.9995 86.5206 16.9995Z" fill="white"/>
<path d="M98.0348 16.9995C96.5388 16.9995 95.4428 16.6515 94.7468 15.9555C94.0508 15.2595 93.7028 14.1635 93.7028 12.6675V9.95547C93.7028 8.45947 94.0468 7.36747 94.7348 6.67947C95.4308 5.98347 96.5308 5.64347 98.0348 5.65947H100.003C101.179 5.65947 102.075 5.85947 102.691 6.25947C103.315 6.65147 103.687 7.27147 103.807 8.11947C103.831 8.33547 103.783 8.49947 103.663 8.61147C103.551 8.72347 103.391 8.77947 103.183 8.77947C102.991 8.77947 102.847 8.73147 102.751 8.63547C102.655 8.53147 102.583 8.38347 102.535 8.19147C102.447 7.72747 102.211 7.39947 101.827 7.20747C101.443 7.01547 100.835 6.91947 100.003 6.91947H98.0348C96.8908 6.90347 96.0908 7.11947 95.6348 7.56747C95.1868 8.00747 94.9628 8.80347 94.9628 9.95547V12.6675C94.9628 13.8115 95.1868 14.6115 95.6348 15.0675C96.0908 15.5155 96.8908 15.7395 98.0348 15.7395H100.003C100.835 15.7395 101.443 15.6435 101.827 15.4515C102.211 15.2595 102.447 14.9275 102.535 14.4555C102.583 14.2635 102.655 14.1195 102.751 14.0235C102.847 13.9195 102.991 13.8675 103.183 13.8675C103.391 13.8675 103.551 13.9275 103.663 14.0475C103.783 14.1595 103.831 14.3195 103.807 14.5275C103.687 15.3755 103.315 15.9995 102.691 16.3995C102.075 16.7995 101.179 16.9995 100.003 16.9995H98.0348Z" fill="white"/>
<path d="M110.774 16.9995C110.35 16.9995 110.138 16.7875 110.138 16.3635V0.979469C110.138 0.563469 110.35 0.355469 110.774 0.355469C111.19 0.355469 111.398 0.563469 111.398 0.979469V7.43547C112.158 6.25147 113.534 5.65947 115.526 5.65947H116.198C117.694 5.65947 118.786 6.00747 119.474 6.70347C120.17 7.39147 120.518 8.48347 120.518 9.97947V16.3635C120.518 16.7875 120.31 16.9995 119.894 16.9995C119.47 16.9995 119.258 16.7875 119.258 16.3635V9.97947C119.258 8.83547 119.03 8.03947 118.574 7.59147C118.126 7.14347 117.334 6.91947 116.198 6.91947H115.526C114.286 6.91947 113.31 7.11547 112.598 7.50747C111.886 7.89947 111.486 8.51147 111.398 9.34347V16.3635C111.398 16.7875 111.19 16.9995 110.774 16.9995Z" fill="white"/>
<path d="M136.714 5.65947C137.138 5.65947 137.35 5.86747 137.35 6.28347V16.3635C137.35 16.7875 137.138 16.9995 136.714 16.9995C136.298 16.9995 136.09 16.7875 136.09 16.3635V15.2235C135.33 16.4075 133.954 16.9995 131.962 16.9995H131.29C129.794 16.9995 128.698 16.6515 128.002 15.9555C127.314 15.2595 126.97 14.1635 126.97 12.6675V6.28347C126.97 5.86747 127.178 5.65947 127.594 5.65947C128.018 5.65947 128.23 5.86747 128.23 6.28347V12.6675C128.23 13.8115 128.454 14.6115 128.902 15.0675C129.358 15.5155 130.154 15.7395 131.29 15.7395H131.962C133.202 15.7395 134.178 15.5395 134.89 15.1395C135.602 14.7395 136.002 14.1275 136.09 13.3035V6.28347C136.09 5.86747 136.298 5.65947 136.714 5.65947Z" fill="white"/>
</svg>
