<svg width="139" height="17" viewBox="0 0 139 17" fill="none" xmlns="http://www.w3.org/2000/svg">
<path d="M0.880019 16.9995C0.688019 16.9995 0.532019 16.9435 0.412019 16.8315C0.300019 16.7115 0.244019 16.5555 0.244019 16.3635V2.16747C0.244019 1.97547 0.300019 1.82347 0.412019 1.71147C0.532019 1.59147 0.688019 1.53147 0.880019 1.53147C1.07202 1.53147 1.22402 1.59147 1.33602 1.71147C1.44802 1.82347 1.50402 1.97547 1.50402 2.16747V8.52747H11.572V2.16747C11.572 1.97547 11.628 1.82347 11.74 1.71147C11.852 1.59147 12.004 1.53147 12.196 1.53147C12.388 1.53147 12.54 1.59147 12.652 1.71147C12.772 1.82347 12.832 1.97547 12.832 2.16747V16.3635C12.832 16.5555 12.772 16.7115 12.652 16.8315C12.54 16.9435 12.388 16.9995 12.196 16.9995C12.004 16.9995 11.852 16.9435 11.74 16.8315C11.628 16.7115 11.572 16.5555 11.572 16.3635V9.78747H1.50402V16.3635C1.50402 16.5555 1.44802 16.7115 1.33602 16.8315C1.22402 16.9435 1.07202 16.9995 0.880019 16.9995Z" fill="white"/>
<path d="M23.102 16.9995C21.854 16.9995 20.938 16.7115 20.354 16.1355C19.778 15.5515 19.49 14.6355 19.49 13.3875C19.49 12.1395 19.782 11.2235 20.366 10.6395C20.95 10.0555 21.862 9.76347 23.102 9.76347H28.562C28.546 8.70747 28.306 7.97147 27.842 7.55547C27.386 7.13147 26.606 6.91947 25.502 6.91947H24.11C23.094 6.91947 22.35 7.02747 21.878 7.24347C21.406 7.45947 21.114 7.82747 21.002 8.34747C20.946 8.54747 20.87 8.69547 20.774 8.79147C20.686 8.87947 20.542 8.92347 20.342 8.92347C20.134 8.92347 19.97 8.86747 19.85 8.75547C19.738 8.63547 19.698 8.47547 19.73 8.27547C19.834 7.36347 20.246 6.69947 20.966 6.28347C21.694 5.86747 22.742 5.65947 24.11 5.65947H25.502C26.998 5.65947 28.09 6.00747 28.778 6.70347C29.474 7.39147 29.822 8.48347 29.822 9.97947V16.3635C29.822 16.7875 29.614 16.9995 29.198 16.9995C28.774 16.9995 28.562 16.7875 28.562 16.3635V15.1755C27.794 16.3915 26.422 16.9995 24.446 16.9995H23.102ZM23.102 15.7395H24.446C25.222 15.7395 25.902 15.6555 26.486 15.4875C27.078 15.3115 27.554 15.0315 27.914 14.6475C28.274 14.2635 28.49 13.7515 28.562 13.1115V11.0235H23.102C22.214 11.0235 21.598 11.1955 21.254 11.5395C20.918 11.8755 20.75 12.4915 20.75 13.3875C20.75 14.2755 20.918 14.8915 21.254 15.2355C21.598 15.5715 22.214 15.7395 23.102 15.7395Z" fill="white"/>
<path d="M40.5051 16.9995C39.0091 16.9995 37.9131 16.6515 37.2171 15.9555C36.5211 15.2595 36.1731 14.1635 36.1731 12.6675V9.95547C36.1731 8.45947 36.5171 7.36747 37.2051 6.67947C37.9011 5.98347 39.0011 5.64347 40.5051 5.65947H42.4731C43.6491 5.65947 44.5451 5.85947 45.1611 6.25947C45.7851 6.65147 46.1571 7.27147 46.2771 8.11947C46.3011 8.33547 46.2531 8.49947 46.1331 8.61147C46.0211 8.72347 45.8611 8.77947 45.6531 8.77947C45.4611 8.77947 45.3171 8.73147 45.2211 8.63547C45.1251 8.53147 45.0531 8.38347 45.0051 8.19147C44.9171 7.72747 44.6811 7.39947 44.2971 7.20747C43.9131 7.01547 43.3051 6.91947 42.4731 6.91947H40.5051C39.3611 6.90347 38.5611 7.11947 38.1051 7.56747C37.6571 8.00747 37.4331 8.80347 37.4331 9.95547V12.6675C37.4331 13.8115 37.6571 14.6115 38.1051 15.0675C38.5611 15.5155 39.3611 15.7395 40.5051 15.7395H42.4731C43.3051 15.7395 43.9131 15.6435 44.2971 15.4515C44.6811 15.2595 44.9171 14.9275 45.0051 14.4555C45.0531 14.2635 45.1251 14.1195 45.2211 14.0235C45.3171 13.9195 45.4611 13.8675 45.6531 13.8675C45.8611 13.8675 46.0211 13.9275 46.1331 14.0475C46.2531 14.1595 46.3011 14.3195 46.2771 14.5275C46.1571 15.3755 45.7851 15.9995 45.1611 16.3995C44.5451 16.7995 43.6491 16.9995 42.4731 16.9995H40.5051Z" fill="white"/>
<path d="M53.2441 16.9995C52.8201 16.9995 52.6081 16.7875 52.6081 16.3635V0.979469C52.6081 0.563469 52.8201 0.355469 53.2441 0.355469C53.6601 0.355469 53.8681 0.563469 53.8681 0.979469V10.9515L59.9641 5.71947C60.2681 5.44747 60.5601 5.46747 60.8401 5.77947C61.1121 6.09147 61.0921 6.38747 60.7801 6.66747L56.3641 10.4715L61.1641 15.9195C61.4441 16.2315 61.4241 16.5275 61.1041 16.8075C60.8001 17.0795 60.5081 17.0595 60.2281 16.7475L55.3921 11.2995L53.8681 12.6075V16.3635C53.8681 16.7875 53.6601 16.9995 53.2441 16.9995Z" fill="white"/>
<path d="M69.8645 16.9995C68.6165 16.9995 67.7005 16.7115 67.1165 16.1355C66.5405 15.5515 66.2525 14.6355 66.2525 13.3875C66.2525 12.1395 66.5445 11.2235 67.1285 10.6395C67.7125 10.0555 68.6245 9.76347 69.8645 9.76347H75.3245C75.3085 8.70747 75.0685 7.97147 74.6045 7.55547C74.1485 7.13147 73.3685 6.91947 72.2645 6.91947H70.8725C69.8565 6.91947 69.1125 7.02747 68.6405 7.24347C68.1685 7.45947 67.8765 7.82747 67.7645 8.34747C67.7085 8.54747 67.6325 8.69547 67.5365 8.79147C67.4485 8.87947 67.3045 8.92347 67.1045 8.92347C66.8965 8.92347 66.7325 8.86747 66.6125 8.75547C66.5005 8.63547 66.4605 8.47547 66.4925 8.27547C66.5965 7.36347 67.0085 6.69947 67.7285 6.28347C68.4565 5.86747 69.5044 5.65947 70.8725 5.65947H72.2645C73.7605 5.65947 74.8525 6.00747 75.5405 6.70347C76.2365 7.39147 76.5845 8.48347 76.5845 9.97947V16.3635C76.5845 16.7875 76.3765 16.9995 75.9605 16.9995C75.5365 16.9995 75.3245 16.7875 75.3245 16.3635V15.1755C74.5565 16.3915 73.1845 16.9995 71.2085 16.9995H69.8645ZM69.8645 15.7395H71.2085C71.9845 15.7395 72.6645 15.6555 73.2485 15.4875C73.8405 15.3115 74.3165 15.0315 74.6765 14.6475C75.0365 14.2635 75.2525 13.7515 75.3245 13.1115V11.0235H69.8645C68.9765 11.0235 68.3605 11.1955 68.0165 11.5395C67.6805 11.8755 67.5125 12.4915 67.5125 13.3875C67.5125 14.2755 67.6805 14.8915 68.0165 15.2355C68.3605 15.5715 68.9765 15.7395 69.8645 15.7395Z" fill="white"/>
<path d="M87.8916 16.9995C86.4196 16.9995 85.3436 16.6595 84.6636 15.9795C83.9836 15.2995 83.6436 14.2275 83.6436 12.7635V6.91947H82.2156C81.7916 6.91947 81.5796 6.70747 81.5796 6.28347C81.5796 5.86747 81.7916 5.65947 82.2156 5.65947H83.6436V3.07947C83.6436 2.65547 83.8516 2.44347 84.2676 2.44347C84.6917 2.44347 84.9036 2.65547 84.9036 3.07947V5.65947H87.9156C88.3316 5.65947 88.5396 5.86747 88.5396 6.28347C88.5396 6.70747 88.3316 6.91947 87.9156 6.91947H84.9036V12.7635C84.9036 13.8835 85.1196 14.6595 85.5516 15.0915C85.9916 15.5235 86.7716 15.7395 87.8916 15.7395C88.1236 15.7395 88.2876 15.7915 88.3836 15.8955C88.4876 15.9995 88.5396 16.1555 88.5396 16.3635C88.5396 16.7875 88.3236 16.9995 87.8916 16.9995Z" fill="white"/>
<path d="M94.8972 16.9995C94.4732 16.9995 94.2612 16.7875 94.2612 16.3635V0.979469C94.2612 0.563469 94.4732 0.355469 94.8972 0.355469C95.3132 0.355469 95.5212 0.563469 95.5212 0.979469V7.43547C96.2812 6.25147 97.6572 5.65947 99.6492 5.65947H100.321C101.817 5.65947 102.909 6.00747 103.597 6.70347C104.293 7.39147 104.641 8.48347 104.641 9.97947V16.3635C104.641 16.7875 104.433 16.9995 104.017 16.9995C103.593 16.9995 103.381 16.7875 103.381 16.3635V9.97947C103.381 8.83547 103.153 8.03947 102.697 7.59147C102.249 7.14347 101.457 6.91947 100.321 6.91947H99.6492C98.4092 6.91947 97.4332 7.11547 96.7212 7.50747C96.0092 7.89947 95.6092 8.51147 95.5212 9.34347V16.3635C95.5212 16.7875 95.3132 16.9995 94.8972 16.9995Z" fill="white"/>
<path d="M115.318 16.9995C113.822 16.9995 112.726 16.6555 112.03 15.9675C111.334 15.2715 110.986 14.1795 110.986 12.6915V9.97947C110.986 8.46747 111.334 7.36747 112.03 6.67947C112.726 5.98347 113.822 5.64347 115.318 5.65947H117.286C118.782 5.65947 119.874 6.00747 120.562 6.70347C121.258 7.39147 121.606 8.48347 121.606 9.97947V12.6675C121.606 14.1635 121.258 15.2595 120.562 15.9555C119.874 16.6515 118.782 16.9995 117.286 16.9995H115.318ZM112.246 12.6915C112.246 13.8195 112.47 14.6115 112.918 15.0675C113.374 15.5155 114.174 15.7395 115.318 15.7395H117.286C118.43 15.7395 119.226 15.5155 119.674 15.0675C120.122 14.6115 120.346 13.8115 120.346 12.6675V9.97947C120.346 8.83547 120.122 8.03947 119.674 7.59147C119.226 7.14347 118.43 6.91947 117.286 6.91947H115.318C114.55 6.91147 113.942 7.00347 113.494 7.19547C113.046 7.38747 112.726 7.70747 112.534 8.15547C112.342 8.60347 112.246 9.21147 112.246 9.97947V12.6915Z" fill="white"/>
<path d="M128.807 16.9995C128.383 16.9995 128.171 16.7875 128.171 16.3635V6.28347C128.171 5.86747 128.383 5.65947 128.807 5.65947C129.223 5.65947 129.431 5.86747 129.431 6.28347V7.43547C130.191 6.25147 131.567 5.65947 133.559 5.65947H134.231C135.727 5.65947 136.819 6.00747 137.507 6.70347C138.203 7.39147 138.551 8.48347 138.551 9.97947V16.3635C138.551 16.7875 138.343 16.9995 137.927 16.9995C137.503 16.9995 137.291 16.7875 137.291 16.3635V9.97947C137.291 8.83547 137.063 8.03947 136.607 7.59147C136.159 7.14347 135.367 6.91947 134.231 6.91947H133.559C132.319 6.91947 131.343 7.11547 130.631 7.50747C129.919 7.89947 129.519 8.51147 129.431 9.34347V16.3635C129.431 16.7875 129.223 16.9995 128.807 16.9995Z" fill="white"/>
</svg>
