<svg width="434" height="37" viewBox="0 0 434 37" fill="none" xmlns="http://www.w3.org/2000/svg">
<path d="M174.025 10.0383C173.976 9.97061 173.942 9.89199 173.927 9.8086C173.912 9.72521 173.916 9.63931 173.938 9.55775C173.961 9.47618 174.001 9.40117 174.057 9.33859C174.112 9.27601 174.181 9.22759 174.257 9.19717L178.735 6.5938V7.07441L174.27 4.52441C174.2 4.48409 174.138 4.42984 174.088 4.36474C174.038 4.29964 174.001 4.22498 173.978 4.14501C173.956 4.06505 173.95 3.98133 173.959 3.89868C173.968 3.81603 173.993 3.73607 174.031 3.66331C174.07 3.59055 174.123 3.52641 174.186 3.47463C174.249 3.42284 174.321 3.38438 174.398 3.36144C174.475 3.33851 174.556 3.33158 174.636 3.34099C174.716 3.3504 174.793 3.376 174.864 3.41632L179.587 6.08647C179.71 6.1423 179.816 6.23351 179.892 6.34938C179.967 6.46526 180.009 6.60098 180.012 6.74064C180.018 6.89441 179.981 7.04669 179.906 7.17928C179.83 7.31187 179.719 7.41915 179.587 7.48828L174.864 10.2385C174.799 10.2909 174.723 10.3276 174.643 10.346C174.562 10.3643 174.479 10.3639 174.398 10.3447C174.318 10.3256 174.243 10.2881 174.178 10.2351C174.114 10.1821 174.061 10.1148 174.025 10.0383Z" fill="#A1EBE4"/>
<path d="M187.561 10.0383C187.511 9.97061 187.478 9.892 187.463 9.80861C187.448 9.72522 187.451 9.63932 187.474 9.55775C187.496 9.47619 187.537 9.40118 187.592 9.3386C187.648 9.27602 187.716 9.2276 187.793 9.19718L192.271 6.59381V7.07441L187.806 4.52442C187.729 4.49015 187.661 4.43886 187.606 4.37416C187.55 4.30946 187.51 4.23297 187.486 4.15011C187.463 4.06726 187.457 3.98006 187.47 3.89477C187.483 3.80948 187.514 3.72818 187.561 3.65663C187.593 3.57682 187.643 3.50565 187.706 3.44847C187.769 3.3913 187.843 3.34961 187.924 3.32649C188.005 3.30337 188.089 3.29944 188.172 3.315C188.254 3.33056 188.332 3.3652 188.399 3.41633L193.122 6.08647C193.246 6.14231 193.352 6.23351 193.427 6.34939C193.503 6.46527 193.545 6.60099 193.548 6.74065C193.554 6.89442 193.517 7.0467 193.441 7.17929C193.366 7.31188 193.255 7.41915 193.122 7.48828L188.399 10.2385C188.334 10.2886 188.258 10.3234 188.178 10.3404C188.098 10.3575 188.015 10.3565 187.936 10.3375C187.856 10.3185 187.781 10.2819 187.717 10.2303C187.652 10.1786 187.599 10.1131 187.561 10.0383Z" fill="#A1EBE4"/>
<path d="M200.245 12.3878C200.149 12.3675 200.059 12.3239 199.982 12.2605C199.906 12.1971 199.845 12.1158 199.804 12.0232C199.764 11.9306 199.745 11.8295 199.75 11.728C199.755 11.6266 199.783 11.5278 199.832 11.4399L203.832 1.26662C203.887 1.09664 203.993 0.949298 204.135 0.846029C204.277 0.742761 204.446 0.68898 204.62 0.69255C204.786 0.691935 204.948 0.747731 205.081 0.851407C205.214 0.955084 205.31 1.10092 205.355 1.26662L209.407 11.4399C209.456 11.526 209.485 11.6229 209.491 11.7227C209.498 11.8225 209.481 11.9225 209.444 12.0146C209.406 12.1067 209.348 12.1884 209.275 12.2532C209.201 12.318 209.114 12.3641 209.02 12.3878C208.936 12.4358 208.843 12.4634 208.747 12.4686C208.651 12.4739 208.556 12.4566 208.468 12.418C208.379 12.3794 208.301 12.3206 208.238 12.246C208.175 12.1714 208.129 12.0829 208.104 11.9873L207.2 9.71766H201.974L201.11 11.9873C201.087 12.0784 201.045 12.163 200.986 12.2349C200.927 12.3068 200.854 12.364 200.77 12.4025C200.687 12.441 200.597 12.4596 200.506 12.4571C200.415 12.4545 200.326 12.4309 200.245 12.3878ZM202.568 8.26243H206.658L204.568 3.00224L202.568 8.26243Z" fill="#A1EBE4"/>
<path d="M218.53 12.4547C218.018 12.5389 217.494 12.4967 217 12.3314C216.507 12.1662 216.058 11.8826 215.691 11.5038C215.324 11.1251 215.048 10.6619 214.887 10.1519C214.725 9.64201 214.683 9.09981 214.762 8.5696V4.56438C214.718 4.03427 214.776 3.50032 214.933 2.99373C215.091 2.48713 215.344 2.01806 215.678 1.61388C216.064 1.26901 216.513 1.00843 216.999 0.847823C217.485 0.687219 217.997 0.629896 218.504 0.679309H220.543C221.392 0.62284 222.236 0.857449 222.943 1.34685C223.237 1.61231 223.475 1.93802 223.642 2.30337C223.809 2.66873 223.9 3.0658 223.911 3.46961C223.933 3.56701 223.933 3.66848 223.911 3.76585C223.888 3.86323 223.844 3.95381 223.782 4.03036C223.63 4.16068 223.437 4.2274 223.24 4.21729C222.814 4.21729 222.569 3.97695 222.504 3.48297C222.501 3.27343 222.451 3.06756 222.357 2.88201C222.263 2.69646 222.128 2.53646 221.962 2.41493C221.521 2.19636 221.032 2.09975 220.543 2.13453H218.504C218.031 2.11249 217.558 2.18502 217.111 2.34815C216.947 2.4153 216.799 2.51624 216.675 2.6448C216.551 2.77336 216.453 2.92683 216.388 3.09579C216.23 3.56728 216.16 4.06572 216.182 4.56438V8.5696C216.161 9.06383 216.231 9.55769 216.388 10.0248C216.454 10.1951 216.554 10.3493 216.681 10.478C216.807 10.6066 216.958 10.7068 217.124 10.7725C217.574 10.9418 218.051 11.0189 218.53 10.9994H220.543C221.032 11.0342 221.521 10.9377 221.962 10.7191C222.128 10.5976 222.263 10.4375 222.357 10.252C222.451 10.0664 222.501 9.86055 222.504 9.651C222.569 9.15703 222.814 8.91673 223.24 8.91673C223.437 8.90661 223.63 8.97329 223.782 9.10362C223.844 9.18016 223.888 9.27075 223.911 9.36812C223.933 9.4655 223.933 9.56697 223.911 9.66437C223.903 10.0688 223.813 10.4669 223.646 10.8328C223.48 11.1986 223.24 11.5238 222.943 11.7871C222.236 12.2765 221.392 12.5111 220.543 12.4547H218.53Z" fill="#A1EBE4"/>
<path d="M233.589 12.4551C233.077 12.54 232.553 12.4981 232.06 12.3329C231.567 12.1677 231.119 11.8838 230.752 11.5046C230.386 11.1255 230.112 10.6618 229.952 10.1517C229.792 9.64156 229.752 9.09954 229.834 8.57008V4.56486C229.789 4.03475 229.848 3.5008 230.005 2.99421C230.162 2.48762 230.415 2.01854 230.75 1.61436C231.135 1.2675 231.584 1.00568 232.07 0.844965C232.556 0.684252 233.068 0.628025 233.576 0.679792H235.602C236.455 0.620338 237.304 0.855075 238.015 1.34733C238.307 1.61347 238.543 1.93959 238.708 2.305C238.872 2.67041 238.961 3.06714 238.97 3.47009C238.992 3.56749 238.992 3.66896 238.97 3.76633C238.947 3.86371 238.903 3.95429 238.841 4.03084C238.69 4.16356 238.496 4.23061 238.299 4.21777C237.873 4.21777 237.628 3.97743 237.563 3.48345C237.562 3.27506 237.513 3.06991 237.421 2.88445C237.329 2.69898 237.197 2.53836 237.034 2.41541C236.588 2.19573 236.095 2.09912 235.602 2.13502H233.576C233.102 2.11297 232.629 2.1855 232.182 2.34863C232.017 2.41135 231.866 2.51078 231.741 2.63991C231.616 2.76904 231.52 2.92476 231.46 3.09627C231.296 3.56663 231.221 4.06529 231.24 4.56486V8.57008C231.222 9.06523 231.297 9.5593 231.46 10.0253C231.525 10.1943 231.622 10.3477 231.746 10.4763C231.871 10.6049 232.019 10.7058 232.182 10.7729C232.633 10.9413 233.11 11.0184 233.589 10.9999H235.602C236.095 11.0358 236.588 10.9392 237.034 10.7196C237.197 10.5966 237.329 10.436 237.421 10.2505C237.513 10.065 237.562 9.85988 237.563 9.65149C237.628 9.15751 237.873 8.91721 238.299 8.91721C238.496 8.90437 238.69 8.97137 238.841 9.1041C238.903 9.18064 238.947 9.27123 238.97 9.36861C238.992 9.46598 238.992 9.56745 238.97 9.66485C238.964 10.0682 238.875 10.4658 238.711 10.8315C238.546 11.1973 238.309 11.5231 238.015 11.7876C237.304 12.2799 236.455 12.5146 235.602 12.4551H233.589Z" fill="#A1EBE4"/>
<path d="M246.002 12.4553C245.907 12.4708 245.809 12.463 245.717 12.4325C245.625 12.402 245.541 12.3496 245.472 12.2795C245.403 12.2095 245.351 12.1237 245.32 12.029C245.289 11.9344 245.279 11.8334 245.292 11.7344V1.41427C245.279 1.3152 245.289 1.21428 245.32 1.11961C245.351 1.02495 245.403 0.939149 245.472 0.869083C245.541 0.799017 245.625 0.746657 245.717 0.716133C245.809 0.685609 245.907 0.677787 246.002 0.693317H252.028C252.198 0.717214 252.354 0.80411 252.467 0.937898C252.58 1.07169 252.642 1.24332 252.642 1.42095C252.642 1.59858 252.58 1.77017 252.467 1.90396C252.354 2.03775 252.198 2.12464 252.028 2.14854H246.712V5.79331H250.041C250.141 5.77921 250.244 5.78748 250.341 5.81759C250.438 5.8477 250.527 5.89893 250.603 5.96785C250.68 6.03677 250.741 6.12181 250.783 6.2172C250.825 6.31259 250.846 6.41613 250.846 6.5209C250.846 6.62567 250.825 6.72925 250.783 6.82464C250.741 6.92003 250.68 7.00502 250.603 7.07395C250.527 7.14287 250.438 7.1941 250.341 7.22421C250.244 7.25432 250.141 7.26263 250.041 7.24853H246.712V11.0001H252.028C252.198 11.024 252.354 11.1109 252.467 11.2447C252.58 11.3785 252.642 11.5501 252.642 11.7277C252.642 11.9054 252.58 12.0769 252.467 12.2107C252.354 12.3445 252.198 12.4314 252.028 12.4553H246.002Z" fill="#A1EBE4"/>
<path d="M261.642 12.4548C260.855 12.5036 260.073 12.2933 259.409 11.854C259.133 11.6304 258.902 11.3526 258.729 11.0364C258.556 10.7203 258.445 10.3721 258.403 10.0116C258.389 9.91005 258.396 9.80667 258.423 9.70791C258.449 9.60915 258.495 9.51709 258.558 9.4375C258.631 9.36919 258.716 9.31733 258.81 9.28516C258.903 9.25298 259.002 9.24121 259.1 9.25061C259.193 9.24234 259.286 9.25343 259.375 9.28324C259.463 9.31305 259.545 9.36099 259.616 9.42417C259.739 9.57545 259.815 9.76148 259.835 9.95819C259.856 10.1287 259.917 10.2916 260.011 10.4332C260.105 10.5749 260.231 10.6912 260.377 10.7726C260.784 10.9507 261.226 11.0284 261.668 10.9995H264.081C264.606 11.0588 265.134 10.9163 265.564 10.599C265.872 10.1641 266.01 9.6257 265.952 9.0904C266.021 8.82182 266.022 8.53897 265.953 8.2702C265.884 8.00143 265.747 7.75615 265.558 7.55883C265.369 7.3615 265.133 7.21906 264.873 7.14577C264.614 7.07248 264.341 7.07089 264.081 7.14117H262.003C261.58 7.17701 261.154 7.12459 260.75 6.98699C260.347 6.8494 259.974 6.62945 259.654 6.34016C259.155 5.63522 258.886 4.78412 258.886 3.91031C258.886 3.0365 259.155 2.1854 259.654 1.48047C259.975 1.19354 260.348 0.976008 260.752 0.840719C261.155 0.70543 261.581 0.655133 262.003 0.69278H264.003C264.739 0.649558 265.47 0.845634 266.094 1.25353C266.356 1.45995 266.576 1.71871 266.74 2.01453C266.904 2.31035 267.009 2.6372 267.048 2.97574C267.072 3.07521 267.072 3.17896 267.05 3.27867C267.027 3.37838 266.983 3.47129 266.919 3.54986C266.845 3.62024 266.757 3.67426 266.662 3.70867C266.566 3.74309 266.465 3.75719 266.364 3.75011C266.273 3.75552 266.181 3.74177 266.094 3.70965C266.008 3.67754 265.929 3.62771 265.861 3.56318C265.736 3.41327 265.659 3.22652 265.642 3.02916C265.612 2.88054 265.55 2.74081 265.461 2.62055C265.372 2.50028 265.257 2.40263 265.126 2.33494C264.768 2.19197 264.386 2.12827 264.003 2.14801H262.003C261.543 2.10352 261.083 2.23667 260.713 2.52182C260.456 2.9136 260.337 3.38518 260.377 3.8569C260.326 4.35658 260.449 4.85881 260.726 5.27207C261.113 5.57369 261.599 5.70771 262.08 5.64589H264.158C264.804 5.69169 265.425 5.92077 265.953 6.30801C266.482 6.69524 266.897 7.22568 267.153 7.84097C267.409 8.45627 267.496 9.13263 267.405 9.79583C267.313 10.459 267.047 11.0834 266.635 11.6003C265.945 12.1987 265.055 12.4913 264.158 12.4147L261.642 12.4548Z" fill="#A1EBE4"/>
<path d="M276.649 12.4549C275.862 12.5037 275.081 12.2934 274.417 11.8541C274.135 11.6397 273.898 11.3682 273.72 11.0561C273.543 10.7439 273.428 10.3977 273.384 10.0384C273.364 9.93687 273.368 9.83187 273.395 9.73206C273.422 9.63225 273.471 9.5405 273.539 9.46434C273.61 9.39639 273.693 9.34462 273.784 9.31241C273.876 9.2802 273.972 9.26825 274.068 9.27741C274.161 9.2667 274.255 9.27665 274.344 9.30658C274.433 9.33651 274.515 9.38574 274.584 9.45097C274.717 9.59755 274.798 9.78533 274.817 9.985C274.838 10.1555 274.898 10.3184 274.992 10.4601C275.087 10.6017 275.212 10.718 275.359 10.7994C275.766 10.9776 276.208 11.0552 276.649 11.0264H279.062C279.584 11.0887 280.109 10.9457 280.533 10.6258C280.852 10.3538 281.076 9.98144 281.172 9.56534C281.268 9.14924 281.229 8.71222 281.063 8.32076C280.896 7.9293 280.611 7.60483 280.249 7.39674C279.888 7.18866 279.471 7.10835 279.062 7.16801H276.984C276.561 7.20462 276.135 7.15253 275.731 7.0149C275.328 6.87727 274.955 6.6569 274.636 6.36696C274.137 5.66202 273.868 4.81092 273.868 3.93711C273.868 3.06331 274.137 2.21221 274.636 1.50727C274.956 1.2197 275.329 1.00179 275.733 0.866462C276.136 0.731138 276.562 0.681172 276.984 0.719583H278.972C279.712 0.678 280.446 0.873842 281.075 1.28033C281.337 1.48675 281.557 1.74551 281.721 2.04133C281.885 2.33716 281.99 2.66404 282.03 3.00259C282.053 3.10205 282.054 3.20581 282.031 3.30551C282.009 3.40522 281.964 3.49809 281.901 3.57666C281.826 3.64705 281.739 3.70106 281.643 3.73548C281.548 3.76989 281.447 3.78399 281.346 3.77691C281.254 3.78479 281.162 3.77216 281.075 3.73992C280.988 3.70767 280.909 3.65659 280.843 3.59002C280.713 3.44333 280.635 3.25474 280.623 3.05596C280.594 2.90734 280.532 2.76766 280.443 2.64739C280.353 2.52712 280.238 2.42943 280.107 2.36174C279.745 2.21883 279.359 2.15517 278.972 2.17481H276.984C276.524 2.13032 276.065 2.26351 275.694 2.54867C275.426 2.93574 275.303 3.40982 275.346 3.88374C275.298 4.38506 275.426 4.88744 275.707 5.29892C276.095 5.60053 276.58 5.73456 277.062 5.67273H279.139C279.599 5.62094 280.064 5.66988 280.504 5.81635C280.944 5.96282 281.349 6.20351 281.693 6.5228C282.037 6.84209 282.312 7.23282 282.5 7.66948C282.689 8.10614 282.786 8.57897 282.786 9.05715C282.786 9.53533 282.689 10.0081 282.5 10.4448C282.312 10.8814 282.037 11.2722 281.693 11.5915C281.349 11.9108 280.944 12.1515 280.504 12.2979C280.064 12.4444 279.599 12.4933 279.139 12.4415L276.649 12.4549Z" fill="#A1EBE4"/>
<path d="M296.933 12.3878C296.838 12.3658 296.75 12.3209 296.675 12.2568C296.599 12.1927 296.54 12.1112 296.501 12.0188C296.462 11.9265 296.445 11.826 296.45 11.7254C296.456 11.6248 296.484 11.5269 296.533 11.4399L300.521 1.26662C300.576 1.09664 300.682 0.949298 300.823 0.846029C300.965 0.742761 301.135 0.68898 301.308 0.69255C301.474 0.691935 301.636 0.747731 301.769 0.851407C301.902 0.955084 301.998 1.10092 302.043 1.26662L306.095 11.4399C306.144 11.5252 306.174 11.6211 306.181 11.7201C306.188 11.8191 306.173 11.9185 306.137 12.0104C306.1 12.1023 306.044 12.1843 305.972 12.2498C305.9 12.3153 305.814 12.3625 305.721 12.3878C305.637 12.4384 305.542 12.4682 305.445 12.4748C305.348 12.4813 305.25 12.4646 305.16 12.4258C305.07 12.387 304.99 12.3273 304.926 12.2512C304.863 12.1751 304.816 12.0848 304.792 11.9873L303.889 9.71766H298.663L297.798 11.9873C297.775 12.0784 297.733 12.163 297.674 12.2349C297.615 12.3068 297.542 12.364 297.459 12.4025C297.376 12.441 297.285 12.4596 297.194 12.4571C297.104 12.4545 297.014 12.4309 296.933 12.3878ZM299.256 8.26243H303.347L301.256 3.00224L299.256 8.26243Z" fill="#A1EBE4"/>
<path d="M315.696 12.4548C315.184 12.5397 314.66 12.4978 314.167 12.3326C313.674 12.1674 313.226 11.8835 312.859 11.5043C312.493 11.1252 312.219 10.6615 312.059 10.1514C311.899 9.64124 311.859 9.09921 311.941 8.56976V1.41378C311.93 1.21403 311.995 1.01786 312.121 0.866397C312.276 0.753176 312.461 0.692383 312.65 0.692383C312.84 0.692383 313.025 0.753176 313.179 0.866397C313.301 1.01987 313.361 1.21582 313.347 1.41378V8.56976C313.329 9.06491 313.404 9.55898 313.567 10.025C313.632 10.1939 313.729 10.3474 313.853 10.476C313.978 10.6045 314.126 10.7055 314.289 10.7726C314.74 10.9397 315.217 11.0168 315.696 10.9996H317.709C318.191 11.0162 318.673 10.9392 319.128 10.7726C319.288 10.7055 319.433 10.6059 319.555 10.4798C319.677 10.3537 319.773 10.2036 319.838 10.0383C319.995 9.57122 320.065 9.07736 320.044 8.58312V1.42711C320.034 1.22735 320.099 1.03123 320.225 0.879761C320.38 0.766539 320.565 0.705706 320.754 0.705706C320.944 0.705706 321.128 0.766539 321.283 0.879761C321.409 1.03123 321.474 1.22735 321.464 1.42711V8.58312C321.546 9.11387 321.506 9.6573 321.345 10.1686C321.185 10.68 320.909 11.1446 320.541 11.524C320.173 11.9035 319.723 12.187 319.229 12.3512C318.734 12.5153 318.209 12.5554 317.696 12.4682L315.696 12.4548Z" fill="#A1EBE4"/>
<path d="M331.671 12.4545C331.576 12.4631 331.48 12.4522 331.39 12.4224C331.299 12.3926 331.215 12.3445 331.142 12.281C331.016 12.1295 330.951 11.9333 330.961 11.7336V2.16112H327.709C327.609 2.17522 327.507 2.16691 327.41 2.1368C327.313 2.10669 327.223 2.05546 327.147 1.98654C327.071 1.91762 327.01 1.83262 326.968 1.73723C326.926 1.64184 326.904 1.53826 326.904 1.43349C326.904 1.32872 326.926 1.22518 326.968 1.12979C327.01 1.0344 327.071 0.949364 327.147 0.880442C327.223 0.81152 327.313 0.760291 327.41 0.730181C327.507 0.700071 327.609 0.691803 327.709 0.705898H335.632C335.733 0.691803 335.835 0.700071 335.932 0.730181C336.029 0.760291 336.119 0.81152 336.195 0.880442C336.271 0.949364 336.332 1.0344 336.374 1.12979C336.416 1.22518 336.438 1.32872 336.438 1.43349C336.438 1.53826 336.416 1.64184 336.374 1.73723C336.332 1.83262 336.271 1.91762 336.195 1.98654C336.119 2.05546 336.029 2.10669 335.932 2.1368C335.835 2.16691 335.733 2.17522 335.632 2.16112H332.381V11.7336C332.389 11.929 332.324 12.1203 332.2 12.2676C332.054 12.3983 331.864 12.4653 331.671 12.4545Z" fill="#A1EBE4"/>
<path d="M342.665 12.4545C342.573 12.4562 342.482 12.438 342.398 12.4012C342.313 12.3644 342.237 12.3098 342.174 12.2409C342.105 12.1776 342.049 12.0995 342.011 12.012C341.973 11.9244 341.954 11.8294 341.955 11.7335V1.41344C341.954 1.31754 341.973 1.22255 342.011 1.135C342.049 1.04745 342.105 0.9694 342.174 0.906105C342.237 0.837147 342.313 0.782523 342.398 0.74574C342.482 0.708956 342.573 0.690819 342.665 0.692488C342.849 0.695915 343.024 0.772983 343.154 0.90745C343.284 1.04192 343.358 1.22331 343.362 1.41344V5.77911H350.214V1.41344C350.213 1.31878 350.231 1.22493 350.266 1.13769C350.302 1.05044 350.354 0.971637 350.42 0.906105C350.483 0.837147 350.559 0.782523 350.643 0.74574C350.728 0.708956 350.819 0.690819 350.91 0.692488C351.002 0.691624 351.093 0.710146 351.177 0.746881C351.261 0.783615 351.337 0.837792 351.401 0.906105C351.468 0.970971 351.523 1.04936 351.561 1.13655C351.598 1.22374 351.618 1.31794 351.62 1.41344V11.7335C351.618 11.829 351.598 11.9232 351.561 12.0104C351.523 12.0976 351.468 12.176 351.401 12.2409C351.337 12.3092 351.261 12.3634 351.177 12.4001C351.093 12.4369 351.002 12.4553 350.91 12.4545C350.819 12.4562 350.728 12.438 350.643 12.4012C350.559 12.3644 350.483 12.3098 350.42 12.2409C350.354 12.1753 350.302 12.0965 350.266 12.0093C350.231 11.922 350.213 11.8282 350.214 11.7335V7.23434H343.362V11.7335C343.358 11.9237 343.284 12.1051 343.154 12.2395C343.024 12.374 342.849 12.4511 342.665 12.4545Z" fill="#A1EBE4"/>
<path d="M361.853 12.4547C361.343 12.4988 360.829 12.4378 360.342 12.275C359.854 12.1123 359.403 11.8512 359.014 11.5068C358.681 11.1043 358.429 10.6374 358.271 10.1332C358.114 9.62905 358.055 9.09759 358.098 8.56966V4.56444C358.009 4.03437 358.045 3.49 358.203 2.97733C358.36 2.46465 358.635 1.99877 359.003 1.61903C359.371 1.23929 359.822 0.956876 360.318 0.795649C360.815 0.634423 361.341 0.599112 361.853 0.692732H363.866C364.378 0.607863 364.901 0.649777 365.394 0.815002C365.888 0.980227 366.336 1.26407 366.702 1.64323C367.069 2.02239 367.343 2.48606 367.503 2.99619C367.662 3.50632 367.703 4.04834 367.621 4.5778V8.58302C367.703 9.11248 367.662 9.6545 367.503 10.1646C367.343 10.6748 367.069 11.1384 366.702 11.5176C366.336 11.8968 365.888 12.1806 365.394 12.3458C364.901 12.511 364.378 12.553 363.866 12.4681L361.853 12.4547ZM361.853 10.9995H363.866C364.344 11.018 364.822 10.9409 365.272 10.7725C365.436 10.7054 365.584 10.6044 365.708 10.4759C365.832 10.3473 365.93 10.1938 365.995 10.0249C366.158 9.55888 366.232 9.06481 366.214 8.56966V4.56444C366.231 4.06936 366.156 3.57554 365.995 3.10921C365.93 2.94025 365.832 2.78679 365.708 2.65822C365.584 2.52966 365.436 2.42872 365.272 2.36157C364.822 2.19318 364.344 2.1161 363.866 2.13459H361.853C361.375 2.11536 360.898 2.18779 360.446 2.34821C360.283 2.41535 360.135 2.5163 360.01 2.64486C359.886 2.77342 359.789 2.92689 359.724 3.09585C359.553 3.55984 359.479 4.05553 359.504 4.55111V8.55633C359.483 9.05057 359.553 9.54443 359.711 10.0116C359.777 10.1818 359.877 10.336 360.003 10.4647C360.13 10.5933 360.281 10.6936 360.446 10.7592C360.896 10.9331 361.373 11.0147 361.853 10.9995Z" fill="#A1EBE4"/>
<path d="M381.415 12.4945C381.34 12.5515 381.253 12.5907 381.162 12.6092C381.07 12.6276 380.976 12.625 380.886 12.6013C380.705 12.5485 380.552 12.4236 380.46 12.2542L377.879 7.76833H375.531V11.7735C375.508 11.9496 375.424 12.111 375.294 12.2278C375.165 12.3447 374.999 12.4091 374.827 12.4091C374.656 12.4091 374.49 12.3447 374.361 12.2278C374.231 12.111 374.147 11.9496 374.124 11.7735V1.45346C374.111 1.35567 374.121 1.25613 374.151 1.16263C374.182 1.06914 374.233 0.984203 374.3 0.914427C374.368 0.844651 374.45 0.791931 374.54 0.760377C374.63 0.728823 374.727 0.719284 374.821 0.732509H378.757C379.184 0.678581 379.618 0.726091 380.026 0.871402C380.433 1.01671 380.803 1.25601 381.107 1.57121C381.412 1.8864 381.643 2.26922 381.784 2.69063C381.924 3.11203 381.97 3.56098 381.918 4.00345V4.53748C381.956 5.31867 381.738 6.09018 381.299 6.72697C380.852 7.29728 380.209 7.66589 379.505 7.75501L381.699 11.5466C381.745 11.627 381.775 11.7165 381.785 11.8094C381.796 11.9024 381.788 11.9966 381.761 12.086C381.734 12.1754 381.689 12.2579 381.63 12.3283C381.57 12.3987 381.497 12.4553 381.415 12.4945ZM375.505 6.3131H378.731C378.972 6.36495 379.222 6.35393 379.458 6.28104C379.693 6.20815 379.908 6.07569 380.082 5.89557C380.256 5.71545 380.384 5.49334 380.455 5.24926C380.525 5.00518 380.536 4.74682 380.486 4.49743V3.9634C380.531 3.4604 380.387 2.95875 380.086 2.56155C379.704 2.24571 379.217 2.09716 378.731 2.14768H375.505V6.3131Z" fill="#A1EBE4"/>
<path d="M388.68 12.4551C388.583 12.4648 388.485 12.4544 388.392 12.4246C388.299 12.3948 388.213 12.3462 388.138 12.2816C388.077 12.2063 388.03 12.1192 388.001 12.0252C387.973 11.9313 387.962 11.8324 387.97 11.7342V1.44079C387.952 1.34019 387.957 1.23639 387.986 1.13847C388.015 1.04056 388.067 0.951531 388.137 0.879103C388.207 0.806674 388.293 0.75306 388.388 0.722975C388.482 0.69289 388.583 0.687252 388.68 0.706515C388.775 0.697186 388.871 0.707741 388.962 0.737561C389.053 0.767381 389.137 0.815861 389.209 0.880081C389.272 0.9574 389.319 1.04678 389.347 1.14304C389.376 1.23929 389.386 1.34049 389.377 1.44079V11.7342C389.385 11.8324 389.375 11.9313 389.346 12.0252C389.317 12.1192 389.271 12.2063 389.209 12.2816C389.137 12.3458 389.053 12.3943 388.962 12.4241C388.871 12.4539 388.775 12.4645 388.68 12.4551Z" fill="#A1EBE4"/>
<path d="M396.255 12.4553C396.16 12.4691 396.065 12.4599 395.975 12.4283C395.885 12.3967 395.803 12.3437 395.737 12.2736C395.67 12.2034 395.62 12.1181 395.591 12.0244C395.563 11.9308 395.556 11.8314 395.571 11.7344C395.57 11.6369 395.592 11.5408 395.635 11.454C395.694 11.3321 395.763 11.2159 395.842 11.1069L402.577 1.97498V2.14854H398.1C397.812 2.13442 397.525 2.18924 397.261 2.30874C397.16 2.3669 397.072 2.44531 397.001 2.53931C396.93 2.63331 396.878 2.74102 396.848 2.85613C396.812 3.04501 396.727 3.22031 396.603 3.36346C396.536 3.42764 396.456 3.47631 396.369 3.50623C396.283 3.53615 396.191 3.54666 396.1 3.53703C396.001 3.54305 395.902 3.52841 395.809 3.494C395.716 3.4596 395.63 3.40613 395.558 3.33678C395.491 3.26263 395.444 3.17262 395.419 3.0748C395.394 2.97698 395.393 2.87436 395.416 2.77603C395.513 2.16509 395.825 1.61315 396.293 1.22734C396.821 0.846156 397.457 0.658221 398.1 0.693317H403.713C403.808 0.677787 403.906 0.685609 403.998 0.716133C404.09 0.746657 404.174 0.799017 404.243 0.869083C404.312 0.939149 404.364 1.02495 404.395 1.11961C404.427 1.21428 404.436 1.3152 404.423 1.41427C404.419 1.51973 404.397 1.62361 404.358 1.72131C404.302 1.84894 404.233 1.96985 404.152 2.0818L397.493 11.0668H402.423C402.719 11.0832 403.015 11.0283 403.287 10.9066C403.389 10.8504 403.479 10.7726 403.55 10.6783C403.621 10.584 403.672 10.4753 403.7 10.3592C403.739 10.1714 403.823 9.99681 403.945 9.8519C404.014 9.78975 404.093 9.7424 404.18 9.7126C404.266 9.6828 404.358 9.67117 404.448 9.67838C404.547 9.67235 404.646 9.68695 404.739 9.72136C404.832 9.75577 404.918 9.80927 404.99 9.87863C405.057 9.95278 405.105 10.0427 405.129 10.1406C405.154 10.2384 405.155 10.341 405.132 10.4393C405.034 11.0841 404.695 11.6633 404.188 12.0526C403.682 12.4419 403.048 12.6104 402.423 12.522L396.255 12.4553Z" fill="#A1EBE4"/>
<path d="M411.906 12.4553C411.811 12.4708 411.713 12.463 411.621 12.4325C411.529 12.402 411.445 12.3496 411.376 12.2795C411.307 12.2095 411.255 12.1237 411.224 12.029C411.193 11.9344 411.184 11.8334 411.197 11.7344V1.41427C411.184 1.3152 411.193 1.21428 411.224 1.11961C411.255 1.02495 411.307 0.939149 411.376 0.869083C411.445 0.799017 411.529 0.746657 411.621 0.716133C411.713 0.685609 411.811 0.677787 411.906 0.693317H417.907C418.077 0.717214 418.233 0.80411 418.346 0.937898C418.459 1.07169 418.521 1.24332 418.521 1.42095C418.521 1.59858 418.459 1.77017 418.346 1.90396C418.233 2.03775 418.077 2.12464 417.907 2.14854H412.616V5.79331H415.945C416.046 5.77921 416.148 5.78748 416.245 5.81759C416.342 5.8477 416.431 5.89893 416.508 5.96785C416.584 6.03677 416.645 6.12181 416.687 6.2172C416.729 6.31259 416.751 6.41613 416.751 6.5209C416.751 6.62567 416.729 6.72925 416.687 6.82464C416.645 6.92003 416.584 7.00502 416.508 7.07395C416.431 7.14287 416.342 7.1941 416.245 7.22421C416.148 7.25432 416.046 7.26263 415.945 7.24853H412.616V11.0001H417.907C418.077 11.024 418.233 11.1109 418.346 11.2447C418.459 11.3785 418.521 11.5501 418.521 11.7277C418.521 11.9054 418.459 12.0769 418.346 12.2107C418.233 12.3445 418.077 12.4314 417.907 12.4553H411.906Z" fill="#A1EBE4"/>
<path d="M425.417 12.455C425.321 12.4705 425.224 12.4627 425.132 12.4322C425.039 12.4016 424.956 12.3493 424.887 12.2792C424.818 12.2092 424.765 12.1234 424.734 12.0287C424.703 11.934 424.694 11.8331 424.707 11.734V1.41395C424.694 1.31488 424.703 1.21395 424.734 1.11929C424.765 1.02463 424.818 0.938828 424.887 0.868761C424.956 0.798695 425.039 0.746335 425.132 0.715811C425.224 0.685287 425.321 0.677466 425.417 0.692995H429.52C430.101 0.59356 430.696 0.638848 431.257 0.825085C431.818 1.01132 432.327 1.33312 432.743 1.76385C433.16 2.19458 433.471 2.72181 433.651 3.30178C433.831 3.88175 433.875 4.49775 433.778 5.09872V8.04926C433.875 8.65023 433.831 9.26623 433.651 9.8462C433.471 10.4262 433.16 10.9534 432.743 11.3841C432.327 11.8149 431.818 12.1367 431.257 12.3229C430.696 12.5091 430.101 12.5544 429.52 12.455H425.417ZM426.114 10.9998H429.52C430.095 11.0207 430.668 10.9301 431.211 10.7327C431.412 10.6501 431.595 10.5258 431.748 10.3674C431.901 10.209 432.021 10.0198 432.101 9.81153C432.302 9.24808 432.394 8.64938 432.372 8.04926V5.09872C432.393 4.50734 432.301 3.91743 432.101 3.36314C432.021 3.15487 431.901 2.96571 431.748 2.80728C431.595 2.64886 431.412 2.52452 431.211 2.44194C430.671 2.23282 430.096 2.13751 429.52 2.16158H426.178L426.114 10.9998Z" fill="#A1EBE4"/>
<path d="M0.107049 30.7987C0.0575997 30.731 0.0240293 30.6524 0.00898416 30.569C-0.00606103 30.4856 -0.00216947 30.3998 0.0203549 30.3182C0.0428793 30.2367 0.0834144 30.1616 0.138769 30.099C0.194123 30.0364 0.262782 29.9881 0.339318 29.9576L4.81694 27.3943V27.8749L0.365121 25.3249C0.294797 25.2855 0.232673 25.2321 0.182293 25.1678C0.131912 25.1035 0.0942652 25.0296 0.0714989 24.9502C0.0487325 24.8709 0.0412906 24.7877 0.0496039 24.7054C0.0579173 24.623 0.0818277 24.5432 0.119955 24.4705C0.158083 24.3977 0.209685 24.3334 0.271822 24.2813C0.333959 24.2292 0.405411 24.1902 0.482097 24.1667C0.558784 24.1431 0.639206 24.1354 0.718767 24.144C0.798329 24.1526 0.875475 24.1774 0.945799 24.2168L5.6815 26.887C5.80194 26.946 5.90426 27.0384 5.97713 27.1538C6.05 27.2693 6.09059 27.4033 6.09442 27.5411C6.09999 27.6932 6.06426 27.8439 5.99128 27.9761C5.91829 28.1082 5.81097 28.2166 5.6815 28.2888L0.945799 31.0391C0.877471 31.0877 0.79966 31.1203 0.717842 31.1346C0.636023 31.1488 0.55218 31.1443 0.472223 31.1214C0.392266 31.0984 0.318137 31.0577 0.255046 31.002C0.191955 30.9462 0.141436 30.8768 0.107049 30.7987Z" fill="#A1EBE4"/>
<path d="M13.7077 30.7987C13.6611 30.7293 13.6303 30.65 13.6175 30.5666C13.6047 30.4831 13.6104 30.3978 13.6339 30.3169C13.6575 30.2361 13.6984 30.1617 13.7537 30.0995C13.8089 30.0373 13.877 29.9888 13.9529 29.9577L18.4305 27.3542V27.8349L14.0174 25.2849C13.8754 25.2052 13.7697 25.0704 13.7238 24.9102C13.6778 24.7499 13.6952 24.5774 13.7722 24.4304C13.8492 24.2835 13.9795 24.1742 14.1344 24.1267C14.2892 24.0791 14.456 24.0971 14.5981 24.1768L19.3338 26.8469C19.4561 26.9034 19.5601 26.9951 19.6333 27.1111C19.7065 27.2272 19.7459 27.3625 19.7467 27.5011C19.7554 27.6537 19.721 27.8057 19.6477 27.9385C19.5744 28.0712 19.4653 28.1791 19.3338 28.2488L14.5981 30.999C14.5313 31.0592 14.4519 31.1024 14.3662 31.1252C14.2805 31.148 14.1908 31.1498 14.1043 31.1303C14.0177 31.1109 13.9368 31.0708 13.868 31.0132C13.7991 30.9556 13.7442 30.8822 13.7077 30.7987Z" fill="#A1EBE4"/>
<path d="M29.373 33.2819C29.0633 33.2819 28.8439 33.0816 28.7149 32.6544L25.618 22.4945C25.5852 22.3831 25.5764 22.2657 25.592 22.1504C25.6076 22.0351 25.6472 21.9247 25.7083 21.8269C25.7684 21.7245 25.854 21.6408 25.9562 21.5844C26.0583 21.528 26.1733 21.5011 26.289 21.5065C26.4284 21.5075 26.564 21.5542 26.6761 21.6401C26.8064 21.7424 26.8977 21.8889 26.9341 22.0539L29.6697 31.0657H29.3084L31.8892 22.1474C31.9349 21.9546 32.0504 21.7873 32.2118 21.6801C32.3419 21.578 32.5002 21.5218 32.6634 21.5199C32.8387 21.5214 33.0095 21.5772 33.1538 21.6801C33.2337 21.7317 33.3025 21.7999 33.3558 21.8803C33.4091 21.9607 33.4458 22.0516 33.4635 22.1474L36.0442 31.0657H35.67L38.4056 22.0539C38.4555 21.8918 38.5496 21.7481 38.6766 21.6401C38.7863 21.5608 38.9171 21.5189 39.0508 21.5199C39.1637 21.5143 39.2761 21.5383 39.3776 21.5897C39.4791 21.641 39.5664 21.718 39.6315 21.8136C39.7023 21.9092 39.7488 22.0215 39.7668 22.1405C39.7849 22.2594 39.7738 22.3811 39.7347 22.4945L36.6249 32.6544C36.5943 32.8323 36.5035 32.9932 36.3687 33.1081C36.2339 33.2231 36.064 33.2847 35.8894 33.2819C35.7126 33.2879 35.5395 33.2278 35.4021 33.1126C35.2646 32.9973 35.1719 32.8346 35.141 32.6544L32.4441 23.616H32.8183L30.0956 32.6544C30.057 32.8345 29.9723 33.0005 29.8504 33.135C29.7117 33.238 29.5435 33.2897 29.373 33.2819Z" fill="#A1EBE4"/>
<path d="M46.0447 33.2824C45.9502 33.2956 45.854 33.2861 45.7636 33.2546C45.6732 33.223 45.5911 33.1703 45.5237 33.1005C45.4563 33.0307 45.4053 32.9458 45.3748 32.8523C45.3443 32.7588 45.3351 32.6593 45.3479 32.5615V22.2414C45.3351 22.1436 45.3443 22.0441 45.3748 21.9506C45.4053 21.8571 45.4563 21.7721 45.5237 21.7023C45.5911 21.6326 45.6732 21.5799 45.7636 21.5483C45.854 21.5167 45.9502 21.5072 46.0447 21.5204H52.0708C52.2409 21.5443 52.3969 21.6312 52.5098 21.765C52.6228 21.8988 52.685 22.0704 52.685 22.248C52.685 22.4257 52.6228 22.5973 52.5098 22.7311C52.3969 22.8649 52.2409 22.9518 52.0708 22.9757H46.7544V26.6204H50.1481C50.2484 26.6063 50.3505 26.6146 50.4475 26.6447C50.5445 26.6748 50.6342 26.726 50.7104 26.795C50.7867 26.8639 50.8478 26.9489 50.8897 27.0443C50.9316 27.1397 50.9533 27.2432 50.9533 27.348C50.9533 27.4528 50.9316 27.5564 50.8897 27.6518C50.8478 27.7471 50.7867 27.8321 50.7104 27.9011C50.6342 27.97 50.5445 28.0212 50.4475 28.0513C50.3505 28.0814 50.2484 28.0897 50.1481 28.0756H46.8189V31.8272H52.1353C52.3054 31.8511 52.4614 31.938 52.5743 32.0718C52.6873 32.2056 52.7495 32.3772 52.7495 32.5548C52.7495 32.7324 52.6873 32.9041 52.5743 33.0378C52.4614 33.1716 52.3054 33.2585 52.1353 33.2824H46.0447Z" fill="#A1EBE4"/>
<path d="M59.5549 33.282C59.4594 33.2976 59.3617 33.2897 59.2697 33.2592C59.1776 33.2287 59.0938 33.1763 59.0248 33.1062C58.9558 33.0361 58.9037 32.9504 58.8725 32.8557C58.8413 32.7611 58.832 32.6601 58.8452 32.5611V22.241C58.8683 22.065 58.9523 21.9035 59.0816 21.7867C59.2109 21.6698 59.3768 21.6055 59.5485 21.6055C59.7202 21.6055 59.886 21.6698 60.0153 21.7867C60.1446 21.9035 60.2286 22.065 60.2517 22.241V31.8268H64.8971C64.9974 31.8127 65.0995 31.821 65.1965 31.8511C65.2935 31.8812 65.3832 31.9324 65.4594 32.0013C65.5357 32.0703 65.5968 32.1553 65.6387 32.2507C65.6806 32.3461 65.7023 32.4496 65.7023 32.5544C65.7023 32.6592 65.6806 32.7627 65.6387 32.8581C65.5968 32.9535 65.5357 33.0385 65.4594 33.1074C65.3832 33.1764 65.2935 33.2276 65.1965 33.2577C65.0995 33.2878 64.9974 33.2961 64.8971 33.282H59.5549Z" fill="#A1EBE4"/>
<path d="M74.33 33.2823C73.8183 33.3672 73.2944 33.3253 72.8013 33.16C72.3083 32.9948 71.8601 32.711 71.4937 32.3318C71.1272 31.9526 70.8529 31.489 70.6932 30.9788C70.5335 30.4687 70.493 29.9267 70.575 29.3972V25.392C70.5306 24.8619 70.5888 24.328 70.7461 23.8214C70.9034 23.3148 71.1567 22.8457 71.4912 22.4415C71.8757 22.0947 72.3248 21.8328 72.8108 21.6721C73.2968 21.5114 73.8094 21.4552 74.3171 21.5069H76.343C77.1922 21.4505 78.0357 21.6851 78.7431 22.1745C79.0374 22.4399 79.2754 22.7656 79.4419 23.131C79.6085 23.4963 79.7001 23.8934 79.7109 24.2972C79.7332 24.3946 79.7332 24.4961 79.7108 24.5935C79.6883 24.6909 79.6442 24.7814 79.5819 24.858C79.4302 24.9883 79.2368 25.055 79.0399 25.0449C78.6141 25.0449 78.3689 24.8046 78.3044 24.3106C78.3029 24.1022 78.2543 23.8971 78.1624 23.7116C78.0705 23.5261 77.938 23.3655 77.7753 23.2426C77.3293 23.0229 76.8358 22.9263 76.343 22.9622H74.3171C73.8395 22.9429 73.3627 23.0154 72.9106 23.1758C72.7497 23.2444 72.6038 23.3461 72.4819 23.4746C72.3599 23.603 72.2643 23.7557 72.2009 23.9234C72.0321 24.3925 71.9575 24.8922 71.9815 25.392V29.3972C71.9571 29.8928 72.0317 30.3882 72.2009 30.8525C72.2658 31.0214 72.3633 31.1749 72.4876 31.3034C72.6119 31.432 72.7602 31.533 72.9235 31.6001C73.3722 31.7751 73.8511 31.8524 74.33 31.8271H76.343C76.8358 31.863 77.3293 31.7664 77.7753 31.5467C77.938 31.4237 78.0705 31.2631 78.1624 31.0776C78.2543 30.8922 78.3029 30.687 78.3044 30.4786C78.3689 29.9847 78.6141 29.7444 79.0399 29.7444C79.2368 29.7343 79.4302 29.8009 79.5819 29.9313C79.6442 30.0078 79.6883 30.0984 79.7108 30.1958C79.7332 30.2931 79.7332 30.3946 79.7109 30.492C79.7033 30.8964 79.6131 31.2946 79.4463 31.6604C79.2795 32.0262 79.0399 32.3515 78.7431 32.6148C78.0391 33.1117 77.193 33.347 76.343 33.2823H74.33Z" fill="#A1EBE4"/>
<path d="M89.3886 33.2825C88.8769 33.3674 88.353 33.3255 87.8599 33.1603C87.3669 32.9951 86.9187 32.7112 86.5523 32.332C86.1858 31.9529 85.9115 31.4892 85.7518 30.9791C85.5921 30.469 85.5516 29.9269 85.6336 29.3975V25.3923C85.591 24.8612 85.6512 24.3268 85.8107 23.8201C85.9703 23.3135 86.2259 22.8449 86.5627 22.4418C86.9499 22.0999 87.3996 21.8422 87.8851 21.6839C88.3706 21.5256 88.8819 21.4701 89.3886 21.5206H91.4403C91.953 21.4333 92.4784 21.4734 92.9732 21.6376C93.4679 21.8017 93.9179 22.0852 94.2859 22.4647C94.654 22.8442 94.9295 23.3087 95.0899 23.8201C95.2503 24.3314 95.2908 24.8749 95.2082 25.4056V29.4108C95.2908 29.9416 95.2503 30.485 95.0899 30.9964C94.9295 31.5077 94.654 31.9723 94.2859 32.3517C93.9179 32.7312 93.4679 33.0147 92.9732 33.1789C92.4784 33.3431 91.953 33.3832 91.4403 33.2959L89.3886 33.2825ZM89.3886 31.8273H91.4403C91.9234 31.8522 92.4064 31.7749 92.8597 31.6003C93.0231 31.5332 93.1714 31.4323 93.2956 31.3037C93.4199 31.1751 93.5175 31.0217 93.5824 30.8527C93.7398 30.3856 93.8099 29.8917 93.7888 29.3975V25.3923C93.8101 24.9024 93.74 24.4128 93.5824 23.9504C93.5189 23.779 93.422 23.6229 93.2977 23.492C93.1734 23.361 93.0243 23.258 92.8597 23.1894C92.4044 23.0228 91.923 22.9458 91.4403 22.9624H89.4273C88.9538 22.9404 88.4807 23.0129 88.0337 23.176C87.868 23.2416 87.7172 23.3419 87.5906 23.4706C87.4641 23.5992 87.3645 23.7534 87.2982 23.9237C87.1345 24.3894 87.06 24.8837 87.0788 25.3789V29.3841C87.061 29.8793 87.1354 30.3733 87.2982 30.8393C87.3631 31.0083 87.4607 31.1618 87.5849 31.2903C87.7092 31.4189 87.8575 31.5199 88.0208 31.587C88.4569 31.7598 88.9218 31.8415 89.3886 31.8273Z" fill="#A1EBE4"/>
<path d="M102.344 33.2825C102.248 33.298 102.151 33.2902 102.059 33.2597C101.967 33.2291 101.883 33.1767 101.814 33.1067C101.745 33.0366 101.693 32.9508 101.662 32.8562C101.63 32.7615 101.621 32.6606 101.634 32.5615V22.2414C101.621 22.1424 101.63 22.0414 101.662 21.9468C101.693 21.8521 101.745 21.7663 101.814 21.6962C101.883 21.6262 101.967 21.5738 102.059 21.5433C102.151 21.5127 102.248 21.5049 102.344 21.5205C102.501 21.5245 102.654 21.5694 102.789 21.6511C102.925 21.7328 103.038 21.8486 103.118 21.9878L107.08 28.1424H106.77L110.796 22.0545C110.883 21.9035 111.008 21.78 111.159 21.6976C111.309 21.6152 111.478 21.577 111.648 21.5872C112.022 21.5872 112.215 21.8275 112.215 22.3082V32.6283C112.192 32.8043 112.108 32.9657 111.979 33.0825C111.85 33.1994 111.684 33.2638 111.512 33.2638C111.34 33.2638 111.175 33.1994 111.045 33.0825C110.916 32.9657 110.832 32.8043 110.809 32.6283V23.7768L111.248 23.9236L107.725 29.2639C107.632 29.4121 107.503 29.533 107.352 29.6148C107.2 29.6967 107.031 29.7368 106.86 29.7312C106.718 29.7168 106.582 29.6667 106.462 29.5852C106.343 29.5038 106.245 29.3935 106.176 29.2639L102.654 23.9236L103.08 24.0437V32.6283C103.083 32.7247 103.066 32.8207 103.028 32.9091C102.991 32.9975 102.935 33.0762 102.864 33.1391C102.794 33.2019 102.71 33.2475 102.62 33.2723C102.53 33.2972 102.436 33.3006 102.344 33.2825Z" fill="#A1EBE4"/>
<path d="M119.829 33.2825C119.733 33.298 119.636 33.2902 119.544 33.2597C119.452 33.2291 119.368 33.1767 119.299 33.1067C119.23 33.0366 119.178 32.9508 119.146 32.8562C119.115 32.7615 119.106 32.6606 119.119 32.5615V22.2414C119.106 22.1424 119.115 22.0414 119.146 21.9468C119.178 21.8521 119.23 21.7663 119.299 21.6962C119.368 21.6262 119.452 21.5738 119.544 21.5433C119.636 21.5127 119.733 21.5049 119.829 21.5205H125.842C125.942 21.5064 126.044 21.5146 126.141 21.5448C126.238 21.5749 126.328 21.6261 126.404 21.695C126.481 21.7639 126.542 21.849 126.584 21.9444C126.626 22.0398 126.647 22.1433 126.647 22.2481C126.647 22.3528 126.626 22.4564 126.584 22.5518C126.542 22.6472 126.481 22.7322 126.404 22.8011C126.328 22.87 126.238 22.9213 126.141 22.9514C126.044 22.9815 125.942 22.9898 125.842 22.9757H120.474V26.6205H123.816C123.916 26.6064 124.019 26.6146 124.116 26.6447C124.213 26.6749 124.302 26.7261 124.378 26.795C124.455 26.8639 124.516 26.949 124.558 27.0444C124.6 27.1397 124.621 27.2433 124.621 27.3481C124.621 27.4528 124.6 27.5564 124.558 27.6518C124.516 27.7472 124.455 27.8322 124.378 27.9011C124.302 27.97 124.213 28.0213 124.116 28.0514C124.019 28.0815 123.916 28.0898 123.816 28.0757H120.474V31.8272H125.79C125.891 31.8131 125.993 31.8214 126.09 31.8515C126.187 31.8816 126.276 31.9329 126.353 32.0018C126.429 32.0707 126.49 32.1557 126.532 32.2511C126.574 32.3465 126.596 32.4501 126.596 32.5548C126.596 32.6596 126.574 32.7632 126.532 32.8586C126.49 32.954 126.429 33.039 126.353 33.1079C126.276 33.1768 126.187 33.228 126.09 33.2581C125.993 33.2883 125.891 33.2966 125.79 33.2825H119.829Z" fill="#A1EBE4"/>
<path d="M141.933 33.2825C141.837 33.298 141.74 33.2902 141.648 33.2597C141.556 33.2291 141.472 33.1767 141.403 33.1067C141.334 33.0366 141.282 32.9508 141.25 32.8562C141.219 32.7615 141.21 32.6606 141.223 32.5615V22.2414C141.21 22.1424 141.219 22.0414 141.25 21.9468C141.282 21.8521 141.334 21.7663 141.403 21.6962C141.472 21.6262 141.556 21.5738 141.648 21.5433C141.74 21.5127 141.837 21.5049 141.933 21.5205H146.307C146.678 21.4951 147.05 21.5457 147.403 21.6694C147.755 21.7931 148.08 21.9875 148.359 22.2414C148.609 22.5201 148.802 22.8483 148.926 23.2063C149.05 23.5642 149.103 23.9445 149.082 24.3241V24.8047C149.099 25.142 149.043 25.479 148.918 25.7909C148.793 26.1029 148.602 26.3818 148.359 26.6071C148.808 26.9073 149.167 27.3315 149.395 27.8317C149.623 28.3319 149.711 28.8881 149.649 29.4374V30.0649C149.68 30.5069 149.623 30.9507 149.481 31.3687C149.338 31.7867 149.115 32.17 148.823 32.4948C148.504 32.7857 148.132 33.0085 147.729 33.1505C147.326 33.2926 146.9 33.351 146.475 33.3225L141.933 33.2825ZM142.643 26.1932H146.617C146.777 26.2127 146.939 26.1856 147.085 26.1148C147.231 26.044 147.355 25.9325 147.443 25.7927C147.604 25.4911 147.68 25.1488 147.662 24.8047V24.3241C147.682 24.1368 147.667 23.9471 147.616 23.7661C147.565 23.5851 147.48 23.4163 147.365 23.2694C147.058 23.0436 146.683 22.9394 146.307 22.9757H142.643V26.1932ZM142.643 31.8272H146.514C146.754 31.8809 147.004 31.8718 147.241 31.8007C147.477 31.7296 147.693 31.5988 147.868 31.42C148.043 31.2412 148.173 31.0201 148.245 30.7765C148.317 30.533 148.33 30.2747 148.282 30.0249V29.4374C148.331 29.1881 148.319 28.9299 148.247 28.6865C148.175 28.4431 148.045 28.2224 147.869 28.0444C147.693 27.8664 147.477 27.7369 147.24 27.6677C147.003 27.5986 146.754 27.5919 146.514 27.6485H142.643V31.8272Z" fill="#A1EBE4"/>
<path d="M155.366 33.2158C155.271 33.1938 155.182 33.1489 155.107 33.0848C155.032 33.0207 154.973 32.9392 154.934 32.8469C154.895 32.7545 154.877 32.654 154.883 32.5534C154.889 32.4528 154.917 32.355 154.966 32.2679L158.953 22.0947C159.012 21.9247 159.121 21.7781 159.265 21.6752C159.408 21.5723 159.579 21.5183 159.753 21.5206C159.92 21.52 160.082 21.5758 160.215 21.6794C160.347 21.7831 160.444 21.929 160.489 22.0947L164.554 32.2679C164.603 32.3541 164.631 32.4509 164.638 32.5507C164.644 32.6505 164.628 32.7505 164.59 32.8426C164.553 32.9347 164.495 33.0165 164.421 33.0813C164.348 33.1461 164.26 33.1921 164.166 33.2158C164.082 33.2637 163.988 33.2913 163.891 33.2966C163.795 33.3018 163.698 33.2846 163.609 33.2461C163.52 33.2077 163.44 33.149 163.376 33.0745C163.311 32.9999 163.264 32.9113 163.237 32.8153L162.334 30.5456H157.108L156.243 32.8153C156.221 32.9082 156.179 32.9947 156.119 33.068C156.059 33.1413 155.984 33.1995 155.9 33.2382C155.815 33.2768 155.723 33.2949 155.63 33.291C155.538 33.2872 155.447 33.2614 155.366 33.2158ZM157.689 29.0904H161.779L159.702 23.8302L157.689 29.0904Z" fill="#A1EBE4"/>
<path d="M173.651 33.2823C173.139 33.3672 172.615 33.3253 172.122 33.16C171.629 32.9948 171.181 32.711 170.814 32.3318C170.448 31.9526 170.174 31.489 170.014 30.9788C169.854 30.4687 169.814 29.9267 169.896 29.3972V25.392C169.851 24.8619 169.91 24.328 170.067 23.8214C170.224 23.3148 170.477 22.8457 170.812 22.4415C171.197 22.0947 171.646 21.8328 172.132 21.6721C172.618 21.5114 173.13 21.4552 173.638 21.5069H175.664C176.517 21.4475 177.366 21.6822 178.077 22.1745C178.371 22.4399 178.609 22.7656 178.776 23.131C178.942 23.4963 179.034 23.8934 179.045 24.2972C179.065 24.3957 179.063 24.4977 179.038 24.5952C179.014 24.6926 178.967 24.7826 178.903 24.858C178.831 24.9239 178.747 24.9744 178.656 25.0065C178.565 25.0386 178.469 25.0516 178.374 25.0449C177.948 25.0449 177.703 24.8046 177.625 24.3106C177.624 24.1022 177.575 23.8971 177.483 23.7116C177.391 23.5261 177.259 23.3655 177.096 23.2426C176.65 23.0229 176.157 22.9263 175.664 22.9622H173.638C173.164 22.9401 172.691 23.0127 172.244 23.1758C172.081 23.2429 171.933 23.3439 171.808 23.4724C171.684 23.601 171.587 23.7545 171.522 23.9234C171.361 24.3945 171.286 24.8926 171.302 25.392V29.3972C171.284 29.8924 171.359 30.3865 171.522 30.8525C171.587 31.0214 171.684 31.1749 171.808 31.3034C171.933 31.432 172.081 31.533 172.244 31.6001C172.693 31.7751 173.172 31.8524 173.651 31.8271H175.664C176.157 31.863 176.65 31.7664 177.096 31.5467C177.259 31.4237 177.391 31.2631 177.483 31.0776C177.575 30.8922 177.624 30.687 177.625 30.4786C177.703 29.9847 177.948 29.7444 178.374 29.7444C178.469 29.7376 178.565 29.7507 178.656 29.7827C178.747 29.8148 178.831 29.8653 178.903 29.9313C178.967 30.0066 179.014 30.0967 179.038 30.1941C179.063 30.2915 179.065 30.3936 179.045 30.492C179.037 30.8964 178.947 31.2946 178.78 31.6604C178.613 32.0262 178.374 32.3515 178.077 32.6148C177.366 33.107 176.517 33.3418 175.664 33.2823H173.651Z" fill="#A1EBE4"/>
<path d="M186.064 33.2824C185.97 33.2956 185.874 33.2861 185.783 33.2545C185.693 33.223 185.611 33.1703 185.543 33.1005C185.476 33.0307 185.425 32.9458 185.394 32.8523C185.364 32.7588 185.355 32.6592 185.367 32.5614V22.2414C185.391 22.0653 185.474 21.9039 185.604 21.7871C185.733 21.6702 185.899 21.6058 186.071 21.6058C186.242 21.6058 186.408 21.6702 186.538 21.7871C186.667 21.9039 186.751 22.0653 186.774 22.2414V26.3667L191.045 21.8008C191.173 21.6627 191.35 21.583 191.535 21.5792C191.72 21.5755 191.899 21.648 192.032 21.7808C192.166 21.9135 192.243 22.0957 192.246 22.2873C192.25 22.4788 192.18 22.664 192.052 22.8021L188.49 26.607L192.697 31.9473C192.764 32.0175 192.816 32.1023 192.847 32.1956C192.879 32.2888 192.891 32.3883 192.881 32.4866C192.871 32.585 192.84 32.6799 192.79 32.7644C192.741 32.8489 192.673 32.921 192.594 32.9753C192.527 33.0474 192.445 33.1027 192.355 33.1371C192.264 33.1714 192.167 33.1839 192.071 33.1736C191.976 33.1633 191.883 33.1305 191.802 33.0776C191.72 33.0247 191.651 32.9532 191.6 32.8685L187.497 27.6083L186.774 28.396V32.4947C186.799 32.5986 186.799 32.7073 186.773 32.8111C186.748 32.9148 186.697 33.0102 186.626 33.0885C186.556 33.1669 186.467 33.2257 186.369 33.2596C186.271 33.2934 186.166 33.3013 186.064 33.2824Z" fill="#A1EBE4"/>
<path d="M198.181 35.4847C198.014 35.4962 197.849 35.444 197.716 35.3379C197.659 35.2802 197.617 35.208 197.594 35.1285C197.571 35.0489 197.569 34.9647 197.587 34.8839L198.065 32.107C198.065 31.6931 198.297 31.4795 198.736 31.4795H199.136C199.562 31.4795 199.768 31.7065 199.768 32.1604V32.5876C199.781 32.685 199.781 32.7839 199.768 32.8813L199.652 33.1617L198.774 35.1109C198.723 35.2275 198.639 35.3254 198.533 35.3921C198.427 35.4587 198.305 35.491 198.181 35.4847Z" fill="#A1EBE4"/>
<path d="M215.678 33.2825C215.583 33.298 215.485 33.2902 215.393 33.2597C215.301 33.2291 215.217 33.1767 215.148 33.1067C215.079 33.0366 215.027 32.9508 214.996 32.8562C214.965 32.7615 214.955 32.6606 214.969 32.5615V22.2414C214.955 22.1424 214.965 22.0414 214.996 21.9468C215.027 21.8521 215.079 21.7663 215.148 21.6962C215.217 21.6262 215.301 21.5738 215.393 21.5433C215.485 21.5127 215.583 21.5049 215.678 21.5205C215.833 21.5242 215.985 21.5692 216.118 21.651C216.252 21.7329 216.362 21.8488 216.44 21.9878L220.401 28.1424H220.104L224.092 22.0545C224.183 21.9044 224.311 21.782 224.463 21.6999C224.615 21.6178 224.785 21.5789 224.956 21.5872C225.331 21.5872 225.524 21.8275 225.524 22.3082V32.6283C225.501 32.8043 225.417 32.9657 225.288 33.0825C225.158 33.1994 224.992 33.2638 224.821 33.2638C224.649 33.2638 224.483 33.1994 224.354 33.0825C224.225 32.9657 224.141 32.8043 224.118 32.6283V23.7768L224.543 23.9236L221.021 29.2639C220.929 29.4102 220.802 29.5298 220.653 29.6115C220.504 29.6933 220.338 29.7345 220.169 29.7312C220.027 29.7168 219.89 29.6667 219.771 29.5852C219.652 29.5038 219.554 29.3935 219.485 29.2639L215.962 23.9236L216.375 24.0437V32.6283C216.378 32.7207 216.361 32.8127 216.326 32.8978C216.291 32.9829 216.239 33.0591 216.172 33.1212C216.106 33.1834 216.028 33.23 215.942 33.2578C215.857 33.2856 215.767 33.2941 215.678 33.2825Z" fill="#A1EBE4"/>
<path d="M233.098 33.2823C233.004 33.2956 232.908 33.286 232.817 33.2545C232.727 33.2229 232.645 33.1702 232.577 33.1004C232.51 33.0307 232.459 32.9457 232.429 32.8522C232.398 32.7587 232.389 32.6592 232.402 32.5614V22.2413C232.389 22.1435 232.398 22.044 232.429 21.9505C232.459 21.857 232.51 21.772 232.577 21.7023C232.645 21.6325 232.727 21.5798 232.817 21.5482C232.908 21.5167 233.004 21.5071 233.098 21.5204H239.125C239.225 21.5063 239.327 21.5145 239.424 21.5446C239.521 21.5747 239.611 21.626 239.687 21.6949C239.763 21.7638 239.824 21.8489 239.866 21.9442C239.908 22.0396 239.93 22.1432 239.93 22.2479C239.93 22.3527 239.908 22.4563 239.866 22.5517C239.824 22.6471 239.763 22.7321 239.687 22.801C239.611 22.8699 239.521 22.9212 239.424 22.9513C239.327 22.9814 239.225 22.9897 239.125 22.9756H233.808V26.6203H237.15C237.32 26.6442 237.476 26.7311 237.589 26.8649C237.702 26.9987 237.764 27.1703 237.764 27.3479C237.764 27.5256 237.702 27.6972 237.589 27.831C237.476 27.9648 237.32 28.0517 237.15 28.0756H233.808V31.8271H239.125C239.225 31.813 239.327 31.8213 239.424 31.8514C239.521 31.8815 239.611 31.9327 239.687 32.0017C239.763 32.0706 239.824 32.1556 239.866 32.251C239.908 32.3464 239.93 32.4499 239.93 32.5547C239.93 32.6595 239.908 32.7631 239.866 32.8585C239.824 32.9538 239.763 33.0388 239.687 33.1078C239.611 33.1767 239.521 33.2279 239.424 33.258C239.327 33.2881 239.225 33.2964 239.125 33.2823H233.098Z" fill="#A1EBE4"/>
<path d="M246.609 33.2823C246.514 33.2933 246.418 33.2835 246.327 33.2536C246.235 33.2237 246.151 33.1743 246.08 33.1088C246.016 33.0345 245.967 32.9478 245.936 32.8539C245.905 32.7599 245.893 32.6604 245.899 32.5614V22.268C245.892 22.1668 245.904 22.065 245.935 21.9687C245.966 21.8724 246.015 21.7835 246.08 21.7072C246.235 21.594 246.419 21.5332 246.609 21.5332C246.798 21.5332 246.983 21.594 247.138 21.7072C247.2 21.7845 247.247 21.8739 247.276 21.9702C247.305 22.0664 247.315 22.1677 247.306 22.268V32.5614C247.314 32.6595 247.303 32.7585 247.275 32.8524C247.246 32.9463 247.199 33.0335 247.138 33.1088C247.066 33.1743 246.982 33.2237 246.891 33.2536C246.8 33.2835 246.704 33.2933 246.609 33.2823Z" fill="#A1EBE4"/>
<path d="M257.539 33.2823C257.027 33.3672 256.503 33.3253 256.01 33.16C255.517 32.9948 255.069 32.711 254.702 32.3318C254.336 31.9526 254.061 31.489 253.902 30.9788C253.742 30.4687 253.701 29.9267 253.783 29.3972V25.392C253.739 24.8619 253.797 24.328 253.955 23.8214C254.112 23.3148 254.365 22.8457 254.7 22.4415C255.084 22.0947 255.533 21.8328 256.019 21.6721C256.505 21.5114 257.018 21.4552 257.526 21.5069H259.552C260.405 21.4475 261.254 21.6822 261.965 22.1745C262.259 22.4399 262.497 22.7656 262.663 23.131C262.83 23.4963 262.921 23.8934 262.932 24.2972C262.953 24.3957 262.951 24.4977 262.926 24.5952C262.901 24.6926 262.855 24.7826 262.79 24.858C262.719 24.9239 262.635 24.9744 262.544 25.0065C262.453 25.0386 262.357 25.0516 262.261 25.0449C261.835 25.0449 261.59 24.8046 261.526 24.3106C261.523 24.1011 261.472 23.8952 261.378 23.7096C261.284 23.5241 261.149 23.3641 260.984 23.2426C260.538 23.0229 260.044 22.9263 259.552 22.9622H257.526C257.052 22.9401 256.579 23.0127 256.132 23.1758C255.969 23.2429 255.82 23.3439 255.696 23.4724C255.572 23.601 255.474 23.7545 255.409 23.9234C255.248 24.3945 255.174 24.8926 255.19 25.392V29.3972C255.172 29.8924 255.247 30.3865 255.409 30.8525C255.474 31.0214 255.572 31.1749 255.696 31.3034C255.82 31.432 255.969 31.533 256.132 31.6001C256.581 31.7736 257.06 31.8509 257.539 31.8271H259.552C260.044 31.863 260.538 31.7664 260.984 31.5467C261.149 31.4252 261.284 31.2652 261.378 31.0796C261.472 30.8941 261.523 30.6882 261.526 30.4786C261.59 29.9847 261.835 29.7444 262.261 29.7444C262.357 29.7376 262.453 29.7507 262.544 29.7827C262.635 29.8148 262.719 29.8653 262.79 29.9313C262.855 30.0066 262.901 30.0967 262.926 30.1941C262.951 30.2915 262.953 30.3936 262.932 30.492C262.925 30.8964 262.834 31.2946 262.668 31.6604C262.501 32.0262 262.261 32.3515 261.965 32.6148C261.254 33.107 260.405 33.3418 259.552 33.2823H257.539Z" fill="#A1EBE4"/>
<path d="M269.952 33.2819C269.768 33.2785 269.593 33.2014 269.463 33.067C269.333 32.9325 269.258 32.7511 269.255 32.561V22.2409C269.258 22.0508 269.333 21.8694 269.463 21.7349C269.593 21.6004 269.768 21.5234 269.952 21.5199C270.043 21.5183 270.134 21.5364 270.219 21.5732C270.303 21.61 270.379 21.6646 270.442 21.7336C270.51 21.7984 270.564 21.8768 270.602 21.964C270.64 22.0512 270.66 22.1454 270.661 22.2409V26.6066H277.5V22.2409C277.502 22.1454 277.522 22.0512 277.56 21.964C277.598 21.8768 277.652 21.7984 277.72 21.7336C277.782 21.6632 277.858 21.6077 277.942 21.5708C278.027 21.5339 278.118 21.5166 278.21 21.5199C278.302 21.5191 278.392 21.5376 278.477 21.5743C278.561 21.611 278.637 21.6653 278.7 21.7336C278.768 21.7984 278.823 21.8768 278.86 21.964C278.898 22.0512 278.918 22.1454 278.92 22.2409V32.561C278.918 32.6565 278.898 32.7507 278.86 32.8379C278.823 32.9251 278.768 33.0035 278.7 33.0683C278.637 33.1366 278.561 33.1908 278.477 33.2275C278.392 33.2643 278.302 33.2828 278.21 33.2819C278.118 33.2853 278.027 33.268 277.942 33.2311C277.858 33.1942 277.782 33.1387 277.72 33.0683C277.652 33.0035 277.598 32.9251 277.56 32.8379C277.522 32.7507 277.502 32.6565 277.5 32.561V28.0618H270.661V32.561C270.66 32.6565 270.64 32.7507 270.602 32.8379C270.564 32.9251 270.51 33.0035 270.442 33.0683C270.379 33.1373 270.303 33.1919 270.219 33.2287C270.134 33.2655 270.043 33.2836 269.952 33.2819Z" fill="#A1EBE4"/>
<path d="M289.462 33.282C288.951 33.3669 288.427 33.325 287.934 33.1597C287.441 32.9945 286.992 32.7107 286.626 32.3315C286.26 31.9524 285.985 31.4887 285.826 30.9786C285.666 30.4684 285.625 29.9264 285.707 29.3969V22.241C285.697 22.0412 285.762 21.8451 285.888 21.6936C286.043 21.5804 286.228 21.5195 286.417 21.5195C286.607 21.5195 286.791 21.5804 286.946 21.6936C287.068 21.8471 287.128 22.043 287.114 22.241V29.3969C287.096 29.8921 287.17 30.3862 287.333 30.8522C287.398 31.0211 287.496 31.1746 287.62 31.3032C287.744 31.4317 287.893 31.5327 288.056 31.5998C288.505 31.7733 288.983 31.8506 289.462 31.8268H291.45C291.929 31.8533 292.408 31.7759 292.856 31.5998C293.022 31.5342 293.173 31.434 293.299 31.3053C293.426 31.1767 293.525 31.0224 293.592 30.8522C293.749 30.385 293.819 29.8912 293.798 29.3969V22.241C293.788 22.0412 293.852 21.8451 293.979 21.6936C294.133 21.5804 294.318 21.5195 294.508 21.5195C294.697 21.5195 294.882 21.5804 295.037 21.6936C295.163 21.8451 295.228 22.0412 295.217 22.241V29.3969C295.3 29.9277 295.259 30.4711 295.099 30.9825C294.939 31.4938 294.663 31.9584 294.295 32.3379C293.927 32.7173 293.477 33.0008 292.982 33.165C292.488 33.3292 291.962 33.3693 291.45 33.282H289.462Z" fill="#A1EBE4"/>
<path d="M302.74 33.2826C302.649 33.2843 302.558 33.2661 302.474 33.2294C302.389 33.1926 302.313 33.1379 302.25 33.069C302.182 33.0041 302.128 32.9257 302.09 32.8385C302.053 32.7514 302.032 32.6572 302.031 32.5617V22.2416C302.032 22.1461 302.053 22.0519 302.09 21.9647C302.128 21.8775 302.182 21.7991 302.25 21.7342C302.313 21.6653 302.389 21.6106 302.474 21.5739C302.558 21.5371 302.649 21.5189 302.74 21.5206C302.924 21.524 303.1 21.6011 303.23 21.7356C303.359 21.87 303.434 22.0514 303.437 22.2416V26.6072H310.289V22.2416C310.293 22.0514 310.367 21.87 310.497 21.7356C310.627 21.6011 310.802 21.524 310.986 21.5206C311.078 21.5189 311.169 21.5371 311.253 21.5739C311.337 21.6106 311.413 21.6653 311.476 21.7342C311.544 21.7991 311.598 21.8775 311.636 21.9647C311.674 22.0519 311.694 22.1461 311.696 22.2416V32.5617C311.694 32.6572 311.674 32.7514 311.636 32.8385C311.598 32.9257 311.544 33.0041 311.476 33.069C311.413 33.1379 311.337 33.1926 311.253 33.2294C311.169 33.2661 311.078 33.2843 310.986 33.2826C310.802 33.2792 310.627 33.2021 310.497 33.0676C310.367 32.9332 310.293 32.7518 310.289 32.5617V28.0625H303.437V32.5617C303.434 32.7518 303.359 32.9332 303.23 33.0676C303.1 33.2021 302.924 33.2792 302.74 33.2826Z" fill="#A1EBE4"/>
<path d="M318.032 33.2149C317.937 33.1929 317.848 33.1481 317.773 33.084C317.698 33.0199 317.638 32.9383 317.599 32.846C317.56 32.7536 317.543 32.6531 317.548 32.5525C317.554 32.4519 317.583 32.3541 317.632 32.267L321.632 22.0938C321.687 21.9238 321.793 21.7764 321.934 21.6732C322.076 21.5699 322.246 21.5161 322.419 21.5197C322.585 21.5191 322.747 21.5749 322.88 21.6786C323.013 21.7822 323.109 21.9281 323.154 22.0938L327.219 32.267C327.268 32.3532 327.297 32.4501 327.303 32.5499C327.31 32.6497 327.294 32.7496 327.256 32.8417C327.218 32.9338 327.16 33.0156 327.087 33.0804C327.013 33.1452 326.926 33.1912 326.832 33.2149C326.748 33.2629 326.655 33.2906 326.559 33.2958C326.464 33.301 326.368 33.2837 326.28 33.2451C326.192 33.2065 326.113 33.1477 326.05 33.0731C325.987 32.9985 325.941 32.91 325.916 32.8144L325 30.5448H319.838L318.973 32.8144C318.952 32.9156 318.907 33.0099 318.843 33.0892C318.779 33.1686 318.697 33.2306 318.604 33.27C318.511 33.3093 318.411 33.3249 318.311 33.3153C318.211 33.3057 318.116 33.2713 318.032 33.2149ZM320.354 29.0895H324.458L322.419 23.8293L320.354 29.0895Z" fill="#A1EBE4"/>
<path d="M336.316 33.2823C335.804 33.3672 335.28 33.3253 334.787 33.16C334.294 32.9948 333.846 32.711 333.48 32.3318C333.113 31.9526 332.839 31.489 332.679 30.9788C332.519 30.4687 332.479 29.9267 332.561 29.3972V25.392C332.516 24.8619 332.575 24.328 332.732 23.8214C332.889 23.3148 333.143 22.8457 333.477 22.4415C333.862 22.0947 334.311 21.8328 334.797 21.6721C335.283 21.5114 335.795 21.4552 336.303 21.5069H338.329C339.182 21.4475 340.031 21.6822 340.742 22.1745C341.036 22.4399 341.274 22.7656 341.441 23.131C341.607 23.4963 341.699 23.8934 341.71 24.2972C341.73 24.3957 341.728 24.4977 341.703 24.5952C341.679 24.6926 341.632 24.7826 341.568 24.858C341.496 24.9239 341.412 24.9744 341.321 25.0065C341.231 25.0386 341.134 25.0516 341.039 25.0449C340.613 25.0449 340.368 24.8046 340.303 24.3106C340.3 24.1011 340.25 23.8952 340.155 23.7096C340.061 23.5241 339.926 23.3641 339.761 23.2426C339.315 23.0229 338.822 22.9263 338.329 22.9622H336.303C335.829 22.9401 335.356 23.0127 334.909 23.1758C334.746 23.2429 334.598 23.3439 334.473 23.4724C334.349 23.601 334.252 23.7545 334.187 23.9234C334.026 24.3945 333.951 24.8926 333.967 25.392V29.3972C333.95 29.8924 334.024 30.3865 334.187 30.8525C334.252 31.0214 334.349 31.1749 334.473 31.3034C334.598 31.432 334.746 31.533 334.909 31.6001C335.358 31.7736 335.837 31.8509 336.316 31.8271H338.329C338.822 31.863 339.315 31.7664 339.761 31.5467C339.926 31.4252 340.061 31.2652 340.155 31.0796C340.25 30.8941 340.3 30.6882 340.303 30.4786C340.368 29.9847 340.613 29.7444 341.039 29.7444C341.134 29.7376 341.231 29.7507 341.321 29.7827C341.412 29.8148 341.496 29.8653 341.568 29.9313C341.632 30.0066 341.679 30.0967 341.703 30.1941C341.728 30.2915 341.73 30.3936 341.71 30.492C341.702 30.8964 341.612 31.2946 341.445 31.6604C341.278 32.0262 341.039 32.3515 340.742 32.6148C340.031 33.107 339.182 33.3418 338.329 33.2823H336.316Z" fill="#A1EBE4"/>
<path d="M348.73 33.2824C348.635 33.2956 348.539 33.2861 348.449 33.2545C348.358 33.223 348.276 33.1703 348.209 33.1005C348.141 33.0307 348.09 32.9458 348.06 32.8523C348.029 32.7588 348.02 32.6592 348.033 32.5614V22.2414C348.056 22.0653 348.14 21.9039 348.269 21.7871C348.399 21.6702 348.564 21.6058 348.736 21.6058C348.908 21.6058 349.074 21.6702 349.203 21.7871C349.332 21.9039 349.416 22.0653 349.439 22.2414V26.3667L353.711 21.8008C353.839 21.6627 354.015 21.583 354.2 21.5792C354.385 21.5755 354.564 21.648 354.698 21.7808C354.831 21.9135 354.908 22.0957 354.912 22.2873C354.916 22.4788 354.845 22.664 354.717 22.8021L351.156 26.607L355.362 31.9473C355.43 32.0175 355.481 32.1023 355.513 32.1956C355.545 32.2888 355.556 32.3883 355.546 32.4866C355.536 32.585 355.505 32.6799 355.456 32.7644C355.406 32.8489 355.339 32.921 355.259 32.9753C355.192 33.0474 355.111 33.1027 355.02 33.1371C354.93 33.1714 354.833 33.1839 354.737 33.1736C354.641 33.1633 354.549 33.1305 354.467 33.0776C354.385 33.0247 354.316 32.9532 354.265 32.8685L350.175 27.6083L349.439 28.396V32.4947C349.465 32.5986 349.465 32.7073 349.439 32.8111C349.413 32.9148 349.363 33.0102 349.292 33.0885C349.221 33.1669 349.133 33.2257 349.035 33.2596C348.936 33.2934 348.832 33.3013 348.73 33.2824Z" fill="#A1EBE4"/>
<path d="M367.427 33.2823H361.13C361.034 33.2973 360.936 33.2892 360.844 33.2587C360.751 33.2282 360.667 33.1761 360.597 33.1064C360.527 33.0366 360.473 32.9512 360.441 32.8567C360.408 32.7622 360.396 32.6611 360.407 32.5613C360.394 31.8796 360.517 31.2023 360.769 30.5721C360.992 30.0727 361.303 29.6201 361.685 29.237C362.045 28.8716 362.443 28.5491 362.872 28.2758L364.033 27.5548L365.595 26.6203C365.949 26.4036 366.264 26.1233 366.524 25.7925C366.737 25.5012 366.846 25.1429 366.834 24.7779C366.875 24.3041 366.752 23.8304 366.485 23.4428C366.109 23.169 365.652 23.0413 365.195 23.0823H363.401C363.003 23.0536 362.604 23.1269 362.24 23.2959C362.104 23.3834 361.99 23.5027 361.907 23.6442C361.824 23.7857 361.775 23.9454 361.762 24.1103C361.739 24.3045 361.658 24.4864 361.53 24.631C361.461 24.6966 361.379 24.7469 361.29 24.7791C361.202 24.8112 361.108 24.8244 361.014 24.8179C360.917 24.8253 360.82 24.8113 360.729 24.7768C360.637 24.7422 360.554 24.688 360.485 24.6177C360.418 24.5435 360.369 24.454 360.342 24.3565C360.315 24.2591 360.311 24.1564 360.33 24.0569C360.36 23.7035 360.457 23.3597 360.617 23.0456C360.776 22.7316 360.995 22.4536 361.259 22.2279C361.889 21.7887 362.643 21.5774 363.401 21.6271H365.195C365.617 21.5593 366.049 21.5952 366.455 21.7321C366.861 21.8689 367.231 22.1027 367.534 22.4147C367.836 22.7266 368.064 23.108 368.198 23.5278C368.332 23.9476 368.368 24.3941 368.305 24.8312C368.326 25.4555 368.149 26.0698 367.801 26.5802C367.45 27.0705 367.012 27.4873 366.511 27.8085C365.982 28.1689 365.401 28.516 364.795 28.8765C364.188 29.237 363.917 29.4106 363.504 29.6776C363.119 29.931 362.775 30.2465 362.485 30.6121C362.184 30.9955 361.992 31.4577 361.93 31.9472H367.466C367.636 31.9711 367.792 32.058 367.905 32.1918C368.018 32.3256 368.08 32.4972 368.08 32.6748C368.08 32.8524 368.018 33.0241 367.905 33.1579C367.792 33.2916 367.636 33.3785 367.466 33.4024L367.427 33.2823Z" fill="#A1EBE4"/>
<path d="M377.789 33.2688C377.277 33.3537 376.753 33.3118 376.26 33.1466C375.767 32.9813 375.319 32.6975 374.953 32.3183C374.586 31.9392 374.312 31.4755 374.152 30.9654C373.992 30.4552 373.952 29.9132 374.034 29.3837V25.3785C373.99 24.8484 374.048 24.3144 374.205 23.8079C374.362 23.3013 374.616 22.8322 374.95 22.428C375.34 22.0862 375.792 21.8295 376.28 21.6734C376.768 21.5174 377.281 21.4653 377.789 21.5202H378.795C379.308 21.4322 379.833 21.472 380.327 21.6361C380.822 21.8003 381.271 22.084 381.638 22.4639C382.005 22.8438 382.28 23.3088 382.438 23.8204C382.597 24.3319 382.636 24.8752 382.551 25.4052V29.4105C382.593 29.9384 382.534 30.4698 382.377 30.974C382.22 31.4781 381.967 31.945 381.634 32.3476C381.245 32.692 380.794 32.9531 380.307 33.1158C379.819 33.2786 379.306 33.3396 378.795 33.2955L377.789 33.2688ZM377.789 31.8136H378.795C379.274 31.8321 379.752 31.755 380.202 31.5866C380.367 31.518 380.516 31.415 380.64 31.284C380.764 31.1531 380.861 30.9971 380.925 30.8256C381.088 30.3643 381.162 29.8745 381.144 29.3837V25.3785C381.163 24.8833 381.088 24.389 380.925 23.9233C380.861 23.7519 380.764 23.5958 380.64 23.4649C380.516 23.3339 380.367 23.2309 380.202 23.1623C379.751 22.9994 379.273 22.9269 378.795 22.9487H377.789C377.313 22.9209 376.836 22.9842 376.382 23.1356C376.219 23.2027 376.071 23.3037 375.947 23.4322C375.822 23.5608 375.725 23.7143 375.66 23.8832C375.499 24.3543 375.424 24.8524 375.44 25.3518V29.357C375.419 29.8469 375.489 30.3364 375.647 30.7989C375.712 30.9716 375.811 31.1285 375.937 31.2595C376.064 31.3905 376.216 31.4928 376.382 31.5599C376.831 31.7384 377.309 31.8245 377.789 31.8136ZM378.086 28.2356C377.995 28.2489 377.902 28.2402 377.814 28.21C377.727 28.1799 377.648 28.1291 377.583 28.0618C377.518 27.9944 377.469 27.9124 377.439 27.822C377.41 27.7317 377.402 27.6356 377.415 27.5413V27.1008C377.406 27.0085 377.418 26.9155 377.449 26.8286C377.48 26.7418 377.53 26.6633 377.594 26.599C377.659 26.5348 377.736 26.4865 377.822 26.4578C377.907 26.4291 377.997 26.4207 378.086 26.4332H378.486C378.574 26.4197 378.663 26.4276 378.747 26.4564C378.832 26.4852 378.908 26.534 378.971 26.5989C379.034 26.6638 379.081 26.743 379.109 26.8301C379.136 26.9173 379.144 27.01 379.131 27.1008V27.5413C379.131 28.0086 378.912 28.2356 378.486 28.2356H378.086Z" fill="#A1EBE4"/>
<path d="M395.313 33.2817H389.041C388.945 33.2967 388.847 33.2886 388.755 33.2581C388.662 33.2276 388.578 33.1755 388.508 33.1058C388.438 33.0361 388.385 32.9506 388.352 32.8561C388.319 32.7616 388.308 32.6605 388.319 32.5607C388.299 31.8784 388.422 31.1998 388.68 30.5715C388.904 30.0721 389.214 29.6195 389.596 29.2364C389.956 28.871 390.354 28.5485 390.783 28.2752L391.945 27.5542L393.506 26.6197C393.861 26.403 394.175 26.1227 394.435 25.7919C394.648 25.5006 394.757 25.1423 394.745 24.7773C394.789 24.3013 394.66 23.8253 394.384 23.4422C394.01 23.1629 393.551 23.0347 393.093 23.0817H391.3C390.897 23.0571 390.495 23.1303 390.125 23.2953C389.993 23.3865 389.881 23.5067 389.799 23.6475C389.716 23.7882 389.665 23.9461 389.648 24.1097C389.623 24.301 389.547 24.4812 389.428 24.6304C389.359 24.696 389.278 24.7463 389.189 24.7785C389.1 24.8106 389.006 24.8238 388.912 24.8173C388.815 24.8247 388.718 24.8107 388.627 24.7762C388.536 24.7417 388.453 24.6874 388.383 24.6171C388.316 24.543 388.268 24.4534 388.241 24.356C388.214 24.2585 388.21 24.1558 388.228 24.0563C388.258 23.7029 388.356 23.3591 388.515 23.045C388.675 22.731 388.893 22.453 389.158 22.2273C389.788 21.7881 390.541 21.5768 391.3 21.6265H393.093C393.513 21.5921 393.936 21.6441 394.337 21.7792C394.738 21.9144 395.109 22.1302 395.429 22.4142C395.706 22.7436 395.916 23.1273 396.047 23.5424C396.177 23.9576 396.226 24.3956 396.19 24.8307C396.215 25.4534 396.043 26.0676 395.7 26.5796C395.346 27.0669 394.908 27.4832 394.409 27.8079C393.88 28.1684 393.3 28.5155 392.68 28.8759C392.061 29.2364 391.816 29.41 391.39 29.677C391.004 29.9304 390.66 30.2459 390.37 30.6115C390.065 30.9934 389.869 31.4557 389.803 31.9466H395.338C395.439 31.9325 395.541 31.9408 395.638 31.9709C395.735 32.001 395.825 32.0522 395.901 32.1212C395.977 32.1901 396.038 32.2751 396.08 32.3705C396.122 32.4659 396.144 32.5694 396.144 32.6742C396.144 32.779 396.122 32.8826 396.08 32.978C396.038 33.0733 395.977 33.1583 395.901 33.2273C395.825 33.2962 395.735 33.3475 395.638 33.3776C395.541 33.4077 395.439 33.4159 395.338 33.4018L395.313 33.2817Z" fill="#A1EBE4"/>
<path d="M408.345 33.2817H402.074C401.978 33.2967 401.88 33.2886 401.787 33.2581C401.695 33.2276 401.61 33.1755 401.541 33.1058C401.471 33.0361 401.417 32.9506 401.384 32.8561C401.352 32.7616 401.34 32.6605 401.351 32.5607C401.338 31.879 401.461 31.2017 401.713 30.5715C401.936 30.0721 402.247 29.6195 402.629 29.2364C402.988 28.871 403.387 28.5485 403.816 28.2752L404.977 27.5542L406.539 26.6197C406.893 26.403 407.208 26.1227 407.468 25.7919C407.681 25.5006 407.79 25.1423 407.777 24.7773C407.819 24.3035 407.696 23.8298 407.429 23.4422C407.053 23.1684 406.596 23.0407 406.139 23.0817H404.345C403.943 23.0571 403.541 23.1303 403.171 23.2953C403.038 23.3865 402.927 23.5067 402.844 23.6475C402.762 23.7882 402.71 23.9461 402.693 24.1097C402.673 24.3024 402.597 24.4841 402.474 24.6304C402.405 24.696 402.323 24.7463 402.234 24.7785C402.146 24.8106 402.052 24.8238 401.958 24.8173C401.861 24.8247 401.764 24.8107 401.672 24.7762C401.581 24.7417 401.498 24.6874 401.429 24.6171C401.362 24.543 401.313 24.4534 401.286 24.356C401.259 24.2585 401.255 24.1558 401.274 24.0563C401.303 23.7029 401.401 23.3591 401.56 23.045C401.72 22.731 401.938 22.453 402.203 22.2273C402.833 21.7881 403.586 21.5768 404.345 21.6265H406.139C406.559 21.5921 406.982 21.6441 407.382 21.7792C407.783 21.9144 408.154 22.1302 408.474 22.4142C408.751 22.7436 408.961 23.1273 409.092 23.5424C409.223 23.9576 409.272 24.3956 409.236 24.8307C409.261 25.4534 409.089 26.0676 408.745 26.5796C408.394 27.0699 407.956 27.4867 407.455 27.8079C406.926 28.1684 406.345 28.5155 405.726 28.8759C405.106 29.2364 404.861 29.41 404.435 29.677C404.05 29.9304 403.705 30.2459 403.416 30.6115C403.111 30.9934 402.914 31.4557 402.848 31.9466H408.384C408.484 31.9325 408.586 31.9408 408.683 31.9709C408.78 32.001 408.87 32.0522 408.946 32.1212C409.022 32.1901 409.084 32.2751 409.125 32.3705C409.167 32.4659 409.189 32.5694 409.189 32.6742C409.189 32.779 409.167 32.8826 409.125 32.978C409.084 33.0733 409.022 33.1583 408.946 33.2273C408.87 33.2962 408.78 33.3475 408.683 33.3776C408.586 33.4077 408.484 33.4159 408.384 33.4018L408.345 33.2817Z" fill="#A1EBE4"/>
<path d="M424.217 27.5543C424.126 27.5676 424.033 27.5589 423.946 27.5287C423.858 27.4986 423.779 27.4478 423.714 27.3805C423.649 27.3131 423.6 27.2311 423.571 27.1408C423.541 27.0505 423.533 26.9543 423.546 26.8601V26.4328C423.535 26.3396 423.545 26.245 423.575 26.1564C423.606 26.0678 423.655 25.9875 423.72 25.9218C423.785 25.856 423.863 25.8065 423.949 25.7771C424.035 25.7476 424.127 25.739 424.217 25.7519H424.617C424.705 25.7408 424.795 25.7508 424.879 25.7813C424.963 25.8118 425.039 25.8619 425.102 25.9277C425.164 25.9936 425.211 26.0734 425.239 26.1609C425.267 26.2485 425.275 26.3416 425.262 26.4328V26.8601C425.262 27.3273 425.043 27.5543 424.617 27.5543H424.217ZM424.217 33.2818C424.126 33.2951 424.033 33.2864 423.946 33.2562C423.858 33.226 423.779 33.1753 423.714 33.1079C423.649 33.0406 423.6 32.9585 423.571 32.8682C423.541 32.7779 423.533 32.6818 423.546 32.5875V32.1603C423.535 32.067 423.545 31.9724 423.575 31.8839C423.606 31.7953 423.655 31.715 423.72 31.6493C423.785 31.5835 423.863 31.534 423.949 31.5045C424.035 31.4751 424.127 31.4665 424.217 31.4794H424.617C424.705 31.4682 424.795 31.4783 424.879 31.5088C424.963 31.5393 425.039 31.5893 425.102 31.6552C425.164 31.721 425.211 31.8008 425.239 31.8884C425.267 31.976 425.275 32.069 425.262 32.1603V32.5875C425.262 33.0548 425.043 33.2818 424.617 33.2818H424.217Z" fill="#A1EBE4"/>
<path d="M430.811 36.3261C430.734 36.325 430.657 36.3079 430.586 36.2758C430.515 36.2437 430.451 36.1972 430.398 36.1392C430.316 36.0551 430.26 35.9477 430.237 35.8305C430.214 35.7133 430.226 35.5917 430.27 35.4814C430.314 35.371 430.39 35.2768 430.486 35.2109C430.582 35.1449 430.695 35.1102 430.811 35.1112C431.099 35.1447 431.39 35.1078 431.661 35.0034C431.932 34.8991 432.176 34.7302 432.372 34.5104C432.729 33.8528 432.882 33.098 432.811 32.3476V25.6722C432.829 25.0782 432.764 24.4846 432.617 23.9099C432.528 23.5379 432.307 23.214 431.998 23.002C431.631 22.8086 431.222 22.7166 430.811 22.735C430.734 22.7339 430.657 22.7168 430.586 22.6847C430.515 22.6526 430.451 22.6062 430.398 22.5481C430.342 22.4933 430.299 22.4268 430.27 22.3532C430.241 22.2795 430.227 22.2003 430.23 22.1209C430.228 22.0415 430.242 21.9626 430.271 21.8889C430.299 21.8151 430.342 21.7482 430.396 21.692C430.451 21.6359 430.515 21.5917 430.587 21.5621C430.658 21.5326 430.734 21.5183 430.811 21.5201C431.261 21.4794 431.714 21.5488 432.133 21.7227C432.552 21.8967 432.926 22.1703 433.224 22.5214C433.801 23.4586 434.068 24.5643 433.985 25.6722V32.3476C434.066 33.409 433.798 34.4675 433.224 35.3515C432.922 35.6961 432.547 35.9635 432.128 36.1326C431.71 36.3018 431.259 36.368 430.811 36.3261Z" fill="#A1EBE4"/>
</svg>
