<svg width="89" height="514" viewBox="0 0 89 514" fill="none" xmlns="http://www.w3.org/2000/svg">
<path d="M43.6172 51.7031V54.2031H26.1172V51.7031H33.4609V47.6797H36.3516V51.7031H43.6172ZM39.0078 60.6094L36.625 60.0625C37.6406 57.7708 38.3047 55.8438 38.6172 54.2812L41.3516 54.9062C40.3099 57.6667 39.5286 59.5677 39.0078 60.6094ZM32.5234 60.0234L30.0625 60.7266C29.8802 58.9557 29.3594 57.0286 28.5 54.9453L30.8047 54.3594C31.6901 56.2604 32.263 58.1484 32.5234 60.0234ZM42.6406 76.0781L40.8828 78.2656C40.0234 77.276 38.513 75.7917 36.3516 73.8125V83.9688H33.4609V73.4219C31.3776 76.7031 29.151 79.2812 26.7812 81.1562C26.1823 80.3229 25.5182 79.6068 24.7891 79.0078C27.1589 77.4714 29.4115 75.1536 31.5469 72.0547C32.0156 71.3516 32.4453 70.6615 32.8359 69.9844H25.6484V67.4844H33.4609V63.2656H25.5312V60.7656H44.0859V63.2656H36.3516V67.4844H43.7734V69.9844H36.3516V70.9609C38.4609 72.5234 40.4922 74.1771 42.4453 75.9219C42.5234 75.974 42.5885 76.026 42.6406 76.0781ZM61.7422 60.9219V63.7344H57.25V83.8125H54.3594V63.7344H48.3828V64.7109C48.3828 72.8099 46.599 78.9557 43.0312 83.1484C42.6927 83.5391 42.3542 83.9036 42.0156 84.2422C41.651 83.6172 41.0391 82.9922 40.1797 82.3672C40.0755 82.2891 39.9844 82.224 39.9062 82.1719C43.3177 78.8385 45.1667 73.9297 45.4531 67.4453C45.5052 66.612 45.5312 65.6875 45.5312 64.6719V50.7656L47.7188 51.4297C52.7448 50.3099 56.4427 49.1641 58.8125 47.9922L61.2344 50.2188C58.5 51.4427 54.2161 52.6406 48.3828 53.8125V60.9219H61.7422Z" fill="white"/>
<path d="M43.5 113.578H36.3906V139.047H33.4609V113.578H31.5469C30.2708 116.573 28.8646 119.112 27.3281 121.195C26.7031 120.674 25.8177 120.076 24.6719 119.398C27.6927 115.674 30.0625 110.258 31.7812 103.148C31.8333 102.94 31.8854 102.732 31.9375 102.523L34.9844 103.148C34.3073 105.935 33.5521 108.435 32.7188 110.648H43.5V113.578ZM61.7812 110.648V113.578H55.7266V135.102C55.7266 136.716 55.3359 137.732 54.5547 138.148C54.3724 138.253 54.2031 138.331 54.0469 138.383C53.0312 138.799 50.8177 139.008 47.4062 139.008C47.1979 137.862 46.8724 136.82 46.4297 135.883C49.0078 135.961 50.8307 135.974 51.8984 135.922C52.4193 135.74 52.7057 135.466 52.7578 135.102V113.578H46.8984C45.5182 116.755 44.125 119.281 42.7188 121.156C42.0938 120.531 41.2344 119.932 40.1406 119.359C43.1875 115.583 45.5182 110.102 47.1328 102.914C47.1589 102.784 47.1849 102.654 47.2109 102.523L50.1797 103.109C49.5286 105.974 48.7995 108.487 47.9922 110.648H61.7812Z" fill="white"/>
<path d="M32.7188 191L41.3125 175.844L33.3047 161.664H37.3672L41.3906 169.164C41.5469 169.477 41.7812 169.932 42.0938 170.531C42.7448 171.729 43.2786 172.693 43.6953 173.422H43.8516C44.6068 171.781 45.2969 170.362 45.9219 169.164L49.8672 161.664H53.7344L45.7266 176.039L54.2812 191H50.2188L45.8828 183.07C44.8411 181.065 44.0078 179.49 43.3828 178.344H43.2266C42.6276 179.568 41.8333 181.143 40.8438 183.07L36.625 191H32.7188Z" fill="white"/>
<path d="M47.1719 228.188L48.8125 226.781C50.9219 227.849 52.7057 229.06 54.1641 230.414L52.4062 231.977C50.9219 230.544 49.2422 229.32 47.3672 228.305C47.2891 228.253 47.224 228.214 47.1719 228.188ZM53.6172 239.125L51.8594 240.727C50.5312 239.294 48.8906 238.005 46.9375 236.859C46.8333 236.807 46.7422 236.755 46.6641 236.703L48.3438 235.336C50.375 236.482 52.1328 237.745 53.6172 239.125ZM43.3047 241.273H56.3516C56.5339 239.32 56.6771 237.198 56.7812 234.906H44.1641C44.0078 236.182 43.7214 238.305 43.3047 241.273ZM57.1328 226.195H45.2969C45.2448 226.664 45.1536 227.393 45.0234 228.383C44.8151 230.154 44.6589 231.469 44.5547 232.328H56.9375C57.0417 230.036 57.1068 227.992 57.1328 226.195ZM62.1328 234.906H59.4766C59.3984 236.651 59.2422 238.773 59.0078 241.273H61.8203V243.812H58.7344C58.4479 245.714 58.0573 247.003 57.5625 247.68C56.9635 248.487 56.1172 248.93 55.0234 249.008C54.1641 249.112 52.7057 249.112 50.6484 249.008C50.5964 248.122 50.375 247.328 49.9844 246.625C51.1562 246.703 52.4583 246.742 53.8906 246.742C54.4896 246.716 54.9323 246.534 55.2188 246.195C55.5312 245.753 55.7786 244.958 55.9609 243.812H42.9141L42.5625 245.609L39.7891 245.414C40.362 242.497 40.9349 238.995 41.5078 234.906H38.6953V234.477L37.3672 236.547C36.8724 235.531 35.8177 233.852 34.2031 231.508V249.008H31.4297V230.492C29.8151 235.466 28.1354 239.203 26.3906 241.703C26.2344 241.312 25.7266 240.453 24.8672 239.125C26.8724 236.312 28.6302 232.458 30.1406 227.562C30.5573 226.208 30.8958 224.932 31.1562 223.734H25.7266V221H31.4297V212.523H34.2031V221H39.0859V223.07C41.3255 220.18 43.0052 216.651 44.125 212.484L46.9375 213.148C46.651 214.242 46.1562 215.714 45.4531 217.562H61.4688V220.219H44.2422C43.0443 222.589 41.7943 224.542 40.4922 226.078C39.8151 225.401 39.0339 224.776 38.1484 224.203L38.5781 223.734H34.2031V227.836C35.6875 229.555 37.1849 231.417 38.6953 233.422V232.328H41.8594C42.4062 228.135 42.7448 225.258 42.875 223.695H59.9062C59.9062 223.721 59.8932 224.177 59.8672 225.062C59.763 228.292 59.6719 230.714 59.5938 232.328H62.1328V234.906Z" fill="white"/>
<path d="M43.5 278.578H36.3906V304.047H33.4609V278.578H31.5469C30.2708 281.573 28.8646 284.112 27.3281 286.195C26.7031 285.674 25.8177 285.076 24.6719 284.398C27.6927 280.674 30.0625 275.258 31.7812 268.148C31.8333 267.94 31.8854 267.732 31.9375 267.523L34.9844 268.148C34.3073 270.935 33.5521 273.435 32.7188 275.648H43.5V278.578ZM61.7812 275.648V278.578H55.7266V300.102C55.7266 301.716 55.3359 302.732 54.5547 303.148C54.3724 303.253 54.2031 303.331 54.0469 303.383C53.0312 303.799 50.8177 304.008 47.4062 304.008C47.1979 302.862 46.8724 301.82 46.4297 300.883C49.0078 300.961 50.8307 300.974 51.8984 300.922C52.4193 300.74 52.7057 300.466 52.7578 300.102V278.578H46.8984C45.5182 281.755 44.125 284.281 42.7188 286.156C42.0938 285.531 41.2344 284.932 40.1406 284.359C43.1875 280.583 45.5182 275.102 47.1328 267.914C47.1589 267.784 47.1849 267.654 47.2109 267.523L50.1797 268.109C49.5286 270.974 48.7995 273.487 47.9922 275.648H61.7812Z" fill="white"/>
<path d="M48.6172 334.633L46.7031 333.852C48.0312 331.69 49.0599 329.581 49.7891 327.523L52.0938 328.383C50.375 331.638 49.2161 333.721 48.6172 334.633ZM34.9062 328.227L36.8594 327.562C38.2656 329.776 39.138 331.716 39.4766 333.383L37.3672 334.203C37.0026 332.406 36.1823 330.414 34.9062 328.227ZM32.6406 335.219H41.9766V326.547H32.6406V335.219ZM54.0859 335.219V326.547H44.9062V335.219H54.0859ZM61.1953 347.055V349.672H25.8438V347.055H41.9766V343.422H29.125V341H41.9766V337.719H29.8281V324.047H57.0547V337.719H44.9062V341H57.8359V343.422H44.9062V347.055H61.1953ZM28.6562 359.242L25.8828 357.914C27.5755 356.482 29.0078 354.385 30.1797 351.625C30.2318 351.495 30.2839 351.378 30.3359 351.273L33.1875 351.977C31.9115 355.154 30.401 357.576 28.6562 359.242ZM37.1328 352.289L39.9062 352.094C40.4792 354.385 40.7656 356.495 40.7656 358.422L37.875 358.852C37.875 356.951 37.6276 354.763 37.1328 352.289ZM45.3359 352.367L48.1094 351.781C49.2292 354.151 49.9844 356.26 50.375 358.109L47.4453 358.852C47.0547 356.951 46.3516 354.789 45.3359 352.367ZM53.4219 352.211L56.1172 351.273C58.1224 353.279 59.8151 355.414 61.1953 357.68C61.2734 357.81 61.3385 357.914 61.3906 357.992L58.5 359.125C57.4323 357.12 55.8177 354.906 53.6562 352.484C53.5521 352.38 53.474 352.289 53.4219 352.211Z" fill="white"/>
<path d="M29.5938 383.891V388.617H26.7422V381.117H41.8984V377.562H44.9062V381.117H60.2188V388.617H57.25V383.891H29.5938ZM35.1797 401.859H52.9922C49.4766 400.844 46.3385 399.581 43.5781 398.07C41 399.503 38.2005 400.766 35.1797 401.859ZM35.4531 410.102H51.625V404.32H35.4531V410.102ZM37.6406 389.867L37.5234 390.023C39.0078 391.742 41.0391 393.357 43.6172 394.867C46.1432 393.279 48.1745 391.612 49.7109 389.867H37.6406ZM52.25 387.406L54.2422 388.656C52.4193 391.469 49.8021 394.021 46.3906 396.312C50.9219 398.396 56.0911 399.802 61.8984 400.531C61.0911 401.391 60.4661 402.328 60.0234 403.344C58.1745 403.083 56.3776 402.732 54.6328 402.289V413.969H51.625V412.68H35.4531V414.008H32.6016V402.68C30.4401 403.331 28.4219 403.865 26.5469 404.281C26.1562 403.24 25.6615 402.367 25.0625 401.664C30.8177 400.596 36.0781 398.852 40.8438 396.43C38.7083 394.997 36.9115 393.435 35.4531 391.742C33.6302 393.201 31.5469 394.516 29.2031 395.688C28.6302 394.828 27.9661 394.125 27.2109 393.578C31.6901 391.599 35.1927 388.995 37.7188 385.766C38.0312 385.349 38.3177 384.945 38.5781 384.555L41.7812 385.141C41.0521 386.156 40.4401 386.951 39.9453 387.523H51.7422L52.25 387.406Z" fill="white"/>
<path d="M45.6875 434.047H55.6484C56.7161 439.229 58.4089 443.565 60.7266 447.055C61.2214 447.81 61.7292 448.474 62.25 449.047C61.3125 449.516 60.4531 450.167 59.6719 451C57.0677 447.797 55.0234 443.331 53.5391 437.602C53.4609 437.341 53.3958 437.094 53.3438 436.859H45.6875V434.047ZM43.6172 437.484L46.5469 438.07C45.3229 443.227 43.474 447.484 41 450.844C40.8958 451 40.8047 451.13 40.7266 451.234C40.0495 450.661 39.1901 450.102 38.1484 449.555C40.5182 446.716 42.3411 442.693 43.6172 437.484ZM40.1016 453.891L38.3828 456.547C37.7318 455.427 36.4948 453.656 34.6719 451.234V469.008H31.7812V450.023C30.1667 455.049 28.3958 458.943 26.4688 461.703C26.2344 461.078 25.7005 460.219 24.8672 459.125C27.0026 456.339 28.8516 452.471 30.4141 447.523C30.8047 446.221 31.1432 444.958 31.4297 443.734H25.6094V441H31.7812V432.523H34.6719V441H39.8672V443.734H34.6719V447.758C36.3125 449.451 38.0703 451.43 39.9453 453.695C40.0234 453.773 40.0755 453.839 40.1016 453.891ZM52.6016 456.508L55.2188 455.375C57.901 459.203 59.9453 462.888 61.3516 466.43C61.5339 466.898 61.6901 467.328 61.8203 467.719L58.9297 469.047C58.6432 468.057 58.2396 466.977 57.7188 465.805C53.7344 466.117 47.5495 466.573 39.1641 467.172L38.7344 464.164C39.2812 464.138 40.6745 464.073 42.9141 463.969C44.6849 459.333 46.2083 453.839 47.4844 447.484C47.5104 447.432 47.5234 447.393 47.5234 447.367L50.9219 448.188C49.151 454.411 47.4714 459.607 45.8828 463.773C47.1589 463.695 49.1901 463.565 51.9766 463.383C53.9818 463.227 55.4792 463.122 56.4688 463.07C55.1927 460.648 53.9036 458.461 52.6016 456.508Z" fill="white"/>
<path d="M74 28L43.5 2L13 28" stroke="white" stroke-width="3" stroke-linecap="square"/>
<path d="M13 486L43.5 512L74 486" stroke="white" stroke-width="3" stroke-linecap="square"/>
<line x1="76.5" y1="374" x2="76.5" y2="224" stroke="white"/>
<line x1="88.625" y1="325" x2="88.625" y2="250" stroke="white" stroke-width="0.75"/>
<line x1="9.5" y1="136" x2="9.5" y2="46" stroke="white"/>
<line x1="0.625" y1="123" x2="0.625" y2="73" stroke="white" stroke-width="0.75"/>
</svg>
