<svg width="575" height="350" viewBox="0 0 575 350" fill="none" xmlns="http://www.w3.org/2000/svg">
<g opacity="0.8">
<path d="M153.596 277.32C153.516 277.332 153.434 277.325 153.357 277.299C153.28 277.274 153.21 277.231 153.153 277.173C153.095 277.116 153.052 277.046 153.027 276.969C153.001 276.892 152.994 276.81 153.006 276.73V260.18C152.994 260.1 153.001 260.019 153.026 259.942C153.052 259.865 153.095 259.796 153.152 259.739C153.21 259.683 153.28 259.64 153.357 259.616C153.435 259.592 153.516 259.587 153.596 259.6C153.737 259.596 153.877 259.63 154 259.698C154.123 259.767 154.225 259.868 154.296 259.99L161.366 270.86H161.086L168.166 259.94C168.236 259.818 168.339 259.717 168.462 259.648C168.585 259.58 168.725 259.546 168.866 259.55C169.246 259.55 169.426 259.74 169.426 260.13V276.68C169.437 276.763 169.43 276.848 169.405 276.928C169.381 277.009 169.34 277.083 169.284 277.146C169.229 277.209 169.161 277.26 169.084 277.294C169.008 277.329 168.925 277.347 168.841 277.347C168.757 277.347 168.674 277.329 168.597 277.294C168.521 277.26 168.453 277.209 168.397 277.146C168.342 277.083 168.301 277.009 168.276 276.928C168.252 276.848 168.245 276.763 168.256 276.68V261.36L168.586 261.47L161.926 271.72C161.853 271.84 161.75 271.939 161.627 272.008C161.505 272.077 161.366 272.113 161.226 272.113C161.085 272.113 160.947 272.077 160.825 272.008C160.702 271.939 160.599 271.84 160.526 271.72L153.866 261.47L154.166 261.61V276.73C154.177 276.809 154.17 276.888 154.146 276.964C154.121 277.039 154.08 277.108 154.025 277.164C153.97 277.221 153.903 277.265 153.828 277.292C153.754 277.319 153.675 277.329 153.596 277.32Z" fill="#FBFBFB" stroke="white" stroke-width="0.5"/>
<path d="M177.216 271.3V272.45C177.108 273.476 177.406 274.502 178.046 275.31C178.865 275.952 179.902 276.25 180.936 276.14H183.236C184.175 276.207 185.115 276.031 185.966 275.63C186.265 275.437 186.512 275.174 186.686 274.864C186.86 274.554 186.957 274.206 186.966 273.85C186.97 273.687 187.034 273.53 187.146 273.41C187.205 273.357 187.275 273.316 187.351 273.29C187.426 273.264 187.506 273.254 187.586 273.26C187.665 273.254 187.745 273.265 187.819 273.292C187.893 273.32 187.961 273.364 188.016 273.42C188.072 273.481 188.113 273.555 188.136 273.635C188.159 273.715 188.162 273.799 188.146 273.88C188.139 274.388 188.015 274.887 187.785 275.34C187.554 275.792 187.223 276.186 186.816 276.49C185.745 277.114 184.513 277.403 183.276 277.32H180.976C180.309 277.442 179.622 277.4 178.974 277.199C178.326 276.997 177.736 276.643 177.255 276.164C176.774 275.686 176.415 275.099 176.21 274.452C176.005 273.805 175.959 273.119 176.076 272.45V269.31C175.954 267.952 176.374 266.6 177.246 265.55C177.76 265.12 178.355 264.797 178.995 264.602C179.636 264.406 180.31 264.341 180.976 264.41H183.276C183.946 264.29 184.635 264.333 185.285 264.537C185.935 264.741 186.525 265.098 187.007 265.58C187.488 266.061 187.846 266.652 188.05 267.301C188.253 267.951 188.297 268.64 188.176 269.31V270.71C188.188 270.791 188.181 270.872 188.155 270.949C188.13 271.026 188.087 271.096 188.029 271.154C187.972 271.211 187.902 271.254 187.825 271.279C187.748 271.305 187.666 271.312 187.586 271.3H177.216ZM180.936 265.59C179.906 265.472 178.869 265.759 178.046 266.39C177.402 267.22 177.105 268.266 177.216 269.31V270.12H186.956V269.31C187.075 268.798 187.061 268.263 186.917 267.757C186.772 267.251 186.5 266.79 186.128 266.418C185.756 266.046 185.295 265.775 184.789 265.63C184.283 265.485 183.749 265.471 183.236 265.59H180.936Z" fill="#FBFBFB" stroke="white" stroke-width="0.5"/>
<path d="M194.976 261.78C194.86 261.794 194.742 261.78 194.631 261.741C194.521 261.702 194.421 261.637 194.34 261.553C194.259 261.469 194.198 261.367 194.163 261.256C194.127 261.144 194.118 261.026 194.136 260.91V260.34C194.119 260.226 194.129 260.109 194.165 260C194.202 259.89 194.263 259.791 194.345 259.709C194.426 259.627 194.526 259.566 194.635 259.53C194.745 259.493 194.862 259.483 194.976 259.5H195.596C195.709 259.485 195.825 259.496 195.933 259.533C196.041 259.57 196.139 259.632 196.22 259.713C196.3 259.795 196.361 259.894 196.396 260.003C196.432 260.111 196.442 260.227 196.426 260.34V260.91C196.426 261.49 196.156 261.78 195.596 261.78H194.976ZM195.276 277.32C195.196 277.332 195.114 277.325 195.037 277.299C194.96 277.274 194.89 277.231 194.833 277.173C194.775 277.116 194.732 277.046 194.707 276.969C194.681 276.892 194.674 276.81 194.686 276.73V265C194.675 264.917 194.682 264.832 194.706 264.752C194.731 264.672 194.772 264.597 194.827 264.534C194.883 264.471 194.951 264.421 195.027 264.386C195.104 264.351 195.187 264.333 195.271 264.333C195.355 264.333 195.438 264.351 195.514 264.386C195.591 264.421 195.659 264.471 195.714 264.534C195.77 264.597 195.811 264.672 195.835 264.752C195.86 264.832 195.867 264.917 195.856 265V276.73C195.867 276.809 195.86 276.89 195.835 276.966C195.81 277.042 195.768 277.112 195.712 277.169C195.656 277.226 195.587 277.269 195.512 277.295C195.436 277.322 195.355 277.33 195.276 277.32Z" fill="#FBFBFB" stroke="white" stroke-width="0.5"/>
<path d="M207.296 277.32C206.626 277.44 205.936 277.397 205.287 277.193C204.637 276.99 204.046 276.632 203.565 276.15C203.084 275.669 202.726 275.078 202.522 274.429C202.319 273.779 202.275 273.09 202.396 272.42V269.28C202.277 267.931 202.698 266.59 203.566 265.55C204.079 265.12 204.674 264.797 205.315 264.601C205.956 264.405 206.629 264.34 207.296 264.41H209.596C210.678 264.336 211.759 264.58 212.706 265.11C213.059 265.36 213.351 265.687 213.561 266.067C213.77 266.446 213.892 266.867 213.916 267.3C213.926 267.381 213.919 267.463 213.895 267.54C213.871 267.618 213.83 267.69 213.776 267.75C213.716 267.806 213.645 267.85 213.568 267.877C213.49 267.905 213.408 267.916 213.326 267.91C213.176 267.918 213.029 267.868 212.916 267.77C212.817 267.65 212.754 267.504 212.736 267.35C212.721 267.071 212.636 266.8 212.489 266.563C212.342 266.325 212.138 266.128 211.896 265.99C211.172 265.673 210.383 265.536 209.596 265.59H207.296C206.784 265.462 206.248 265.468 205.74 265.608C205.232 265.747 204.768 266.015 204.393 266.386C204.018 266.757 203.745 267.218 203.6 267.725C203.455 268.231 203.443 268.767 203.566 269.28V272.42C203.449 272.933 203.465 273.468 203.611 273.973C203.757 274.479 204.029 274.939 204.402 275.311C204.775 275.683 205.236 275.954 205.742 276.099C206.248 276.244 206.783 276.258 207.296 276.14H209.596C210.383 276.194 211.172 276.057 211.896 275.74C212.138 275.601 212.342 275.404 212.489 275.167C212.636 274.929 212.721 274.659 212.736 274.38C212.751 274.225 212.813 274.078 212.916 273.96C213.029 273.862 213.176 273.812 213.326 273.82C213.408 273.814 213.49 273.825 213.568 273.852C213.645 273.88 213.716 273.923 213.776 273.98C213.831 274.042 213.872 274.115 213.897 274.194C213.921 274.274 213.927 274.358 213.916 274.44C213.89 274.87 213.767 275.29 213.558 275.667C213.348 276.044 213.057 276.37 212.706 276.62C211.759 277.15 210.678 277.393 209.596 277.32H207.296Z" fill="#FBFBFB" stroke="white" stroke-width="0.5"/>
<path d="M220.886 277.32C220.806 277.332 220.724 277.325 220.647 277.299C220.57 277.274 220.5 277.231 220.443 277.173C220.386 277.116 220.342 277.046 220.317 276.969C220.291 276.892 220.284 276.81 220.296 276.73V258.59C220.296 258.513 220.311 258.436 220.341 258.364C220.371 258.293 220.414 258.228 220.469 258.173C220.524 258.118 220.589 258.075 220.66 258.045C220.732 258.015 220.809 258 220.886 258C220.963 258 221.04 258.015 221.112 258.045C221.183 258.075 221.248 258.118 221.303 258.173C221.358 258.228 221.401 258.293 221.431 258.364C221.461 258.436 221.476 258.513 221.476 258.59V266.59C222.323 265.123 223.989 264.387 226.476 264.38H227.256C227.926 264.26 228.615 264.303 229.265 264.507C229.915 264.71 230.505 265.068 230.987 265.549C231.468 266.031 231.826 266.622 232.029 267.271C232.233 267.921 232.276 268.61 232.156 269.28V276.7C232.156 276.777 232.141 276.854 232.111 276.926C232.081 276.997 232.038 277.062 231.983 277.117C231.928 277.172 231.863 277.215 231.792 277.245C231.72 277.275 231.643 277.29 231.566 277.29C231.489 277.29 231.412 277.275 231.34 277.245C231.269 277.215 231.204 277.172 231.149 277.117C231.094 277.062 231.051 276.997 231.021 276.926C230.991 276.854 230.976 276.777 230.976 276.7V269.28C231.095 268.767 231.081 268.233 230.936 267.727C230.792 267.221 230.52 266.76 230.148 266.388C229.776 266.016 229.315 265.744 228.809 265.6C228.303 265.455 227.769 265.441 227.256 265.56H226.476C225.236 265.485 223.999 265.758 222.906 266.35C222.49 266.614 222.146 266.977 221.903 267.406C221.661 267.835 221.528 268.317 221.516 268.81V276.7C221.536 276.786 221.533 276.876 221.508 276.961C221.483 277.046 221.437 277.123 221.374 277.185C221.31 277.247 221.233 277.292 221.147 277.316C221.062 277.339 220.972 277.341 220.886 277.32Z" fill="#FBFBFB" stroke="white" stroke-width="0.5"/>
<path d="M249.846 264.41C249.926 264.398 250.008 264.405 250.085 264.431C250.162 264.456 250.232 264.499 250.289 264.557C250.346 264.614 250.39 264.684 250.415 264.761C250.441 264.838 250.448 264.92 250.436 265V276.73C250.436 276.886 250.374 277.036 250.263 277.147C250.152 277.258 250.002 277.32 249.846 277.32C249.689 277.32 249.539 277.258 249.429 277.147C249.318 277.036 249.256 276.886 249.256 276.73V275.11C248.409 276.583 246.759 277.32 244.306 277.32H243.516C242.846 277.44 242.157 277.397 241.507 277.193C240.857 276.99 240.267 276.632 239.785 276.15C239.304 275.669 238.946 275.078 238.743 274.429C238.539 273.779 238.495 273.09 238.616 272.42V265C238.616 264.843 238.678 264.693 238.789 264.583C238.899 264.472 239.049 264.41 239.206 264.41C239.362 264.41 239.512 264.472 239.623 264.583C239.734 264.693 239.796 264.843 239.796 265V272.42C239.677 272.933 239.691 273.467 239.835 273.973C239.98 274.479 240.252 274.94 240.624 275.312C240.996 275.684 241.457 275.955 241.963 276.1C242.469 276.245 243.003 276.259 243.516 276.14H244.306C245.546 276.213 246.782 275.939 247.876 275.35C248.289 275.085 248.63 274.724 248.871 274.297C249.111 273.869 249.243 273.39 249.256 272.9V265C249.244 264.92 249.251 264.838 249.277 264.761C249.302 264.684 249.345 264.614 249.403 264.557C249.46 264.499 249.53 264.456 249.607 264.431C249.684 264.405 249.766 264.398 249.846 264.41Z" fill="#FBFBFB" stroke="white" stroke-width="0.5"/>
<path d="M266.696 277.32C266.616 277.325 266.537 277.315 266.461 277.289C266.385 277.263 266.316 277.223 266.256 277.17C266.155 277.046 266.105 276.889 266.116 276.73V260.18C266.102 260.1 266.107 260.019 266.131 259.942C266.156 259.865 266.198 259.795 266.255 259.738C266.312 259.681 266.382 259.639 266.459 259.615C266.535 259.591 266.617 259.585 266.696 259.6C266.858 259.588 267.019 259.638 267.146 259.74C267.246 259.864 267.296 260.021 267.286 260.18V267.74H279.136V260.18C279.122 260.1 279.127 260.019 279.151 259.942C279.176 259.865 279.218 259.795 279.275 259.738C279.332 259.681 279.402 259.639 279.478 259.615C279.555 259.591 279.637 259.585 279.716 259.6C279.878 259.588 280.039 259.638 280.166 259.74C280.266 259.864 280.316 260.021 280.306 260.18V276.73C280.317 276.889 280.267 277.046 280.166 277.17C280.105 277.223 280.034 277.264 279.956 277.29C279.879 277.316 279.797 277.326 279.716 277.32C279.637 277.325 279.557 277.315 279.481 277.289C279.405 277.263 279.336 277.223 279.276 277.17C279.175 277.046 279.125 276.889 279.136 276.73V268.92H267.286V276.73C267.297 276.889 267.247 277.046 267.146 277.17C267.085 277.223 267.014 277.264 266.936 277.29C266.859 277.316 266.777 277.326 266.696 277.32Z" fill="#FBFBFB" stroke="white" stroke-width="0.5"/>
<path d="M290.886 277.32C290.332 277.366 289.774 277.302 289.245 277.13C288.716 276.958 288.227 276.683 287.806 276.32C287.444 275.896 287.169 275.405 286.997 274.874C286.826 274.344 286.761 273.785 286.806 273.23C286.715 272.101 287.074 270.983 287.806 270.12C288.228 269.759 288.718 269.485 289.246 269.313C289.775 269.142 290.332 269.076 290.886 269.12H297.416C297.508 268.116 297.199 267.116 296.556 266.34C295.733 265.724 294.709 265.439 293.686 265.54H292.066C291.122 265.484 290.176 265.634 289.296 265.98C289.019 266.126 288.782 266.338 288.608 266.598C288.433 266.858 288.326 267.158 288.296 267.47C288.281 267.62 288.222 267.763 288.126 267.88C288.071 267.933 288.004 267.974 287.932 268C287.86 268.026 287.782 268.036 287.706 268.03C287.624 268.039 287.541 268.028 287.464 268C287.386 267.971 287.317 267.925 287.261 267.865C287.204 267.805 287.163 267.732 287.139 267.653C287.116 267.574 287.111 267.491 287.126 267.41C287.131 266.939 287.258 266.478 287.495 266.071C287.731 265.665 288.069 265.326 288.476 265.09C289.602 264.534 290.853 264.282 292.106 264.36H293.726C294.396 264.239 295.085 264.283 295.735 264.486C296.384 264.69 296.975 265.048 297.456 265.529C297.938 266.01 298.296 266.601 298.499 267.251C298.703 267.9 298.746 268.589 298.626 269.26V276.68C298.637 276.763 298.63 276.847 298.605 276.928C298.581 277.008 298.54 277.082 298.484 277.145C298.429 277.208 298.361 277.259 298.284 277.294C298.208 277.328 298.125 277.346 298.041 277.346C297.957 277.346 297.874 277.328 297.797 277.294C297.721 277.259 297.653 277.208 297.597 277.145C297.542 277.082 297.501 277.008 297.476 276.928C297.452 276.847 297.445 276.763 297.456 276.68V275.03C296.596 276.516 294.929 277.263 292.456 277.27L290.886 277.32ZM290.886 276.14H292.456C293.314 276.156 294.17 276.045 294.996 275.81C295.652 275.621 296.242 275.25 296.696 274.74C297.129 274.197 297.381 273.533 297.416 272.84V270.35H290.886C290.084 270.262 289.28 270.492 288.646 270.99C288.155 271.393 287.81 271.945 287.661 272.562C287.513 273.179 287.569 273.828 287.823 274.41C288.076 274.992 288.512 275.476 289.064 275.788C289.617 276.1 290.257 276.223 290.886 276.14Z" fill="#FBFBFB" stroke="white" stroke-width="0.5"/>
<path d="M309.956 277.32C309.286 277.44 308.597 277.397 307.947 277.193C307.297 276.99 306.707 276.632 306.225 276.15C305.744 275.669 305.386 275.078 305.182 274.429C304.979 273.779 304.935 273.09 305.056 272.42V269.28C304.937 267.931 305.358 266.59 306.226 265.55C306.739 265.12 307.334 264.797 307.975 264.601C308.616 264.405 309.289 264.34 309.956 264.41H312.246C313.325 264.337 314.403 264.58 315.346 265.11C315.702 265.357 315.997 265.683 316.207 266.063C316.417 266.443 316.536 266.866 316.556 267.3C316.571 267.38 316.567 267.462 316.544 267.54C316.522 267.619 316.481 267.69 316.426 267.75C316.365 267.805 316.294 267.848 316.217 267.876C316.14 267.903 316.058 267.915 315.976 267.91C315.902 267.915 315.827 267.905 315.757 267.881C315.686 267.857 315.621 267.819 315.566 267.77C315.467 267.65 315.404 267.504 315.386 267.35C315.366 267.072 315.28 266.803 315.133 266.566C314.987 266.329 314.785 266.132 314.546 265.99C313.823 265.673 313.034 265.536 312.246 265.59H309.956C308.926 265.462 307.887 265.746 307.066 266.38C306.418 267.2 306.116 268.241 306.226 269.28V272.42C306.109 272.933 306.125 273.468 306.271 273.973C306.417 274.479 306.69 274.939 307.062 275.311C307.435 275.683 307.896 275.954 308.402 276.099C308.908 276.244 309.443 276.258 309.956 276.14H312.246C313.034 276.194 313.823 276.057 314.546 275.74C314.785 275.598 314.987 275.4 315.133 275.163C315.28 274.926 315.366 274.658 315.386 274.38C315.401 274.225 315.464 274.078 315.566 273.96C315.621 273.91 315.686 273.873 315.757 273.849C315.827 273.825 315.902 273.815 315.976 273.82C316.058 273.815 316.14 273.827 316.217 273.854C316.294 273.881 316.365 273.924 316.426 273.98C316.482 274.041 316.523 274.114 316.546 274.194C316.568 274.274 316.572 274.358 316.556 274.44C316.533 274.871 316.412 275.292 316.203 275.67C315.993 276.048 315.7 276.372 315.346 276.62C314.403 277.15 313.325 277.393 312.246 277.32H309.956Z" fill="#FBFBFB" stroke="white" stroke-width="0.5"/>
<path d="M323.596 277.32C323.516 277.332 323.434 277.325 323.357 277.299C323.28 277.274 323.21 277.231 323.153 277.173C323.095 277.116 323.052 277.046 323.027 276.969C323.001 276.892 322.994 276.81 323.006 276.73V258.59C323.006 258.434 323.068 258.283 323.179 258.173C323.289 258.062 323.44 258 323.596 258C323.753 258 323.903 258.062 324.013 258.173C324.124 258.283 324.186 258.434 324.186 258.59V270.59L331.436 264.36C331.486 264.299 331.55 264.25 331.623 264.218C331.696 264.187 331.775 264.173 331.854 264.178C331.933 264.182 332.01 264.206 332.078 264.246C332.146 264.287 332.204 264.343 332.246 264.41C332.308 264.463 332.356 264.53 332.388 264.605C332.419 264.68 332.433 264.761 332.428 264.842C332.424 264.924 332.4 265.003 332.36 265.073C332.319 265.144 332.263 265.204 332.196 265.25L327.026 269.69L332.866 276.31C332.927 276.364 332.975 276.431 333.006 276.507C333.036 276.582 333.049 276.664 333.044 276.745C333.038 276.826 333.013 276.905 332.972 276.975C332.931 277.045 332.874 277.105 332.806 277.15C332.755 277.209 332.69 277.256 332.618 277.287C332.545 277.317 332.467 277.33 332.389 277.326C332.31 277.321 332.234 277.298 332.166 277.259C332.098 277.22 332.04 277.165 331.996 277.1L326.116 270.46L324.186 272.13V276.73C324.198 276.81 324.191 276.892 324.165 276.969C324.14 277.046 324.097 277.116 324.039 277.173C323.982 277.231 323.912 277.274 323.835 277.299C323.758 277.325 323.676 277.332 323.596 277.32Z" fill="#FBFBFB" stroke="white" stroke-width="0.5"/>
<path d="M342.296 277.32C341.731 277.369 341.163 277.299 340.627 277.117C340.09 276.934 339.598 276.642 339.18 276.259C338.763 275.875 338.43 275.41 338.202 274.891C337.974 274.372 337.856 273.812 337.856 273.245C337.856 272.679 337.974 272.118 338.202 271.6C338.43 271.081 338.763 270.615 339.18 270.232C339.598 269.849 340.09 269.557 340.627 269.374C341.163 269.191 341.731 269.122 342.296 269.17H348.816C348.911 268.168 348.606 267.168 347.966 266.39C347.142 265.777 346.119 265.492 345.096 265.59H343.466C342.522 265.535 341.576 265.685 340.696 266.03C340.42 266.178 340.184 266.391 340.01 266.651C339.836 266.91 339.728 267.209 339.696 267.52C339.685 267.672 339.626 267.816 339.526 267.93C339.472 267.983 339.408 268.024 339.337 268.049C339.266 268.075 339.191 268.086 339.116 268.08C339.034 268.087 338.951 268.076 338.874 268.049C338.796 268.021 338.725 267.977 338.666 267.92C338.613 267.857 338.573 267.784 338.549 267.705C338.525 267.626 338.517 267.542 338.526 267.46C338.531 266.99 338.658 266.529 338.895 266.122C339.131 265.716 339.47 265.377 339.876 265.14C341.002 264.586 342.253 264.334 343.506 264.41H345.136C345.806 264.29 346.495 264.333 347.145 264.537C347.794 264.741 348.385 265.098 348.867 265.58C349.348 266.061 349.706 266.652 349.909 267.301C350.113 267.951 350.156 268.64 350.036 269.31V276.73C350.036 276.887 349.974 277.037 349.863 277.148C349.753 277.258 349.602 277.32 349.446 277.32C349.289 277.32 349.139 277.258 349.029 277.148C348.918 277.037 348.856 276.887 348.856 276.73V275.08C347.996 276.567 346.329 277.314 343.856 277.32H342.296ZM342.296 276.14H343.856C344.718 276.156 345.577 276.045 346.406 275.81C347.059 275.619 347.644 275.249 348.096 274.74C348.529 274.198 348.781 273.533 348.816 272.84V270.35H342.296C341.491 270.262 340.684 270.491 340.046 270.99C339.554 271.394 339.208 271.947 339.059 272.565C338.911 273.184 338.968 273.834 339.223 274.417C339.477 274.999 339.915 275.483 340.47 275.794C341.025 276.105 341.666 276.227 342.296 276.14Z" fill="#FBFBFB" stroke="white" stroke-width="0.5"/>
<path d="M362.246 277.32C361.59 277.438 360.915 277.395 360.279 277.197C359.643 276.998 359.064 276.649 358.592 276.179C358.12 275.708 357.768 275.131 357.567 274.496C357.366 273.861 357.321 273.186 357.436 272.53V265.59H355.666C355.509 265.59 355.359 265.528 355.249 265.417C355.138 265.306 355.076 265.156 355.076 265C355.076 264.843 355.138 264.693 355.249 264.583C355.359 264.472 355.509 264.41 355.666 264.41H357.436V261.08C357.425 260.997 357.432 260.912 357.456 260.832C357.481 260.751 357.522 260.677 357.577 260.614C357.633 260.551 357.701 260.5 357.777 260.466C357.854 260.431 357.937 260.413 358.021 260.413C358.105 260.413 358.188 260.431 358.264 260.466C358.341 260.5 358.409 260.551 358.464 260.614C358.52 260.677 358.561 260.751 358.585 260.832C358.61 260.912 358.617 260.997 358.606 261.08V264.41H362.226C362.382 264.41 362.532 264.472 362.643 264.583C362.754 264.693 362.816 264.843 362.816 265C362.816 265.156 362.754 265.306 362.643 265.417C362.532 265.528 362.382 265.59 362.226 265.59H358.596V272.53C358.489 273.539 358.78 274.551 359.406 275.35C360.215 275.963 361.226 276.245 362.236 276.14C362.486 276.14 362.646 276.19 362.726 276.3C362.82 276.422 362.867 276.575 362.856 276.73C362.866 277.12 362.656 277.32 362.246 277.32Z" fill="#FBFBFB" stroke="white" stroke-width="0.5"/>
<path d="M369.426 277.32C369.346 277.332 369.264 277.325 369.187 277.299C369.11 277.274 369.04 277.231 368.983 277.173C368.926 277.116 368.882 277.046 368.857 276.969C368.831 276.892 368.824 276.81 368.836 276.73V258.59C368.836 258.434 368.898 258.283 369.009 258.173C369.12 258.062 369.27 258 369.426 258C369.583 258 369.733 258.062 369.843 258.173C369.954 258.283 370.016 258.434 370.016 258.59V266.59C370.863 265.123 372.529 264.387 375.016 264.38H375.796C376.466 264.26 377.155 264.303 377.805 264.507C378.455 264.71 379.045 265.068 379.527 265.549C380.008 266.031 380.366 266.622 380.569 267.271C380.773 267.921 380.816 268.61 380.696 269.28V276.7C380.708 276.78 380.701 276.862 380.675 276.939C380.65 277.016 380.607 277.086 380.549 277.143C380.492 277.201 380.422 277.244 380.345 277.269C380.268 277.295 380.186 277.302 380.106 277.29C380.027 277.3 379.946 277.292 379.87 277.265C379.795 277.239 379.726 277.196 379.67 277.139C379.614 277.082 379.572 277.012 379.547 276.936C379.522 276.86 379.515 276.779 379.526 276.7V269.28C379.643 268.767 379.627 268.232 379.481 267.726C379.335 267.221 379.062 266.76 378.69 266.389C378.317 266.017 377.856 265.746 377.35 265.601C376.844 265.456 376.309 265.442 375.796 265.56H375.016C373.776 265.485 372.539 265.758 371.446 266.35C371.03 266.614 370.686 266.977 370.443 267.406C370.201 267.835 370.068 268.317 370.056 268.81V276.7C370.076 276.786 370.073 276.876 370.048 276.961C370.023 277.046 369.977 277.123 369.914 277.185C369.851 277.247 369.773 277.292 369.687 277.316C369.602 277.339 369.512 277.341 369.426 277.32Z" fill="#FBFBFB" stroke="white" stroke-width="0.5"/>
<path d="M392.016 277.32C391.349 277.442 390.662 277.4 390.014 277.199C389.366 276.997 388.776 276.643 388.295 276.164C387.814 275.686 387.455 275.099 387.25 274.452C387.045 273.805 386.999 273.119 387.116 272.45V269.31C386.994 267.952 387.414 266.6 388.286 265.55C388.8 265.12 389.395 264.797 390.035 264.602C390.676 264.406 391.35 264.341 392.016 264.41H394.316C394.986 264.29 395.675 264.333 396.325 264.537C396.975 264.741 397.565 265.098 398.047 265.58C398.528 266.061 398.886 266.652 399.089 267.301C399.293 267.951 399.337 268.64 399.216 269.31V272.42C399.337 273.09 399.293 273.78 399.089 274.429C398.886 275.079 398.528 275.669 398.047 276.151C397.565 276.632 396.975 276.99 396.325 277.194C395.675 277.397 394.986 277.441 394.316 277.32H392.016ZM388.296 272.45C388.183 272.961 388.202 273.492 388.349 273.993C388.497 274.495 388.769 274.951 389.14 275.32C389.511 275.688 389.97 275.956 390.473 276.1C390.975 276.243 391.506 276.257 392.016 276.14H394.316C394.829 276.259 395.363 276.246 395.869 276.101C396.375 275.956 396.836 275.685 397.208 275.312C397.58 274.94 397.852 274.48 397.997 273.974C398.141 273.468 398.155 272.933 398.036 272.42V269.31C398.155 268.798 398.141 268.263 397.997 267.757C397.852 267.251 397.58 266.79 397.208 266.418C396.836 266.046 396.375 265.775 395.869 265.63C395.363 265.485 394.829 265.471 394.316 265.59H392.016C391.27 265.551 390.525 265.667 389.826 265.93C389.296 266.154 388.875 266.578 388.656 267.11C388.388 267.812 388.266 268.56 388.296 269.31V272.45Z" fill="#FBFBFB" stroke="white" stroke-width="0.5"/>
<path d="M406.416 277.32C406.336 277.332 406.254 277.325 406.177 277.299C406.1 277.274 406.03 277.231 405.973 277.173C405.915 277.116 405.872 277.046 405.847 276.969C405.821 276.892 405.814 276.81 405.826 276.73V265C405.826 264.923 405.841 264.846 405.871 264.774C405.9 264.703 405.944 264.638 405.999 264.583C406.053 264.528 406.118 264.485 406.19 264.455C406.262 264.425 406.338 264.41 406.416 264.41C406.493 264.41 406.57 264.425 406.642 264.455C406.713 264.485 406.778 264.528 406.833 264.583C406.888 264.638 406.931 264.703 406.961 264.774C406.991 264.846 407.006 264.923 407.006 265V266.62C407.846 265.15 409.506 264.41 412.006 264.41H412.786C413.457 264.288 414.147 264.33 414.798 264.533C415.449 264.736 416.041 265.093 416.524 265.575C417.006 266.056 417.365 266.648 417.569 267.298C417.773 267.949 417.817 268.639 417.696 269.31V276.73C417.696 276.887 417.634 277.037 417.523 277.147C417.412 277.258 417.262 277.32 417.106 277.32C416.949 277.32 416.799 277.258 416.689 277.147C416.578 277.037 416.516 276.887 416.516 276.73V269.31C416.632 268.797 416.617 268.262 416.471 267.757C416.324 267.251 416.052 266.791 415.679 266.419C415.307 266.047 414.846 265.776 414.339 265.631C413.833 265.486 413.299 265.472 412.786 265.59H412.006C410.765 265.515 409.529 265.788 408.436 266.38C408.022 266.646 407.679 267.009 407.439 267.438C407.198 267.867 407.067 268.348 407.056 268.84V276.73C407.07 276.815 407.063 276.903 407.035 276.985C407.007 277.066 406.959 277.14 406.895 277.198C406.832 277.257 406.755 277.299 406.671 277.32C406.587 277.341 406.5 277.341 406.416 277.32Z" fill="#FBFBFB" stroke="white" stroke-width="0.5"/>
</g>
<path d="M269.43 156.917C268.11 157.602 266.617 157.881 265.138 157.717C263.66 157.553 262.264 156.955 261.126 155.997C259.987 155.04 259.159 153.767 258.744 152.338C258.33 150.91 258.348 149.391 258.797 147.973C259.246 146.555 260.105 145.302 261.266 144.373C262.427 143.443 263.837 142.879 265.319 142.751C266.801 142.623 268.287 142.937 269.59 143.654C270.894 144.37 271.955 145.457 272.64 146.777C273.095 147.654 273.373 148.611 273.458 149.595C273.543 150.58 273.434 151.571 273.136 152.512C272.838 153.454 272.357 154.328 271.721 155.083C271.085 155.839 270.307 156.462 269.43 156.917Z" fill="url(#paint0_linear_226_854)"/>
<path d="M304.82 331.547C240.98 357.287 180.66 353.287 159.89 318.347C152.75 306.347 151.06 291.987 154.06 276.527" stroke="url(#paint1_linear_226_854)" stroke-width="2" stroke-linecap="round"/>
<path d="M301.62 324.647C302.999 324.089 304.512 323.952 305.968 324.254C307.425 324.556 308.759 325.284 309.802 326.344C310.845 327.404 311.551 328.75 311.829 330.211C312.107 331.672 311.946 333.183 311.365 334.553C310.785 335.922 309.811 337.089 308.567 337.905C307.324 338.721 305.866 339.15 304.379 339.137C302.892 339.125 301.441 338.672 300.212 337.835C298.982 336.999 298.028 335.816 297.47 334.437C297.098 333.522 296.911 332.542 296.919 331.555C296.926 330.567 297.129 329.591 297.514 328.681C297.9 327.772 298.461 326.947 299.165 326.255C299.87 325.563 300.704 325.016 301.62 324.647Z" fill="url(#paint2_linear_226_854)"/>
<path d="M265.58 150.287C338.18 112.367 412.37 112.287 435.88 151.767C460.94 193.917 418.88 265.167 341.95 310.927" stroke="url(#paint3_linear_226_854)" stroke-width="2" stroke-linecap="round"/>
<path d="M101.146 201.379V204.504H79.2715V201.379H88.4512V196.35H92.0645V201.379H101.146ZM95.3848 212.512L92.4062 211.828C93.6758 208.964 94.5059 206.555 94.8965 204.602L98.3145 205.383C97.0124 208.833 96.0358 211.21 95.3848 212.512ZM87.2793 211.779L84.2031 212.658C83.9753 210.445 83.3242 208.036 82.25 205.432L85.1309 204.699C86.2376 207.076 86.9538 209.436 87.2793 211.779ZM99.9258 231.848L97.7285 234.582C96.6543 233.345 94.7663 231.49 92.0645 229.016V241.711H88.4512V228.527C85.847 232.629 83.0638 235.852 80.1016 238.195C79.3529 237.154 78.5228 236.258 77.6113 235.51C80.5736 233.589 83.3893 230.692 86.0586 226.818C86.6445 225.939 87.1816 225.077 87.6699 224.23H78.6855V221.105H88.4512V215.832H78.5391V212.707H101.732V215.832H92.0645V221.105H101.342V224.23H92.0645V225.451C94.7012 227.404 97.2402 229.471 99.6816 231.652C99.7793 231.717 99.8607 231.783 99.9258 231.848ZM123.803 212.902V216.418H118.188V241.516H114.574V216.418H107.104V217.639C107.104 227.762 104.874 235.445 100.414 240.686C99.9909 241.174 99.5677 241.63 99.1445 242.053C98.6888 241.271 97.9238 240.49 96.8496 239.709C96.7194 239.611 96.6055 239.53 96.5078 239.465C100.772 235.298 103.083 229.162 103.441 221.057C103.507 220.015 103.539 218.859 103.539 217.59V200.207L106.273 201.037C112.556 199.637 117.178 198.205 120.141 196.74L123.168 199.523C119.75 201.053 114.395 202.551 107.104 204.016V212.902H123.803ZM158.5 209.973H149.613V241.809H145.951V209.973H143.559C141.964 213.716 140.206 216.89 138.285 219.494C137.504 218.843 136.397 218.094 134.965 217.248C138.741 212.593 141.703 205.822 143.852 196.936C143.917 196.675 143.982 196.415 144.047 196.154L147.855 196.936C147.009 200.419 146.065 203.544 145.023 206.311H158.5V209.973ZM181.352 206.311V209.973H173.783V236.877C173.783 238.895 173.295 240.165 172.318 240.686C172.09 240.816 171.879 240.913 171.684 240.979C170.414 241.499 167.647 241.76 163.383 241.76C163.122 240.327 162.715 239.025 162.162 237.854C165.385 237.951 167.663 237.967 168.998 237.902C169.649 237.674 170.007 237.333 170.072 236.877V209.973H162.748C161.023 213.944 159.281 217.102 157.523 219.445C156.742 218.664 155.668 217.915 154.301 217.199C158.109 212.479 161.023 205.627 163.041 196.643C163.074 196.48 163.106 196.317 163.139 196.154L166.85 196.887C166.036 200.467 165.124 203.609 164.115 206.311H181.352ZM191.83 238L202.572 219.055L192.562 201.33H197.641L202.67 210.705C202.865 211.096 203.158 211.665 203.549 212.414C204.363 213.911 205.03 215.116 205.551 216.027H205.746C206.69 213.977 207.553 212.202 208.334 210.705L213.266 201.33H218.1L208.09 219.299L218.783 238H213.705L208.285 228.088C206.983 225.581 205.941 223.612 205.16 222.18H204.965C204.216 223.71 203.223 225.679 201.986 228.088L196.713 238H191.83ZM256.703 215.734L258.754 213.977C261.391 215.311 263.62 216.825 265.443 218.518L263.246 220.471C261.391 218.68 259.291 217.15 256.947 215.881C256.85 215.816 256.768 215.767 256.703 215.734ZM264.76 229.406L262.562 231.408C260.902 229.618 258.852 228.007 256.41 226.574C256.28 226.509 256.166 226.444 256.068 226.379L258.168 224.67C260.707 226.102 262.904 227.681 264.76 229.406ZM251.869 232.092H268.178C268.406 229.65 268.585 226.997 268.715 224.133H252.943C252.748 225.728 252.39 228.381 251.869 232.092ZM269.154 213.244H254.359C254.294 213.83 254.18 214.742 254.018 215.979C253.757 218.192 253.562 219.836 253.432 220.91H268.91C269.04 218.046 269.122 215.49 269.154 213.244ZM275.404 224.133H272.084C271.986 226.314 271.791 228.967 271.498 232.092H275.014V235.266H271.156C270.798 237.642 270.31 239.253 269.691 240.1C268.943 241.109 267.885 241.662 266.518 241.76C265.443 241.89 263.62 241.89 261.049 241.76C260.984 240.653 260.707 239.66 260.219 238.781C261.684 238.879 263.311 238.928 265.102 238.928C265.85 238.895 266.404 238.667 266.762 238.244C267.152 237.691 267.462 236.698 267.689 235.266H251.381L250.941 237.512L247.475 237.268C248.191 233.622 248.907 229.243 249.623 224.133H246.107V223.596L244.447 226.184C243.829 224.914 242.51 222.814 240.492 219.885V241.76H237.025V218.615C235.007 224.833 232.908 229.504 230.727 232.629C230.531 232.141 229.896 231.066 228.822 229.406C231.329 225.891 233.526 221.073 235.414 214.953C235.935 213.26 236.358 211.665 236.684 210.168H229.896V206.75H237.025V196.154H240.492V206.75H246.596V209.338C249.395 205.725 251.495 201.314 252.895 196.105L256.41 196.936C256.052 198.303 255.434 200.142 254.555 202.453H274.574V205.773H253.041C251.544 208.736 249.981 211.177 248.354 213.098C247.507 212.251 246.531 211.47 245.424 210.754L245.961 210.168H240.492V215.295C242.348 217.443 244.219 219.771 246.107 222.277V220.91H250.062C250.746 215.669 251.169 212.072 251.332 210.119H272.621C272.621 210.152 272.605 210.721 272.572 211.828C272.442 215.865 272.328 218.892 272.23 220.91H275.404V224.133ZM309.613 209.973H300.727V241.809H297.064V209.973H294.672C293.077 213.716 291.319 216.89 289.398 219.494C288.617 218.843 287.51 218.094 286.078 217.248C289.854 212.593 292.816 205.822 294.965 196.936C295.03 196.675 295.095 196.415 295.16 196.154L298.969 196.936C298.122 200.419 297.178 203.544 296.137 206.311H309.613V209.973ZM332.465 206.311V209.973H324.896V236.877C324.896 238.895 324.408 240.165 323.432 240.686C323.204 240.816 322.992 240.913 322.797 240.979C321.527 241.499 318.76 241.76 314.496 241.76C314.236 240.327 313.829 239.025 313.275 237.854C316.498 237.951 318.777 237.967 320.111 237.902C320.762 237.674 321.12 237.333 321.186 236.877V209.973H313.861C312.136 213.944 310.395 217.102 308.637 219.445C307.855 218.664 306.781 217.915 305.414 217.199C309.223 212.479 312.136 205.627 314.154 196.643C314.187 196.48 314.219 196.317 314.252 196.154L317.963 196.887C317.149 200.467 316.238 203.609 315.229 206.311H332.465ZM373.51 211.291L371.117 210.314C372.777 207.613 374.063 204.976 374.975 202.404L377.855 203.479C375.707 207.548 374.258 210.152 373.51 211.291ZM356.371 203.283L358.812 202.453C360.57 205.22 361.661 207.645 362.084 209.729L359.447 210.754C358.992 208.508 357.966 206.018 356.371 203.283ZM353.539 212.023H365.209V201.184H353.539V212.023ZM380.346 212.023V201.184H368.871V212.023H380.346ZM389.232 226.818V230.09H345.043V226.818H365.209V222.277H349.145V219.25H365.209V215.148H350.023V198.059H384.057V215.148H368.871V219.25H385.033V222.277H368.871V226.818H389.232ZM348.559 242.053L345.092 240.393C347.208 238.602 348.998 235.982 350.463 232.531C350.528 232.368 350.593 232.222 350.658 232.092L354.223 232.971C352.628 236.942 350.74 239.969 348.559 242.053ZM359.154 233.361L362.621 233.117C363.337 235.982 363.695 238.618 363.695 241.027L360.082 241.564C360.082 239.188 359.773 236.454 359.154 233.361ZM369.408 233.459L372.875 232.727C374.275 235.689 375.219 238.326 375.707 240.637L372.045 241.564C371.557 239.188 370.678 236.486 369.408 233.459ZM379.516 233.264L382.885 232.092C385.391 234.598 387.507 237.268 389.232 240.1C389.33 240.262 389.411 240.393 389.477 240.49L385.863 241.906C384.529 239.4 382.51 236.633 379.809 233.605C379.678 233.475 379.581 233.361 379.516 233.264ZM407.23 204.113V210.021H403.666V200.646H422.611V196.203H426.371V200.646H445.512V210.021H441.801V204.113H407.23ZM414.213 226.574H436.479C432.084 225.305 428.161 223.726 424.711 221.838C421.488 223.628 417.989 225.207 414.213 226.574ZM414.555 236.877H434.77V229.65H414.555V236.877ZM417.289 211.584L417.143 211.779C418.998 213.928 421.537 215.946 424.76 217.834C427.917 215.848 430.456 213.765 432.377 211.584H417.289ZM435.551 208.508L438.041 210.07C435.762 213.586 432.491 216.776 428.227 219.641C433.891 222.245 440.352 224.003 447.611 224.914C446.602 225.988 445.821 227.16 445.268 228.43C442.956 228.104 440.71 227.665 438.529 227.111V241.711H434.77V240.1H414.555V241.76H410.99V227.6C408.288 228.413 405.766 229.081 403.422 229.602C402.934 228.299 402.315 227.209 401.566 226.33C408.76 224.995 415.336 222.814 421.293 219.787C418.624 217.997 416.378 216.044 414.555 213.928C412.276 215.751 409.672 217.395 406.742 218.859C406.026 217.785 405.196 216.906 404.252 216.223C409.851 213.749 414.229 210.493 417.387 206.457C417.777 205.936 418.135 205.432 418.461 204.943L422.465 205.676C421.553 206.945 420.788 207.938 420.17 208.654H434.916L435.551 208.508ZM484.848 198.059H497.299C498.633 204.536 500.749 209.956 503.646 214.318C504.265 215.262 504.9 216.092 505.551 216.809C504.379 217.395 503.305 218.208 502.328 219.25C499.073 215.246 496.518 209.663 494.662 202.502C494.564 202.176 494.483 201.867 494.418 201.574H484.848V198.059ZM482.26 202.355L485.922 203.088C484.392 209.533 482.081 214.855 478.988 219.055C478.858 219.25 478.744 219.413 478.646 219.543C477.8 218.827 476.726 218.127 475.424 217.443C478.386 213.895 480.665 208.866 482.26 202.355ZM477.865 222.863L475.717 226.184C474.903 224.784 473.357 222.57 471.078 219.543V241.76H467.465V218.029C465.447 224.312 463.233 229.178 460.824 232.629C460.531 231.848 459.864 230.773 458.822 229.406C461.492 225.923 463.803 221.089 465.756 214.904C466.244 213.277 466.667 211.698 467.025 210.168H459.75V206.75H467.465V196.154H471.078V206.75H477.572V210.168H471.078V215.197C473.129 217.313 475.326 219.787 477.67 222.619C477.768 222.717 477.833 222.798 477.865 222.863ZM493.49 226.135L496.762 224.719C500.115 229.504 502.67 234.11 504.428 238.537C504.656 239.123 504.851 239.66 505.014 240.148L501.4 241.809C501.042 240.572 500.538 239.221 499.887 237.756C494.906 238.146 487.175 238.716 476.693 239.465L476.156 235.705C476.84 235.673 478.581 235.591 481.381 235.461C483.594 229.667 485.499 222.798 487.094 214.855C487.126 214.79 487.143 214.742 487.143 214.709L491.391 215.734C489.177 223.514 487.077 230.008 485.092 235.217C486.687 235.119 489.226 234.956 492.709 234.729C495.215 234.533 497.087 234.403 498.324 234.338C496.729 231.311 495.118 228.576 493.49 226.135Z" fill="white"/>
<defs>
<linearGradient id="paint0_linear_226_854" x1="258.06" y1="150.877" x2="440.84" y2="136.157" gradientUnits="userSpaceOnUse">
<stop offset="0.12" stop-color="#97D2CC"/>
<stop offset="1" stop-color="#4FA3DB"/>
</linearGradient>
<linearGradient id="paint1_linear_226_854" x1="153.45" y1="315.587" x2="310.33" y2="302.947" gradientUnits="userSpaceOnUse">
<stop offset="0.12" stop-color="#97D2CC"/>
<stop offset="1" stop-color="#4FA3DB"/>
</linearGradient>
<linearGradient id="paint2_linear_226_854" x1="155.7" y1="343.597" x2="312.59" y2="330.957" gradientUnits="userSpaceOnUse">
<stop offset="0.12" stop-color="#97D2CC"/>
<stop offset="1" stop-color="#4FA3DB"/>
</linearGradient>
<linearGradient id="paint3_linear_226_854" x1="263.92" y1="223.597" x2="446.7" y2="208.877" gradientUnits="userSpaceOnUse">
<stop offset="0.12" stop-color="#97D2CC"/>
<stop offset="1" stop-color="#4FA3DB"/>
</linearGradient>
</defs>
</svg>
