<svg width="200" height="58" viewBox="0 0 200 58" fill="none" xmlns="http://www.w3.org/2000/svg">
<g clip-path="url(#clip0_1051_2099)">
<path d="M103.64 16.2305C101.66 16.2305 99.8101 16.6005 98.1701 17.3205C95.7101 18.3905 93.7201 20.2405 92.3801 22.6405C91.0401 25.0405 90.3301 27.9805 90.3301 31.3005C90.3301 35.7405 91.6101 39.5105 93.9601 42.1905C96.3001 44.8705 99.7101 46.3705 103.64 46.3705C105.62 46.3705 107.47 46.0005 109.11 45.2805C111.57 44.2105 113.56 42.3605 114.9 39.9605C116.24 37.5605 116.95 34.6205 116.95 31.3005C116.95 26.8605 115.67 23.0905 113.32 20.4105C110.97 17.7305 107.57 16.2205 103.64 16.2305ZM108.99 35.5505C108.7 36.8605 108.21 37.9905 107.35 38.8905L107.34 38.9005L107.33 38.9105C106.44 39.8905 105.05 40.4405 103.64 40.4305C102.23 40.4305 100.84 39.8805 99.9501 38.9105L99.9401 38.9005L99.9301 38.8905C99.0701 37.9805 98.5701 36.8605 98.2901 35.5505C98.0101 34.2405 97.9501 32.7605 97.9501 31.2905C97.9501 29.8105 98.0001 28.3405 98.2901 27.0305C98.5701 25.7205 99.0701 24.5905 99.9301 23.6905L99.9401 23.6805L99.9501 23.6705C100.84 22.6905 102.23 22.1405 103.64 22.1505C105.05 22.1505 106.44 22.7005 107.33 23.6705L107.34 23.6805L107.35 23.6905C108.21 24.6005 108.71 25.7205 108.99 27.0305C109.27 28.3405 109.33 29.8205 109.33 31.2905C109.33 32.7705 109.27 34.2405 108.99 35.5505Z" fill="black"/>
<path d="M145.11 10.8105H137.99V16.8205H134.99H134.43H128.37V10.8105H121.25V16.8205H117.69V22.7405H121.25V35.0005C121.25 36.5905 121.26 38.0405 121.39 39.3705C121.49 40.3705 121.66 41.3005 121.96 42.1605C122.19 42.8005 122.5 43.4105 122.92 43.9505C123.55 44.7605 124.43 45.3905 125.5 45.7805C126.57 46.1705 127.84 46.3505 129.34 46.3505C130.78 46.3505 132.38 46.1905 133.99 45.9305L134.98 45.7705V39.7805L133.58 40.0505C133.08 40.1505 132.48 40.2405 131.91 40.3105C131.34 40.3805 130.78 40.4305 130.39 40.4305C129.76 40.4305 129.42 40.3005 129.21 40.1705C129.05 40.0705 128.94 39.9405 128.82 39.7305C128.65 39.4205 128.51 38.9105 128.44 38.2405C128.37 37.5705 128.36 36.7705 128.36 35.8905V22.7505H134.42H134.98H137.98V35.0005C137.98 36.5905 137.99 38.0405 138.12 39.3705C138.22 40.3705 138.39 41.3005 138.69 42.1605C138.92 42.8005 139.23 43.4105 139.65 43.9505C140.28 44.7605 141.16 45.3905 142.23 45.7805C143.3 46.1705 144.56 46.3505 146.07 46.3505C147.51 46.3505 149.12 46.1905 150.72 45.9305L151.71 45.7705V39.7805L150.31 40.0505C149.81 40.1505 149.21 40.2405 148.64 40.3105C148.07 40.3805 147.51 40.4305 147.12 40.4305C146.49 40.4305 146.15 40.3005 145.94 40.1705C145.78 40.0705 145.67 39.9405 145.55 39.7305C145.38 39.4205 145.24 38.9105 145.17 38.2405C145.1 37.5705 145.09 36.7705 145.09 35.8905V22.7505H151.71V16.8305H145.09V10.8105H145.11Z" fill="black"/>
<path d="M171.31 17.9705C169.32 16.7505 167.05 16.2305 164.83 16.2305C163.39 16.2305 161.87 16.4505 160.37 16.9705C158.13 17.7505 155.96 19.2105 154.38 21.5405C152.79 23.8705 151.82 27.0205 151.82 31.0905C151.82 33.8705 152.27 36.1805 153.03 38.0905C153.78 39.9905 154.85 41.4805 156.04 42.6105C156.04 42.6105 156.04 42.6105 156.05 42.6205C157.43 43.9705 159.05 44.9205 160.83 45.5105C162.62 46.1005 164.56 46.3505 166.64 46.3505C169.48 46.3505 172.54 45.8805 175.54 45.0005L176.39 44.7505V38.7305L174.88 39.1705C172.07 39.9905 169.21 40.4305 166.84 40.4305C165.63 40.4305 164.57 40.3105 163.68 40.0405C163.01 39.8405 162.44 39.5605 161.94 39.1805C161.2 38.6205 160.61 37.8405 160.17 36.6605C159.82 35.7205 159.58 34.5105 159.49 33.0105H176.86L176.94 31.9105C176.98 31.2705 177.01 30.6505 177.01 30.0505C177.01 27.6205 176.65 25.5405 175.98 23.7605C174.98 21.1205 173.3 19.1905 171.31 17.9705ZM159.98 27.1005C160.42 25.4705 161.08 24.3005 161.83 23.5305C162.78 22.5605 163.87 22.1405 165.08 22.1405C165.72 22.1405 166.28 22.2605 166.78 22.4905C167.53 22.8405 168.18 23.4305 168.71 24.3905C169.1 25.0905 169.41 25.9905 169.6 27.0905H159.98V27.1005Z" fill="black"/>
<path d="M198.1 16.4507C197.55 16.3307 197.02 16.2807 196.56 16.2507C196.11 16.2207 195.73 16.2207 195.5 16.2207C193.21 16.2207 191.16 16.8707 189.46 17.9907C188.79 18.4307 188.17 18.9507 187.61 19.5207V16.8307H180.49V45.7507H187.61V28.3507C188.16 26.7807 189.13 25.4107 190.39 24.4407C191.69 23.4407 193.25 22.7307 195.01 22.5307C196.32 22.3807 199.04 22.9307 199.04 22.9307V16.6507L198.1 16.4507Z" fill="black"/>
<path d="M86.78 20.9805C86.47 20.2805 86.06 19.6105 85.51 19.0205C84.69 18.1205 83.56 17.4105 82.15 16.9405C80.73 16.4705 79.01 16.2305 76.9 16.2305C76.7 16.2305 76.49 16.2405 76.29 16.2405L76.32 16.2305L66.3 16.4705V18.4805V24.6905L67.94 24.0005C70.69 22.8405 73.55 22.1405 76.25 22.1405C77.49 22.1405 78.35 22.3105 78.92 22.5505C79.35 22.7305 79.62 22.9405 79.83 23.1805C80.14 23.5405 80.34 24.0205 80.45 24.6905C80.57 25.3605 80.58 26.1805 80.58 27.0805V27.9305C78.66 27.9705 76.75 28.0705 74.92 28.3605C72.72 28.7105 70.62 29.3405 68.76 30.4905C67.54 31.2405 66.48 32.2105 65.72 33.4405C64.96 34.6705 64.54 36.1605 64.54 37.8605C64.54 40.2505 65.35 42.4105 66.86 43.9405C68.37 45.4805 70.54 46.3605 73.03 46.3505C74.9 46.3505 76.66 45.8705 78.26 45.0805C79.07 44.6805 79.84 44.1905 80.57 43.6505V45.7505H87.69V27.8805C87.69 26.5705 87.69 25.2205 87.52 23.8905C87.4 22.9005 87.18 21.9105 86.78 20.9805ZM80.57 37.2705C79.71 38.1605 78.82 38.9405 77.91 39.4805C76.88 40.0905 75.85 40.4305 74.73 40.4305C73.66 40.4305 72.92 40.1105 72.43 39.6505C71.95 39.1805 71.65 38.5405 71.64 37.6005C71.64 36.9105 71.81 36.3505 72.12 35.8405C72.43 35.3405 72.89 34.8805 73.5 34.4805C74.49 33.8705 75.72 33.5105 77.12 33.3205C78.19 33.1805 79.35 33.1305 80.56 33.1105V37.2705H80.57Z" fill="black"/>
<path d="M28.9 0C12.97 0 0 12.97 0 28.9C0 44.84 12.97 57.8 28.9 57.8C44.83 57.8 57.8 44.83 57.8 28.9C57.8 12.97 44.84 0 28.9 0ZM30.7 53.81V41.65H34.22C35.03 41.65 35.69 40.99 35.69 40.18V37.32H43.12C43.93 37.32 44.59 36.66 44.59 35.85V22.66C44.59 21.85 43.93 21.19 43.12 21.19H39.83V13.03C39.83 12.04 39.02 11.23 38.03 11.23C37.04 11.23 36.23 12.04 36.23 13.03V21.19H21.57V13.03C21.57 12.04 20.76 11.23 19.77 11.23C18.78 11.23 17.97 12.04 17.97 13.03V21.19H14.68C13.87 21.19 13.21 21.85 13.21 22.66V35.85C13.21 36.66 13.87 37.32 14.68 37.32H22.11V40.18C22.11 40.99 22.77 41.65 23.58 41.65H27.1V53.81C14.08 52.88 3.93 42.01 3.93 28.9C3.93 15.13 15.13 3.92 28.91 3.92C42.68 3.92 53.89 15.12 53.89 28.9C53.88 42.01 43.72 52.88 30.7 53.81ZM15.84 34.69V23.82H25.11C26.36 25.28 28.33 27.59 28.38 27.64C28.5 27.76 28.63 27.79 28.71 27.79C28.8 27.79 28.93 27.76 29.06 27.63C29.1 27.59 29.91 26.71 31.83 24.63C32.09 24.35 32.34 24.07 32.58 23.82H41.95V34.69H34.21H23.59H15.84ZM24.74 39.02V37H33.06V39.02H24.74Z" fill="black"/>
<g clip-path="url(#clip1_1051_2099)">
<path d="M199.35 -13H0V71.79H199.35V-13Z" fill="#CD2438"/>
<path d="M103.01 19.7617C103 19.7617 102.99 19.7617 102.98 19.7617C101.49 19.7617 100.1 20.0417 98.8497 20.5817C97.0097 21.3817 95.4997 22.7717 94.4797 24.6017C93.4497 26.4417 92.9297 28.6517 92.9297 31.1717C92.9297 34.5217 93.8797 37.3817 95.6797 39.4217C97.4597 41.4517 100.05 42.5717 102.97 42.5717C102.98 42.5717 102.99 42.5717 102.99 42.5717C104.48 42.5717 105.87 42.2917 107.13 41.7517C108.97 40.9517 110.48 39.5617 111.5 37.7317C112.53 35.8917 113.05 33.6817 113.05 31.1617C113.05 27.8117 112.1 24.9517 110.3 22.9117C108.52 20.8817 105.93 19.7617 103.01 19.7617ZM107.22 34.4617C106.98 35.5717 106.56 36.4317 105.93 37.0917C105.23 37.8617 104.13 38.3117 102.99 38.3117H102.98C101.84 38.3117 100.75 37.8617 100.05 37.1017C99.4097 36.4317 98.9897 35.5717 98.7497 34.4617C98.5197 33.3917 98.4897 32.1917 98.4897 31.1617C98.4897 30.1317 98.5197 28.9317 98.7497 27.8617C98.9897 26.7517 99.4097 25.8917 100.04 25.2317C100.74 24.4617 101.84 24.0117 102.98 24.0117H102.99C104.13 24.0117 105.22 24.4617 105.92 25.2217C106.56 25.8917 106.98 26.7517 107.22 27.8617C107.45 28.9317 107.48 30.1317 107.48 31.1617C107.48 32.1917 107.45 33.3917 107.22 34.4617Z" fill="white"/>
<path d="M135.34 38.0911C135.2 37.9911 135.09 37.8811 135 37.7111C134.85 37.4511 134.75 37.0411 134.69 36.5211C134.63 35.9911 134.63 35.3611 134.63 34.7011V24.4811H139.7V20.2311H134.63V15.6211H129.45V20.2311H121.8V15.6211H116.62V20.2311H113.89V24.4811H116.62V34.0111C116.62 35.1911 116.63 36.3311 116.73 37.3511C116.81 38.1911 116.95 38.8611 117.16 39.4511C117.34 39.9611 117.58 40.4111 117.87 40.7811C118.34 41.3811 119 41.8511 119.78 42.1411C120.57 42.4311 121.51 42.5711 122.68 42.5711C123.72 42.5711 124.92 42.4611 126.22 42.2511L126.86 42.1511V37.8511L125.95 38.0211C125.52 38.1011 125.07 38.1711 124.66 38.2211C124.19 38.2811 123.77 38.3111 123.48 38.3111C123.05 38.3111 122.73 38.2411 122.5 38.0911C122.35 37.9911 122.25 37.8811 122.15 37.7111C122 37.4511 121.9 37.0411 121.84 36.5211C121.78 35.9811 121.78 35.3311 121.78 34.7011V24.4811H129.43V34.0111C129.43 35.2411 129.44 36.3511 129.54 37.3511C129.62 38.1911 129.76 38.8611 129.97 39.4511C130.15 39.9511 130.39 40.4011 130.68 40.7811C131.15 41.3811 131.81 41.8511 132.59 42.1411C133.38 42.4311 134.32 42.5711 135.49 42.5711C136.52 42.5711 137.75 42.4611 139.03 42.2511L139.67 42.1511V37.8511L138.76 38.0211C138.33 38.1011 137.88 38.1711 137.47 38.2211C137 38.2811 136.58 38.3111 136.29 38.3111C135.89 38.3111 135.57 38.2411 135.34 38.0911Z" fill="white"/>
<path d="M154.78 21.0817C153.38 20.2217 151.68 19.7617 149.89 19.7617C148.73 19.7617 147.59 19.9517 146.52 20.3217C144.65 20.9717 143.09 22.1617 142 23.7717C140.71 25.6617 140.06 28.0917 140.06 31.0117C140.06 33.0117 140.37 34.7917 140.97 36.3217C141.5 37.6517 142.26 38.8017 143.24 39.7417L143.3 39.7817V39.7917C144.3 40.7517 145.5 41.4717 146.87 41.9317C148.16 42.3617 149.6 42.5717 151.28 42.5717C153.42 42.5717 155.77 42.2117 158.06 41.5417L158.61 41.3817V37.0617L157.63 37.3517C155.5 37.9717 153.3 38.3217 151.43 38.3217C150.47 38.3217 149.64 38.2217 148.97 38.0117C148.43 37.8517 147.98 37.6217 147.6 37.3317C146.97 36.8517 146.52 36.2217 146.19 35.3417C145.9 34.5817 145.73 33.6317 145.66 32.5017L145.65 32.3517H158.98L159.03 31.6417C159.06 31.1517 159.08 30.6817 159.08 30.2217C159.08 28.4417 158.82 26.8317 158.3 25.4517C157.59 23.5717 156.38 22.0517 154.78 21.0817ZM145.98 28.1017L146.03 27.9217C146.35 26.7217 146.84 25.7817 147.48 25.1217C148.21 24.3817 149.06 24.0217 150.07 24.0117C150.57 24.0117 151.02 24.1017 151.43 24.2917C152.07 24.5817 152.57 25.0817 152.98 25.8117C153.3 26.3817 153.53 27.1017 153.68 27.9317L153.71 28.1017H145.98Z" fill="white"/>
<path d="M175.36 19.9317C175 19.8617 174.63 19.8117 174.2 19.7817C173.86 19.7617 173.57 19.7617 173.39 19.7617H173.38C171.73 19.7617 170.16 20.2217 168.84 21.0917C168.35 21.4117 167.88 21.8017 167.44 22.2417L167.2 22.4817V20.2217H162.02V42.1117H167.2L167.21 28.8617C167.64 27.6317 168.39 26.5717 169.39 25.8017C170.48 24.9617 171.69 24.4617 173 24.3117C173.85 24.2117 175.44 24.4917 175.96 24.5917V20.0617L175.36 19.9317Z" fill="white"/>
<path d="M89.9297 23.3217C89.6897 22.7717 89.3697 22.2717 88.9797 21.8517C88.3497 21.1617 87.4997 20.6417 86.4597 20.3017C85.3697 19.9417 84.0697 19.7617 82.4797 19.7617C82.3797 19.7617 82.2697 19.7617 82.1697 19.7717L80.6897 19.8017H80.6997L74.4997 19.9517V25.9017L75.5597 25.4517C77.7897 24.5117 80.0097 24.0117 81.9797 24.0117C81.9897 24.0117 81.9897 24.0117 81.9997 24.0117C82.8697 24.0117 83.5697 24.1217 84.0897 24.3417C84.4097 24.4717 84.6397 24.6417 84.8397 24.8617C85.0897 25.1517 85.2597 25.5417 85.3497 26.0917C85.4397 26.5917 85.4497 27.1917 85.4497 27.9417V28.7317H85.3097C84.1097 28.7517 82.5297 28.8117 80.9897 29.0617C79.1197 29.3617 77.5897 29.8917 76.3197 30.6717C75.3297 31.2817 74.5597 32.0317 74.0397 32.8917C73.4497 33.8517 73.1597 34.9617 73.1597 36.2017C73.1597 38.0017 73.7797 39.6217 74.8997 40.7617C76.0397 41.9317 77.6797 42.5717 79.5197 42.5717C79.5297 42.5717 79.5297 42.5717 79.5297 42.5717C80.8597 42.5717 82.1897 42.2517 83.4697 41.6117C84.0597 41.3217 84.6497 40.9517 85.2197 40.5317L85.4397 40.3617V42.1117H90.6197V28.5517C90.6197 27.5517 90.6197 26.5217 90.4897 25.5117C90.3897 24.6617 90.1997 23.9417 89.9297 23.3217ZM85.4397 35.8017L85.3997 35.8417C84.6697 36.6017 83.9897 37.1717 83.3297 37.5617C82.4897 38.0617 81.6697 38.3117 80.8197 38.3117C80.0297 38.3117 79.4097 38.0917 78.9597 37.6717C78.5297 37.2617 78.3197 36.7117 78.3097 36.0017C78.3097 35.4617 78.4397 35.0117 78.6997 34.5817C78.9497 34.1817 79.3197 33.8117 79.7997 33.5017C80.5397 33.0517 81.4597 32.7517 82.6397 32.5917C83.5497 32.4717 84.5297 32.4417 85.2897 32.4317H85.4297V35.8017H85.4397Z" fill="white"/>
<path d="M45.5399 7.23047C33.3199 7.23047 23.3799 17.1705 23.3799 29.3905C23.3799 41.6105 33.3199 51.5505 45.5399 51.5505C57.7599 51.5505 67.6999 41.6105 67.6999 29.3905C67.6999 17.1705 57.7599 7.23047 45.5399 7.23047ZM46.9199 48.4905V39.1605H49.6199C50.2399 39.1605 50.7399 38.6605 50.7399 38.0405V35.8405H56.4399C57.0599 35.8405 57.5599 35.3405 57.5599 34.7205V24.6105C57.5599 23.9905 57.0599 23.4905 56.4399 23.4905H53.9199V17.2305C53.9199 16.4705 53.2999 15.8505 52.5399 15.8505C51.7799 15.8505 51.1599 16.4705 51.1599 17.2305V23.4905H39.9199V17.2305C39.9199 16.4705 39.2999 15.8505 38.5399 15.8505C37.7799 15.8505 37.1599 16.4705 37.1599 17.2305V23.4905H34.6399C34.0199 23.4905 33.5099 23.9905 33.5099 24.6105V34.7205C33.5099 35.3405 34.0099 35.8405 34.6399 35.8405H40.3399V38.0405C40.3399 38.6605 40.8399 39.1605 41.4599 39.1605H44.1599V48.4905C34.1699 47.7805 26.3899 39.4405 26.3899 29.3905C26.3899 18.8305 34.9799 10.2405 45.5399 10.2405C56.0999 10.2405 64.6899 18.8305 64.6899 29.3905C64.6899 39.4405 56.8999 47.7805 46.9199 48.4905ZM35.5299 33.8305V25.5005H42.6399C43.5999 26.6205 45.1099 28.3905 45.1499 28.4305C45.2399 28.5205 45.3399 28.5405 45.4099 28.5405C45.4799 28.5405 45.5799 28.5205 45.6799 28.4205C45.7099 28.3905 46.3299 27.7105 47.8099 26.1205C48.0099 25.9005 48.1999 25.6905 48.3799 25.5005H55.5699V33.8405H49.6299H41.4799H35.5299V33.8305ZM42.3499 37.1505V35.6005H48.7299V37.1505H42.3499Z" fill="white"/>
</g>
</g>
<defs>
<clipPath id="clip0_1051_2099">
<rect width="199.04" height="57.8" fill="white"/>
</clipPath>
<clipPath id="clip1_1051_2099">
<rect width="199.35" height="84.79" fill="white" transform="translate(0 -13)"/>
</clipPath>
</defs>
</svg>
