<svg width="417" height="493" viewBox="0 0 417 493" fill="none" xmlns="http://www.w3.org/2000/svg">
<g opacity="0.1" filter="url(#filter0_d_1051_1980)">
<path d="M68.8862 94.2555C96.346 95.3872 117.682 119.949 116.478 149.176C115.273 178.403 91.9882 201.126 64.5284 199.994C37.0687 198.862 15.7323 174.301 16.9369 145.074C18.1414 115.846 41.4265 93.1238 68.8862 94.2555Z" fill="#A1EBE4" stroke="#A1EBE4"/>
<path d="M208.737 379.214C209.376 380.313 209.938 381.455 210.42 382.632C212.68 390.371 212.282 398.645 209.291 406.132C206.296 413.628 200.875 419.903 193.894 423.955C186.913 428.006 178.775 429.601 170.781 428.482C162.796 427.365 155.416 423.607 149.817 417.806C149.051 416.814 148.36 415.767 147.749 414.673L147.745 414.666L67.3366 276.076L67.3364 276.076C58.7166 261.259 65.3313 241.215 82.2023 231.387C85.8643 229.286 89.8251 227.755 93.9484 226.848L93.9752 226.842L94.0011 226.833C95.9489 226.175 97.9901 225.834 100.046 225.825V225.825L100.055 225.825L235.83 222.896L235.844 222.896L235.858 222.895C236.917 222.812 237.98 222.811 239.038 222.893C245.521 223.821 251.376 228.022 255.673 234.351C259.972 240.682 262.689 249.116 262.888 258.418C263.087 267.719 260.669 276.309 256.581 282.884C252.491 289.461 246.753 293.99 240.319 295.249C239.267 295.45 238.2 295.562 237.13 295.585L162.005 297.193L161.158 297.211L161.583 297.944L208.737 379.214L208.737 379.214Z" fill="#A1EBE4" stroke="#A1EBE4"/>
<path d="M318.79 213.639L318.797 213.638L318.805 213.636C319.844 213.41 320.906 213.298 321.97 213.303L321.983 213.303L397.107 211.695L397.954 211.677L397.529 210.944L350.318 129.617L350.318 129.617L350.311 129.605C349.654 128.542 349.093 127.423 348.636 126.26C346.378 118.526 346.773 110.259 349.758 102.776C352.746 95.2854 358.157 89.0118 365.127 84.9562C372.098 80.9005 380.226 79.2965 388.214 80.4001C396.194 81.5026 403.575 85.2433 409.182 91.0261C409.961 92.0237 410.672 93.0726 411.31 94.1657L491.718 232.812L491.719 232.812C500.339 247.63 493.723 267.674 476.852 277.444L476.849 277.446C473.213 279.593 469.247 281.126 465.113 281.982L465.08 281.988L465.049 281.999C463.14 282.665 461.138 283.024 459.116 283.063L459.115 283.063L323.34 285.992L323.325 285.992L323.311 285.993C322.253 286.076 321.19 286.077 320.132 285.995C313.649 285.067 307.794 280.866 303.497 274.53C299.198 268.192 296.481 259.744 296.282 250.412C296.083 241.082 298.487 232.478 302.56 225.911C306.636 219.341 312.358 214.842 318.79 213.639Z" fill="#A1EBE4" stroke="#A1EBE4"/>
<path d="M157.479 99.8307C267.983 4.37441 396.694 -26.0085 456.138 33.5512C520.006 97.8779 478.308 243.877 362.577 359.148" stroke="#A1EBE4" stroke-width="5" stroke-miterlimit="10"/>
<path d="M172.195 115.023C169.072 117.789 165.199 119.566 161.066 120.131C156.933 120.696 152.725 120.023 148.974 118.197C145.224 116.371 142.099 113.474 139.994 109.872C137.89 106.27 136.901 102.125 137.151 97.9612C137.402 93.7972 138.882 89.8011 141.404 86.478C143.926 83.155 147.376 80.6541 151.319 79.2917C155.262 77.9292 159.52 77.7663 163.555 78.8235C167.59 79.8807 171.222 82.1106 173.99 85.2313C175.829 87.3048 177.242 89.7205 178.147 92.3402C179.052 94.96 179.433 97.7324 179.266 100.499C179.099 103.266 178.389 105.973 177.176 108.465C175.962 110.957 174.27 113.185 172.195 115.023Z" fill="#A1EBE4" stroke="#A1EBE4"/>
<path d="M294.805 416.066C194.811 486.136 88.5571 503.424 36.866 450.986C18.5444 432.607 8.83791 407.623 7 378.676" stroke="#A1EBE4" stroke-width="5" stroke-miterlimit="10"/>
<path d="M281.486 399.584C284.861 397.129 288.887 395.73 293.057 395.564C297.227 395.397 301.352 396.471 304.911 398.65C308.471 400.829 311.304 404.014 313.052 407.803C314.801 411.592 315.386 415.815 314.735 419.936C314.083 424.058 312.223 427.894 309.391 430.959C306.559 434.024 302.882 436.18 298.824 437.154C294.766 438.129 290.511 437.878 286.596 436.434C282.681 434.989 279.282 432.416 276.83 429.039C273.544 424.515 272.188 418.871 273.061 413.348C273.935 407.825 276.965 402.874 281.486 399.584Z" fill="#A1EBE4" stroke="#A1EBE4"/>
</g>
<defs>
<filter id="filter0_d_1051_1980" x="0.505127" y="0.501953" width="499.495" height="491.529" filterUnits="userSpaceOnUse" color-interpolation-filters="sRGB">
<feFlood flood-opacity="0" result="BackgroundImageFix"/>
<feColorMatrix in="SourceAlpha" type="matrix" values="0 0 0 0 0 0 0 0 0 0 0 0 0 0 0 0 0 0 127 0" result="hardAlpha"/>
<feOffset dy="4"/>
<feGaussianBlur stdDeviation="2"/>
<feComposite in2="hardAlpha" operator="out"/>
<feColorMatrix type="matrix" values="0 0 0 0 0 0 0 0 0 0 0 0 0 0 0 0 0 0 0.25 0"/>
<feBlend mode="normal" in2="BackgroundImageFix" result="effect1_dropShadow_1051_1980"/>
<feBlend mode="normal" in="SourceGraphic" in2="effect1_dropShadow_1051_1980" result="shape"/>
</filter>
</defs>
</svg>
