<svg xmlns="http://www.w3.org/2000/svg" viewBox="0 0 346.42 172.82"><defs><style>.cls-1{fill:#fff;}</style></defs><title>活動王集團LOGO_CS5_白邊</title><g id="圖層_3" data-name="圖層 3"><path class="cls-1" d="M39,156.23l-9.22,16.3h3.44l2-3.6h6.46l.55,3.6h3.18l-2.65-16.3Zm-2.65,10,3.94-6.56.94,6.56Z"/><path class="cls-1" d="M56.87,159.69a4.45,4.45,0,0,1,2.6-.84,3,3,0,0,1,2,.64,3.44,3.44,0,0,1,1,2.06l3.21-.31a5.82,5.82,0,0,0-1.93-3.87A6.31,6.31,0,0,0,59.53,156a8.18,8.18,0,0,0-4.36,1.22A8.31,8.31,0,0,0,52,160.71a11.45,11.45,0,0,0-1.12,5.09A7.38,7.38,0,0,0,52.6,171a6.09,6.09,0,0,0,4.68,1.8,7.6,7.6,0,0,0,4.63-1.45,8.67,8.67,0,0,0,3-4.19l-3.38-.52a5,5,0,0,1-1.62,2.51,3.8,3.8,0,0,1-2.38.84,3,3,0,0,1-2.34-1.07,4.41,4.41,0,0,1-.94-3,9.62,9.62,0,0,1,.72-3.59A5.8,5.8,0,0,1,56.87,159.69Z"/><polygon class="cls-1" points="70.22 158.96 75 158.96 72.15 172.53 75.51 172.53 78.34 158.96 83.06 158.96 83.63 156.23 70.78 156.23 70.22 158.96"/><polygon class="cls-1" points="84.46 172.53 87.82 172.53 91.22 156.23 87.87 156.23 84.46 172.53"/><polygon class="cls-1" points="100.27 168.56 98.2 156.23 94.85 156.23 97.78 172.53 101.36 172.53 110.34 156.23 107.02 156.23 100.27 168.56"/><polygon class="cls-1" points="110.53 172.53 113.89 172.53 117.29 156.23 113.95 156.23 110.53 172.53"/><polygon class="cls-1" points="121.08 158.96 125.86 158.96 123.02 172.53 126.37 172.53 129.21 158.96 133.93 158.96 134.49 156.23 121.65 156.23 121.08 158.96"/><path class="cls-1" d="M146.21,159.54l-1.54,2.15c-.37.54-.69,1.06-1,1.54-.16-.49-.49-1.29-1-2.39l-2-4.61h-3.57l4.49,10-1.32,6.34h3.34l1.27-6,7.48-10.27h-3.9Z"/><polygon class="cls-1" points="173.95 156.23 166.41 163.16 167.86 156.23 164.5 156.23 161.1 172.53 164.47 172.53 165.51 167.54 168.68 164.77 172.71 172.53 176.5 172.53 171.13 162.63 178.44 156.23 173.95 156.23"/><polygon class="cls-1" points="179.71 172.53 183.07 172.53 186.47 156.23 183.12 156.23 179.71 172.53"/><polygon class="cls-1" points="199.5 167.14 195.09 156.23 191.95 156.23 188.55 172.53 191.67 172.53 193.96 161.58 198.37 172.53 201.49 172.53 204.89 156.23 201.78 156.23 199.5 167.14"/><path class="cls-1" d="M214.4,159.51a5.55,5.55,0,0,1,3-.84,3.67,3.67,0,0,1,2.31.7,3.92,3.92,0,0,1,1.32,2.08l3.13-.36a6.32,6.32,0,0,0-2.26-3.82,7.22,7.22,0,0,0-4.54-1.31,8.43,8.43,0,0,0-4.91,1.44,9.23,9.23,0,0,0-3.22,4.07,11.33,11.33,0,0,0-1,4.56,6.69,6.69,0,0,0,2.2,5.41,7,7,0,0,0,4.64,1.37,12.73,12.73,0,0,0,3.82-.58,12.36,12.36,0,0,0,3.16-1.41l1.47-7h-7.29l-.57,2.72h4.16l-.5,2.43a9.84,9.84,0,0,1-2,.72,8.24,8.24,0,0,1-2.21.31,3.64,3.64,0,0,1-2.74-1,4.3,4.3,0,0,1-.93-3,9.6,9.6,0,0,1,.76-3.86A5.64,5.64,0,0,1,214.4,159.51Z"/><path class="cls-1" d="M243,159.51a5.57,5.57,0,0,1,3-.84,3.67,3.67,0,0,1,2.31.7,3.93,3.93,0,0,1,1.33,2.08l3.13-.36a6.38,6.38,0,0,0-2.27-3.82,7.21,7.21,0,0,0-4.53-1.31A8.43,8.43,0,0,0,241,157.4a9.25,9.25,0,0,0-3.23,4.07,11.32,11.32,0,0,0-.94,4.56,6.69,6.69,0,0,0,2.2,5.41,6.93,6.93,0,0,0,4.64,1.37,12.67,12.67,0,0,0,3.81-.58,12.44,12.44,0,0,0,3.17-1.41l1.47-7h-7.3l-.56,2.72h4.15l-.5,2.43a10,10,0,0,1-1.95.72,8.31,8.31,0,0,1-2.22.31,3.6,3.6,0,0,1-2.73-1,4.31,4.31,0,0,1-.94-3,9.6,9.6,0,0,1,.77-3.86A5.63,5.63,0,0,1,243,159.51Z"/><path class="cls-1" d="M269.4,156.62a8.64,8.64,0,0,0-2.91-.39h-7.24l-3.41,16.3h3.36l1.41-6.74H262a3.09,3.09,0,0,1,1.67.32,5,5,0,0,1,1.47,2.12c.85,2,1.41,3.39,1.7,4.3h3.61a41,41,0,0,0-2.51-5.4,6.47,6.47,0,0,0-1.21-1.52,6,6,0,0,0,3.77-1.68,4.86,4.86,0,0,0,1.25-3.43,4.67,4.67,0,0,0-.64-2.48A3.3,3.3,0,0,0,269.4,156.62ZM267.87,162a3,3,0,0,1-1.39,1,12.82,12.82,0,0,1-3.58.32h-1.78L262,159h3.69a4.59,4.59,0,0,1,1.93.26,1.48,1.48,0,0,1,.72,1.34A2.44,2.44,0,0,1,267.87,162Z"/><path class="cls-1" d="M284.67,156a8.64,8.64,0,0,0-4,.91,8.43,8.43,0,0,0-2.93,2.5,11,11,0,0,0-1.73,3.72,11.67,11.67,0,0,0-.43,3,7.89,7.89,0,0,0,.64,3.09,5.76,5.76,0,0,0,2.19,2.56,6.76,6.76,0,0,0,3.83,1,8.63,8.63,0,0,0,4.7-1.3,8.9,8.9,0,0,0,3.29-3.71,11,11,0,0,0,1.22-5,6.73,6.73,0,0,0-1.87-5A6.54,6.54,0,0,0,284.67,156Zm2.58,10.45a6.43,6.43,0,0,1-2.07,2.72,4.44,4.44,0,0,1-2.6.89,3.49,3.49,0,0,1-2.7-1.13,4.07,4.07,0,0,1-1-2.82,8.87,8.87,0,0,1,1.54-5,4.64,4.64,0,0,1,4-2.29,3.47,3.47,0,0,1,2.64,1.09,4.27,4.27,0,0,1,1,3A8.51,8.51,0,0,1,287.25,166.41Z"/><path class="cls-1" d="M305.76,165.14a14.68,14.68,0,0,1-.88,3.06,3.12,3.12,0,0,1-1.22,1.36,4,4,0,0,1-2,.45,3,3,0,0,1-2.06-.63,2,2,0,0,1-.7-1.59,3.32,3.32,0,0,1,0-.53l.46-2.17,1.85-8.86H297.9l-1.8,8.59c-.23,1.11-.36,1.78-.39,2a7.3,7.3,0,0,0-.08,1,4.66,4.66,0,0,0,1.51,3.59,6.21,6.21,0,0,0,4.36,1.39,7.58,7.58,0,0,0,3.94-.93,6,6,0,0,0,2.32-2.43,17.9,17.9,0,0,0,1.36-4.3l1.86-8.92h-3.35Z"/><path class="cls-1" d="M326,156.65a7.51,7.51,0,0,0-2.79-.42h-6.63l-3.41,16.3h3.35l1.31-6.21H320a26.6,26.6,0,0,0,3-.11,8.41,8.41,0,0,0,2.16-.55,5.11,5.11,0,0,0,1.49-1.06,5.61,5.61,0,0,0,1.18-1.87,6.45,6.45,0,0,0,.47-2.4,4.26,4.26,0,0,0-.6-2.3A3.38,3.38,0,0,0,326,156.65Zm-1.64,5.57a2.83,2.83,0,0,1-1.4,1.06,11.68,11.68,0,0,1-3.54.34h-1l1-4.71h2.4a7.54,7.54,0,0,1,2.11.18,1.4,1.4,0,0,1,.73.55,1.6,1.6,0,0,1,.27,1A2.72,2.72,0,0,1,324.39,162.22Z"/><path class="cls-1" d="M316.09,69.12V82.36a.62.62,0,0,0,.67.71h11.73v3.08h-17V88H327.2a40.48,40.48,0,0,1-15.79,6.68l.74,1.72c5.12-.9,10.59-3.28,16.34-7.19v9h1.79V89.28a46.22,46.22,0,0,0,15.2,6.92l.94-1.64a42.56,42.56,0,0,1-15-6.61H346.3v-1.8h-16V83.07h14v-1.8h-14V78.18h13.4v-1.8h-13.4V73.3h13.25V71.5H330.28V68.26h14v-1.8H331.14l1.52-3.24-1.56-.79a30.43,30.43,0,0,1-1.92,4H318.05l2.07-3.6-1.6-.78a26.58,26.58,0,0,1-7.7,9.65l1.48,1.18A23.27,23.27,0,0,0,316.09,69.12Zm1.8-.63c0-.16.08-.23.24-.23h10.36V71.5h-10.6Zm0,4.81h10.6v3.08h-10.6Zm0,4.88h10.6v3.09H318.13c-.16,0-.24-.08-.24-.27Z"/><path class="cls-1" d="M323.79,131.65l-1.25,1.29a22.44,22.44,0,0,1,2.89,3l1.37-1.25A22.18,22.18,0,0,0,323.79,131.65Z"/><path class="cls-1" d="M345,106H313.47c-.31,0-.43.16-.43.47v32.75c0,.31.12.47.43.47H345c.35,0,.51-.16.51-.47V106.48C345.52,106.17,345.36,106,345,106Zm-14.77,9.34h8.05l.08.08v1.8h-8.13Zm0,3.52h8.13v1.91l-.08.12h-8.05Zm0,3.67h7.66l-.59.43,1.29,1.76-8.36.23Zm13.48,15.12a.21.21,0,0,1-.23.24H315c-.12,0-.2-.08-.2-.24V108a.19.19,0,0,1,.2-.19h13.44V110H316.91v1.64h11.53v2H318.6a.21.21,0,0,0-.24.23v8.33c0,.19.08.27.24.27h9.84V125l-10.47.28.15,1.64,17.51-.43v2.73H316.91V131h18.72v3.32c0,.16-.12.31-.35.47s-1.64,0-4.07-.62V136c2.35.9,4.07,1.13,5.09.67A1.73,1.73,0,0,0,337,136a2.22,2.22,0,0,0,.39-1.29V131h4.89v-1.8h-4.89v-2.77h2.19l.78,1.21,1.52-1a26.08,26.08,0,0,0-2.66-4.14h.63c.2,0,.28-.08.28-.27v-8.33c0-.15-.08-.23-.28-.23h-9.65v-2h11V110h-11v-2.23h13.25c.15,0,.23.08.23.19Zm-23.56-20.43v-1.8l.07-.08h8.21v1.88Zm8.28,1.64v2h-8.21l-.07-.12v-1.91Z"/><path class="cls-1" d="M300.94,5.07a4.18,4.18,0,0,0-2.05,7.84L298.25,14c-14.9,31.89-20,20.56-22.94,16.69-.9-2-7.48-15.91-10.73-22.75a4.19,4.19,0,1,0-3.52,0l-9,19.88c-9.35,23.36-23.53-10.18-24.92-13.57a4.17,4.17,0,1,0-1.91.48h.08c.67,8.62,5.12,22,6.6,26.2,4.54-1.08,13.69-1.89,24.72-2.12a6.62,6.62,0,0,1-.57-2.67A6.73,6.73,0,1,1,269,38.87c12,.23,21.78,1.12,26.08,2.33a126.51,126.51,0,0,0,5.72-27.75l.18,0a4.2,4.2,0,0,0,0-8.4Z"/><path class="cls-1" d="M238.51,28a5.65,5.65,0,1,0,9.59-4.05l-2.37-5.59a4,4,0,1,0-3.14,0l-2.37,5.6A5.62,5.62,0,0,0,238.51,28Z"/><path class="cls-1" d="M276.34,28a5.65,5.65,0,1,0,9.59-4.05l-2.37-5.59a4,4,0,1,0-3.14,0l-2.37,5.6A5.62,5.62,0,0,0,276.34,28Z"/><path class="cls-1" d="M240.7,43.39a2.19,2.19,0,1,0-2.19,2.19A2.19,2.19,0,0,0,240.7,43.39Z"/><path class="cls-1" d="M252,42.5a2.19,2.19,0,1,0-2.19,2.19A2.19,2.19,0,0,0,252,42.5Z"/><path class="cls-1" d="M279.3,42.5a2.19,2.19,0,1,0-2.19,2.19A2.19,2.19,0,0,0,279.3,42.5Z"/><path class="cls-1" d="M290.86,43.39a2.19,2.19,0,1,0-2.19,2.19A2.19,2.19,0,0,0,290.86,43.39Z"/><polygon class="cls-1" points="57.81 42.77 225.23 38.19 59.67 38.19 57.42 38.19 48.13 38.19 42.42 52.3 53.92 52.3 57.81 42.77"/><polygon class="cls-1" points="48.69 64 53.59 61.38 49.92 61.38 47.48 61.38 38.42 61.38 29.94 82.12 40.17 82.12 48.69 64"/><polygon class="cls-1" points="35.53 93.71 41.02 90.77 36.66 90.77 34.92 90.77 26.12 90.77 0 149.74 16.17 138.51 35.53 93.71"/><path class="cls-1" d="M77.13,132.45,79.55,128H46.34l8.89-31h42.1L79.55,137l7.84,13.6L95,132.44v2h55.11v-3.07H133.76l4.45-9.56h19.13v-3.08h-17.7l4.68-10h4l1.76-2.9h-4.44l3.91-8.39h10.27l-6.39,12.88,5.7,8.85,17.59-37.62H157l4.29-9.23h20.2V69.25H162.71l4.54-9.76h18.66v-2.6H140.18v2.6h12.95l-4.55,9.76h-23v3.08h21.6l-4.3,9.23h-16.2L117,102.27l7.6,6.47h5.57l-4.68,10H104v3.08h20.06l-4.45,9.56H95.44l16.14-38.57H83.86L90,78.23H117.7V74.79H91.38l4.38-10.52h27.78V61.38H57.06v2.89H81.64L77.26,74.79H49.92v3.44H75.83L69.74,92.84H42.68l-8.63,29.67,10.46,9.94Zm89.26-48.17-5,10.1H151l4.7-10.1Zm-24.8,0-4.71,10.1h-5.7l4.59-10.1ZM126,105.84l3.82-8.39h5.67l-3.91,8.39Z"/><path class="cls-1" d="M284.28,63.06c3.06-.38,4.88-.85,4.88-1.35h0l5.92-13.18h0c0-1.41-13.31-2.55-30-2.62L264,41.05a5.22,5.22,0,1,0-2.36,0l-1.09,4.86c-16.1.12-28.7,1.25-28.7,2.62a.43.43,0,0,0,.18.29l5.82,12.89h0c0,.5,1.82,1,4.87,1.35H222.56v3.41H257L245.84,99.94H217.33v3.4h27.38l-10.61,31.9H196.93v3.4H299.47l-3.14-3.4H248.22l10.61-31.9h39.55l-3.13-3.4H260l11.12-33.47h32.53l-3.13-3.41Z"/><polygon class="cls-1" points="226.44 51.75 209.53 51.75 209.52 51.76 199.9 51.76 191.99 69.25 183.8 69.25 183.8 72.33 190.07 72.33 158.32 134.48 151.26 140.1 166.95 140.1 201.63 72.33 208.32 72.33 179.85 133.88 172.79 139.5 191.62 139.5 222.54 72.88 229.38 69.22 223.27 69.22 223.25 69.25 222.33 69.25 210.15 69.25 202.51 69.25 208.67 56 226.44 51.75"/></g></svg>