<svg xmlns="http://www.w3.org/2000/svg" xmlns:xlink="http://www.w3.org/1999/xlink" viewBox="0 0 332.98 206.39"><defs><style>.cls-1{fill:#45b035;}.cls-1,.cls-2,.cls-3,.cls-4{fill-rule:evenodd;}.cls-2{fill:url(#GradientFill_4);}.cls-3{fill:url(#GradientFill_4-2);}.cls-4{fill:url(#GradientFill_4-3);}</style><linearGradient id="GradientFill_4" x1="237.61" y1="20.08" x2="237.61" y2="168.22" gradientUnits="userSpaceOnUse"><stop offset="0" stop-color="#abcd03"/><stop offset="1" stop-color="#45b035"/></linearGradient><linearGradient id="GradientFill_4-2" x1="81.31" y1="-5.06" x2="81.31" y2="193.34" xlink:href="#GradientFill_4"/><linearGradient id="GradientFill_4-3" x1="206.79" y1="153.79" x2="206.79" y2="184.55" xlink:href="#GradientFill_4"/></defs><title>活動王LOGO</title><g id="圖層_3" data-name="圖層 3"><path class="cls-1" d="M24.26,182.18l1.81.63c.26.08.36.18.36.27s-.13.23-.38.26a.71.71,0,0,1-.15.15,15,15,0,0,0,3.48,2.24A18.78,18.78,0,0,0,32.77,187l-1.47,1.88a20.58,20.58,0,0,1-3-1.38v1.05H21.4v-1.15a28.14,28.14,0,0,1-3,1.76l-1.57-1.61a18.59,18.59,0,0,0,7.43-5.32ZM22,187h5.56a.75.75,0,0,1-.13-.06,17.32,17.32,0,0,1-2.61-2.23A36.15,36.15,0,0,1,22,187Zm-.91,4.14v1.29h7.73v-1.29Zm7.73,2.69H21.06A10.9,10.9,0,0,1,21,195h7.83v-1.17Zm-8,2.8c-.11.56-.26,1.08-.38,1.61a20.83,20.83,0,0,1-1.82,4.61l-2.06-.89a18.43,18.43,0,0,0,1.79-4.18,20.6,20.6,0,0,0,.67-5.1v-3.15H30.92v7.1Zm.19,1v5.33h2.08v-.65h5.65v.65h2.08v-5.33Zm2.08,3.06h5.65v-1.44H23.08v1.44Zm9.9-15,1.94.1c.36,0,.55.09.55.22s-.13.31-.4.57v11.61H33v-12.5Zm4.17-2.88v17.36c0,.66-.44,1-1.16,1H34l.89,2c2,0,3.14-.21,3.62-.65a2.28,2.28,0,0,0,.84-2V183.82c.4-.22.6-.41.6-.56s-.13-.24-.43-.27l-2.34-.24Zm61.41-.64,2.09.14c.42,0,.61.12.61.3s-.15.29-.4.54v1.08h9v1.55h-4a12.41,12.41,0,0,1-1.54,2h6.43v1.63h-22v-1.63h6.61a18.15,18.15,0,0,0-1.13-2H90v-1.55h8.61v-2.06Zm-1,5.65H102a13.49,13.49,0,0,0,1.54-2h-7.1a9.78,9.78,0,0,1,1.07,2Zm-5.62,2.62h15.8v6.76H91.93v-6.76Zm13.59,5.11v-1H94.12v1ZM94.12,193h11.4v-1H94.12v1Zm-3,4.67,1.62.72c.23.08.38.18.38.27s-.15.28-.42.39a14.75,14.75,0,0,1-2.85,3.66l-1.79-1a16,16,0,0,0,3.06-4Zm3.3-.08,2.4.28c.3,0,.47.15.47.36s-.17.35-.47.55a.77.77,0,0,0-.33.68v.29a2.7,2.7,0,0,0,.27,1.35c.19.24.57.35,1.22.35h4.66a3,3,0,0,0,1.58-.35,3.61,3.61,0,0,0,.89-2.05l2,.78a5.53,5.53,0,0,1-1.33,2.77,2.8,2.8,0,0,1-1.75.56H97.2a2.64,2.64,0,0,1-2.11-.81,3,3,0,0,1-.66-2.16v-2.6Zm5.95,0-1.4,1a13.56,13.56,0,0,1,2.28,2.37l1.77-1.11a14.88,14.88,0,0,0-2.65-2.24Zm7.51,0-1.38,1a22,22,0,0,1,3.26,3.78l1.79-1.08a24.06,24.06,0,0,0-3.67-3.68Zm54.59-15.12a18.89,18.89,0,0,1,3.67,2.07l-1.5,1.43a34.08,34.08,0,0,0-3.75-2.06l1.58-1.44Zm-1.2,6.14a20.66,20.66,0,0,1,3.88,2.5l-1.5,1.44a25.38,25.38,0,0,0-4-2.52l1.6-1.42Zm3.68,5.83,1.4,1.53a55.86,55.86,0,0,1-4.28,6.38q0,.72-.51.72l-1.89-1.44a41.81,41.81,0,0,0,5.28-7.19Zm15.66-10.1.59.12c.21,0,.29-.07.29-.18a.39.39,0,0,0-.15-.34l-1.51-1.37a56.23,56.23,0,0,1-6.17,1,65.66,65.66,0,0,1-6.62.48l1.48,1.82c1.64-.12,3.26-.27,4.84-.47v3.25h-7.22v1.88h7.22v3h-5.14v9.39h2.28v-1.47h8.11v1.37h2.27v-9.29h-5.12v-3h6.72v-1.88h-6.72v-3.57c1.27-.19,2.53-.39,3.8-.65a6.87,6.87,0,0,1,1.05-.12Zm-10.11,15.23v-4.14h8.11v4.14Zm72-15.39a5.05,5.05,0,0,0-1,.15,20.27,20.27,0,0,1-2.72.51v1.32H244v1.71h-5.25v1.07h4.74v7h-4.74v1.19h4.55v1.69h-4.55v1.29l4.95-.49v1.05a13.8,13.8,0,0,0,1.5-2.83,26.59,26.59,0,0,0,1.14-4.79c.1-1,.19-2.47.25-4.47h-2v-1.88h2c0-1.29,0-2.69,0-4.26l2.05.1c.33,0,.52.06.52.2a1.07,1.07,0,0,1-.37.43c0,1.26,0,2.43,0,3.53h4.49a87.3,87.3,0,0,1-.49,12,5.22,5.22,0,0,1-1.16,3.34,4.36,4.36,0,0,1-3.22.95l-1.1-2.06c1.54,0,2.47-.19,2.72-.57a4.42,4.42,0,0,0,.67-2.11,80.75,80.75,0,0,0,.38-9.65h-2.38c-.08,2.3-.25,4.13-.44,5.54a26.66,26.66,0,0,1-1.12,4.71,15.42,15.42,0,0,1-2.21,4.21l-2.19-1.14.38-.5q-3.68.47-11,1.18c-.14.27-.31.39-.48.39s-.23-.12-.25-.37l-.55-2c2-.1,3.87-.22,5.75-.34v-1.46h-4.77v-1.69h4.77V196h-4.89v-7h4.89v-1.07h-5.56v-1.71h5.56V185c-1.37.08-2.82.13-4.45.13l-.9-1.71h2.78a27.38,27.38,0,0,0,7.82-1.07l1.62,1.52c.1.05.16.17.16.37s0,.18-.1.18a.79.79,0,0,1-.48-.16,3.21,3.21,0,0,0-.62-.12Zm-1.07,10.19v-1.18h-2.68v1.18Zm-4.76,0v-1.18h-2.78v1.18Zm-2.78-2.63h2.78v-1.18h-2.78v1.18Zm4.86-1.18v1.18h2.68v-1.18ZM304,183.89h19.32v2H315v5.59h7.23v1.89H315v6.45h9.92v2H302.72v-2h9.86v-6.45h-7.33v-1.89h7.33v-5.59H304Z"/><path class="cls-2" d="M192.08,14,171.35,26,150.66,38V13.89h41.17l.25.13Zm91,0,20.73,12,20.69,12V13.89H283.34l-.21.13Zm41.42,133.89-20.69,12-20.73,12V124l20.73,12,20.69,12Zm-132.47-27.4-20.73,12-8.79,5.09-11.9-6.47V96.6l20.69,12,20.73,12Zm88.46,0-20.73,12-20.73,12V96.6l20.73,12,20.73,12ZM236.11,94.35l-20.71,12-20.71,12V70.43l20.71,12,20.71,12Zm-44-27.4-20.73,12-20.69,12V43l20.69,12,20.73,12Zm88.46,0-20.73,12-20.73,12V43l20.73,12,20.73,12Zm44-26.16-20.69,12-20.73,12V16.88l20.73,12,20.69,12ZM192.08,153.62V123.36l-20.73,12L165.09,139l27,14.67Zm47-6.34,20.73,12,20.73,11.95V123.36l-20.73,12-20.73,11.95Zm-44.39-26.15,20.71,12,20.71,12V97.21l-20.71,12-20.71,12Zm-44-27.4,20.69,12,20.73,12V69.82l-20.73,12-20.69,12Zm44-26.15,20.71,12,20.71,12V43.66l-20.71,12-20.71,12Zm-44-27.4,20.69,12,20.73,12V16.26l-20.73,12-20.69,12Zm88.42,0,20.73,12,20.73,12V16.26l-20.73,12-20.73,12ZM324.55,174.4V150.76l-20.69,12-20.1,11.61Z"/><path class="cls-3" d="M101.85,147.91l-20.73,12-20.71,12V124l20.71,12,20.73,12Zm-44-27.4-20.69,12-20.75,12V96.58l20.75,12,20.69,12Zm44.05-26.16-20.73,12-20.71,12V70.43l20.71,12,20.73,12ZM57.8,67l-20.69,12-20.75,12V43L37.11,55,57.8,67ZM146.26,14,125.53,26,104.84,38V13.87h41.21l.21.15ZM101.85,40.79l-20.73,12-20.71,12V16.88l20.71,12,20.73,12ZM16.36,147.28l20.75,12L57.8,171.2V123.36l-20.69,12-20.75,12Zm88.48,0,20.69,12,20.73,11.95V123.36l-20.73,12-20.69,12ZM60.41,121.12l20.71,12,20.73,12V97.21l-20.73,12-20.71,12Zm-44-27.39,20.75,12,20.69,12V69.82l-20.69,12-20.75,12ZM60.41,67.58l20.71,12,20.73,12V43.64l-20.73,12-20.71,12Zm-44-27.41,20.75,12,20.69,12V16.26l-20.69,12-20.75,12Zm88.48,0,20.69,12,20.73,12V16.26l-20.73,12-20.69,12ZM60.41,14,81.12,26l20.73,12V13.87H60.66l-.25.15ZM101.85,174.4V150.75l-20.73,12L60.89,174.4h41Zm44.41-.33-.57.33H104.84V150.14l20.69,12Z"/><path class="cls-4" d="M157.28,170.67l1.35.35a4.59,4.59,0,0,1-1.5,2.52,4.3,4.3,0,0,1-2.7.86,4.66,4.66,0,0,1-2.65-.67,3.84,3.84,0,0,1-1.54-1.93,7.1,7.1,0,0,1-.55-2.69,6.28,6.28,0,0,1,.59-2.77,4.23,4.23,0,0,1,1.75-1.78,4.84,4.84,0,0,1,2.42-.61,4.22,4.22,0,0,1,2.58.77,4.17,4.17,0,0,1,1.43,2.18l-1.33.3a3.1,3.1,0,0,0-1-1.6,2.76,2.76,0,0,0-1.69-.5,3.12,3.12,0,0,0-1.92.55,3,3,0,0,0-1.13,1.5,6.74,6.74,0,0,0-.32,1.94,6.62,6.62,0,0,0,.38,2.25,2.78,2.78,0,0,0,1.16,1.45,3.35,3.35,0,0,0,1.73.47,2.83,2.83,0,0,0,1.9-.65,3.22,3.22,0,0,0,1.05-1.94Zm3.81,3.56V164.12h4.47a5.93,5.93,0,0,1,2.06.28,2.32,2.32,0,0,1,1.11,1,2.83,2.83,0,0,1,.4,1.52,2.47,2.47,0,0,1-.69,1.82,3.49,3.49,0,0,1-2.13.92,3.44,3.44,0,0,1,.81.52,7.75,7.75,0,0,1,1.11,1.34l1.77,2.75h-1.7L167,172.12c-.4-.6-.72-1.07-1-1.38a3.56,3.56,0,0,0-.68-.68,3.12,3.12,0,0,0-.59-.28,5.2,5.2,0,0,0-.77,0h-1.54v4.48Zm1.33-5.65h2.86a3.68,3.68,0,0,0,1.43-.2,1.62,1.62,0,0,0,.81-.59,1.83,1.83,0,0,0,.25-.91,1.48,1.48,0,0,0-.53-1.18,2.43,2.43,0,0,0-1.64-.46h-3.18v3.34Zm9.66,5.65V164.12h7.27v1.18h-6v3.12H179v1.18h-5.63V173h6.22v1.21Zm9,0L185,164.12h1.45l4.12,10.11H189l-1.17-3.07h-4.22l-1.11,3.07Zm2.9-4.14h3.44l-1.08-2.8a19.19,19.19,0,0,1-.69-2.1,16.86,16.86,0,0,1-.55,1.93l-1.12,3Zm9.9,4.14V165.3h-3.28v-1.18h8v1.18h-3.35v8.93Zm7.08,0V164.12h1.35v10.11Zm7.36,0-3.93-10.11h1.48l2.61,7.35c.21.59.38,1.14.53,1.64a11.83,11.83,0,0,1,.57-1.64l2.71-7.35h1.37l-4,10.11Zm7.35,0V164.12H223v1.18h-5.95v3.12h5.59v1.18h-5.59V173h6.2v1.21Zm13.27,0V164.12h1.31v5l5-5h1.79l-4.21,4.1,4.4,6h-1.75l-3.6-5.12-1.66,1.62v3.5Zm10.47,0V164.12h1.32v10.11Zm4.44,0V164.12h1.37l5.31,7.94v-7.94h1.29v10.11H250.5l-5.29-7.93v7.93Zm15.72-4v-1.2h4.28v3.76a8.42,8.42,0,0,1-2,1.19,6.49,6.49,0,0,1-2.12.38,5.71,5.71,0,0,1-2.74-.65,4.15,4.15,0,0,1-1.83-1.83,5.88,5.88,0,0,1-.64-2.7,6.31,6.31,0,0,1,.64-2.75,4.18,4.18,0,0,1,1.76-1.9,5.61,5.61,0,0,1,2.68-.62,5.48,5.48,0,0,1,2,.35,3.68,3.68,0,0,1,1.39,1,4.7,4.7,0,0,1,.74,1.64l-1.2.35a3.81,3.81,0,0,0-.55-1.21,2.4,2.4,0,0,0-1-.72,3.77,3.77,0,0,0-1.41-.26,4,4,0,0,0-1.58.28,3.08,3.08,0,0,0-1.07.73,3.86,3.86,0,0,0-.66,1,5.9,5.9,0,0,0-.38,2,4.89,4.89,0,0,0,.46,2.26,3,3,0,0,0,1.38,1.35,4,4,0,0,0,1.89.44,4.84,4.84,0,0,0,2.93-1v-1.88Z"/></g></svg>