<svg width="286" height="56" viewBox="0 0 286 56" fill="none" xmlns="http://www.w3.org/2000/svg">
<path d="M11.494 1.20291H35.5512C39.0902 1.00706 42.631 1.55335 45.9464 2.80672C48.163 3.80616 50.0079 5.4795 51.2182 7.58847C52.4896 9.97482 53.1142 12.6525 53.0299 15.3551C53.0898 19.1485 51.9632 22.8659 49.8074 25.9878C47.8037 28.9606 44.9752 31.2832 41.6695 32.6704C37.3239 34.1961 32.7278 34.8815 28.1262 34.69H20.8051L16.5728 54.2773H0L11.494 1.20291ZM23.092 24.1612H28.6162C30.9443 24.2533 33.2174 23.4388 34.9572 21.8892C35.7405 21.2273 36.3686 20.4014 36.7972 19.4699C37.2258 18.5383 37.4443 17.5239 37.4372 16.4986C37.4372 13.3355 35.7146 11.7614 32.2397 11.7614H25.765L23.092 24.1612Z" fill="#F39800"/>
<path d="M108.777 1.20312L97.3275 54.2775H80.8439L85.492 32.73H67.7609L63.1722 54.2775H46.54L57.945 1.20312H74.4583L70.4636 19.9737H88.1204L92.2785 1.20312H108.777Z" fill="#F39800"/>
<path d="M129.745 1.20312L118.385 54.2775H101.753L113.128 1.20312H129.745Z" fill="#F39800"/>
<path d="M175.142 15.9045L159.743 16.7361C159.401 12.1919 156.847 9.90501 152.095 9.90501C150.511 9.80343 148.94 10.2433 147.64 11.1524C147.165 11.4904 146.777 11.9353 146.506 12.4513C146.235 12.9673 146.089 13.5398 146.081 14.1224C146.104 14.591 146.229 15.0487 146.447 15.4641C146.665 15.8795 146.971 16.2426 147.343 16.5282C149.163 17.8108 151.165 18.812 153.283 19.4982C156.621 20.7754 159.875 22.2634 163.025 23.9532C165.448 25.2127 167.559 26.9988 169.202 29.1805C170.859 31.591 171.697 34.4698 171.593 37.3926C171.591 40.4636 170.693 43.4672 169.009 46.0354C167.135 48.8247 164.579 51.0891 161.584 52.614C158.332 54.3366 153.729 55.2128 147.744 55.2128C139.329 55.2128 133.389 53.5941 129.924 50.3568C128.194 48.7858 126.826 46.8584 125.913 44.7074C125 42.5564 124.565 40.233 124.637 37.8975V36.665L140.052 35.6255C140.052 38.9222 140.779 41.2537 142.235 42.6199C143.912 44.061 146.086 44.7908 148.293 44.6544C150.41 44.7995 152.511 44.2008 154.233 42.9614C154.85 42.5164 155.356 41.9352 155.711 41.263C156.067 40.5908 156.262 39.8457 156.283 39.0855C156.256 37.962 155.786 36.8945 154.976 36.1155C153.07 34.6482 150.903 33.5548 148.59 32.893C140.829 30.1012 135.918 27.5173 133.859 25.1413C131.732 22.7911 130.566 19.7275 130.592 16.5579C130.57 13.5824 131.456 10.671 133.131 8.21209C134.984 5.58047 137.565 3.54696 140.556 2.36113C144.265 0.878496 148.236 0.166082 152.229 0.26726C166.594 0.26726 174.232 5.47966 175.142 15.9045Z" fill="#F39800"/>
<path d="M204.427 0.267578C212.515 0.267578 218.455 2.4357 222.247 6.77194C226.075 11.211 228.104 16.9214 227.935 22.7804C227.893 25.5928 227.539 28.3918 226.88 31.1262C226.058 34.56 224.69 37.8392 222.826 40.8382C220.834 44.1923 218.181 47.1073 215.03 49.4067C212.267 51.5117 209.141 53.0922 205.808 54.0697C202.745 54.8746 199.59 55.274 196.423 55.2577C188.849 55.2577 182.909 53.337 178.602 49.4958C174.296 45.6546 172.172 40.264 172.232 33.324C172.214 26.0623 174.405 18.9669 178.513 12.9793C180.575 9.95205 183.196 7.34624 186.235 5.30178C188.95 3.38333 192.011 2.01142 195.249 1.26254C198.264 0.603033 201.341 0.269461 204.427 0.267578ZM197.418 43.1548C198.939 43.1701 200.445 42.8569 201.834 42.2367C203.223 41.6165 204.462 40.7038 205.466 39.5611C207.772 36.9621 209.426 33.8521 210.293 30.4876C211.089 27.9554 211.587 25.339 211.778 22.6913C211.894 21.2996 211.735 19.8985 211.31 18.5684C210.884 17.2382 210.201 16.005 209.298 14.9395C208.433 14.0602 207.395 13.3699 206.25 12.9123C205.105 12.4548 203.877 12.2399 202.645 12.2813C201.197 12.267 199.763 12.5526 198.431 13.1199C197.1 13.6873 195.9 14.5243 194.908 15.5781C192.574 18.0613 190.886 21.0803 189.992 24.3694C189.018 27.3865 188.473 30.526 188.374 33.6953C188.288 36.19 189.16 38.6231 190.809 40.4966C191.649 41.3965 192.676 42.101 193.818 42.5603C194.96 43.0197 196.189 43.2226 197.418 43.1548Z" fill="#F39800"/>
<path d="M285.568 1.20312L274.119 54.2775H258.675L245.636 23.4635H245.503L238.88 54.2775H223.465L234.87 1.20312H250.225L263.308 32.1211H263.442L270.184 1.20312H285.568Z" fill="#F39800"/>
</svg>
