<svg width="253" height="61" viewBox="0 0 253 61" fill="none" xmlns="http://www.w3.org/2000/svg">
<path d="M252.001 0H0.750977V60.9753H252.001V0Z" fill="white"/>
<path d="M113.778 7.69599e-05H30.6714C27.6908 -0.00936729 24.7722 0.850604 22.273 2.47467C19.7737 4.09874 17.8023 6.41641 16.6002 9.14383L0.192233 48.6652C0.167042 48.7709 0.167042 48.8811 0.192233 48.9869C0.192233 49.2159 0.283205 49.4356 0.445157 49.5975C0.607109 49.7595 0.826766 49.8505 1.0558 49.8505H38.5791C41.2545 49.8505 42.4059 47.2767 40.2724 45.2278L26.5059 32.3419C19.2586 25.2301 22.3574 8.77131 37.4107 8.77131H110.866C111.047 8.77455 111.224 8.7207 111.373 8.61737C111.522 8.51405 111.635 8.36648 111.695 8.19559L114.591 1.16845C114.616 1.06269 114.616 0.952483 114.591 0.846721C114.587 0.629158 114.501 0.421089 114.35 0.264117C114.2 0.107145 113.995 0.012842 113.778 7.69599e-05Z" fill="#00224C"/>
<path d="M105.464 20.1153H91.3419C90.8939 20.1136 90.4555 20.2445 90.0818 20.4916C89.7082 20.7387 89.416 21.0909 89.2422 21.5037L73.4608 59.7212C73.3934 59.8399 73.3583 59.9742 73.3591 60.1107C73.3591 60.2241 73.3815 60.3364 73.4249 60.4412C73.4683 60.546 73.5319 60.6411 73.6121 60.7213C73.6923 60.8015 73.7875 60.8651 73.8923 60.9085C73.997 60.9519 74.1093 60.9743 74.2227 60.9743H79.4889C82.5181 60.9863 85.4834 60.1042 88.0136 58.4386C90.5437 56.7729 92.5261 54.3976 93.7125 51.6104L106.26 21.2836C106.285 21.1779 106.285 21.0677 106.26 20.9619C106.26 20.7459 106.178 20.5379 106.03 20.3805C105.882 20.2231 105.68 20.1282 105.464 20.1153Z" fill="#00224C"/>
<path d="M77.7617 20.9621C77.7617 20.8495 77.7393 20.738 77.6957 20.6342C77.6521 20.5303 77.5882 20.4362 77.5078 20.3574C77.4273 20.2785 77.332 20.2165 77.2273 20.175C77.1226 20.1335 77.0107 20.1132 76.8981 20.1155H36.8857C36.3269 20.108 35.7797 20.2758 35.3211 20.5952C34.8625 20.9147 34.5155 21.3697 34.3287 21.8965C34.1419 22.4232 34.1247 22.9953 34.2796 23.5322C34.4346 24.0692 34.7538 24.5442 35.1925 24.8905L48.4001 37.1838C49.9706 38.7277 51.1658 40.6113 51.8939 42.6897C52.6219 44.7681 52.8633 46.9859 52.5994 49.1723C52.2345 51.6012 51.288 53.9059 49.8403 55.8901C48.3927 57.8743 46.487 59.4792 44.2854 60.5681C44.2498 60.5844 44.2197 60.6107 44.1986 60.6437C44.1776 60.6768 44.1666 60.7152 44.1669 60.7544C44.1669 60.8127 44.1901 60.8687 44.2313 60.91C44.2726 60.9513 44.3286 60.9745 44.387 60.9745H59.7451C60.1979 60.9781 60.6414 60.8463 61.0186 60.5958C61.3958 60.3454 61.6894 59.9878 61.8617 59.5691L77.7278 21.2669C77.7665 21.1702 77.7782 21.0649 77.7617 20.9621Z" fill="#00224C"/>
<path d="M152.131 48.5294C151.233 48.5294 150.371 48.1726 149.736 47.5375C149.101 46.9024 148.744 46.041 148.744 45.1429C148.744 44.2447 149.101 43.3833 149.736 42.7482C150.371 42.1131 151.233 41.7563 152.131 41.7563C153.029 41.7563 153.89 42.1131 154.525 42.7482C155.161 43.3833 155.517 44.2447 155.517 45.1429C155.517 46.041 155.161 46.9024 154.525 47.5375C153.89 48.1726 153.029 48.5294 152.131 48.5294ZM155.416 42.2135C155.046 41.6866 154.554 41.2573 153.982 40.9623C153.41 40.6674 152.774 40.5157 152.131 40.5202C151.513 40.4824 150.893 40.5715 150.311 40.782C149.729 40.9925 149.195 41.32 148.744 41.7444C148.293 42.1687 147.934 42.6808 147.688 43.2493C147.442 43.8177 147.316 44.4305 147.316 45.0497C147.316 45.669 147.442 46.2817 147.688 46.8502C147.934 47.4186 148.293 47.9308 148.744 48.3551C149.195 48.7794 149.729 49.1069 150.311 49.3175C150.893 49.528 151.513 49.6171 152.131 49.5793C152.773 49.5781 153.407 49.424 153.978 49.1295C154.549 48.8351 155.042 48.4088 155.416 47.886V49.2914H156.618V40.825H155.416V42.2135Z" fill="#00224C"/>
<path d="M165.339 45.3792C165.395 45.8351 165.347 46.2979 165.197 46.7322C165.047 47.1666 164.8 47.5609 164.475 47.8852C164.25 48.1013 163.985 48.2708 163.694 48.3841C163.404 48.4975 163.094 48.5523 162.782 48.5456C162.423 48.5639 162.064 48.5037 161.731 48.3692C161.397 48.2347 161.097 48.0291 160.851 47.7667C160.413 47.12 160.204 46.3448 160.259 45.5654V40.8242H159.057V45.5146C158.988 46.4922 159.251 47.4643 159.802 48.2747C160.164 48.7072 160.622 49.0499 161.139 49.2761C161.656 49.5023 162.218 49.6058 162.782 49.5785C163.316 49.6127 163.85 49.4997 164.324 49.252C164.799 49.0042 165.197 48.631 165.474 48.1731V49.3753H166.626V40.8242H165.406V45.3792H165.339Z" fill="#00224C"/>
<path d="M172.433 48.5294C171.535 48.5294 170.674 48.1726 170.039 47.5375C169.404 46.9024 169.047 46.041 169.047 45.1429C169.047 44.4731 169.245 43.8183 169.618 43.2614C169.99 42.7045 170.519 42.2704 171.137 42.0141C171.756 41.7578 172.437 41.6907 173.094 41.8214C173.751 41.952 174.354 42.2746 174.828 42.7482C175.302 43.2218 175.624 43.8252 175.755 44.4822C175.886 45.1391 175.818 45.82 175.562 46.4388C175.306 47.0577 174.872 47.5866 174.315 47.9587C173.758 48.3308 173.103 48.5294 172.433 48.5294ZM175.668 42.2304C175.303 41.7062 174.817 41.2782 174.251 40.9833C173.684 40.6883 173.055 40.5352 172.416 40.5371C171.263 40.6077 170.18 41.1156 169.388 41.9573C168.596 42.799 168.156 43.9111 168.156 45.0667C168.156 46.2223 168.596 47.3343 169.388 48.176C170.18 49.0177 171.263 49.5257 172.416 49.5962C173.058 49.6133 173.692 49.4668 174.261 49.1705C174.83 48.8743 175.314 48.438 175.668 47.9029V48.4617C175.705 48.8715 175.653 49.2844 175.516 49.6724C175.379 50.0604 175.16 50.4144 174.874 50.7101C174.588 51.0058 174.242 51.2364 173.859 51.386C173.475 51.5357 173.064 51.601 172.653 51.5774C171.976 51.5952 171.31 51.4007 170.748 51.0212C170.186 50.6417 169.757 50.0961 169.521 49.4608H168.234C168.509 50.4042 169.092 51.2285 169.89 51.8023C170.688 52.3761 171.655 52.6665 172.637 52.6272C173.283 52.6223 173.92 52.4775 174.504 52.2028C175.089 51.928 175.607 51.5298 176.023 51.0355C176.641 50.1075 176.921 48.9959 176.819 47.886V40.825H175.6L175.668 42.2304Z" fill="#00224C"/>
<path d="M187.91 40.6043C187.344 40.5988 186.785 40.7354 186.285 41.0016C185.785 41.2678 185.36 41.6552 185.048 42.1283C184.741 41.6489 184.317 41.2549 183.817 40.9826C183.317 40.7103 182.756 40.5686 182.187 40.5705C181.757 40.5661 181.331 40.6582 180.942 40.8399C180.552 41.0215 180.208 41.2882 179.935 41.6203V40.7906H178.716V49.4263H179.969V44.3465C179.937 43.7567 180.072 43.1699 180.358 42.6532C180.549 42.3325 180.823 42.069 181.15 41.8903C181.478 41.7115 181.848 41.6241 182.221 41.6372C182.596 41.6229 182.969 41.7096 183.299 41.8883C183.63 42.067 183.907 42.3311 184.1 42.6532C184.369 43.1757 184.498 43.7593 184.473 44.3465V49.4263H185.692V44.3465C185.66 43.7567 185.795 43.1699 186.081 42.6532C186.272 42.3325 186.546 42.069 186.874 41.8903C187.201 41.7115 187.571 41.6241 187.944 41.6372C188.32 41.6229 188.692 41.7096 189.023 41.8883C189.353 42.067 189.63 42.3311 189.824 42.6532C190.093 43.1757 190.221 43.7593 190.196 44.3465V49.4263H191.415V44.3465C191.464 43.8669 191.409 43.3825 191.255 42.9257C191.102 42.4689 190.852 42.0502 190.523 41.6976C190.195 41.3449 189.795 41.0665 189.35 40.8809C188.905 40.6953 188.426 40.6068 187.944 40.6213" fill="#00224C"/>
<path d="M194.057 44.4831C194.182 43.713 194.576 43.0125 195.17 42.507C195.765 42.0014 196.519 41.7238 197.299 41.7238C198.079 41.7238 198.834 42.0014 199.428 42.507C200.022 43.0125 200.417 43.713 200.542 44.4831H194.057ZM197.274 40.6055C196.084 40.6276 194.949 41.1149 194.114 41.9631C193.278 42.8113 192.808 43.9529 192.804 45.1435C192.795 46.2101 193.168 47.2447 193.853 48.0619C194.539 48.879 195.493 49.4253 196.545 49.6026C197.596 49.7799 198.677 49.5768 199.593 49.0296C200.508 48.4824 201.199 47.627 201.541 46.6166V46.532H200.288C200.049 47.1249 199.633 47.6298 199.096 47.9781C198.56 48.3265 197.93 48.5014 197.291 48.4793C196.493 48.446 195.733 48.1322 195.145 47.5931C194.556 47.0541 194.177 46.3244 194.074 45.5329H201.812C201.883 44.5775 201.652 43.6238 201.152 42.8067C200.752 42.1385 200.187 41.5847 199.51 41.199C198.834 40.8133 198.069 40.6089 197.291 40.6055" fill="#00224C"/>
<path d="M207.214 40.6051C206.718 40.5878 206.226 40.6894 205.778 40.9015C205.33 41.1137 204.94 41.4301 204.64 41.8243V40.8253H203.421V49.461H204.64V44.7029C204.606 44.2902 204.656 43.8748 204.787 43.4819C204.918 43.089 205.127 42.7267 205.402 42.417C205.897 41.9637 206.542 41.7102 207.214 41.7058C207.884 41.7165 208.527 41.9691 209.025 42.417C209.302 42.7267 209.515 43.0881 209.652 43.4804C209.788 43.8727 209.846 44.2882 209.821 44.7029V49.4441H211.023V44.7029C211.057 44.152 210.98 43.6 210.797 43.0795C210.614 42.5589 210.328 42.0803 209.957 41.6719C209.602 41.3086 209.174 41.0254 208.701 40.8414C208.228 40.6574 207.72 40.5768 207.214 40.6051Z" fill="#00224C"/>
<path d="M215.358 37.8105H214.156V40.8246H212.361V41.9252H214.156V49.4604H215.358V41.9252H217.407V40.8246H215.358V37.8105Z" fill="#00224C"/>
<path d="M219.354 44.4825C219.479 43.7124 219.874 43.0119 220.468 42.5063C221.062 42.0008 221.817 41.7231 222.597 41.7231C223.377 41.7231 224.132 42.0008 224.726 42.5063C225.32 43.0119 225.715 43.7124 225.84 44.4825H219.354ZM222.572 40.5879C221.383 40.6143 220.251 41.103 219.416 41.9502C218.582 42.7975 218.11 43.9366 218.101 45.1259C218.089 46.194 218.458 47.2315 219.142 48.0518C219.827 48.8721 220.781 49.4215 221.834 49.601C222.887 49.7806 223.969 49.5787 224.887 49.0315C225.804 48.4843 226.496 47.6278 226.839 46.616V46.5313H225.552C225.314 47.1232 224.901 47.6284 224.369 47.9794C223.836 48.3304 223.209 48.5105 222.572 48.4955C221.769 48.4611 221.005 48.1424 220.416 47.5965C219.826 47.0506 219.45 46.313 219.354 45.5154H227.093C227.139 44.8905 227.057 44.2629 226.851 43.671C226.646 43.0792 226.321 42.5357 225.898 42.074C225.474 41.6124 224.96 41.2424 224.388 40.9868C223.816 40.7312 223.198 40.5954 222.572 40.5879Z" fill="#00224C"/>
<path d="M232.918 48.546C232.02 48.546 231.158 48.1892 230.523 47.5541C229.888 46.919 229.531 46.0576 229.531 45.1594C229.531 44.2612 229.888 43.3998 230.523 42.7647C231.158 42.1296 232.02 41.7728 232.918 41.7728C233.816 41.7728 234.677 42.1296 235.312 42.7647C235.948 43.3998 236.304 44.2612 236.304 45.1594C236.304 46.0576 235.948 46.919 235.312 47.5541C234.677 48.1892 233.816 48.546 232.918 48.546ZM236.203 37.8275V42.1284C235.813 41.6302 235.314 41.2277 234.745 40.9519C234.175 40.676 233.55 40.534 232.918 40.5367C231.719 40.5367 230.569 41.0131 229.721 41.8609C228.873 42.7088 228.397 43.8588 228.397 45.0578C228.397 46.2569 228.873 47.4068 229.721 48.2547C230.569 49.1026 231.719 49.5789 232.918 49.5789C233.559 49.5724 234.191 49.4158 234.761 49.1218C235.331 48.8278 235.825 48.4045 236.203 47.8856V49.291H237.405V37.8105H236.203V37.8275Z" fill="#00224C"/>
<path d="M122.346 37.5234H121.195V39.2506H122.346V37.5234Z" fill="#00224C"/>
<path d="M117.266 37.8105H114.743V38.9112H116.115V48.3597H114.658V49.4434H118.621V48.3597H117.266V37.8105Z" fill="#00224C"/>
<path d="M122.634 40.8242H120.111V41.9079H121.482V48.3593H120.077V49.4431H124.005V48.3593H122.634V40.8242Z" fill="#00224C"/>
<path d="M127.477 38.3686C127.165 38.6798 126.93 39.0587 126.789 39.4758C126.648 39.8928 126.605 40.3368 126.664 40.7731H125.292V41.8906H126.664V48.3082H125.292V49.4088H129.17V48.3082H127.764V41.9414H129.17V40.8238H127.764V40.6376C127.72 40.3544 127.747 40.0645 127.845 39.795C127.943 39.5255 128.107 39.2852 128.323 39.0967C128.639 38.8533 129.025 38.7169 129.424 38.7072V37.6743C128.699 37.661 127.994 37.914 127.443 38.3855" fill="#00224C"/>
<path d="M131.913 44.652C132.052 43.9054 132.439 43.2274 133.01 42.7268C133.581 42.2262 134.304 41.9322 135.062 41.892C135.862 41.8782 136.64 42.1477 137.26 42.6529C137.88 43.158 138.301 43.8662 138.449 44.652H131.913ZM135.079 40.8252C134.291 40.8375 133.52 41.0612 132.848 41.4731C132.176 41.885 131.626 42.4699 131.257 43.1666C130.888 43.8634 130.713 44.6464 130.75 45.434C130.787 46.2215 131.035 46.9847 131.468 47.6438C131.901 48.3028 132.502 48.8336 133.21 49.1805C133.918 49.5275 134.707 49.678 135.493 49.6162C136.279 49.5545 137.034 49.2828 137.679 48.8295C138.324 48.3763 138.836 47.7581 139.16 47.0395V46.9549H137.907C137.556 47.5432 137.028 48.0055 136.399 48.276C135.769 48.5465 135.071 48.6113 134.402 48.4611C133.734 48.3109 133.13 47.9534 132.677 47.4397C132.224 46.9259 131.945 46.2822 131.879 45.6003H139.482V45.2277C139.489 44.6432 139.379 44.0633 139.158 43.522C138.937 42.9806 138.611 42.4889 138.198 42.0755C137.784 41.6622 137.293 41.3357 136.751 41.1151C136.21 40.8946 135.63 40.7845 135.045 40.7913" fill="#00224C"/>
<path d="M143.461 49.6819C143.76 49.6853 144.053 49.5998 144.303 49.4362C144.553 49.2727 144.749 49.0385 144.866 48.7634C144.982 48.4884 145.015 48.1848 144.958 47.8914C144.902 47.598 144.76 47.3279 144.55 47.1154C144.34 46.9029 144.071 46.7577 143.779 46.6982C143.486 46.6387 143.182 46.6675 142.906 46.781C142.629 46.8946 142.393 47.0877 142.226 47.3359C142.06 47.5841 141.971 47.8761 141.971 48.1749C141.969 48.372 142.006 48.5676 142.08 48.7503C142.154 48.9331 142.263 49.0994 142.402 49.2395C142.54 49.3797 142.705 49.491 142.887 49.5669C143.069 49.6428 143.264 49.6819 143.461 49.6819Z" fill="#00224C"/>
</svg>
