<svg width="140" height="139" viewBox="0 0 140 139" fill="none" xmlns="http://www.w3.org/2000/svg">
<path d="M69.6177 139L67.6149 119.526C63.409 78.4174 60.7252 75.6982 19.5074 71.4994L0 69.5L19.5074 67.5006C60.6851 63.3018 63.409 60.6226 67.6149 19.4744L69.6177 0L71.6205 19.4744C75.8264 60.5826 78.5101 63.3018 119.728 67.5006L139.235 69.5L119.728 71.4994C78.5502 75.6982 75.8264 78.3774 71.6205 119.526L69.6177 139ZM36.0906 69.5C59.4434 73.1789 65.9325 79.6571 69.6177 102.97C73.3028 79.6571 79.7919 73.1789 103.145 69.5C79.7919 65.8211 73.3028 59.3429 69.6177 36.0296C65.9325 59.3429 59.4434 65.8211 36.0906 69.5Z" fill="url(#paint0_linear_681_791)"/>
<defs>
<linearGradient id="paint0_linear_681_791" x1="0" y1="0" x2="265.239" y2="207.219" gradientUnits="userSpaceOnUse">
<stop stop-color="#FCD140" stop-opacity="0.83"/>
<stop offset="0.659892" stop-color="#FE9138"/>
</linearGradient>
</defs>
</svg>
