<svg width="146" height="115" viewBox="0 0 146 115" fill="none" xmlns="http://www.w3.org/2000/svg">
<path d="M49.6978 20.4306C80.2816 -0.510838 114.24 -5.40671 128.44 10.0737C143.878 26.9047 130.119 61.4548 97.6906 87.2041" stroke="white" stroke-width="2" stroke-miterlimit="10"/>
<path d="M53.5373 24.6799C52.2822 25.5626 50.7022 25.9455 49.1441 25.7446C47.586 25.5437 46.1772 24.7753 45.2271 23.6083C44.2793 22.441 43.8682 20.9711 44.084 19.5218C44.2999 18.0725 45.1251 16.7623 46.3782 15.8791C46.9986 15.4413 47.7057 15.1217 48.459 14.9386C49.2123 14.7555 49.997 14.7125 50.7681 14.812C51.5393 14.9115 52.2818 15.1517 52.9531 15.5187C53.6244 15.8857 54.2114 16.3723 54.6805 16.9507C55.1512 17.5279 55.495 18.1858 55.6923 18.8868C55.8896 19.5878 55.9365 20.3181 55.8303 21.036C55.7241 21.7539 55.4671 22.4452 55.0736 23.0705C54.6801 23.6957 54.158 24.2427 53.5373 24.6799Z" fill="white"/>
<path d="M78.7127 99.8724C51.3694 114.861 23.5608 117.019 11.0639 103.396C6.66439 98.6026 4.63808 92.3855 4.75635 85.3242" stroke="white" stroke-width="2" stroke-miterlimit="10"/>
<path d="M75.3379 95.2998C76.6782 94.5352 78.2892 94.296 79.8185 94.6344C81.3478 94.9728 82.6709 95.8613 83.4984 97.1055C84.3217 98.3527 84.5798 99.8531 84.2162 101.277C83.8526 102.702 82.8969 103.934 81.5588 104.703C80.2191 105.469 78.6073 105.709 77.0774 105.371C75.5475 105.032 74.2244 104.143 73.3983 102.897C72.5771 101.649 72.3201 100.149 72.6836 98.7256C73.0471 97.3019 74.0014 96.0701 75.3379 95.2998Z" fill="white"/>
<path opacity="0.1" d="M93.9299 98.5381C65.1043 115.986 34.7253 119.252 21.4952 104.829C6.05737 87.9977 19.8158 53.4475 52.2446 27.6909C84.6734 1.93429 123.449 -5.33982 138.887 11.5058C154.325 28.3515 140.567 62.887 108.138 88.6362" stroke="white" stroke-miterlimit="10"/>
<path d="M2.67969 33.0977H5.7832L5.29102 31.5254C5.07227 30.86 4.72591 29.7025 4.25195 28.0527H4.19727C3.87826 29.2103 3.53646 30.3678 3.17188 31.5254L2.67969 33.0977ZM7.08203 37.2676L6.09766 34.1367H2.35156L1.35352 37.2676H0.0410156L3.52734 27H4.97656L8.44922 37.2676H7.08203ZM13.5395 37.4453C12.382 37.4453 11.4705 37.0215 10.8052 36.1738C10.2492 35.4538 9.97117 34.5514 9.97117 33.4668C9.97117 32.0996 10.4269 31.0378 11.3384 30.2812C12.0037 29.7435 12.7739 29.4746 13.6489 29.4746C14.451 29.4837 15.1893 29.7799 15.8638 30.3633L15.2075 31.2246C14.688 30.7598 14.1821 30.5273 13.6899 30.5273C12.8878 30.5273 12.2589 30.8828 11.8032 31.5938C11.4751 32.1224 11.311 32.7467 11.311 33.4668C11.311 34.5788 11.6483 35.3991 12.3227 35.9277C12.7055 36.2285 13.1522 36.3789 13.6626 36.3789C14.3097 36.3698 14.9067 36.1191 15.4536 35.627L16.0005 36.4883C15.2986 37.1263 14.4783 37.4453 13.5395 37.4453ZM20.831 37.4453C19.5732 37.4453 18.8668 36.821 18.7119 35.5723C18.6845 35.3626 18.6709 35.1439 18.6709 34.916V30.7051H17.5361V29.7344L18.7255 29.666L18.8759 27.5332H19.9423V29.666H21.9931V30.7051H19.9423V34.9434C19.9423 35.7819 20.2067 36.2604 20.7353 36.3789C20.8538 36.4062 20.9814 36.4199 21.1181 36.4199C21.346 36.4199 21.6331 36.3516 21.9795 36.2148L22.2392 37.1719C21.6559 37.3542 21.1865 37.4453 20.831 37.4453ZM24.4858 37.2676V29.666H25.7573V37.2676H24.4858ZM25.1284 28.0938C24.7273 28.0938 24.4584 27.9297 24.3217 27.6016C24.2761 27.4922 24.2534 27.3828 24.2534 27.2734C24.2534 26.8633 24.4402 26.599 24.8139 26.4805C24.9233 26.4531 25.0281 26.4395 25.1284 26.4395C25.5476 26.4395 25.8256 26.6081 25.9623 26.9453C25.9988 27.0547 26.017 27.1641 26.017 27.2734C26.017 27.638 25.8439 27.8887 25.4975 28.0254C25.379 28.071 25.256 28.0938 25.1284 28.0938ZM30.7382 37.2676L27.9902 29.666H29.33L30.7519 33.9863C31.1347 35.2077 31.3717 35.9551 31.4628 36.2285H31.5175C31.5813 36.028 31.6816 35.709 31.8183 35.2715C32.0097 34.6882 32.1464 34.2598 32.2284 33.9863L33.664 29.666H34.9218L32.2284 37.2676H30.7382ZM37.1547 37.2676V29.666H38.4262V37.2676H37.1547ZM37.7973 28.0938C37.3962 28.0938 37.1273 27.9297 36.9906 27.6016C36.9451 27.4922 36.9223 27.3828 36.9223 27.2734C36.9223 26.8633 37.1091 26.599 37.4828 26.4805C37.5922 26.4531 37.697 26.4395 37.7973 26.4395C38.2165 26.4395 38.4945 26.6081 38.6312 26.9453C38.6677 27.0547 38.6859 27.1641 38.6859 27.2734C38.6859 27.638 38.5128 27.8887 38.1664 28.0254C38.0479 28.071 37.9249 28.0938 37.7973 28.0938ZM44.1591 37.4453C42.9012 37.4453 42.1949 36.821 42.0399 35.5723C42.0126 35.3626 41.9989 35.1439 41.9989 34.916V30.7051H40.8641V29.7344L42.0536 29.666L42.204 27.5332H43.2704V29.666H45.3212V30.7051H43.2704V34.9434C43.2704 35.7819 43.5347 36.2604 44.0634 36.3789C44.1818 36.4062 44.3095 36.4199 44.4462 36.4199C44.674 36.4199 44.9611 36.3516 45.3075 36.2148L45.5673 37.1719C44.9839 37.3542 44.5145 37.4453 44.1591 37.4453ZM47.9369 40.5488C47.6087 40.5488 47.3125 40.4941 47.0482 40.3848L47.2943 39.373C47.5222 39.4551 47.7136 39.4961 47.8685 39.4961C48.6524 39.4779 49.2266 38.931 49.5912 37.8555L49.7689 37.2812L46.7064 29.666H48.0462L49.5912 33.8906C49.6732 34.1367 49.8099 34.5286 50.0013 35.0664C50.1563 35.5039 50.2657 35.8229 50.3295 36.0234H50.3978C50.7351 34.8932 50.9492 34.1823 51.0404 33.8906L52.3939 29.666H53.638L50.767 37.8965C50.2657 39.3001 49.5912 40.1432 48.7435 40.4258C48.4883 40.5078 48.2194 40.5488 47.9369 40.5488Z" fill="white"/>
<path d="M60.3281 87.4199C59.3203 87.4199 58.5781 86.9902 58.1016 86.1309C57.7891 85.5527 57.6328 84.8457 57.6328 84.0098C57.6328 82.8613 57.9844 81.959 58.6875 81.3027C59.2031 80.8262 59.793 80.5879 60.457 80.5879C61.0273 80.5879 61.5703 80.7871 62.0859 81.1855C62.1562 81.2402 62.2266 81.2949 62.2969 81.3496L62.2266 80.2246V77.7168H63.3281V87.2676H62.4375L62.332 86.4941H62.3086C61.6758 87.1035 61.0156 87.4121 60.3281 87.4199ZM60.5625 86.5059C61.1406 86.498 61.6953 86.2012 62.2266 85.6152V82.1934C61.7031 81.7324 61.1758 81.502 60.6445 81.502C60.0273 81.502 59.5391 81.7949 59.1797 82.3809C58.9062 82.834 58.7695 83.373 58.7695 83.998C58.7695 85.2012 59.1094 85.9785 59.7891 86.3301C60.0234 86.4473 60.2812 86.5059 60.5625 86.5059ZM68.8162 87.4199C67.8397 87.4199 67.0584 87.0684 66.4725 86.3652C65.9569 85.7402 65.6991 84.9551 65.6991 84.0098C65.6991 82.8848 66.0584 81.9941 66.7772 81.3379C67.3241 80.8379 67.9452 80.5879 68.6405 80.5879C69.6952 80.5879 70.4412 81.0293 70.8787 81.9121C71.1131 82.4043 71.2303 82.9824 71.2303 83.6465C71.2303 83.8574 71.2147 84.0645 71.1834 84.2676H66.7889C66.8358 85.1738 67.1717 85.8262 67.7967 86.2246C68.1327 86.4434 68.5194 86.5527 68.9569 86.5527C69.5428 86.5449 70.0858 86.373 70.5858 86.0371L70.9842 86.752C70.2967 87.1973 69.5741 87.4199 68.8162 87.4199ZM66.7772 83.4824H70.2694C70.2694 82.3965 69.9022 81.7441 69.1678 81.5254C69.0037 81.4785 68.8319 81.4551 68.6522 81.4551C68.035 81.4551 67.5467 81.7285 67.1873 82.2754C66.9608 82.6191 66.8241 83.0215 66.7772 83.4824ZM73.4958 90.0098V80.752H74.3981L74.4919 81.4902H74.527C75.2614 80.8965 75.9528 80.5957 76.6012 80.5879C77.6481 80.5879 78.3903 81.0566 78.8278 81.9941C79.0778 82.5176 79.2028 83.1543 79.2028 83.9043C79.2028 85.1465 78.8317 86.0957 78.0895 86.752C77.5895 87.1973 77.0153 87.4199 76.3669 87.4199C75.7731 87.4121 75.1716 87.1621 74.5622 86.6699L74.5856 87.8066V90.0098H73.4958ZM76.1911 86.5059C76.8552 86.5059 77.3591 86.1816 77.7028 85.5332C77.9372 85.0879 78.0544 84.5488 78.0544 83.916C78.0387 82.3145 77.4684 81.5098 76.3434 81.502C75.8122 81.5098 75.2262 81.8105 74.5856 82.4043V85.8262C75.1169 86.2793 75.652 86.5059 76.1911 86.5059ZM83.0855 87.4199C82.3355 87.4199 81.7925 87.1543 81.4566 86.623C81.2691 86.3184 81.1753 85.9707 81.1753 85.5801C81.1753 84.7129 81.6792 84.0801 82.687 83.6816C83.2964 83.4395 84.1284 83.2598 85.1831 83.1426C85.1675 82.0488 84.7222 81.498 83.8472 81.4902C83.23 81.498 82.5777 81.7324 81.8902 82.1934L81.4566 81.4316C82.3316 80.8691 83.187 80.5879 84.023 80.5879C85.2417 80.5879 85.9683 81.1895 86.2027 82.3926C86.2573 82.6582 86.2847 82.9473 86.2847 83.2598V87.2676H85.3823L85.2886 86.4824H85.2534C84.4956 87.1074 83.773 87.4199 83.0855 87.4199ZM83.4019 86.5527C83.9175 86.5527 84.4683 86.2988 85.0542 85.791C85.1011 85.752 85.1441 85.7168 85.1831 85.6855V83.8574C83.5894 84.0527 82.6519 84.4277 82.3706 84.9824C82.2925 85.1387 82.2534 85.3105 82.2534 85.498C82.2534 86.0684 82.523 86.4082 83.062 86.5176C83.1714 86.541 83.2847 86.5527 83.4019 86.5527ZM89.0072 87.2676V80.752H89.9095L90.0033 81.9355H90.0384C90.4681 81.1621 90.9994 80.7207 91.6322 80.6113C91.7181 80.5957 91.8041 80.5879 91.89 80.5879C92.1791 80.5879 92.4095 80.6348 92.5814 80.7285L92.3822 81.6895C92.1947 81.6191 91.9837 81.584 91.7494 81.584C91.2181 81.584 90.7611 81.8926 90.3783 82.5098C90.2767 82.6816 90.183 82.873 90.097 83.084V87.2676H89.0072ZM96.3703 87.4199C95.2922 87.4199 94.6867 86.8848 94.5539 85.8145C94.5305 85.6348 94.5187 85.4473 94.5187 85.252V81.6426H93.5461V80.8105L94.5656 80.752L94.6945 78.9238H95.6086V80.752H97.3664V81.6426H95.6086V85.2754C95.6086 85.9941 95.8352 86.4043 96.2883 86.5059C96.3898 86.5293 96.4992 86.541 96.6164 86.541C96.8117 86.541 97.0578 86.4824 97.3547 86.3652L97.5773 87.1855C97.0773 87.3418 96.675 87.4199 96.3703 87.4199ZM99.503 87.2676V80.752H100.405L100.499 81.7012H100.534C101.214 80.9668 101.89 80.5957 102.562 80.5879C103.476 80.5957 104.077 81.0098 104.366 81.8301C105.132 81.0098 105.847 80.5957 106.511 80.5879C107.823 80.6035 108.483 81.4551 108.491 83.1426V87.2676H107.401V83.2832C107.401 82.3066 107.132 81.7441 106.593 81.5957C106.468 81.5645 106.335 81.5488 106.194 81.5488C105.694 81.5566 105.144 81.8887 104.542 82.5449V87.2676H103.452V83.2832C103.452 82.3066 103.183 81.7441 102.644 81.5957C102.519 81.5645 102.386 81.5488 102.245 81.5488C101.73 81.5566 101.179 81.8887 100.593 82.5449V87.2676H99.503ZM113.897 87.4199C112.921 87.4199 112.14 87.0684 111.554 86.3652C111.038 85.7402 110.78 84.9551 110.78 84.0098C110.78 82.8848 111.14 81.9941 111.858 81.3379C112.405 80.8379 113.026 80.5879 113.722 80.5879C114.776 80.5879 115.522 81.0293 115.96 81.9121C116.194 82.4043 116.311 82.9824 116.311 83.6465C116.311 83.8574 116.296 84.0645 116.265 84.2676H111.87C111.917 85.1738 112.253 85.8262 112.878 86.2246C113.214 86.4434 113.6 86.5527 114.038 86.5527C114.624 86.5449 115.167 86.373 115.667 86.0371L116.065 86.752C115.378 87.1973 114.655 87.4199 113.897 87.4199ZM111.858 83.4824H115.35C115.35 82.3965 114.983 81.7441 114.249 81.5254C114.085 81.4785 113.913 81.4551 113.733 81.4551C113.116 81.4551 112.628 81.7285 112.268 82.2754C112.042 82.6191 111.905 83.0215 111.858 83.4824ZM118.577 87.2676V80.752H119.479L119.573 81.6895H119.608C120.319 80.9941 121.007 80.627 121.671 80.5879C121.717 80.5879 121.76 80.5879 121.8 80.5879C123.12 80.6035 123.784 81.4551 123.792 83.1426V87.2676H122.69V83.2832C122.69 82.3535 122.444 81.7988 121.952 81.6191C121.803 81.5723 121.639 81.5488 121.46 81.5488C120.991 81.5488 120.514 81.7637 120.03 82.1934C119.921 82.2949 119.8 82.4121 119.667 82.5449V87.2676H118.577ZM128.612 87.4199C127.534 87.4199 126.928 86.8848 126.795 85.8145C126.772 85.6348 126.76 85.4473 126.76 85.252V81.6426H125.788V80.8105L126.807 80.752L126.936 78.9238H127.85V80.752H129.608V81.6426H127.85V85.2754C127.85 85.9941 128.077 86.4043 128.53 86.5059C128.631 86.5293 128.741 86.541 128.858 86.541C129.053 86.541 129.299 86.4824 129.596 86.3652L129.819 87.1855C129.319 87.3418 128.917 87.4199 128.612 87.4199Z" fill="white"/>
<path d="M20.7017 46.2051L19.3267 48.1113C18.2017 47.3197 16.2225 46.1426 13.3892 44.5801L14.7017 42.8926C17.2642 44.1426 19.2642 45.2467 20.7017 46.2051ZM19.0767 54.8301L17.7017 56.7988C16.2433 55.7988 14.285 54.6426 11.8267 53.3301L13.1392 51.6113C16.1183 53.1322 18.0975 54.2051 19.0767 54.8301ZM14.5767 71.2988L12.6079 69.6738C14.5454 66.9655 16.5558 63.5592 18.6392 59.4551L20.3579 61.0176C18.6287 64.5592 16.7017 67.9863 14.5767 71.2988ZM36.5454 68.1426V61.5488H25.1392V68.1426H36.5454ZM40.8892 54.1113H32.1079V59.3613H38.7954V71.5488H36.5454V70.3613H25.1392V71.7051H22.9517V59.3613H29.8579V54.1113H20.6392V51.7988H29.8579V46.6113C27.2537 46.9863 24.8996 47.278 22.7954 47.4863C22.6912 46.903 22.4829 46.2259 22.1704 45.4551C29.2121 44.7259 34.3683 43.778 37.6392 42.6113L39.5454 44.4551C37.4204 45.1842 34.9412 45.7884 32.1079 46.2676V51.7988H40.8892V54.1113ZM48.9729 59.6426H53.0042V57.2988H48.9729V59.6426ZM48.9729 53.4238V55.7363H53.0042V53.4238H48.9729ZM59.3479 53.4238H55.1604V55.7363H59.3479V53.4238ZM59.3479 59.6426V57.2988H55.1604V59.6426H59.3479ZM67.7542 49.8926H74.5354C74.5354 49.9134 74.525 50.3197 74.5042 51.1113C74.2542 60.5072 73.9312 66.2259 73.5354 68.2676C73.3479 69.2467 73.0979 69.9342 72.7854 70.3301C72.3687 71.0176 71.7021 71.4134 70.7854 71.5176C70.7437 71.5176 70.7021 71.5176 70.6604 71.5176C69.8271 71.6217 68.5354 71.6217 66.7854 71.5176C66.7021 70.6634 66.4729 69.9134 66.0979 69.2676C67.3687 69.3717 68.5562 69.4238 69.6604 69.4238C70.1812 69.403 70.5667 69.2363 70.8167 68.9238C71.3792 68.2155 71.7958 64.6738 72.0667 58.2988C72.1292 56.5488 72.1917 54.4967 72.2542 52.1426H67.6604C67.3896 58.4551 66.3896 63.2676 64.6604 66.5801C63.5146 68.7259 62.025 70.4863 60.1917 71.8613C59.7542 71.2572 59.1604 70.6947 58.4104 70.1738C58.7437 69.9447 59.2125 69.5697 59.8167 69.0488C53.7125 69.7572 49.2437 70.2572 46.4104 70.5488L46.0667 68.4551C47.8792 68.3092 50.1917 68.1009 53.0042 67.8301V65.0801H46.9729V63.2363H53.0042V61.2988H47.0354V51.7988H53.0042V49.7676H46.0979V47.9238H53.0042V45.7988C50.2542 46.0072 48.2542 46.1322 47.0042 46.1738C46.8792 45.4863 46.6812 44.8926 46.4104 44.3926C52.4521 44.0801 57.0562 43.5592 60.2229 42.8301L61.4104 44.6738C59.9521 44.9863 57.8687 45.2884 55.1604 45.5801V47.9238H61.9417V49.7676H55.1604V51.7988H61.3792V61.2988H55.1604V63.2363H61.4417V65.0801H55.1604V67.6113C56.5771 67.4863 58.7125 67.2572 61.5667 66.9238V67.0801C63.6083 64.3092 64.8583 60.2155 65.3167 54.7988C65.3792 53.9655 65.4312 53.0801 65.4729 52.1426H61.7229V49.8926H65.5354C65.5771 48.3717 65.5979 46.0384 65.5979 42.8926H67.8167C67.8167 46.0592 67.7958 48.3926 67.7542 49.8926ZM96.3067 46.0488V48.1113H81.1504V46.0488H87.5567V42.6113H89.8067V46.0488H96.3067ZM92.3692 54.5176L90.4629 54.0488C91.2546 52.0905 91.8483 50.2676 92.2442 48.5801L94.4942 49.1426C93.4108 52.0384 92.7025 53.8301 92.3692 54.5176ZM86.5567 53.9551L84.4942 54.4238C84.3067 52.7363 83.8379 51.0072 83.0879 49.2363L85.0879 48.8301C85.8587 50.4551 86.3483 52.1634 86.5567 53.9551ZM92.6504 61.8613H84.6504V67.7676H92.6504V61.8613ZM82.4629 71.7363V59.7676H94.9629V71.5488H92.6504V69.8301H84.6504V71.7363H82.4629ZM80.3067 56.9863V54.7988H96.7442V56.9863H80.3067ZM107.838 44.2676L109.557 45.3926C107.64 49.7467 106.161 52.9447 105.119 54.9863C107.765 57.4447 109.109 60.028 109.15 62.7363C109.13 64.7988 108.609 66.1842 107.588 66.8926C106.984 67.2884 106.286 67.528 105.494 67.6113C104.786 67.6947 103.859 67.7155 102.713 67.6738C102.671 66.7988 102.442 66.0072 102.025 65.2988C102.88 65.3822 103.723 65.403 104.557 65.3613C105.14 65.3197 105.598 65.2051 105.932 65.0176C106.515 64.6426 106.807 63.7988 106.807 62.4863C106.786 60.0697 105.411 57.6842 102.682 55.3301C103.744 53.1634 104.984 50.2572 106.4 46.6113H100.338V71.7051H98.0254V44.3613H107.432L107.838 44.2676Z" fill="white"/>
</svg>
