<?xml version="1.0" encoding="utf-8"?>
<!-- Generator: Adobe Illustrator 24.0.1, SVG Export Plug-In . SVG Version: 6.00 Build 0)  -->
<svg version="1.1" id="ASML_logo_master" xmlns="http://www.w3.org/2000/svg" xmlns:xlink="http://www.w3.org/1999/xlink" x="0px"
	 y="0px" viewBox="0 0 1071.57 305.06" style="enable-background:new 0 0 1071.57 305.06;" xml:space="preserve">
<style type="text/css">
	.st0{fill:#0F238C;}
</style>
<g>
	<g>
		<polygon class="st0" points="715.35,295.39 752.2,116.81 766.23,295.39 845.75,295.39 808.9,11.93 723.86,11.93 684.17,182.01 
			644.49,11.93 559.45,11.93 522.59,295.39 601.97,295.39 616.14,116.81 652.99,295.39 		"/>
		<g>
			<polygon class="st0" points="961.97,235.86 961.97,11.93 885.43,11.93 885.43,295.39 1066.85,295.39 1066.85,235.86 			"/>
		</g>
		<g>
			<path class="st0" d="M185.27,11.93H88.89L3.85,295.39h85.04l11.34-51.02h73.7l11.34,51.02h85.04L185.27,11.93z M137.08,74.29
				l25.51,116.22l-51.02,0L137.08,74.29z"/>
		</g>
	</g>
	<g>
		<path class="st0" d="M474.4,91.3c-70.43-61.6-180.34-36.56-181.42,19.84C277.01,6.5,403.55-15.35,474.4,17.6
			C475.66,34.4,476.92,52.49,474.4,91.3z"/>
		<path class="st0" d="M415.97,124.68c-17.75-6.93-43.56-13.23-43.6-33.4c-0.01-8.24,3.38-17.19,19.83-22.65
			c-56.69,5.67-75.6,74.63-12.9,108.91c10.93,5.97,29.9,12.31,29.9,32.82c0,23.96-26.32,32.62-43.63,32.25
			c-28.76-0.61-51.88-10.65-78.26-29.42v68.03c31.21,13.43,82.04,28.93,133,13.26c41.18-12.67,76.77-47.24,76.77-84.12
			C497.08,150.33,444.99,136.01,415.97,124.68z"/>
	</g>
</g>
</svg>
