<svg width="1213" height="818" viewBox="0 0 1213 818" fill="none" xmlns="http://www.w3.org/2000/svg">
<path fill-rule="evenodd" clip-rule="evenodd" d="M104.337 0L103.774 0.483034L99.6811 4H105.819H1106.71H1112.85L1108.76 0.483034L1108.19 0H1107.45H105.078H104.337ZM1212.53 729.559V90.565V89.6466L1211.83 89.0481L1208.53 86.2104V727.713L1208.53 727.714V732.971L1211.83 730.157L1212.53 729.559ZM1114.48 813.188H1108.31H104.215H98.0513L102.18 816.71L102.741 817.188H103.478H1109.05H1109.79L1110.35 816.71L1114.48 813.188ZM0 729.559L0.701414 730.157L4 732.971V727.714L3.99927 727.713V86.2104L0.696614 89.0481L0 89.6466V90.565V729.559Z" fill="url(#paint0_linear_300_3037)"/>
<defs>
<linearGradient id="paint0_linear_300_3037" x1="0" y1="0" x2="878.648" y2="1268.68" gradientUnits="userSpaceOnUse">
<stop stop-color="#ABF0EA"/>
<stop offset="1" stop-color="#4F9ACD"/>
</linearGradient>
</defs>
</svg>
