<svg width="50" height="50" viewBox="0 0 50 50" fill="none" xmlns="http://www.w3.org/2000/svg">
<path d="M25.0449 28.9286C25.0729 28.9639 25.1087 28.9925 25.1496 29.0121C25.1905 29.0318 25.2353 29.042 25.2808 29.042C25.3262 29.042 25.3711 29.0318 25.4119 29.0121C25.4528 28.9925 25.4886 28.9639 25.5166 28.9286L29.7091 23.6954C29.8626 23.5033 29.7241 23.219 29.4733 23.219H26.6995V10.7212C26.6995 10.5587 26.5647 10.4258 26.4 10.4258H24.154C23.9893 10.4258 23.8546 10.5587 23.8546 10.7212V23.2153H21.0882C20.8374 23.2153 20.6989 23.4996 20.8524 23.6917L25.0449 28.9286ZM38.9813 27.636H36.7353C36.5706 27.636 36.4358 27.769 36.4358 27.9315V33.619H14.1257V27.9315C14.1257 27.769 13.9909 27.636 13.8262 27.636H11.5802C11.4155 27.636 11.2808 27.769 11.2808 27.9315V35.244C11.2808 35.8977 11.8161 36.4258 12.4786 36.4258H38.0829C38.7455 36.4258 39.2808 35.8977 39.2808 35.244V27.9315C39.2808 27.769 39.146 27.636 38.9813 27.636Z" fill="#ABE3F0"/>
<path d="M24.9216 47.8431C37.5808 47.8431 47.8431 37.5808 47.8431 24.9216C47.8431 12.2624 37.5808 2 24.9216 2C12.2624 2 2 12.2624 2 24.9216C2 37.5808 12.2624 47.8431 24.9216 47.8431Z" stroke="#A1EBE4" stroke-width="2.5" stroke-miterlimit="10"/>
</svg>
