<svg width="34" height="34" viewBox="0 0 34 34" fill="none" xmlns="http://www.w3.org/2000/svg">
<path d="M2 29.6923V4.30769C2 3.69565 2.24313 3.10868 2.67591 2.67591C3.10868 2.24313 3.69565 2 4.30769 2H29.6923C30.3043 2 30.8913 2.24313 31.3241 2.67591C31.7569 3.10868 32 3.69565 32 4.30769V29.6923C32 30.3043 31.7569 30.8913 31.3241 31.3241C30.8913 31.7569 30.3043 32 29.6923 32H22.7692V21.0615H24.4077C24.781 21.0615 25.1391 20.9132 25.4031 20.6492C25.6671 20.3852 25.8154 20.0272 25.8154 19.6538V17.8769C25.8154 17.6921 25.779 17.509 25.7082 17.3382C25.6375 17.1674 25.5338 17.0123 25.4031 16.8815C25.2724 16.7508 25.1172 16.6471 24.9464 16.5764C24.7756 16.5056 24.5926 16.4692 24.4077 16.4692H22.8615V14.3C22.8615 12.3615 23.7385 12.3615 24.6154 12.3615H25.7462C25.9319 12.3692 26.117 12.336 26.2885 12.2642C26.46 12.1924 26.6136 12.0838 26.7385 11.9462C26.8726 11.8185 26.9787 11.6644 27.0502 11.4936C27.1217 11.3228 27.157 11.139 27.1538 10.9538V9.24615C27.16 9.05824 27.1291 8.87095 27.0628 8.695C26.9965 8.51905 26.8962 8.35788 26.7676 8.22072C26.6391 8.08355 26.4847 7.97308 26.3134 7.89561C26.1421 7.81814 25.9572 7.77519 25.7692 7.76923H23.1154C22.341 7.74012 21.5696 7.87945 20.8543 8.17759C20.1391 8.47574 19.4971 8.92559 18.9727 9.49608C18.4483 10.0666 18.0539 10.7441 17.8169 11.4819C17.58 12.2196 17.5059 13.0001 17.6 13.7692V16.4692H16.1231C15.9363 16.4662 15.7507 16.5003 15.5773 16.5697C15.4038 16.6391 15.2459 16.7423 15.1127 16.8733C14.9796 17.0043 14.8738 17.1605 14.8016 17.3328C14.7294 17.5051 14.6923 17.6901 14.6923 17.8769V19.6538C14.6923 19.8407 14.7294 20.0256 14.8016 20.1979C14.8738 20.3702 14.9796 20.5265 15.1127 20.6575C15.2459 20.7885 15.4038 20.8917 15.5773 20.9611C15.7507 21.0305 15.9363 21.0646 16.1231 21.0615H17.6V32H4.30769C3.69565 32 3.10868 31.7569 2.67591 31.3241C2.24313 30.8913 2 30.3043 2 29.6923Z" stroke="#E2E2E2" stroke-width="3.5" stroke-linecap="round" stroke-linejoin="round"/>
</svg>
