<svg width="1440" height="766" viewBox="0 0 1440 766" fill="none" xmlns="http://www.w3.org/2000/svg">
<path d="M-1 2H1439V766H-1V2Z" fill="#323030"/>
<path d="M185.725 621.737H1259.86M293.181 564.663H1152.41M364.796 526.636H1080.79M415.963 499.473H1029.64M901.773 479.107L1200.27 716.838M812.279 479.107L961.529 716.838M722.803 479.107V716.838M633.309 479.107L484.059 716.838M543.816 479.107L245.332 716.838M453.655 436.642L-0.699789 573.558M453.655 389.914L-0.41626 430.452M453.672 343.186L-0.132792 287.498M453.672 296.48L0.150738 144.695M172.416 96.0621L171.716 628.165M274.435 151.816L274.051 575.615M341.964 188.739L341.747 540.855M389.979 214.971L389.846 516.16M425.853 234.58L425.77 497.72M986.746 431.253L1438.7 574.511M986.48 385.304L1438.38 431.859M986.229 339.312L1438.07 288.905M985.979 293.277L1437.77 145.647M1264.08 96.1704L1265.92 625.07M1162.38 151.361L1164.17 571.113M1095.52 187.635L1097.17 535.596M1048.2 213.304L1049.72 510.446M1012.98 232.437L1014.36 491.703M185.725 100.651H1259.86M293.181 159.824H1152.41M364.796 199.279H1080.79M415.963 227.437H1029.64M901.773 248.583L1200.27 2M812.279 248.583L961.529 2M722.803 248.583V2M633.309 248.583L484.059 2M543.816 248.583L245.332 2M454.322 479.107H991.266L1439 716.838H6.58844L454.322 479.107ZM453.689 249.795L0.450974 2.06474L-1 716.859L453.639 483.392L453.689 249.795ZM985.712 247.241L1437.45 2.06491L1439 716.859L986.997 477.18L985.712 247.241ZM454.322 248.561H991.266L1439 2H6.58844L454.322 248.561Z" stroke="url(#paint0_radial_1268_913)" stroke-width="2" stroke-miterlimit="10"/>
<defs>
<radialGradient id="paint0_radial_1268_913" cx="0" cy="0" r="1" gradientUnits="userSpaceOnUse" gradientTransform="translate(719 359.43) rotate(90) scale(357.43 720)">
<stop offset="0.140625"/>
<stop offset="0.520833" stop-color="#3D2567"/>
<stop offset="0.979167" stop-color="#4C2A84"/>
</radialGradient>
</defs>
</svg>
