<svg width="35" height="20" viewBox="0 0 35 20" fill="none" xmlns="http://www.w3.org/2000/svg">
<path d="M9.91667 0C8.61439 -1.94054e-08 7.32487 0.256502 6.12172 0.754862C4.91858 1.25322 3.82537 1.98368 2.90452 2.90452C1.98368 3.82537 1.25322 4.91858 0.754861 6.12172C0.256502 7.32487 0 8.61439 0 9.91667C0 11.2189 0.256502 12.5085 0.754861 13.7116C1.25322 14.9148 1.98368 16.008 2.90452 16.9288C3.82537 17.8497 4.91858 18.5801 6.12172 19.0785C7.32487 19.5768 8.61439 19.8333 9.91667 19.8333C11.2189 19.8333 12.5085 19.5768 13.7116 19.0785C14.9148 18.5801 16.008 17.8497 16.9288 16.9288C17.8497 16.008 18.5801 14.9148 19.0785 13.7116C19.5768 12.5085 19.8333 11.2189 19.8333 9.91667C19.8333 8.61439 19.5768 7.32487 19.0785 6.12172C18.5801 4.91858 17.8497 3.82537 16.9288 2.90452C16.008 1.98368 14.9148 1.25322 13.7116 0.754862C12.5085 0.256502 11.2189 -1.94054e-08 9.91667 0ZM25.6667 1.16667C25.0538 1.16667 24.447 1.39299 23.8808 1.83272C23.3146 2.27245 22.8002 2.91697 22.3668 3.72948C21.9335 4.542 21.5898 5.50659 21.3552 6.56819C21.1207 7.62979 21 8.7676 21 9.91667C21 11.0657 21.1207 12.2035 21.3552 13.2651C21.5898 14.3267 21.9335 15.2913 22.3668 16.1039C22.8002 16.9164 23.3146 17.5609 23.8808 18.0006C24.447 18.4403 25.0538 18.6667 25.6667 18.6667C26.2795 18.6667 26.8863 18.4403 27.4525 18.0006C28.0187 17.5609 28.5332 16.9164 28.9665 16.1039C29.3998 15.2913 29.7436 14.3267 29.9781 13.2651C30.2126 12.2035 30.3333 11.0657 30.3333 9.91667C30.3333 8.7676 30.2126 7.62979 29.9781 6.56819C29.7436 5.50659 29.3998 4.542 28.9665 3.72948C28.5332 2.91697 28.0187 2.27245 27.4525 1.83272C26.8863 1.39299 26.2795 1.16667 25.6667 1.16667ZM33.25 2.33333C32.7859 2.33333 32.3408 3.13229 32.0126 4.55444C31.6844 5.97659 31.5 7.90544 31.5 9.91667C31.5 11.9279 31.6844 13.8567 32.0126 15.2789C32.3408 16.701 32.7859 17.5 33.25 17.5C33.7141 17.5 34.1592 16.701 34.4874 15.2789C34.8156 13.8567 35 11.9279 35 9.91667C35 7.90544 34.8156 5.97659 34.4874 4.55444C34.1592 3.13229 33.7141 2.33333 33.25 2.33333Z" fill="#E2E2E2"/>
</svg>
