<svg width="385" height="221" viewBox="0 0 385 221" fill="none" xmlns="http://www.w3.org/2000/svg">
<path fill-rule="evenodd" clip-rule="evenodd" d="M33.8768 0L33.351 0.38222L28.3738 4H35.177H349.822H356.625L351.648 0.38222L351.122 0H350.472H34.5269H33.8768ZM384.962 196.782V25.616V24.5972L384.138 23.9982L380.962 21.6899V194.735L380.962 194.735V199.668L384.133 197.38L384.962 196.782ZM357.166 216.837H350.33H34.6689H27.8328L32.8524 220.459L33.3764 220.837H34.0227H350.976H351.623L352.147 220.459L357.166 216.837ZM0.0371094 196.782L0.866562 197.38L4.03711 199.668V194.735L4.03682 194.735V21.6899L0.861189 23.9982L0.0371094 24.5972V25.616V196.782Z" fill="url(#paint0_linear_300_3027)"/>
<defs>
<linearGradient id="paint0_linear_300_3027" x1="0.0371094" y1="0" x2="221.978" y2="376.448" gradientUnits="userSpaceOnUse">
<stop stop-color="#ABF0EA"/>
<stop offset="1" stop-color="#4F9ACD"/>
</linearGradient>
</defs>
</svg>
