<svg width="48" height="48" viewBox="0 0 48 48" fill="none" xmlns="http://www.w3.org/2000/svg">
<path d="M24 47.9189L23.3096 41.2053C21.8596 27.0336 20.9344 26.0962 6.72497 24.6487L0 23.9594L6.72497 23.2702C20.9206 21.8227 21.8596 20.899 23.3096 6.71361L24 0L24.6904 6.71361C26.1404 20.8852 27.0656 21.8227 41.275 23.2702L48 23.9594L41.275 24.6487C27.0794 26.0962 26.1404 27.0198 24.6904 41.2053L24 47.9189ZM12.4419 23.9594C20.4925 25.2277 22.7296 27.461 24 35.498C25.2704 27.461 27.5075 25.2277 35.5581 23.9594C27.5075 22.6912 25.2704 20.4579 24 12.4209C22.7296 20.4579 20.4925 22.6912 12.4419 23.9594Z" fill="url(#paint0_linear_301_3091)"/>
<defs>
<linearGradient id="paint0_linear_301_3091" x1="0.00883774" y1="23.9622" x2="47.995" y2="23.9622" gradientUnits="userSpaceOnUse">
<stop offset="0.119" stop-color="#92CAC5"/>
<stop offset="1" stop-color="#4F9ACD"/>
</linearGradient>
</defs>
</svg>
