<svg width="379" height="656" viewBox="0 0 379 656" fill="none" xmlns="http://www.w3.org/2000/svg">
<line x1="172.5" y1="-9" x2="172.5" y2="636" stroke="url(#paint0_linear_300_2459)" stroke-width="3"/>
<circle cx="172" cy="41" r="10" fill="#5D5C95"/>
<path d="M3.128 50V40.056L0.96 41.368V39.776L3.128 38.48H4.576V50H3.128ZM14.548 50.24C13.8013 50.24 13.1347 50.072 12.548 49.736C11.9667 49.3947 11.5053 48.9333 11.164 48.352C10.828 47.7653 10.66 47.0987 10.66 46.352V42.128C10.66 41.3813 10.828 40.7147 11.164 40.128C11.5053 39.5413 11.9667 39.08 12.548 38.744C13.1347 38.408 13.8013 38.24 14.548 38.24C15.2947 38.24 15.9613 38.408 16.548 38.744C17.1347 39.08 17.596 39.5413 17.932 40.128C18.268 40.7147 18.436 41.3813 18.436 42.128V46.352C18.436 47.0987 18.268 47.7653 17.932 48.352C17.596 48.9333 17.1347 49.3947 16.548 49.736C15.9613 50.072 15.2947 50.24 14.548 50.24ZM14.548 48.872C15.0013 48.872 15.412 48.7627 15.78 48.544C16.148 48.3253 16.4413 48.032 16.66 47.664C16.8787 47.2907 16.988 46.88 16.988 46.432V42.04C16.988 41.5867 16.8787 41.176 16.66 40.808C16.4413 40.44 16.148 40.1467 15.78 39.928C15.412 39.7093 15.0013 39.6 14.548 39.6C14.1 39.6 13.6893 39.7093 13.316 39.928C12.948 40.1467 12.6547 40.44 12.436 40.808C12.2173 41.176 12.108 41.5867 12.108 42.04V46.432C12.108 46.88 12.2173 47.2907 12.436 47.664C12.6547 48.032 12.948 48.3253 13.316 48.544C13.6893 48.7627 14.1 48.872 14.548 48.872ZM26.6276 38.48H28.0756L25.0036 50H23.5556L26.6276 38.48ZM32.8731 49.992L32.8811 48.712L37.9931 44.112C38.4198 43.728 38.7051 43.3653 38.8491 43.024C38.9985 42.6773 39.0731 42.3227 39.0731 41.96C39.0731 41.5173 38.9718 41.1173 38.7691 40.76C38.5665 40.4027 38.2891 40.12 37.9371 39.912C37.5905 39.704 37.1958 39.6 36.7531 39.6C36.2945 39.6 35.8865 39.7093 35.5291 39.928C35.1718 40.1413 34.8891 40.4267 34.6811 40.784C34.4785 41.1413 34.3798 41.5307 34.3851 41.952H32.9291C32.9291 41.2267 33.0971 40.5867 33.4331 40.032C33.7691 39.472 34.2251 39.0347 34.8011 38.72C35.3825 38.4 36.0411 38.24 36.7771 38.24C37.4918 38.24 38.1318 38.4053 38.6971 38.736C39.2625 39.0613 39.7078 39.5067 40.0331 40.072C40.3638 40.632 40.5291 41.2667 40.5291 41.976C40.5291 42.4773 40.4651 42.912 40.3371 43.28C40.2145 43.648 40.0225 43.9893 39.7611 44.304C39.4998 44.6133 39.1718 44.944 38.7771 45.296L34.5291 49.112L34.3451 48.632H40.5291V49.992H32.8731ZM45.1631 49.992L45.1711 48.712L50.2831 44.112C50.7098 43.728 50.9951 43.3653 51.1391 43.024C51.2885 42.6773 51.3631 42.3227 51.3631 41.96C51.3631 41.5173 51.2618 41.1173 51.0591 40.76C50.8565 40.4027 50.5791 40.12 50.2271 39.912C49.8805 39.704 49.4858 39.6 49.0431 39.6C48.5845 39.6 48.1765 39.7093 47.8191 39.928C47.4618 40.1413 47.1791 40.4267 46.9711 40.784C46.7685 41.1413 46.6698 41.5307 46.6751 41.952H45.2191C45.2191 41.2267 45.3871 40.5867 45.7231 40.032C46.0591 39.472 46.5151 39.0347 47.0911 38.72C47.6725 38.4 48.3311 38.24 49.0671 38.24C49.7818 38.24 50.4218 38.4053 50.9871 38.736C51.5525 39.0613 51.9978 39.5067 52.3231 40.072C52.6538 40.632 52.8191 41.2667 52.8191 41.976C52.8191 42.4773 52.7551 42.912 52.6271 43.28C52.5045 43.648 52.3125 43.9893 52.0511 44.304C51.7898 44.6133 51.4618 44.944 51.0671 45.296L46.8191 49.112L46.6351 48.632H52.8191V49.992H45.1631ZM74.1474 50.24C73.4007 50.24 72.734 50.072 72.1474 49.736C71.566 49.3947 71.1047 48.9333 70.7634 48.352C70.4274 47.7653 70.2594 47.0987 70.2594 46.352V42.128C70.2594 41.3813 70.4274 40.7147 70.7634 40.128C71.1047 39.5413 71.566 39.08 72.1474 38.744C72.734 38.408 73.4007 38.24 74.1474 38.24C74.894 38.24 75.5607 38.408 76.1474 38.744C76.734 39.08 77.1954 39.5413 77.5314 40.128C77.8674 40.7147 78.0354 41.3813 78.0354 42.128V46.352C78.0354 47.0987 77.8674 47.7653 77.5314 48.352C77.1954 48.9333 76.734 49.3947 76.1474 49.736C75.5607 50.072 74.894 50.24 74.1474 50.24ZM74.1474 48.872C74.6007 48.872 75.0114 48.7627 75.3794 48.544C75.7474 48.3253 76.0407 48.032 76.2594 47.664C76.478 47.2907 76.5874 46.88 76.5874 46.432V42.04C76.5874 41.5867 76.478 41.176 76.2594 40.808C76.0407 40.44 75.7474 40.1467 75.3794 39.928C75.0114 39.7093 74.6007 39.6 74.1474 39.6C73.6994 39.6 73.2887 39.7093 72.9154 39.928C72.5474 40.1467 72.254 40.44 72.0354 40.808C71.8167 41.176 71.7074 41.5867 71.7074 42.04V46.432C71.7074 46.88 71.8167 47.2907 72.0354 47.664C72.254 48.032 72.5474 48.3253 72.9154 48.544C73.2887 48.7627 73.6994 48.872 74.1474 48.872ZM86.915 50.24C86.179 50.24 85.5283 50.0933 84.963 49.8C84.3977 49.5013 83.955 49.088 83.635 48.56C83.315 48.032 83.155 47.416 83.155 46.712C83.155 46.024 83.3177 45.4027 83.643 44.848C83.9737 44.2933 84.4697 43.8667 85.131 43.568L85.107 44.088C84.5683 43.8267 84.155 43.4587 83.867 42.984C83.579 42.504 83.435 41.9733 83.435 41.392C83.435 40.7413 83.5843 40.1813 83.883 39.712C84.1817 39.2427 84.5923 38.88 85.115 38.624C85.6377 38.368 86.2377 38.24 86.915 38.24C87.5923 38.24 88.1923 38.368 88.715 38.624C89.2377 38.88 89.6483 39.2427 89.947 39.712C90.2457 40.1813 90.395 40.7413 90.395 41.392C90.395 41.9733 90.259 42.5013 89.987 42.976C89.715 43.4453 89.2963 43.816 88.731 44.088L88.699 43.576C89.3603 43.864 89.8563 44.288 90.187 44.848C90.523 45.4027 90.691 46.024 90.691 46.712C90.691 47.416 90.5283 48.032 90.203 48.56C89.883 49.088 89.4377 49.5013 88.867 49.8C88.3017 50.0933 87.651 50.24 86.915 50.24ZM86.915 48.88C87.587 48.88 88.131 48.696 88.547 48.328C88.9683 47.9547 89.179 47.416 89.179 46.712C89.179 46.0027 88.971 45.464 88.555 45.096C88.1443 44.7227 87.5977 44.536 86.915 44.536C86.2377 44.536 85.691 44.7227 85.275 45.096C84.8643 45.464 84.659 46.0027 84.659 46.712C84.659 47.416 84.867 47.9547 85.283 48.328C85.699 48.696 86.243 48.88 86.915 48.88ZM86.915 43.168C87.5017 43.168 87.9763 43.0213 88.339 42.728C88.7017 42.4293 88.883 41.984 88.883 41.392C88.883 40.8 88.7017 40.3573 88.339 40.064C87.9763 39.7653 87.5017 39.616 86.915 39.616C86.3337 39.616 85.859 39.7653 85.491 40.064C85.1283 40.3573 84.947 40.8 84.947 41.392C84.947 41.984 85.1283 42.4293 85.491 42.728C85.859 43.0213 86.3337 43.168 86.915 43.168ZM96.4481 48.8V47.232H98.0161V48.8H96.4481ZM96.4561 44.128V42.56H98.0241V44.128H96.4561ZM107.024 50.224C106.453 50.224 105.922 50.12 105.432 49.912C104.941 49.6987 104.517 49.4 104.16 49.016C103.808 48.6267 103.549 48.1653 103.384 47.632L104.752 47.24C104.928 47.7733 105.221 48.1787 105.632 48.456C106.042 48.7333 106.504 48.8693 107.016 48.864C107.485 48.8533 107.89 48.7467 108.232 48.544C108.578 48.336 108.845 48.0533 109.032 47.696C109.224 47.3387 109.32 46.9253 109.32 46.456C109.32 45.7413 109.106 45.1627 108.68 44.72C108.253 44.272 107.693 44.048 107 44.048C106.808 44.048 106.605 44.0747 106.392 44.128C106.184 44.1813 105.989 44.256 105.808 44.352L105.12 43.224L109.392 39.36L109.576 39.84H103.84V38.48H110.632V39.848L106.992 43.336L106.976 42.832C107.738 42.7787 108.405 42.904 108.976 43.208C109.546 43.512 109.989 43.9467 110.304 44.512C110.624 45.0773 110.784 45.7253 110.784 46.456C110.784 47.192 110.618 47.8427 110.288 48.408C109.957 48.9733 109.509 49.4187 108.944 49.744C108.378 50.064 107.738 50.224 107.024 50.224ZM119.792 50.24C119.045 50.24 118.378 50.072 117.792 49.736C117.21 49.3947 116.749 48.9333 116.408 48.352C116.072 47.7653 115.904 47.0987 115.904 46.352V42.128C115.904 41.3813 116.072 40.7147 116.408 40.128C116.749 39.5413 117.21 39.08 117.792 38.744C118.378 38.408 119.045 38.24 119.792 38.24C120.538 38.24 121.205 38.408 121.792 38.744C122.378 39.08 122.84 39.5413 123.176 40.128C123.512 40.7147 123.68 41.3813 123.68 42.128V46.352C123.68 47.0987 123.512 47.7653 123.176 48.352C122.84 48.9333 122.378 49.3947 121.792 49.736C121.205 50.072 120.538 50.24 119.792 50.24ZM119.792 48.872C120.245 48.872 120.656 48.7627 121.024 48.544C121.392 48.3253 121.685 48.032 121.904 47.664C122.122 47.2907 122.232 46.88 122.232 46.432V42.04C122.232 41.5867 122.122 41.176 121.904 40.808C121.685 40.44 121.392 40.1467 121.024 39.928C120.656 39.7093 120.245 39.6 119.792 39.6C119.344 39.6 118.933 39.7093 118.56 39.928C118.192 40.1467 117.898 40.44 117.68 40.808C117.461 41.176 117.352 41.5867 117.352 42.04V46.432C117.352 46.88 117.461 47.2907 117.68 47.664C117.898 48.032 118.192 48.3253 118.56 48.544C118.933 48.7627 119.344 48.872 119.792 48.872Z" fill="#FDFDFD"/>
<path d="M226.76 36.528C226.408 37.264 225.72 38.32 225.176 39.008L226.168 39.264C226.728 38.608 227.432 37.664 228.008 36.768L226.76 36.528ZM230.328 37.488C231.64 38.288 233.208 39.52 233.96 40.336L234.904 39.792C234.104 38.96 232.504 37.776 231.208 36.992L230.328 37.488ZM225.56 41.2C226.024 41.792 226.504 42.608 226.68 43.136L227.592 42.8C227.384 42.272 226.888 41.488 226.44 40.912L225.56 41.2ZM222.84 38.656L222.904 39.664C225.496 39.584 229.384 39.44 233.048 39.264L233.096 38.336C229.336 38.48 225.368 38.608 222.84 38.656ZM224.248 39.952C223.96 40.736 223.416 41.872 222.952 42.592L223.768 42.864C224.248 42.192 224.824 41.152 225.336 40.24L224.248 39.952ZM221.848 42.336L221.944 43.28C223.272 43.168 224.968 43.024 226.696 42.864L226.68 42.016C224.872 42.16 223.096 42.288 221.848 42.336ZM233.576 41.136C234.28 41.872 235.032 42.88 235.352 43.568L236.264 43.136C235.928 42.432 235.16 41.456 234.44 40.752L233.576 41.136ZM231.912 39.904C231.672 40.672 231.192 41.76 230.808 42.48L231.624 42.752C232.056 42.096 232.568 41.072 233.016 40.192L231.912 39.904ZM230.472 42.224L230.696 43.152C231.992 43.04 233.64 42.896 235.24 42.752V41.968C233.448 42.08 231.704 42.176 230.472 42.224ZM229.432 43.76C228.264 44.656 226.12 45.504 224.408 45.968C224.648 46.176 224.92 46.496 225.096 46.72C226.856 46.192 229 45.248 230.328 44.208L229.432 43.76ZM231.176 45.312C229.704 46.512 226.952 47.472 224.504 47.968C224.744 48.208 225 48.592 225.144 48.848C227.688 48.24 230.456 47.168 232.104 45.776L231.176 45.312ZM233.064 46.928C231.288 48.768 227.688 49.84 223.784 50.304C224.008 50.576 224.248 51.008 224.36 51.296C228.408 50.72 232.088 49.52 234.072 47.408L233.064 46.928ZM228.904 41.808C230.504 43.696 233.352 45.344 235.88 46.16C236.024 45.888 236.248 45.488 236.488 45.232C233.944 44.544 231.112 42.96 229.384 40.864H228.312C227.016 42.688 224.376 44.496 221.544 45.424C221.752 45.664 221.992 46.048 222.104 46.304C224.856 45.296 227.528 43.552 228.904 41.808ZM247.416 36.56V38.112H248.616V36.56H247.416ZM241.16 37.536V40.032H242.264V38.496H253.816V40.032H254.968V37.536H241.16ZM244.936 38.768V42.896H246.056V38.768H244.936ZM249.992 38.768V42.896H251.112V38.768H249.992ZM242.6 39.472V40.24H253.448V39.472H242.6ZM242.856 40.928V41.664H253.256V40.928H242.856ZM240.984 42.384V43.28H255.128V42.384H240.984ZM245.192 42.656C244.2 43.776 242.264 44.832 240.552 45.312C240.776 45.536 241.112 45.92 241.272 46.208C243.016 45.6 245 44.368 246.072 43.024L245.192 42.656ZM251.032 42.608L250.152 42.976C251.176 44.32 253.064 45.552 254.856 46.128C255.016 45.84 255.352 45.424 255.608 45.2C253.848 44.752 251.976 43.744 251.032 42.608ZM244.648 46.24H251.352V47.024H244.648V46.24ZM244.648 47.696H251.352V48.496H244.648V47.696ZM244.648 44.8H251.352V45.568H244.648V44.8ZM243.544 44.096V49.2H252.504V44.096H243.544ZM249.112 49.696C250.984 50.24 252.824 50.848 253.912 51.296L254.952 50.624C253.736 50.16 251.752 49.536 249.928 49.024L249.112 49.696ZM245.864 48.992C244.824 49.568 242.616 50.192 240.84 50.48C241.064 50.688 241.4 51.056 241.56 51.28C243.336 50.96 245.528 50.336 246.856 49.632L245.864 48.992ZM259.944 41.712V42.784H274.2V41.712H259.944ZM261.352 38.576V39.648H270.616V38.576H261.352ZM263.944 47.072V48.032H271.48V47.072H263.944ZM263.944 49.728V50.768H271.48V49.728H263.944ZM265.464 36.56V42.288H266.632V36.56H265.464ZM272.472 37.12C269.512 41.088 264.744 44.192 259.576 45.984C259.816 46.224 260.2 46.72 260.344 46.992C265.464 45.024 270.28 41.872 273.496 37.664L272.472 37.12ZM263.288 44.48V51.296H264.488V45.488H271V51.232H272.248V44.48H263.288ZM283.688 42.592V43.472H288.696V42.592H283.688ZM282.648 47.472C281.96 48.832 280.456 49.856 278.776 50.464C279.032 50.672 279.416 51.104 279.576 51.328C281.304 50.576 282.952 49.392 283.768 47.728L282.648 47.472ZM286.12 40.736C287.752 42.288 290.648 43.856 293.016 44.64C293.176 44.336 293.448 43.92 293.688 43.664C291.208 42.944 288.408 41.52 286.6 39.808H285.496C284.152 41.344 281.448 42.928 278.712 43.84C278.936 44.08 279.192 44.496 279.336 44.752C281.992 43.792 284.68 42.176 286.12 40.736ZM281.944 45.232H284.36V46.816H281.944V45.232ZM280.792 44.352V47.68H285.544V44.352H280.792ZM287.784 45.232H290.28V46.816H287.784V45.232ZM286.648 44.352V47.68H291.48V44.352H286.648ZM282.008 49.264C282.84 49.648 283.896 50.288 284.44 50.752L285.16 49.888C284.6 49.456 283.56 48.848 282.712 48.496L282.008 49.264ZM288.2 47.472C287.688 48.912 286.376 49.92 284.76 50.496C285 50.688 285.4 51.12 285.544 51.328C287.24 50.592 288.712 49.408 289.336 47.664L288.2 47.472ZM287.688 49.328C289.304 49.824 291.32 50.672 292.408 51.296L293.208 50.4C292.072 49.824 290.072 48.992 288.472 48.512L287.688 49.328ZM280.728 37.952V38.896H285.688V37.952H280.728ZM286.776 37.952V38.896H293.448V37.952H286.776ZM281.064 36.496C280.552 37.904 279.688 39.312 278.696 40.24C278.984 40.4 279.464 40.72 279.688 40.896C280.632 39.888 281.592 38.352 282.184 36.784L281.064 36.496ZM287.304 36.496C286.776 37.664 285.88 38.8 284.872 39.552C285.144 39.712 285.64 40.032 285.848 40.224C286.84 39.408 287.848 38.112 288.44 36.784L287.304 36.496ZM281.64 38.656C282.024 39.36 282.408 40.32 282.536 40.912L283.624 40.592C283.48 40 283.048 39.056 282.68 38.368L281.64 38.656ZM288.312 38.656C288.904 39.328 289.544 40.272 289.8 40.88L290.92 40.528C290.632 39.904 289.976 38.992 289.384 38.336L288.312 38.656ZM297.96 37.616V38.704H306.168V37.616H297.96ZM298.44 45.232V46.32H305.704V45.232H298.44ZM301.496 43.328V49.776L302.68 49.6V43.328H301.496ZM297.784 49.6L297.976 50.8C300.104 50.512 303.256 50.064 306.232 49.648L306.2 48.528C303.112 48.944 299.864 49.376 297.784 49.6ZM297.928 41.968L298.024 43.104C299.928 42.992 302.664 42.848 305.288 42.688L305.32 41.632C302.568 41.776 299.752 41.904 297.928 41.968ZM303.032 40.016C303.992 41.152 305.064 42.704 305.528 43.68L306.488 43.104C306.024 42.144 304.904 40.64 303.928 39.52L303.032 40.016ZM300.728 38.192C300.376 39.456 299.688 41.328 299.128 42.464L300.184 42.72C300.776 41.616 301.464 39.856 302.024 38.448L300.728 38.192ZM306.872 38.496V47.36H308.024V38.496H306.872ZM310.648 37.024V49.68C310.648 49.968 310.568 50.048 310.28 50.064C309.96 50.064 308.968 50.08 307.896 50.032C308.072 50.4 308.248 50.96 308.312 51.296C309.608 51.296 310.584 51.264 311.112 51.056C311.64 50.864 311.832 50.496 311.832 49.664V37.024H310.648Z" fill="#FDFDFD"/>
<path d="M226.856 165.24C225.709 165.24 224.736 164.987 223.936 164.48C223.136 163.973 222.525 163.269 222.104 162.368C221.688 161.467 221.48 160.424 221.48 159.24C221.48 158.056 221.688 157.013 222.104 156.112C222.525 155.211 223.136 154.507 223.936 154C224.736 153.493 225.709 153.24 226.856 153.24C228.189 153.24 229.285 153.579 230.144 154.256C231.008 154.933 231.603 155.845 231.928 156.992L230.48 157.376C230.245 156.517 229.827 155.84 229.224 155.344C228.621 154.848 227.832 154.6 226.856 154.6C225.997 154.6 225.283 154.795 224.712 155.184C224.141 155.573 223.712 156.117 223.424 156.816C223.136 157.509 222.989 158.317 222.984 159.24C222.979 160.157 223.12 160.965 223.408 161.664C223.696 162.357 224.128 162.901 224.704 163.296C225.28 163.685 225.997 163.88 226.856 163.88C227.832 163.88 228.621 163.632 229.224 163.136C229.827 162.635 230.245 161.957 230.48 161.104L231.928 161.488C231.603 162.629 231.008 163.541 230.144 164.224C229.285 164.901 228.189 165.24 226.856 165.24ZM240.403 165.24C239.544 165.24 238.803 165.045 238.179 164.656C237.56 164.267 237.083 163.728 236.747 163.04C236.411 162.352 236.243 161.563 236.243 160.672C236.243 159.765 236.413 158.971 236.755 158.288C237.096 157.605 237.579 157.075 238.203 156.696C238.827 156.312 239.56 156.12 240.403 156.12C241.267 156.12 242.011 156.315 242.635 156.704C243.259 157.088 243.736 157.624 244.067 158.312C244.403 158.995 244.571 159.781 244.571 160.672C244.571 161.573 244.403 162.368 244.067 163.056C243.731 163.739 243.251 164.275 242.627 164.664C242.003 165.048 241.261 165.24 240.403 165.24ZM240.403 163.888C241.299 163.888 241.965 163.589 242.403 162.992C242.84 162.395 243.059 161.621 243.059 160.672C243.059 159.696 242.837 158.92 242.395 158.344C241.952 157.763 241.288 157.472 240.403 157.472C239.8 157.472 239.304 157.608 238.915 157.88C238.525 158.152 238.235 158.528 238.043 159.008C237.851 159.488 237.755 160.043 237.755 160.672C237.755 161.643 237.979 162.421 238.427 163.008C238.875 163.595 239.533 163.888 240.403 163.888ZM252.764 165.24C251.959 165.24 251.268 165.04 250.692 164.64C250.116 164.235 249.671 163.688 249.356 163C249.047 162.312 248.892 161.536 248.892 160.672C248.892 159.808 249.047 159.032 249.356 158.344C249.671 157.656 250.116 157.115 250.692 156.72C251.268 156.32 251.956 156.12 252.756 156.12C253.572 156.12 254.257 156.317 254.812 156.712C255.367 157.107 255.785 157.648 256.068 158.336C256.356 159.024 256.5 159.803 256.5 160.672C256.5 161.531 256.356 162.307 256.068 163C255.785 163.688 255.367 164.235 254.812 164.64C254.257 165.04 253.575 165.24 252.764 165.24ZM252.94 163.936C253.521 163.936 253.999 163.797 254.372 163.52C254.745 163.237 255.02 162.851 255.196 162.36C255.377 161.864 255.468 161.301 255.468 160.672C255.468 160.032 255.377 159.469 255.196 158.984C255.02 158.493 254.748 158.112 254.38 157.84C254.012 157.563 253.545 157.424 252.98 157.424C252.393 157.424 251.908 157.568 251.524 157.856C251.145 158.144 250.863 158.533 250.676 159.024C250.495 159.515 250.404 160.064 250.404 160.672C250.404 161.285 250.497 161.84 250.684 162.336C250.871 162.827 251.151 163.216 251.524 163.504C251.903 163.792 252.375 163.936 252.94 163.936ZM255.468 165V158.64H255.308V153.48H256.74V165H255.468ZM262.181 154.832V153.36H263.605V154.832H262.181ZM262.181 165V156.36H263.605V165H262.181ZM275.198 165V160.672C275.198 160.261 275.16 159.867 275.086 159.488C275.016 159.109 274.891 158.771 274.71 158.472C274.534 158.168 274.294 157.928 273.99 157.752C273.691 157.576 273.312 157.488 272.854 157.488C272.496 157.488 272.171 157.549 271.878 157.672C271.59 157.789 271.342 157.971 271.134 158.216C270.926 158.461 270.763 158.771 270.646 159.144C270.534 159.512 270.478 159.947 270.478 160.448L269.542 160.16C269.542 159.323 269.691 158.605 269.99 158.008C270.294 157.405 270.718 156.944 271.262 156.624C271.811 156.299 272.456 156.136 273.198 156.136C273.758 156.136 274.235 156.224 274.63 156.4C275.024 156.576 275.352 156.811 275.614 157.104C275.875 157.392 276.08 157.717 276.23 158.08C276.379 158.437 276.483 158.803 276.542 159.176C276.606 159.544 276.638 159.893 276.638 160.224V165H275.198ZM269.038 165V156.36H270.318V158.672H270.478V165H269.038ZM285.254 169.08C284.8 169.08 284.358 169.011 283.926 168.872C283.494 168.733 283.096 168.523 282.734 168.24C282.376 167.963 282.078 167.611 281.838 167.184L283.142 166.496C283.355 166.917 283.656 167.224 284.046 167.416C284.44 167.608 284.846 167.704 285.262 167.704C285.811 167.704 286.267 167.603 286.63 167.4C286.992 167.203 287.259 166.907 287.43 166.512C287.606 166.117 287.691 165.627 287.686 165.04V162.68H287.854V156.36H289.118V165.056C289.118 165.291 289.11 165.517 289.094 165.736C289.083 165.955 289.056 166.171 289.014 166.384C288.902 166.997 288.68 167.501 288.35 167.896C288.019 168.296 287.592 168.592 287.07 168.784C286.547 168.981 285.942 169.08 285.254 169.08ZM285.15 165.24C284.344 165.24 283.654 165.04 283.078 164.64C282.502 164.235 282.056 163.688 281.742 163C281.432 162.312 281.278 161.536 281.278 160.672C281.278 159.808 281.432 159.032 281.742 158.344C282.056 157.656 282.502 157.115 283.078 156.72C283.654 156.32 284.342 156.12 285.142 156.12C285.958 156.12 286.643 156.317 287.198 156.712C287.752 157.107 288.171 157.648 288.454 158.336C288.742 159.024 288.886 159.803 288.886 160.672C288.886 161.531 288.742 162.307 288.454 163C288.171 163.688 287.752 164.235 287.198 164.64C286.643 165.04 285.96 165.24 285.15 165.24ZM285.326 163.936C285.907 163.936 286.384 163.797 286.758 163.52C287.131 163.237 287.406 162.851 287.582 162.36C287.763 161.864 287.854 161.301 287.854 160.672C287.854 160.032 287.763 159.469 287.582 158.984C287.406 158.493 287.134 158.112 286.766 157.84C286.398 157.563 285.931 157.424 285.366 157.424C284.779 157.424 284.294 157.568 283.91 157.856C283.531 158.144 283.248 158.533 283.062 159.024C282.88 159.515 282.79 160.064 282.79 160.672C282.79 161.285 282.883 161.84 283.07 162.336C283.256 162.827 283.536 163.216 283.91 163.504C284.288 163.792 284.76 163.936 285.326 163.936Z" fill="#FDFDFD"/>
<path d="M3.128 165V155.056L0.96 156.368V154.776L3.128 153.48H4.576V165H3.128ZM14.548 165.24C13.8013 165.24 13.1347 165.072 12.548 164.736C11.9667 164.395 11.5053 163.933 11.164 163.352C10.828 162.765 10.66 162.099 10.66 161.352V157.128C10.66 156.381 10.828 155.715 11.164 155.128C11.5053 154.541 11.9667 154.08 12.548 153.744C13.1347 153.408 13.8013 153.24 14.548 153.24C15.2947 153.24 15.9613 153.408 16.548 153.744C17.1347 154.08 17.596 154.541 17.932 155.128C18.268 155.715 18.436 156.381 18.436 157.128V161.352C18.436 162.099 18.268 162.765 17.932 163.352C17.596 163.933 17.1347 164.395 16.548 164.736C15.9613 165.072 15.2947 165.24 14.548 165.24ZM14.548 163.872C15.0013 163.872 15.412 163.763 15.78 163.544C16.148 163.325 16.4413 163.032 16.66 162.664C16.8787 162.291 16.988 161.88 16.988 161.432V157.04C16.988 156.587 16.8787 156.176 16.66 155.808C16.4413 155.44 16.148 155.147 15.78 154.928C15.412 154.709 15.0013 154.6 14.548 154.6C14.1 154.6 13.6893 154.709 13.316 154.928C12.948 155.147 12.6547 155.44 12.436 155.808C12.2173 156.176 12.108 156.587 12.108 157.04V161.432C12.108 161.88 12.2173 162.291 12.436 162.664C12.6547 163.032 12.948 163.325 13.316 163.544C13.6893 163.763 14.1 163.872 14.548 163.872ZM26.6276 153.48H28.0756L25.0036 165H23.5556L26.6276 153.48ZM32.8731 164.992L32.8811 163.712L37.9931 159.112C38.4198 158.728 38.7051 158.365 38.8491 158.024C38.9985 157.677 39.0731 157.323 39.0731 156.96C39.0731 156.517 38.9718 156.117 38.7691 155.76C38.5665 155.403 38.2891 155.12 37.9371 154.912C37.5905 154.704 37.1958 154.6 36.7531 154.6C36.2945 154.6 35.8865 154.709 35.5291 154.928C35.1718 155.141 34.8891 155.427 34.6811 155.784C34.4785 156.141 34.3798 156.531 34.3851 156.952H32.9291C32.9291 156.227 33.0971 155.587 33.4331 155.032C33.7691 154.472 34.2251 154.035 34.8011 153.72C35.3825 153.4 36.0411 153.24 36.7771 153.24C37.4918 153.24 38.1318 153.405 38.6971 153.736C39.2625 154.061 39.7078 154.507 40.0331 155.072C40.3638 155.632 40.5291 156.267 40.5291 156.976C40.5291 157.477 40.4651 157.912 40.3371 158.28C40.2145 158.648 40.0225 158.989 39.7611 159.304C39.4998 159.613 39.1718 159.944 38.7771 160.296L34.5291 164.112L34.3451 163.632H40.5291V164.992H32.8731ZM45.1631 164.992L45.1711 163.712L50.2831 159.112C50.7098 158.728 50.9951 158.365 51.1391 158.024C51.2885 157.677 51.3631 157.323 51.3631 156.96C51.3631 156.517 51.2618 156.117 51.0591 155.76C50.8565 155.403 50.5791 155.12 50.2271 154.912C49.8805 154.704 49.4858 154.6 49.0431 154.6C48.5845 154.6 48.1765 154.709 47.8191 154.928C47.4618 155.141 47.1791 155.427 46.9711 155.784C46.7685 156.141 46.6698 156.531 46.6751 156.952H45.2191C45.2191 156.227 45.3871 155.587 45.7231 155.032C46.0591 154.472 46.5151 154.035 47.0911 153.72C47.6725 153.4 48.3311 153.24 49.0671 153.24C49.7818 153.24 50.4218 153.405 50.9871 153.736C51.5525 154.061 51.9978 154.507 52.3231 155.072C52.6538 155.632 52.8191 156.267 52.8191 156.976C52.8191 157.477 52.7551 157.912 52.6271 158.28C52.5045 158.648 52.3125 158.989 52.0511 159.304C51.7898 159.613 51.4618 159.944 51.0671 160.296L46.8191 164.112L46.6351 163.632H52.8191V164.992H45.1631ZM72.2674 165V155.056L70.0994 156.368V154.776L72.2674 153.48H73.7154V165H72.2674ZM83.6874 165.24C82.9407 165.24 82.274 165.072 81.6874 164.736C81.106 164.395 80.6447 163.933 80.3034 163.352C79.9674 162.765 79.7994 162.099 79.7994 161.352V157.128C79.7994 156.381 79.9674 155.715 80.3034 155.128C80.6447 154.541 81.106 154.08 81.6874 153.744C82.274 153.408 82.9407 153.24 83.6874 153.24C84.434 153.24 85.1007 153.408 85.6874 153.744C86.274 154.08 86.7354 154.541 87.0714 155.128C87.4074 155.715 87.5754 156.381 87.5754 157.128V161.352C87.5754 162.099 87.4074 162.765 87.0714 163.352C86.7354 163.933 86.274 164.395 85.6874 164.736C85.1007 165.072 84.434 165.24 83.6874 165.24ZM83.6874 163.872C84.1407 163.872 84.5514 163.763 84.9194 163.544C85.2874 163.325 85.5807 163.032 85.7994 162.664C86.018 162.291 86.1274 161.88 86.1274 161.432V157.04C86.1274 156.587 86.018 156.176 85.7994 155.808C85.5807 155.44 85.2874 155.147 84.9194 154.928C84.5514 154.709 84.1407 154.6 83.6874 154.6C83.2394 154.6 82.8287 154.709 82.4554 154.928C82.0874 155.147 81.794 155.44 81.5754 155.808C81.3567 156.176 81.2474 156.587 81.2474 157.04V161.432C81.2474 161.88 81.3567 162.291 81.5754 162.664C81.794 163.032 82.0874 163.325 82.4554 163.544C82.8287 163.763 83.2394 163.872 83.6874 163.872ZM93.495 163.8V162.232H95.063V163.8H93.495ZM93.503 159.128V157.56H95.071V159.128H93.503ZM104.071 165.224C103.5 165.224 102.969 165.12 102.479 164.912C101.988 164.699 101.564 164.4 101.207 164.016C100.855 163.627 100.596 163.165 100.431 162.632L101.799 162.24C101.975 162.773 102.268 163.179 102.679 163.456C103.089 163.733 103.551 163.869 104.063 163.864C104.532 163.853 104.937 163.747 105.279 163.544C105.625 163.336 105.892 163.053 106.079 162.696C106.271 162.339 106.367 161.925 106.367 161.456C106.367 160.741 106.153 160.163 105.727 159.72C105.3 159.272 104.74 159.048 104.047 159.048C103.855 159.048 103.652 159.075 103.439 159.128C103.231 159.181 103.036 159.256 102.855 159.352L102.167 158.224L106.439 154.36L106.623 154.84H100.887V153.48H107.679V154.848L104.039 158.336L104.023 157.832C104.785 157.779 105.452 157.904 106.023 158.208C106.593 158.512 107.036 158.947 107.351 159.512C107.671 160.077 107.831 160.725 107.831 161.456C107.831 162.192 107.665 162.843 107.335 163.408C107.004 163.973 106.556 164.419 105.991 164.744C105.425 165.064 104.785 165.224 104.071 165.224ZM116.839 165.24C116.092 165.24 115.425 165.072 114.839 164.736C114.257 164.395 113.796 163.933 113.455 163.352C113.119 162.765 112.951 162.099 112.951 161.352V157.128C112.951 156.381 113.119 155.715 113.455 155.128C113.796 154.541 114.257 154.08 114.839 153.744C115.425 153.408 116.092 153.24 116.839 153.24C117.585 153.24 118.252 153.408 118.839 153.744C119.425 154.08 119.887 154.541 120.223 155.128C120.559 155.715 120.727 156.381 120.727 157.128V161.352C120.727 162.099 120.559 162.765 120.223 163.352C119.887 163.933 119.425 164.395 118.839 164.736C118.252 165.072 117.585 165.24 116.839 165.24ZM116.839 163.872C117.292 163.872 117.703 163.763 118.071 163.544C118.439 163.325 118.732 163.032 118.951 162.664C119.169 162.291 119.279 161.88 119.279 161.432V157.04C119.279 156.587 119.169 156.176 118.951 155.808C118.732 155.44 118.439 155.147 118.071 154.928C117.703 154.709 117.292 154.6 116.839 154.6C116.391 154.6 115.98 154.709 115.607 154.928C115.239 155.147 114.945 155.44 114.727 155.808C114.508 156.176 114.399 156.587 114.399 157.04V161.432C114.399 161.88 114.508 162.291 114.727 162.664C114.945 163.032 115.239 163.325 115.607 163.544C115.98 163.763 116.391 163.872 116.839 163.872Z" fill="#FDFDFD"/>
<circle cx="172" cy="160" r="10" fill="#7B5A82"/>
<path d="M229.72 445.576C229.16 447.048 228.072 448.92 226.44 450.296C226.712 450.456 227.096 450.808 227.288 451.08C229.032 449.496 230.184 447.528 230.904 445.768L229.72 445.576ZM229.704 446.952L229.08 447.976H233.288V446.952H229.704ZM231.064 449.96C230.856 454.504 230.472 457.832 225.176 459.352C225.432 459.592 225.752 460.024 225.88 460.328C231.416 458.6 231.976 454.936 232.216 449.96H231.064ZM231.832 453.928V458.488C231.832 459.688 232.12 460.024 233.32 460.024C233.56 460.024 234.712 460.024 234.984 460.024C236.024 460.024 236.328 459.48 236.44 457.336C236.12 457.24 235.656 457.064 235.4 456.856C235.368 458.696 235.288 458.936 234.872 458.936C234.616 458.936 233.656 458.936 233.464 458.936C233.032 458.936 232.968 458.888 232.968 458.472V453.928H231.832ZM222.824 446.76V447.832H225.496V456.088H222.824V457.16H226.6V446.76H222.824ZM222.856 451.352V452.424H226.008V451.352H222.856ZM222.216 446.76V458.424H223.304V446.76H222.216ZM228.744 450.648H234.6V453.512H228.744V450.648ZM227.688 449.624V454.536H235.72V449.624H227.688ZM232.888 446.952V447.16C232.552 447.944 231.88 449.08 231.288 449.768C231.544 449.88 231.896 450.104 232.12 450.264C232.76 449.544 233.576 448.376 234.04 447.384L233.304 446.904L233.128 446.952H232.888ZM244.28 445.56V448.2H245.304V445.56H244.28ZM244.696 446.264V447.064H248.04V446.264H244.696ZM243.416 447.848L242.76 448.648H247.08V447.848H243.416ZM246.792 447.848V448.024C245.8 449.992 243.128 451.32 240.664 451.864C240.856 452.072 241.096 452.424 241.224 452.68C243.88 451.992 246.632 450.568 247.832 448.168L247.192 447.816L247 447.848H246.792ZM242.088 449.416C242.92 449.8 243.944 450.408 244.44 450.824L245.08 450.232C244.552 449.784 243.528 449.224 242.712 448.872L242.088 449.416ZM243.064 447.608C242.488 448.376 241.464 449.08 240.44 449.56C240.664 449.704 241.032 450.024 241.192 450.184C242.2 449.64 243.304 448.776 243.976 447.88L243.064 447.608ZM248.696 446.264V447.144H253.672V446.264H248.696ZM253.384 446.264V446.424C252.632 448.376 250.632 449.832 248.616 450.44C248.824 450.648 249.096 451.048 249.224 451.304C251.416 450.536 253.56 448.952 254.472 446.52L253.784 446.216L253.608 446.264H253.384ZM248.648 448.408C250.648 449.352 253.08 450.856 254.264 451.944L255 451.16C253.768 450.088 251.32 448.632 249.336 447.736L248.648 448.408ZM247.96 451.256C249.64 452.648 252.52 453.928 254.872 454.52C255 454.264 255.24 453.864 255.464 453.608C253.016 453.096 250.216 451.944 248.392 450.456H247.416C246.04 451.784 243.368 453.08 240.664 453.8C240.856 454.024 241.08 454.392 241.192 454.648C243.848 453.864 246.52 452.536 247.96 451.256ZM244.36 453.8V454.536H251.336V456.744H244.36V457.48H252.472V453.8H244.36ZM243.736 453.8V459.48L244.872 459.384V453.8H243.736ZM253.08 456.76C252.328 457.336 251 458.12 250.008 458.568L250.664 459.048C251.672 458.632 252.952 457.96 253.96 457.32L253.08 456.76ZM248.168 457.032L247.272 457.304C248.616 459.08 251.336 459.992 254.584 460.296C254.712 460.008 254.968 459.608 255.192 459.4C252.056 459.192 249.352 458.472 248.168 457.032ZM244.36 455.272V455.944H251.72V455.272H244.36ZM245.928 452.504V453.24H250.104V452.504H245.928ZM241.928 459.144L242.072 460.104C243.848 459.928 246.392 459.656 248.792 459.4V458.488C246.248 458.76 243.624 459 241.928 459.144ZM265.816 447.48V448.536H273.816V447.48H265.816ZM265.128 450.584V451.656H274.504V450.584H265.128ZM265.208 453.48V454.552H274.328V453.48H265.208ZM269.176 445.56V451.24H270.36V445.56H269.176ZM271.288 451.496V458.84C271.288 459.08 271.208 459.144 270.936 459.16C270.68 459.176 269.784 459.176 268.792 459.144C268.968 459.464 269.16 459.944 269.208 460.264C270.488 460.264 271.304 460.248 271.8 460.072C272.296 459.896 272.456 459.544 272.456 458.856V451.496H271.288ZM266.184 455.672C267 456.504 267.864 457.704 268.216 458.488L269.256 457.848C268.872 457.064 267.976 455.928 267.144 455.096L266.184 455.672ZM260.856 446.616V447.704H263.736V456.04H260.856V457.128H264.856V446.616H260.856ZM260.904 451.272V452.344H264.264V451.272H260.904ZM260.28 446.616V458.44H261.416V446.616H260.28ZM283.672 455.368V456.296H288.52V455.368H283.672ZM283.624 452.952V453.896H287.944V457.864H283.624V458.792H289.08V452.952H283.624ZM283.096 452.952V459.608H284.2V452.952H283.096ZM280.152 448.52V449.4H284.6V448.52H280.152ZM287.528 448.52V449.4H292.056V448.52H287.528ZM291.56 446.248V458.696C291.56 458.968 291.464 459.064 291.176 459.064C290.888 459.08 289.912 459.096 288.936 459.048C289.112 459.384 289.304 459.944 289.352 460.28C290.696 460.28 291.56 460.264 292.072 460.072C292.584 459.864 292.76 459.464 292.76 458.696V446.248H291.56ZM280.248 446.248V447.176H284.232V450.824H280.248V451.752H285.368V446.248H280.248ZM292.152 446.248H286.808V451.768H292.152V450.856H287.96V447.176H292.152V446.248ZM279.56 446.248V460.296H280.744V446.248H279.56Z" fill="#FDFDFD"/>
<path d="M3.128 457V447.056L0.96 448.368V446.776L3.128 445.48H4.576V457H3.128ZM14.548 457.24C13.8013 457.24 13.1347 457.072 12.548 456.736C11.9667 456.395 11.5053 455.933 11.164 455.352C10.828 454.765 10.66 454.099 10.66 453.352V449.128C10.66 448.381 10.828 447.715 11.164 447.128C11.5053 446.541 11.9667 446.08 12.548 445.744C13.1347 445.408 13.8013 445.24 14.548 445.24C15.2947 445.24 15.9613 445.408 16.548 445.744C17.1347 446.08 17.596 446.541 17.932 447.128C18.268 447.715 18.436 448.381 18.436 449.128V453.352C18.436 454.099 18.268 454.765 17.932 455.352C17.596 455.933 17.1347 456.395 16.548 456.736C15.9613 457.072 15.2947 457.24 14.548 457.24ZM14.548 455.872C15.0013 455.872 15.412 455.763 15.78 455.544C16.148 455.325 16.4413 455.032 16.66 454.664C16.8787 454.291 16.988 453.88 16.988 453.432V449.04C16.988 448.587 16.8787 448.176 16.66 447.808C16.4413 447.44 16.148 447.147 15.78 446.928C15.412 446.709 15.0013 446.6 14.548 446.6C14.1 446.6 13.6893 446.709 13.316 446.928C12.948 447.147 12.6547 447.44 12.436 447.808C12.2173 448.176 12.108 448.587 12.108 449.04V453.432C12.108 453.88 12.2173 454.291 12.436 454.664C12.6547 455.032 12.948 455.325 13.316 455.544C13.6893 455.763 14.1 455.872 14.548 455.872ZM26.6276 445.48H28.0756L25.0036 457H23.5556L26.6276 445.48ZM32.8731 456.992L32.8811 455.712L37.9931 451.112C38.4198 450.728 38.7051 450.365 38.8491 450.024C38.9985 449.677 39.0731 449.323 39.0731 448.96C39.0731 448.517 38.9718 448.117 38.7691 447.76C38.5665 447.403 38.2891 447.12 37.9371 446.912C37.5905 446.704 37.1958 446.6 36.7531 446.6C36.2945 446.6 35.8865 446.709 35.5291 446.928C35.1718 447.141 34.8891 447.427 34.6811 447.784C34.4785 448.141 34.3798 448.531 34.3851 448.952H32.9291C32.9291 448.227 33.0971 447.587 33.4331 447.032C33.7691 446.472 34.2251 446.035 34.8011 445.72C35.3825 445.4 36.0411 445.24 36.7771 445.24C37.4918 445.24 38.1318 445.405 38.6971 445.736C39.2625 446.061 39.7078 446.507 40.0331 447.072C40.3638 447.632 40.5291 448.267 40.5291 448.976C40.5291 449.477 40.4651 449.912 40.3371 450.28C40.2145 450.648 40.0225 450.989 39.7611 451.304C39.4998 451.613 39.1718 451.944 38.7771 452.296L34.5291 456.112L34.3451 455.632H40.5291V456.992H32.8731ZM45.1631 456.992L45.1711 455.712L50.2831 451.112C50.7098 450.728 50.9951 450.365 51.1391 450.024C51.2885 449.677 51.3631 449.323 51.3631 448.96C51.3631 448.517 51.2618 448.117 51.0591 447.76C50.8565 447.403 50.5791 447.12 50.2271 446.912C49.8805 446.704 49.4858 446.6 49.0431 446.6C48.5845 446.6 48.1765 446.709 47.8191 446.928C47.4618 447.141 47.1791 447.427 46.9711 447.784C46.7685 448.141 46.6698 448.531 46.6751 448.952H45.2191C45.2191 448.227 45.3871 447.587 45.7231 447.032C46.0591 446.472 46.5151 446.035 47.0911 445.72C47.6725 445.4 48.3311 445.24 49.0671 445.24C49.7818 445.24 50.4218 445.405 50.9871 445.736C51.5525 446.061 51.9978 446.507 52.3231 447.072C52.6538 447.632 52.8191 448.267 52.8191 448.976C52.8191 449.477 52.7551 449.912 52.6271 450.28C52.5045 450.648 52.3125 450.989 52.0511 451.304C51.7898 451.613 51.4618 451.944 51.0671 452.296L46.8191 456.112L46.6351 455.632H52.8191V456.992H45.1631ZM72.2674 457V447.056L70.0994 448.368V446.776L72.2674 445.48H73.7154V457H72.2674ZM83.3994 457.24C82.6634 457.24 82.0127 457.093 81.4474 456.8C80.882 456.501 80.4394 456.088 80.1194 455.56C79.7994 455.032 79.6394 454.416 79.6394 453.712C79.6394 453.024 79.802 452.403 80.1274 451.848C80.458 451.293 80.954 450.867 81.6154 450.568L81.5914 451.088C81.0527 450.827 80.6394 450.459 80.3514 449.984C80.0634 449.504 79.9194 448.973 79.9194 448.392C79.9194 447.741 80.0687 447.181 80.3674 446.712C80.666 446.243 81.0767 445.88 81.5994 445.624C82.122 445.368 82.722 445.24 83.3994 445.24C84.0767 445.24 84.6767 445.368 85.1994 445.624C85.722 445.88 86.1327 446.243 86.4314 446.712C86.73 447.181 86.8794 447.741 86.8794 448.392C86.8794 448.973 86.7434 449.501 86.4714 449.976C86.1994 450.445 85.7807 450.816 85.2154 451.088L85.1834 450.576C85.8447 450.864 86.3407 451.288 86.6714 451.848C87.0074 452.403 87.1754 453.024 87.1754 453.712C87.1754 454.416 87.0127 455.032 86.6874 455.56C86.3674 456.088 85.922 456.501 85.3514 456.8C84.786 457.093 84.1354 457.24 83.3994 457.24ZM83.3994 455.88C84.0714 455.88 84.6154 455.696 85.0314 455.328C85.4527 454.955 85.6634 454.416 85.6634 453.712C85.6634 453.003 85.4554 452.464 85.0394 452.096C84.6287 451.723 84.082 451.536 83.3994 451.536C82.722 451.536 82.1754 451.723 81.7594 452.096C81.3487 452.464 81.1434 453.003 81.1434 453.712C81.1434 454.416 81.3514 454.955 81.7674 455.328C82.1834 455.696 82.7274 455.88 83.3994 455.88ZM83.3994 450.168C83.986 450.168 84.4607 450.021 84.8234 449.728C85.186 449.429 85.3674 448.984 85.3674 448.392C85.3674 447.8 85.186 447.357 84.8234 447.064C84.4607 446.765 83.986 446.616 83.3994 446.616C82.818 446.616 82.3434 446.765 81.9754 447.064C81.6127 447.357 81.4314 447.8 81.4314 448.392C81.4314 448.984 81.6127 449.429 81.9754 449.728C82.3434 450.021 82.818 450.168 83.3994 450.168ZM92.9325 455.8V454.232H94.5005V455.8H92.9325ZM92.9405 451.128V449.56H94.5085V451.128H92.9405ZM104.236 457.24C103.489 457.24 102.823 457.072 102.236 456.736C101.655 456.395 101.193 455.933 100.852 455.352C100.516 454.765 100.348 454.099 100.348 453.352V449.128C100.348 448.381 100.516 447.715 100.852 447.128C101.193 446.541 101.655 446.08 102.236 445.744C102.823 445.408 103.489 445.24 104.236 445.24C104.983 445.24 105.649 445.408 106.236 445.744C106.823 446.08 107.284 446.541 107.62 447.128C107.956 447.715 108.124 448.381 108.124 449.128V453.352C108.124 454.099 107.956 454.765 107.62 455.352C107.284 455.933 106.823 456.395 106.236 456.736C105.649 457.072 104.983 457.24 104.236 457.24ZM104.236 455.872C104.689 455.872 105.1 455.763 105.468 455.544C105.836 455.325 106.129 455.032 106.348 454.664C106.567 454.291 106.676 453.88 106.676 453.432V449.04C106.676 448.587 106.567 448.176 106.348 447.808C106.129 447.44 105.836 447.147 105.468 446.928C105.1 446.709 104.689 446.6 104.236 446.6C103.788 446.6 103.377 446.709 103.004 446.928C102.636 447.147 102.343 447.44 102.124 447.808C101.905 448.176 101.796 448.587 101.796 449.04V453.432C101.796 453.88 101.905 454.291 102.124 454.664C102.343 455.032 102.636 455.325 103.004 455.544C103.377 455.763 103.788 455.872 104.236 455.872ZM117.292 457.24C116.545 457.24 115.878 457.072 115.292 456.736C114.71 456.395 114.249 455.933 113.908 455.352C113.572 454.765 113.404 454.099 113.404 453.352V449.128C113.404 448.381 113.572 447.715 113.908 447.128C114.249 446.541 114.71 446.08 115.292 445.744C115.878 445.408 116.545 445.24 117.292 445.24C118.038 445.24 118.705 445.408 119.292 445.744C119.878 446.08 120.34 446.541 120.676 447.128C121.012 447.715 121.18 448.381 121.18 449.128V453.352C121.18 454.099 121.012 454.765 120.676 455.352C120.34 455.933 119.878 456.395 119.292 456.736C118.705 457.072 118.038 457.24 117.292 457.24ZM117.292 455.872C117.745 455.872 118.156 455.763 118.524 455.544C118.892 455.325 119.185 455.032 119.404 454.664C119.622 454.291 119.732 453.88 119.732 453.432V449.04C119.732 448.587 119.622 448.176 119.404 447.808C119.185 447.44 118.892 447.147 118.524 446.928C118.156 446.709 117.745 446.6 117.292 446.6C116.844 446.6 116.433 446.709 116.06 446.928C115.692 447.147 115.398 447.44 115.18 447.808C114.961 448.176 114.852 448.587 114.852 449.04V453.432C114.852 453.88 114.961 454.291 115.18 454.664C115.398 455.032 115.692 455.325 116.06 455.544C116.433 455.763 116.844 455.872 117.292 455.872Z" fill="#FDFDFD"/>
<circle cx="172" cy="452" r="10" fill="#835463"/>
<circle cx="172" cy="531" r="10" fill="#72525C"/>
<g filter="url(#filter0_d_300_2459)">
<circle cx="171.5" cy="643.5" r="7.5" fill="#D915F9" fill-opacity="0.08" shape-rendering="crispEdges"/>
</g>
<path d="M226.856 538.24C225.709 538.24 224.736 537.987 223.936 537.48C223.136 536.973 222.525 536.269 222.104 535.368C221.688 534.467 221.48 533.424 221.48 532.24C221.48 531.056 221.688 530.013 222.104 529.112C222.525 528.211 223.136 527.507 223.936 527C224.736 526.493 225.709 526.24 226.856 526.24C228.189 526.24 229.285 526.579 230.144 527.256C231.008 527.933 231.603 528.845 231.928 529.992L230.48 530.376C230.245 529.517 229.827 528.84 229.224 528.344C228.621 527.848 227.832 527.6 226.856 527.6C225.997 527.6 225.283 527.795 224.712 528.184C224.141 528.573 223.712 529.117 223.424 529.816C223.136 530.509 222.989 531.317 222.984 532.24C222.979 533.157 223.12 533.965 223.408 534.664C223.696 535.357 224.128 535.901 224.704 536.296C225.28 536.685 225.997 536.88 226.856 536.88C227.832 536.88 228.621 536.632 229.224 536.136C229.827 535.635 230.245 534.957 230.48 534.104L231.928 534.488C231.603 535.629 231.008 536.541 230.144 537.224C229.285 537.901 228.189 538.24 226.856 538.24ZM240.403 538.24C239.544 538.24 238.803 538.045 238.179 537.656C237.56 537.267 237.083 536.728 236.747 536.04C236.411 535.352 236.243 534.563 236.243 533.672C236.243 532.765 236.413 531.971 236.755 531.288C237.096 530.605 237.579 530.075 238.203 529.696C238.827 529.312 239.56 529.12 240.403 529.12C241.267 529.12 242.011 529.315 242.635 529.704C243.259 530.088 243.736 530.624 244.067 531.312C244.403 531.995 244.571 532.781 244.571 533.672C244.571 534.573 244.403 535.368 244.067 536.056C243.731 536.739 243.251 537.275 242.627 537.664C242.003 538.048 241.261 538.24 240.403 538.24ZM240.403 536.888C241.299 536.888 241.965 536.589 242.403 535.992C242.84 535.395 243.059 534.621 243.059 533.672C243.059 532.696 242.837 531.92 242.395 531.344C241.952 530.763 241.288 530.472 240.403 530.472C239.8 530.472 239.304 530.608 238.915 530.88C238.525 531.152 238.235 531.528 238.043 532.008C237.851 532.488 237.755 533.043 237.755 533.672C237.755 534.643 237.979 535.421 238.427 536.008C238.875 536.595 239.533 536.888 240.403 536.888ZM252.764 538.24C251.959 538.24 251.268 538.04 250.692 537.64C250.116 537.235 249.671 536.688 249.356 536C249.047 535.312 248.892 534.536 248.892 533.672C248.892 532.808 249.047 532.032 249.356 531.344C249.671 530.656 250.116 530.115 250.692 529.72C251.268 529.32 251.956 529.12 252.756 529.12C253.572 529.12 254.257 529.317 254.812 529.712C255.367 530.107 255.785 530.648 256.068 531.336C256.356 532.024 256.5 532.803 256.5 533.672C256.5 534.531 256.356 535.307 256.068 536C255.785 536.688 255.367 537.235 254.812 537.64C254.257 538.04 253.575 538.24 252.764 538.24ZM252.94 536.936C253.521 536.936 253.999 536.797 254.372 536.52C254.745 536.237 255.02 535.851 255.196 535.36C255.377 534.864 255.468 534.301 255.468 533.672C255.468 533.032 255.377 532.469 255.196 531.984C255.02 531.493 254.748 531.112 254.38 530.84C254.012 530.563 253.545 530.424 252.98 530.424C252.393 530.424 251.908 530.568 251.524 530.856C251.145 531.144 250.863 531.533 250.676 532.024C250.495 532.515 250.404 533.064 250.404 533.672C250.404 534.285 250.497 534.84 250.684 535.336C250.871 535.827 251.151 536.216 251.524 536.504C251.903 536.792 252.375 536.936 252.94 536.936ZM255.468 538V531.64H255.308V526.48H256.74V538H255.468ZM262.181 527.832V526.36H263.605V527.832H262.181ZM262.181 538V529.36H263.605V538H262.181ZM275.198 538V533.672C275.198 533.261 275.16 532.867 275.086 532.488C275.016 532.109 274.891 531.771 274.71 531.472C274.534 531.168 274.294 530.928 273.99 530.752C273.691 530.576 273.312 530.488 272.854 530.488C272.496 530.488 272.171 530.549 271.878 530.672C271.59 530.789 271.342 530.971 271.134 531.216C270.926 531.461 270.763 531.771 270.646 532.144C270.534 532.512 270.478 532.947 270.478 533.448L269.542 533.16C269.542 532.323 269.691 531.605 269.99 531.008C270.294 530.405 270.718 529.944 271.262 529.624C271.811 529.299 272.456 529.136 273.198 529.136C273.758 529.136 274.235 529.224 274.63 529.4C275.024 529.576 275.352 529.811 275.614 530.104C275.875 530.392 276.08 530.717 276.23 531.08C276.379 531.437 276.483 531.803 276.542 532.176C276.606 532.544 276.638 532.893 276.638 533.224V538H275.198ZM269.038 538V529.36H270.318V531.672H270.478V538H269.038ZM285.254 542.08C284.8 542.08 284.358 542.011 283.926 541.872C283.494 541.733 283.096 541.523 282.734 541.24C282.376 540.963 282.078 540.611 281.838 540.184L283.142 539.496C283.355 539.917 283.656 540.224 284.046 540.416C284.44 540.608 284.846 540.704 285.262 540.704C285.811 540.704 286.267 540.603 286.63 540.4C286.992 540.203 287.259 539.907 287.43 539.512C287.606 539.117 287.691 538.627 287.686 538.04V535.68H287.854V529.36H289.118V538.056C289.118 538.291 289.11 538.517 289.094 538.736C289.083 538.955 289.056 539.171 289.014 539.384C288.902 539.997 288.68 540.501 288.35 540.896C288.019 541.296 287.592 541.592 287.07 541.784C286.547 541.981 285.942 542.08 285.254 542.08ZM285.15 538.24C284.344 538.24 283.654 538.04 283.078 537.64C282.502 537.235 282.056 536.688 281.742 536C281.432 535.312 281.278 534.536 281.278 533.672C281.278 532.808 281.432 532.032 281.742 531.344C282.056 530.656 282.502 530.115 283.078 529.72C283.654 529.32 284.342 529.12 285.142 529.12C285.958 529.12 286.643 529.317 287.198 529.712C287.752 530.107 288.171 530.648 288.454 531.336C288.742 532.024 288.886 532.803 288.886 533.672C288.886 534.531 288.742 535.307 288.454 536C288.171 536.688 287.752 537.235 287.198 537.64C286.643 538.04 285.96 538.24 285.15 538.24ZM285.326 536.936C285.907 536.936 286.384 536.797 286.758 536.52C287.131 536.237 287.406 535.851 287.582 535.36C287.763 534.864 287.854 534.301 287.854 533.672C287.854 533.032 287.763 532.469 287.582 531.984C287.406 531.493 287.134 531.112 286.766 530.84C286.398 530.563 285.931 530.424 285.366 530.424C284.779 530.424 284.294 530.568 283.91 530.856C283.531 531.144 283.248 531.533 283.062 532.024C282.88 532.515 282.79 533.064 282.79 533.672C282.79 534.285 282.883 534.84 283.07 535.336C283.256 535.827 283.536 536.216 283.91 536.504C284.288 536.792 284.76 536.936 285.326 536.936Z" fill="#FDFDFD"/>
<path d="M3.128 536V526.056L0.96 527.368V525.776L3.128 524.48H4.576V536H3.128ZM14.548 536.24C13.8013 536.24 13.1347 536.072 12.548 535.736C11.9667 535.395 11.5053 534.933 11.164 534.352C10.828 533.765 10.66 533.099 10.66 532.352V528.128C10.66 527.381 10.828 526.715 11.164 526.128C11.5053 525.541 11.9667 525.08 12.548 524.744C13.1347 524.408 13.8013 524.24 14.548 524.24C15.2947 524.24 15.9613 524.408 16.548 524.744C17.1347 525.08 17.596 525.541 17.932 526.128C18.268 526.715 18.436 527.381 18.436 528.128V532.352C18.436 533.099 18.268 533.765 17.932 534.352C17.596 534.933 17.1347 535.395 16.548 535.736C15.9613 536.072 15.2947 536.24 14.548 536.24ZM14.548 534.872C15.0013 534.872 15.412 534.763 15.78 534.544C16.148 534.325 16.4413 534.032 16.66 533.664C16.8787 533.291 16.988 532.88 16.988 532.432V528.04C16.988 527.587 16.8787 527.176 16.66 526.808C16.4413 526.44 16.148 526.147 15.78 525.928C15.412 525.709 15.0013 525.6 14.548 525.6C14.1 525.6 13.6893 525.709 13.316 525.928C12.948 526.147 12.6547 526.44 12.436 526.808C12.2173 527.176 12.108 527.587 12.108 528.04V532.432C12.108 532.88 12.2173 533.291 12.436 533.664C12.6547 534.032 12.948 534.325 13.316 534.544C13.6893 534.763 14.1 534.872 14.548 534.872ZM26.6276 524.48H28.0756L25.0036 536H23.5556L26.6276 524.48ZM32.8731 535.992L32.8811 534.712L37.9931 530.112C38.4198 529.728 38.7051 529.365 38.8491 529.024C38.9985 528.677 39.0731 528.323 39.0731 527.96C39.0731 527.517 38.9718 527.117 38.7691 526.76C38.5665 526.403 38.2891 526.12 37.9371 525.912C37.5905 525.704 37.1958 525.6 36.7531 525.6C36.2945 525.6 35.8865 525.709 35.5291 525.928C35.1718 526.141 34.8891 526.427 34.6811 526.784C34.4785 527.141 34.3798 527.531 34.3851 527.952H32.9291C32.9291 527.227 33.0971 526.587 33.4331 526.032C33.7691 525.472 34.2251 525.035 34.8011 524.72C35.3825 524.4 36.0411 524.24 36.7771 524.24C37.4918 524.24 38.1318 524.405 38.6971 524.736C39.2625 525.061 39.7078 525.507 40.0331 526.072C40.3638 526.632 40.5291 527.267 40.5291 527.976C40.5291 528.477 40.4651 528.912 40.3371 529.28C40.2145 529.648 40.0225 529.989 39.7611 530.304C39.4998 530.613 39.1718 530.944 38.7771 531.296L34.5291 535.112L34.3451 534.632H40.5291V535.992H32.8731ZM45.1631 535.992L45.1711 534.712L50.2831 530.112C50.7098 529.728 50.9951 529.365 51.1391 529.024C51.2885 528.677 51.3631 528.323 51.3631 527.96C51.3631 527.517 51.2618 527.117 51.0591 526.76C50.8565 526.403 50.5791 526.12 50.2271 525.912C49.8805 525.704 49.4858 525.6 49.0431 525.6C48.5845 525.6 48.1765 525.709 47.8191 525.928C47.4618 526.141 47.1791 526.427 46.9711 526.784C46.7685 527.141 46.6698 527.531 46.6751 527.952H45.2191C45.2191 527.227 45.3871 526.587 45.7231 526.032C46.0591 525.472 46.5151 525.035 47.0911 524.72C47.6725 524.4 48.3311 524.24 49.0671 524.24C49.7818 524.24 50.4218 524.405 50.9871 524.736C51.5525 525.061 51.9978 525.507 52.3231 526.072C52.6538 526.632 52.8191 527.267 52.8191 527.976C52.8191 528.477 52.7551 528.912 52.6271 529.28C52.5045 529.648 52.3125 529.989 52.0511 530.304C51.7898 530.613 51.4618 530.944 51.0671 531.296L46.8191 535.112L46.6351 534.632H52.8191V535.992H45.1631ZM72.2674 536V526.056L70.0994 527.368V525.776L72.2674 524.48H73.7154V536H72.2674ZM83.5674 524.248C84.3034 524.248 84.9674 524.424 85.5594 524.776C86.1514 525.128 86.6207 525.608 86.9674 526.216C87.3194 526.824 87.4954 527.515 87.4954 528.288V532.12C87.4954 532.925 87.322 533.637 86.9754 534.256C86.6287 534.875 86.1487 535.36 85.5354 535.712C84.9274 536.064 84.2287 536.24 83.4394 536.24C82.81 536.24 82.2207 536.109 81.6714 535.848C81.1274 535.587 80.666 535.216 80.2874 534.736L81.3514 533.792C81.586 534.123 81.8874 534.389 82.2554 534.592C82.6234 534.789 83.018 534.888 83.4394 534.888C83.9514 534.888 84.402 534.765 84.7914 534.52C85.186 534.275 85.4927 533.955 85.7114 533.56C85.9354 533.165 86.0474 532.739 86.0474 532.28V529.968L86.3594 530.32C86.0287 530.8 85.6047 531.184 85.0874 531.472C84.57 531.76 84.0074 531.904 83.3994 531.904C82.6847 531.904 82.0447 531.736 81.4794 531.4C80.914 531.064 80.466 530.611 80.1354 530.04C79.8047 529.464 79.6394 528.819 79.6394 528.104C79.6394 527.389 79.818 526.741 80.1754 526.16C80.5327 525.573 81.0074 525.109 81.5994 524.768C82.1967 524.421 82.8527 524.248 83.5674 524.248ZM83.5674 525.624C83.1087 525.624 82.69 525.736 82.3114 525.96C81.938 526.179 81.6394 526.477 81.4154 526.856C81.1914 527.229 81.0794 527.645 81.0794 528.104C81.0794 528.563 81.1887 528.981 81.4074 529.36C81.6314 529.733 81.93 530.032 82.3034 530.256C82.682 530.48 83.1007 530.592 83.5594 530.592C84.018 530.592 84.4367 530.48 84.8154 530.256C85.194 530.032 85.4927 529.733 85.7114 529.36C85.9354 528.981 86.0474 528.563 86.0474 528.104C86.0474 527.651 85.9354 527.237 85.7114 526.864C85.4927 526.485 85.194 526.184 84.8154 525.96C84.442 525.736 84.026 525.624 83.5674 525.624ZM93.4169 534.8V533.232H94.9849V534.8H93.4169ZM93.4249 530.128V528.56H94.9929V530.128H93.4249ZM103.993 536.224C103.422 536.224 102.891 536.12 102.401 535.912C101.91 535.699 101.486 535.4 101.129 535.016C100.777 534.627 100.518 534.165 100.353 533.632L101.721 533.24C101.897 533.773 102.19 534.179 102.601 534.456C103.011 534.733 103.473 534.869 103.985 534.864C104.454 534.853 104.859 534.747 105.201 534.544C105.547 534.336 105.814 534.053 106.001 533.696C106.193 533.339 106.289 532.925 106.289 532.456C106.289 531.741 106.075 531.163 105.649 530.72C105.222 530.272 104.662 530.048 103.969 530.048C103.777 530.048 103.574 530.075 103.361 530.128C103.153 530.181 102.958 530.256 102.777 530.352L102.089 529.224L106.361 525.36L106.545 525.84H100.809V524.48H107.601V525.848L103.961 529.336L103.945 528.832C104.707 528.779 105.374 528.904 105.945 529.208C106.515 529.512 106.958 529.947 107.273 530.512C107.593 531.077 107.753 531.725 107.753 532.456C107.753 533.192 107.587 533.843 107.257 534.408C106.926 534.973 106.478 535.419 105.913 535.744C105.347 536.064 104.707 536.224 103.993 536.224ZM116.761 536.24C116.014 536.24 115.347 536.072 114.761 535.736C114.179 535.395 113.718 534.933 113.377 534.352C113.041 533.765 112.873 533.099 112.873 532.352V528.128C112.873 527.381 113.041 526.715 113.377 526.128C113.718 525.541 114.179 525.08 114.761 524.744C115.347 524.408 116.014 524.24 116.761 524.24C117.507 524.24 118.174 524.408 118.761 524.744C119.347 525.08 119.809 525.541 120.145 526.128C120.481 526.715 120.649 527.381 120.649 528.128V532.352C120.649 533.099 120.481 533.765 120.145 534.352C119.809 534.933 119.347 535.395 118.761 535.736C118.174 536.072 117.507 536.24 116.761 536.24ZM116.761 534.872C117.214 534.872 117.625 534.763 117.993 534.544C118.361 534.325 118.654 534.032 118.873 533.664C119.091 533.291 119.201 532.88 119.201 532.432V528.04C119.201 527.587 119.091 527.176 118.873 526.808C118.654 526.44 118.361 526.147 117.993 525.928C117.625 525.709 117.214 525.6 116.761 525.6C116.313 525.6 115.902 525.709 115.529 525.928C115.161 526.147 114.867 526.44 114.649 526.808C114.43 527.176 114.321 527.587 114.321 528.04V532.432C114.321 532.88 114.43 533.291 114.649 533.664C114.867 534.032 115.161 534.325 115.529 534.544C115.902 534.763 116.313 534.872 116.761 534.872Z" fill="#FDFDFD"/>
<path d="M227.856 330.24C226.709 330.24 225.736 329.987 224.936 329.48C224.136 328.973 223.525 328.269 223.104 327.368C222.688 326.467 222.48 325.424 222.48 324.24C222.48 323.056 222.688 322.013 223.104 321.112C223.525 320.211 224.136 319.507 224.936 319C225.736 318.493 226.709 318.24 227.856 318.24C229.189 318.24 230.285 318.579 231.144 319.256C232.008 319.933 232.603 320.845 232.928 321.992L231.48 322.376C231.245 321.517 230.827 320.84 230.224 320.344C229.621 319.848 228.832 319.6 227.856 319.6C226.997 319.6 226.283 319.795 225.712 320.184C225.141 320.573 224.712 321.117 224.424 321.816C224.136 322.509 223.989 323.317 223.984 324.24C223.979 325.157 224.12 325.965 224.408 326.664C224.696 327.357 225.128 327.901 225.704 328.296C226.28 328.685 226.997 328.88 227.856 328.88C228.832 328.88 229.621 328.632 230.224 328.136C230.827 327.635 231.245 326.957 231.48 326.104L232.928 326.488C232.603 327.629 232.008 328.541 231.144 329.224C230.285 329.901 229.189 330.24 227.856 330.24ZM241.403 330.24C240.544 330.24 239.803 330.045 239.179 329.656C238.56 329.267 238.083 328.728 237.747 328.04C237.411 327.352 237.243 326.563 237.243 325.672C237.243 324.765 237.413 323.971 237.755 323.288C238.096 322.605 238.579 322.075 239.203 321.696C239.827 321.312 240.56 321.12 241.403 321.12C242.267 321.12 243.011 321.315 243.635 321.704C244.259 322.088 244.736 322.624 245.067 323.312C245.403 323.995 245.571 324.781 245.571 325.672C245.571 326.573 245.403 327.368 245.067 328.056C244.731 328.739 244.251 329.275 243.627 329.664C243.003 330.048 242.261 330.24 241.403 330.24ZM241.403 328.888C242.299 328.888 242.965 328.589 243.403 327.992C243.84 327.395 244.059 326.621 244.059 325.672C244.059 324.696 243.837 323.92 243.395 323.344C242.952 322.763 242.288 322.472 241.403 322.472C240.8 322.472 240.304 322.608 239.915 322.88C239.525 323.152 239.235 323.528 239.043 324.008C238.851 324.488 238.755 325.043 238.755 325.672C238.755 326.643 238.979 327.421 239.427 328.008C239.875 328.595 240.533 328.888 241.403 328.888ZM253.764 330.24C252.959 330.24 252.268 330.04 251.692 329.64C251.116 329.235 250.671 328.688 250.356 328C250.047 327.312 249.892 326.536 249.892 325.672C249.892 324.808 250.047 324.032 250.356 323.344C250.671 322.656 251.116 322.115 251.692 321.72C252.268 321.32 252.956 321.12 253.756 321.12C254.572 321.12 255.257 321.317 255.812 321.712C256.367 322.107 256.785 322.648 257.068 323.336C257.356 324.024 257.5 324.803 257.5 325.672C257.5 326.531 257.356 327.307 257.068 328C256.785 328.688 256.367 329.235 255.812 329.64C255.257 330.04 254.575 330.24 253.764 330.24ZM253.94 328.936C254.521 328.936 254.999 328.797 255.372 328.52C255.745 328.237 256.02 327.851 256.196 327.36C256.377 326.864 256.468 326.301 256.468 325.672C256.468 325.032 256.377 324.469 256.196 323.984C256.02 323.493 255.748 323.112 255.38 322.84C255.012 322.563 254.545 322.424 253.98 322.424C253.393 322.424 252.908 322.568 252.524 322.856C252.145 323.144 251.863 323.533 251.676 324.024C251.495 324.515 251.404 325.064 251.404 325.672C251.404 326.285 251.497 326.84 251.684 327.336C251.871 327.827 252.151 328.216 252.524 328.504C252.903 328.792 253.375 328.936 253.94 328.936ZM256.468 330V323.64H256.308V318.48H257.74V330H256.468ZM263.181 319.832V318.36H264.605V319.832H263.181ZM263.181 330V321.36H264.605V330H263.181ZM276.198 330V325.672C276.198 325.261 276.16 324.867 276.086 324.488C276.016 324.109 275.891 323.771 275.71 323.472C275.534 323.168 275.294 322.928 274.99 322.752C274.691 322.576 274.312 322.488 273.854 322.488C273.496 322.488 273.171 322.549 272.878 322.672C272.59 322.789 272.342 322.971 272.134 323.216C271.926 323.461 271.763 323.771 271.646 324.144C271.534 324.512 271.478 324.947 271.478 325.448L270.542 325.16C270.542 324.323 270.691 323.605 270.99 323.008C271.294 322.405 271.718 321.944 272.262 321.624C272.811 321.299 273.456 321.136 274.198 321.136C274.758 321.136 275.235 321.224 275.63 321.4C276.024 321.576 276.352 321.811 276.614 322.104C276.875 322.392 277.08 322.717 277.23 323.08C277.379 323.437 277.483 323.803 277.542 324.176C277.606 324.544 277.638 324.893 277.638 325.224V330H276.198ZM270.038 330V321.36H271.318V323.672H271.478V330H270.038ZM286.254 334.08C285.8 334.08 285.358 334.011 284.926 333.872C284.494 333.733 284.096 333.523 283.734 333.24C283.376 332.963 283.078 332.611 282.838 332.184L284.142 331.496C284.355 331.917 284.656 332.224 285.046 332.416C285.44 332.608 285.846 332.704 286.262 332.704C286.811 332.704 287.267 332.603 287.63 332.4C287.992 332.203 288.259 331.907 288.43 331.512C288.606 331.117 288.691 330.627 288.686 330.04V327.68H288.854V321.36H290.118V330.056C290.118 330.291 290.11 330.517 290.094 330.736C290.083 330.955 290.056 331.171 290.014 331.384C289.902 331.997 289.68 332.501 289.35 332.896C289.019 333.296 288.592 333.592 288.07 333.784C287.547 333.981 286.942 334.08 286.254 334.08ZM286.15 330.24C285.344 330.24 284.654 330.04 284.078 329.64C283.502 329.235 283.056 328.688 282.742 328C282.432 327.312 282.278 326.536 282.278 325.672C282.278 324.808 282.432 324.032 282.742 323.344C283.056 322.656 283.502 322.115 284.078 321.72C284.654 321.32 285.342 321.12 286.142 321.12C286.958 321.12 287.643 321.317 288.198 321.712C288.752 322.107 289.171 322.648 289.454 323.336C289.742 324.024 289.886 324.803 289.886 325.672C289.886 326.531 289.742 327.307 289.454 328C289.171 328.688 288.752 329.235 288.198 329.64C287.643 330.04 286.96 330.24 286.15 330.24ZM286.326 328.936C286.907 328.936 287.384 328.797 287.758 328.52C288.131 328.237 288.406 327.851 288.582 327.36C288.763 326.864 288.854 326.301 288.854 325.672C288.854 325.032 288.763 324.469 288.582 323.984C288.406 323.493 288.134 323.112 287.766 322.84C287.398 322.563 286.931 322.424 286.366 322.424C285.779 322.424 285.294 322.568 284.91 322.856C284.531 323.144 284.248 323.533 284.062 324.024C283.88 324.515 283.79 325.064 283.79 325.672C283.79 326.285 283.883 326.84 284.07 327.336C284.256 327.827 284.536 328.216 284.91 328.504C285.288 328.792 285.76 328.936 286.326 328.936Z" fill="#FDFDFD"/>
<path d="M3.128 330V320.056L0.96 321.368V319.776L3.128 318.48H4.576V330H3.128ZM14.548 330.24C13.8013 330.24 13.1347 330.072 12.548 329.736C11.9667 329.395 11.5053 328.933 11.164 328.352C10.828 327.765 10.66 327.099 10.66 326.352V322.128C10.66 321.381 10.828 320.715 11.164 320.128C11.5053 319.541 11.9667 319.08 12.548 318.744C13.1347 318.408 13.8013 318.24 14.548 318.24C15.2947 318.24 15.9613 318.408 16.548 318.744C17.1347 319.08 17.596 319.541 17.932 320.128C18.268 320.715 18.436 321.381 18.436 322.128V326.352C18.436 327.099 18.268 327.765 17.932 328.352C17.596 328.933 17.1347 329.395 16.548 329.736C15.9613 330.072 15.2947 330.24 14.548 330.24ZM14.548 328.872C15.0013 328.872 15.412 328.763 15.78 328.544C16.148 328.325 16.4413 328.032 16.66 327.664C16.8787 327.291 16.988 326.88 16.988 326.432V322.04C16.988 321.587 16.8787 321.176 16.66 320.808C16.4413 320.44 16.148 320.147 15.78 319.928C15.412 319.709 15.0013 319.6 14.548 319.6C14.1 319.6 13.6893 319.709 13.316 319.928C12.948 320.147 12.6547 320.44 12.436 320.808C12.2173 321.176 12.108 321.587 12.108 322.04V326.432C12.108 326.88 12.2173 327.291 12.436 327.664C12.6547 328.032 12.948 328.325 13.316 328.544C13.6893 328.763 14.1 328.872 14.548 328.872ZM26.6276 318.48H28.0756L25.0036 330H23.5556L26.6276 318.48ZM32.8731 329.992L32.8811 328.712L37.9931 324.112C38.4198 323.728 38.7051 323.365 38.8491 323.024C38.9985 322.677 39.0731 322.323 39.0731 321.96C39.0731 321.517 38.9718 321.117 38.7691 320.76C38.5665 320.403 38.2891 320.12 37.9371 319.912C37.5905 319.704 37.1958 319.6 36.7531 319.6C36.2945 319.6 35.8865 319.709 35.5291 319.928C35.1718 320.141 34.8891 320.427 34.6811 320.784C34.4785 321.141 34.3798 321.531 34.3851 321.952H32.9291C32.9291 321.227 33.0971 320.587 33.4331 320.032C33.7691 319.472 34.2251 319.035 34.8011 318.72C35.3825 318.4 36.0411 318.24 36.7771 318.24C37.4918 318.24 38.1318 318.405 38.6971 318.736C39.2625 319.061 39.7078 319.507 40.0331 320.072C40.3638 320.632 40.5291 321.267 40.5291 321.976C40.5291 322.477 40.4651 322.912 40.3371 323.28C40.2145 323.648 40.0225 323.989 39.7611 324.304C39.4998 324.613 39.1718 324.944 38.7771 325.296L34.5291 329.112L34.3451 328.632H40.5291V329.992H32.8731ZM45.1631 329.992L45.1711 328.712L50.2831 324.112C50.7098 323.728 50.9951 323.365 51.1391 323.024C51.2885 322.677 51.3631 322.323 51.3631 321.96C51.3631 321.517 51.2618 321.117 51.0591 320.76C50.8565 320.403 50.5791 320.12 50.2271 319.912C49.8805 319.704 49.4858 319.6 49.0431 319.6C48.5845 319.6 48.1765 319.709 47.8191 319.928C47.4618 320.141 47.1791 320.427 46.9711 320.784C46.7685 321.141 46.6698 321.531 46.6751 321.952H45.2191C45.2191 321.227 45.3871 320.587 45.7231 320.032C46.0591 319.472 46.5151 319.035 47.0911 318.72C47.6725 318.4 48.3311 318.24 49.0671 318.24C49.7818 318.24 50.4218 318.405 50.9871 318.736C51.5525 319.061 51.9978 319.507 52.3231 320.072C52.6538 320.632 52.8191 321.267 52.8191 321.976C52.8191 322.477 52.7551 322.912 52.6271 323.28C52.5045 323.648 52.3125 323.989 52.0511 324.304C51.7898 324.613 51.4618 324.944 51.0671 325.296L46.8191 329.112L46.6351 328.632H52.8191V329.992H45.1631ZM72.2674 330V320.056L70.0994 321.368V319.776L72.2674 318.48H73.7154V330H72.2674ZM82.9594 330.224C82.3887 330.224 81.858 330.12 81.3674 329.912C80.8767 329.699 80.4527 329.4 80.0954 329.016C79.7434 328.627 79.4847 328.165 79.3194 327.632L80.6874 327.24C80.8634 327.773 81.1567 328.179 81.5674 328.456C81.978 328.733 82.4394 328.869 82.9514 328.864C83.4207 328.853 83.826 328.747 84.1674 328.544C84.514 328.336 84.7807 328.053 84.9674 327.696C85.1594 327.339 85.2554 326.925 85.2554 326.456C85.2554 325.741 85.042 325.163 84.6154 324.72C84.1887 324.272 83.6287 324.048 82.9354 324.048C82.7434 324.048 82.5407 324.075 82.3274 324.128C82.1194 324.181 81.9247 324.256 81.7434 324.352L81.0554 323.224L85.3274 319.36L85.5114 319.84H79.7754V318.48H86.5674V319.848L82.9274 323.336L82.9114 322.832C83.674 322.779 84.3407 322.904 84.9114 323.208C85.482 323.512 85.9247 323.947 86.2394 324.512C86.5594 325.077 86.7194 325.725 86.7194 326.456C86.7194 327.192 86.554 327.843 86.2234 328.408C85.8927 328.973 85.4447 329.419 84.8794 329.744C84.314 330.064 83.674 330.224 82.9594 330.224ZM92.4794 328.8V327.232H94.0474V328.8H92.4794ZM92.4874 324.128V322.56H94.0554V324.128H92.4874ZM103.055 330.224C102.484 330.224 101.954 330.12 101.463 329.912C100.972 329.699 100.548 329.4 100.191 329.016C99.839 328.627 99.5803 328.165 99.415 327.632L100.783 327.24C100.959 327.773 101.252 328.179 101.663 328.456C102.074 328.733 102.535 328.869 103.047 328.864C103.516 328.853 103.922 328.747 104.263 328.544C104.61 328.336 104.876 328.053 105.063 327.696C105.255 327.339 105.351 326.925 105.351 326.456C105.351 325.741 105.138 325.163 104.711 324.72C104.284 324.272 103.724 324.048 103.031 324.048C102.839 324.048 102.636 324.075 102.423 324.128C102.215 324.181 102.02 324.256 101.839 324.352L101.151 323.224L105.423 319.36L105.607 319.84H99.871V318.48H106.663V319.848L103.023 323.336L103.007 322.832C103.77 322.779 104.436 322.904 105.007 323.208C105.578 323.512 106.02 323.947 106.335 324.512C106.655 325.077 106.815 325.725 106.815 326.456C106.815 327.192 106.65 327.843 106.319 328.408C105.988 328.973 105.54 329.419 104.975 329.744C104.41 330.064 103.77 330.224 103.055 330.224ZM115.823 330.24C115.076 330.24 114.41 330.072 113.823 329.736C113.242 329.395 112.78 328.933 112.439 328.352C112.103 327.765 111.935 327.099 111.935 326.352V322.128C111.935 321.381 112.103 320.715 112.439 320.128C112.78 319.541 113.242 319.08 113.823 318.744C114.41 318.408 115.076 318.24 115.823 318.24C116.57 318.24 117.236 318.408 117.823 318.744C118.41 319.08 118.871 319.541 119.207 320.128C119.543 320.715 119.711 321.381 119.711 322.128V326.352C119.711 327.099 119.543 327.765 119.207 328.352C118.871 328.933 118.41 329.395 117.823 329.736C117.236 330.072 116.57 330.24 115.823 330.24ZM115.823 328.872C116.276 328.872 116.687 328.763 117.055 328.544C117.423 328.325 117.716 328.032 117.935 327.664C118.154 327.291 118.263 326.88 118.263 326.432V322.04C118.263 321.587 118.154 321.176 117.935 320.808C117.716 320.44 117.423 320.147 117.055 319.928C116.687 319.709 116.276 319.6 115.823 319.6C115.375 319.6 114.964 319.709 114.591 319.928C114.223 320.147 113.93 320.44 113.711 320.808C113.492 321.176 113.383 321.587 113.383 322.04V326.432C113.383 326.88 113.492 327.291 113.711 327.664C113.93 328.032 114.223 328.325 114.591 328.544C114.964 328.763 115.375 328.872 115.823 328.872Z" fill="#FDFDFD"/>
<circle cx="172" cy="324" r="10" fill="#915874" fill-opacity="0.99"/>
<path d="M225.064 251.528C224.392 253.72 223.256 255.848 221.88 257.176C222.184 257.352 222.728 257.704 222.984 257.912C224.312 256.456 225.56 254.2 226.312 251.816L225.064 251.528ZM225 253.72L224.408 254.888H234.92V253.72H225ZM221.848 258.92V260.12H236.152V258.92H221.848ZM228.376 254.216V266.296H229.624V254.216H228.376ZM244.28 251.56V254.2H245.304V251.56H244.28ZM244.696 252.264V253.064H248.04V252.264H244.696ZM243.416 253.848L242.76 254.648H247.08V253.848H243.416ZM246.792 253.848V254.024C245.8 255.992 243.128 257.32 240.664 257.864C240.856 258.072 241.096 258.424 241.224 258.68C243.88 257.992 246.632 256.568 247.832 254.168L247.192 253.816L247 253.848H246.792ZM242.088 255.416C242.92 255.8 243.944 256.408 244.44 256.824L245.08 256.232C244.552 255.784 243.528 255.224 242.712 254.872L242.088 255.416ZM243.064 253.608C242.488 254.376 241.464 255.08 240.44 255.56C240.664 255.704 241.032 256.024 241.192 256.184C242.2 255.64 243.304 254.776 243.976 253.88L243.064 253.608ZM248.696 252.264V253.144H253.672V252.264H248.696ZM253.384 252.264V252.424C252.632 254.376 250.632 255.832 248.616 256.44C248.824 256.648 249.096 257.048 249.224 257.304C251.416 256.536 253.56 254.952 254.472 252.52L253.784 252.216L253.608 252.264H253.384ZM248.648 254.408C250.648 255.352 253.08 256.856 254.264 257.944L255 257.16C253.768 256.088 251.32 254.632 249.336 253.736L248.648 254.408ZM247.96 257.256C249.64 258.648 252.52 259.928 254.872 260.52C255 260.264 255.24 259.864 255.464 259.608C253.016 259.096 250.216 257.944 248.392 256.456H247.416C246.04 257.784 243.368 259.08 240.664 259.8C240.856 260.024 241.08 260.392 241.192 260.648C243.848 259.864 246.52 258.536 247.96 257.256ZM244.36 259.8V260.536H251.336V262.744H244.36V263.48H252.472V259.8H244.36ZM243.736 259.8V265.48L244.872 265.384V259.8H243.736ZM253.08 262.76C252.328 263.336 251 264.12 250.008 264.568L250.664 265.048C251.672 264.632 252.952 263.96 253.96 263.32L253.08 262.76ZM248.168 263.032L247.272 263.304C248.616 265.08 251.336 265.992 254.584 266.296C254.712 266.008 254.968 265.608 255.192 265.4C252.056 265.192 249.352 264.472 248.168 263.032ZM244.36 261.272V261.944H251.72V261.272H244.36ZM245.928 258.504V259.24H250.104V258.504H245.928ZM241.928 265.144L242.072 266.104C243.848 265.928 246.392 265.656 248.792 265.4V264.488C246.248 264.76 243.624 265 241.928 265.144ZM265.816 253.48V254.536H273.816V253.48H265.816ZM265.128 256.584V257.656H274.504V256.584H265.128ZM265.208 259.48V260.552H274.328V259.48H265.208ZM269.176 251.56V257.24H270.36V251.56H269.176ZM271.288 257.496V264.84C271.288 265.08 271.208 265.144 270.936 265.16C270.68 265.176 269.784 265.176 268.792 265.144C268.968 265.464 269.16 265.944 269.208 266.264C270.488 266.264 271.304 266.248 271.8 266.072C272.296 265.896 272.456 265.544 272.456 264.856V257.496H271.288ZM266.184 261.672C267 262.504 267.864 263.704 268.216 264.488L269.256 263.848C268.872 263.064 267.976 261.928 267.144 261.096L266.184 261.672ZM260.856 252.616V253.704H263.736V262.04H260.856V263.128H264.856V252.616H260.856ZM260.904 257.272V258.344H264.264V257.272H260.904ZM260.28 252.616V264.44H261.416V252.616H260.28ZM283.672 261.368V262.296H288.52V261.368H283.672ZM283.624 258.952V259.896H287.944V263.864H283.624V264.792H289.08V258.952H283.624ZM283.096 258.952V265.608H284.2V258.952H283.096ZM280.152 254.52V255.4H284.6V254.52H280.152ZM287.528 254.52V255.4H292.056V254.52H287.528ZM291.56 252.248V264.696C291.56 264.968 291.464 265.064 291.176 265.064C290.888 265.08 289.912 265.096 288.936 265.048C289.112 265.384 289.304 265.944 289.352 266.28C290.696 266.28 291.56 266.264 292.072 266.072C292.584 265.864 292.76 265.464 292.76 264.696V252.248H291.56ZM280.248 252.248V253.176H284.232V256.824H280.248V257.752H285.368V252.248H280.248ZM292.152 252.248H286.808V257.768H292.152V256.856H287.96V253.176H292.152V252.248ZM279.56 252.248V266.296H280.744V252.248H279.56Z" fill="#FDFDFD"/>
<path d="M3.128 265V255.056L0.96 256.368V254.776L3.128 253.48H4.576V265H3.128ZM14.548 265.24C13.8013 265.24 13.1347 265.072 12.548 264.736C11.9667 264.395 11.5053 263.933 11.164 263.352C10.828 262.765 10.66 262.099 10.66 261.352V257.128C10.66 256.381 10.828 255.715 11.164 255.128C11.5053 254.541 11.9667 254.08 12.548 253.744C13.1347 253.408 13.8013 253.24 14.548 253.24C15.2947 253.24 15.9613 253.408 16.548 253.744C17.1347 254.08 17.596 254.541 17.932 255.128C18.268 255.715 18.436 256.381 18.436 257.128V261.352C18.436 262.099 18.268 262.765 17.932 263.352C17.596 263.933 17.1347 264.395 16.548 264.736C15.9613 265.072 15.2947 265.24 14.548 265.24ZM14.548 263.872C15.0013 263.872 15.412 263.763 15.78 263.544C16.148 263.325 16.4413 263.032 16.66 262.664C16.8787 262.291 16.988 261.88 16.988 261.432V257.04C16.988 256.587 16.8787 256.176 16.66 255.808C16.4413 255.44 16.148 255.147 15.78 254.928C15.412 254.709 15.0013 254.6 14.548 254.6C14.1 254.6 13.6893 254.709 13.316 254.928C12.948 255.147 12.6547 255.44 12.436 255.808C12.2173 256.176 12.108 256.587 12.108 257.04V261.432C12.108 261.88 12.2173 262.291 12.436 262.664C12.6547 263.032 12.948 263.325 13.316 263.544C13.6893 263.763 14.1 263.872 14.548 263.872ZM26.6276 253.48H28.0756L25.0036 265H23.5556L26.6276 253.48ZM32.8731 264.992L32.8811 263.712L37.9931 259.112C38.4198 258.728 38.7051 258.365 38.8491 258.024C38.9985 257.677 39.0731 257.323 39.0731 256.96C39.0731 256.517 38.9718 256.117 38.7691 255.76C38.5665 255.403 38.2891 255.12 37.9371 254.912C37.5905 254.704 37.1958 254.6 36.7531 254.6C36.2945 254.6 35.8865 254.709 35.5291 254.928C35.1718 255.141 34.8891 255.427 34.6811 255.784C34.4785 256.141 34.3798 256.531 34.3851 256.952H32.9291C32.9291 256.227 33.0971 255.587 33.4331 255.032C33.7691 254.472 34.2251 254.035 34.8011 253.72C35.3825 253.4 36.0411 253.24 36.7771 253.24C37.4918 253.24 38.1318 253.405 38.6971 253.736C39.2625 254.061 39.7078 254.507 40.0331 255.072C40.3638 255.632 40.5291 256.267 40.5291 256.976C40.5291 257.477 40.4651 257.912 40.3371 258.28C40.2145 258.648 40.0225 258.989 39.7611 259.304C39.4998 259.613 39.1718 259.944 38.7771 260.296L34.5291 264.112L34.3451 263.632H40.5291V264.992H32.8731ZM45.1631 264.992L45.1711 263.712L50.2831 259.112C50.7098 258.728 50.9951 258.365 51.1391 258.024C51.2885 257.677 51.3631 257.323 51.3631 256.96C51.3631 256.517 51.2618 256.117 51.0591 255.76C50.8565 255.403 50.5791 255.12 50.2271 254.912C49.8805 254.704 49.4858 254.6 49.0431 254.6C48.5845 254.6 48.1765 254.709 47.8191 254.928C47.4618 255.141 47.1791 255.427 46.9711 255.784C46.7685 256.141 46.6698 256.531 46.6751 256.952H45.2191C45.2191 256.227 45.3871 255.587 45.7231 255.032C46.0591 254.472 46.5151 254.035 47.0911 253.72C47.6725 253.4 48.3311 253.24 49.0671 253.24C49.7818 253.24 50.4218 253.405 50.9871 253.736C51.5525 254.061 51.9978 254.507 52.3231 255.072C52.6538 255.632 52.8191 256.267 52.8191 256.976C52.8191 257.477 52.7551 257.912 52.6271 258.28C52.5045 258.648 52.3125 258.989 52.0511 259.304C51.7898 259.613 51.4618 259.944 51.0671 260.296L46.8191 264.112L46.6351 263.632H52.8191V264.992H45.1631ZM72.2674 265V255.056L70.0994 256.368V254.776L72.2674 253.48H73.7154V265H72.2674ZM79.4794 264.992L79.4874 263.712L84.5994 259.112C85.026 258.728 85.3114 258.365 85.4554 258.024C85.6047 257.677 85.6794 257.323 85.6794 256.96C85.6794 256.517 85.578 256.117 85.3754 255.76C85.1727 255.403 84.8954 255.12 84.5434 254.912C84.1967 254.704 83.802 254.6 83.3594 254.6C82.9007 254.6 82.4927 254.709 82.1354 254.928C81.778 255.141 81.4954 255.427 81.2874 255.784C81.0847 256.141 80.986 256.531 80.9914 256.952H79.5354C79.5354 256.227 79.7034 255.587 80.0394 255.032C80.3754 254.472 80.8314 254.035 81.4074 253.72C81.9887 253.4 82.6474 253.24 83.3834 253.24C84.098 253.24 84.738 253.405 85.3034 253.736C85.8687 254.061 86.314 254.507 86.6394 255.072C86.97 255.632 87.1354 256.267 87.1354 256.976C87.1354 257.477 87.0714 257.912 86.9434 258.28C86.8207 258.648 86.6287 258.989 86.3674 259.304C86.106 259.613 85.778 259.944 85.3834 260.296L81.1354 264.112L80.9514 263.632H87.1354V264.992H79.4794ZM92.7294 263.8V262.232H94.2974V263.8H92.7294ZM92.7374 259.128V257.56H94.3054V259.128H92.7374ZM104.033 265.24C103.286 265.24 102.62 265.072 102.033 264.736C101.452 264.395 100.99 263.933 100.649 263.352C100.313 262.765 100.145 262.099 100.145 261.352V257.128C100.145 256.381 100.313 255.715 100.649 255.128C100.99 254.541 101.452 254.08 102.033 253.744C102.62 253.408 103.286 253.24 104.033 253.24C104.78 253.24 105.446 253.408 106.033 253.744C106.62 254.08 107.081 254.541 107.417 255.128C107.753 255.715 107.921 256.381 107.921 257.128V261.352C107.921 262.099 107.753 262.765 107.417 263.352C107.081 263.933 106.62 264.395 106.033 264.736C105.446 265.072 104.78 265.24 104.033 265.24ZM104.033 263.872C104.486 263.872 104.897 263.763 105.265 263.544C105.633 263.325 105.926 263.032 106.145 262.664C106.364 262.291 106.473 261.88 106.473 261.432V257.04C106.473 256.587 106.364 256.176 106.145 255.808C105.926 255.44 105.633 255.147 105.265 254.928C104.897 254.709 104.486 254.6 104.033 254.6C103.585 254.6 103.174 254.709 102.801 254.928C102.433 255.147 102.14 255.44 101.921 255.808C101.702 256.176 101.593 256.587 101.593 257.04V261.432C101.593 261.88 101.702 262.291 101.921 262.664C102.14 263.032 102.433 263.325 102.801 263.544C103.174 263.763 103.585 263.872 104.033 263.872ZM117.089 265.24C116.342 265.24 115.675 265.072 115.089 264.736C114.507 264.395 114.046 263.933 113.705 263.352C113.369 262.765 113.201 262.099 113.201 261.352V257.128C113.201 256.381 113.369 255.715 113.705 255.128C114.046 254.541 114.507 254.08 115.089 253.744C115.675 253.408 116.342 253.24 117.089 253.24C117.835 253.24 118.502 253.408 119.089 253.744C119.675 254.08 120.137 254.541 120.473 255.128C120.809 255.715 120.977 256.381 120.977 257.128V261.352C120.977 262.099 120.809 262.765 120.473 263.352C120.137 263.933 119.675 264.395 119.089 264.736C118.502 265.072 117.835 265.24 117.089 265.24ZM117.089 263.872C117.542 263.872 117.953 263.763 118.321 263.544C118.689 263.325 118.982 263.032 119.201 262.664C119.419 262.291 119.529 261.88 119.529 261.432V257.04C119.529 256.587 119.419 256.176 119.201 255.808C118.982 255.44 118.689 255.147 118.321 254.928C117.953 254.709 117.542 254.6 117.089 254.6C116.641 254.6 116.23 254.709 115.857 254.928C115.489 255.147 115.195 255.44 114.977 255.808C114.758 256.176 114.649 256.587 114.649 257.04V261.432C114.649 261.88 114.758 262.291 114.977 262.664C115.195 263.032 115.489 263.325 115.857 263.544C116.23 263.763 116.641 263.872 117.089 263.872Z" fill="#FDFDFD"/>
<circle cx="172" cy="259" r="10" fill="#89597A"/>
<ellipse cx="172.658" cy="98" rx="9.96805" ry="10" fill="#705B8A"/>
<path d="M227.774 99.056V105.28H228.878V100.16H234.606V105.2H235.758V99.056H227.774ZM235.166 90.624C233.39 91.264 230.142 91.76 227.358 92.064C227.502 92.336 227.662 92.8 227.71 93.088C230.574 92.816 233.918 92.32 236.11 91.568L235.166 90.624ZM231.23 92.016V99.696H232.382V92.016H231.23ZM226.606 95.264V96.416H236.798V95.264H226.606ZM228.526 103.488V104.592H235.134V103.488H228.526ZM222.942 91.616C223.934 92.144 225.262 92.928 225.934 93.408L226.638 92.432C225.95 91.968 224.59 91.248 223.614 90.768L222.942 91.616ZM222.158 96.032C223.134 96.544 224.462 97.312 225.118 97.76L225.79 96.784C225.118 96.32 223.774 95.616 222.83 95.152L222.158 96.032ZM222.542 104.256L223.55 105.072C224.494 103.584 225.614 101.584 226.462 99.888L225.598 99.104C224.67 100.928 223.406 103.04 222.542 104.256ZM241.646 101.024V101.936H248.942V101.024H241.646ZM241.214 93.312V94.24H249.198V93.312H241.214ZM244.686 91.856V103.632H245.79V91.856H244.686ZM241.198 103.664L241.374 104.704C243.406 104.496 246.302 104.16 249.022 103.84L249.006 102.896C246.142 103.2 243.15 103.488 241.198 103.664ZM242.686 98.032H247.87V99.216H242.686V98.032ZM242.686 96.08H247.87V97.232H242.686V96.08ZM241.678 95.248V100.048H248.894V95.248H241.678ZM248.318 90.72C246.67 91.104 243.758 91.392 241.374 91.52C241.502 91.76 241.614 92.16 241.662 92.416C244.062 92.336 247.038 92.064 248.926 91.648L248.318 90.72ZM249.086 94.304V95.424H254.862V94.304H249.086ZM254.398 94.304V94.592C254.222 101.072 254.046 103.376 253.646 103.872C253.502 104.08 253.342 104.128 253.086 104.128C252.766 104.128 252.062 104.112 251.278 104.048C251.47 104.368 251.598 104.864 251.63 105.2C252.366 105.248 253.134 105.248 253.582 105.2C254.062 105.152 254.382 105.008 254.67 104.592C255.198 103.904 255.358 101.664 255.534 94.912C255.534 94.752 255.55 94.304 255.55 94.304H254.398ZM251.022 90.768C251.006 96.816 251.086 101.888 247.422 104.512C247.71 104.704 248.126 105.088 248.318 105.376C252.142 102.512 252.158 97.136 252.174 90.768H251.022ZM263.598 97.648V98.64H271.534V97.648H263.598ZM263.294 100.384V101.408H271.87V100.384H263.294ZM268.622 97.968V104.992H269.71V97.968H268.622ZM265.342 98.016V100.928C265.342 101.808 265.006 103.504 263.39 104.496C263.662 104.656 264.03 104.992 264.19 105.216C265.998 104 266.382 101.904 266.382 100.928V98.016H265.342ZM261.614 93.472V94.336H266.11V93.472H261.614ZM268.99 93.472V94.336H273.518V93.472H268.99ZM273.054 91.248V103.728C273.054 103.968 272.974 104.064 272.718 104.064C272.462 104.08 271.598 104.08 270.718 104.048C270.894 104.384 271.054 104.944 271.102 105.264C272.318 105.264 273.118 105.248 273.598 105.04C274.078 104.832 274.238 104.448 274.238 103.728V91.248H273.054ZM261.71 91.248V92.176H265.71V95.728H261.71V96.64H266.846V91.248H261.71ZM273.63 91.248H268.254V96.656H273.63V95.744H269.406V92.176H273.63V91.248ZM260.99 91.248V105.296H262.174V91.248H260.99ZM279.47 98.944V99.92H293.774V98.944H279.47ZM285.966 99.792V105.28H287.134V99.792H285.966ZM284.35 97.808C283.566 99.344 281.838 100.976 279.118 102.048C279.358 102.24 279.678 102.656 279.822 102.928C282.718 101.68 284.526 99.904 285.566 98.016L284.35 97.808ZM289.742 99.248L288.878 99.568C289.854 100.928 291.678 102.176 293.406 102.752C293.566 102.464 293.902 102.064 294.142 101.84C292.446 101.392 290.638 100.352 289.742 99.248ZM281.982 101.04V104.784H283.134V102.016H290.894V101.04H281.982ZM290.286 101.04V103.616C290.286 103.792 290.254 103.84 290.062 103.84C289.87 103.856 289.262 103.856 288.574 103.824C288.702 104.08 288.862 104.432 288.91 104.704C289.886 104.704 290.558 104.72 290.942 104.576C291.358 104.416 291.454 104.16 291.454 103.616V101.04H290.286ZM282.526 96.24H290.862V97.264H282.526V96.24ZM282.526 94.448H290.862V95.472H282.526V94.448ZM281.358 93.648V98.08H292.062V93.648H281.358ZM279.662 91.6V92.592H293.566V91.6H279.662ZM283.342 90.576V93.376H284.494V90.576H283.342ZM288.654 90.576V93.328H289.822V90.576H288.654Z" fill="#FDFDFD"/>
<path d="M3.128 104V94.056L0.96 95.368V93.776L3.128 92.48H4.576V104H3.128ZM14.548 104.24C13.8013 104.24 13.1347 104.072 12.548 103.736C11.9667 103.395 11.5053 102.933 11.164 102.352C10.828 101.765 10.66 101.099 10.66 100.352V96.128C10.66 95.3813 10.828 94.7147 11.164 94.128C11.5053 93.5413 11.9667 93.08 12.548 92.744C13.1347 92.408 13.8013 92.24 14.548 92.24C15.2947 92.24 15.9613 92.408 16.548 92.744C17.1347 93.08 17.596 93.5413 17.932 94.128C18.268 94.7147 18.436 95.3813 18.436 96.128V100.352C18.436 101.099 18.268 101.765 17.932 102.352C17.596 102.933 17.1347 103.395 16.548 103.736C15.9613 104.072 15.2947 104.24 14.548 104.24ZM14.548 102.872C15.0013 102.872 15.412 102.763 15.78 102.544C16.148 102.325 16.4413 102.032 16.66 101.664C16.8787 101.291 16.988 100.88 16.988 100.432V96.04C16.988 95.5867 16.8787 95.176 16.66 94.808C16.4413 94.44 16.148 94.1467 15.78 93.928C15.412 93.7093 15.0013 93.6 14.548 93.6C14.1 93.6 13.6893 93.7093 13.316 93.928C12.948 94.1467 12.6547 94.44 12.436 94.808C12.2173 95.176 12.108 95.5867 12.108 96.04V100.432C12.108 100.88 12.2173 101.291 12.436 101.664C12.6547 102.032 12.948 102.325 13.316 102.544C13.6893 102.763 14.1 102.872 14.548 102.872ZM26.6276 92.48H28.0756L25.0036 104H23.5556L26.6276 92.48ZM32.8731 103.992L32.8811 102.712L37.9931 98.112C38.4198 97.728 38.7051 97.3653 38.8491 97.024C38.9985 96.6773 39.0731 96.3227 39.0731 95.96C39.0731 95.5173 38.9718 95.1173 38.7691 94.76C38.5665 94.4027 38.2891 94.12 37.9371 93.912C37.5905 93.704 37.1958 93.6 36.7531 93.6C36.2945 93.6 35.8865 93.7093 35.5291 93.928C35.1718 94.1413 34.8891 94.4267 34.6811 94.784C34.4785 95.1413 34.3798 95.5307 34.3851 95.952H32.9291C32.9291 95.2267 33.0971 94.5867 33.4331 94.032C33.7691 93.472 34.2251 93.0347 34.8011 92.72C35.3825 92.4 36.0411 92.24 36.7771 92.24C37.4918 92.24 38.1318 92.4053 38.6971 92.736C39.2625 93.0613 39.7078 93.5067 40.0331 94.072C40.3638 94.632 40.5291 95.2667 40.5291 95.976C40.5291 96.4773 40.4651 96.912 40.3371 97.28C40.2145 97.648 40.0225 97.9893 39.7611 98.304C39.4998 98.6133 39.1718 98.944 38.7771 99.296L34.5291 103.112L34.3451 102.632H40.5291V103.992H32.8731ZM45.1631 103.992L45.1711 102.712L50.2831 98.112C50.7098 97.728 50.9951 97.3653 51.1391 97.024C51.2885 96.6773 51.3631 96.3227 51.3631 95.96C51.3631 95.5173 51.2618 95.1173 51.0591 94.76C50.8565 94.4027 50.5791 94.12 50.2271 93.912C49.8805 93.704 49.4858 93.6 49.0431 93.6C48.5845 93.6 48.1765 93.7093 47.8191 93.928C47.4618 94.1413 47.1791 94.4267 46.9711 94.784C46.7685 95.1413 46.6698 95.5307 46.6751 95.952H45.2191C45.2191 95.2267 45.3871 94.5867 45.7231 94.032C46.0591 93.472 46.5151 93.0347 47.0911 92.72C47.6725 92.4 48.3311 92.24 49.0671 92.24C49.7818 92.24 50.4218 92.4053 50.9871 92.736C51.5525 93.0613 51.9978 93.5067 52.3231 94.072C52.6538 94.632 52.8191 95.2667 52.8191 95.976C52.8191 96.4773 52.7551 96.912 52.6271 97.28C52.5045 97.648 52.3125 97.9893 52.0511 98.304C51.7898 98.6133 51.4618 98.944 51.0671 99.296L46.8191 103.112L46.6351 102.632H52.8191V103.992H45.1631ZM74.1474 104.24C73.4007 104.24 72.734 104.072 72.1474 103.736C71.566 103.395 71.1047 102.933 70.7634 102.352C70.4274 101.765 70.2594 101.099 70.2594 100.352V96.128C70.2594 95.3813 70.4274 94.7147 70.7634 94.128C71.1047 93.5413 71.566 93.08 72.1474 92.744C72.734 92.408 73.4007 92.24 74.1474 92.24C74.894 92.24 75.5607 92.408 76.1474 92.744C76.734 93.08 77.1954 93.5413 77.5314 94.128C77.8674 94.7147 78.0354 95.3813 78.0354 96.128V100.352C78.0354 101.099 77.8674 101.765 77.5314 102.352C77.1954 102.933 76.734 103.395 76.1474 103.736C75.5607 104.072 74.894 104.24 74.1474 104.24ZM74.1474 102.872C74.6007 102.872 75.0114 102.763 75.3794 102.544C75.7474 102.325 76.0407 102.032 76.2594 101.664C76.478 101.291 76.5874 100.88 76.5874 100.432V96.04C76.5874 95.5867 76.478 95.176 76.2594 94.808C76.0407 94.44 75.7474 94.1467 75.3794 93.928C75.0114 93.7093 74.6007 93.6 74.1474 93.6C73.6994 93.6 73.2887 93.7093 72.9154 93.928C72.5474 94.1467 72.254 94.44 72.0354 94.808C71.8167 95.176 71.7074 95.5867 71.7074 96.04V100.432C71.7074 100.88 71.8167 101.291 72.0354 101.664C72.254 102.032 72.5474 102.325 72.9154 102.544C73.2887 102.763 73.6994 102.872 74.1474 102.872ZM87.083 92.248C87.819 92.248 88.483 92.424 89.075 92.776C89.667 93.128 90.1363 93.608 90.483 94.216C90.835 94.824 91.011 95.5147 91.011 96.288V100.12C91.011 100.925 90.8377 101.637 90.491 102.256C90.1443 102.875 89.6643 103.36 89.051 103.712C88.443 104.064 87.7443 104.24 86.955 104.24C86.3257 104.24 85.7363 104.109 85.187 103.848C84.643 103.587 84.1817 103.216 83.803 102.736L84.867 101.792C85.1017 102.123 85.403 102.389 85.771 102.592C86.139 102.789 86.5337 102.888 86.955 102.888C87.467 102.888 87.9177 102.765 88.307 102.52C88.7017 102.275 89.0083 101.955 89.227 101.56C89.451 101.165 89.563 100.739 89.563 100.28V97.968L89.875 98.32C89.5443 98.8 89.1203 99.184 88.603 99.472C88.0857 99.76 87.523 99.904 86.915 99.904C86.2003 99.904 85.5603 99.736 84.995 99.4C84.4297 99.064 83.9817 98.6107 83.651 98.04C83.3203 97.464 83.155 96.8187 83.155 96.104C83.155 95.3893 83.3337 94.7413 83.691 94.16C84.0483 93.5733 84.523 93.1093 85.115 92.768C85.7123 92.4213 86.3683 92.248 87.083 92.248ZM87.083 93.624C86.6243 93.624 86.2057 93.736 85.827 93.96C85.4537 94.1787 85.155 94.4773 84.931 94.856C84.707 95.2293 84.595 95.6453 84.595 96.104C84.595 96.5627 84.7043 96.9813 84.923 97.36C85.147 97.7333 85.4457 98.032 85.819 98.256C86.1977 98.48 86.6163 98.592 87.075 98.592C87.5337 98.592 87.9523 98.48 88.331 98.256C88.7097 98.032 89.0083 97.7333 89.227 97.36C89.451 96.9813 89.563 96.5627 89.563 96.104C89.563 95.6507 89.451 95.2373 89.227 94.864C89.0083 94.4853 88.7097 94.184 88.331 93.96C87.9577 93.736 87.5417 93.624 87.083 93.624ZM96.9325 102.8V101.232H98.5005V102.8H96.9325ZM96.9405 98.128V96.56H98.5085V98.128H96.9405ZM108.236 104.24C107.489 104.24 106.823 104.072 106.236 103.736C105.655 103.395 105.193 102.933 104.852 102.352C104.516 101.765 104.348 101.099 104.348 100.352V96.128C104.348 95.3813 104.516 94.7147 104.852 94.128C105.193 93.5413 105.655 93.08 106.236 92.744C106.823 92.408 107.489 92.24 108.236 92.24C108.983 92.24 109.649 92.408 110.236 92.744C110.823 93.08 111.284 93.5413 111.62 94.128C111.956 94.7147 112.124 95.3813 112.124 96.128V100.352C112.124 101.099 111.956 101.765 111.62 102.352C111.284 102.933 110.823 103.395 110.236 103.736C109.649 104.072 108.983 104.24 108.236 104.24ZM108.236 102.872C108.689 102.872 109.1 102.763 109.468 102.544C109.836 102.325 110.129 102.032 110.348 101.664C110.567 101.291 110.676 100.88 110.676 100.432V96.04C110.676 95.5867 110.567 95.176 110.348 94.808C110.129 94.44 109.836 94.1467 109.468 93.928C109.1 93.7093 108.689 93.6 108.236 93.6C107.788 93.6 107.377 93.7093 107.004 93.928C106.636 94.1467 106.343 94.44 106.124 94.808C105.905 95.176 105.796 95.5867 105.796 96.04V100.432C105.796 100.88 105.905 101.291 106.124 101.664C106.343 102.032 106.636 102.325 107.004 102.544C107.377 102.763 107.788 102.872 108.236 102.872ZM121.292 104.24C120.545 104.24 119.878 104.072 119.292 103.736C118.71 103.395 118.249 102.933 117.908 102.352C117.572 101.765 117.404 101.099 117.404 100.352V96.128C117.404 95.3813 117.572 94.7147 117.908 94.128C118.249 93.5413 118.71 93.08 119.292 92.744C119.878 92.408 120.545 92.24 121.292 92.24C122.038 92.24 122.705 92.408 123.292 92.744C123.878 93.08 124.34 93.5413 124.676 94.128C125.012 94.7147 125.18 95.3813 125.18 96.128V100.352C125.18 101.099 125.012 101.765 124.676 102.352C124.34 102.933 123.878 103.395 123.292 103.736C122.705 104.072 122.038 104.24 121.292 104.24ZM121.292 102.872C121.745 102.872 122.156 102.763 122.524 102.544C122.892 102.325 123.185 102.032 123.404 101.664C123.622 101.291 123.732 100.88 123.732 100.432V96.04C123.732 95.5867 123.622 95.176 123.404 94.808C123.185 94.44 122.892 94.1467 122.524 93.928C122.156 93.7093 121.745 93.6 121.292 93.6C120.844 93.6 120.433 93.7093 120.06 93.928C119.692 94.1467 119.398 94.44 119.18 94.808C118.961 95.176 118.852 95.5867 118.852 96.04V100.432C118.852 100.88 118.961 101.291 119.18 101.664C119.398 102.032 119.692 102.325 120.06 102.544C120.433 102.763 120.844 102.872 121.292 102.872Z" fill="#FDFDFD"/>
<defs>
<filter id="filter0_d_300_2459" x="159" y="631" width="25" height="25" filterUnits="userSpaceOnUse" color-interpolation-filters="sRGB">
<feFlood flood-opacity="0" result="BackgroundImageFix"/>
<feColorMatrix in="SourceAlpha" type="matrix" values="0 0 0 0 0 0 0 0 0 0 0 0 0 0 0 0 0 0 127 0" result="hardAlpha"/>
<feOffset/>
<feGaussianBlur stdDeviation="2.5"/>
<feComposite in2="hardAlpha" operator="out"/>
<feColorMatrix type="matrix" values="0 0 0 0 0.736917 0 0 0 0 0 0 0 0 0 0.995833 0 0 0 1 0"/>
<feBlend mode="normal" in2="BackgroundImageFix" result="effect1_dropShadow_300_2459"/>
<feBlend mode="normal" in="SourceGraphic" in2="effect1_dropShadow_300_2459" result="shape"/>
</filter>
<linearGradient id="paint0_linear_300_2459" x1="171" y1="-9" x2="177" y2="647.5" gradientUnits="userSpaceOnUse">
<stop stop-color="#595D99"/>
<stop offset="0.565625" stop-color="#A55972" stop-opacity="0.89"/>
<stop offset="0.919792" stop-color="#A55972" stop-opacity="0.25"/>
</linearGradient>
</defs>
</svg>
