<svg width="250" height="218" viewBox="0 0 250 218" fill="none" xmlns="http://www.w3.org/2000/svg">
<path d="M210.5 78.8665L209.364 67.817C206.977 44.4929 205.455 42.95 182.068 40.5677L171 39.4332L182.068 38.2988C205.432 35.9165 206.977 34.3963 209.364 11.0495L210.5 0L211.636 11.0495C214.023 34.3736 215.545 35.9165 238.932 38.2988L250 39.4332L238.932 40.5677C215.568 42.95 214.023 44.4702 211.636 67.817L210.5 78.8665ZM191.477 39.4332C204.727 41.5206 208.409 45.1962 210.5 58.4238C212.591 45.1962 216.273 41.5206 229.523 39.4332C216.273 37.3459 212.591 33.6703 210.5 20.4427C208.409 33.6703 204.727 37.3459 191.477 39.4332Z" fill="url(#paint0_linear_959_866)"/>
<path d="M69.6177 218L67.6149 198.526C63.409 157.417 60.7252 154.698 19.5074 150.499L0 148.5L19.5074 146.501C60.6851 142.302 63.409 139.623 67.6149 98.4744L69.6177 79L71.6205 98.4744C75.8264 139.583 78.5101 142.302 119.728 146.501L139.235 148.5L119.728 150.499C78.5502 154.698 75.8264 157.377 71.6205 198.526L69.6177 218ZM36.0906 148.5C59.4434 152.179 65.9325 158.657 69.6177 181.97C73.3028 158.657 79.7919 152.179 103.145 148.5C79.7919 144.821 73.3028 138.343 69.6177 115.03C65.9325 138.343 59.4434 144.821 36.0906 148.5Z" fill="url(#paint1_linear_959_866)"/>
<defs>
<linearGradient id="paint0_linear_959_866" x1="171" y1="0" x2="321.492" y2="117.573" gradientUnits="userSpaceOnUse">
<stop stop-color="#FCD140" stop-opacity="0.83"/>
<stop offset="0.659892" stop-color="#FE9138"/>
</linearGradient>
<linearGradient id="paint1_linear_959_866" x1="0" y1="79" x2="265.239" y2="286.219" gradientUnits="userSpaceOnUse">
<stop stop-color="#FCD140" stop-opacity="0.83"/>
<stop offset="0.659892" stop-color="#FE9138"/>
</linearGradient>
</defs>
</svg>
